<svg width="60" height="61" viewBox="0 0 60 61" fill="none" xmlns="http://www.w3.org/2000/svg">
<g clip-path="url(#clip0_214_134)">
<path d="M46.0039 0.730469H14.0039C6.27192 0.730469 0.00390625 6.99848 0.00390625 14.7305V46.7305C0.00390625 54.4625 6.27192 60.7305 14.0039 60.7305H46.0039C53.7359 60.7305 60.0039 54.4625 60.0039 46.7305V14.7305C60.0039 6.99848 53.7359 0.730469 46.0039 0.730469Z" fill="#8264FA"/>
<path d="M31.3372 34.7305L35.3372 30.7305M35.3372 30.7305L31.3372 26.7305M35.3372 30.7305H24.6706M42.0039 30.7305C42.0039 24.1031 36.6313 18.7305 30.0039 18.7305C23.3765 18.7305 18.0039 24.1031 18.0039 30.7305C18.0039 37.3579 23.3765 42.7305 30.0039 42.7305C36.6313 42.7305 42.0039 37.3579 42.0039 30.7305Z" stroke="white" stroke-width="2" stroke-linecap="round" stroke-linejoin="round"/>
</g>
<defs>
<clipPath id="clip0_214_134">
<rect width="60" height="61" fill="white"/>
</clipPath>
</defs>
</svg>
