<svg width="61" height="61" viewBox="0 0 61 61" fill="none" xmlns="http://www.w3.org/2000/svg">
<g clip-path="url(#clip0_214_140)">
<path d="M46.6348 0.730469H14.6348C6.90278 0.730469 0.634766 6.99848 0.634766 14.7305V46.7305C0.634766 54.4625 6.90278 60.7305 14.6348 60.7305H46.6348C54.3668 60.7305 60.6348 54.4625 60.6348 46.7305V14.7305C60.6348 6.99848 54.3668 0.730469 46.6348 0.730469Z" fill="#8264FA"/>
<path d="M19.9688 25.3965H41.3021M19.9688 25.3965V37.1301C19.9688 38.6236 19.9687 39.3699 20.2593 39.9403C20.515 40.4421 20.9226 40.8505 21.4244 41.1061C21.9943 41.3965 22.7407 41.3965 24.2313 41.3965H37.0395C38.5301 41.3965 39.2753 41.3965 39.8452 41.1061C40.3469 40.8505 40.7561 40.4421 41.0117 39.9403C41.3021 39.3705 41.3021 38.6251 41.3021 37.1346V25.3965M19.9688 25.3965V24.3301C19.9688 22.8366 19.9687 22.0893 20.2593 21.5189C20.515 21.0171 20.9226 20.6095 21.4244 20.3538C21.9948 20.0632 22.7422 20.0632 24.2357 20.0632H25.302M41.3021 25.3965V24.3257C41.3021 22.8351 41.3021 22.0888 41.0117 21.5189C40.7561 21.0171 40.3469 20.6095 39.8452 20.3538C39.2747 20.0632 38.5291 20.0632 37.0357 20.0632H35.9687M25.302 20.0632H35.9687M25.302 20.0632V17.3965M35.9687 20.0632V17.3965" stroke="white" stroke-width="2" stroke-linecap="round" stroke-linejoin="round"/>
</g>
<defs>
<clipPath id="clip0_214_140">
<rect width="61" height="61" fill="white"/>
</clipPath>
</defs>
</svg>
