<svg width="61" height="61" viewBox="0 0 61 61" fill="none" xmlns="http://www.w3.org/2000/svg">
<g clip-path="url(#clip0_214_143)">
<path d="M46.4258 0.730469H14.4258C6.69379 0.730469 0.425781 6.99848 0.425781 14.7305V46.7305C0.425781 54.4625 6.69379 60.7305 14.4258 60.7305H46.4258C54.1578 60.7305 60.4258 54.4625 60.4258 46.7305V14.7305C60.4258 6.99848 54.1578 0.730469 46.4258 0.730469Z" fill="#8264FA"/>
<path d="M17.5391 28.5128C17.1214 28.1266 17.3483 27.4283 17.9132 27.3613L25.918 26.4119C26.1482 26.3846 26.3482 26.24 26.4453 26.0295L29.8216 18.7098C30.0599 18.1932 30.7943 18.1931 31.0326 18.7097L34.4089 26.0293C34.506 26.2399 34.7047 26.3848 34.9349 26.4121L42.9401 27.3613C43.505 27.4283 43.7313 28.1268 43.3136 28.513L37.3961 33.9863C37.2259 34.1438 37.1501 34.3781 37.1953 34.6055L38.7658 42.5117C38.8767 43.0697 38.2828 43.502 37.7864 43.2242L30.7526 39.2859C30.5503 39.1727 30.3045 39.1732 30.1022 39.2865L23.0677 43.2232C22.5713 43.501 21.9764 43.0697 22.0872 42.5117L23.658 34.606C23.7032 34.3786 23.6276 34.1437 23.4573 33.9863L17.5391 28.5128Z" stroke="white" stroke-width="2" stroke-linecap="round" stroke-linejoin="round"/>
</g>
<defs>
<clipPath id="clip0_214_143">
<rect width="61" height="61" fill="white"/>
</clipPath>
</defs>
</svg>
