<svg width="19" height="19" viewBox="0 0 19 19" fill="none" xmlns="http://www.w3.org/2000/svg">
<g clip-path="url(#clip0_213_63)">
<mask id="mask0_213_63" style="mask-type:luminance" maskUnits="userSpaceOnUse" x="0" y="0" width="19" height="19">
<path d="M18.7773 0.951172H0.777344V18.9512H18.7773V0.951172Z" fill="white"/>
</mask>
<g mask="url(#mask0_213_63)">
<path d="M18.1772 6.89684L10.725 1.26727C10.167 0.845818 9.3877 0.845782 8.8297 1.26731L1.37746 6.89681C0.646803 7.44883 0.571358 8.52275 1.21707 9.17219C1.52613 9.48301 1.94512 9.63211 2.35916 9.61175V17.3338C2.35916 17.6251 2.59527 17.8612 2.8865 17.8612H4.50373V18.4238C4.50373 18.7151 4.73983 18.9512 5.03107 18.9512C5.3223 18.9512 5.55841 18.7151 5.55841 18.4238V10.4777H8.72255V11.5325H7.14048C6.84925 11.5325 6.61314 11.7686 6.61314 12.0599C6.61314 12.3512 6.84925 12.5873 7.14048 12.5873H8.72255V13.6421H7.66782C7.37659 13.6421 7.14048 13.8783 7.14048 14.1696C7.14048 14.4608 7.37659 14.697 7.66782 14.697H8.72255V15.7518H7.14048C6.84925 15.7518 6.61314 15.9879 6.61314 16.2792C6.61314 16.5705 6.84925 16.8066 7.14048 16.8066H8.72255V18.4239C8.72255 18.7152 8.95866 18.9514 9.24989 18.9514C9.54112 18.9514 9.77723 18.7153 9.77723 18.4239V17.8614H11.3593V18.4239C11.3593 18.7152 11.5954 18.9514 11.8866 18.9514C12.1779 18.9514 12.414 18.7153 12.414 18.4239V16.8066H13.4687V18.4239C13.4687 18.7152 13.7048 18.9514 13.9961 18.9514C14.2873 18.9514 14.5234 18.7153 14.5234 18.4239V17.8614H16.6328C16.9241 17.8614 17.1602 17.6252 17.1602 17.334V9.60978C17.5916 9.64096 18.0234 9.48811 18.3374 9.17223C18.9832 8.52286 18.908 7.4489 18.1772 6.89684ZM12.9767 13.6421C12.3951 13.6421 11.9219 13.1266 11.9219 12.493C11.9219 11.7945 12.4295 11.2462 12.8736 10.846C13.349 11.5731 14.0313 11.7713 14.0313 12.493C14.0313 13.1266 13.5582 13.6421 12.9767 13.6421ZM13.2253 14.681C13.2989 14.9417 13.4028 15.3554 13.4473 15.7517H12.4357C12.4806 15.3509 12.5864 14.9321 12.6602 14.672C12.8561 14.7029 13.0405 14.7039 13.2253 14.681ZM14.5236 16.8065C14.5236 16.0737 14.5726 15.5128 14.2077 14.281C14.7392 13.8804 15.0861 13.2284 15.0861 12.493C15.0861 10.9884 13.7368 10.751 13.6036 9.87127C13.5372 9.43309 12.9902 9.26739 12.692 9.59551C12.3837 9.93441 10.8673 10.8888 10.8673 12.493C10.8673 13.2018 11.1895 13.8331 11.6886 14.2365C11.3159 15.47 11.3594 16.0321 11.3594 16.8065H9.77734V9.95027C9.77734 9.659 9.54123 9.42286 9.25 9.42286H5.03114C4.73991 9.42286 4.5038 9.659 4.5038 9.95027V16.8065H3.41388V9.14178L9.77734 4.33455L16.1056 9.11524V16.8065H14.5236ZM17.5897 8.4285C17.4324 8.5867 17.1798 8.60473 17.0021 8.47054L10.0952 3.25276C9.90706 3.11066 9.64754 3.11066 9.45946 3.25276L2.55262 8.47054C2.37487 8.60477 2.12224 8.58666 1.96502 8.42853C1.7692 8.23155 1.79244 7.9053 2.01319 7.73852L9.46543 2.10899C9.64912 1.97022 9.90566 1.97029 10.0893 2.10895L17.5415 7.73852C17.7622 7.90523 17.7855 8.23148 17.5897 8.4285Z" fill="#626E9B"/>
</g>
</g>
<defs>
<clipPath id="clip0_213_63">
<rect width="19" height="19" fill="white"/>
</clipPath>
</defs>
</svg>
