<svg width="25" height="26" viewBox="0 0 25 26" fill="none" xmlns="http://www.w3.org/2000/svg">
<path d="M6.04684 22.0627C6.26931 22.0939 6.58766 22.1251 6.97122 22.1251C8.61287 22.1251 11.3975 21.5521 12.5213 17.9505L22.4863 7.67206C23.2841 6.84963 23.2764 5.51659 22.4632 4.70585C21.6808 3.92239 20.3153 3.93408 19.5443 4.72923L9.66383 14.922C8.11424 15.0038 5.55588 16.0055 5.17999 19.3498C5.12629 19.498 4.91533 20.0125 4.45122 20.0943C4.00246 20.1723 3.81068 20.5192 3.81451 20.8271C3.82985 21.6417 5.21835 21.9536 6.04684 22.0666V22.0627ZM20.4726 5.65691C20.7564 5.36457 21.2627 5.36067 21.5504 5.64911C21.8495 5.94924 21.8534 6.43646 21.558 6.74439L13.9022 14.6413L12.8167 13.5577L20.4726 5.65691ZM11.9 14.501L12.9854 15.5846L11.946 16.6565L10.8605 15.5729L11.9 14.501ZM6.44958 19.6617L6.46876 19.5564C6.75259 16.7422 8.90821 16.3135 9.683 16.2511L11.2019 17.7712C10.7071 19.1783 9.84794 20.1138 8.63972 20.5387C7.63479 20.8895 6.61068 20.831 5.89342 20.6907C6.19643 20.3438 6.3767 19.9423 6.45342 19.6578L6.44958 19.6617Z" fill="#626E9B"/>
<path d="M6.21188 4.50684C6.18503 4.50684 6.15818 4.50684 6.13133 4.51074C5.72859 4.55751 5.42558 4.90831 5.43325 5.32148V6.35439C5.43325 6.79484 5.78613 7.15344 6.21955 7.15344C6.65298 7.15344 7.00585 6.79484 7.00585 6.35439V5.32148C7.00585 5.1032 6.92531 4.89662 6.77572 4.7446C6.62613 4.59259 6.419 4.50684 6.20805 4.50684H6.21188Z" fill="#626E9B"/>
<path d="M2.81349 7.90967C2.38773 7.94085 2.0617 8.31114 2.08088 8.74769C2.10006 9.18425 2.46061 9.51946 2.8902 9.51166H3.90664C4.33239 9.50387 4.67759 9.14527 4.67759 8.71261C4.67759 8.27996 4.33623 7.92136 3.90664 7.91357H2.8902C2.86335 7.91357 2.84033 7.91357 2.81349 7.91357V7.90967Z" fill="#626E9B"/>
<path d="M8.46332 7.90967C8.03756 7.94085 7.71154 8.31504 7.73455 8.74769C7.75757 9.18035 8.11427 9.51946 8.54386 9.50776H9.55647C9.98606 9.49997 10.3275 9.14137 10.3275 8.70872C10.3275 8.27606 9.98606 7.91746 9.55647 7.90967H8.54386C8.51701 7.90967 8.49017 7.90967 8.46332 7.90967Z" fill="#626E9B"/>
<path d="M6.21166 10.2526C6.0007 10.2526 5.80125 10.3423 5.6555 10.4943C5.50974 10.6463 5.4292 10.849 5.4292 11.0633V12.0963C5.4292 12.5367 5.78207 12.8953 6.2155 12.8953C6.64892 12.8953 7.0018 12.5367 7.0018 12.0963V11.0633C7.0018 10.849 6.92125 10.6424 6.77166 10.4865C6.62207 10.3345 6.41878 10.2487 6.20783 10.2526H6.21166Z" fill="#626E9B"/>
</svg>
