<svg width="24" height="26" viewBox="0 0 24 26" fill="none" xmlns="http://www.w3.org/2000/svg">
<path d="M22.1515 5.18248L20.0889 3.11997C19.8878 2.91879 19.5615 2.91854 19.3602 3.11972C19.3602 3.11985 19.3601 3.11997 19.3598 3.11997L13.1725 9.3076C13.0757 9.40422 13.0215 9.53527 13.0215 9.672V11.7346C13.0215 12.0193 13.2523 12.2501 13.537 12.2501H15.5996C15.7363 12.2501 15.8674 12.1959 15.964 12.0991L22.1515 5.91164C22.3528 5.71046 22.3529 5.38416 22.1519 5.18285C22.1518 5.18285 22.1518 5.1826 22.1515 5.18248ZM15.3861 11.219H14.0526V9.88566L19.7245 4.21379L21.0578 5.54712L15.3861 11.219Z" fill="#626E9B"/>
<path d="M20.7557 9.15634C20.4711 9.15634 20.2402 9.38716 20.2402 9.67184V16.8906C20.2394 17.7445 19.5473 18.4366 18.6934 18.4376H13.5371C13.4255 18.4373 13.3169 18.4735 13.2277 18.5406L9.92774 21.0157V18.9532C9.92774 18.6684 9.69692 18.4376 9.41211 18.4376H4.25586C3.40195 18.4366 2.70987 17.7445 2.70911 16.8907V7.60934C2.70999 6.75555 3.40195 6.06347 4.25586 6.06259H13.5371C13.8219 6.06259 14.0527 5.83177 14.0527 5.54696C14.0527 5.26228 13.8219 5.03146 13.5371 5.03146H4.25586C2.83259 5.03285 1.67912 6.18632 1.67773 7.60934V16.8907C1.67912 18.3139 2.83259 19.4673 4.25586 19.4688H8.89649V22.047C8.89649 22.3316 9.12731 22.5625 9.41211 22.5625C9.52374 22.5625 9.63221 22.5263 9.72151 22.4594L13.7095 19.4687H18.6934C20.1166 19.4673 21.27 18.3139 21.2715 16.8906V9.67196C21.2715 9.38716 21.0405 9.15634 20.7557 9.15634Z" fill="#626E9B"/>
<path d="M10.4432 8.12521H5.28724C5.0023 8.12521 4.77148 8.35603 4.77148 8.64084C4.77148 8.92552 5.0023 9.15634 5.28724 9.15634H10.4432C10.728 9.15634 10.959 8.92552 10.959 8.64084C10.959 8.35603 10.728 8.12521 10.4432 8.12521Z" fill="#626E9B"/>
<path d="M5.28724 12.2502H10.4432C10.728 12.2502 10.959 12.0193 10.959 11.7346C10.959 11.4498 10.728 11.219 10.4432 11.219H5.28724C5.0023 11.219 4.77148 11.4498 4.77148 11.7346C4.77148 12.0193 5.0023 12.2502 5.28724 12.2502Z" fill="#626E9B"/>
<path d="M5.28724 15.3439H17.6621C17.9469 15.3439 18.1776 15.113 18.1776 14.8282C18.1776 14.5436 17.9468 14.3127 17.6621 14.3127H5.28724C5.0023 14.3127 4.77148 14.5436 4.77148 14.8282C4.77148 15.113 5.0023 15.3439 5.28724 15.3439Z" fill="#626E9B"/>
</svg>
