<svg width="25" height="26" viewBox="0 0 25 26" fill="none" xmlns="http://www.w3.org/2000/svg">
<mask id="mask0_213_35" style="mask-type:luminance" maskUnits="userSpaceOnUse" x="1" y="1" width="23" height="23">
<path d="M23.0801 1.90381H1.08008V23.9038H23.0801V1.90381Z" fill="white"/>
</mask>
<g mask="url(#mask0_213_35)">
<path d="M22.2316 5.28822L20.169 3.22572C19.9679 3.02454 19.6416 3.02429 19.4403 3.22547C19.4406 3.22547 19.4403 3.2256 19.4403 3.22547L13.2525 9.41335C13.1558 9.50997 13.1016 9.64102 13.1016 9.77774V11.8404C13.1016 12.1251 13.3324 12.3559 13.6171 12.3559H15.6797C15.8164 12.3559 15.9475 12.3017 16.0441 12.2049L22.2316 6.01739C22.4329 5.81621 22.4326 5.48953 22.2316 5.28822C22.2318 5.28835 22.2314 5.28822 22.2316 5.28822ZM15.4661 11.3248H14.1327V9.99141L19.8046 4.31953L21.1379 5.65287L15.4661 11.3248Z" fill="#626E9B"/>
<path d="M20.8358 9.26209C20.5511 9.26209 20.3203 9.49291 20.3203 9.77759V16.9964C20.3194 17.8503 19.6274 18.5424 18.7734 18.5434H13.6172C13.5056 18.5431 13.397 18.5793 13.3078 18.6464L10.0078 21.1215V19.059C10.0078 18.7742 9.77699 18.5434 9.49219 18.5434H4.33594C3.48203 18.5424 2.78995 17.8503 2.78919 16.9965V7.71508C2.79007 6.8613 3.48203 6.16922 4.33594 6.16834H13.6172C13.902 6.16834 14.1328 5.93751 14.1328 5.65271C14.1328 5.36803 13.902 5.13721 13.6172 5.13721H4.33594C2.91267 5.1386 1.7592 6.29207 1.75781 7.71508V16.9965C1.7592 18.4196 2.91267 19.5731 4.33594 19.5746H8.97656V22.1528C8.97656 22.4374 9.20739 22.6683 9.49219 22.6683C9.60382 22.6683 9.71229 22.6321 9.80159 22.5652L13.7896 19.5745H18.7734C20.1967 19.5731 21.3501 18.4196 21.3516 16.9964V9.77771C21.3516 9.49291 21.1206 9.26209 20.8358 9.26209Z" fill="#626E9B"/>
<path d="M10.5233 8.23096H5.36731C5.08238 8.23096 4.85156 8.46178 4.85156 8.74659C4.85156 9.03126 5.08238 9.26209 5.36731 9.26209H10.5233C10.8081 9.26209 11.0391 9.03126 11.0391 8.74659C11.0391 8.46178 10.8081 8.23096 10.5233 8.23096Z" fill="#626E9B"/>
<path d="M5.36731 12.3559H10.5233C10.8081 12.3559 11.0391 12.125 11.0391 11.8403C11.0391 11.5555 10.8081 11.3247 10.5233 11.3247H5.36731C5.08238 11.3247 4.85156 11.5555 4.85156 11.8403C4.85156 12.125 5.08238 12.3559 5.36731 12.3559Z" fill="#626E9B"/>
<path d="M5.36731 15.4496H17.7422C18.027 15.4496 18.2577 15.2188 18.2577 14.934C18.2577 14.6493 18.0269 14.4185 17.7422 14.4185H5.36731C5.08238 14.4185 4.85156 14.6493 4.85156 14.934C4.85156 15.2188 5.08238 15.4496 5.36731 15.4496Z" fill="#626E9B"/>
</g>
</svg>
