<svg width="25" height="25" viewBox="0 0 25 25" fill="none" xmlns="http://www.w3.org/2000/svg">
<path d="M17.9727 12.9709C17.569 12.9709 17.2026 13.1326 16.9342 13.3943C16.2682 12.1959 14.9894 11.3828 13.5238 11.3828H7.01769C5.55209 11.3828 4.27339 12.1959 3.6073 13.3943C3.33884 13.1326 2.97247 12.9709 2.56883 12.9709C1.74795 12.9709 1.08008 13.6388 1.08008 14.4596V17.542C1.08008 18.6324 1.96714 19.5194 3.05745 19.5194H3.11825V19.9117C3.11825 20.1711 3.32853 20.3814 3.58794 20.3814C3.84734 20.3814 4.05763 20.1711 4.05763 19.9117V19.5194H8.16355C8.42295 19.5194 8.63323 19.3091 8.63323 19.0497C8.63323 18.7903 8.42295 18.58 8.16355 18.58H3.05745C2.48506 18.58 2.01941 18.1143 2.01941 17.542V14.4596C2.01941 14.1566 2.26587 13.9102 2.56883 13.9102C2.87178 13.9102 3.11825 14.1566 3.11825 14.4596V16.2741C3.11825 16.5335 3.32853 16.7438 3.58794 16.7438H16.9535C17.213 16.7438 17.4232 16.5335 17.4232 16.2741V14.4596C17.4232 14.1566 17.6697 13.9102 17.9727 13.9102C18.2756 13.9102 18.5221 14.1566 18.5221 14.4596V17.542C18.5221 18.1143 18.0564 18.58 17.484 18.58H12.3786C12.1192 18.58 11.9089 18.7903 11.9089 19.0497C11.9089 19.3091 12.1192 19.5194 12.3786 19.5194H16.4839V19.9117C16.4839 20.1711 16.6941 20.3814 16.9535 20.3814C17.213 20.3814 17.4232 20.1711 17.4232 19.9117V19.5194H17.484C18.5744 19.5194 19.4615 18.6324 19.4615 17.542V14.4596C19.4614 13.6388 18.7936 12.9709 17.9727 12.9709ZM4.05763 15.2822C4.05763 13.65 5.3855 12.3221 7.01769 12.3221H9.79977V15.8045H4.05763V15.2822ZM16.4839 15.8045H10.7391V12.3221H13.5238C15.156 12.3221 16.4839 13.65 16.4839 15.2822V15.8045Z" fill="#626E9B"/>
<path d="M23.9284 9.58592L22.7962 6.7933C22.6509 6.43508 22.3073 6.20361 21.9208 6.20361H20.4364C20.0498 6.20361 19.7062 6.43508 19.561 6.7933L18.4288 9.58587C18.3105 9.87753 18.3449 10.2075 18.5207 10.4685C18.6965 10.7295 18.9894 10.8854 19.3042 10.8854H20.709V17.5427C19.7605 17.7501 19.0481 18.5961 19.0481 19.6059V19.9125C19.0481 20.1719 19.2584 20.3822 19.5178 20.3822H22.8396C23.099 20.3822 23.3093 20.1719 23.3093 19.9125V19.6059C23.3093 18.5961 22.5968 17.7501 21.6483 17.5427V10.8854H22.6219V11.2216C22.6219 11.481 22.8322 11.6913 23.0916 11.6913C23.351 11.6913 23.5613 11.481 23.5613 11.2216V10.7369C23.6688 10.6682 23.763 10.5777 23.8366 10.4685C24.0123 10.2075 24.0467 9.87758 23.9284 9.58592ZM22.3585 19.4429H19.9986C20.0782 18.8731 20.5688 18.4331 21.1601 18.4331H21.197C21.7884 18.4331 22.2789 18.8731 22.3585 19.4429ZM19.302 9.94616C19.302 9.94616 19.2986 9.94241 19.2992 9.93884L20.4315 7.14622C20.4323 7.1442 20.4342 7.14294 20.4364 7.14294H21.9208C21.923 7.14294 21.9249 7.14425 21.9257 7.14622L23.0588 9.94077C23.0588 9.94077 23.0566 9.94527 23.053 9.94606L19.302 9.94616Z" fill="#626E9B"/>
<path d="M5.29284 8.19695H8.29327C8.81123 8.19695 9.23259 7.77554 9.23259 7.25762V4.2572C9.23259 3.73923 8.81119 3.31787 8.29327 3.31787H5.29284C4.77487 3.31787 4.35352 3.73927 4.35352 4.2572V7.25762C4.35352 7.77559 4.77492 8.19695 5.29284 8.19695ZM5.29284 4.2572H8.29327L8.29388 7.25762H5.29284V4.2572Z" fill="#626E9B"/>
<path d="M12.2479 9.82195H15.2483C15.7663 9.82195 16.1877 9.40054 16.1877 8.88262V5.8822C16.1877 5.36423 15.7663 4.94287 15.2483 4.94287H12.2479C11.73 4.94287 11.3086 5.36427 11.3086 5.8822V8.88262C11.3086 9.40054 11.73 9.82195 12.2479 9.82195ZM12.2479 5.88215H15.2483L15.249 8.88257H12.2479V5.88215Z" fill="#626E9B"/>
<path d="M10.2695 19.5176C10.5284 19.5176 10.7383 19.3078 10.7383 19.0489C10.7383 18.79 10.5284 18.5801 10.2695 18.5801C10.0106 18.5801 9.80078 18.79 9.80078 19.0489C9.80078 19.3078 10.0106 19.5176 10.2695 19.5176Z" fill="#626E9B"/>
<path d="M13.3594 14.4233C13.6183 14.4233 13.8281 14.2134 13.8281 13.9545C13.8281 13.6957 13.6183 13.4858 13.3594 13.4858C13.1005 13.4858 12.8906 13.6957 12.8906 13.9545C12.8906 14.2134 13.1005 14.4233 13.3594 14.4233Z" fill="#626E9B"/>
<path d="M7.25586 14.4233C7.51474 14.4233 7.72461 14.2134 7.72461 13.9545C7.72461 13.6957 7.51474 13.4858 7.25586 13.4858C6.99698 13.4858 6.78711 13.6957 6.78711 13.9545C6.78711 14.2134 6.99698 14.4233 7.25586 14.4233Z" fill="#626E9B"/>
</svg>
