<svg width="25" height="25" viewBox="0 0 25 25" fill="none" xmlns="http://www.w3.org/2000/svg">
<mask id="mask0_213_82" style="mask-type:luminance" maskUnits="userSpaceOnUse" x="1" y="1" width="23" height="23">
<path d="M23.0801 1.10596H1.08008V23.106H23.0801V1.10596Z" fill="white"/>
</mask>
<g mask="url(#mask0_213_82)">
<path d="M5.9784 13.8349C6.05604 13.8348 6.13221 13.8137 6.19881 13.7738C6.26542 13.7339 6.31997 13.6767 6.35668 13.6083C6.39338 13.5399 6.41086 13.4628 6.40727 13.3853C6.40367 13.3077 6.37913 13.2326 6.33625 13.1679C5.98944 12.6427 5.76224 12.0477 5.67073 11.425C5.57921 10.8023 5.6256 10.1671 5.80663 9.56431C5.98765 8.96152 6.29888 8.40586 6.71833 7.93662C7.13777 7.46737 7.65517 7.09599 8.23396 6.84875C8.81274 6.6015 9.43878 6.48442 10.0678 6.50579C10.6968 6.52715 11.3135 6.68644 11.8741 6.97239C12.4348 7.25834 12.9258 7.66397 13.3125 8.16059C13.6991 8.65722 13.9719 9.23272 14.1116 9.8464C14.1368 9.95756 14.205 10.0542 14.3014 10.115C14.3978 10.1758 14.5144 10.1959 14.6255 10.1707C14.7367 10.1456 14.8333 10.0773 14.8941 9.98094C14.9549 9.88457 14.975 9.76798 14.9498 9.65682C14.7824 8.92023 14.4552 8.22942 13.9913 7.63326C13.5274 7.03709 12.9381 6.55014 12.2653 6.20683C11.5924 5.86353 10.8523 5.67225 10.0974 5.64654C9.34243 5.62083 8.59106 5.76131 7.89639 6.05804C7.20173 6.35477 6.58074 6.80051 6.07736 7.36373C5.57398 7.92695 5.20049 8.59389 4.98332 9.31738C4.76615 10.0409 4.71059 10.8032 4.82058 11.5506C4.93057 12.2979 5.20342 13.012 5.61983 13.6422C5.65898 13.7015 5.71224 13.7501 5.77482 13.7838C5.8374 13.8174 5.90736 13.8349 5.9784 13.8349Z" fill="#626E9B"/>
<path d="M9.91992 4.43488C10.0339 4.43488 10.1432 4.3896 10.2238 4.30902C10.3043 4.22844 10.3496 4.11915 10.3496 4.00519V2.38819C10.3496 2.27423 10.3043 2.16493 10.2238 2.08435C10.1432 2.00377 10.0339 1.9585 9.91992 1.9585C9.80596 1.9585 9.69667 2.00377 9.61609 2.08435C9.5355 2.16493 9.49023 2.27423 9.49023 2.38819V4.00519C9.49023 4.11915 9.5355 4.22844 9.61609 4.30902C9.69667 4.3896 9.80596 4.43488 9.91992 4.43488Z" fill="#626E9B"/>
<path d="M6.15176 5.1303C6.20874 5.229 6.3026 5.30102 6.41268 5.33051C6.52275 5.36001 6.64004 5.34457 6.73874 5.28759C6.83743 5.23061 6.90945 5.13676 6.93895 5.02668C6.96845 4.9166 6.95301 4.79931 6.89603 4.70062L6.08748 3.30027C6.0301 3.20238 5.93632 3.13117 5.82663 3.10216C5.71693 3.07316 5.60021 3.08873 5.50195 3.14546C5.40369 3.20219 5.33185 3.29549 5.30212 3.405C5.27239 3.5145 5.28718 3.63131 5.34326 3.72995L6.15176 5.1303Z" fill="#626E9B"/>
<path d="M2.42044 6.96582L3.82075 7.77453C3.86963 7.80319 3.9237 7.8219 3.97985 7.82958C4.03599 7.83725 4.0931 7.83375 4.14789 7.81926C4.20267 7.80478 4.25405 7.7796 4.29906 7.74518C4.34408 7.71076 4.38184 7.66777 4.41018 7.6187C4.43851 7.56962 4.45686 7.51543 4.46416 7.45923C4.47147 7.40304 4.46758 7.34596 4.45273 7.29127C4.43789 7.23658 4.41237 7.18537 4.37765 7.14058C4.34293 7.0958 4.2997 7.05832 4.25043 7.03032L2.85012 6.2216C2.80124 6.19294 2.74717 6.17424 2.69102 6.16656C2.63488 6.15888 2.57777 6.16239 2.52298 6.17687C2.4682 6.19136 2.41682 6.21653 2.37181 6.25095C2.32679 6.28538 2.28903 6.32836 2.26069 6.37744C2.23236 6.42651 2.21401 6.48071 2.20671 6.5369C2.19941 6.5931 2.20329 6.65018 2.21814 6.70487C2.23298 6.75955 2.2585 6.81077 2.29322 6.85555C2.32794 6.90034 2.37118 6.93781 2.42044 6.96582Z" fill="#626E9B"/>
<path d="M3.55645 10.7988C3.55645 10.6849 3.51118 10.5756 3.4306 10.495C3.35002 10.4144 3.24073 10.3691 3.12677 10.3691H1.50977C1.39581 10.3691 1.28651 10.4144 1.20593 10.495C1.12535 10.5756 1.08008 10.6849 1.08008 10.7988C1.08008 10.9128 1.12535 11.0221 1.20593 11.1027C1.28651 11.1832 1.39581 11.2285 1.50977 11.2285H3.12677C3.24073 11.2285 3.35002 11.1832 3.4306 11.1027C3.51118 11.0221 3.55645 10.9128 3.55645 10.7988Z" fill="#626E9B"/>
<path d="M4.40774 13.9819C4.37953 13.9331 4.34196 13.8902 4.29719 13.8559C4.25242 13.8215 4.20132 13.7963 4.14682 13.7817C4.09231 13.7671 4.03546 13.7634 3.97951 13.7708C3.92356 13.7781 3.86961 13.7965 3.82075 13.8247L2.42044 14.6332C2.37118 14.6612 2.32794 14.6987 2.29322 14.7434C2.2585 14.7882 2.23298 14.8394 2.21814 14.8941C2.20329 14.9488 2.19941 15.0059 2.20671 15.0621C2.21401 15.1183 2.23236 15.1725 2.26069 15.2216C2.28903 15.2706 2.32679 15.3136 2.37181 15.348C2.41682 15.3825 2.4682 15.4076 2.52298 15.4221C2.57777 15.4366 2.63488 15.4401 2.69102 15.4324C2.74717 15.4248 2.80124 15.4061 2.85012 15.3774L4.25043 14.5689C4.29931 14.5407 4.34215 14.5032 4.3765 14.4584C4.41086 14.4136 4.43606 14.3625 4.45067 14.308C4.46528 14.2535 4.469 14.1967 4.46164 14.1407C4.45427 14.0848 4.43596 14.0308 4.40774 13.9819Z" fill="#626E9B"/>
<path d="M15.8052 7.83193C15.8805 7.83194 15.9544 7.81206 16.0196 7.77431L17.4199 6.96582C17.4692 6.93782 17.5124 6.90034 17.5472 6.85556C17.5819 6.81077 17.6074 6.75955 17.6222 6.70486C17.6371 6.65017 17.641 6.59309 17.6337 6.5369C17.6264 6.4807 17.608 6.42651 17.5797 6.37743C17.5513 6.32836 17.5136 6.28538 17.4686 6.25096C17.4236 6.21654 17.3722 6.19136 17.3174 6.17688C17.2626 6.16239 17.2055 6.15888 17.1494 6.16655C17.0932 6.17423 17.0391 6.19294 16.9903 6.2216L15.5899 7.03011C15.5079 7.07741 15.4439 7.15044 15.4077 7.23788C15.3715 7.32532 15.3652 7.42226 15.3897 7.51366C15.4142 7.60506 15.4683 7.6858 15.5434 7.74335C15.6185 7.8009 15.7105 7.83204 15.8052 7.83193Z" fill="#626E9B"/>
<path d="M13.1015 5.28757C13.2002 5.34455 13.3175 5.35999 13.4276 5.3305C13.5377 5.301 13.6315 5.22899 13.6885 5.1303L14.497 3.72995C14.553 3.63131 14.5678 3.5145 14.5381 3.405C14.5084 3.29549 14.4365 3.20219 14.3383 3.14546C14.24 3.08873 14.1233 3.07316 14.0136 3.10216C13.9039 3.13117 13.8101 3.20238 13.7527 3.30027L12.9443 4.70062C12.8873 4.79931 12.8719 4.91659 12.9014 5.02666C12.9309 5.13674 13.0029 5.23059 13.1015 5.28757Z" fill="#626E9B"/>
<path d="M20.4754 15.3226C20.6745 14.3769 20.5337 13.3912 20.0778 12.539C19.6219 11.6868 18.8801 11.0227 17.9829 10.6634C17.0857 10.3042 16.0905 10.2728 15.1724 10.5749C14.2544 10.8769 13.4722 11.493 12.9636 12.3148C12.174 11.9992 11.2922 12.0057 10.5074 12.3328C9.72252 12.66 9.09717 13.2817 8.76552 14.0647C8.20257 13.9675 7.62557 13.9883 7.07108 14.1258C6.5166 14.2632 5.99672 14.5144 5.54441 14.8634C5.0921 15.2124 4.71722 15.6515 4.44354 16.1529C4.16985 16.6544 4.00333 17.2072 3.95453 17.7764C3.90573 18.3456 3.97571 18.9187 4.16004 19.4595C4.34436 20.0002 4.63902 20.4967 5.02532 20.9176C5.41163 21.3385 5.88115 21.6745 6.40414 21.9044C6.92713 22.1342 7.49217 22.2529 8.06345 22.253H19.5533C20.4079 22.2528 21.2334 21.9423 21.8763 21.3792C22.5192 20.8161 22.9357 20.0387 23.0484 19.1915C23.1611 18.3444 22.9624 17.4851 22.4891 16.7735C22.0159 16.0618 21.3003 15.5463 20.4754 15.3226ZM19.5531 21.3937H8.06328C7.59784 21.3934 7.13786 21.2935 6.71418 21.1008C6.29051 20.9081 5.91293 20.6271 5.60677 20.2765C5.30061 19.9259 5.07296 19.5139 4.93907 19.0682C4.80518 18.6224 4.76815 18.1532 4.83047 17.6919C4.89279 17.2307 5.05302 16.7881 5.3004 16.3938C5.54779 15.9996 5.87661 15.6628 6.26483 15.406C6.65304 15.1493 7.09167 14.9785 7.55129 14.9052C8.01091 14.8318 8.4809 14.8576 8.92975 14.9808C9.03916 15.0108 9.15602 14.9964 9.25483 14.9406C9.35363 14.8848 9.42636 14.7922 9.45714 14.683C9.55548 14.3346 9.73166 14.0131 9.97241 13.7428C10.2132 13.4724 10.5122 13.2603 10.8469 13.1224C11.1816 12.9845 11.5433 12.9244 11.9046 12.9467C12.2659 12.969 12.6174 13.0731 12.9326 13.2511C12.9838 13.28 13.0403 13.2982 13.0987 13.3044C13.1571 13.3106 13.2162 13.3048 13.2723 13.2873C13.3284 13.2698 13.3803 13.241 13.4248 13.2026C13.4693 13.1642 13.5054 13.1172 13.531 13.0643C13.8911 12.3208 14.5209 11.7424 15.2922 11.4468C16.0636 11.1511 16.9187 11.1605 17.6834 11.473C18.4481 11.7855 19.0651 12.3776 19.4087 13.1288C19.7524 13.88 19.7969 14.734 19.5332 15.5169C19.5128 15.5772 19.5061 15.6414 19.5136 15.7047C19.521 15.768 19.5425 15.8288 19.5763 15.8828C19.6102 15.9368 19.6557 15.9825 19.7094 16.0168C19.7632 16.051 19.8238 16.0729 19.8871 16.0808C20.5602 16.1656 21.1757 16.5038 21.6082 17.0264C22.0408 17.5491 22.2579 18.217 22.2153 18.8941C22.1728 19.5712 21.8738 20.2066 21.3792 20.671C20.8846 21.1354 20.2316 21.3939 19.5531 21.3937Z" fill="#626E9B"/>
</g>
</svg>
