<svg width="21" height="21" viewBox="0 0 21 21" fill="none" xmlns="http://www.w3.org/2000/svg">
<g clip-path="url(#clip0_213_18)">
<mask id="mask0_213_18" style="mask-type:luminance" maskUnits="userSpaceOnUse" x="0" y="0" width="21" height="21">
<path d="M20.5801 0.72168H0.580078V20.7217H20.5801V0.72168Z" fill="white"/>
</mask>
<g mask="url(#mask0_213_18)">
<path d="M10.5301 0.721509C10.4677 0.728317 10.4078 0.749728 10.3551 0.784009L0.755135 7.12151C0.700259 7.15884 0.655531 7.20923 0.624981 7.26815C0.594431 7.32706 0.57902 7.39266 0.580135 7.45901V10.0216C0.578899 10.0948 0.597823 10.1671 0.63484 10.2303C0.671857 10.2936 0.725544 10.3455 0.79004 10.3803C0.854535 10.4151 0.92736 10.4316 1.00056 10.4278C1.07377 10.4241 1.14453 10.4003 1.20514 10.3591L1.78014 9.98401V20.3216C1.78015 20.4276 1.82229 20.5294 1.8973 20.6044C1.97232 20.6794 2.07405 20.7215 2.18014 20.7216H18.9801C19.0862 20.7215 19.188 20.6794 19.263 20.6044C19.338 20.5294 19.3801 20.4276 19.3801 20.3216V9.98401L19.9551 10.3591C20.0157 10.4003 20.0865 10.4241 20.1597 10.4278C20.2329 10.4316 20.3057 10.4151 20.3702 10.3803C20.4347 10.3455 20.4884 10.2936 20.5254 10.2303C20.5624 10.1671 20.5814 10.0948 20.5801 10.0216V7.45901C20.5813 7.39266 20.5658 7.32706 20.5353 7.26815C20.5047 7.20923 20.46 7.15884 20.4051 7.12151L10.8051 0.784009C10.7241 0.730484 10.6263 0.70827 10.5301 0.721509ZM10.5801 1.60901L19.7801 7.68401V9.28401L10.8051 3.34651C10.7388 3.30138 10.6604 3.27724 10.5801 3.27724C10.4999 3.27724 10.4215 3.30138 10.3551 3.34651L1.38013 9.28401V7.68401L10.5801 1.60901ZM10.5801 4.17151L18.5801 9.44651V19.9216H2.58014V9.44651L10.5801 4.17151ZM8.39264 9.52151C6.95326 9.52151 5.78014 10.6947 5.78014 12.1341V12.3841C5.09219 12.5629 4.58013 13.1803 4.58013 13.9216C4.58013 14.6602 5.0959 15.2652 5.78014 15.4466V15.8091C5.78014 16.4146 6.10318 16.9544 6.58013 17.2591V17.8841C6.58013 18.1241 6.77764 18.3216 7.01764 18.3216H7.74264C7.98304 18.3216 8.18014 18.1241 8.18014 17.8841V17.5216H12.9801V17.8841C12.9801 18.1241 13.1772 18.3216 13.4176 18.3216H14.1426C14.3826 18.3216 14.5801 18.1241 14.5801 17.8841V17.2591C15.0571 16.9544 15.3801 16.4146 15.3801 15.8091V15.4466C16.0644 15.2652 16.5801 14.6602 16.5801 13.9216C16.5801 13.1803 16.0681 12.5629 15.3801 12.3841V12.1341C15.3801 10.6947 14.207 9.52151 12.7676 9.52151H8.39264ZM8.39264 10.3216H12.7676C13.7747 10.3216 14.5801 11.127 14.5801 12.1341V12.3841C13.8922 12.5629 13.3801 13.1803 13.3801 13.9216C13.3801 14.255 13.2983 14.4284 13.1926 14.5341C13.087 14.6397 12.9135 14.7216 12.5801 14.7216H8.58014C8.24704 14.7216 8.07333 14.6397 7.96764 14.5341C7.86194 14.4284 7.78014 14.2547 7.78014 13.9216C7.78014 13.1803 7.26808 12.5629 6.58013 12.3841V12.1341C6.58013 11.127 7.38561 10.3216 8.39264 10.3216ZM6.10513 13.1216C6.14654 13.1281 6.18873 13.1281 6.23013 13.1216C6.65249 13.1472 6.98014 13.492 6.98014 13.9216C6.98014 14.3881 7.09843 14.8148 7.39264 15.1091C7.68684 15.4033 8.11364 15.5216 8.58014 15.5216H12.5801C13.0468 15.5216 13.4735 15.4034 13.7676 15.1091C14.0618 14.8147 14.1801 14.3882 14.1801 13.9216C14.1801 13.5005 14.495 13.159 14.9051 13.1216C14.9465 13.1281 14.9887 13.1281 15.0301 13.1216C15.4525 13.1472 15.7801 13.492 15.7801 13.9216C15.7801 14.3682 15.4268 14.7216 14.9801 14.7216H14.5801V15.1216V15.8091C14.5801 16.3198 14.1779 16.7216 13.6676 16.7216H7.49264C6.98187 16.7216 6.58013 16.3198 6.58013 15.8091V15.1216V14.7216H6.18014C5.73347 14.7216 5.38014 14.3682 5.38014 13.9216C5.38014 13.5005 5.69498 13.159 6.10513 13.1216Z" fill="#626E9B"/>
</g>
</g>
<defs>
<clipPath id="clip0_213_18">
<rect width="21" height="21" fill="white"/>
</clipPath>
</defs>
</svg>
