<svg width="26" height="27" viewBox="0 0 26 27" fill="none" xmlns="http://www.w3.org/2000/svg">
<mask id="mask0_213_24" style="mask-type:luminance" maskUnits="userSpaceOnUse" x="0" y="0" width="26" height="27">
<path d="M25.832 0.951172H0.832031V26.9512H25.832V0.951172Z" fill="white"/>
</mask>
<g mask="url(#mask0_213_24)">
<mask id="mask1_213_24" style="mask-type:luminance" maskUnits="userSpaceOnUse" x="4" y="4" width="20" height="21">
<path d="M23.2773 4.10596H4.27734V24.106H23.2773V4.10596Z" fill="white"/>
</mask>
<g mask="url(#mask1_213_24)">
<path d="M23.2524 22.6419L18.368 17.7772C19.647 16.3706 20.4329 14.5105 20.4329 12.4636C20.4323 8.08482 16.869 4.53564 12.473 4.53564C8.07703 4.53564 4.51367 8.08482 4.51367 12.4636C4.51367 16.8423 8.07703 20.3915 12.473 20.3915C14.3724 20.3915 16.1144 19.7265 17.4828 18.6211L22.3861 23.5049C22.625 23.7431 23.0129 23.7431 23.2518 23.5049C23.4913 23.2667 23.4913 22.8801 23.2524 22.6419ZM12.473 19.1717C8.75353 19.1717 5.73833 16.1684 5.73833 12.4636C5.73833 8.75873 8.75353 5.7554 12.473 5.7554C16.1925 5.7554 19.2077 8.75873 19.2077 12.4636C19.2077 16.1684 16.1925 19.1717 12.473 19.1717Z" fill="#626E9B"/>
<path d="M10.7061 8.35986C9.46322 8.35986 8.45024 9.38514 8.45024 10.6431V10.8616C7.85622 11.0179 7.41406 11.5575 7.41406 12.2053C7.41406 12.8509 7.85942 13.3796 8.45024 13.5381V13.855C8.45024 14.3842 8.72919 14.856 9.14103 15.1222V15.6685C9.14103 15.8782 9.31157 16.0508 9.51881 16.0508H10.1448C10.3524 16.0508 10.5226 15.8782 10.5226 15.6685V15.3516H14.6673V15.6685C14.6673 15.8782 14.8375 16.0508 15.0451 16.0508H15.6711C15.8784 16.0508 16.0489 15.8782 16.0489 15.6685V15.1222C16.4608 14.856 16.7397 14.3842 16.7397 13.855V13.5381C17.3305 13.3796 17.7759 12.8509 17.7759 12.2053C17.7759 11.5575 17.3337 11.0179 16.7397 10.8616V10.6431C16.7397 9.38514 15.7267 8.35986 14.4838 8.35986H10.7061ZM10.7061 9.05904H14.4838C15.3534 9.05904 16.0489 9.76301 16.0489 10.6431V10.8616C15.4549 11.0179 15.0127 11.5575 15.0127 12.2053C15.0127 12.4967 14.942 12.6483 14.8508 12.7406C14.7596 12.833 14.6098 12.9045 14.3219 12.9045H10.868C10.5804 12.9045 10.4304 12.833 10.3391 12.7406C10.2479 12.6483 10.1772 12.4965 10.1772 12.2053C10.1772 11.5575 9.73506 11.0179 9.14103 10.8616V10.6431C9.14103 9.76301 9.83655 9.05904 10.7061 9.05904ZM8.73088 11.5062C8.76663 11.5119 8.80306 11.5119 8.83881 11.5062C9.20351 11.5286 9.48643 11.8299 9.48643 12.2053C9.48643 12.613 9.58857 12.9861 9.84261 13.2432C10.0967 13.5003 10.4652 13.6037 10.868 13.6037H14.3219C14.7249 13.6037 15.0933 13.5004 15.3473 13.2432C15.6013 12.9859 15.7035 12.6131 15.7035 12.2053C15.7035 11.8374 15.9754 11.5388 16.3295 11.5062C16.3653 11.5119 16.4017 11.5119 16.4375 11.5062C16.8022 11.5286 17.0851 11.8299 17.0851 12.2053C17.0851 12.5957 16.78 12.9045 16.3943 12.9045H16.0489V13.2541V13.855C16.0489 14.3014 15.7016 14.6525 15.261 14.6525H9.92896C9.48792 14.6525 9.14103 14.3014 9.14103 13.855V13.2541V12.9045H8.79564C8.40995 12.9045 8.10485 12.5957 8.10485 12.2053C8.10485 11.8374 8.37672 11.5388 8.73088 11.5062Z" fill="#626E9B"/>
</g>
</g>
</svg>
