<svg width="25" height="27" viewBox="0 0 25 27" fill="none" xmlns="http://www.w3.org/2000/svg">
<mask id="mask0_213_96" style="mask-type:luminance" maskUnits="userSpaceOnUse" x="0" y="0" width="25" height="27">
<path d="M24.0801 0.913574H0.0800781V26.5097H24.0801V0.913574Z" fill="white"/>
</mask>
<g mask="url(#mask0_213_96)">
<path d="M16.5293 24.9136L13.2407 19.8439L13.1399 19.6727L12.0207 17.9446H14.4532V12.8837H18.6354V17.9743H21.0801L19.9277 19.6965L16.5278 24.9136H16.5293ZM13.8861 19.4628L16.5293 23.5383L19.2989 19.2872L19.6795 18.7186H17.8817V13.628H15.2039V18.6888H13.3942L13.7838 19.2901L13.8846 19.4628H13.8861ZM6.54017 22.5142H5.77293C5.18321 22.5142 4.69579 22.0691 4.63561 21.502C3.69537 21.0704 3.08008 20.1371 3.08008 19.1056V4.57795C3.08008 3.10882 4.2881 1.91357 5.77293 1.91357H15.04C16.5248 1.91357 17.7328 3.10882 17.7328 4.57795V12.586H15.4461V11.8269H5.36675V19.0907C5.36675 19.3006 5.54577 19.4777 5.75789 19.4777H12.478L13.9523 21.7551H7.62032C7.46386 22.1971 7.03963 22.5142 6.54017 22.5142ZM5.77293 2.65781C4.70331 2.65781 3.83227 3.51964 3.83227 4.57795V19.1056C3.83227 19.9093 4.35429 20.6283 5.13056 20.8977L5.38179 20.9855V21.3829C5.38179 21.5928 5.56081 21.7699 5.77293 21.7699H6.54017C6.75229 21.7699 6.93131 21.5928 6.93131 21.3829V21.0108H12.5773L12.0658 20.2219H5.75789C5.12755 20.2219 4.61455 19.7144 4.61455 19.0907V11.0827H16.1983V11.8418H16.9806V4.57795C16.9806 3.51964 16.1096 2.65781 15.04 2.65781H5.77293ZM7.32245 16.3965C6.69211 16.3965 6.17912 15.889 6.17912 15.2653V12.973C6.17912 12.3494 6.69211 11.8418 7.32245 11.8418C7.95279 11.8418 8.46579 12.3494 8.46579 12.973V15.2653C8.46579 15.889 7.95279 16.3965 7.32245 16.3965ZM7.32245 12.586C7.11033 12.586 6.93131 12.7632 6.93131 12.973V15.2653C6.93131 15.4752 7.11033 15.6523 7.32245 15.6523C7.53457 15.6523 7.71359 15.4752 7.71359 15.2653V12.973C7.71359 12.7632 7.53457 12.586 7.32245 12.586Z" fill="#626E9B"/>
<path d="M16.1976 10.2938H4.62891V4.57803C4.62891 3.95435 5.1419 3.44678 5.77224 3.44678H15.0393C15.5387 3.44678 15.963 3.76383 16.1194 4.20591H16.1976V10.2938ZM5.3811 9.54955H15.4455V4.95015L15.4304 4.57803C15.4304 4.36815 15.2514 4.19102 15.0393 4.19102H5.77224C5.56012 4.19102 5.3811 4.36815 5.3811 4.57803V9.54955ZM7.32176 9.51978C6.69142 9.51978 6.17843 9.01221 6.17843 8.38854V6.87029C6.17843 6.24661 6.69142 5.73904 7.32176 5.73904C7.9521 5.73904 8.46509 6.24661 8.46509 6.87029V8.38854C8.46509 9.01221 7.9521 9.51978 7.32176 9.51978ZM7.32176 6.48328C7.10964 6.48328 6.93062 6.66041 6.93062 6.87029V8.38854C6.93062 8.59841 7.10964 8.77554 7.32176 8.77554C7.53388 8.77554 7.7129 8.59841 7.7129 8.38854V6.87029C7.7129 6.66041 7.53388 6.48328 7.32176 6.48328Z" fill="#626E9B"/>
</g>
</svg>
