<svg width="25" height="27" viewBox="0 0 25 27" fill="none" xmlns="http://www.w3.org/2000/svg">
<path d="M14.3518 3.38137C13.7391 2.83315 12.9393 2.5293 12.1101 2.5293C11.2808 2.5293 10.4816 2.83315 9.8684 3.38137L2.70801 9.74509C2.00915 10.3678 1.61035 11.252 1.61035 12.1791V21.247C1.61144 22.1172 1.96387 22.9511 2.59017 23.5668C3.21646 24.182 4.06589 24.5282 4.95187 24.5293H19.2688C20.1548 24.5282 21.0037 24.182 21.6305 23.5668C22.2568 22.9516 22.6093 22.1172 22.6104 21.247V12.1797C22.6104 11.2526 22.2116 10.3689 21.5127 9.74616L14.3518 3.38137ZM21.6556 21.247C21.6545 21.8686 21.403 22.4645 20.9557 22.9039C20.5083 23.3434 19.9017 23.5904 19.2688 23.5915H4.94805C4.31521 23.5904 3.70855 23.3434 3.2612 22.9039C2.81384 22.4645 2.56234 21.8686 2.56125 21.247V12.1797C2.5618 11.5173 2.84712 10.8855 3.34685 10.4407L10.5078 4.07749C10.9459 3.68575 11.5165 3.46872 12.109 3.46872C12.7015 3.46872 13.2721 3.68575 13.7102 4.07749L20.8706 10.4412C21.3703 10.886 21.6556 11.5173 21.6562 12.1802L21.6556 21.247Z" fill="#2E2424"/>
<path d="M10.1988 11.8691H9.24409C8.86438 11.8691 8.49996 12.0175 8.23154 12.2812C7.96313 12.5448 7.81201 12.9028 7.81201 13.2758V14.2136C7.81201 14.5866 7.96313 14.9445 8.23154 15.2082C8.49996 15.4719 8.86438 15.6203 9.24409 15.6203H10.1988C10.5785 15.6203 10.9429 15.4719 11.2113 15.2082C11.4798 14.9445 11.6309 14.5866 11.6309 14.2136V13.2758C11.6309 12.9028 11.4798 12.5448 11.2113 12.2812C10.9429 12.0175 10.5785 11.8691 10.1988 11.8691ZM10.6762 14.2136C10.6762 14.3379 10.626 14.4574 10.5365 14.5453C10.447 14.6332 10.3254 14.6825 10.1988 14.6825H9.24409C8.98059 14.6825 8.76673 14.4724 8.76673 14.2136V13.2758C8.76673 13.0169 8.98059 12.8069 9.24409 12.8069H10.1988C10.3254 12.8069 10.447 12.8562 10.5365 12.9441C10.626 13.0319 10.6762 13.1514 10.6762 13.2758V14.2136Z" fill="#2E2424"/>
<path d="M14.9727 11.8691H14.0179C13.6382 11.8691 13.2738 12.0175 13.0054 12.2812C12.737 12.5448 12.5859 12.9028 12.5859 13.2758V14.2136C12.5859 14.5866 12.737 14.9445 13.0054 15.2082C13.2738 15.4719 13.6382 15.6203 14.0179 15.6203H14.9727C15.3524 15.6203 15.7168 15.4719 15.9852 15.2082C16.2536 14.9445 16.4047 14.5866 16.4047 14.2136V13.2758C16.4047 12.9028 16.2536 12.5448 15.9852 12.2812C15.7168 12.0175 15.3524 11.8691 14.9727 11.8691ZM15.45 14.2136C15.45 14.3379 15.3998 14.4574 15.3104 14.5453C15.2209 14.6332 15.0992 14.6825 14.9727 14.6825H14.0179C13.7544 14.6825 13.5406 14.4724 13.5406 14.2136V13.2758C13.5406 13.0169 13.7544 12.8069 14.0179 12.8069H14.9727C15.0992 12.8069 15.2209 12.8562 15.3104 12.9441C15.3998 13.0319 15.45 13.1514 15.45 13.2758V14.2136Z" fill="#2E2424"/>
<path d="M10.1988 16.5581H9.24409C8.86438 16.5581 8.49996 16.7066 8.23154 16.9702C7.96313 17.2339 7.81201 17.5919 7.81201 17.9649V18.9027C7.81201 19.2757 7.96313 19.6336 8.23154 19.8973C8.49996 20.1609 8.86438 20.3094 9.24409 20.3094H10.1988C10.5785 20.3094 10.9429 20.1609 11.2113 19.8973C11.4798 19.6336 11.6309 19.2757 11.6309 18.9027V17.9649C11.6309 17.5919 11.4798 17.2339 11.2113 16.9702C10.9429 16.7066 10.5785 16.5581 10.1988 16.5581ZM10.6762 18.9027C10.6762 19.027 10.626 19.1465 10.5365 19.2344C10.447 19.3223 10.3254 19.3716 10.1988 19.3716H9.24409C8.98059 19.3716 8.76673 19.1615 8.76673 18.9027V17.9649C8.76673 17.706 8.98059 17.496 9.24409 17.496H10.1988C10.3254 17.496 10.447 17.5453 10.5365 17.6331C10.626 17.721 10.6762 17.8405 10.6762 17.9649V18.9027Z" fill="#2E2424"/>
<path d="M14.9727 16.5581H14.0179C13.6382 16.5581 13.2738 16.7066 13.0054 16.9702C12.737 17.2339 12.5859 17.5919 12.5859 17.9649V18.9027C12.5859 19.2757 12.737 19.6336 13.0054 19.8973C13.2738 20.1609 13.6382 20.3094 14.0179 20.3094H14.9727C15.3524 20.3094 15.7168 20.1609 15.9852 19.8973C16.2536 19.6336 16.4047 19.2757 16.4047 18.9027V17.9649C16.4047 17.5919 16.2536 17.2339 15.9852 16.9702C15.7168 16.7066 15.3524 16.5581 14.9727 16.5581ZM15.45 18.9027C15.45 19.027 15.3998 19.1465 15.3104 19.2344C15.2209 19.3223 15.0992 19.3716 14.9727 19.3716H14.0179C13.7544 19.3716 13.5406 19.1615 13.5406 18.9027V17.9649C13.5406 17.706 13.7544 17.496 14.0179 17.496H14.9727C15.0992 17.496 15.2209 17.5453 15.3104 17.6331C15.3998 17.721 15.45 17.8405 15.45 17.9649V18.9027Z" fill="#2E2424"/>
</svg>
