<svg width="25" height="26" viewBox="0 0 25 26" fill="none" xmlns="http://www.w3.org/2000/svg">
<mask id="mask0_213_117" style="mask-type:luminance" maskUnits="userSpaceOnUse" x="0" y="0" width="25" height="26">
<path d="M24.3301 0.399414H0.330078V25.9955H24.3301V0.399414Z" fill="white"/>
</mask>
<g mask="url(#mask0_213_117)">
<mask id="mask1_213_117" style="mask-type:luminance" maskUnits="userSpaceOnUse" x="1" y="3" width="23" height="23">
<path d="M23.3301 3.19629H1.33008V25.1963H23.3301V3.19629Z" fill="white"/>
</mask>
<g mask="url(#mask1_213_117)">
<path d="M12.3301 23.8203C12.1926 23.8203 12.0551 23.7516 11.9863 23.6828C11.6426 23.4078 4.21758 16.7391 2.49883 14.5391C1.39883 13.1641 1.05508 11.3078 1.46758 9.58909C2.01758 7.59534 3.39258 5.94534 5.31758 5.05159C8.54883 3.53909 11.2988 5.94534 12.3301 6.97659C13.3613 5.94534 16.1113 3.60784 19.3426 5.05159C21.2676 5.94534 22.6426 7.59534 23.1238 9.52034C23.5363 11.3078 23.1926 13.0953 22.0926 14.4703C20.4426 16.7391 13.0176 23.4078 12.6738 23.6828C12.6051 23.7516 12.4676 23.8203 12.3301 23.8203ZM7.38008 5.60159C6.83008 5.60159 6.28008 5.73909 5.73008 5.94534C4.08008 6.70159 2.91133 8.14534 2.49883 9.79534C2.15508 11.2391 2.43008 12.7516 3.32383 13.9203C4.76758 15.7766 10.8176 21.2766 12.3301 22.5828C13.8426 21.2078 19.8926 15.7078 21.3363 13.8516C22.2301 12.6828 22.5051 11.2391 22.1613 9.72659C21.7488 8.14534 20.5801 6.70159 18.9301 5.94534C15.6988 4.43284 12.7426 7.93909 12.7426 8.00784C12.6738 8.14534 12.4676 8.21409 12.3301 8.21409C12.1926 8.21409 12.0551 8.14534 11.9176 8.00784C11.9176 8.00784 9.92383 5.60159 7.38008 5.60159Z" fill="#2E2424"/>
<path d="M5.24835 13.576C5.11085 13.576 4.97335 13.5073 4.83585 13.3698C4.14835 12.476 3.87335 11.2385 4.14835 10.0698C4.4921 8.76351 5.38585 7.73226 6.62335 7.11351C6.89835 6.97601 7.17335 7.11351 7.31085 7.38851C7.44835 7.66351 7.31085 7.93851 7.03585 8.07601C6.1421 8.55726 5.4546 9.38226 5.1796 10.3448C4.97335 11.1698 5.11085 12.0635 5.66085 12.751C5.8671 12.9573 5.79835 13.301 5.5921 13.5073C5.4546 13.576 5.38585 13.576 5.24835 13.576Z" fill="#2E2424"/>
</g>
</g>
</svg>
