<svg width="25" height="27" viewBox="0 0 25 27" fill="none" xmlns="http://www.w3.org/2000/svg">
<mask id="mask0_213_11" style="mask-type:luminance" maskUnits="userSpaceOnUse" x="1" y="2" width="23" height="23">
<path d="M23.3027 2.94531H1.30273V24.9453H23.3027V2.94531Z" fill="white"/>
</mask>
<g mask="url(#mask0_213_11)">
<path d="M12.25 23.75H5.75V19C5.75 18.035 6.535 17.25 7.5 17.25H10.5C11.465 17.25 12.25 18.035 12.25 19V23.75ZM7.25 22.25H10.75V19C10.75 18.862 10.638 18.75 10.5 18.75H7.5C7.362 18.75 7.25 18.862 7.25 19V22.25Z" fill="#2E2424"/>
<path d="M20.584 11.7914L15.25 9.50539V6.30939C15.25 5.75939 14.999 5.25239 14.562 4.91839C14.126 4.58539 13.572 4.47639 13.041 4.62139L4.77698 6.87439C3.58398 7.19939 2.75098 8.29139 2.75098 9.52739V20.9994C2.75098 22.5164 3.98398 23.7494 5.50098 23.7494H19.501C21.018 23.7494 22.251 22.5164 22.251 20.9994V14.3184C22.251 13.2174 21.597 12.2254 20.585 11.7904L20.584 11.7914ZM13.75 22.2504H5.49998C4.81098 22.2504 4.24998 21.6894 4.24998 21.0004V9.52839C4.24998 8.96639 4.62898 8.47039 5.17098 8.32239L13.436 6.06939C13.459 6.06239 13.482 6.06039 13.502 6.06039C13.571 6.06039 13.624 6.09039 13.651 6.11139C13.688 6.13939 13.75 6.20239 13.75 6.31039V22.2504ZM20.75 21.0004C20.75 21.6894 20.189 22.2504 19.5 22.2504H15.25V11.1374L19.992 13.1704C20.452 13.3674 20.75 13.8184 20.75 14.3194V21.0004ZM11.25 11.0004C11.25 11.4144 10.914 11.7504 10.5 11.7504H7.49998C7.08598 11.7504 6.74998 11.4144 6.74998 11.0004C6.74998 10.5864 7.08598 10.2504 7.49998 10.2504H10.5C10.914 10.2504 11.25 10.5864 11.25 11.0004ZM11.25 14.0004C11.25 14.4144 10.914 14.7504 10.5 14.7504H7.49998C7.08598 14.7504 6.74998 14.4144 6.74998 14.0004C6.74998 13.5864 7.08598 13.2504 7.49998 13.2504H10.5C10.914 13.2504 11.25 13.5864 11.25 14.0004ZM19.25 19.0004C19.25 19.4144 18.914 19.7504 18.5 19.7504H17.5C17.086 19.7504 16.75 19.4144 16.75 19.0004C16.75 18.5864 17.086 18.2504 17.5 18.2504H18.5C18.914 18.2504 19.25 18.5864 19.25 19.0004ZM19.25 16.0004C19.25 16.4144 18.914 16.7504 18.5 16.7504H17.5C17.086 16.7504 16.75 16.4144 16.75 16.0004C16.75 15.5864 17.086 15.2504 17.5 15.2504H18.5C18.914 15.2504 19.25 15.5864 19.25 16.0004Z" fill="#2E2424"/>
</g>
</svg>
