<svg width="25" height="27" viewBox="0 0 25 27" fill="none" xmlns="http://www.w3.org/2000/svg">
<path d="M22.0797 12.2744C21.9938 9.76801 21.0021 7.4243 19.2607 5.64209C17.4355 3.77373 15.0097 2.74512 12.4307 2.74512C7.22165 2.74512 2.96541 6.98844 2.78194 12.2744C1.98703 12.6359 1.43066 13.4502 1.43066 14.3966V17.0038C1.43066 18.2841 2.44833 19.326 3.69963 19.326C4.50927 19.326 5.16772 18.6521 5.16772 17.8235V13.5766C5.16772 12.7985 4.5847 12.1641 3.84346 12.0888C4.11708 7.48353 7.86291 3.82219 12.4307 3.82219C14.7291 3.82219 16.8904 4.73914 18.517 6.40395C20.0107 7.93268 20.8849 9.92527 21.0165 12.0891C20.2759 12.1652 19.694 12.7993 19.694 13.5766V17.8231C19.694 18.6076 20.2861 19.2459 21.0361 19.3123V20.3855C21.0361 21.594 20.0753 22.577 18.8945 22.577H17.3085C17.2306 22.3493 17.1086 22.139 16.9374 21.9645C16.6374 21.6561 16.2375 21.4862 15.8117 21.4862H14.1769C13.9423 21.4862 13.717 21.5372 13.5108 21.6356C12.9481 21.9002 12.5847 22.4811 12.5847 23.1155C12.5847 23.5514 12.7506 23.9606 13.0512 24.2669C13.3519 24.5753 13.7518 24.7451 14.1769 24.7451H15.8117C16.4894 24.7451 17.0868 24.2967 17.3096 23.654H18.8945C20.6558 23.654 22.0885 22.1878 22.0885 20.3855V19.1206C22.8785 18.7569 23.4307 17.9455 23.4307 17.0031V14.3959C23.4307 13.4502 22.8743 12.6359 22.0797 12.2744ZM4.11498 13.5766V17.8231C4.11498 18.0576 3.9287 18.2486 3.69928 18.2486C3.02855 18.2486 2.48271 17.6899 2.48271 17.0035V14.3962C2.48271 13.7094 3.02855 13.1511 3.69928 13.1511C3.9287 13.1511 4.11498 13.3421 4.11498 13.5766ZM16.3396 23.2311C16.2873 23.4846 16.0649 23.6688 15.8113 23.6688H14.1766C14.0328 23.6688 13.8977 23.6113 13.7946 23.5058C13.6928 23.402 13.6367 23.2634 13.6367 23.1162C13.6367 22.9012 13.7598 22.7048 13.9528 22.6139C14.0215 22.5809 14.097 22.564 14.1766 22.564H15.8113C15.9551 22.564 16.0902 22.6211 16.193 22.7267C16.2947 22.8304 16.3508 22.969 16.3508 23.1162C16.3512 23.1557 16.347 23.1952 16.3396 23.2311ZM22.3783 17.0035C22.3783 17.6899 21.8324 18.2486 21.1617 18.2486C20.9326 18.2486 20.746 18.0579 20.746 17.8231V13.5766C20.746 13.3421 20.9323 13.1511 21.1617 13.1511C21.8324 13.1511 22.3783 13.7098 22.3783 14.3962V17.0035Z" fill="#2E2424"/>
<path d="M15.838 17.1891C17.0675 17.1891 18.0677 16.1651 18.0677 14.9071V10.2574C18.0677 9.64918 17.8354 9.07617 17.4138 8.64462C16.9921 8.21307 16.4326 7.9754 15.838 7.9754H9.02336C7.79381 7.9754 6.79368 8.99898 6.79368 10.2574V14.9071C6.79368 16.1655 7.79381 17.1891 9.02336 17.1891H9.0651V18.394C9.0651 18.8535 9.33276 19.2614 9.7467 19.4333C9.88036 19.4883 10.0193 19.5156 10.1568 19.5156C10.4434 19.5156 10.7226 19.3992 10.9271 19.1827L12.8857 17.1891H15.838ZM12.2981 16.2685L10.1785 18.4259C10.1691 18.436 10.162 18.4435 10.1421 18.4345C10.1178 18.4245 10.1178 18.4083 10.1178 18.394V16.6505C10.1178 16.3533 9.88246 16.112 9.59165 16.112H9.02371C8.37438 16.112 7.84642 15.5713 7.84642 14.9071V10.2574C7.84642 9.59281 8.37438 9.05248 9.02371 9.05248H15.8383C16.1519 9.05248 16.447 9.17813 16.6701 9.40612C16.8932 9.63446 17.0156 9.93676 17.0156 10.2574V14.9071C17.0156 15.5717 16.4873 16.112 15.8383 16.112H12.6692C12.5299 16.112 12.3966 16.1684 12.2981 16.2685Z" fill="#2E2424"/>
<path d="M9.87439 11.8737C9.44642 11.8737 9.09808 12.2306 9.09808 12.6682C9.09808 13.1059 9.44677 13.4627 9.87439 13.4627C10.3027 13.4627 10.6514 13.1059 10.6514 12.6682C10.6514 12.2306 10.3031 11.8737 9.87439 11.8737Z" fill="#2E2424"/>
<path d="M12.4303 11.8737C12.0023 11.8737 11.654 12.2306 11.654 12.6682C11.654 13.1059 12.0027 13.4627 12.4303 13.4627C12.859 13.4627 13.2073 13.1059 13.2073 12.6682C13.2073 12.2306 12.859 11.8737 12.4303 11.8737Z" fill="#2E2424"/>
<path d="M14.9862 11.8737C14.5583 11.8737 14.2099 12.2306 14.2099 12.6682C14.2099 13.1059 14.5586 13.4627 14.9862 13.4627C15.4146 13.4627 15.7633 13.1059 15.7633 12.6682C15.7633 12.2306 15.4146 11.8737 14.9862 11.8737Z" fill="#2E2424"/>
</svg>
