<svg width="26" height="25" viewBox="0 0 26 25" fill="none" xmlns="http://www.w3.org/2000/svg">
<path d="M12.3002 -0.00878906C13.7507 0.6308 14.8767 1.55855 16.0912 2.5733C16.3313 2.76919 16.5713 2.96509 16.8187 3.16692C17.877 4.03165 18.9276 4.90548 19.9771 5.78125C20.9041 6.50274 21.7613 6.87846 22.8557 7.27829C23.6522 8.08411 23.3535 9.7083 23.3842 10.8007C23.6472 12.088 23.9743 12.6826 24.6572 13.7681C25.9552 16.0095 25.8683 18.0494 25.7654 20.5881C25.7564 21.0134 25.7474 21.4387 25.7382 21.8768C25.715 22.9152 25.6793 23.9533 25.641 24.9912C24.3279 24.9912 23.0148 24.9912 21.662 24.9912C21.465 23.7956 21.465 23.7956 21.264 22.5758C21.0365 22.5785 20.809 22.5812 20.5745 22.5839C18.2122 22.6106 15.8499 22.6289 13.4875 22.6422C12.6052 22.6482 11.7228 22.6565 10.8405 22.6669C9.57427 22.6815 8.3082 22.6884 7.04191 22.6938C6.44751 22.7031 6.44751 22.7031 5.8411 22.7126C5.29151 22.7128 5.29151 22.7128 4.73081 22.7129C4.24571 22.7169 4.24571 22.7169 3.75081 22.721C3.48992 22.6731 3.22903 22.6252 2.96023 22.5758C2.16441 21.3681 2.16441 21.3681 2.23902 20.5127C2.39905 20.139 2.39905 20.139 2.56232 19.7578C3.15322 19.5586 3.15322 19.5586 3.75605 19.3553C3.75605 16.6983 3.75605 14.0414 3.75605 11.304C2.96819 11.1711 2.18033 11.0383 1.36859 10.9014C0.970684 10.4988 0.970684 10.4988 0.818359 9.38547C0.970684 8.08342 0.970684 8.08342 1.81935 7.10846C2.21225 6.79917 2.60516 6.48989 3.00997 6.17123C3.22133 6.00372 3.43269 5.8362 3.65045 5.6636C4.10461 5.30728 4.56188 4.95498 5.02186 4.60637C5.7657 4.04252 6.49905 3.46621 7.23309 2.88937C7.72296 2.51459 8.2136 2.14083 8.70504 1.76816C8.93515 1.58848 9.16527 1.4088 9.40235 1.22368C10.3754 0.5083 11.0824 0.0418149 12.3002 -0.00878906ZM8.70504 3.25263C8.45903 3.45232 8.21301 3.65201 7.95954 3.85775C7.45924 4.26424 6.95991 4.67195 6.46156 5.08088C5.80817 5.61671 5.15218 6.14893 4.49436 6.67916C3.5834 7.41355 2.67422 8.15007 1.7665 8.88856C1.89781 9.2871 2.02912 9.6856 2.16441 10.0963C4.06562 9.9163 5.14305 9.00001 6.51654 7.75634C10.6373 4.09299 10.6373 4.09299 12.2862 4.00744C13.3188 4.46609 13.8177 4.91627 14.6239 5.69319C15.7164 6.7132 16.3626 7.04004 17.857 7.02669C18.5586 6.95196 18.5586 6.95196 19.2745 6.87572C17.8847 5.41519 16.4514 4.15153 14.8478 2.92554C14.4364 2.60744 14.025 2.28933 13.6012 1.96158C11.4517 0.53968 10.4279 1.82759 8.70504 3.25263ZM9.82105 5.99354C9.53945 6.22784 9.25786 6.46214 8.96772 6.70353C8.67587 6.95132 8.38401 7.19911 8.08331 7.45441C7.78837 7.70065 7.49344 7.94688 7.18957 8.20058C5.8343 9.3085 5.8343 9.3085 4.55187 10.4988C4.51725 11.1569 4.50929 11.8165 4.51301 12.4755C4.514 12.8341 4.51499 13.1927 4.51602 13.5622C4.51964 14.0209 4.52326 14.4796 4.527 14.9522C4.5352 16.4052 4.54341 17.8582 4.55187 19.3553C7.83462 19.3553 11.1174 19.3553 14.4996 19.3553C14.4996 18.691 14.4996 18.0268 14.4996 17.3425C14.2124 17.4836 13.9251 17.6248 13.6292 17.7702C11.9772 18.3273 11.0402 17.9704 9.47599 17.2921C8.22572 16.2935 7.69093 15.2586 7.33723 13.7194C7.24781 12.3702 7.26476 11.0433 7.33723 9.6937C7.95515 9.34287 8.57785 9.00066 9.20243 8.66211C9.54866 8.47063 9.89488 8.27914 10.2516 8.08185C11.8709 7.47197 12.911 7.95028 14.4996 8.48599C14.6309 7.9546 14.7622 7.42322 14.8975 6.87572C14.5282 6.54361 14.1589 6.21149 13.7784 5.86931C13.5706 5.68249 13.3629 5.49568 13.1489 5.3032C11.7586 4.34496 10.9461 5.04844 9.82105 5.99354ZM15.6933 8.08342C15.6933 9.01335 15.6933 9.9433 15.6933 10.9014C15.9724 10.7685 16.2514 10.6357 16.5389 10.4988C18.1225 9.9415 19.4088 9.843 20.9905 10.4485C21.662 10.9014 21.662 10.9014 22.0599 11.7065C21.7972 11.7065 21.5346 11.7065 21.264 11.7065C21.264 12.1051 21.264 12.5036 21.264 12.9142C21.0014 12.9142 20.7388 12.9142 20.4682 12.9142C20.4682 13.1799 20.4682 13.4456 20.4682 13.7194C20.2056 13.7194 19.943 13.7194 19.6724 13.7194C19.5411 14.1179 19.4098 14.5164 19.2745 14.9271C19.0119 14.9271 18.7493 14.9271 18.4787 14.9271C18.0808 14.2561 17.6829 13.5852 17.285 12.9142C17.0223 12.9142 16.7597 12.9142 16.4891 12.9142C16.4891 12.5157 16.4891 12.1171 16.4891 11.7065C16.2265 11.7065 15.9639 11.7065 15.6933 11.7065C15.6933 14.3635 15.6933 17.0204 15.6933 19.7578C16.8751 19.7578 18.0569 19.7578 19.2745 19.7578C19.0119 19.3593 18.7493 18.9608 18.4787 18.5501C18.4289 17.4683 18.4289 17.4683 18.4787 16.5373C19.1253 16.2354 19.1253 16.2354 20.0703 16.1348C20.8795 16.6507 21.6767 17.1865 22.4578 17.745C22.4693 16.2102 22.4764 14.6755 22.4826 13.1407C22.486 12.7024 22.4893 12.2642 22.4927 11.8127C22.494 11.3962 22.4953 10.9798 22.4966 10.5507C22.4987 10.1649 22.5008 9.7791 22.5029 9.38164C22.5575 8.49692 22.5575 8.49692 22.0599 8.08342C20.9869 8.05396 19.9243 8.04622 18.8517 8.05826C18.3989 8.06099 18.3989 8.06099 17.937 8.06377C17.1891 8.06853 16.4412 8.07575 15.6933 8.08342ZM9.65008 9.29112C9.3654 9.44058 9.08072 9.59 8.78742 9.744C8.46351 9.9184 8.46351 9.9184 8.13305 10.0963C7.98949 12.1376 7.90943 13.6694 8.82939 15.5309C9.89218 16.7434 9.89218 16.7434 11.3163 17.3425C12.7046 17.2054 13.3171 16.9323 14.4996 16.1348C14.4996 15.8691 14.4996 15.6034 14.4996 15.3296C12.7926 15.3296 11.0855 15.3296 9.32677 15.3296C9.64147 11.5727 9.64147 11.5727 10.9184 10.0963C11.9132 9.8447 11.9132 9.8447 12.908 10.0963C13.6043 11.1027 13.6043 11.1027 14.1017 12.1091C14.233 12.1091 14.3643 12.1091 14.4996 12.1091C14.6657 10.9523 14.6657 10.9523 14.4996 9.6937C12.7417 8.25171 11.5892 8.26196 9.65008 9.29112ZM11.3163 10.9014C11.3163 11.1671 11.3163 11.4328 11.3163 11.7065C11.7102 11.7065 12.1042 11.7065 12.51 11.7065C12.51 11.4408 12.51 11.1751 12.51 10.9014C12.1161 10.9014 11.7222 10.9014 11.3163 10.9014ZM10.5205 12.5117C10.5205 13.1759 10.5205 13.8401 10.5205 14.5245C10.7831 14.5245 11.0457 14.5245 11.3163 14.5245C11.3163 13.8603 11.3163 13.196 11.3163 12.5117C11.0537 12.5117 10.7911 12.5117 10.5205 12.5117ZM12.51 12.5117C12.51 13.1759 12.51 13.8401 12.51 14.5245C12.7727 14.5245 13.0353 14.5245 13.3059 14.5245C13.3059 13.8603 13.3059 13.196 13.3059 12.5117C13.0432 12.5117 12.7806 12.5117 12.51 12.5117ZM23.2536 14.5245C23.2536 15.9858 23.2536 17.4471 23.2536 18.9527C21.0154 18.0469 21.0154 18.0469 20.0703 16.9399C19.6764 17.0727 19.2825 17.2056 18.8766 17.3425C19.0351 17.5376 19.1936 17.7327 19.3569 17.9337C20.8298 19.819 21.731 21.496 22.4578 23.7835C23.2456 23.7835 24.0335 23.7835 24.8452 23.7835C24.8775 22.6175 24.9012 21.4524 24.9198 20.2862C24.9348 19.7931 24.9348 19.7931 24.9501 19.29C24.9732 17.3667 24.8999 16.0865 23.6515 14.5245C23.5202 14.5245 23.3889 14.5245 23.2536 14.5245ZM3.75605 20.1604C3.62474 20.559 3.49343 20.9575 3.35814 21.3681C9.00447 21.3681 14.6508 21.3681 20.4682 21.3681C20.4682 21.1024 20.4682 20.8367 20.4682 20.563C14.9151 19.9716 9.33148 20.1223 3.75605 20.1604Z" fill="#626E9B"/>
</svg>
