<svg width="25" height="25" viewBox="0 0 25 25" fill="none" xmlns="http://www.w3.org/2000/svg">
<path d="M12.1675 10.5576C13.2721 10.5576 14.1675 11.453 14.1675 12.5576C14.1675 13.6621 13.2721 14.5576 12.1675 14.5576C11.0629 14.5576 10.1675 13.6621 10.1675 12.5576C10.1675 11.453 11.0629 10.5576 12.1675 10.5576Z" stroke="#2E2424" stroke-width="1.5" stroke-linecap="round" stroke-linejoin="round"/>
<path d="M7.06884 7.30403C6.1324 6.76338 4.93498 7.08422 4.39432 8.02067L4.35258 8.09297C3.81172 9.02977 4.13269 10.2277 5.06948 10.7685L5.31228 10.9087C5.8849 11.2393 6.16748 11.896 6.16748 12.5572C6.16748 13.2184 5.8849 13.875 5.31228 14.2056L5.06949 14.3458C4.13269 14.8867 3.81172 16.0845 4.35258 17.0213L4.39432 17.0936C4.93498 18.0301 6.1324 18.3509 7.06884 17.8103L7.31294 17.6693C7.88551 17.3388 8.59079 17.4202 9.16278 17.7518C9.73459 18.0832 10.1675 18.6577 10.1675 19.3186V19.5999C10.1675 20.6809 11.0438 21.5572 12.1248 21.5572H12.2102C13.2912 21.5572 14.1675 20.6809 14.1675 19.5999V19.3186C14.1675 18.6577 14.6004 18.0832 15.1722 17.7518C15.7442 17.4202 16.4495 17.3388 17.022 17.6693L17.2661 17.8103C18.2026 18.3509 19.4 18.0301 19.9407 17.0936L19.9824 17.0214C20.5233 16.0846 20.2023 14.8867 19.2655 14.3458L19.0227 14.2056C18.4501 13.875 18.1675 13.2184 18.1675 12.5572C18.1675 11.896 18.4501 11.2393 19.0227 10.9087L19.2655 10.7685C20.2023 10.2277 20.5233 9.02975 19.9824 8.09295L19.9407 8.02067C19.4 7.08422 18.2026 6.76337 17.2661 7.30403L17.022 7.44496C16.4495 7.77554 15.7442 7.69412 15.1722 7.36255C14.6004 7.03108 14.1675 6.45665 14.1675 5.79572V5.51441C14.1675 4.43344 13.2912 3.55713 12.2102 3.55713H12.1248C11.0438 3.55713 10.1675 4.43343 10.1675 5.51441V5.79572C10.1675 6.45665 9.73459 7.03108 9.16278 7.36255C8.59079 7.69412 7.88551 7.77554 7.31294 7.44496L7.06884 7.30403Z" stroke="#2E2424" stroke-width="1.5" stroke-linecap="round" stroke-linejoin="round"/>
</svg>
