<svg width="17" height="17" viewBox="0 0 17 17" fill="none" xmlns="http://www.w3.org/2000/svg">
<g clip-path="url(#clip0_213_80)">
<path d="M1.47852 13.8556V3.18896C1.47852 2.30939 1.47852 1.86912 1.66361 1.60888C1.82515 1.38175 2.07415 1.23262 2.35059 1.19696C2.6672 1.15613 3.05552 1.36323 3.83105 1.77685L13.8311 7.11018L13.8347 7.11179C14.6917 7.56889 15.1205 7.79755 15.2611 8.1023C15.3838 8.36816 15.3838 8.67505 15.2611 8.94091C15.1203 9.2461 14.6905 9.47569 13.8311 9.93408L3.83105 15.2674C3.05497 15.6813 2.66731 15.8876 2.35059 15.8468C2.07415 15.8111 1.82515 15.662 1.66361 15.4349C1.47852 15.1747 1.47852 14.7352 1.47852 13.8556Z" stroke="#2E2424" stroke-width="2" stroke-linecap="round" stroke-linejoin="round"/>
</g>
<defs>
<clipPath id="clip0_213_80">
<rect width="17" height="17" fill="white"/>
</clipPath>
</defs>
</svg>
