<svg width="25" height="25" viewBox="0 0 25 25" fill="none" xmlns="http://www.w3.org/2000/svg">
<g clip-path="url(#clip0_1939_1097)">
<path d="M5.7038 12.3037C5.7038 12.8214 6.12329 13.241 6.64111 13.241C7.15875 13.241 7.57825 12.8214 7.57825 12.3037C7.57825 9.78418 9.62811 7.7345 12.1475 7.7345C12.6651 7.7345 13.0848 7.31482 13.0848 6.79718V6.76221C13.0848 6.24438 12.6651 5.82489 12.1475 5.82489C9.62811 5.82489 7.57825 3.77521 7.57825 1.25568C7.57825 0.738037 7.15875 0.318359 6.64111 0.318359C6.12329 0.318359 5.7038 0.738037 5.7038 1.25568C5.7038 3.77521 3.65411 5.82489 1.13458 5.82489C0.616943 5.82489 0.197266 6.24438 0.197266 6.76221V6.79718C0.197266 7.31482 0.616943 7.7345 1.13458 7.7345C3.65411 7.7345 5.7038 9.78418 5.7038 12.3037ZM6.64111 4.59955C7.18439 5.49091 7.93823 6.24091 8.8327 6.77979C7.93823 7.31848 7.18439 8.06848 6.64111 8.95984C6.09766 8.06848 5.34381 7.31848 4.44934 6.77979C5.34399 6.24091 6.09766 5.49091 6.64111 4.59955ZM23.2074 11.3547C20.675 11.3547 18.6147 9.29456 18.6147 6.76202C18.6147 6.24438 18.1951 5.82489 17.6774 5.82489C17.1598 5.82489 16.7401 6.24438 16.7401 6.76202C16.7401 9.29456 14.6798 11.3547 12.1475 11.3547C11.6298 11.3547 11.2103 11.7744 11.2103 12.292V12.3271C11.2103 12.8448 11.6298 13.2645 12.1475 13.2645C14.6798 13.2645 16.7401 15.3248 16.7401 17.8571C16.7401 18.3748 17.1598 18.7944 17.6774 18.7944C18.1951 18.7944 18.6147 18.3748 18.6147 17.8571C18.6147 15.3248 20.675 13.2645 23.2074 13.2645C23.725 13.2645 24.1447 12.8448 24.1447 12.3271V12.292C24.1447 11.7744 23.725 11.3547 23.2074 11.3547ZM17.6774 14.5067C17.1307 13.6076 16.371 12.8517 15.4688 12.3096C16.371 11.7674 17.1307 11.0115 17.6774 10.1125C18.2242 11.0115 18.9839 11.7674 19.886 12.3096C18.9839 12.8517 18.2242 13.6076 17.6774 14.5067ZM12.1006 18.7651C10.6019 18.7651 9.38257 17.5458 9.38257 16.0471C9.38257 15.5295 8.96289 15.1098 8.44525 15.1098C7.92761 15.1098 7.50793 15.5295 7.50793 16.0471C7.50793 17.5458 6.28864 18.7651 4.78992 18.7651C4.27228 18.7651 3.8526 19.1848 3.8526 19.7025V19.7257C3.8526 20.2433 4.27228 20.663 4.78992 20.663C6.28864 20.663 7.50793 21.8823 7.50793 23.381C7.50793 23.8987 7.92761 24.3184 8.44525 24.3184C8.96289 24.3184 9.38257 23.8987 9.38257 23.381C9.38257 21.8823 10.6019 20.663 12.1006 20.663C12.6182 20.663 13.0379 20.2433 13.0379 19.7257V19.7025C13.0379 19.1848 12.6182 18.7651 12.1006 18.7651ZM8.44525 20.6035C8.18964 20.2677 7.88898 19.9683 7.55206 19.714C7.88879 19.4597 8.18964 19.1603 8.44525 18.8245C8.70105 19.1603 9.00171 19.4597 9.33862 19.714C9.00171 19.9683 8.70105 20.2679 8.44525 20.6035Z" fill="white"/>
</g>
<defs>
<clipPath id="clip0_1939_1097">
<rect width="24" height="24" fill="white" transform="translate(0.150391 0.318359)"/>
</clipPath>
</defs>
</svg>
