<svg width="18" height="20" viewBox="0 0 18 20" fill="none" xmlns="http://www.w3.org/2000/svg">
<path d="M11 8.1499V15.1499M7 8.1499V15.1499M3 4.1499V15.9499C3 17.07 3 17.6297 3.21799 18.0575C3.40973 18.4338 3.71547 18.7404 4.0918 18.9321C4.5192 19.1499 5.07899 19.1499 6.19691 19.1499H11.8031C12.921 19.1499 13.48 19.1499 13.9074 18.9321C14.2837 18.7404 14.5905 18.4338 14.7822 18.0575C15 17.6301 15 17.0709 15 15.953V4.1499M3 4.1499H5M3 4.1499H1M5 4.1499H13M5 4.1499C5 3.21802 5 2.75231 5.15224 2.38477C5.35523 1.89471 5.74432 1.50513 6.23438 1.30214C6.60192 1.1499 7.06812 1.1499 8 1.1499H10C10.9319 1.1499 11.3978 1.1499 11.7654 1.30214C12.2554 1.50513 12.6447 1.89471 12.8477 2.38477C12.9999 2.75231 13 3.21802 13 4.1499M13 4.1499H15M15 4.1499H17" stroke="#8991B1" stroke-width="1.3" stroke-linecap="round" stroke-linejoin="round"/>
</svg>
