<svg width="21" height="19" viewBox="0 0 21 19" fill="none" xmlns="http://www.w3.org/2000/svg">
<path d="M18.6599 8.97384L18.66 8.97382C20.426 7.03119 20.3549 4.04399 18.4985 2.18756C16.4257 0.11475 13.0108 0.303897 11.1796 2.59293L11.1794 2.59308L10.4997 3.44321L9.81941 2.5931C9.81938 2.59307 9.81936 2.59304 9.81933 2.59301C7.98814 0.304122 4.57436 0.114665 2.50152 2.18751C0.6451 4.04392 0.573966 7.03115 2.33998 8.97378C2.33999 8.97379 2.33999 8.97379 2.34 8.97379L10.0185 17.4206C10.1417 17.5561 10.3163 17.6334 10.4994 17.6334C10.6826 17.6334 10.8572 17.5561 10.9804 17.4206L18.6599 8.97384Z" stroke="#8991B1" stroke-width="1.3" stroke-linecap="round" stroke-linejoin="round"/>
</svg>
