<svg width="24" height="24" viewBox="0 0 24 24" fill="none" xmlns="http://www.w3.org/2000/svg">
<path d="M6.02254 20.0006L7.48301 18.8323L7.49374 18.824C7.79822 18.5804 7.95186 18.4575 8.12328 18.37C8.27707 18.2914 8.44106 18.2342 8.61023 18.1995C8.80091 18.1603 8.99953 18.1603 9.39823 18.1603H17.7175C18.7889 18.1603 19.3252 18.1603 19.7348 17.9516C20.0954 17.7679 20.3888 17.4744 20.5726 17.1137C20.7812 16.7041 20.7812 16.1684 20.7812 15.0971V7.80736C20.7812 6.73602 20.7812 6.19955 20.5726 5.78996C20.3888 5.42931 20.0948 5.13631 19.7342 4.95256C19.3242 4.74365 18.7882 4.74365 17.7148 4.74365H6.5981C5.52467 4.74365 4.98755 4.74365 4.57756 4.95256C4.21691 5.13631 3.92391 5.42931 3.74015 5.78996C3.53125 6.19996 3.53125 6.73707 3.53125 7.81051V18.8035C3.53125 19.8248 3.53125 20.3354 3.7406 20.5977C3.92268 20.8258 4.19867 20.9585 4.49052 20.9581C4.8261 20.9578 5.22505 20.6386 6.02254 20.0006Z" stroke="#C5CCD6" stroke-width="1.3" stroke-linecap="round" stroke-linejoin="round"/>
</svg>
