<?xml version="1.0" encoding="utf-8"?>
<!-- Generator: Adobe Illustrator 27.7.0, SVG Export Plug-In . SVG Version: 6.00 Build 0)  -->
<svg version="1.1" id="Layer_1" xmlns="http://www.w3.org/2000/svg" xmlns:xlink="http://www.w3.org/1999/xlink" x="0px" y="0px"
	 viewBox="0 0 48.2 17.7" style="enable-background:new 0 0 48.2 17.7;" xml:space="preserve">
<style type="text/css">
	.st0{fill:none;stroke:url(#SVGID_1_);}
	.st1{clip-path:url(#SVGID_00000031923273614519095440000012390928649601736110_);}
	.st2{fill:#977FFA;}
</style>
<g>
	
		<linearGradient id="SVGID_1_" gradientUnits="userSpaceOnUse" x1="0.6701" y1="51.1289" x2="45.3806" y2="34.8505" gradientTransform="matrix(1 0 0 -1 0 51.4646)">
		<stop  offset="0" style="stop-color:#7558EA"/>
		<stop  offset="0.1887" style="stop-color:#1C1E26"/>
		<stop  offset="0.7771" style="stop-color:#1C1E26"/>
		<stop  offset="1" style="stop-color:#7558EA"/>
	</linearGradient>
	<path shape-rendering="crispEdges" class="st0" d="M5,0.5h38.2c2.5,0,4.5,2,4.5,4.5v7.7c0,2.5-2,4.5-4.5,4.5H5
		c-2.5,0-4.5-2-4.5-4.5V5C0.5,2.5,2.5,0.5,5,0.5z"/>
</g>
<g>
	<defs>
		<rect id="SVGID_00000163787835319619139710000018396858853154032291_" x="6.5" y="4.8" width="35.5" height="8.1"/>
	</defs>
	<clipPath id="SVGID_00000036930337847557671110000011500665508616762288_">
		<use xlink:href="#SVGID_00000163787835319619139710000018396858853154032291_"  style="overflow:visible;"/>
	</clipPath>
	<g style="clip-path:url(#SVGID_00000036930337847557671110000011500665508616762288_);">
		<path class="st2" d="M14.2,10.7c0,1.6-1.1,2.2-3,2.2H6.5V4.8H11c1.8,0,3,0.5,3,2.1c0,0.8-0.3,1.4-0.9,1.8
			C13.9,9.2,14.2,9.9,14.2,10.7L14.2,10.7z M7.8,6.1v2.2h3.4c0.9,0,1.4-0.2,1.4-1.1s-0.5-1.1-1.4-1.1H7.8z M12.9,10.6
			c0-0.9-0.5-1.1-1.4-1.1H7.8v2.2h3.7C12.4,11.7,12.9,11.4,12.9,10.6L12.9,10.6z"/>
		<path class="st2" d="M16.4,4.8h6.8v1.3h-5.4v2h5.1v1.3h-5.1v2.3h5.5v1.3h-6.8V4.8z"/>
		<path class="st2" d="M28.3,6.1h-3.4V4.8H33v1.3h-3.4v6.8h-1.3V6.1z"/>
		<path class="st2" d="M39.8,11.1h-4.9l-0.8,1.8h-1.4l3.9-8.1h1.6l3.9,8.1h-1.4L39.8,11.1L39.8,11.1z M39.2,9.8l-1.9-4l-1.9,4H39.2z
			"/>
	</g>
</g>
</svg>
