<svg width="99" height="86" viewBox="0 0 99 86" fill="none" xmlns="http://www.w3.org/2000/svg">
<path d="M22.0843 21.7312H25.9211C33.5134 21.9278 33.5134 33.0451 25.9211 33.2466V35.1651C25.878 37.6926 22.1226 37.6831 22.0843 35.1651V33.2466H18.2474C15.7198 33.2083 15.7294 29.448 18.2474 29.4097H25.9211C28.4439 29.3666 28.4391 25.6161 25.9211 25.5728H22.0843C14.492 25.3762 14.492 14.2589 22.0843 14.0574V12.1389C22.0843 11.079 22.9428 10.2205 24.0027 10.2205C25.0626 10.2205 25.9211 11.079 25.9211 12.1389V14.0574H29.758C32.2856 14.0958 32.276 17.856 29.758 17.8943H22.0843C19.5615 17.9374 19.5663 21.688 22.0843 21.7312ZM0.977055 23.6496C1.70606 -3.96127 40.1183 -7.89884 46.5495 18.8775C47.0291 21.3523 43.36 22.1292 42.7941 19.6689C40.9381 10.8536 33.0341 4.46004 24.0075 4.46004C13.4272 4.46004 4.81812 13.069 4.81812 23.6494C4.81812 34.2296 13.4271 42.8388 24.0075 42.8388C29.1298 42.8388 33.9643 40.8484 37.576 37.2178L69.5799 5.21379H66.0692C63.556 5.17062 63.5368 1.42491 66.0692 1.3769C66.2034 1.46323 75.1914 1.18985 74.942 1.52557C75.647 1.80855 76.1314 2.53755 76.1266 3.29533V11.4343C76.1266 12.4943 75.2681 13.3528 74.2082 13.3528C73.1483 13.3528 72.2897 12.4943 72.2897 11.4343V7.92833C72.285 7.92833 40.2809 39.9421 40.2907 39.9372C26.0604 54.3971 0.848135 43.952 0.977055 23.6496Z" fill="#6B5CA6"/>
<path d="M96.1297 81.267H94.2113V25.6179C94.2113 24.558 93.3528 23.6995 92.2928 23.6995H80.7774C79.7174 23.6995 78.8589 24.558 78.8589 25.6179V73.5932C78.8589 74.6531 79.7174 75.5116 80.7774 75.5116C81.8373 75.5116 82.6958 74.6531 82.6958 73.5932V27.5407H90.3696V81.2719H73.0993V40.9753C73.0993 39.9154 72.2408 39.0569 71.1809 39.0569H59.6654C58.6054 39.0569 57.7469 39.9154 57.7469 40.9753V81.2719H51.9916V54.4087C51.9916 53.3488 51.1331 52.4903 50.0732 52.4903H38.5577C37.4978 52.4903 36.6392 53.3488 36.6392 54.4087V81.2719H30.8839V65.9194C30.8839 64.8595 30.0254 64.0009 28.9655 64.0009H17.45C16.3901 64.0009 15.5316 64.8595 15.5316 65.9194V81.2719H13.6131C11.124 81.2958 11.0664 85.0704 13.6131 85.1088H50.0728C55.2574 85.1136 65.9581 85.104 71.18 85.1088H96.1241C98.6229 85.0656 98.6708 81.3199 96.1241 81.2719L96.1297 81.267ZM27.046 81.267H19.3723V67.8335H27.046V81.267ZM48.1532 81.267H40.4795V56.3229H48.1532V81.267ZM69.2604 81.267H61.5867V42.8882H69.2604V81.267Z" fill="#7558EA"/>
</svg>
