<svg width="100" height="99" viewBox="0 0 100 99" fill="none" xmlns="http://www.w3.org/2000/svg">
<path d="M86.5297 56.3645C92.5297 54.7645 97.0297 49.2645 97.0297 42.7645C97.0297 34.9645 90.7297 28.5645 82.9297 28.5645C75.1297 28.5645 68.8297 34.9645 68.8297 42.7645C68.8297 50.3645 74.9297 56.6645 82.5297 56.8645C78.8297 57.8645 75.7297 60.4645 74.1297 64.0645C73.4297 65.8645 73.0297 67.7645 73.0297 69.4645V73.7645C73.0297 74.1645 73.1297 74.4645 73.4297 74.6645C71.9297 74.8645 70.1297 74.8644 67.9297 74.8644H66.3297L66.8297 65.6645C66.8297 64.1645 65.6297 62.9645 64.1297 62.9645H62.9297C62.9297 62.7645 62.8297 62.4645 62.6297 62.2645C60.3297 59.3645 56.8297 57.7645 53.1297 57.7645H53.0297C59.4297 56.4645 64.2297 50.6645 64.2297 43.8645C64.2297 36.0645 57.9297 29.7645 50.1297 29.7645C42.3297 29.7645 36.0297 36.0645 36.0297 43.8645C36.0297 50.6645 40.8297 56.4645 47.2297 57.7645C43.6297 57.7645 40.1297 59.3645 37.7297 62.1645C37.5297 62.3645 37.4297 62.6645 37.4297 62.9645C36.4297 62.9645 35.5297 63.3645 34.7297 64.0645C34.0297 64.7645 33.7297 65.7645 33.7297 66.8644L34.1297 74.9645H32.6297C30.6297 74.9645 28.5297 74.9645 26.6297 74.7645C26.9297 74.4645 27.0297 74.1645 27.0297 73.7645V69.4645C27.0297 67.7645 26.6297 65.8645 25.9297 64.0645C24.2297 60.3645 21.0297 57.7645 17.2297 56.8645C24.9297 56.7645 31.1297 50.4645 31.1297 42.7645C31.1297 34.9645 24.8297 28.5645 17.0297 28.5645C9.22969 28.5645 2.82969 34.9645 2.82969 42.7645C2.82969 49.4645 7.52969 54.9645 13.7297 56.4645C6.62969 56.5645 0.929688 62.3645 0.929688 69.4645V90.3644C0.929688 91.1644 1.52969 91.7645 2.32969 91.7645C3.12969 91.7645 3.72969 91.1644 3.72969 90.3644V69.4645C3.72969 63.8645 8.42969 59.1645 14.0297 59.1645C17.9297 59.1645 21.5297 61.5645 23.2297 65.1645C23.8297 66.7645 24.2297 68.1645 24.2297 69.4645V73.7645C24.2297 73.9645 24.2297 74.1645 24.3297 74.2645C23.1297 73.9645 22.1297 73.4645 21.4297 72.6645C20.4297 71.5645 19.9297 69.9645 20.1297 67.7645C20.1297 66.9645 19.6297 66.3644 18.8297 66.3644C18.0297 66.3644 17.4297 66.8645 17.4297 67.6645C17.2297 70.6645 17.9297 72.9645 19.4297 74.5645C22.1297 77.3645 27.0297 77.7645 30.5297 77.7645H34.2297C34.3297 78.7645 34.5297 81.9644 34.6297 84.8644C34.4297 84.8644 34.2297 84.8644 34.0297 84.8644C33.5297 84.8644 32.9297 84.9645 32.7297 84.9645C32.1297 84.9645 31.5297 84.9645 30.9297 85.0645H27.1297C17.2297 84.7645 12.2297 80.4644 11.0297 71.3644C11.0297 70.9644 10.8297 70.6645 10.6297 70.4645C10.2297 70.1645 9.72969 70.0645 9.42969 70.1645C9.02969 70.1645 8.72969 70.3645 8.52969 70.5645C8.22969 70.8645 8.12969 71.2645 8.22969 71.6645C9.32969 80.3645 13.8297 85.3644 21.8297 86.8644C21.7297 87.2645 21.6297 87.5644 21.6297 87.8644V88.9645C21.6297 90.7645 23.1297 92.2645 24.9297 92.2645H46.7297V97.2645C46.7297 98.0645 47.3297 98.6645 48.1297 98.6645C48.9297 98.6645 49.5297 98.1645 49.5297 97.3644V92.3644H50.8297V97.1645C50.8297 97.9645 51.4297 98.5645 52.2297 98.5645C53.0297 98.5645 53.6297 97.9645 53.6297 97.1645V92.3644H75.3297C77.1297 92.3644 78.6297 90.9645 78.7297 89.0645V87.9645C78.7297 87.5645 78.6297 87.2645 78.5297 86.9645C86.5297 85.4645 90.8297 80.3645 91.7297 71.4645V71.3644V71.2645C91.5297 70.6645 91.3297 70.1645 90.6297 70.0645H90.5297C89.7297 70.0645 89.1297 70.4645 89.0297 71.2645C88.3297 80.5644 83.6297 84.6645 73.1297 84.9645H65.7297L66.0297 77.7645H69.6297C75.1297 77.7645 78.5297 76.7645 80.6297 74.5645C82.2297 72.8645 82.8297 70.5644 82.6297 67.7645C82.6297 66.9645 82.0297 66.4645 81.2297 66.4645C80.4297 66.4645 79.9297 67.0644 79.9297 67.8644C80.1297 70.0644 79.7297 71.6645 78.6297 72.6645C77.9297 73.3645 77.0297 73.8644 75.7297 74.2645C75.8297 74.1645 75.8297 73.9645 75.8297 73.7645V69.4645C75.8297 68.0645 76.1297 66.5645 76.7297 65.1645C78.4297 61.4645 82.0297 59.1645 86.1297 59.1645C91.7297 59.1645 96.4297 63.8645 96.4297 69.4645V90.3644C96.4297 91.1644 97.0297 91.7645 97.8297 91.7645C98.6297 91.7645 99.2297 91.1644 99.2297 90.3644V69.4645C99.0297 62.3645 93.3297 56.6645 86.5297 56.3645ZM24.3297 88.9645V87.8644C24.3297 87.5644 24.6297 87.2645 24.8297 87.2645H75.1297C75.4297 87.2645 75.9297 87.5644 75.9297 87.8644V88.8644C75.9297 89.1644 75.3297 89.7645 75.0297 89.7645H24.8297C24.6297 89.7645 24.3297 89.2645 24.3297 88.9645ZM63.2297 84.7645V84.8644H37.2297L36.4297 66.7645C36.4297 66.4645 36.6297 66.1645 36.8297 65.9645C37.0297 65.7645 37.3297 65.5645 37.5297 65.5645H64.0297L63.2297 84.7645ZM47.1297 60.4645H52.9297C55.3297 60.4645 57.6297 61.3645 59.3297 62.9645H40.7297C42.4297 61.3645 44.6297 60.4645 47.1297 60.4645ZM71.5297 42.7645C71.5297 36.4645 76.6297 31.3645 82.9297 31.3645C89.2297 31.3645 94.3297 36.4645 94.3297 42.7645C94.3297 49.0645 89.2297 54.1645 82.9297 54.1645C76.7297 54.1645 71.5297 48.9645 71.5297 42.7645ZM38.7297 43.8645C38.7297 37.5645 43.8297 32.4645 50.1297 32.4645C56.4297 32.4645 61.5297 37.5645 61.5297 43.8645C61.5297 50.1645 56.4297 55.2645 50.1297 55.2645C43.8297 55.2645 38.7297 50.1645 38.7297 43.8645ZM17.0297 31.3645C23.3297 31.3645 28.4297 36.4645 28.4297 42.7645C28.4297 48.9645 23.2297 54.1645 17.0297 54.1645C10.7297 54.1645 5.62969 49.0645 5.62969 42.7645C5.62969 36.4645 10.7297 31.3645 17.0297 31.3645Z" fill="#43B0FF"/>
<path d="M50.1297 21.4646C50.8297 21.4646 51.3297 20.9646 51.3297 20.2646V1.96455C51.3297 1.66455 51.3297 1.36455 51.1297 1.16455C50.9297 0.864551 50.5297 0.664551 50.1297 0.664551C49.4297 0.664551 48.9297 1.16455 48.9297 1.86455V20.1646C48.9297 20.8646 49.4297 21.4646 50.1297 21.4646Z" fill="#6B5CA6"/>
<path d="M63.33 25.4646C63.93 25.4646 64.23 25.0646 64.43 24.7646L74.53 7.16459C74.73 6.86459 74.73 6.56459 74.63 6.26459C74.53 5.96459 74.33 5.66459 74.03 5.56459C73.33 5.26459 72.73 5.46459 72.33 6.06459L62.33 23.5646C62.03 24.1646 62.23 24.9646 62.63 25.2646C62.83 25.4646 63.13 25.4646 63.33 25.4646Z" fill="#6B5CA6"/>
<path d="M57.0296 21.3647H57.3296C57.8296 21.3647 58.3296 21.0647 58.5296 20.4647L62.0296 7.56467C62.2296 6.86467 61.8296 6.26467 61.1296 6.06467C60.4296 5.86467 59.8296 6.26467 59.6296 6.96467L56.1296 19.8647C55.9296 20.5647 56.3296 21.1647 57.0296 21.3647Z" fill="#6B5CA6"/>
<path d="M65.8301 30.2646C65.8301 30.5646 66.0301 30.9646 66.2301 31.1646C66.4301 31.3646 66.7301 31.4646 67.0301 31.4646C67.3301 31.4646 67.7301 31.3646 68.0301 30.9646L76.7301 20.9646C76.9301 20.7646 77.1301 20.3646 77.0301 20.0646C77.0301 19.7646 76.8301 19.3646 76.6301 19.2646C76.4301 19.0646 76.0301 18.8646 75.7301 18.9646C75.4301 18.9646 75.0301 19.1646 74.9301 19.3646L66.2301 29.3646C66.0301 29.6646 65.8301 29.9646 65.8301 30.2646Z" fill="#6B5CA6"/>
<path d="M79.4289 27.8646C79.7289 27.8646 80.0289 27.7646 80.2289 27.5646L87.8289 20.6646C88.3289 20.1646 88.3289 19.4646 87.8289 18.9646C87.3289 18.4646 86.6289 18.4646 86.1289 18.9646L78.5289 25.7646C78.3289 25.9646 78.1289 26.2646 78.1289 26.6646C78.1289 27.0646 78.2289 27.2646 78.5289 27.5646C78.8289 27.7646 79.1289 27.8646 79.4289 27.8646Z" fill="#6B5CA6"/>
<path d="M34.9297 23.0646C35.1297 23.4646 35.6297 23.7646 35.9297 23.7646C36.0297 23.7646 36.3297 23.7646 36.6297 23.5646C36.9297 23.3646 37.1297 23.1646 37.2297 22.7646C37.3297 22.4646 37.2297 22.0646 37.1297 21.8646L27.9297 5.86457C27.7297 5.56457 27.5297 5.36457 27.1297 5.26457C26.8297 5.16457 26.4297 5.26457 26.2297 5.36457C25.9297 5.56457 25.6297 5.86457 25.5297 6.16457C25.4297 6.46457 25.5297 6.86457 25.6297 7.06457L34.9297 23.0646Z" fill="#6B5CA6"/>
<path d="M40.9293 17.2645C41.1293 17.7645 41.6293 18.1645 42.1293 18.1645H42.4293H42.5293C42.8293 18.0645 43.1293 17.8645 43.3293 17.5645C43.4293 17.2645 43.5293 16.9645 43.4293 16.6645L40.2293 5.0645C40.0293 4.3645 39.4293 4.0645 38.7293 4.1645C38.0293 4.3645 37.7293 4.9645 37.8293 5.6645L40.9293 17.2645Z" fill="#6B5CA6"/>
<path d="M29.6289 28.0646C29.8289 28.4646 30.3289 28.5646 30.6289 28.5646C30.9289 28.5646 31.1289 28.4647 31.2289 28.3647L31.4289 28.1646C31.8289 27.7647 31.9289 27.0646 31.5289 26.4646L19.1289 11.8646C18.7289 11.4646 18.0289 11.3646 17.4289 11.7646C17.0289 12.1646 16.9289 12.8646 17.3289 13.4646L29.6289 28.0646Z" fill="#6B5CA6"/>
<path d="M12.5289 20.5646L20.1289 27.5646C20.3289 27.7646 20.6289 27.8646 20.9289 27.8646C21.2289 27.8646 21.5289 27.7646 21.8289 27.5646C22.1289 27.2646 22.2289 26.9646 22.2289 26.5646C22.2289 26.2646 22.0289 25.9646 21.8289 25.8646L14.2289 18.8646C13.9289 18.5646 13.6289 18.4646 13.2289 18.4646C12.9289 18.4646 12.6289 18.6646 12.5289 18.8646C12.2289 19.1646 12.1289 19.4646 12.1289 19.8646C12.1289 20.1646 12.3289 20.3646 12.5289 20.5646Z" fill="#6B5CA6"/>
</svg>
