<svg width="95" height="96" viewBox="0 0 95 96" fill="none" xmlns="http://www.w3.org/2000/svg">
<path d="M14.7363 30.8417C22.491 30.8417 28.7988 24.4819 28.7988 16.6667C28.7988 8.8516 22.491 2.49175 14.7363 2.49175C6.98164 2.49175 0.673828 8.8516 0.673828 16.6667C0.673828 24.4819 6.98164 30.8417 14.7363 30.8417ZM14.7363 5.64175C20.766 5.64175 25.6738 10.5872 25.6738 16.6667C25.6738 22.7462 20.766 27.6917 14.7363 27.6917C8.70664 27.6917 3.79883 22.7462 3.79883 16.6667C3.79883 10.5872 8.70664 5.64175 14.7363 5.64175Z" fill="#6B5CA6"/>
<path d="M14.7363 21.3917C13.8738 21.3917 13.1738 20.6846 13.1738 19.8167H10.0488C10.0488 21.8674 11.3598 23.5999 13.1738 24.2519V26.1167H16.2988V24.2519C18.1129 23.5999 19.4238 21.8674 19.4238 19.8167C19.4238 17.2117 17.3207 15.0917 14.7363 15.0917C13.8738 15.0917 13.1738 14.3846 13.1738 13.5167C13.1738 12.6489 13.8738 11.9417 14.7363 11.9417C15.5988 11.9417 16.2988 12.6489 16.2988 13.5167H19.4238C19.4238 11.4661 18.1129 9.7336 16.2988 9.08155V7.21675H13.1738V9.08155C11.3598 9.7336 10.0488 11.4661 10.0488 13.5167C10.0488 16.1218 12.152 18.2417 14.7363 18.2417C15.5988 18.2417 16.2988 18.9489 16.2988 19.8167C16.2988 20.6846 15.5988 21.3917 14.7363 21.3917Z" fill="#6B5CA6"/>
<path d="M80.3613 0.916748C72.6066 0.916748 66.2988 7.2766 66.2988 15.0917C66.2988 22.9069 72.6066 29.2667 80.3613 29.2667C88.116 29.2667 94.4238 22.9069 94.4238 15.0917C94.4238 7.2766 88.116 0.916748 80.3613 0.916748ZM80.3613 26.1167C74.3316 26.1167 69.4238 21.1712 69.4238 15.0917C69.4238 9.01225 74.3316 4.06675 80.3613 4.06675C86.391 4.06675 91.2988 9.01225 91.2988 15.0917C91.2988 21.1712 86.391 26.1167 80.3613 26.1167Z" fill="#6B5CA6"/>
<path d="M80.3613 10.3667C81.2238 10.3667 81.9238 11.0739 81.9238 11.9417H85.0488C85.0488 9.8911 83.7379 8.1586 81.9238 7.50655V5.64175H78.7988V7.50655C76.9848 8.1586 75.6738 9.8911 75.6738 11.9417C75.6738 14.5468 77.777 16.6667 80.3613 16.6667C81.2238 16.6667 81.9238 17.3739 81.9238 18.2417C81.9238 19.1096 81.2238 19.8167 80.3613 19.8167C79.4988 19.8167 78.7988 19.1096 78.7988 18.2417H75.6738C75.6738 20.2924 76.9848 22.0249 78.7988 22.6769V24.5417H81.9238V22.6769C83.7379 22.0249 85.0488 20.2924 85.0488 18.2417C85.0488 15.6367 82.9457 13.5167 80.3613 13.5167C79.4988 13.5167 78.7988 12.8096 78.7988 11.9417C78.7988 11.0739 79.4988 10.3667 80.3613 10.3667Z" fill="#6B5CA6"/>
<path d="M69.4238 40.2917C61.6691 40.2917 55.3613 46.6516 55.3613 54.4667C55.3613 62.2819 61.6691 68.6417 69.4238 68.6417C77.1785 68.6417 83.4863 62.2819 83.4863 54.4667C83.4863 46.6516 77.1785 40.2917 69.4238 40.2917ZM69.4238 65.4917C63.3941 65.4917 58.4863 60.5462 58.4863 54.4667C58.4863 48.3872 63.3941 43.4417 69.4238 43.4417C75.4535 43.4417 80.3613 48.3872 80.3613 54.4667C80.3613 60.5462 75.4535 65.4917 69.4238 65.4917Z" fill="#6B5CA6"/>
<path d="M69.4238 49.7417C70.2863 49.7417 70.9863 50.4489 70.9863 51.3167H74.1113C74.1113 49.2661 72.8004 47.5336 70.9863 46.8815V45.0167H67.8613V46.8815C66.0473 47.5336 64.7363 49.2661 64.7363 51.3167C64.7363 53.9218 66.8395 56.0417 69.4238 56.0417C70.2863 56.0417 70.9863 56.7489 70.9863 57.6167C70.9863 58.4846 70.2863 59.1917 69.4238 59.1917C68.5613 59.1917 67.8613 58.4846 67.8613 57.6167H64.7363C64.7363 59.6674 66.0473 61.3999 67.8613 62.0519V63.9167H70.9863V62.0519C72.8004 61.3999 74.1113 59.6674 74.1113 57.6167C74.1113 55.0117 72.0082 52.8917 69.4238 52.8917C68.5613 52.8917 67.8613 52.1846 67.8613 51.3167C67.8613 50.4489 68.5613 49.7417 69.4238 49.7417Z" fill="#6B5CA6"/>
<path d="M25.6738 32.4167C17.9191 32.4167 11.6113 38.7766 11.6113 46.5918C11.6113 54.4069 17.9191 60.7668 25.6738 60.7668C33.4285 60.7668 39.7363 54.4069 39.7363 46.5918C39.7363 38.7766 33.4285 32.4167 25.6738 32.4167ZM25.6738 57.6167C19.6441 57.6167 14.7363 52.6712 14.7363 46.5918C14.7363 40.5123 19.6441 35.5667 25.6738 35.5667C31.7035 35.5667 36.6113 40.5123 36.6113 46.5918C36.6113 52.6712 31.7035 57.6167 25.6738 57.6167Z" fill="#6B5CA6"/>
<path d="M25.6738 41.8667C26.5363 41.8667 27.2363 42.5739 27.2363 43.4417H30.3613C30.3613 41.3911 29.0504 39.6586 27.2363 39.0065V37.1417H24.1113V39.0065C22.2973 39.6586 20.9863 41.3911 20.9863 43.4417C20.9863 46.0468 23.0895 48.1667 25.6738 48.1667C26.5363 48.1667 27.2363 48.8739 27.2363 49.7417C27.2363 50.6096 26.5363 51.3167 25.6738 51.3167C24.8113 51.3167 24.1113 50.6096 24.1113 49.7417H20.9863C20.9863 51.7924 22.2973 53.5249 24.1113 54.1769V56.0417H27.2363V54.1769C29.0504 53.5249 30.3613 51.7924 30.3613 49.7417C30.3613 47.1367 28.2582 45.0167 25.6738 45.0167C24.8113 45.0167 24.1113 44.3096 24.1113 43.4417C24.1113 42.5739 24.8113 41.8667 25.6738 41.8667Z" fill="#6B5CA6"/>
<path d="M56.9238 70.2168C56.9238 65.0051 52.7191 60.7667 47.5488 60.7667C42.3785 60.7667 38.1738 65.0051 38.1738 70.2168C38.1738 73.2313 39.5863 75.9135 41.7738 77.646C36.0113 79.966 31.9238 85.6391 31.9238 92.2667V93.8418C31.9238 94.7112 32.6223 95.4167 33.4863 95.4167H61.6113C62.4754 95.4167 63.1738 94.7112 63.1738 93.8418V92.2667C63.1738 85.6391 59.0863 79.966 53.3238 77.646C55.5113 75.9135 56.9238 73.2313 56.9238 70.2168ZM60.0488 92.2667H35.0488C35.0488 85.3194 40.6566 79.6667 47.5488 79.6667C54.441 79.6667 60.0488 85.3194 60.0488 92.2667ZM47.5488 76.5167C44.102 76.5167 41.2988 73.6912 41.2988 70.2168C41.2988 66.7423 44.102 63.9167 47.5488 63.9167C50.9957 63.9167 53.7988 66.7423 53.7988 70.2168C53.7988 73.6912 50.9957 76.5167 47.5488 76.5167Z" fill="#43B0FF"/>
<path d="M6.89727 31.8324C4.84102 37.0299 3.79883 42.5251 3.79883 48.1667C3.79883 65.0318 13.1113 80.1723 28.1035 87.6819L29.4957 84.8611C15.5723 77.887 6.92383 63.827 6.92383 48.1667C6.92383 42.9267 7.89102 37.8253 9.80039 33.0011L6.89727 31.8324Z" fill="#43B0FF"/>
<path d="M65.6035 84.8611L66.9957 87.6819C81.9863 80.1723 91.2988 65.0318 91.2988 48.1667C91.2988 42.3944 90.2082 36.7795 88.0582 31.4796L85.1645 32.6719C87.1629 37.5922 88.1738 42.8054 88.1738 48.1667C88.1738 63.827 79.5254 77.887 65.6035 84.8611Z" fill="#43B0FF"/>
<path d="M29.7238 7.8814L30.9988 10.7573C36.216 8.40745 41.7863 7.21675 47.5488 7.21675C53.3113 7.21675 58.8816 8.40745 64.0988 10.7573L65.3738 7.8814C59.7519 5.35037 53.7551 4.06675 47.5488 4.06675C41.3426 4.06675 35.3457 5.35037 29.7238 7.8814Z" fill="#43B0FF"/>
<path d="M47.5488 19.8167C40.0535 19.8167 33.002 22.7541 27.6957 28.0855L29.902 30.3157C34.6191 25.5765 40.8863 22.9667 47.5488 22.9667C57.3504 22.9667 66.2957 28.7848 70.3379 37.7906L73.1848 36.4928C68.6379 26.3624 58.5754 19.8167 47.5488 19.8167Z" fill="#43B0FF"/>
<path d="M35.7863 70.4089C32.277 68.5189 29.2254 65.7721 26.9613 62.4646L24.3895 64.2538C26.9363 67.9724 30.3676 71.0609 34.3145 73.1872L35.7863 70.4089Z" fill="#43B0FF"/>
<path d="M62.2535 68.5488C61.316 69.2371 60.3285 69.8624 59.3113 70.4089L60.7848 73.1872C61.9254 72.5714 63.0395 71.8689 64.0926 71.094L62.2535 68.5488Z" fill="#43B0FF"/>
</svg>
