<svg width="101" height="84" viewBox="0 0 101 84" fill="none" xmlns="http://www.w3.org/2000/svg">
<path d="M67.1007 16.6996C58.6286 16.6996 50.5829 19.9079 44.4584 25.6047V2.13631C44.4584 1.23466 43.7284 0.504639 42.8267 0.504639H14.8425C13.9408 0.504639 13.2108 1.23466 13.2108 2.13631V43.4659H2.24635C1.63288 43.4659 1.07063 43.8104 0.792707 44.3573C0.514785 44.9042 0.566014 45.5612 0.927184 46.0582L27.5154 82.5824C27.8228 83.0051 28.3133 83.2535 28.8346 83.2535C29.3559 83.2535 29.8464 83.0038 30.1538 82.5824L39.9182 69.1692C46.1567 78.0294 56.1452 83.2535 67.1007 83.2535C85.4499 83.2535 100.378 68.3252 100.378 49.9772C100.378 31.628 85.4499 16.6996 67.1007 16.6996ZM56.742 46.0582C57.1032 45.5612 57.1557 44.9055 56.8765 44.3573C56.5986 43.8104 56.0363 43.4659 55.4229 43.4659H44.4584V41.6088C47.9484 32.1672 57.0123 25.8442 67.1007 25.8442C80.4089 25.8442 91.235 36.6703 91.235 49.9785C91.235 63.2854 80.4089 74.1129 67.1007 74.1129C58.1585 74.1129 49.8721 69.0731 45.7263 61.1927L56.742 46.0582ZM28.8346 78.849L5.45333 46.7293H14.8438C15.7454 46.7293 16.4754 45.9992 16.4754 45.0976V3.76798H41.1963V29.6762V41.3207V45.0976C41.1963 45.9992 41.9264 46.7293 42.828 46.7293H52.2184L28.8346 78.849ZM67.1007 79.9902C56.847 79.9902 47.5258 74.9197 41.9558 66.3695L43.6259 64.0757C48.5414 72.2263 57.4797 77.3749 67.1007 77.3749C82.2083 77.3749 94.4984 65.0849 94.4984 49.9772C94.4984 34.8696 82.2083 22.5795 67.1007 22.5795C57.9113 22.5795 49.4828 27.2133 44.4584 34.5788V30.2781C50.1705 23.7156 58.3891 19.963 67.1007 19.963C83.6505 19.963 97.1149 33.4275 97.1149 49.9772C97.1149 66.527 83.6505 79.9902 67.1007 79.9902Z" fill="#7558EA"/>
<path d="M60.4589 47.3371C59.903 45.6658 60.0862 43.8868 60.9763 42.3269C62.0508 40.4429 64.0475 39.0648 66.454 38.5461C66.5258 38.5307 66.5975 38.5218 66.6692 38.5077V34.96C66.6692 34.0584 67.3992 33.3284 68.3009 33.3284C69.2025 33.3284 69.9325 34.0584 69.9325 34.96V38.4155C72.7002 38.7933 75.1272 40.3187 76.285 42.624C76.6897 43.4296 76.3657 44.4106 75.5601 44.8141C74.7571 45.2188 73.7748 44.8948 73.3701 44.0892C72.4287 42.218 69.693 41.1819 67.1418 41.7352C65.6408 42.0592 64.4266 42.8635 63.8106 43.9432C63.5109 44.4683 63.2227 45.3046 63.5557 46.3049C64.2588 48.4181 65.8393 48.7844 68.5724 49.2506C71.3414 49.7219 74.7866 50.3098 76.1441 54.3889C76.7 56.0603 76.5168 57.8405 75.6267 59.4005C74.5522 61.2832 72.5555 62.6612 70.149 63.1799C70.0773 63.1953 70.0043 63.2004 69.9325 63.2145V66.5944C69.9325 67.4961 69.2025 68.2261 68.3009 68.2261C67.3992 68.2261 66.6692 67.4961 66.6692 66.5944V63.3106C63.9015 62.9328 61.4745 61.4061 60.3167 59.1008C59.912 58.2952 60.236 57.3154 61.0416 56.9107C61.8459 56.5047 62.827 56.8313 63.2317 57.6356C64.1718 59.5055 66.9049 60.5391 69.4599 59.9896C70.961 59.6656 72.1751 58.8613 72.7912 57.7829C73.0909 57.2565 73.379 56.4202 73.046 55.4199C72.3403 53.3016 70.7586 52.934 68.023 52.4678C65.2578 51.9978 61.8152 51.4112 60.4589 47.3371Z" fill="#6B5CA6"/>
</svg>
