<svg width="99" height="96" viewBox="0 0 99 96" fill="none" xmlns="http://www.w3.org/2000/svg">
<path d="M95.5154 82.2807C94.6178 81.3954 93.6919 80.6765 92.7902 80.1689C90.1382 78.6013 88.0833 77.1229 86.3165 75.5024L85.9713 75.1938C85.3702 74.6577 84.7773 74.1217 84.1437 73.618L83.5589 73.155C88.8304 64.5126 87.7542 53.064 80.2896 45.5949C77.2355 42.5408 73.5072 40.5751 69.5839 39.6491V7.47581C69.5839 3.845 66.6272 0.888428 62.9965 0.888428H7.2513C3.62049 0.888428 0.667969 3.8451 0.667969 7.47581V83.5605C0.667969 87.1913 3.62049 90.1479 7.2513 90.1479H62.9965C66.6273 90.1479 69.5839 87.1912 69.5839 83.5605V83.2924C71.9191 82.7442 74.1813 81.8182 76.2769 80.5145L76.7236 81.079C77.3247 81.8141 77.9583 82.5208 78.5959 83.2274C80.1879 84.9819 81.6662 87.041 83.2502 89.7093C83.831 90.684 84.5417 91.6018 85.3662 92.4344C87.1532 94.2255 89.0092 95.1189 90.8367 95.1189C92.5506 95.1189 94.2441 94.327 95.8321 92.7472C99.0974 89.4779 98.9878 85.7649 95.5154 82.2807ZM77.9872 75.0557C74.3564 78.6825 69.5357 80.6806 64.4068 80.6806H64.4027C59.2692 80.6766 54.4485 78.6784 50.8222 75.0516C43.3332 67.5586 43.3373 55.3703 50.8304 47.8855C54.4571 44.2588 59.2779 42.2606 64.4077 42.2606H64.4118C69.5452 42.2646 74.366 44.2628 77.9922 47.8936C85.4812 55.3826 85.4762 67.571 77.9872 75.0557ZM62.9969 86.8988H7.25175C5.41201 86.8988 3.91745 85.4002 3.91745 83.5605V7.4758C3.91745 5.63607 5.41201 4.13746 7.25175 4.13746H62.9969C64.8367 4.13746 66.3353 5.63607 66.3353 7.4758V39.1178C59.959 38.5736 53.4005 40.722 48.5305 45.5875C46.1953 47.9187 44.5058 50.6479 43.4133 53.5517L15.3374 53.5193C14.4399 53.5193 13.7129 54.2462 13.7129 55.1438C13.7089 56.0413 14.4358 56.7683 15.3334 56.7683L42.4631 56.8008C41.9067 59.4407 41.8336 62.1535 42.2316 64.8137L15.3379 64.7853C14.4403 64.7853 13.7134 65.5122 13.7134 66.4057C13.7093 67.3033 14.4363 68.0302 15.3338 68.0343L42.9501 68.0668C43.8355 70.9584 45.326 73.6998 47.4013 76.1082L15.3372 76.0676C14.4396 76.0676 13.7126 76.7905 13.7126 77.688C13.7086 78.5856 14.4356 79.3126 15.3331 79.3166L50.874 79.3613C54.8621 82.3828 59.6301 83.918 64.4066 83.918C65.0402 83.918 65.6738 83.8815 66.3073 83.8287C66.1692 85.5425 64.7433 86.8988 62.9969 86.8988ZM93.5379 90.4484C91.556 92.4181 89.8543 92.3288 87.6693 90.1438C87.0439 89.5103 86.4835 88.7874 86.0448 88.0482C84.3472 85.1891 82.747 82.9676 81.0047 81.0465C80.3996 80.3805 79.8026 79.7145 79.2543 79.0402L78.905 78.6016C79.3761 78.2036 79.8391 77.7975 80.2818 77.3548C80.7813 76.8593 81.2402 76.3395 81.6789 75.8115L82.1216 76.1608C82.7024 76.6238 83.2506 77.1152 83.803 77.6147L84.136 77.9112C86.0611 79.6738 88.2867 81.282 91.1661 82.9837C91.8403 83.3655 92.5347 83.9056 93.2211 84.5839C95.9341 87.3009 94.9756 89.0108 93.5379 90.4484Z" fill="#43B0FF"/>
<path d="M64.4062 46.7439C60.4749 46.7439 56.7791 48.275 53.9968 51.0569C51.2148 53.8349 49.6837 57.5347 49.6797 61.4663C49.6797 65.4018 51.2108 69.0975 53.9887 71.8799C56.7707 74.6619 60.4705 76.197 64.4022 76.197H64.4104C68.3376 76.197 72.0374 74.6659 74.8156 71.888C77.5976 69.106 79.1327 65.4102 79.1327 61.4744C79.1327 57.5432 77.6016 53.8433 74.8237 51.0609C72.0417 48.2789 68.3459 46.7438 64.4102 46.7438L64.4062 46.7439ZM72.5247 53.3598C74.6934 55.5284 75.8835 58.408 75.8835 61.4742C75.8835 64.5405 74.6895 67.42 72.5207 69.5887C68.0451 74.0602 60.7628 74.0562 56.288 69.5806C54.1233 67.416 52.9292 64.5324 52.9292 61.4661C52.9292 58.4039 54.1232 55.5203 56.292 53.3516C58.4607 51.187 61.3443 49.9929 64.4065 49.9929H64.4106C67.4768 49.9929 70.3601 51.191 72.5247 53.3598Z" fill="#6B5CA6"/>
<path d="M19.5812 39.064C19.5812 37.2689 18.773 35.6769 17.518 34.5803L23.2079 27.6843C24.0649 28.1635 25.0395 28.46 26.0955 28.46C27.8052 28.46 29.3404 27.7249 30.433 26.5674L35.4324 29.3819C35.1156 30.1089 34.9369 30.909 34.9369 31.7536C34.9369 35.0474 37.6174 37.7278 40.9111 37.7278C44.2049 37.7278 46.8853 35.0474 46.8853 31.7536C46.8853 30.7911 46.6376 29.8976 46.2314 29.0894L53.1032 21.4948C53.5499 21.6004 54.0088 21.6735 54.488 21.6735C57.7818 21.6735 60.4622 18.993 60.4622 15.6952C60.4622 12.4015 57.7818 9.72107 54.488 9.72107C51.1902 9.72107 48.5098 12.4015 48.5098 15.6952C48.5098 17.3117 49.1637 18.7777 50.2074 19.854L44.0302 26.681C43.1205 26.1206 42.0564 25.7794 40.9111 25.7794C39.6562 25.7794 38.4947 26.1693 37.5321 26.8354L31.9478 23.6919C32.025 23.3021 32.0697 22.9 32.0697 22.4857C32.0697 19.1919 29.3892 16.5115 26.0955 16.5115C22.7977 16.5115 20.1173 19.1919 20.1173 22.4857C20.1173 23.5376 20.4178 24.5163 20.897 25.3773L14.4639 33.175C14.1837 33.1344 13.8994 33.0897 13.607 33.0897C10.3132 33.0897 7.63281 35.7701 7.63281 39.0639C7.63281 42.3576 10.3132 45.038 13.607 45.038C16.9007 45.038 19.5812 42.3578 19.5812 39.064ZM54.4878 12.9698C55.9905 12.9698 57.2129 14.1923 57.2129 15.695C57.2129 17.2017 55.9905 18.4242 54.4878 18.4242C52.9851 18.4242 51.7586 17.2017 51.7586 15.695C51.7586 14.1923 52.9851 12.9698 54.4878 12.9698ZM43.6355 31.7529C43.6355 33.2556 42.413 34.478 40.9104 34.478C39.4077 34.478 38.1852 33.2556 38.1852 31.7529C38.1852 30.2502 39.4077 29.0278 40.9104 29.0278C42.413 29.0278 43.6355 30.2502 43.6355 31.7529ZM26.0948 19.7601C27.5975 19.7601 28.82 20.9825 28.82 22.4852C28.82 22.8994 28.7184 23.2893 28.5519 23.6427C28.5519 23.6427 28.5479 23.6427 28.5479 23.6467V23.6508C28.1093 24.5687 27.1792 25.2103 26.0948 25.2103C24.5881 25.2103 23.3656 23.9879 23.3656 22.4852C23.3656 20.9825 24.5881 19.7601 26.0948 19.7601ZM13.6061 41.7891C12.1034 41.7891 10.8809 40.5666 10.8809 39.0639C10.8809 37.5613 12.1034 36.3388 13.6061 36.3388C15.1087 36.3388 16.3312 37.5613 16.3312 39.0639C16.3312 40.5666 15.1087 41.7891 13.6061 41.7891Z" fill="#6B5CA6"/>
</svg>
