<svg width="47" height="47" viewBox="0 0 47 47" fill="none" xmlns="http://www.w3.org/2000/svg">
<path d="M23.8105 31.7214C19.2542 31.7214 15.5474 28.0145 15.5474 23.4583C15.5474 18.9021 19.2543 15.1952 23.8105 15.1952C24.8271 15.1745 28.906 15.7675 28.1291 17.3462C27.91 17.7471 27.4059 17.8938 27.0071 17.6727C26.0297 17.1334 24.9242 16.8503 23.8105 16.8503C20.1655 16.8503 17.1983 19.8155 17.1983 23.4625C17.1983 27.1074 20.1634 30.0747 23.8105 30.0747C28.7531 30.1594 32.0551 24.5474 29.598 20.2659C29.0917 19.3051 30.5051 18.526 31.0465 19.4683C34.117 24.8178 29.9865 31.8288 23.8101 31.7257L23.8105 31.7214ZM24.6349 36.6806H22.9819C22.0706 36.6806 21.3288 35.9388 21.3288 35.0275V34.7465C20.0002 34.4551 18.7232 33.9262 17.5785 33.1926C16.9504 33.982 15.7705 34.1266 15.0431 33.391L13.8736 32.2215C13.2289 31.5768 13.2289 30.5292 13.8736 29.8845L14.072 29.6861C13.3385 28.5414 12.8115 27.2644 12.5202 25.9358C11.518 26.0494 10.5799 25.32 10.5862 24.2827V22.6297C10.5779 21.5924 11.5201 20.8651 12.5202 20.9766C12.8115 19.648 13.3405 18.371 14.072 17.2263C13.2847 16.5961 13.136 15.4204 13.8736 14.6909L15.0431 13.5214C15.6878 12.8767 16.7354 12.8767 17.3801 13.5214L17.5785 13.7198C18.7253 12.9863 20.0002 12.4594 21.3288 12.1659V11.8849C21.3288 10.9737 22.0706 10.2319 22.9819 10.2319H24.6349C25.6701 10.2236 26.3995 11.1658 26.288 12.1659C27.6166 12.4573 28.8936 12.9862 30.0383 13.7198C30.6665 12.9304 31.8463 12.7858 32.5737 13.5214L33.7432 14.6909C34.4829 15.4183 34.3321 16.5981 33.5448 17.2263C34.2783 18.371 34.8053 19.648 35.0966 20.9766C36.0988 20.863 37.0369 21.5924 37.0307 22.6297V24.2827C37.0389 25.32 36.0967 26.0473 35.0966 25.9358C34.8053 27.2644 34.2763 28.5414 33.5448 29.6861C34.3321 30.3163 34.4808 31.4921 33.7432 32.2215L32.5737 33.391C31.929 34.0357 30.8814 34.0357 30.2367 33.391L30.0383 33.1926C28.8915 33.9261 27.6166 34.453 26.288 34.7465C26.4016 35.7486 25.6701 36.6847 24.6349 36.6806ZM29.6499 31.459C30.371 30.9342 30.9351 31.7751 31.4042 32.2235L32.5737 31.0561C32.1356 30.5953 31.2781 30.0229 31.8091 29.3018C32.7369 28.0331 33.3548 26.5412 33.5944 24.9874C33.7411 24.0988 34.7226 24.3055 35.3777 24.2869V22.6338H34.4106C34.0036 22.6338 33.6564 22.3363 33.5944 21.9334C33.3547 20.3795 32.7349 18.8856 31.8091 17.619C31.2843 16.8978 32.1274 16.3337 32.5737 15.8647L31.4042 14.6952L30.7223 15.3771C30.435 15.6643 29.9784 15.6994 29.6499 15.4597C28.3812 14.5319 26.8893 13.9141 25.3354 13.6724C24.9325 13.6104 24.635 13.2632 24.635 12.8561V11.8891H22.9819V12.8561C22.9819 13.2632 22.6844 13.6104 22.2815 13.6724C20.7276 13.912 19.2357 14.5299 17.967 15.4597C17.2438 15.9825 16.6818 15.1436 16.2127 14.6952L15.0432 15.8626C15.4813 16.3234 16.3388 16.8958 15.8078 17.6169C14.88 18.8856 14.2622 20.3775 14.0225 21.9313C13.9605 22.3343 13.6133 22.6318 13.2063 22.6318H12.2393V24.2849H13.2063C13.6133 24.2849 13.9605 24.5824 14.0225 24.9853C14.2622 26.5392 14.8821 28.0331 15.8078 29.2997C16.3326 30.0209 15.4896 30.5871 15.0432 31.054L16.2127 32.2235C16.5289 31.9508 17 31.2565 17.4794 31.2999C17.6488 31.2999 17.8203 31.3516 17.967 31.459C19.2357 32.3868 20.7276 33.0046 22.2815 33.2464C23.17 33.3931 22.9634 34.3746 22.9819 35.0296H24.635V34.0626C24.635 33.6555 24.9325 33.3084 25.3354 33.2464C26.8893 33.0067 28.3812 32.3888 29.6499 31.459ZM21.9861 46.3549C22.3084 46.6773 22.8312 46.6773 23.1556 46.3549L25.6352 43.8753C26.003 43.5158 25.9017 42.931 25.5442 42.6149L23.1577 40.2283C22.389 39.4679 21.2298 40.6292 21.9882 41.3978L23.0317 42.4414C16.3412 42.2182 10.02 38.2157 6.97465 32.2671C6.4684 31.3186 5.01786 32.0522 5.50965 33.0316C7.40238 36.6642 10.3097 39.6231 13.9092 41.5883C16.7091 43.1277 19.8666 43.9831 23.0795 44.0968L21.9885 45.1878C21.6662 45.5101 21.6662 46.0329 21.9885 46.3573L21.9861 46.3549ZM3.39157 25.2827C3.72011 25.6216 4.22428 25.5761 4.56108 25.2827L7.04065 22.8031C7.80105 22.0345 6.63978 20.8753 5.87114 21.6336L4.82763 22.6771C5.05079 15.9866 9.05324 9.6654 15.0019 6.62009C15.9504 6.11385 15.2168 4.66331 14.2374 5.15509C10.6048 7.04988 7.64585 9.95512 5.68071 13.5547C4.14128 16.3545 3.28588 19.5099 3.1722 22.725L2.08119 21.634C1.75885 21.3116 1.23605 21.3116 0.911682 21.634C0.589335 21.9563 0.589335 22.4791 0.911682 22.8035L3.39157 25.2827ZM43.0583 21.6336L40.5788 24.1132C39.8184 24.8839 40.9796 26.041 41.7483 25.2827L42.7918 24.2392C42.6719 27.1589 41.8867 30.023 40.4878 32.5663C38.6798 35.8806 35.9585 38.5522 32.6172 40.2941C32.2122 40.5049 32.0552 41.0049 32.2659 41.4099C32.4788 41.817 32.983 41.9699 33.3797 41.7612C39.8866 38.4303 44.2422 31.5081 44.4448 24.1913L45.5358 25.2823C46.3003 26.0448 47.4678 24.8794 46.7053 24.1128L44.2257 21.6332C43.8972 21.3005 43.3889 21.3501 43.0562 21.6332L43.0583 21.6336ZM33.7103 5.33061C30.9104 3.79119 27.753 2.93578 24.54 2.8221L25.631 1.73109C25.9533 1.40875 25.9533 0.885951 25.631 0.561584C25.3086 0.239238 24.7858 0.239238 24.4615 0.561584L21.9819 3.04115C21.6162 3.40069 21.7153 3.9813 22.0708 4.29953L24.4615 6.69023C24.7838 7.01258 25.3066 7.01258 25.631 6.69023C25.9533 6.36789 25.9533 5.84509 25.631 5.52072L24.5875 4.47721C31.2779 4.70037 37.5992 8.70282 40.6445 14.6515C41.1569 15.602 42.5992 14.8602 42.1095 13.887C40.2168 10.2544 37.3098 7.29575 33.7103 5.33061Z" fill="#6B5CA6"/>
<mask id="mask0_2585_2542" style="mask-type:alpha" maskUnits="userSpaceOnUse" x="0" y="0" width="47" height="47">
<path d="M23.8105 31.7214C19.2542 31.7214 15.5474 28.0145 15.5474 23.4583C15.5474 18.9021 19.2543 15.1952 23.8105 15.1952C24.8271 15.1745 28.906 15.7675 28.1291 17.3462C27.91 17.7471 27.4059 17.8938 27.0071 17.6727C26.0297 17.1334 24.9242 16.8503 23.8105 16.8503C20.1655 16.8503 17.1983 19.8155 17.1983 23.4625C17.1983 27.1074 20.1634 30.0747 23.8105 30.0747C28.7531 30.1594 32.0551 24.5474 29.598 20.2659C29.0917 19.3051 30.5051 18.526 31.0465 19.4683C34.117 24.8178 29.9865 31.8288 23.8101 31.7257L23.8105 31.7214ZM24.6349 36.6806H22.9819C22.0706 36.6806 21.3288 35.9388 21.3288 35.0275V34.7465C20.0002 34.4551 18.7232 33.9262 17.5785 33.1926C16.9504 33.982 15.7705 34.1266 15.0431 33.391L13.8736 32.2215C13.2289 31.5768 13.2289 30.5292 13.8736 29.8845L14.072 29.6861C13.3385 28.5414 12.8115 27.2644 12.5202 25.9358C11.518 26.0494 10.5799 25.32 10.5862 24.2827V22.6297C10.5779 21.5924 11.5201 20.8651 12.5202 20.9766C12.8115 19.648 13.3405 18.371 14.072 17.2263C13.2847 16.5961 13.136 15.4204 13.8736 14.6909L15.0431 13.5214C15.6878 12.8767 16.7354 12.8767 17.3801 13.5214L17.5785 13.7198C18.7253 12.9863 20.0002 12.4594 21.3288 12.1659V11.8849C21.3288 10.9737 22.0706 10.2319 22.9819 10.2319H24.6349C25.6701 10.2236 26.3995 11.1658 26.288 12.1659C27.6166 12.4573 28.8936 12.9862 30.0383 13.7198C30.6665 12.9304 31.8463 12.7858 32.5737 13.5214L33.7432 14.6909C34.4829 15.4183 34.3321 16.5981 33.5448 17.2263C34.2783 18.371 34.8053 19.648 35.0966 20.9766C36.0988 20.863 37.0369 21.5924 37.0307 22.6297V24.2827C37.0389 25.32 36.0967 26.0473 35.0966 25.9358C34.8053 27.2644 34.2763 28.5414 33.5448 29.6861C34.3321 30.3163 34.4808 31.4921 33.7432 32.2215L32.5737 33.391C31.929 34.0357 30.8814 34.0357 30.2367 33.391L30.0383 33.1926C28.8915 33.9261 27.6166 34.453 26.288 34.7465C26.4016 35.7486 25.6701 36.6847 24.6349 36.6806ZM29.6499 31.459C30.371 30.9342 30.9351 31.7751 31.4042 32.2235L32.5737 31.0561C32.1356 30.5953 31.2781 30.0229 31.8091 29.3018C32.7369 28.0331 33.3548 26.5412 33.5944 24.9874C33.7411 24.0988 34.7226 24.3055 35.3777 24.2869V22.6338H34.4106C34.0036 22.6338 33.6564 22.3363 33.5944 21.9334C33.3547 20.3795 32.7349 18.8856 31.8091 17.619C31.2843 16.8978 32.1274 16.3337 32.5737 15.8647L31.4042 14.6952L30.7223 15.3771C30.435 15.6643 29.9784 15.6994 29.6499 15.4597C28.3812 14.5319 26.8893 13.9141 25.3354 13.6724C24.9325 13.6104 24.635 13.2632 24.635 12.8561V11.8891H22.9819V12.8561C22.9819 13.2632 22.6844 13.6104 22.2815 13.6724C20.7276 13.912 19.2357 14.5299 17.967 15.4597C17.2438 15.9825 16.6818 15.1436 16.2127 14.6952L15.0432 15.8626C15.4813 16.3234 16.3388 16.8958 15.8078 17.6169C14.88 18.8856 14.2622 20.3775 14.0225 21.9313C13.9605 22.3343 13.6133 22.6318 13.2063 22.6318H12.2393V24.2849H13.2063C13.6133 24.2849 13.9605 24.5824 14.0225 24.9853C14.2622 26.5392 14.8821 28.0331 15.8078 29.2997C16.3326 30.0209 15.4896 30.5871 15.0432 31.054L16.2127 32.2235C16.5289 31.9508 17 31.2565 17.4794 31.2999C17.6488 31.2999 17.8203 31.3516 17.967 31.459C19.2357 32.3868 20.7276 33.0046 22.2815 33.2464C23.17 33.3931 22.9634 34.3746 22.9819 35.0296H24.635V34.0626C24.635 33.6555 24.9325 33.3084 25.3354 33.2464C26.8893 33.0067 28.3812 32.3888 29.6499 31.459ZM21.9861 46.3549C22.3084 46.6773 22.8312 46.6773 23.1556 46.3549L25.6352 43.8753C26.003 43.5158 25.9017 42.931 25.5442 42.6149L23.1577 40.2283C22.389 39.4679 21.2298 40.6292 21.9882 41.3978L23.0317 42.4414C16.3412 42.2182 10.02 38.2157 6.97465 32.2671C6.4684 31.3186 5.01786 32.0522 5.50965 33.0316C7.40238 36.6642 10.3097 39.6231 13.9092 41.5883C16.7091 43.1277 19.8666 43.9831 23.0795 44.0968L21.9885 45.1878C21.6662 45.5101 21.6662 46.0329 21.9885 46.3573L21.9861 46.3549ZM3.39157 25.2827C3.72011 25.6216 4.22428 25.5761 4.56108 25.2827L7.04065 22.8031C7.80105 22.0345 6.63978 20.8753 5.87114 21.6336L4.82763 22.6771C5.05079 15.9866 9.05324 9.6654 15.0019 6.62009C15.9504 6.11385 15.2168 4.66331 14.2374 5.15509C10.6048 7.04988 7.64585 9.95512 5.68071 13.5547C4.14128 16.3545 3.28588 19.5099 3.1722 22.725L2.08119 21.634C1.75885 21.3116 1.23605 21.3116 0.911682 21.634C0.589335 21.9563 0.589335 22.4791 0.911682 22.8035L3.39157 25.2827ZM43.0583 21.6336L40.5788 24.1132C39.8184 24.8839 40.9796 26.041 41.7483 25.2827L42.7918 24.2392C42.6719 27.1589 41.8867 30.023 40.4878 32.5663C38.6798 35.8806 35.9585 38.5522 32.6172 40.2941C32.2122 40.5049 32.0552 41.0049 32.2659 41.4099C32.4788 41.817 32.983 41.9699 33.3797 41.7612C39.8866 38.4303 44.2422 31.5081 44.4448 24.1913L45.5358 25.2823C46.3003 26.0448 47.4678 24.8794 46.7053 24.1128L44.2257 21.6332C43.8972 21.3005 43.3889 21.3501 43.0562 21.6332L43.0583 21.6336ZM33.7103 5.33061C30.9104 3.79119 27.753 2.93578 24.54 2.8221L25.631 1.73109C25.9533 1.40875 25.9533 0.885951 25.631 0.561584C25.3086 0.239238 24.7858 0.239238 24.4615 0.561584L21.9819 3.04115C21.6162 3.40069 21.7153 3.9813 22.0708 4.29953L24.4615 6.69023C24.7838 7.01258 25.3066 7.01258 25.631 6.69023C25.9533 6.36789 25.9533 5.84509 25.631 5.52072L24.5875 4.47721C31.2779 4.70037 37.5992 8.70282 40.6445 14.6515C41.1569 15.602 42.5992 14.8602 42.1095 13.887C40.2168 10.2544 37.3098 7.29575 33.7103 5.33061Z" fill="#6B5CA6"/>
</mask>
<g mask="url(#mask0_2585_2542)">
<path d="M38.7734 23.458C38.7734 31.7212 32.0748 38.4199 23.8115 38.4199C15.5483 38.4199 8.84961 31.7212 8.84961 23.458C8.84961 15.1948 15.5483 8.49609 23.8115 8.49609C32.0748 8.49609 38.7734 15.1948 38.7734 23.458Z" fill="#7558EA"/>
</g>
</svg>
