<svg width="136" height="125" viewBox="0 0 136 125" fill="none" xmlns="http://www.w3.org/2000/svg">
<path d="M78.1583 93.0142V83.3849H66.5519V94.957H76.1955L80.4625 99.0959H27.4654V67.5894L32.9273 72.9954V84.2296H46.2406V71.0526H34.9755L9.71434 46.1346V38.8704H0.412109V48.0774H7.75149L14.6642 54.9192V111.766H93.1784L99.9204 118.439V124.098H107.601V116.496H101.883L78.1583 93.0142Z" fill="#18122A"/>
<path d="M125.518 102.137L119.715 96.4776V52.301L101.452 34.1404V11.2496H88.6507V21.5547L67.2299 0.268799L31.8985 35.2385L11.6725 15.3041V11.0807H5.61328V17.1624H9.79502L27.6314 34.8161L59.2078 65.9848V72.5732H67.6566V64.1265H61.0853L40.9447 44.1921L67.2299 18.176L106.999 57.538V83.8075L66.6325 43.8542V38.9551H59.7199V45.7125H64.755L99.1477 79.753L106.999 87.524L119.715 100.194L123.555 103.995V113.962H135.589V102.137H125.518Z" fill="#7558EA"/>
</svg>
