<svg width="295" height="212" viewBox="0 0 295 212" fill="none" xmlns="http://www.w3.org/2000/svg">
<path d="M220.993 120.803C220.993 130.226 228.632 137.864 238.054 137.864H249.952C259.375 137.864 267.013 145.503 267.013 154.925C267.013 164.348 259.374 171.986 249.952 171.986H238.055C228.632 171.986 220.994 179.625 220.994 189.047C220.994 198.47 213.355 206.109 203.933 206.109H91.1383C81.7153 206.109 74.0771 198.47 74.0771 189.047C74.0771 179.625 66.4382 171.986 57.0159 171.986H18.1706C8.74821 171.987 1.10938 164.348 1.10938 154.926C1.10938 145.503 8.74821 137.864 18.1706 137.864H57.0153C66.4382 137.864 74.0765 130.226 74.0765 120.803C74.0765 111.38 66.4377 103.742 57.0153 103.742H46.8028C37.3799 103.742 29.7416 96.1033 29.7416 86.6809C29.7416 77.258 37.3805 69.6198 46.8028 69.6198H105.321C114.744 69.6198 122.382 61.9809 122.382 52.5586C122.382 43.1356 114.743 35.4974 105.321 35.4974H79.1486C69.7256 35.4974 62.0874 27.8585 62.0874 18.4362C62.0874 9.01326 69.7262 1.375 79.1486 1.375H215.922C225.345 1.375 232.983 9.01383 232.983 18.4362C232.983 27.8591 225.344 35.4974 215.922 35.4974H189.749C180.326 35.4974 172.688 43.1362 172.688 52.5586C172.688 61.9815 180.327 69.6198 189.749 69.6198H276.9C286.323 69.6198 293.961 77.2586 293.961 86.6809C293.961 96.1039 286.322 103.742 276.9 103.742H238.055C228.632 103.742 220.993 111.38 220.993 120.803Z" fill="#BBB9FF" fill-opacity="0.4"/>
<g clip-path="url(#clip0_2430_1960)">
<path d="M234.908 43.4397V160.634C234.908 170.501 228.352 178.501 220.265 178.501H67.9824C59.8957 178.501 53.3398 170.501 53.3398 160.634V43.4397C53.3398 33.572 59.8957 25.5723 67.9824 25.5723H220.265C228.352 25.5723 234.908 33.572 234.908 43.4397Z" fill="#0AB0F8"/>
<path d="M166.914 87.6483C166.497 87.6483 166.085 87.67 165.68 87.7116C164.352 77.323 155.478 69.293 144.729 69.293C137.049 69.293 130.328 73.3915 126.63 79.5205C126.616 79.5205 126.603 79.5202 126.589 79.5202C117.747 79.5202 110.58 86.6875 110.58 95.5291C110.58 104.37 117.747 111.538 126.589 111.538H166.914C173.511 111.538 178.859 106.19 178.859 99.5931C178.859 92.996 173.511 87.6483 166.914 87.6483Z" fill="white"/>
<path d="M99.6782 115.821L87.8244 95.2895C86.4982 92.9921 83.182 92.9921 81.8557 95.2895L70.0019 115.821C68.6757 118.118 70.3336 120.99 72.9864 120.99H73.5701V139.187C73.5701 141.986 75.8391 144.255 78.638 144.255H91.0425C93.8414 144.255 96.1104 141.986 96.1104 139.187V120.99H96.6941C99.3466 120.99 101.005 118.118 99.6782 115.821Z" fill="white"/>
<path d="M189.76 122L201.614 142.532C202.94 144.829 206.256 144.829 207.582 142.532L219.436 122C220.762 119.703 219.104 116.831 216.452 116.831H215.868V98.6343C215.868 95.8354 213.599 93.5664 210.8 93.5664H198.395C195.597 93.5664 193.328 95.8354 193.328 98.6343V116.831H192.744C190.091 116.831 188.433 119.703 189.76 122Z" fill="white"/>
<path d="M125.997 130.576C125.488 129.338 124.295 128.539 122.957 128.539C122.956 128.539 122.955 128.539 122.954 128.539C121.615 128.54 120.422 129.342 119.915 130.582C119.907 130.602 119.899 130.622 119.891 130.642L109.605 157.649C109.081 159.025 109.771 160.565 111.147 161.089C111.46 161.208 111.781 161.264 112.096 161.264C113.17 161.264 114.183 160.61 114.588 159.546L116.496 154.537H129.342L131.229 159.539C131.749 160.916 133.287 161.612 134.665 161.092C136.042 160.572 136.738 159.034 136.218 157.656L126.026 130.648C126.016 130.624 126.007 130.6 125.997 130.576ZM118.526 149.206L122.948 137.596L127.33 149.206H118.526Z" fill="#1E2E49"/>
<path d="M174.166 131.205V158.598C174.166 160.07 175.36 161.264 176.832 161.264C178.304 161.264 179.498 160.07 179.498 158.598V131.205C179.498 129.733 178.304 128.539 176.832 128.539C175.36 128.539 174.166 129.733 174.166 131.205Z" fill="#1E2E49"/>
<path d="M146.746 128.54C145.314 128.511 144.056 129.775 144.08 131.206V158.598C144.08 160.071 145.274 161.264 146.746 161.264C148.219 161.264 149.412 160.071 149.412 158.598V149.351C151.116 149.342 153.231 149.332 154.374 149.332C160.19 149.332 164.921 144.668 164.921 138.936C164.921 133.203 160.19 128.539 154.374 128.539H146.746V128.54ZM159.589 138.936C159.589 141.681 157.201 144 154.374 144C153.24 144 151.151 144.01 149.451 144.019C149.442 142.27 149.426 135.699 149.421 133.872H154.374C157.201 133.872 159.589 136.191 159.589 138.936Z" fill="#1E2E49"/>
<path d="M167.647 85.1931C165.179 74.5578 155.608 66.8047 144.475 66.8047C136.554 66.8047 129.337 70.6214 124.889 77.087C115.265 77.8274 107.66 85.8955 107.66 95.7064C107.66 106.004 116.037 114.381 126.335 114.381H166.66C174.716 114.381 181.271 107.827 181.271 99.7705C181.271 92.0462 175.245 85.7025 167.647 85.1931ZM166.66 109.049H126.335C118.978 109.049 112.993 103.064 112.993 95.7064C112.993 88.3493 118.978 82.3636 126.344 82.3639C127.292 82.3824 128.171 81.8854 128.66 81.0753C132.036 75.4781 137.949 72.1367 144.476 72.1367C153.74 72.1367 161.61 79.0541 162.782 88.2274C162.965 89.6624 164.256 90.6869 165.699 90.5415C166.018 90.5088 166.342 90.4921 166.661 90.4921C171.777 90.4921 175.94 94.6542 175.94 99.7705C175.939 104.887 171.777 109.049 166.66 109.049Z" fill="#1E2E49"/>
<path d="M78.3848 147.099H90.7892C95.0538 147.099 98.5232 143.629 98.5232 139.365V123.476C99.8576 122.999 100.993 122.062 101.734 120.778C102.839 118.864 102.839 116.579 101.734 114.666L89.8803 94.1341C88.7755 92.2206 86.7966 91.0781 84.587 91.0781C82.3774 91.0781 80.3985 92.2206 79.2937 94.1341L67.4399 114.666C66.3351 116.579 66.3351 118.864 67.4399 120.778C68.1814 122.062 69.3164 122.999 70.6509 123.476V139.365C70.6505 143.629 74.1199 147.099 78.3848 147.099ZM72.0575 117.331L83.9113 96.7998C84.1071 96.4603 84.4185 96.4098 84.587 96.4098C84.7552 96.4098 85.0666 96.4606 85.2624 96.7998L97.1162 117.331C97.3121 117.671 97.2005 117.966 97.1162 118.112C97.032 118.257 96.8326 118.501 96.4408 118.501H95.8572C94.3848 118.501 93.1911 119.695 93.1911 121.167V139.364C93.1911 140.689 92.1137 141.766 90.7892 141.766H78.3848C77.0603 141.766 75.9829 140.689 75.9829 139.364V121.167C75.9829 119.695 74.7892 118.501 73.3169 118.501H72.7332C72.3411 118.501 72.1417 118.257 72.0578 118.112C71.9739 117.966 71.8612 117.671 72.0575 117.331Z" fill="#1E2E49"/>
<path d="M209.636 144.043L221.49 123.511C222.595 121.598 222.595 119.313 221.49 117.399C220.748 116.115 219.613 115.177 218.279 114.7V98.8121C218.279 94.5475 214.81 91.0781 210.545 91.0781H198.141C193.876 91.0781 190.407 94.5475 190.407 98.8121V114.7C189.072 115.178 187.937 116.115 187.196 117.399C186.091 119.313 186.091 121.598 187.196 123.511L199.05 144.043C200.154 145.956 202.133 147.099 204.343 147.099C206.552 147.099 208.531 145.956 209.636 144.043ZM203.667 141.377L191.813 120.845C191.617 120.506 191.729 120.211 191.813 120.065C191.898 119.919 192.097 119.675 192.489 119.675H193.072C194.545 119.675 195.738 118.481 195.738 117.009V98.8121C195.738 97.4876 196.816 96.4102 198.14 96.4102H210.545C211.869 96.4102 212.947 97.4876 212.947 98.8121V117.009C212.947 118.481 214.14 119.675 215.613 119.675H216.196C216.588 119.675 216.788 119.919 216.872 120.065C216.956 120.211 217.068 120.506 216.872 120.845L205.018 141.377C204.822 141.716 204.511 141.767 204.343 141.767C204.175 141.767 203.863 141.716 203.667 141.377Z" fill="#1E2E49"/>
<path opacity="0.12" d="M234.896 67.8301V163.856C234.896 171.939 228.365 178.499 220.253 178.499H67.9707C59.9466 178.499 53.4453 172.056 53.3281 164.061C64.1051 166.931 75.4091 168.425 87.0939 168.425C154.45 168.425 210.062 118.23 218.584 53.1875H220.253C228.366 53.1875 234.896 59.7181 234.896 67.8301Z" fill="#1E2E49"/>
<path d="M221.578 25.5723H89.2205C87.7482 25.5723 86.5545 26.7659 86.5545 28.2383C86.5545 29.7106 87.7482 30.9043 89.2205 30.9043H221.578C225.988 30.9043 229.576 34.492 229.576 38.9023V52.478H58.2402V38.9023C58.2402 34.492 61.828 30.9043 66.2383 30.9043H90.7791C92.2515 30.9043 93.4451 29.7106 93.4451 28.2383C93.4451 26.7659 92.2515 25.5723 90.7791 25.5723H66.2383C58.8879 25.5723 52.9082 31.552 52.9082 38.9023V172.663C52.9082 178.053 57.2933 182.438 62.6836 182.438H205.005C206.477 182.438 207.671 181.244 207.671 179.772C207.671 178.3 206.477 177.106 205.005 177.106H62.6836C60.2333 177.106 58.2402 175.113 58.2402 172.663V57.8101H229.576V172.663C229.576 175.113 227.583 177.106 225.133 177.106H202.802C201.33 177.106 200.136 178.3 200.136 179.772C200.136 181.245 201.33 182.438 202.802 182.438H225.133C230.523 182.438 234.908 178.053 234.908 172.663V38.9023C234.908 31.5523 228.929 25.5723 221.578 25.5723Z" fill="#1E2E49"/>
<path d="M186.045 44.3574C187.517 44.3574 188.711 43.1638 188.711 41.6914C188.711 40.2191 187.517 39.0254 186.045 39.0254H182.822C181.35 39.0254 180.156 40.2191 180.156 41.6914C180.156 43.1638 181.35 44.3574 182.822 44.3574H186.045Z" fill="#1E2E49"/>
<path d="M200.222 44.3574C201.695 44.3574 202.888 43.1638 202.888 41.6914C202.888 40.2191 201.695 39.0254 200.222 39.0254H197C195.528 39.0254 194.334 40.2191 194.334 41.6914C194.334 43.1638 195.528 44.3574 197 44.3574H200.222Z" fill="#1E2E49"/>
<path d="M214.4 44.3574C215.872 44.3574 217.066 43.1638 217.066 41.6914C217.066 40.2191 215.872 39.0254 214.4 39.0254H211.178C209.705 39.0254 208.512 40.2191 208.512 41.6914C208.512 43.1638 209.705 44.3574 211.178 44.3574H214.4Z" fill="#1E2E49"/>
</g>
<defs>
<clipPath id="clip0_2430_1960">
<rect width="182" height="182" fill="white" transform="translate(52.9082 13.0059)"/>
</clipPath>
</defs>
</svg>
