<svg width="61" height="61" viewBox="0 0 61 61" fill="none" xmlns="http://www.w3.org/2000/svg">
<rect x="0.844727" y="0.730469" width="60" height="60" rx="14" fill="#2E3347"/>
<path d="M32.1784 18.7316C32.0511 18.7305 31.9081 18.7305 31.7447 18.7305H25.7786C24.2852 18.7305 23.5379 18.7305 22.9674 19.0211C22.4657 19.2768 22.058 19.6844 21.8024 20.1862C21.5117 20.7566 21.5117 21.5039 21.5117 22.9974V38.4641C21.5117 39.9575 21.5117 40.7039 21.8024 41.2743C22.058 41.7761 22.4657 42.1844 22.9674 42.4401C23.5373 42.7305 24.2837 42.7305 25.7743 42.7305L35.9158 42.7305C37.4064 42.7305 38.1517 42.7305 38.7216 42.4401C39.2233 42.1844 39.6324 41.7761 39.888 41.2743C40.1784 40.7044 40.1784 39.9591 40.1784 38.4686V27.1647C40.1784 27.0011 40.1784 26.8579 40.1771 26.7305M32.1784 18.7316C32.5592 18.7351 32.8002 18.7489 33.0302 18.8041C33.3023 18.8695 33.5622 18.9775 33.8008 19.1237C34.0698 19.2886 34.3008 19.5196 34.7617 19.9805L38.929 24.1478C39.3902 24.609 39.6195 24.8389 39.7845 25.1081C39.9307 25.3467 40.0388 25.6068 40.1042 25.8789C40.1594 26.1088 40.1735 26.3498 40.1771 26.7305M32.1784 18.7316V22.4638C32.1784 23.9573 32.1784 24.7035 32.469 25.2739C32.7247 25.7757 33.1323 26.1844 33.6341 26.4401C34.204 26.7305 34.9504 26.7305 36.4409 26.7305H40.1771M40.1771 26.7305H40.1786" stroke="white" stroke-width="2" stroke-linecap="round" stroke-linejoin="round"/>
</svg>
