<svg width="61" height="61" viewBox="0 0 61 61" fill="none" xmlns="http://www.w3.org/2000/svg">
<rect x="0.634766" y="0.730469" width="60" height="60" rx="14" fill="#2E3347"/>
<path d="M19.9688 25.3965H41.3021M19.9688 25.3965V37.1301C19.9688 38.6236 19.9688 39.3699 20.2594 39.9403C20.5151 40.4421 20.9227 40.8505 21.4245 41.1061C21.9944 41.3965 22.7407 41.3965 24.2313 41.3965H37.0395C38.5301 41.3965 39.2754 41.3965 39.8453 41.1061C40.347 40.8505 40.7561 40.4421 41.0117 39.9403C41.3021 39.3705 41.3021 38.6251 41.3021 37.1346V25.3965M19.9688 25.3965V24.3301C19.9688 22.8366 19.9688 22.0893 20.2594 21.5189C20.5151 21.0171 20.9227 20.6095 21.4245 20.3538C21.9949 20.0632 22.7422 20.0632 24.2357 20.0632H25.3021M41.3021 25.3965V24.3257C41.3021 22.8351 41.3021 22.0888 41.0117 21.5189C40.7561 21.0171 40.347 20.6095 39.8453 20.3538C39.2748 20.0632 38.5291 20.0632 37.0357 20.0632H35.9687M35.9687 17.3965V20.0632M35.9687 20.0632H25.3021M25.3021 17.3965V20.0632" stroke="white" stroke-width="2" stroke-linecap="round" stroke-linejoin="round"/>
</svg>
