<svg width="19" height="19" viewBox="0 0 19 19" fill="none" xmlns="http://www.w3.org/2000/svg">
<path d="M6.83789 7.3418V5.24194C6.83789 4.40186 6.83789 3.98151 7.00138 3.66064C7.14519 3.3784 7.3745 3.1491 7.65674 3.00529C7.97761 2.8418 8.39796 2.8418 9.23804 2.8418H13.438C14.2781 2.8418 14.6979 2.8418 15.0188 3.00529C15.301 3.1491 15.5308 3.3784 15.6746 3.66064C15.8381 3.98151 15.8381 4.40155 15.8381 5.24163V9.44165C15.8381 10.2817 15.8381 10.7018 15.6746 11.0226C15.5307 11.3049 15.3008 11.5347 15.0186 11.6785C14.698 11.8418 14.2786 11.8418 13.4402 11.8418H11.3379M6.83789 7.3418H4.73804C3.89796 7.3418 3.47761 7.3418 3.15674 7.50529C2.8745 7.6491 2.64519 7.8784 2.50138 8.16064C2.33789 8.48151 2.33789 8.90186 2.33789 9.74194V13.9419C2.33789 14.782 2.33789 15.2018 2.50138 15.5227C2.64519 15.805 2.8745 16.0347 3.15674 16.1785C3.47729 16.3418 3.89714 16.3418 4.73557 16.3418H8.94055C9.77899 16.3418 10.1982 16.3418 10.5188 16.1785C10.801 16.0347 11.0308 15.8047 11.1746 15.5225C11.3379 15.2019 11.3379 14.7826 11.3379 13.9441V11.8418M6.83789 7.3418H8.93804C9.77812 7.3418 10.1979 7.3418 10.5188 7.50529C10.801 7.6491 11.0308 7.8784 11.1746 8.16064C11.3379 8.4812 11.3379 8.90105 11.3379 9.7395L11.3379 11.8418" stroke="white" stroke-width="1.5" stroke-linecap="round" stroke-linejoin="round"/>
</svg>
