<svg width="51" height="51" viewBox="0 0 51 51" fill="none" xmlns="http://www.w3.org/2000/svg">
<rect x="0.53125" y="0.347656" width="50" height="50" rx="13" fill="url(#paint0_linear_3336_1413)"/>
<path d="M16.6452 21.4259C16.4335 21.2404 16.1304 21.196 15.8738 21.3119C15.6163 21.4285 15.4512 21.6849 15.4512 21.9676V32.0476C15.4512 32.3303 15.6163 32.5866 15.8738 32.7033C15.9686 32.7465 16.0706 32.7676 16.1712 32.7676C16.3421 32.7676 16.5115 32.7064 16.6452 32.5893L22.4052 27.5493C22.5619 27.4127 22.6512 27.2154 22.6512 27.0076C22.6512 26.7997 22.5619 26.6025 22.4052 26.4659L16.6452 21.4259ZM16.8912 30.4609V23.5542L20.8377 27.0076L16.8912 30.4609ZM35.1885 21.3119C34.932 21.1948 34.6289 21.2399 34.4172 21.4259L28.6572 26.4659C28.5005 26.6025 28.4112 26.7997 28.4112 27.0076C28.4112 27.2154 28.5005 27.4127 28.6572 27.5493L34.4172 32.5893C34.5509 32.7064 34.7203 32.7676 34.8912 32.7676C34.9917 32.7676 35.0937 32.7465 35.1885 32.7033C35.4461 32.5866 35.6112 32.3303 35.6112 32.0476V21.9676C35.6112 21.6849 35.4461 21.4285 35.1885 21.3119ZM34.1712 30.4609L30.2246 27.0076L34.1712 23.5542V30.4609ZM26.2512 19.8076V21.2476C26.2512 21.6453 25.9291 21.9676 25.5312 21.9676C25.1333 21.9676 24.8112 21.6453 24.8112 21.2476V19.8076C24.8112 19.4099 25.1333 19.0876 25.5312 19.0876C25.9291 19.0876 26.2512 19.4099 26.2512 19.8076ZM26.2512 24.1276V25.5676C26.2512 25.9653 25.9291 26.2876 25.5312 26.2876C25.1333 26.2876 24.8112 25.9653 24.8112 25.5676V24.1276C24.8112 23.7299 25.1333 23.4076 25.5312 23.4076C25.9291 23.4076 26.2512 23.7299 26.2512 24.1276ZM26.2512 28.4476V29.8876C26.2512 30.2853 25.9291 30.6076 25.5312 30.6076C25.1333 30.6076 24.8112 30.2853 24.8112 29.8876V28.4476C24.8112 28.0499 25.1333 27.7276 25.5312 27.7276C25.9291 27.7276 26.2512 28.0499 26.2512 28.4476ZM26.2512 32.7676V34.2076C26.2512 34.6053 25.9291 34.9276 25.5312 34.9276C25.1333 34.9276 24.8112 34.6053 24.8112 34.2076V32.7676C24.8112 32.3699 25.1333 32.0476 25.5312 32.0476C25.9291 32.0476 26.2512 32.3699 26.2512 32.7676ZM17.6112 19.0876V16.2076C17.6112 15.8099 17.9333 15.4876 18.3312 15.4876C18.7291 15.4876 19.0512 15.8099 19.0512 16.2076V17.307C20.0071 16.3821 22.1556 14.7676 25.5312 14.7676C28.9068 14.7676 31.0553 16.3821 32.0112 17.307V16.2076C32.0112 15.8099 32.3333 15.4876 32.7312 15.4876C33.1291 15.4876 33.4512 15.8099 33.4512 16.2076V19.0876C33.4512 19.4853 33.1291 19.8076 32.7312 19.8076H29.8512C29.4533 19.8076 29.1312 19.4853 29.1312 19.0876C29.1312 18.6899 29.4533 18.3676 29.8512 18.3676H31.0418C30.2911 17.6289 28.4669 16.2076 25.5312 16.2076C22.5967 16.2076 20.7727 17.6277 20.021 18.3676H21.2112C21.6091 18.3676 21.9312 18.6899 21.9312 19.0876C21.9312 19.4853 21.6091 19.8076 21.2112 19.8076H18.3312C17.9333 19.8076 17.6112 19.4853 17.6112 19.0876Z" fill="white"/>
<defs>
<linearGradient id="paint0_linear_3336_1413" x1="25.5312" y1="0.347656" x2="25.5313" y2="50.3477" gradientUnits="userSpaceOnUse">
<stop stop-color="#8F73FF"/>
<stop offset="1" stop-color="#5B3DD5"/>
</linearGradient>
</defs>
</svg>
