<svg width="51" height="51" viewBox="0 0 51 51" fill="none" xmlns="http://www.w3.org/2000/svg">
<rect x="0.53125" y="0.347656" width="50" height="50" rx="13" fill="url(#paint0_linear_3336_1417)"/>
<path d="M31.7195 15.2852H19.3445C19.2087 15.2859 19.0762 15.3286 18.9637 15.4079C18.8511 15.4872 18.7635 15.5995 18.712 15.7308C18.6593 15.8617 18.6449 16.0059 18.6706 16.1454C18.6963 16.2848 18.7609 16.4131 18.8563 16.5142L25.0438 22.983C25.1077 23.0503 25.1838 23.1038 25.2676 23.1403C25.3513 23.1768 25.4412 23.1956 25.532 23.1956C25.6227 23.1956 25.7126 23.1768 25.7964 23.1403C25.8801 23.1038 25.9562 23.0503 26.0201 22.983L32.2076 16.5142C32.303 16.4131 32.3676 16.2848 32.3933 16.1454C32.419 16.0059 32.4046 15.8617 32.352 15.7308C32.3004 15.5995 32.2128 15.4872 32.1002 15.4079C31.9877 15.3286 31.8552 15.2859 31.7195 15.2852ZM25.532 21.4592L21.0013 16.7227H30.0626L25.532 21.4592Z" fill="white"/>
<path d="M26.0201 27.7126C25.9562 27.6452 25.8801 27.5918 25.7964 27.5553C25.7126 27.5188 25.6227 27.5 25.532 27.5C25.4412 27.5 25.3513 27.5188 25.2676 27.5553C25.1838 27.5918 25.1077 27.6452 25.0438 27.7126L18.8563 34.1814C18.7609 34.2824 18.6963 34.4108 18.6706 34.5502C18.6449 34.6896 18.6593 34.8339 18.712 34.9648C18.7635 35.096 18.8511 35.2084 18.9637 35.2877C19.0762 35.367 19.2087 35.4097 19.3445 35.4104H31.7195C31.8552 35.4097 31.9877 35.367 32.1002 35.2877C32.2128 35.2084 32.3004 35.096 32.352 34.9648C32.4046 34.8339 32.419 34.6896 32.3933 34.5502C32.3676 34.4108 32.303 34.2824 32.2076 34.1814L26.0201 27.7126ZM21.0013 33.9729L25.532 29.2364L30.0626 33.9729H21.0013Z" fill="white"/>
<path d="M34.4688 24.6289H33.0938C32.9114 24.6289 32.7365 24.7046 32.6076 24.8394C32.4787 24.9742 32.4062 25.157 32.4062 25.3477C32.4062 25.5383 32.4787 25.7211 32.6076 25.8559C32.7365 25.9907 32.9114 26.0664 33.0938 26.0664H34.4688C34.6511 26.0664 34.826 25.9907 34.9549 25.8559C35.0838 25.7211 35.1562 25.5383 35.1562 25.3477C35.1562 25.157 35.0838 24.9742 34.9549 24.8394C34.826 24.7046 34.6511 24.6289 34.4688 24.6289Z" fill="white"/>
<path d="M30.3438 26.0664C30.5261 26.0664 30.701 25.9907 30.8299 25.8559C30.9588 25.7211 31.0312 25.5383 31.0312 25.3477C31.0312 25.157 30.9588 24.9742 30.8299 24.8394C30.701 24.7046 30.5261 24.6289 30.3438 24.6289H28.9688C28.7864 24.6289 28.6115 24.7046 28.4826 24.8394C28.3537 24.9742 28.2812 25.157 28.2812 25.3477C28.2812 25.5383 28.3537 25.7211 28.4826 25.8559C28.6115 25.9907 28.7864 26.0664 28.9688 26.0664H30.3438Z" fill="white"/>
<path d="M26.2188 26.0664C26.4011 26.0664 26.576 25.9907 26.7049 25.8559C26.8338 25.7211 26.9062 25.5383 26.9062 25.3477C26.9062 25.157 26.8338 24.9742 26.7049 24.8394C26.576 24.7046 26.4011 24.6289 26.2188 24.6289H24.8438C24.6614 24.6289 24.4865 24.7046 24.3576 24.8394C24.2287 24.9742 24.1562 25.157 24.1562 25.3477C24.1562 25.5383 24.2287 25.7211 24.3576 25.8559C24.4865 25.9907 24.6614 26.0664 24.8438 26.0664H26.2188Z" fill="white"/>
<path d="M22.0938 26.0664C22.2761 26.0664 22.451 25.9907 22.5799 25.8559C22.7088 25.7211 22.7812 25.5383 22.7812 25.3477C22.7812 25.157 22.7088 24.9742 22.5799 24.8394C22.451 24.7046 22.2761 24.6289 22.0938 24.6289H20.7188C20.5364 24.6289 20.3615 24.7046 20.2326 24.8394C20.1037 24.9742 20.0312 25.157 20.0312 25.3477C20.0312 25.5383 20.1037 25.7211 20.2326 25.8559C20.3615 25.9907 20.5364 26.0664 20.7188 26.0664H22.0938Z" fill="white"/>
<path d="M17.9688 24.6289H16.5938C16.4114 24.6289 16.2365 24.7046 16.1076 24.8394C15.9787 24.9742 15.9062 25.157 15.9062 25.3477C15.9062 25.5383 15.9787 25.7211 16.1076 25.8559C16.2365 25.9907 16.4114 26.0664 16.5938 26.0664H17.9688C18.1511 26.0664 18.326 25.9907 18.4549 25.8559C18.5838 25.7211 18.6562 25.5383 18.6562 25.3477C18.6562 25.157 18.5838 24.9742 18.4549 24.8394C18.326 24.7046 18.1511 24.6289 17.9688 24.6289Z" fill="white"/>
<defs>
<linearGradient id="paint0_linear_3336_1417" x1="25.5312" y1="0.347656" x2="25.5313" y2="50.3477" gradientUnits="userSpaceOnUse">
<stop stop-color="#8F73FF"/>
<stop offset="1" stop-color="#5B3DD5"/>
</linearGradient>
</defs>
</svg>
