<svg width="51" height="51" viewBox="0 0 51 51" fill="none" xmlns="http://www.w3.org/2000/svg">
<path d="M0.53125 13.3574C0.53125 6.17772 6.35155 0.357422 13.5312 0.357422H37.5313C44.711 0.357422 50.5312 6.17772 50.5312 13.3574V37.3574C50.5312 44.5371 44.711 50.3574 37.5313 50.3574H13.5312C6.35155 50.3574 0.53125 44.5371 0.53125 37.3574V13.3574Z" fill="#30334F"/>
<path d="M31.7195 15.293H19.3445C19.2087 15.2937 19.0762 15.3364 18.9637 15.4157C18.8511 15.495 18.7635 15.6073 18.712 15.7386C18.6593 15.8695 18.6449 16.0137 18.6706 16.1532C18.6963 16.2926 18.7609 16.421 18.8563 16.522L25.0438 22.9908C25.1077 23.0581 25.1838 23.1116 25.2676 23.1481C25.3513 23.1846 25.4412 23.2034 25.532 23.2034C25.6227 23.2034 25.7126 23.1846 25.7964 23.1481C25.8801 23.1116 25.9562 23.0581 26.0201 22.9908L32.2076 16.522C32.303 16.421 32.3676 16.2926 32.3933 16.1532C32.419 16.0137 32.4046 15.8695 32.352 15.7386C32.3004 15.6073 32.2128 15.495 32.1002 15.4157C31.9877 15.3364 31.8552 15.2937 31.7195 15.293ZM25.532 21.467L21.0013 16.7305H30.0626L25.532 21.467Z" fill="#727998"/>
<path d="M26.0201 27.7204C25.9562 27.6531 25.8801 27.5996 25.7964 27.5631C25.7126 27.5266 25.6227 27.5078 25.532 27.5078C25.4412 27.5078 25.3513 27.5266 25.2676 27.5631C25.1838 27.5996 25.1077 27.6531 25.0438 27.7204L18.8563 34.1892C18.7609 34.2902 18.6963 34.4186 18.6706 34.558C18.6449 34.6975 18.6593 34.8417 18.712 34.9726C18.7635 35.1039 18.8511 35.2162 18.9637 35.2955C19.0762 35.3748 19.2087 35.4175 19.3445 35.4182H31.7195C31.8552 35.4175 31.9877 35.3748 32.1002 35.2955C32.2128 35.2162 32.3004 35.1039 32.352 34.9726C32.4046 34.8417 32.419 34.6975 32.3933 34.558C32.3676 34.4186 32.303 34.2902 32.2076 34.1892L26.0201 27.7204ZM21.0013 33.9807L25.532 29.2442L30.0626 33.9807H21.0013Z" fill="#727998"/>
<path d="M34.4688 24.6367H33.0938C32.9114 24.6367 32.7365 24.7124 32.6076 24.8472C32.4787 24.982 32.4062 25.1648 32.4062 25.3555C32.4062 25.5461 32.4787 25.7289 32.6076 25.8637C32.7365 25.9985 32.9114 26.0742 33.0938 26.0742H34.4688C34.6511 26.0742 34.826 25.9985 34.9549 25.8637C35.0838 25.7289 35.1562 25.5461 35.1562 25.3555C35.1562 25.1648 35.0838 24.982 34.9549 24.8472C34.826 24.7124 34.6511 24.6367 34.4688 24.6367Z" fill="#727998"/>
<path d="M30.3438 26.0742C30.5261 26.0742 30.701 25.9985 30.8299 25.8637C30.9588 25.7289 31.0312 25.5461 31.0312 25.3555C31.0312 25.1648 30.9588 24.982 30.8299 24.8472C30.701 24.7124 30.5261 24.6367 30.3438 24.6367H28.9688C28.7864 24.6367 28.6115 24.7124 28.4826 24.8472C28.3537 24.982 28.2812 25.1648 28.2812 25.3555C28.2812 25.5461 28.3537 25.7289 28.4826 25.8637C28.6115 25.9985 28.7864 26.0742 28.9688 26.0742H30.3438Z" fill="#727998"/>
<path d="M26.2188 26.0742C26.4011 26.0742 26.576 25.9985 26.7049 25.8637C26.8338 25.7289 26.9062 25.5461 26.9062 25.3555C26.9062 25.1648 26.8338 24.982 26.7049 24.8472C26.576 24.7124 26.4011 24.6367 26.2188 24.6367H24.8438C24.6614 24.6367 24.4865 24.7124 24.3576 24.8472C24.2287 24.982 24.1562 25.1648 24.1562 25.3555C24.1562 25.5461 24.2287 25.7289 24.3576 25.8637C24.4865 25.9985 24.6614 26.0742 24.8438 26.0742H26.2188Z" fill="#727998"/>
<path d="M22.0938 26.0742C22.2761 26.0742 22.451 25.9985 22.5799 25.8637C22.7088 25.7289 22.7812 25.5461 22.7812 25.3555C22.7812 25.1648 22.7088 24.982 22.5799 24.8472C22.451 24.7124 22.2761 24.6367 22.0938 24.6367H20.7188C20.5364 24.6367 20.3615 24.7124 20.2326 24.8472C20.1037 24.982 20.0312 25.1648 20.0312 25.3555C20.0312 25.5461 20.1037 25.7289 20.2326 25.8637C20.3615 25.9985 20.5364 26.0742 20.7188 26.0742H22.0938Z" fill="#727998"/>
<path d="M17.9688 24.6367H16.5938C16.4114 24.6367 16.2365 24.7124 16.1076 24.8472C15.9787 24.982 15.9062 25.1648 15.9062 25.3555C15.9062 25.5461 15.9787 25.7289 16.1076 25.8637C16.2365 25.9985 16.4114 26.0742 16.5938 26.0742H17.9688C18.1511 26.0742 18.326 25.9985 18.4549 25.8637C18.5838 25.7289 18.6562 25.5461 18.6562 25.3555C18.6562 25.1648 18.5838 24.982 18.4549 24.8472C18.326 24.7124 18.1511 24.6367 17.9688 24.6367Z" fill="#727998"/>
</svg>
