<svg width="51" height="51" viewBox="0 0 51 51" fill="none" xmlns="http://www.w3.org/2000/svg">
<path d="M0.53125 13.3574C0.53125 6.17772 6.35155 0.357422 13.5312 0.357422H37.5313C44.711 0.357422 50.5312 6.17772 50.5312 13.3574V37.3574C50.5312 44.5371 44.711 50.3574 37.5313 50.3574H13.5312C6.35155 50.3574 0.53125 44.5371 0.53125 37.3574V13.3574Z" fill="#30334F"/>
<path d="M16.6452 21.4376C16.4335 21.2521 16.1304 21.2077 15.8738 21.3236C15.6163 21.4403 15.4512 21.6966 15.4512 21.9793V32.0593C15.4512 32.342 15.6163 32.5983 15.8738 32.715C15.9686 32.7582 16.0706 32.7793 16.1712 32.7793C16.3421 32.7793 16.5115 32.7181 16.6452 32.601L22.4052 27.561C22.5619 27.4244 22.6512 27.2271 22.6512 27.0193C22.6512 26.8115 22.5619 26.6142 22.4052 26.4776L16.6452 21.4376ZM16.8912 30.4727V23.5659L20.8377 27.0193L16.8912 30.4727ZM35.1885 21.3236C34.932 21.2065 34.6289 21.2516 34.4172 21.4376L28.6572 26.4776C28.5005 26.6142 28.4112 26.8115 28.4112 27.0193C28.4112 27.2271 28.5005 27.4244 28.6572 27.561L34.4172 32.601C34.5509 32.7181 34.7203 32.7793 34.8912 32.7793C34.9917 32.7793 35.0937 32.7582 35.1885 32.715C35.4461 32.5983 35.6112 32.342 35.6112 32.0593V21.9793C35.6112 21.6966 35.4461 21.4403 35.1885 21.3236ZM34.1712 30.4727L30.2246 27.0193L34.1712 23.5659V30.4727ZM26.2512 19.8193V21.2593C26.2512 21.657 25.9291 21.9793 25.5312 21.9793C25.1333 21.9793 24.8112 21.657 24.8112 21.2593V19.8193C24.8112 19.4216 25.1333 19.0993 25.5312 19.0993C25.9291 19.0993 26.2512 19.4216 26.2512 19.8193ZM26.2512 24.1393V25.5793C26.2512 25.977 25.9291 26.2993 25.5312 26.2993C25.1333 26.2993 24.8112 25.977 24.8112 25.5793V24.1393C24.8112 23.7416 25.1333 23.4193 25.5312 23.4193C25.9291 23.4193 26.2512 23.7416 26.2512 24.1393ZM26.2512 28.4593V29.8993C26.2512 30.297 25.9291 30.6193 25.5312 30.6193C25.1333 30.6193 24.8112 30.297 24.8112 29.8993V28.4593C24.8112 28.0616 25.1333 27.7393 25.5312 27.7393C25.9291 27.7393 26.2512 28.0616 26.2512 28.4593ZM26.2512 32.7793V34.2193C26.2512 34.617 25.9291 34.9393 25.5312 34.9393C25.1333 34.9393 24.8112 34.617 24.8112 34.2193V32.7793C24.8112 32.3816 25.1333 32.0593 25.5312 32.0593C25.9291 32.0593 26.2512 32.3816 26.2512 32.7793ZM17.6112 19.0993V16.2193C17.6112 15.8216 17.9333 15.4993 18.3312 15.4993C18.7291 15.4993 19.0512 15.8216 19.0512 16.2193V17.3187C20.0071 16.3938 22.1556 14.7793 25.5312 14.7793C28.9068 14.7793 31.0553 16.3938 32.0112 17.3187V16.2193C32.0112 15.8216 32.3333 15.4993 32.7312 15.4993C33.1291 15.4993 33.4512 15.8216 33.4512 16.2193V19.0993C33.4512 19.497 33.1291 19.8193 32.7312 19.8193H29.8512C29.4533 19.8193 29.1312 19.497 29.1312 19.0993C29.1312 18.7016 29.4533 18.3793 29.8512 18.3793H31.0418C30.2911 17.6406 28.4669 16.2193 25.5312 16.2193C22.5967 16.2193 20.7727 17.6394 20.021 18.3793H21.2112C21.6091 18.3793 21.9312 18.7016 21.9312 19.0993C21.9312 19.497 21.6091 19.8193 21.2112 19.8193H18.3312C17.9333 19.8193 17.6112 19.497 17.6112 19.0993Z" fill="#8991B1"/>
</svg>
