<svg width="51" height="51" viewBox="0 0 51 51" fill="none" xmlns="http://www.w3.org/2000/svg">
<rect x="0.654297" y="0.297363" width="50" height="50" rx="14" fill="#D05353"/>
<g clip-path="url(#clip0_1669_5039)">
<path d="M26.691 25.5825L31.7529 20.5204C32.0824 20.1911 32.0824 19.6587 31.7529 19.3295C31.4237 19.0002 30.8913 19.0002 30.562 19.3295L25.4999 24.3916L20.438 19.3295C20.1086 19.0002 19.5763 19.0002 19.2471 19.3295C18.9176 19.6587 18.9176 20.1911 19.2471 20.5204L24.309 25.5825L19.2471 30.6446C18.9176 30.9739 18.9176 31.5062 19.2471 31.8355C19.4112 31.9997 19.6269 32.0823 19.8425 32.0823C20.0581 32.0823 20.2737 31.9997 20.438 31.8355L25.4999 26.7734L30.562 31.8355C30.7263 31.9997 30.9419 32.0823 31.1575 32.0823C31.3731 32.0823 31.5887 31.9997 31.7529 31.8355C32.0824 31.5062 32.0824 30.9739 31.7529 30.6446L26.691 25.5825Z" fill="white"/>
</g>
<defs>
<clipPath id="clip0_1669_5039">
<rect width="13" height="13" fill="white" transform="translate(19 19.0718)"/>
</clipPath>
</defs>
</svg>
