<svg width="25" height="27" viewBox="0 0 25 27" fill="none" xmlns="http://www.w3.org/2000/svg">
<g clip-path="url(#clip0_1790_8320)">
<path d="M8.61514 12.7053C8.74767 12.7055 8.87489 12.6528 8.96861 12.5591C9.06233 12.4653 9.11505 12.3381 9.11487 12.2056C9.11487 11.9296 9.33874 11.7057 9.61477 11.7057C9.89081 11.7057 10.1147 11.9296 10.1147 12.2056C10.1147 12.4816 10.3384 12.7053 10.6144 12.7053C10.8906 12.7053 11.1143 12.4816 11.1143 12.2056C11.1143 11.3773 10.4429 10.7061 9.61477 10.7061C8.78666 10.7061 8.11523 11.3773 8.11523 12.2056C8.11523 12.3381 8.16777 12.4653 8.26149 12.5591C8.3554 12.6528 8.48243 12.7055 8.61514 12.7053Z" fill="#8991B1"/>
<path d="M15.3896 16.007C13.5228 16.9402 10.7059 16.9402 8.83878 16.007C8.59185 15.8835 8.29165 15.9836 8.16809 16.2305C8.04471 16.4775 8.14466 16.7779 8.39159 16.9012C9.55505 17.45 10.828 17.7264 12.1141 17.7096C13.4002 17.7264 14.6733 17.4498 15.8366 16.9012C16.0835 16.7779 16.1836 16.4775 16.0603 16.2305C15.9367 15.9836 15.6365 15.8835 15.3896 16.007Z" fill="#8991B1"/>
<path d="M20.6116 11.706H20.1117V10.2064C20.1104 8.8268 18.9921 7.70855 17.6125 7.70727H16.113V6.61538C16.8014 6.37211 17.2145 5.66791 17.091 4.94816C16.9674 4.22823 16.3434 3.70215 15.613 3.70215C14.8827 3.70215 14.2587 4.22823 14.1351 4.94816C14.0115 5.66791 14.4247 6.37211 15.1131 6.61538V7.70727H9.11498V6.61538C9.80361 6.37211 10.2166 5.66791 10.0932 4.94816C9.96964 4.22823 9.34562 3.70215 8.61525 3.70215C7.88489 3.70215 7.26069 4.22823 7.13731 4.94816C7.01376 5.66791 7.42671 6.37211 8.11535 6.61538V7.70727H6.61581C5.23616 7.70873 4.1181 8.8268 4.11663 10.2064V11.706H3.61673C2.78898 11.7069 2.1181 12.3778 2.11719 13.2055V15.205C2.1181 16.0327 2.78898 16.7036 3.61673 16.7045H4.11663V18.7038C4.1181 20.0836 5.23616 21.2017 6.61581 21.2031H9.11498V23.2024C9.11516 23.3842 9.21382 23.5515 9.37271 23.6395C9.5316 23.7276 9.72581 23.7224 9.87976 23.6261L13.7571 21.2031H17.6125C18.9921 21.2018 20.1104 20.0836 20.1117 18.7038V16.7045H20.6116C21.4393 16.7036 22.1102 16.0327 22.1111 15.205V13.2055C22.1102 12.3778 21.4393 11.7069 20.6116 11.706ZM15.613 4.70819C15.8891 4.70819 16.113 4.93187 16.113 5.20791C16.113 5.48413 15.8891 5.70782 15.613 5.70782C15.337 5.70782 15.1131 5.48413 15.1131 5.20791C15.1137 4.93224 15.3372 4.70874 15.613 4.70819ZM8.61525 4.70819C8.89129 4.70819 9.11498 4.93187 9.11498 5.20791C9.11498 5.48413 8.89129 5.70782 8.61525 5.70782C8.33922 5.70782 8.11535 5.48413 8.11535 5.20791C8.11571 4.93206 8.33922 4.70855 8.61525 4.70819ZM3.61673 15.7047C3.34087 15.7045 3.11719 15.4808 3.11682 15.205V13.2055C3.11719 12.9297 3.34087 12.706 3.61673 12.7056H4.11663V15.7047H3.61673ZM19.112 18.7038C19.1111 19.5317 18.4402 20.2026 17.6125 20.2033H13.6136C13.5201 20.2033 13.4284 20.2297 13.3491 20.2795L10.1148 22.3003V20.7032C10.1148 20.5707 10.0623 20.4435 9.96835 20.3497C9.87463 20.256 9.74741 20.2033 9.61489 20.2033H6.61581C5.78806 20.2026 5.11718 19.5317 5.11627 18.7038V10.2064C5.11718 9.37869 5.78806 8.70781 6.61581 8.7069H17.6125C18.4402 8.70781 19.1111 9.37869 19.112 10.2064V18.7038ZM21.1113 15.205C21.1109 15.4808 20.8874 15.7043 20.6116 15.7047H20.1117V12.7056H20.6116C20.8874 12.7062 21.1109 12.9297 21.1113 13.2055V15.205Z" fill="#8991B1"/>
<path d="M14.6128 10.7061C13.7851 10.707 13.1142 11.3778 13.1133 12.2056C13.1133 12.4816 13.337 12.7053 13.613 12.7053C13.8892 12.7053 14.1129 12.4816 14.1129 12.2056C14.1129 11.9296 14.3368 11.7057 14.6128 11.7057C14.8889 11.7057 15.1125 11.9296 15.1125 12.2056C15.1125 12.4816 15.3364 12.7053 15.6125 12.7053C15.8885 12.7053 16.1124 12.4816 16.1124 12.2056C16.1114 11.3778 15.4406 10.707 14.6128 10.7061Z" fill="#8991B1"/>
</g>
<defs>
<clipPath id="clip0_1790_8320">
<rect width="20" height="20" fill="white" transform="translate(2.08008 3.70215)"/>
</clipPath>
</defs>
</svg>
