<svg width="25" height="25" viewBox="0 0 25 25" fill="none" xmlns="http://www.w3.org/2000/svg">
<g clip-path="url(#clip0_1790_8298)">
<path d="M5.9784 13.8354C6.05604 13.8353 6.13221 13.8142 6.19881 13.7743C6.26542 13.7344 6.31997 13.6772 6.35668 13.6088C6.39338 13.5404 6.41086 13.4633 6.40727 13.3858C6.40367 13.3082 6.37913 13.2331 6.33625 13.1684C5.98944 12.6432 5.76224 12.0482 5.67073 11.4255C5.57921 10.8028 5.6256 10.1676 5.80663 9.5648C5.98765 8.96201 6.29888 8.40635 6.71833 7.93711C7.13777 7.46786 7.65517 7.09648 8.23396 6.84924C8.81274 6.60199 9.43878 6.48491 10.0678 6.50628C10.6968 6.52764 11.3135 6.68693 11.8741 6.97288C12.4348 7.25883 12.9258 7.66446 13.3125 8.16108C13.6991 8.65771 13.9719 9.23321 14.1116 9.84689C14.1368 9.95805 14.205 10.0547 14.3014 10.1155C14.3978 10.1763 14.5144 10.1964 14.6255 10.1712C14.7367 10.1461 14.8333 10.0778 14.8941 9.98143C14.9549 9.88506 14.975 9.76847 14.9498 9.65731C14.7824 8.92072 14.4552 8.22991 13.9913 7.63375C13.5274 7.03758 12.9381 6.55063 12.2653 6.20732C11.5924 5.86402 10.8523 5.67274 10.0974 5.64703C9.34243 5.62132 8.59106 5.7618 7.89639 6.05853C7.20173 6.35526 6.58074 6.801 6.07736 7.36422C5.57398 7.92744 5.20049 8.59438 4.98332 9.31787C4.76615 10.0414 4.71059 10.8037 4.82058 11.5511C4.93057 12.2984 5.20342 13.0125 5.61983 13.6427C5.65898 13.702 5.71224 13.7506 5.77482 13.7843C5.8374 13.8179 5.90736 13.8354 5.9784 13.8354Z" fill="#8991B1"/>
<path d="M9.91992 4.43512C10.0339 4.43512 10.1432 4.38984 10.2238 4.30926C10.3043 4.22868 10.3496 4.11939 10.3496 4.00543V2.38843C10.3496 2.27447 10.3043 2.16517 10.2238 2.08459C10.1432 2.00401 10.0339 1.95874 9.91992 1.95874C9.80596 1.95874 9.69667 2.00401 9.61609 2.08459C9.5355 2.16517 9.49023 2.27447 9.49023 2.38843V4.00543C9.49023 4.11939 9.5355 4.22868 9.61609 4.30926C9.69667 4.38984 9.80596 4.43512 9.91992 4.43512Z" fill="#8991B1"/>
<path d="M6.15176 5.13079C6.20874 5.22949 6.3026 5.30151 6.41268 5.331C6.52275 5.3605 6.64004 5.34506 6.73874 5.28808C6.83743 5.2311 6.90945 5.13725 6.93895 5.02717C6.96845 4.91709 6.95301 4.7998 6.89603 4.70111L6.08748 3.30076C6.0301 3.20287 5.93632 3.13166 5.82663 3.10265C5.71693 3.07365 5.60021 3.08922 5.50195 3.14595C5.40369 3.20268 5.33185 3.29598 5.30212 3.40549C5.27239 3.51499 5.28718 3.6318 5.34326 3.73044L6.15176 5.13079Z" fill="#8991B1"/>
<path d="M2.42044 6.96582L3.82075 7.77453C3.86963 7.80319 3.9237 7.8219 3.97985 7.82958C4.03599 7.83725 4.0931 7.83375 4.14789 7.81926C4.20267 7.80478 4.25405 7.7796 4.29906 7.74518C4.34408 7.71076 4.38184 7.66777 4.41018 7.6187C4.43851 7.56962 4.45686 7.51543 4.46416 7.45923C4.47147 7.40304 4.46758 7.34596 4.45273 7.29127C4.43789 7.23658 4.41237 7.18537 4.37765 7.14058C4.34293 7.0958 4.2997 7.05832 4.25043 7.03032L2.85012 6.2216C2.80124 6.19294 2.74717 6.17424 2.69102 6.16656C2.63488 6.15888 2.57777 6.16239 2.52298 6.17687C2.4682 6.19136 2.41682 6.21653 2.37181 6.25095C2.32679 6.28538 2.28903 6.32836 2.26069 6.37744C2.23236 6.42651 2.21401 6.48071 2.20671 6.5369C2.19941 6.5931 2.20329 6.65018 2.21814 6.70487C2.23298 6.75955 2.2585 6.81077 2.29322 6.85555C2.32794 6.90034 2.37118 6.93781 2.42044 6.96582Z" fill="#8991B1"/>
<path d="M3.55645 10.7993C3.55645 10.6854 3.51118 10.5761 3.4306 10.4955C3.35002 10.4149 3.24073 10.3696 3.12677 10.3696H1.50977C1.39581 10.3696 1.28651 10.4149 1.20593 10.4955C1.12535 10.5761 1.08008 10.6854 1.08008 10.7993C1.08008 10.9133 1.12535 11.0226 1.20593 11.1032C1.28651 11.1837 1.39581 11.229 1.50977 11.229H3.12677C3.24073 11.229 3.35002 11.1837 3.4306 11.1032C3.51118 11.0226 3.55645 10.9133 3.55645 10.7993Z" fill="#8991B1"/>
<path d="M4.40774 13.9819C4.37953 13.9331 4.34196 13.8902 4.29719 13.8559C4.25242 13.8215 4.20132 13.7963 4.14682 13.7817C4.09231 13.7671 4.03546 13.7634 3.97951 13.7708C3.92356 13.7781 3.86961 13.7965 3.82075 13.8247L2.42044 14.6332C2.37118 14.6612 2.32794 14.6987 2.29322 14.7434C2.2585 14.7882 2.23298 14.8394 2.21814 14.8941C2.20329 14.9488 2.19941 15.0059 2.20671 15.0621C2.21401 15.1183 2.23236 15.1725 2.26069 15.2216C2.28903 15.2706 2.32679 15.3136 2.37181 15.348C2.41682 15.3825 2.4682 15.4076 2.52298 15.4221C2.57777 15.4366 2.63488 15.4401 2.69102 15.4324C2.74717 15.4248 2.80124 15.4061 2.85012 15.3774L4.25043 14.5689C4.29931 14.5407 4.34215 14.5032 4.3765 14.4584C4.41086 14.4136 4.43606 14.3625 4.45067 14.308C4.46528 14.2535 4.469 14.1967 4.46164 14.1407C4.45427 14.0848 4.43596 14.0308 4.40774 13.9819Z" fill="#8991B1"/>
<path d="M15.8052 7.83218C15.8805 7.83219 15.9544 7.81231 16.0196 7.77456L17.4199 6.96606C17.4692 6.93806 17.5124 6.90058 17.5472 6.8558C17.5819 6.81101 17.6074 6.7598 17.6222 6.70511C17.6371 6.65042 17.641 6.59334 17.6337 6.53715C17.6264 6.48095 17.608 6.42676 17.5797 6.37768C17.5513 6.32861 17.5136 6.28562 17.4686 6.2512C17.4236 6.21678 17.3722 6.1916 17.3174 6.17712C17.2626 6.16263 17.2055 6.15913 17.1494 6.1668C17.0932 6.17448 17.0391 6.19319 16.9903 6.22185L15.5899 7.03035C15.5079 7.07765 15.4439 7.15069 15.4077 7.23813C15.3715 7.32557 15.3652 7.42251 15.3897 7.51391C15.4142 7.60531 15.4683 7.68605 15.5434 7.7436C15.6185 7.80115 15.7105 7.83229 15.8052 7.83218Z" fill="#8991B1"/>
<path d="M13.1015 5.28806C13.2002 5.34504 13.3175 5.36048 13.4276 5.33099C13.5377 5.30149 13.6315 5.22948 13.6885 5.13079L14.497 3.73044C14.553 3.6318 14.5678 3.51499 14.5381 3.40549C14.5084 3.29598 14.4365 3.20268 14.3383 3.14595C14.24 3.08922 14.1233 3.07365 14.0136 3.10265C13.9039 3.13166 13.8101 3.20287 13.7527 3.30076L12.9443 4.70111C12.8873 4.7998 12.8719 4.91708 12.9014 5.02715C12.9309 5.13723 13.0029 5.23108 13.1015 5.28806Z" fill="#8991B1"/>
<path d="M20.4754 15.3231C20.6745 14.3774 20.5337 13.3917 20.0778 12.5395C19.6219 11.6873 18.8801 11.0232 17.9829 10.6639C17.0857 10.3047 16.0905 10.2733 15.1724 10.5754C14.2544 10.8774 13.4722 11.4935 12.9636 12.3153C12.174 11.9997 11.2922 12.0062 10.5074 12.3333C9.72252 12.6605 9.09717 13.2822 8.76552 14.0652C8.20257 13.968 7.62557 13.9888 7.07108 14.1263C6.5166 14.2637 5.99672 14.5149 5.54441 14.8639C5.0921 15.2129 4.71722 15.652 4.44354 16.1534C4.16985 16.6549 4.00333 17.2077 3.95453 17.7769C3.90573 18.3461 3.97571 18.9192 4.16004 19.46C4.34436 20.0007 4.63902 20.4972 5.02532 20.9181C5.41163 21.339 5.88115 21.675 6.40414 21.9049C6.92713 22.1347 7.49217 22.2534 8.06345 22.2535H19.5533C20.4079 22.2533 21.2334 21.9428 21.8763 21.3797C22.5192 20.8166 22.9357 20.0392 23.0484 19.192C23.1611 18.3449 22.9624 17.4856 22.4891 16.774C22.0159 16.0623 21.3003 15.5468 20.4754 15.3231ZM19.5531 21.3942H8.06328C7.59784 21.3939 7.13786 21.294 6.71418 21.1013C6.29051 20.9086 5.91293 20.6276 5.60677 20.277C5.30061 19.9264 5.07296 19.5144 4.93907 19.0687C4.80518 18.6229 4.76815 18.1537 4.83047 17.6924C4.89279 17.2312 5.05302 16.7886 5.3004 16.3943C5.54779 16.0001 5.87661 15.6633 6.26483 15.4065C6.65304 15.1498 7.09167 14.979 7.55129 14.9057C8.01091 14.8323 8.4809 14.8581 8.92975 14.9813C9.03916 15.0113 9.15602 14.9969 9.25483 14.9411C9.35363 14.8853 9.42636 14.7927 9.45714 14.6835C9.55548 14.3351 9.73166 14.0136 9.97241 13.7433C10.2132 13.4729 10.5122 13.2608 10.8469 13.1229C11.1816 12.985 11.5433 12.9249 11.9046 12.9472C12.2659 12.9695 12.6174 13.0736 12.9326 13.2516C12.9838 13.2805 13.0403 13.2987 13.0987 13.3049C13.1571 13.3111 13.2162 13.3053 13.2723 13.2878C13.3284 13.2703 13.3803 13.2415 13.4248 13.2031C13.4693 13.1647 13.5054 13.1177 13.531 13.0648C13.8911 12.3213 14.5209 11.7429 15.2922 11.4473C16.0636 11.1516 16.9187 11.161 17.6834 11.4735C18.4481 11.786 19.0651 12.3781 19.4087 13.1293C19.7524 13.8805 19.7969 14.7345 19.5332 15.5174C19.5128 15.5777 19.5061 15.6419 19.5136 15.7052C19.521 15.7685 19.5425 15.8293 19.5763 15.8833C19.6102 15.9373 19.6557 15.983 19.7094 16.0173C19.7632 16.0515 19.8238 16.0734 19.8871 16.0813C20.5602 16.1661 21.1757 16.5043 21.6082 17.0269C22.0408 17.5496 22.2579 18.2175 22.2153 18.8946C22.1728 19.5717 21.8738 20.2071 21.3792 20.6715C20.8846 21.1359 20.2316 21.3944 19.5531 21.3942Z" fill="#8991B1"/>
</g>
<defs>
<clipPath id="clip0_1790_8298">
<rect width="22" height="22" fill="white" transform="translate(1.08008 1.10596)"/>
</clipPath>
</defs>
</svg>
