<svg width="25" height="25" viewBox="0 0 25 25" fill="none" xmlns="http://www.w3.org/2000/svg">
<path d="M17.9727 12.9709C17.569 12.9709 17.2026 13.1326 16.9342 13.3943C16.2682 12.1959 14.9894 11.3828 13.5238 11.3828H7.01769C5.55209 11.3828 4.27339 12.1959 3.6073 13.3943C3.33884 13.1326 2.97247 12.9709 2.56883 12.9709C1.74795 12.9709 1.08008 13.6388 1.08008 14.4596V17.542C1.08008 18.6324 1.96714 19.5194 3.05745 19.5194H3.11825V19.9117C3.11825 20.1711 3.32853 20.3814 3.58794 20.3814C3.84734 20.3814 4.05763 20.1711 4.05763 19.9117V19.5194H8.16355C8.42295 19.5194 8.63323 19.3091 8.63323 19.0497C8.63323 18.7903 8.42295 18.58 8.16355 18.58H3.05745C2.48506 18.58 2.01941 18.1143 2.01941 17.542V14.4596C2.01941 14.1566 2.26587 13.9102 2.56883 13.9102C2.87178 13.9102 3.11825 14.1566 3.11825 14.4596V16.2741C3.11825 16.5335 3.32853 16.7438 3.58794 16.7438H16.9535C17.213 16.7438 17.4232 16.5335 17.4232 16.2741V14.4596C17.4232 14.1566 17.6697 13.9102 17.9727 13.9102C18.2756 13.9102 18.5221 14.1566 18.5221 14.4596V17.542C18.5221 18.1143 18.0564 18.58 17.484 18.58H12.3786C12.1192 18.58 11.9089 18.7903 11.9089 19.0497C11.9089 19.3091 12.1192 19.5194 12.3786 19.5194H16.4839V19.9117C16.4839 20.1711 16.6941 20.3814 16.9535 20.3814C17.213 20.3814 17.4232 20.1711 17.4232 19.9117V19.5194H17.484C18.5744 19.5194 19.4615 18.6324 19.4615 17.542V14.4596C19.4614 13.6388 18.7936 12.9709 17.9727 12.9709ZM4.05763 15.2822C4.05763 13.65 5.3855 12.3221 7.01769 12.3221H9.79977V15.8045H4.05763V15.2822ZM16.4839 15.8045H10.7391V12.3221H13.5238C15.156 12.3221 16.4839 13.65 16.4839 15.2822V15.8045Z" fill="#8991B1"/>
<path d="M23.9284 9.58568L22.7962 6.79306C22.6509 6.43484 22.3073 6.20337 21.9208 6.20337H20.4364C20.0498 6.20337 19.7062 6.43484 19.561 6.79306L18.4288 9.58563C18.3105 9.87729 18.3449 10.2073 18.5207 10.4683C18.6965 10.7293 18.9894 10.8852 19.3042 10.8852H20.709V17.5425C19.7605 17.7499 19.0481 18.5959 19.0481 19.6057V19.9123C19.0481 20.1717 19.2584 20.382 19.5178 20.382H22.8396C23.099 20.382 23.3093 20.1717 23.3093 19.9123V19.6057C23.3093 18.5959 22.5968 17.7499 21.6483 17.5425V10.8852H22.6219V11.2214C22.6219 11.4808 22.8322 11.6911 23.0916 11.6911C23.351 11.6911 23.5613 11.4808 23.5613 11.2214V10.7367C23.6688 10.668 23.763 10.5775 23.8366 10.4683C24.0123 10.2073 24.0467 9.87734 23.9284 9.58568ZM22.3585 19.4427H19.9986C20.0782 18.8729 20.5688 18.4329 21.1601 18.4329H21.197C21.7884 18.4329 22.2789 18.8729 22.3585 19.4427ZM19.302 9.94592C19.3006 9.94507 19.2986 9.94217 19.2992 9.9386L20.4315 7.14598C20.4323 7.14396 20.4342 7.1427 20.4364 7.1427H21.9208C21.923 7.1427 21.9249 7.14401 21.9257 7.14598L23.0588 9.94053C23.0585 9.94207 23.0566 9.94503 23.053 9.94582L19.302 9.94592Z" fill="#8991B1"/>
<path d="M5.29284 8.19671H8.29327C8.81123 8.19671 9.23259 7.7753 9.23259 7.25738V4.25696C9.23259 3.73899 8.81119 3.31763 8.29327 3.31763H5.29284C4.77487 3.31763 4.35352 3.73903 4.35352 4.25696V7.25738C4.35352 7.77535 4.77492 8.19671 5.29284 8.19671ZM5.29284 4.25696H8.29327L8.29388 7.25738C8.29388 7.25738 8.29369 7.25738 8.29327 7.25738H5.29284V4.25696Z" fill="#8991B1"/>
<path d="M12.2479 9.82171H15.2483C15.7663 9.82171 16.1877 9.4003 16.1877 8.88238V5.88196C16.1877 5.36399 15.7663 4.94263 15.2483 4.94263H12.2479C11.73 4.94263 11.3086 5.36403 11.3086 5.88196V8.88238C11.3086 9.4003 11.73 9.82171 12.2479 9.82171ZM12.2479 5.88191H15.2483L15.249 8.88233C15.249 8.88233 15.2488 8.88233 15.2483 8.88233H12.2479V5.88191Z" fill="#8991B1"/>
<path d="M10.2695 19.5178C10.5284 19.5178 10.7383 19.308 10.7383 19.0491C10.7383 18.7902 10.5284 18.5803 10.2695 18.5803C10.0106 18.5803 9.80078 18.7902 9.80078 19.0491C9.80078 19.308 10.0106 19.5178 10.2695 19.5178Z" fill="#8991B1"/>
<path d="M13.3594 14.4231C13.6183 14.4231 13.8281 14.2132 13.8281 13.9543C13.8281 13.6955 13.6183 13.4856 13.3594 13.4856C13.1005 13.4856 12.8906 13.6955 12.8906 13.9543C12.8906 14.2132 13.1005 14.4231 13.3594 14.4231Z" fill="#8991B1"/>
<path d="M7.25586 14.4231C7.51474 14.4231 7.72461 14.2132 7.72461 13.9543C7.72461 13.6955 7.51474 13.4856 7.25586 13.4856C6.99698 13.4856 6.78711 13.6955 6.78711 13.9543C6.78711 14.2132 6.99698 14.4231 7.25586 14.4231Z" fill="#8991B1"/>
</svg>
