<svg width="19" height="19" viewBox="0 0 19 19" fill="none" xmlns="http://www.w3.org/2000/svg">
<g clip-path="url(#clip0_1790_8273)">
<path d="M18.1772 6.89708L10.725 1.26751C10.167 0.846062 9.3877 0.846026 8.8297 1.26755L1.37746 6.89705C0.646803 7.44907 0.571358 8.52299 1.21707 9.17243C1.52613 9.48325 1.94512 9.63235 2.35916 9.61199V17.334C2.35916 17.6253 2.59527 17.8614 2.8865 17.8614H4.50373V18.424C4.50373 18.7153 4.73983 18.9514 5.03107 18.9514C5.3223 18.9514 5.55841 18.7153 5.55841 18.424V10.4779H8.72255V11.5327H7.14048C6.84925 11.5327 6.61314 11.7688 6.61314 12.0601C6.61314 12.3514 6.84925 12.5875 7.14048 12.5875H8.72255V13.6423H7.66782C7.37659 13.6423 7.14048 13.8785 7.14048 14.1698C7.14048 14.461 7.37659 14.6972 7.66782 14.6972H8.72255V15.752H7.14048C6.84925 15.752 6.61314 15.9881 6.61314 16.2794C6.61314 16.5707 6.84925 16.8068 7.14048 16.8068H8.72255V18.4241C8.72255 18.7154 8.95866 18.9516 9.24989 18.9516C9.54112 18.9516 9.77723 18.7155 9.77723 18.4241V17.8616H11.3593V18.4241C11.3593 18.7154 11.5954 18.9516 11.8866 18.9516C12.1779 18.9516 12.414 18.7155 12.414 18.4241V16.8068H13.4687V18.4241C13.4687 18.7154 13.7048 18.9516 13.9961 18.9516C14.2873 18.9516 14.5234 18.7155 14.5234 18.4241V17.8616H16.6328C16.9241 17.8616 17.1602 17.6254 17.1602 17.3342V9.61002C17.5916 9.6412 18.0234 9.48835 18.3374 9.17247C18.9832 8.5231 18.908 7.44914 18.1772 6.89708ZM12.9767 13.6423C12.3951 13.6423 11.9219 13.1268 11.9219 12.4932C11.9219 11.7947 12.4295 11.2464 12.8736 10.8462C13.349 11.5733 14.0313 11.7715 14.0313 12.4932C14.0313 13.1268 13.5582 13.6423 12.9767 13.6423ZM13.2253 14.6812C13.2989 14.9419 13.4028 15.3556 13.4473 15.7519H12.4357C12.4806 15.3511 12.5864 14.9323 12.6602 14.6722C12.8561 14.7031 13.0405 14.7041 13.2253 14.6812ZM14.5236 16.8067C14.5236 16.0739 14.5726 15.513 14.2077 14.2812C14.7392 13.8806 15.0861 13.2286 15.0861 12.4932C15.0861 10.9886 13.7368 10.7512 13.6036 9.87151C13.5372 9.43333 12.9902 9.26763 12.692 9.59575C12.3837 9.93465 10.8673 10.889 10.8673 12.4932C10.8673 13.202 11.1895 13.8333 11.6886 14.2367C11.3159 15.4702 11.3594 16.0323 11.3594 16.8067H9.77734V9.95051C9.77734 9.65924 9.54123 9.4231 9.25 9.4231H5.03114C4.73991 9.4231 4.5038 9.65924 4.5038 9.95051V16.8067H3.41388V9.14202L9.77734 4.33479L16.1056 9.11548V16.8067H14.5236ZM17.5897 8.42874C17.4324 8.58694 17.1798 8.60497 17.0021 8.47078L10.0952 3.253C9.90706 3.1109 9.64754 3.1109 9.45946 3.253L2.55262 8.47078C2.37487 8.60501 2.12224 8.5869 1.96502 8.42877C1.7692 8.23179 1.79244 7.90554 2.01319 7.73876L9.46543 2.10923C9.64912 1.97046 9.90566 1.97053 10.0893 2.10919L17.5415 7.73876C17.7622 7.90547 17.7855 8.23172 17.5897 8.42874Z" fill="#8991B1"/>
</g>
<defs>
<clipPath id="clip0_1790_8273">
<rect width="18" height="18" fill="white" transform="translate(0.777344 0.951416)"/>
</clipPath>
</defs>
</svg>
