<svg width="25" height="26" viewBox="0 0 25 26" fill="none" xmlns="http://www.w3.org/2000/svg">
<path d="M6.04691 22.0627C6.26938 22.0939 6.58773 22.1251 6.97129 22.1251C8.61294 22.1251 11.3976 21.5521 12.5214 17.9505L22.4864 7.67206C23.2842 6.84963 23.2765 5.51659 22.4633 4.70585C21.6809 3.92239 20.3154 3.93408 19.5444 4.72923L9.6639 14.922C8.11431 15.0038 5.55595 16.0055 5.18006 19.3498C5.12636 19.498 4.9154 20.0125 4.45129 20.0943C4.00253 20.1723 3.81075 20.5192 3.81458 20.8271C3.82992 21.6417 5.21842 21.9536 6.04691 22.0666V22.0627ZM20.4727 5.65691C20.7565 5.36457 21.2628 5.36067 21.5505 5.64911C21.8496 5.94924 21.8535 6.43646 21.5581 6.74439L13.9023 14.6413L12.8168 13.5577L20.4727 5.65691ZM11.9001 14.501L12.9855 15.5846L11.9461 16.6565L10.8606 15.5729L11.9001 14.501ZM6.44965 19.6617L6.46883 19.5564C6.75266 16.7422 8.90828 16.3135 9.68307 16.2511L11.202 17.7712C10.7072 19.1783 9.84801 20.1138 8.63979 20.5387C7.63486 20.8895 6.61075 20.831 5.89349 20.6907C6.1965 20.3438 6.37677 19.9423 6.45349 19.6578L6.44965 19.6617Z" fill="#8991B1"/>
<path d="M6.21184 4.50706C6.18499 4.50706 6.15814 4.50706 6.13129 4.51096C5.72855 4.55773 5.42554 4.90853 5.43321 5.3217V6.35461C5.43321 6.79506 5.78609 7.15366 6.21951 7.15366C6.65294 7.15366 7.00581 6.79506 7.00581 6.35461V5.3217C7.00581 5.10342 6.92527 4.89684 6.77568 4.74482C6.62609 4.59281 6.41896 4.50706 6.20801 4.50706H6.21184Z" fill="#8991B1"/>
<path d="M2.81349 7.90983C2.38773 7.94101 2.0617 8.3113 2.08088 8.74785C2.10006 9.18441 2.46061 9.51962 2.8902 9.51182H3.90664C4.33239 9.50403 4.67759 9.14543 4.67759 8.71277C4.67759 8.28012 4.33623 7.92152 3.90664 7.91373H2.8902C2.86335 7.91373 2.84033 7.91373 2.81349 7.91373V7.90983Z" fill="#8991B1"/>
<path d="M8.46335 7.90983C8.03759 7.94101 7.71157 8.3152 7.73458 8.74785C7.7576 9.18051 8.11431 9.51962 8.5439 9.50792H9.5565C9.98609 9.50013 10.3275 9.14153 10.3275 8.70888C10.3275 8.27622 9.98609 7.91762 9.5565 7.90983H8.5439C8.51705 7.90983 8.4902 7.90983 8.46335 7.90983Z" fill="#8991B1"/>
<path d="M6.21184 10.2524C6.00088 10.2524 5.80143 10.3421 5.65568 10.4941C5.50992 10.6461 5.42938 10.8488 5.42938 11.0631V12.0961C5.42938 12.5365 5.78225 12.8951 6.21568 12.8951C6.6491 12.8951 7.00198 12.5365 7.00198 12.0961V11.0631C7.00198 10.8488 6.92143 10.6422 6.77184 10.4863C6.62225 10.3343 6.41896 10.2485 6.20801 10.2524H6.21184Z" fill="#8991B1"/>
</svg>
