<svg width="21" height="21" viewBox="0 0 21 21" fill="none" xmlns="http://www.w3.org/2000/svg">
<g clip-path="url(#clip0_2043_986)">
<path d="M17.8285 13.9998C17.7987 13.9252 17.7538 13.8594 17.6988 13.8043V13.8031L14.4995 10.6038L19.9085 5.19488C20.1373 4.96615 20.1373 4.59505 19.9085 4.36617L16.0415 0.499298C15.8126 0.270416 15.4417 0.270416 15.2128 0.499298L9.80387 5.90822L5.08129 1.18564C3.93902 0.043366 2.0805 0.043366 0.938231 1.18564C-0.204193 2.32791 -0.204193 4.18658 0.938231 5.32885L2.04296 6.43373L5.66066 10.0513L0.251739 15.4604C0.0228578 15.6891 0.0228578 16.0602 0.251739 16.2889L4.11861 20.1559C4.23305 20.2704 4.38305 20.3276 4.53304 20.3276C4.68288 20.3276 4.83288 20.2704 4.94732 20.1559L10.3562 14.747L13.5555 17.9462H13.5566C13.6119 18.0012 13.6776 18.0461 13.7522 18.0759L19.2764 20.2856C19.347 20.3139 19.4207 20.3274 19.4939 20.3274C19.6465 20.3274 19.7964 20.2679 19.9084 20.1558C20.0741 19.9901 20.1251 19.7415 20.0381 19.5239L17.8285 13.9998ZM16.4558 14.2174L15.6271 15.0461L12.8422 12.2611L13.6709 11.4325L16.4558 14.2174ZM5.7719 3.5335L8.97517 6.73677L8.14662 7.56548L4.94335 4.36221L5.7719 3.5335ZM1.76678 4.5003C1.08151 3.81487 1.08151 2.69961 1.76678 2.01434C2.10949 1.67163 2.55963 1.50027 3.00976 1.50027C3.45989 1.50027 3.91003 1.67163 4.25274 2.01434L4.94335 2.7048L2.45739 5.19076L1.76678 4.5003ZM3.28594 6.01946L4.11465 5.19076L7.31792 8.39403L6.48921 9.22273L3.28594 6.01946ZM9.70195 11.2581C9.47322 11.0294 9.10212 11.0294 8.8734 11.2581C8.64451 11.487 8.64451 11.8579 8.8734 12.0868L10.1162 13.3298L8.80763 14.6384L7.56465 13.3954C7.33592 13.1667 6.96483 13.1667 6.73595 13.3954C6.50722 13.6243 6.50722 13.9952 6.73595 14.2241L7.97893 15.4671L6.67034 16.7757L5.97972 16.0852C5.751 15.8563 5.3799 15.8563 5.15117 16.0852C4.92229 16.3139 4.92229 16.685 5.15117 16.9138L5.84163 17.6044L4.53304 18.913L1.49472 15.8746L10.2182 7.1512C10.2183 7.15105 10.2183 7.15105 10.2183 7.15105L15.6271 1.74212L18.6656 4.7806L17.3568 6.08919L16.6663 5.39873C16.4375 5.16985 16.0665 5.16985 15.8376 5.39873C15.6089 5.62746 15.6089 5.99855 15.8376 6.22728L16.5283 6.91789L15.2195 8.22649L13.9765 6.98351C13.7478 6.75478 13.3769 6.75478 13.148 6.98351C12.9191 7.21239 12.9191 7.58333 13.148 7.81221L14.391 9.05519L13.0822 10.3638L12.3918 9.67332C12.1629 9.44444 11.7919 9.44444 11.5631 9.67332C11.3343 9.90205 11.3343 10.273 11.5631 10.5019L12.2537 11.1925L10.9449 12.5011L9.70195 11.2581ZM13.9698 16.7033L11.1849 13.9183L12.0135 13.0898L14.7985 15.8746L13.9698 16.7033ZM15.0125 17.318L17.0704 15.26L18.4423 18.6899L15.0125 17.318Z" fill="#8991B1"/>
</g>
<defs>
<clipPath id="clip0_2043_986">
<rect width="20" height="20" fill="white" transform="translate(0.0800781 0.327393)"/>
</clipPath>
</defs>
</svg>
