<svg width="21" height="21" viewBox="0 0 21 21" fill="none" xmlns="http://www.w3.org/2000/svg">
<g clip-path="url(#clip0_1790_8254)">
<path d="M10.5301 0.721753C10.4677 0.728561 10.4078 0.749972 10.3551 0.784253L0.755135 7.12175C0.700259 7.15908 0.655531 7.20947 0.624981 7.26839C0.594431 7.3273 0.57902 7.3929 0.580135 7.45925V10.0218C0.578899 10.095 0.597823 10.1673 0.63484 10.2305C0.671857 10.2938 0.725544 10.3457 0.79004 10.3805C0.854535 10.4153 0.92736 10.4318 1.00056 10.428C1.07377 10.4243 1.14453 10.4005 1.20514 10.3593L1.78014 9.98425V20.3218C1.78015 20.4278 1.82229 20.5296 1.8973 20.6046C1.97232 20.6796 2.07405 20.7217 2.18014 20.7218H18.9801C19.0862 20.7217 19.188 20.6796 19.263 20.6046C19.338 20.5296 19.3801 20.4278 19.3801 20.3218V9.98425L19.9551 10.3593C20.0157 10.4005 20.0865 10.4243 20.1597 10.428C20.2329 10.4318 20.3057 10.4153 20.3702 10.3805C20.4347 10.3457 20.4884 10.2938 20.5254 10.2305C20.5624 10.1673 20.5814 10.095 20.5801 10.0218V7.45925C20.5813 7.3929 20.5658 7.3273 20.5353 7.26839C20.5047 7.20947 20.46 7.15908 20.4051 7.12175L10.8051 0.784253C10.7241 0.730728 10.6263 0.708514 10.5301 0.721753ZM10.5801 1.60925L19.7801 7.68425V9.28425L10.8051 3.34675C10.7388 3.30162 10.6604 3.27748 10.5801 3.27748C10.4999 3.27748 10.4215 3.30162 10.3551 3.34675L1.38013 9.28425V7.68425L10.5801 1.60925ZM10.5801 4.17175L18.5801 9.44675V19.9218H2.58014V9.44675L10.5801 4.17175ZM8.39264 9.52175C6.95326 9.52175 5.78014 10.6949 5.78014 12.1343V12.3843C5.09219 12.5631 4.58013 13.1805 4.58013 13.9218C4.58013 14.6604 5.0959 15.2654 5.78014 15.4468V15.8093C5.78014 16.4148 6.10318 16.9546 6.58013 17.2593V17.8843C6.58013 18.1243 6.77764 18.3218 7.01764 18.3218H7.74264C7.98304 18.3218 8.18014 18.1243 8.18014 17.8843V17.5218H12.9801V17.8843C12.9801 18.1243 13.1772 18.3218 13.4176 18.3218H14.1426C14.3826 18.3218 14.5801 18.1243 14.5801 17.8843V17.2593C15.0571 16.9546 15.3801 16.4148 15.3801 15.8093V15.4468C16.0644 15.2654 16.5801 14.6604 16.5801 13.9218C16.5801 13.1805 16.0681 12.5631 15.3801 12.3843V12.1343C15.3801 10.6949 14.207 9.52175 12.7676 9.52175H8.39264ZM8.39264 10.3218H12.7676C13.7747 10.3218 14.5801 11.1272 14.5801 12.1343V12.3843C13.8922 12.5631 13.3801 13.1805 13.3801 13.9218C13.3801 14.2552 13.2983 14.4286 13.1926 14.5343C13.087 14.6399 12.9135 14.7218 12.5801 14.7218H8.58014C8.24704 14.7218 8.07333 14.6399 7.96764 14.5343C7.86194 14.4286 7.78014 14.2549 7.78014 13.9218C7.78014 13.1805 7.26808 12.5631 6.58013 12.3843V12.1343C6.58013 11.1272 7.38561 10.3218 8.39264 10.3218ZM6.10513 13.1218C6.14654 13.1283 6.18873 13.1283 6.23013 13.1218C6.65249 13.1474 6.98014 13.4922 6.98014 13.9218C6.98014 14.3883 7.09843 14.815 7.39264 15.1093C7.68684 15.4035 8.11364 15.5218 8.58014 15.5218H12.5801C13.0468 15.5218 13.4735 15.4036 13.7676 15.1093C14.0618 14.8149 14.1801 14.3884 14.1801 13.9218C14.1801 13.5007 14.495 13.1592 14.9051 13.1218C14.9465 13.1283 14.9887 13.1283 15.0301 13.1218C15.4525 13.1474 15.7801 13.4922 15.7801 13.9218C15.7801 14.3684 15.4268 14.7218 14.9801 14.7218H14.5801V15.1218V15.8093C14.5801 16.32 14.1779 16.7218 13.6676 16.7218H7.49264C6.98187 16.7218 6.58013 16.32 6.58013 15.8093V15.1218V14.7218H6.18014C5.73347 14.7218 5.38014 14.3684 5.38014 13.9218C5.38014 13.5007 5.69498 13.1592 6.10513 13.1218Z" fill="#8991B1"/>
</g>
<defs>
<clipPath id="clip0_1790_8254">
<rect width="20" height="20" fill="white" transform="translate(0.580078 0.72168)"/>
</clipPath>
</defs>
</svg>
