<svg width="25" height="26" viewBox="0 0 25 26" fill="none" xmlns="http://www.w3.org/2000/svg">
<g clip-path="url(#clip0_1790_8311)">
<path d="M22.2316 5.28846L20.169 3.22596C19.9679 3.02478 19.6416 3.02453 19.4403 3.22571C19.4403 3.22584 19.4402 3.22596 19.4399 3.22596L13.2525 9.41359C13.1558 9.51021 13.1016 9.64126 13.1016 9.77798V11.8406C13.1016 12.1253 13.3324 12.3561 13.6171 12.3561H15.6797C15.8164 12.3561 15.9475 12.3019 16.0441 12.2051L22.2316 6.01763C22.4329 5.81645 22.433 5.49015 22.232 5.28884C22.2318 5.28884 22.2318 5.28859 22.2316 5.28846ZM15.4661 11.325H14.1327V9.99165L19.8046 4.31977L21.1379 5.65311L15.4661 11.325Z" fill="#8991B1"/>
<path d="M20.8358 9.26233C20.5511 9.26233 20.3203 9.49315 20.3203 9.77783V16.9966C20.3194 17.8505 19.6274 18.5426 18.7734 18.5436H13.6172C13.5056 18.5433 13.397 18.5795 13.3078 18.6466L10.0078 21.1217V19.0592C10.0078 18.7744 9.77699 18.5436 9.49219 18.5436H4.33594C3.48203 18.5426 2.78995 17.8505 2.78919 16.9967V7.71532C2.79007 6.86154 3.48203 6.16946 4.33594 6.16858H13.6172C13.902 6.16858 14.1328 5.93775 14.1328 5.65295C14.1328 5.36827 13.902 5.13745 13.6172 5.13745H4.33594C2.91267 5.13884 1.7592 6.29231 1.75781 7.71532V16.9967C1.7592 18.4198 2.91267 19.5733 4.33594 19.5748H8.97656V22.153C8.97656 22.4376 9.20739 22.6685 9.49219 22.6685C9.60382 22.6685 9.71229 22.6323 9.80159 22.5654L13.7896 19.5747H18.7734C20.1967 19.5733 21.3501 18.4198 21.3516 16.9966V9.77795C21.3516 9.49315 21.1206 9.26233 20.8358 9.26233Z" fill="#8991B1"/>
<path d="M10.5233 8.2312H5.36731C5.08238 8.2312 4.85156 8.46202 4.85156 8.74683C4.85156 9.0315 5.08238 9.26233 5.36731 9.26233H10.5233C10.8081 9.26233 11.0391 9.0315 11.0391 8.74683C11.0391 8.46202 10.8081 8.2312 10.5233 8.2312Z" fill="#8991B1"/>
<path d="M5.36731 12.3562H10.5233C10.8081 12.3562 11.0391 12.1253 11.0391 11.8406C11.0391 11.5558 10.8081 11.325 10.5233 11.325H5.36731C5.08238 11.325 4.85156 11.5558 4.85156 11.8406C4.85156 12.1253 5.08238 12.3562 5.36731 12.3562Z" fill="#8991B1"/>
<path d="M5.36731 15.4498H17.7422C18.027 15.4498 18.2577 15.219 18.2577 14.9342C18.2577 14.6495 18.0269 14.4187 17.7422 14.4187H5.36731C5.08238 14.4187 4.85156 14.6495 4.85156 14.9342C4.85156 15.219 5.08238 15.4498 5.36731 15.4498Z" fill="#8991B1"/>
</g>
<defs>
<clipPath id="clip0_1790_8311">
<rect width="22" height="22" fill="white" transform="translate(1.08008 1.90405)"/>
</clipPath>
</defs>
</svg>
