<svg width="21" height="21" viewBox="0 0 21 21" fill="none" xmlns="http://www.w3.org/2000/svg">
<path d="M7.37305 7.41406V4.61426C7.37305 3.49415 7.37305 2.93368 7.59103 2.50586C7.78278 2.12954 8.08852 1.8238 8.46484 1.63205C8.89267 1.41406 9.45314 1.41406 10.5732 1.41406H16.1732C17.2933 1.41406 17.8531 1.41406 18.2809 1.63205C18.6573 1.8238 18.9635 2.12954 19.1553 2.50586C19.3733 2.93368 19.3733 3.49374 19.3733 4.61384V10.2139C19.3733 11.334 19.3733 11.894 19.1553 12.3218C18.9635 12.6982 18.657 13.0045 18.2806 13.1963C17.8532 13.4141 17.2941 13.4141 16.1761 13.4141H13.373M7.37305 7.41406H4.57324C3.45314 7.41406 2.89267 7.41406 2.46484 7.63205C2.08852 7.8238 1.78278 8.12954 1.59103 8.50586C1.37305 8.93368 1.37305 9.49415 1.37305 10.6143V16.2143C1.37305 17.3344 1.37305 17.8941 1.59103 18.3219C1.78278 18.6983 2.08852 19.0045 2.46484 19.1963C2.89225 19.4141 3.45204 19.4141 4.56995 19.4141H10.1766C11.2945 19.4141 11.8535 19.4141 12.2809 19.1963C12.6573 19.0045 12.9635 18.698 13.1553 18.3217C13.373 17.8942 13.373 17.3351 13.373 16.2172V13.4141M7.37305 7.41406H10.1732C11.2933 7.41406 11.8531 7.41406 12.2809 7.63205C12.6573 7.8238 12.9635 8.12954 13.1553 8.50586C13.373 8.93327 13.373 9.49307 13.373 10.611L13.373 13.4141" stroke="white" stroke-width="2" stroke-linecap="round" stroke-linejoin="round"/>
</svg>
