<svg width="28" height="28" viewBox="0 0 28 28" fill="none" xmlns="http://www.w3.org/2000/svg">
<g clip-path="url(#clip0_1778_28153)">
<path d="M13.7991 0.525391C10.2187 0.525391 6.78497 1.94747 4.25324 4.4798C1.72152 7.01153 0.298828 10.4452 0.298828 14.0257C0.298828 17.6062 1.72091 21.0399 4.25324 23.5716C6.78497 26.1033 10.2187 27.526 13.7991 27.526C17.3796 27.526 20.8133 26.1033 23.345 23.5716C25.8767 21.0399 27.2994 17.6062 27.2994 14.0257C27.2994 10.4452 25.8774 7.01153 23.345 4.4798C20.8133 1.94808 17.379 0.525391 13.7991 0.525391Z" fill="#7558EA"/>
<path d="M14.5096 6.91992H13.0881V13.3147H6.69336V14.7362H13.0881V21.131H14.5096V14.7362H20.9044V13.3147H14.5096V6.91992Z" fill="white"/>
</g>
<defs>
<clipPath id="clip0_1778_28153">
<rect width="27" height="27" fill="white" transform="translate(0.298828 0.525391)"/>
</clipPath>
</defs>
</svg>
