<svg width="51" height="52" viewBox="0 0 51 52" fill="none" xmlns="http://www.w3.org/2000/svg">
<g opacity="0.41" filter="url(#filter0_b_4401_3262)">
<rect x="0.123047" y="0.855713" width="50.6191" height="50.6191" rx="10" fill="url(#paint0_linear_4401_3262)"/>
</g>
<path d="M10.849 15.1478C9.96528 15.1478 9.22852 15.8842 9.22852 16.7675V23.2464C9.22852 24.1297 9.96528 24.8661 10.849 24.8661H40.0181C40.9019 24.8661 41.6387 24.1297 41.6387 23.2464V16.7675C41.6387 15.8842 40.9019 15.1478 40.0181 15.1478H10.849ZM10.849 16.7675H40.0181V23.2464H10.849V16.7675ZM14.9003 18.7922C14.2388 18.7922 13.6849 19.3456 13.6849 20.0069C13.6849 20.6682 14.2387 21.2217 14.9003 21.2217C15.5619 21.2217 16.1157 20.6682 16.1157 20.0069C16.1157 19.3456 15.5618 18.7922 14.9003 18.7922ZM18.9516 18.7922C18.29 18.7922 17.7362 19.3456 17.7362 20.0069C17.7362 20.6682 18.2899 21.2217 18.9516 21.2217C19.6132 21.2217 20.1669 20.6682 20.1669 20.0069C20.1669 19.3456 19.6131 18.7922 18.9516 18.7922ZM23.0028 18.7922C22.3413 18.7922 21.7874 19.3456 21.7874 20.0069C21.7874 20.6682 22.3412 21.2217 23.0028 21.2217C23.6644 21.2217 24.2182 20.6682 24.2182 20.0069C24.2182 19.3456 23.6643 18.7922 23.0028 18.7922ZM10.849 26.8907C9.96528 26.8907 9.22852 27.6271 9.22852 28.5105V34.9893C9.22852 35.8726 9.96528 36.609 10.849 36.609H13.2798V37.8238C13.2737 38.2516 13.6619 38.6452 14.09 38.6452C14.5181 38.6452 14.9063 38.2516 14.9003 37.8238V36.609H35.9669V37.8238C35.9608 38.2516 36.349 38.6452 36.7771 38.6452C37.2052 38.6452 37.5934 38.2516 37.5874 37.8238V36.609H40.0181C40.9019 36.609 41.6387 35.8726 41.6387 34.9893V28.5105C41.6387 27.6271 40.9019 26.8907 40.0181 26.8907H10.849ZM10.849 28.5105H40.0181V34.9893H10.849V28.5105ZM14.9003 30.5351C14.2388 30.5351 13.6849 31.0885 13.6849 31.7498C13.6849 32.4111 14.2387 32.9647 14.9003 32.9647C15.5619 32.9647 16.1157 32.4111 16.1157 31.7498C16.1157 31.0886 15.5618 30.5351 14.9003 30.5351ZM18.9516 30.5351C18.29 30.5351 17.7362 31.0885 17.7362 31.7498C17.7362 32.4111 18.2899 32.9647 18.9516 32.9647C19.6132 32.9647 20.1669 32.4111 20.1669 31.7498C20.1669 31.0886 19.6131 30.5351 18.9516 30.5351ZM23.0028 30.5351C22.3413 30.5351 21.7874 31.0885 21.7874 31.7498C21.7874 32.4111 22.3412 32.9647 23.0028 32.9647C23.6644 32.9647 24.2182 32.4111 24.2182 31.7498C24.2182 31.0886 23.6643 30.5351 23.0028 30.5351Z" fill="white"/>
<defs>
<filter id="filter0_b_4401_3262" x="-60.424" y="-59.6913" width="171.713" height="171.713" filterUnits="userSpaceOnUse" color-interpolation-filters="sRGB">
<feFlood flood-opacity="0" result="BackgroundImageFix"/>
<feGaussianBlur in="BackgroundImageFix" stdDeviation="30.2735"/>
<feComposite in2="SourceAlpha" operator="in" result="effect1_backgroundBlur_4401_3262"/>
<feBlend mode="normal" in="SourceGraphic" in2="effect1_backgroundBlur_4401_3262" result="shape"/>
</filter>
<linearGradient id="paint0_linear_4401_3262" x1="9.99057" y1="-32.0886" x2="78.4701" y2="40.5932" gradientUnits="userSpaceOnUse">
<stop stop-color="#434343" stop-opacity="0.86"/>
<stop offset="1" stop-opacity="0"/>
</linearGradient>
</defs>
</svg>
