<svg width="24" height="18" viewBox="0 0 24 18" fill="none" xmlns="http://www.w3.org/2000/svg">
<path d="M17.7695 10.5075C17.3659 10.5075 16.9995 10.6692 16.7311 10.9309C16.0651 9.73253 14.7863 8.91943 13.3207 8.91943H6.81456C5.34897 8.91943 4.07027 9.73253 3.40417 10.9309C3.13572 10.6692 2.76934 10.5075 2.3657 10.5075C1.54483 10.5075 0.876953 11.1754 0.876953 11.9963V15.0786C0.876953 16.169 1.76402 17.056 2.85433 17.056H2.91512V17.4483C2.91512 17.7077 3.12541 17.918 3.38481 17.918C3.64422 17.918 3.8545 17.7077 3.8545 17.4483V17.056H7.96042C8.21983 17.056 8.43011 16.8457 8.43011 16.5863C8.43011 16.3269 8.21983 16.1166 7.96042 16.1166H2.85433C2.28194 16.1166 1.81628 15.651 1.81628 15.0786V11.9962C1.81628 11.6933 2.06275 11.4468 2.3657 11.4468C2.66866 11.4468 2.91512 11.6933 2.91512 11.9962V13.8107C2.91512 14.0701 3.12541 14.2804 3.38481 14.2804H16.7504C17.0098 14.2804 17.2201 14.0701 17.2201 13.8107V11.9962C17.2201 11.6933 17.4666 11.4468 17.7695 11.4468C18.0725 11.4468 18.319 11.6933 18.319 11.9962V15.0786C18.319 15.651 17.8533 16.1166 17.2809 16.1166H12.1755C11.9161 16.1166 11.7058 16.3269 11.7058 16.5863C11.7058 16.8457 11.9161 17.056 12.1755 17.056H16.2807V17.4483C16.2807 17.7077 16.491 17.918 16.7504 17.918C17.0098 17.918 17.2201 17.7077 17.2201 17.4483V17.056H17.2809C18.3713 17.056 19.2583 16.169 19.2583 15.0786V11.9963C19.2583 11.1754 18.5905 10.5075 17.7695 10.5075ZM3.8545 12.8188C3.8545 11.1866 5.18237 9.85876 6.81456 9.85876H9.59664V13.3411H3.8545V12.8188ZM16.2807 13.3411H10.536V9.85876H13.3207C14.9529 9.85876 16.2807 11.1866 16.2807 12.8188V13.3411Z" fill="#8991B1"/>
<path d="M23.7253 7.12181L22.5931 4.32919C22.4478 3.97097 22.1042 3.7395 21.7177 3.7395H20.2333C19.8467 3.7395 19.5031 3.97097 19.3579 4.32919L18.2256 7.12177C18.1074 7.41342 18.1417 7.74342 18.3176 8.00442C18.4934 8.26547 18.7863 8.42128 19.101 8.42128H20.5058V15.0787C19.5574 15.286 18.845 16.132 18.845 17.1418V17.4485C18.845 17.7079 19.0552 17.9182 19.3146 17.9182H22.6364C22.8958 17.9182 23.1061 17.7079 23.1061 17.4485V17.1418C23.1061 16.132 22.3937 15.286 21.4452 15.0787V8.42133H22.4188V8.75752C22.4188 9.01692 22.629 9.2272 22.8884 9.2272C23.1478 9.2272 23.3581 9.01692 23.3581 8.75752V8.27278C23.4657 8.20411 23.5599 8.11364 23.6334 8.00447C23.8092 7.74347 23.8436 7.41347 23.7253 7.12181ZM22.1554 16.9788H19.7955C19.8751 16.409 20.3656 15.969 20.957 15.969H20.9938C21.5853 15.969 22.0758 16.409 22.1554 16.9788ZM19.0988 7.48205C19.0975 7.4812 19.0955 7.4783 19.0961 7.47474L20.2284 4.68211C20.2292 4.6801 20.2311 4.67883 20.2333 4.67883H21.7177C21.7198 4.67883 21.7218 4.68014 21.7226 4.68211L22.8557 7.47666C22.8554 7.4782 22.8534 7.48116 22.8499 7.48196L19.0988 7.48205Z" fill="#8991B1"/>
<path d="M5.08972 5.73333H8.09014C8.60811 5.73333 9.02947 5.31192 9.02947 4.794V1.79358C9.02947 1.27561 8.60806 0.854248 8.09014 0.854248H5.08972C4.57175 0.854248 4.15039 1.27565 4.15039 1.79358V4.794C4.15039 5.31197 4.5718 5.73333 5.08972 5.73333ZM5.08972 1.79358H8.09014L8.09075 4.794C8.09075 4.794 8.09056 4.794 8.09014 4.794H5.08972V1.79358Z" fill="#8991B1"/>
<path d="M12.0448 7.35833H15.0452C15.5632 7.35833 15.9845 6.93692 15.9845 6.419V3.41858C15.9845 2.90061 15.5631 2.47925 15.0452 2.47925H12.0448C11.5268 2.47925 11.1055 2.90065 11.1055 3.41858V6.419C11.1055 6.93692 11.5269 7.35833 12.0448 7.35833ZM12.0448 3.41853H15.0452L15.0458 6.41895C15.0458 6.41895 15.0456 6.41895 15.0452 6.41895H12.0448V3.41853Z" fill="#8991B1"/>
<path d="M10.0664 17.0549C10.3253 17.0549 10.5352 16.8451 10.5352 16.5862C10.5352 16.3273 10.3253 16.1174 10.0664 16.1174C9.80752 16.1174 9.59766 16.3273 9.59766 16.5862C9.59766 16.8451 9.80752 17.0549 10.0664 17.0549Z" fill="#8991B1"/>
<path d="M13.1562 11.9602C13.4151 11.9602 13.625 11.7503 13.625 11.4915C13.625 11.2326 13.4151 11.0227 13.1562 11.0227C12.8974 11.0227 12.6875 11.2326 12.6875 11.4915C12.6875 11.7503 12.8974 11.9602 13.1562 11.9602Z" fill="#8991B1"/>
<path d="M7.05273 11.96C7.31162 11.96 7.52148 11.7501 7.52148 11.4912C7.52148 11.2323 7.31162 11.0225 7.05273 11.0225C6.79385 11.0225 6.58398 11.2323 6.58398 11.4912C6.58398 11.7501 6.79385 11.96 7.05273 11.96Z" fill="#8991B1"/>
</svg>
