<svg width="23" height="23" viewBox="0 0 23 23" fill="none" xmlns="http://www.w3.org/2000/svg">
<path d="M20.6099 7.89056L11.8782 1.29444C11.2244 0.800629 10.3113 0.800588 9.65753 1.29448L0.925802 7.89052C0.0697034 8.53732 -0.0186951 9.79562 0.737883 10.5566C1.1 10.9207 1.59093 11.0954 2.07605 11.0716V20.1194C2.07605 20.4607 2.3527 20.7374 2.69394 20.7374H4.58882V21.3966C4.58882 21.7378 4.86547 22.0145 5.20671 22.0145C5.54794 22.0145 5.82459 21.7379 5.82459 21.3966V12.0862H9.53198V13.3221H7.67828C7.33705 13.3221 7.0604 13.5987 7.0604 13.9401C7.0604 14.2813 7.33705 14.558 7.67828 14.558H9.53198V15.7939H8.29617C7.95493 15.7939 7.67828 16.0706 7.67828 16.4119C7.67828 16.7532 7.95493 17.0298 8.29617 17.0298H9.53198V18.2657H7.67828C7.33705 18.2657 7.0604 18.5424 7.0604 18.8837C7.0604 19.225 7.33705 19.5017 7.67828 19.5017H9.53198V21.3967C9.53198 21.738 9.80862 22.0147 10.1499 22.0147C10.4911 22.0147 10.7677 21.738 10.7677 21.3967V20.7376H12.6214V21.3967C12.6214 21.738 12.8981 22.0147 13.2393 22.0147C13.5806 22.0147 13.8572 21.738 13.8572 21.3967V19.5017H15.093V21.3967C15.093 21.738 15.3697 22.0147 15.7109 22.0147C16.0521 22.0147 16.3288 21.738 16.3288 21.3967V20.7376H18.8004C19.1416 20.7376 19.4183 20.4609 19.4183 20.1196V11.0693C19.9238 11.1058 20.4297 10.9267 20.7976 10.5566C21.5543 9.79574 21.4662 8.5374 20.6099 7.89056ZM14.5165 15.7939C13.8351 15.7939 13.2807 15.1899 13.2807 14.4475C13.2807 13.6291 13.8754 12.9866 14.3957 12.5177C14.9528 13.3696 15.7523 13.6018 15.7523 14.4475C15.7523 15.1899 15.1979 15.7939 14.5165 15.7939ZM14.8078 17.0112C14.8941 17.3166 15.0158 17.8013 15.0679 18.2656H13.8826C13.9353 17.7961 14.0592 17.3053 14.1457 17.0006C14.3752 17.0368 14.5913 17.0379 14.8078 17.0112ZM16.329 19.5015C16.329 18.6429 16.3865 17.9858 15.9589 16.5424C16.5816 16.0731 16.9881 15.3092 16.9881 14.4475C16.9881 12.6846 15.4071 12.4064 15.251 11.3757C15.1732 10.8623 14.5323 10.6681 14.1829 11.0526C13.8217 11.4497 12.0449 12.5679 12.0449 14.4475C12.0449 15.278 12.4225 16.0176 13.0073 16.4903C12.5706 17.9356 12.6216 18.5942 12.6216 19.5015H10.7679V11.4682C10.7679 11.127 10.4912 10.8503 10.15 10.8503H5.20679C4.86555 10.8503 4.58891 11.127 4.58891 11.4682V19.5015H3.31186V10.5209L10.7679 4.88834L18.1827 10.4898V19.5015H16.329ZM19.9215 9.68518C19.7372 9.87055 19.4413 9.89168 19.2331 9.73445L11.1403 3.62082C10.9199 3.45432 10.6158 3.45432 10.3954 3.62082L2.30274 9.73445C2.09447 9.89172 1.79846 9.87051 1.61425 9.68522C1.38481 9.45442 1.41204 9.07216 1.67068 8.87674L10.4024 2.28067C10.6176 2.11808 10.9182 2.11816 11.1334 2.28063L19.8651 8.87674C20.1237 9.07208 20.151 9.45434 19.9215 9.68518Z" fill="#8991B1"/>
</svg>
