<svg width="25" height="25" viewBox="0 0 25 25" fill="none" xmlns="http://www.w3.org/2000/svg">
<path d="M8.86914 10.0244V8.02441C8.86914 5.81528 10.66 4.02441 12.8691 4.02441C15.0783 4.02441 16.8691 5.81528 16.8691 8.02441V10.0244M12.8691 15.0244C13.4214 15.0244 13.8691 14.5767 13.8691 14.0244C13.8691 13.4721 13.4214 13.0244 12.8691 13.0244C12.3169 13.0244 11.8691 13.4721 11.8691 14.0244C11.8691 14.5767 12.3169 15.0244 12.8691 15.0244ZM12.8691 15.0244V17.0244M7.86914 20.0244H17.8691C18.9737 20.0244 19.8691 19.129 19.8691 18.0244V12.0244C19.8691 10.9198 18.9737 10.0244 17.8691 10.0244H7.86914C6.76457 10.0244 5.86914 10.9198 5.86914 12.0244V18.0244C5.86914 19.129 6.76457 20.0244 7.86914 20.0244Z" stroke="#8991B1" stroke-width="1.5" stroke-linecap="round" stroke-linejoin="round"/>
</svg>
