<svg width="25" height="27" viewBox="0 0 25 27" fill="none" xmlns="http://www.w3.org/2000/svg">
<path d="M17.0427 26.1322L13.48 20.5863L13.3708 20.3991L12.1583 18.5086H14.7936V12.9725H19.3243V18.5412H21.9727L20.7243 20.4251L17.041 26.1322H17.0427ZM14.1792 20.1695L17.0427 24.6277L20.043 19.9774L20.4554 19.3554H18.5078V13.7867H15.6068V19.3228H13.6462L14.0684 19.9806L14.1775 20.1695H14.1792ZM6.22109 23.5074H5.38991C4.75105 23.5074 4.22301 23.0206 4.15782 22.4002C3.13923 21.928 2.47266 20.9071 2.47266 19.7787V3.88677C2.47266 2.27967 3.78135 0.972168 5.38991 0.972168H15.4292C17.0378 0.972168 18.3465 2.27967 18.3465 3.88677V12.6469H15.8692V11.8165H4.94988V19.7624C4.94988 19.992 5.14382 20.1858 5.37362 20.1858H12.6537L14.2509 22.677H7.39125C7.22176 23.1606 6.76217 23.5074 6.22109 23.5074ZM5.38991 1.7863C4.23116 1.7863 3.28753 2.72907 3.28753 3.88677V19.7787C3.28753 20.658 3.85306 21.4444 4.69401 21.7391L4.96618 21.8352V22.27C4.96618 22.4995 5.16012 22.6933 5.38991 22.6933H6.22109C6.45088 22.6933 6.64482 22.4995 6.64482 22.27V21.8629H12.7613L12.2072 20.9999H5.37362C4.69075 20.9999 4.135 20.4447 4.135 19.7624V11.0023H16.6841V11.8327H17.5316V3.88677C17.5316 2.72907 16.588 1.7863 15.4292 1.7863H5.38991ZM7.06856 16.8152C6.38569 16.8152 5.82995 16.26 5.82995 15.5778V13.0702C5.82995 12.388 6.38569 11.8327 7.06856 11.8327C7.75143 11.8327 8.30717 12.388 8.30717 13.0702V15.5778C8.30717 16.26 7.75143 16.8152 7.06856 16.8152ZM7.06856 12.6469C6.83877 12.6469 6.64482 12.8406 6.64482 13.0702V15.5778C6.64482 15.8073 6.83877 16.0011 7.06856 16.0011C7.29836 16.0011 7.4923 15.8073 7.4923 15.5778V13.0702C7.4923 12.8406 7.29836 12.6469 7.06856 12.6469Z" fill="#8991B1"/>
<path d="M16.6851 10.1395H4.15234V3.8869C4.15234 3.20465 4.70809 2.64941 5.39096 2.64941H15.4302C15.9713 2.64941 16.4309 2.99624 16.6004 3.47983H16.6851V10.1395ZM4.96722 9.32533H15.8703V4.29397L15.854 3.8869C15.854 3.65731 15.66 3.46355 15.4302 3.46355H5.39096C5.16116 3.46355 4.96722 3.65731 4.96722 3.8869V9.32533ZM7.0696 9.29276C6.38674 9.29276 5.83099 8.73752 5.83099 8.05527V6.39444C5.83099 5.71219 6.38674 5.15695 7.0696 5.15695C7.75247 5.15695 8.30822 5.71219 8.30822 6.39444V8.05527C8.30822 8.73752 7.75247 9.29276 7.0696 9.29276ZM7.0696 5.97109C6.83981 5.97109 6.64587 6.16485 6.64587 6.39444V8.05527C6.64587 8.28486 6.83981 8.47863 7.0696 8.47863C7.2994 8.47863 7.49334 8.28486 7.49334 8.05527V6.39444C7.49334 6.16485 7.2994 5.97109 7.0696 5.97109Z" fill="#8991B1"/>
</svg>
