<svg width="21" height="19" viewBox="0 0 21 19" fill="none" xmlns="http://www.w3.org/2000/svg">
<path d="M3.95902 18.3237C4.18149 18.3549 4.49984 18.3861 4.8834 18.3861C6.52505 18.3861 9.3097 17.8131 10.4335 14.2115L20.3985 3.93305C21.1963 3.11062 21.1886 1.77757 20.3755 0.966831C19.593 0.183375 18.2275 0.195069 17.4566 0.990218L7.57601 11.1829C6.02642 11.2648 3.46806 12.2665 3.09217 15.6108C3.03847 15.759 2.82751 16.2735 2.3634 16.3553C1.91464 16.4333 1.72286 16.7802 1.72669 17.0881C1.74203 17.9027 3.13053 18.2146 3.95902 18.3276V18.3237ZM18.3848 1.91789C18.6686 1.62556 19.1749 1.62166 19.4626 1.9101C19.7618 2.21023 19.7656 2.69745 19.4703 3.00538L11.8144 10.9023L10.7289 9.81872L18.3848 1.91789ZM9.81217 10.762L10.8976 11.8456L9.8582 12.9175L8.77272 11.8339L9.81217 10.762ZM4.36176 15.9227L4.38094 15.8174C4.66477 13.0032 6.82039 12.5745 7.59518 12.5121L9.11409 14.0322C8.61929 15.4393 7.76012 16.3748 6.5519 16.7997C5.54697 17.1505 4.52285 17.092 3.80559 16.9517C4.10861 16.6048 4.28888 16.2033 4.36559 15.9188L4.36176 15.9227Z" fill="#8991B1"/>
<path d="M4.12395 0.768044C4.0971 0.768044 4.07025 0.768044 4.0434 0.771942C3.64066 0.818715 3.33765 1.16952 3.34532 1.58268V2.6156C3.34532 3.05605 3.6982 3.41464 4.13162 3.41464C4.56505 3.41464 4.91792 3.05605 4.91792 2.6156V1.58268C4.91792 1.36441 4.83738 1.15782 4.68779 1.00581C4.5382 0.853795 4.33107 0.768044 4.12012 0.768044H4.12395Z" fill="#8991B1"/>
<path d="M0.725595 4.17082C0.299841 4.202 -0.0261862 4.57229 -0.00700807 5.00884C0.01217 5.44539 0.372718 5.7806 0.802307 5.77281H1.81875C2.2445 5.76501 2.5897 5.40642 2.5897 4.97376C2.5897 4.54111 2.24833 4.18251 1.81875 4.17471H0.802307C0.775458 4.17471 0.752444 4.17471 0.725595 4.17471V4.17082Z" fill="#8991B1"/>
<path d="M6.37546 4.17082C5.9497 4.202 5.62368 4.57619 5.64669 5.00884C5.6697 5.4415 6.02642 5.7806 6.45601 5.76891H7.46861C7.8982 5.76111 8.23957 5.40252 8.23957 4.96986C8.23957 4.53721 7.8982 4.17861 7.46861 4.17082H6.45601C6.42916 4.17082 6.40231 4.17082 6.37546 4.17082Z" fill="#8991B1"/>
<path d="M4.12395 6.51339C3.91299 6.51339 3.71354 6.60304 3.56779 6.75505C3.42203 6.90707 3.34148 7.10975 3.34148 7.32413V8.35704C3.34148 8.79749 3.69436 9.15609 4.12779 9.15609C4.56121 9.15609 4.91409 8.79749 4.91409 8.35704V7.32413C4.91409 7.10975 4.83354 6.90317 4.68395 6.74726C4.53436 6.59524 4.33107 6.50949 4.12011 6.51339H4.12395Z" fill="#8991B1"/>
</svg>
