<svg width="25" height="25" viewBox="0 0 25 25" fill="none" xmlns="http://www.w3.org/2000/svg">
<path d="M12.3541 0.372891C12.2792 0.381061 12.2073 0.406754 12.1441 0.447891L0.624131 8.05289C0.558279 8.09768 0.504606 8.15815 0.467946 8.22885C0.431287 8.29955 0.412793 8.37826 0.414131 8.45789V11.5329C0.412648 11.6208 0.435356 11.7075 0.479777 11.7834C0.524197 11.8593 0.588621 11.9216 0.666016 11.9634C0.743411 12.0052 0.830801 12.0249 0.918644 12.0204C1.00649 12.0159 1.09141 11.9874 1.16413 11.9379L1.85413 11.4879V23.8929C1.85414 24.0202 1.90472 24.1423 1.99473 24.2323C2.08475 24.3223 2.20683 24.3729 2.33413 24.3729H22.4941C22.6214 24.3729 22.7435 24.3223 22.8335 24.2323C22.9235 24.1423 22.9741 24.0202 22.9741 23.8929V11.4879L23.6641 11.9379C23.7369 11.9874 23.8218 12.0159 23.9096 12.0204C23.9975 12.0249 24.0849 12.0052 24.1622 11.9634C24.2396 11.9216 24.3041 11.8593 24.3485 11.7834C24.3929 11.7075 24.4156 11.6208 24.4141 11.5329V8.45789C24.4155 8.37826 24.397 8.29955 24.3603 8.22885C24.3237 8.15815 24.27 8.09768 24.2041 8.05289L12.6841 0.447891C12.5869 0.383661 12.4696 0.357003 12.3541 0.372891ZM12.4141 1.43789L23.4541 8.72789V10.6479L12.6841 3.52289C12.6045 3.46873 12.5104 3.43976 12.4141 3.43976C12.3178 3.43976 12.2238 3.46873 12.1441 3.52289L1.37413 10.6479V8.72789L12.4141 1.43789ZM12.4141 4.51289L22.0141 10.8429V23.4129H2.81413V10.8429L12.4141 4.51289ZM9.78913 10.9329C8.06188 10.9329 6.65413 12.3406 6.65413 14.0679V14.3679C5.8286 14.5825 5.21413 15.3233 5.21413 16.2129C5.21413 17.0993 5.83305 17.8252 6.65413 18.0429V18.4779C6.65413 19.2046 7.04178 19.8523 7.61413 20.2179V20.9679C7.61413 21.2559 7.85113 21.4929 8.13913 21.4929H9.00913C9.29761 21.4929 9.53413 21.2559 9.53413 20.9679V20.5329H15.2941V20.9679C15.2941 21.2559 15.5307 21.4929 15.8191 21.4929H16.6891C16.9771 21.4929 17.2141 21.2559 17.2141 20.9679V20.2179C17.7865 19.8523 18.1741 19.2046 18.1741 18.4779V18.0429C18.9952 17.8252 19.6141 17.0993 19.6141 16.2129C19.6141 15.3233 18.9997 14.5825 18.1741 14.3679V14.0679C18.1741 12.3406 16.7664 10.9329 15.0391 10.9329H9.78913ZM9.78913 11.8929H15.0391C16.2476 11.8929 17.2141 12.8595 17.2141 14.0679V14.3679C16.3886 14.5825 15.7741 15.3233 15.7741 16.2129C15.7741 16.613 15.6759 16.8211 15.5491 16.9479C15.4224 17.0747 15.2141 17.1729 14.8141 17.1729H10.0141C9.61441 17.1729 9.40596 17.0747 9.27913 16.9479C9.1523 16.8211 9.05413 16.6126 9.05413 16.2129C9.05413 15.3233 8.43966 14.5825 7.61413 14.3679V14.0679C7.61413 12.8595 8.5807 11.8929 9.78913 11.8929ZM7.04413 15.2529C7.09382 15.2607 7.14444 15.2607 7.19413 15.2529C7.70096 15.2836 8.09413 15.6974 8.09413 16.2129C8.09413 16.7727 8.23608 17.2848 8.58913 17.6379C8.94218 17.9909 9.45433 18.1329 10.0141 18.1329H14.8141C15.3741 18.1329 15.8861 17.9911 16.2391 17.6379C16.5921 17.2847 16.7341 16.7728 16.7341 16.2129C16.7341 15.7076 17.1119 15.2978 17.6041 15.2529C17.6538 15.2607 17.7044 15.2607 17.7541 15.2529C18.261 15.2836 18.6541 15.6974 18.6541 16.2129C18.6541 16.7489 18.2301 17.1729 17.6941 17.1729H17.2141V17.6529V18.4779C17.2141 19.0908 16.7314 19.5729 16.1191 19.5729H8.70913C8.09621 19.5729 7.61413 19.0908 7.61413 18.4779V17.6529V17.1729H7.13413C6.59813 17.1729 6.17413 16.7489 6.17413 16.2129C6.17413 15.7076 6.55195 15.2978 7.04413 15.2529Z" fill="#8991B1"/>
</svg>
