<svg width="61" height="54" viewBox="0 0 61 54" fill="none" xmlns="http://www.w3.org/2000/svg">
<g opacity="0.13">
<ellipse opacity="0.2" cx="13.7596" cy="13.5851" rx="13.7596" ry="13.5851" transform="matrix(0.602494 -0.798123 0.762642 0.646821 0.3125 35.4912)" fill="white"/>
<ellipse opacity="0.2" cx="13.7596" cy="13.5851" rx="13.7596" ry="13.5851" transform="matrix(0.602494 -0.798123 0.762642 0.646821 23.5996 22.3701)" fill="white"/>
</g>
<path d="M17.6091 7.7793L12.1445 19.9446V22.1982H13.7269V39.8214H47.4847V22.1982H49.0671V19.9446L43.6025 7.7793H17.6091ZM18.2895 8.84737H42.9274L48.0121 20.1796V21.1302H46.4297C46.1396 21.1302 45.9023 21.3705 45.9023 21.6642C45.9023 21.9579 46.1396 22.1982 46.4297 22.1982V38.7533H43.2649V25.9365H33.7706V38.7533H14.7819V22.1982C15.072 22.1982 15.3093 21.9579 15.3093 21.6642C15.3093 21.3705 15.072 21.1302 14.7819 21.1302H13.1995V20.1796L18.2842 8.84737H18.2895ZM16.897 21.1302C16.6069 21.1302 16.3695 21.3705 16.3695 21.6642C16.3695 21.9579 16.6069 22.1982 16.897 22.1982C17.1871 22.1982 17.4245 21.9579 17.4245 21.6642C17.4245 21.3705 17.1871 21.1302 16.897 21.1302ZM19.0068 21.1302C18.7167 21.1302 18.4794 21.3705 18.4794 21.6642C18.4794 21.9579 18.7167 22.1982 19.0068 22.1982C19.297 22.1982 19.5343 21.9579 19.5343 21.6642C19.5343 21.3705 19.297 21.1302 19.0068 21.1302ZM21.1167 21.1302C20.8266 21.1302 20.5892 21.3705 20.5892 21.6642C20.5892 21.9579 20.8266 22.1982 21.1167 22.1982C21.4068 22.1982 21.6442 21.9579 21.6442 21.6642C21.6442 21.3705 21.4068 21.1302 21.1167 21.1302ZM23.2266 21.1302C22.9365 21.1302 22.6991 21.3705 22.6991 21.6642C22.6991 21.9579 22.9365 22.1982 23.2266 22.1982C23.5167 22.1982 23.754 21.9579 23.754 21.6642C23.754 21.3705 23.5167 21.1302 23.2266 21.1302ZM25.3364 21.1302C25.0463 21.1302 24.809 21.3705 24.809 21.6642C24.809 21.9579 25.0463 22.1982 25.3364 22.1982C25.6265 22.1982 25.8639 21.9579 25.8639 21.6642C25.8639 21.3705 25.6265 21.1302 25.3364 21.1302ZM27.4463 21.1302C27.1562 21.1302 26.9188 21.3705 26.9188 21.6642C26.9188 21.9579 27.1562 22.1982 27.4463 22.1982C27.7364 22.1982 27.9737 21.9579 27.9737 21.6642C27.9737 21.3705 27.7364 21.1302 27.4463 21.1302ZM29.5561 21.1302C29.266 21.1302 29.0287 21.3705 29.0287 21.6642C29.0287 21.9579 29.266 22.1982 29.5561 22.1982C29.8462 22.1982 30.0836 21.9579 30.0836 21.6642C30.0836 21.3705 29.8462 21.1302 29.5561 21.1302ZM31.666 21.1302C31.3759 21.1302 31.1385 21.3705 31.1385 21.6642C31.1385 21.9579 31.3759 22.1982 31.666 22.1982C31.9561 22.1982 32.1935 21.9579 32.1935 21.6642C32.1935 21.3705 31.9561 21.1302 31.666 21.1302ZM33.7759 21.1302C33.4858 21.1302 33.2484 21.3705 33.2484 21.6642C33.2484 21.9579 33.4858 22.1982 33.7759 22.1982C34.066 22.1982 34.3033 21.9579 34.3033 21.6642C34.3033 21.3705 34.066 21.1302 33.7759 21.1302ZM35.8857 21.1302C35.5956 21.1302 35.3583 21.3705 35.3583 21.6642C35.3583 21.9579 35.5956 22.1982 35.8857 22.1982C36.1758 22.1982 36.4132 21.9579 36.4132 21.6642C36.4132 21.3705 36.1758 21.1302 35.8857 21.1302ZM37.9956 21.1302C37.7055 21.1302 37.4681 21.3705 37.4681 21.6642C37.4681 21.9579 37.7055 22.1982 37.9956 22.1982C38.2857 22.1982 38.523 21.9579 38.523 21.6642C38.523 21.3705 38.2857 21.1302 37.9956 21.1302ZM40.1054 21.1302C39.8153 21.1302 39.578 21.3705 39.578 21.6642C39.578 21.9579 39.8153 22.1982 40.1054 22.1982C40.3955 22.1982 40.6329 21.9579 40.6329 21.6642C40.6329 21.3705 40.3955 21.1302 40.1054 21.1302ZM42.2153 21.1302C41.9252 21.1302 41.6878 21.3705 41.6878 21.6642C41.6878 21.9579 41.9252 22.1982 42.2153 22.1982C42.5054 22.1982 42.7428 21.9579 42.7428 21.6642C42.7428 21.3705 42.5054 21.1302 42.2153 21.1302ZM44.3251 21.1302C44.035 21.1302 43.7977 21.3705 43.7977 21.6642C43.7977 21.9579 44.035 22.1982 44.3251 22.1982C44.6153 22.1982 44.8526 21.9579 44.8526 21.6642C44.8526 21.3705 44.6153 21.1302 44.3251 21.1302ZM19.0016 25.9365V34.481H29.5509V25.9365H19.0016ZM20.0565 27.0045H28.4959V29.6747C28.2058 29.6747 27.9685 29.915 27.9685 30.2087C27.9685 30.5025 28.2058 30.7428 28.4959 30.7428V33.413H20.0565V30.7428C20.3466 30.7428 20.584 30.5025 20.584 30.2087C20.584 29.915 20.3466 29.6747 20.0565 29.6747V27.0045ZM34.8255 27.0045H42.21V38.7533H34.8255V27.0045ZM24.2762 27.5386C23.9861 27.5386 23.7488 27.7789 23.7488 28.0726C23.7488 28.3663 23.9861 28.6066 24.2762 28.6066C24.5663 28.6066 24.8037 28.3663 24.8037 28.0726C24.8037 27.7789 24.5663 27.5386 24.2762 27.5386ZM22.1664 29.6747C21.8763 29.6747 21.6389 29.915 21.6389 30.2087C21.6389 30.5025 21.8763 30.7428 22.1664 30.7428C22.4565 30.7428 22.6938 30.5025 22.6938 30.2087C22.6938 29.915 22.4565 29.6747 22.1664 29.6747ZM24.2762 29.6747C23.9861 29.6747 23.7488 29.915 23.7488 30.2087C23.7488 30.5025 23.9861 30.7428 24.2762 30.7428C24.5663 30.7428 24.8037 30.5025 24.8037 30.2087C24.8037 29.915 24.5663 29.6747 24.2762 29.6747ZM26.3861 29.6747C26.096 29.6747 25.8586 29.915 25.8586 30.2087C25.8586 30.5025 26.096 30.7428 26.3861 30.7428C26.6762 30.7428 26.9135 30.5025 26.9135 30.2087C26.9135 29.915 26.6762 29.6747 26.3861 29.6747ZM24.2762 31.8108C23.9861 31.8108 23.7488 32.0512 23.7488 32.3449C23.7488 32.6386 23.9861 32.8789 24.2762 32.8789C24.5663 32.8789 24.8037 32.6386 24.8037 32.3449C24.8037 32.0512 24.5663 31.8108 24.2762 31.8108ZM40.6276 32.8789C40.3375 32.8789 40.1002 33.1192 40.1002 33.413C40.1002 33.7067 40.3375 33.947 40.6276 33.947C40.9177 33.947 41.1551 33.7067 41.1551 33.413C41.1551 33.1192 40.9177 32.8789 40.6276 32.8789Z" fill="#947BF2"/>
</svg>
