<svg width="24" height="25" viewBox="0 0 24 25" fill="none" xmlns="http://www.w3.org/2000/svg">
<path d="M4 6.35254L10 12.3525M20 6.35254L14 12.3525M10 12.3525L10.5858 12.9383C11.3668 13.7194 12.6332 13.7194 13.4142 12.9383L14 12.3525M10 12.3525L3.87868 18.4739M14 12.3525L20.1213 18.4739M20.1213 18.4739C20.6642 17.931 21 17.181 21 16.3525V7.35254C21 6.24797 20.1046 5.35254 19 5.35254H5C3.89543 5.35254 3 6.24797 3 7.35254V16.3525C3 17.181 3.33579 17.931 3.87868 18.4739M20.1213 18.4739C19.5784 19.0168 18.8284 19.3525 18 19.3525H6C5.17157 19.3525 4.42157 19.0168 3.87868 18.4739" stroke="#8991B1" stroke-width="1.5" stroke-linecap="round"/>
</svg>
