<svg width="89" height="90" viewBox="0 0 89 90" fill="none" xmlns="http://www.w3.org/2000/svg">
<g clip-path="url(#clip0_2528_9105)">
<path d="M75.4097 75.9966C92.5459 58.8604 92.5459 31.0771 75.4097 13.9409C58.2735 -3.1953 30.4902 -3.1953 13.354 13.9409C-3.78219 31.0771 -3.78219 58.8604 13.354 75.9966C30.4902 93.1328 58.2735 93.1328 75.4097 75.9966Z" stroke="#7558EA" stroke-miterlimit="10"/>
<path d="M70.3687 70.9549C84.7204 56.6032 84.7204 33.3343 70.3687 18.9826C56.0169 4.63081 32.7481 4.63081 18.3963 18.9826C4.04456 33.3343 4.04456 56.6032 18.3963 70.9549C32.7481 85.3067 56.0169 85.3067 70.3687 70.9549Z" stroke="#7558EA" stroke-miterlimit="10"/>
<path d="M68.1342 62.6496C77.8958 49.5295 75.1733 30.9802 62.0532 21.2186C48.9331 11.457 30.3838 14.1796 20.6222 27.2997C10.8606 40.4197 13.5832 58.969 26.7033 68.7306C39.8234 78.4922 58.3726 75.7696 68.1342 62.6496Z" stroke="#7558EA" stroke-miterlimit="10"/>
<path d="M64.9035 54.12C69.953 42.7839 64.8567 29.5008 53.5207 24.4513C42.1846 19.4018 28.9015 24.498 23.8519 35.8341C18.8024 47.1702 23.8987 60.4533 35.2348 65.5028C46.5708 70.5523 59.854 65.4561 64.9035 54.12Z" stroke="#7558EA" stroke-miterlimit="10"/>
<path d="M44.3791 60.3089C52.8511 60.3089 59.7191 53.441 59.7191 44.9689C59.7191 36.4969 52.8511 29.6289 44.3791 29.6289C35.907 29.6289 29.0391 36.4969 29.0391 44.9689C29.0391 53.441 35.907 60.3089 44.3791 60.3089Z" stroke="#7558EA" stroke-miterlimit="10"/>
</g>
<defs>
<clipPath id="clip0_2528_9105">
<rect width="88.77" height="88.77" fill="white" transform="translate(0 0.588867)"/>
</clipPath>
</defs>
</svg>
