<svg width="4" height="17" viewBox="0 0 4 17" fill="none" xmlns="http://www.w3.org/2000/svg">
<path d="M1 14.9727C1 15.5249 1.44772 15.9727 2 15.9727C2.55228 15.9727 3 15.5249 3 14.9727C3 14.4204 2.55228 13.9727 2 13.9727C1.44772 13.9727 1 14.4204 1 14.9727Z" stroke="white" stroke-width="2" stroke-linecap="round" stroke-linejoin="round"/>
<path d="M1 8.97266C1 9.52494 1.44772 9.97266 2 9.97266C2.55228 9.97266 3 9.52494 3 8.97266C3 8.42037 2.55228 7.97266 2 7.97266C1.44772 7.97266 1 8.42037 1 8.97266Z" stroke="white" stroke-width="2" stroke-linecap="round" stroke-linejoin="round"/>
<path d="M1 2.97266C1 3.52494 1.44772 3.97266 2 3.97266C2.55228 3.97266 3 3.52494 3 2.97266C3 2.42037 2.55228 1.97266 2 1.97266C1.44772 1.97266 1 2.42037 1 2.97266Z" stroke="white" stroke-width="2" stroke-linecap="round" stroke-linejoin="round"/>
</svg>
