<svg width="58" height="64" viewBox="0 0 58 64" fill="none" xmlns="http://www.w3.org/2000/svg">
<g clip-path="url(#clip0_2528_9214)">
<path d="M46.2335 1.64354L46.2285 0.643555L57.2884 0.588977L57.2933 1.58896L46.2335 1.64354Z" fill="#7558EA"/>
<path d="M36.9913 7.24901L36.9863 6.24902L57.3161 6.1487L57.321 7.14869L36.9913 7.24901Z" fill="#7558EA"/>
<path d="M26.7491 12.8696L26.7441 11.8696L57.3438 11.7186L57.3487 12.7186L26.7491 12.8696Z" fill="#7558EA"/>
<path d="M16.0674 18.4824L16.0625 17.4824L57.372 17.2786L57.3769 18.2786L16.0674 18.4824Z" fill="#7558EA"/>
<path d="M7.24517 24.0862L7.24023 23.0862L57.3896 22.8387L57.3946 23.8387L7.24517 24.0862Z" fill="#7558EA"/>
<path d="M0.141653 29.6811L0.136719 28.6812L57.426 28.3984L57.431 29.3984L0.141653 29.6811Z" fill="#7558EA"/>
<path d="M0.168997 35.2512L0.164062 34.2512L57.4534 33.9685L57.4583 34.9685L0.168997 35.2512Z" fill="#7558EA"/>
<path d="M7.3272 40.7759L7.32227 39.7759L57.4717 39.5284L57.4766 40.5284L7.3272 40.7759Z" fill="#7558EA"/>
<path d="M16.2042 46.2922L16.1992 45.2922L57.5087 45.0884L57.5137 46.0884L16.2042 46.2922Z" fill="#7558EA"/>
<path d="M26.9424 51.7993L26.9375 50.7993L57.5371 50.6483L57.5421 51.6483L26.9424 51.7993Z" fill="#7558EA"/>
<path d="M37.2393 57.3186L37.2344 56.3186L57.5641 56.2183L57.5691 57.2183L37.2393 57.3186Z" fill="#7558EA"/>
<path d="M46.5362 62.8328L46.5312 61.8328L57.5911 61.7782L57.5961 62.7782L46.5362 62.8328Z" fill="#7558EA"/>
</g>
<defs>
<clipPath id="clip0_2528_9214">
<rect width="62.19" height="57.29" fill="white" transform="matrix(0.00493471 0.999988 0.999988 -0.00493471 0 0.871582)"/>
</clipPath>
</defs>
</svg>
