<svg width="76" height="77" viewBox="0 0 76 77" fill="none" xmlns="http://www.w3.org/2000/svg">
<g clip-path="url(#clip0_2528_9149)">
<path d="M75.4028 75.0635H0.882812V76.0635H75.4028V75.0635Z" fill="#43B0FF"/>
<path d="M75.4028 68.2837H0.882812V69.2837H75.4028V68.2837Z" fill="#43B0FF"/>
<path d="M75.4028 61.5137H0.882812V62.5137H75.4028V61.5137Z" fill="#43B0FF"/>
<path d="M75.4028 54.7334H0.882812V55.7334H75.4028V54.7334Z" fill="#43B0FF"/>
<path d="M75.4028 47.9634H0.882812V48.9634H75.4028V47.9634Z" fill="#43B0FF"/>
<path d="M75.4028 41.1934H0.882812V42.1934H75.4028V41.1934Z" fill="#43B0FF"/>
<path d="M75.4028 34.4136H0.882812V35.4136H75.4028V34.4136Z" fill="#43B0FF"/>
<path d="M75.4028 27.6436H0.882812V28.6436H75.4028V27.6436Z" fill="#43B0FF"/>
<path d="M75.4028 20.8633H0.882812V21.8633H75.4028V20.8633Z" fill="#43B0FF"/>
<path d="M75.4028 14.0933H0.882812V15.0933H75.4028V14.0933Z" fill="#43B0FF"/>
<path d="M75.4028 7.31348H0.882812V8.31348H75.4028V7.31348Z" fill="#43B0FF"/>
<path d="M75.4028 0.543457H0.882812V1.54346H75.4028V0.543457Z" fill="#43B0FF"/>
</g>
<defs>
<clipPath id="clip0_2528_9149">
<rect width="74.52" height="75.52" fill="white" transform="translate(0.882812 0.543457)"/>
</clipPath>
</defs>
</svg>
