<svg width="64" height="79" viewBox="0 0 64 79" fill="none" xmlns="http://www.w3.org/2000/svg">
<g clip-path="url(#clip0_2528_9111)">
<path d="M61.6102 72.5975C62.8252 72.5975 63.8102 71.6125 63.8102 70.3975C63.8102 69.1825 62.8252 68.1975 61.6102 68.1975C60.3951 68.1975 59.4102 69.1825 59.4102 70.3975C59.4102 71.6125 60.3951 72.5975 61.6102 72.5975Z" fill="#BBB9BA"/>
<path d="M61.6102 59.0758C62.8252 59.0758 63.8102 58.0908 63.8102 56.8758C63.8102 55.6608 62.8252 54.6758 61.6102 54.6758C60.3951 54.6758 59.4102 55.6608 59.4102 56.8758C59.4102 58.0908 60.3951 59.0758 61.6102 59.0758Z" fill="#BBB9BA"/>
<path d="M61.6102 45.5541C62.8252 45.5541 63.8102 44.5691 63.8102 43.3541C63.8102 42.139 62.8252 41.1541 61.6102 41.1541C60.3951 41.1541 59.4102 42.139 59.4102 43.3541C59.4102 44.5691 60.3951 45.5541 61.6102 45.5541Z" fill="#BBB9BA"/>
<path d="M59.4102 29.8323C59.4102 31.0523 60.4002 32.0323 61.6102 32.0323C62.8202 32.0323 63.8102 31.0423 63.8102 29.8323C63.8102 28.6223 62.8202 27.6323 61.6102 27.6323C60.4002 27.6323 59.4102 28.6223 59.4102 29.8323Z" fill="#BBB9BA"/>
<path d="M59.4102 16.3106C59.4102 17.5306 60.4002 18.5106 61.6102 18.5106C62.8202 18.5106 63.8102 17.5206 63.8102 16.3106C63.8102 15.1006 62.8202 14.1106 61.6102 14.1106C60.4002 14.1106 59.4102 15.1006 59.4102 16.3106Z" fill="#BBB9BA"/>
<path d="M61.6102 4.98887C62.8252 4.98887 63.8102 4.00389 63.8102 2.78887C63.8102 1.57384 62.8252 0.588867 61.6102 0.588867C60.3951 0.588867 59.4102 1.57384 59.4102 2.78887C59.4102 4.00389 60.3951 4.98887 61.6102 4.98887Z" fill="#BBB9BA"/>
<path d="M49.7293 72.5975C50.9443 72.5975 51.9293 71.6125 51.9293 70.3975C51.9293 69.1825 50.9443 68.1975 49.7293 68.1975C48.5143 68.1975 47.5293 69.1825 47.5293 70.3975C47.5293 71.6125 48.5143 72.5975 49.7293 72.5975Z" fill="#BBB9BA"/>
<path d="M49.7293 59.0758C50.9443 59.0758 51.9293 58.0908 51.9293 56.8758C51.9293 55.6608 50.9443 54.6758 49.7293 54.6758C48.5143 54.6758 47.5293 55.6608 47.5293 56.8758C47.5293 58.0908 48.5143 59.0758 49.7293 59.0758Z" fill="#BBB9BA"/>
<path d="M49.7293 45.5541C50.9443 45.5541 51.9293 44.5691 51.9293 43.3541C51.9293 42.139 50.9443 41.1541 49.7293 41.1541C48.5143 41.1541 47.5293 42.139 47.5293 43.3541C47.5293 44.5691 48.5143 45.5541 49.7293 45.5541Z" fill="#BBB9BA"/>
<path d="M47.5293 29.8323C47.5293 31.0523 48.5193 32.0323 49.7293 32.0323C50.9393 32.0323 51.9293 31.0423 51.9293 29.8323C51.9293 28.6223 50.9393 27.6323 49.7293 27.6323C48.5193 27.6323 47.5293 28.6223 47.5293 29.8323Z" fill="#BBB9BA"/>
<path d="M47.5293 16.3106C47.5293 17.5306 48.5193 18.5106 49.7293 18.5106C50.9393 18.5106 51.9293 17.5206 51.9293 16.3106C51.9293 15.1006 50.9393 14.1106 49.7293 14.1106C48.5193 14.1106 47.5293 15.1006 47.5293 16.3106Z" fill="#BBB9BA"/>
<path d="M49.7293 4.98887C50.9443 4.98887 51.9293 4.00389 51.9293 2.78887C51.9293 1.57384 50.9443 0.588867 49.7293 0.588867C48.5143 0.588867 47.5293 1.57384 47.5293 2.78887C47.5293 4.00389 48.5143 4.98887 49.7293 4.98887Z" fill="#BBB9BA"/>
<path d="M35.6406 70.3975C35.6406 71.6175 36.6306 72.5975 37.8406 72.5975C39.0506 72.5975 40.0406 71.6075 40.0406 70.3975C40.0406 69.1875 39.0506 68.1975 37.8406 68.1975C36.6306 68.1975 35.6406 69.1875 35.6406 70.3975Z" fill="#BBB9BA"/>
<path d="M35.6406 56.8758C35.6406 58.0958 36.6306 59.0758 37.8406 59.0758C39.0506 59.0758 40.0406 58.0858 40.0406 56.8758C40.0406 55.6658 39.0506 54.6758 37.8406 54.6758C36.6306 54.6758 35.6406 55.6658 35.6406 56.8758Z" fill="#BBB9BA"/>
<path d="M35.6406 43.3541C35.6406 44.5741 36.6306 45.5541 37.8406 45.5541C39.0506 45.5541 40.0406 44.5641 40.0406 43.3541C40.0406 42.1441 39.0506 41.1541 37.8406 41.1541C36.6306 41.1541 35.6406 42.1441 35.6406 43.3541Z" fill="#BBB9BA"/>
<path d="M35.6406 29.8323C35.6406 31.0523 36.6306 32.0323 37.8406 32.0323C39.0506 32.0323 40.0406 31.0423 40.0406 29.8323C40.0406 28.6223 39.0506 27.6323 37.8406 27.6323C36.6306 27.6323 35.6406 28.6223 35.6406 29.8323Z" fill="#BBB9BA"/>
<path d="M35.6406 16.3106C35.6406 17.5306 36.6306 18.5106 37.8406 18.5106C39.0506 18.5106 40.0406 17.5206 40.0406 16.3106C40.0406 15.1006 39.0506 14.1106 37.8406 14.1106C36.6306 14.1106 35.6406 15.1006 35.6406 16.3106Z" fill="#BBB9BA"/>
<path d="M35.6406 2.78887C35.6406 4.00887 36.6306 4.98887 37.8406 4.98887C39.0506 4.98887 40.0406 3.99887 40.0406 2.78887C40.0406 1.57887 39.0506 0.588867 37.8406 0.588867C36.6306 0.588867 35.6406 1.57887 35.6406 2.78887Z" fill="#BBB9BA"/>
<path d="M25.9695 72.5975C27.1846 72.5975 28.1695 71.6125 28.1695 70.3975C28.1695 69.1825 27.1846 68.1975 25.9695 68.1975C24.7545 68.1975 23.7695 69.1825 23.7695 70.3975C23.7695 71.6125 24.7545 72.5975 25.9695 72.5975Z" fill="#BBB9BA"/>
<path d="M25.9695 59.0758C27.1846 59.0758 28.1695 58.0908 28.1695 56.8758C28.1695 55.6608 27.1846 54.6758 25.9695 54.6758C24.7545 54.6758 23.7695 55.6608 23.7695 56.8758C23.7695 58.0908 24.7545 59.0758 25.9695 59.0758Z" fill="#BBB9BA"/>
<path d="M25.9695 45.5541C27.1846 45.5541 28.1695 44.5691 28.1695 43.3541C28.1695 42.139 27.1846 41.1541 25.9695 41.1541C24.7545 41.1541 23.7695 42.139 23.7695 43.3541C23.7695 44.5691 24.7545 45.5541 25.9695 45.5541Z" fill="#BBB9BA"/>
<path d="M23.7598 29.8323C23.7598 31.0523 24.7498 32.0323 25.9598 32.0323C27.1698 32.0323 28.1598 31.0423 28.1598 29.8323C28.1598 28.6223 27.1698 27.6323 25.9598 27.6323C24.7498 27.6323 23.7598 28.6223 23.7598 29.8323Z" fill="#BBB9BA"/>
<path d="M23.7598 16.3106C23.7598 17.5306 24.7498 18.5106 25.9598 18.5106C27.1698 18.5106 28.1598 17.5206 28.1598 16.3106C28.1598 15.1006 27.1698 14.1106 25.9598 14.1106C24.7498 14.1106 23.7598 15.1006 23.7598 16.3106Z" fill="#BBB9BA"/>
<path d="M25.9695 4.98887C27.1846 4.98887 28.1695 4.00389 28.1695 2.78887C28.1695 1.57384 27.1846 0.588867 25.9695 0.588867C24.7545 0.588867 23.7695 1.57384 23.7695 2.78887C23.7695 4.00389 24.7545 4.98887 25.9695 4.98887Z" fill="#BBB9BA"/>
<path d="M14.0809 72.5975C15.2959 72.5975 16.2809 71.6125 16.2809 70.3975C16.2809 69.1825 15.2959 68.1975 14.0809 68.1975C12.8658 68.1975 11.8809 69.1825 11.8809 70.3975C11.8809 71.6125 12.8658 72.5975 14.0809 72.5975Z" fill="#BBB9BA"/>
<path d="M14.0809 59.0758C15.2959 59.0758 16.2809 58.0908 16.2809 56.8758C16.2809 55.6608 15.2959 54.6758 14.0809 54.6758C12.8658 54.6758 11.8809 55.6608 11.8809 56.8758C11.8809 58.0908 12.8658 59.0758 14.0809 59.0758Z" fill="#BBB9BA"/>
<path d="M14.0809 45.5541C15.2959 45.5541 16.2809 44.5691 16.2809 43.3541C16.2809 42.139 15.2959 41.1541 14.0809 41.1541C12.8658 41.1541 11.8809 42.139 11.8809 43.3541C11.8809 44.5691 12.8658 45.5541 14.0809 45.5541Z" fill="#BBB9BA"/>
<path d="M11.8809 29.8323C11.8809 31.0523 12.8709 32.0323 14.0809 32.0323C15.2909 32.0323 16.2809 31.0423 16.2809 29.8323C16.2809 28.6223 15.2909 27.6323 14.0809 27.6323C12.8709 27.6323 11.8809 28.6223 11.8809 29.8323Z" fill="#BBB9BA"/>
<path d="M11.8809 16.3106C11.8809 17.5306 12.8709 18.5106 14.0809 18.5106C15.2909 18.5106 16.2809 17.5206 16.2809 16.3106C16.2809 15.1006 15.2909 14.1106 14.0809 14.1106C12.8709 14.1106 11.8809 15.1006 11.8809 16.3106Z" fill="#BBB9BA"/>
<path d="M14.0809 4.98887C15.2959 4.98887 16.2809 4.00389 16.2809 2.78887C16.2809 1.57384 15.2959 0.588867 14.0809 0.588867C12.8658 0.588867 11.8809 1.57384 11.8809 2.78887C11.8809 4.00389 12.8658 4.98887 14.0809 4.98887Z" fill="#BBB9BA"/>
<path d="M0 70.3975C0 71.6175 0.99 72.5975 2.2 72.5975C3.41 72.5975 4.4 71.6075 4.4 70.3975C4.4 69.1875 3.41 68.1975 2.2 68.1975C0.99 68.1975 0 69.1875 0 70.3975Z" fill="#BBB9BA"/>
<path d="M0 56.8758C0 58.0958 0.99 59.0758 2.2 59.0758C3.41 59.0758 4.4 58.0858 4.4 56.8758C4.4 55.6658 3.41 54.6758 2.2 54.6758C0.99 54.6758 0 55.6658 0 56.8758Z" fill="#BBB9BA"/>
<path d="M0 43.3541C0 44.5741 0.99 45.5541 2.2 45.5541C3.41 45.5541 4.4 44.5641 4.4 43.3541C4.4 42.1441 3.41 41.1541 2.2 41.1541C0.99 41.1541 0 42.1441 0 43.3541Z" fill="#BBB9BA"/>
<path d="M0 29.8323C0 31.0523 0.99 32.0323 2.2 32.0323C3.41 32.0323 4.4 31.0423 4.4 29.8323C4.4 28.6223 3.41 27.6323 2.2 27.6323C0.99 27.6323 0 28.6223 0 29.8323Z" fill="#BBB9BA"/>
<path d="M0 16.3106C0 17.5306 0.99 18.5106 2.2 18.5106C3.41 18.5106 4.4 17.5206 4.4 16.3106C4.4 15.1006 3.41 14.1106 2.2 14.1106C0.99 14.1106 0 15.1006 0 16.3106Z" fill="#BBB9BA"/>
<path d="M0 2.78887C0 4.00887 0.99 4.98887 2.2 4.98887C3.41 4.98887 4.4 3.99887 4.4 2.78887C4.4 1.57887 3.42 0.588867 2.2 0.588867C0.98 0.588867 0 1.57887 0 2.78887Z" fill="#BBB9BA"/>
</g>
<defs>
<clipPath id="clip0_2528_9111">
<rect width="63.81" height="78.04" fill="white" transform="translate(0 0.588867)"/>
</clipPath>
</defs>
</svg>
