<svg width="251" height="209" viewBox="0 0 251 209" fill="none" xmlns="http://www.w3.org/2000/svg">
<path d="M134.784 32.6621L131.669 28.1331L131.257 28.4164L128.142 23.8875L128.554 23.6041L125.439 19.0752L125.027 19.3585L123.47 17.094L123.469 17.0929C122.905 16.2681 122.311 15.4703 121.688 14.7008L122.076 14.3861C120.799 12.8089 119.404 11.3485 117.908 10.0143L117.575 10.3875C116.086 9.05907 114.495 7.8575 112.822 6.79225L113.09 6.37043C111.389 5.28767 109.602 4.34389 107.749 3.54881L107.552 4.00832C105.728 3.22613 103.839 2.58982 101.903 2.1089L102.023 1.62363C100.078 1.14067 98.0852 0.812299 96.0621 0.647885L96.0216 1.14624C95.0348 1.06605 94.0407 1.02539 93.0413 1.02539H89.6385V0.525391H82.8328V1.02539H76.0271V0.525391H69.2215V1.02539H62.4158V0.525391H55.6101V1.02539H48.8044V0.525391H41.9987V1.02539H35.1931V0.525391H28.3874V1.02539H24.9845C23.9196 1.02539 22.8693 1.09607 21.8383 1.23293L21.7725 0.737273C19.6106 1.02424 17.5311 1.59622 15.5745 2.41355L15.7672 2.87491C13.8138 3.69089 11.9849 4.75665 10.3225 6.03124L10.0183 5.63445C8.3127 6.94218 6.77932 8.46511 5.4616 10.1605L5.85638 10.4674C4.57005 12.1224 3.49376 13.9447 2.66934 15.8927L2.20888 15.6978C1.38234 17.6509 0.803544 19.7283 0.513165 21.8901L1.00871 21.9566C0.870331 22.9869 0.798828 24.0368 0.798828 25.1019V28.7105H0.298828V35.9275H0.798828V43.1446H0.298828V50.3617H0.798828V57.5788H0.298828V64.7958H0.798828V72.0129H0.298828V79.23H0.798828V86.4471H0.298828V93.6641H0.798828V100.881H0.298828V108.098H0.798828V115.315H0.298828V122.532H0.798828V129.749H0.298828V136.967H0.798828V144.184H0.298828V151.401H0.798828V158.618H0.298828V165.835H0.798828V173.052H0.298828V180.269H0.798828V183.878C0.798828 184.944 0.870447 185.995 1.00906 187.027L0.51351 187.093C0.804066 189.256 1.38292 191.337 2.20942 193.294L2.67003 193.099C3.49392 195.05 4.56927 196.876 5.85433 198.536L5.45899 198.842C6.77546 200.543 8.3073 202.071 10.0112 203.384L10.3164 202.988C11.9783 204.269 13.8069 205.341 15.7599 206.162L15.5661 206.623C17.524 207.446 19.6051 208.022 21.7687 208.312L21.835 207.816C22.8671 207.954 23.9184 208.025 24.9845 208.025H28.5672V208.525H35.7325V208.025H42.8978V208.525H50.0631V208.025H57.2284V208.525H64.3937V208.025H71.559V208.525H78.7243V208.025H85.8896V208.525H93.0549V208.025H100.22V208.525H107.386V208.025H114.551V208.525H121.716V208.025H128.881V208.525H136.047V208.025H143.212V208.525H150.377V208.025H157.543V208.525H164.708V208.025H171.873V208.525H179.039V208.025H186.204V208.525H193.369V208.025H200.535V208.525H207.7V208.025H214.865V208.525H222.031V208.025H225.613C226.679 208.025 227.731 207.954 228.763 207.816L228.829 208.312C230.993 208.022 233.074 207.446 235.032 206.623L234.838 206.162C236.791 205.341 238.619 204.269 240.281 202.988L240.586 203.384C242.29 202.071 243.822 200.543 245.139 198.842L244.743 198.536C246.028 196.876 247.104 195.05 247.928 193.099L248.388 193.294C249.215 191.337 249.794 189.256 250.084 187.093L249.589 187.027C249.727 185.995 249.799 184.944 249.799 183.878V180.216H250.299V172.893H249.799V165.571H250.299V158.248H249.799V150.925H250.299V143.602H249.799V136.279H250.299V128.956H249.799V121.634H250.299V114.311H249.799V106.988H250.299V99.6653H249.799V92.3425H250.299V85.0196H249.799V77.6968H250.299V70.374H249.799V66.7126C249.799 65.6476 249.727 64.5978 249.589 63.5677L250.085 63.5011C249.794 61.3394 249.215 59.2623 248.389 57.3096L247.928 57.5044C247.104 55.5567 246.028 53.7347 244.741 52.0801L245.136 51.7732C243.818 50.0782 242.284 48.5557 240.579 47.2484L240.275 47.6453C238.612 46.3712 236.783 45.306 234.83 44.4904L235.022 44.029C233.066 43.2121 230.987 42.6405 228.825 42.3538L228.759 42.8494C227.728 42.7127 226.678 42.642 225.613 42.642H221.83V42.142H214.263V42.642H206.697V42.142H199.131V42.642H191.564V42.142H183.998V42.642H176.431V42.142H168.865V42.642H161.298V42.142H153.732V42.642H149.949C148.552 42.642 147.181 42.4708 145.86 42.1424L145.981 41.6572C143.375 41.009 140.973 39.7298 138.974 37.9347L138.64 38.3067C137.627 37.3977 136.715 36.3604 135.929 35.2092C135.928 35.209 135.928 35.2089 135.928 35.2087L134.372 32.9454L134.784 32.6621Z" stroke="#898991" stroke-opacity="0.694118" stroke-dasharray="7 7"/>
</svg>
