<svg width="85" height="24" viewBox="0 0 85 24" fill="none" xmlns="http://www.w3.org/2000/svg">
<g clip-path="url(#clip0_2528_9166)">
<path d="M84.24 23.1789C79.56 23.1789 79.56 18.1289 74.88 18.1289C70.2 18.1289 70.2 23.1789 65.52 23.1789C60.84 23.1789 60.84 18.1289 56.16 18.1289C51.48 18.1289 51.48 23.1789 46.8 23.1789C42.12 23.1789 42.12 18.1289 37.44 18.1289C32.76 18.1289 32.76 23.1789 28.08 23.1789C23.4 23.1789 23.4 18.1289 18.72 18.1289C14.04 18.1289 14.04 23.1789 9.35 23.1789C4.66 23.1789 4.68 18.1289 0 18.1289" stroke="#BBB9BA" stroke-miterlimit="10"/>
<path d="M84.24 14.6589C79.56 14.6589 79.56 9.60889 74.88 9.60889C70.2 9.60889 70.2 14.6589 65.52 14.6589C60.84 14.6589 60.84 9.60889 56.16 9.60889C51.48 9.60889 51.48 14.6589 46.8 14.6589C42.12 14.6589 42.12 9.60889 37.44 9.60889C32.76 9.60889 32.76 14.6589 28.08 14.6589C23.4 14.6589 23.4 9.60889 18.72 9.60889C14.04 9.60889 14.04 14.6589 9.35 14.6589C4.66 14.6589 4.68 9.60889 0 9.60889" stroke="#BBB9BA" stroke-miterlimit="10"/>
<path d="M84.24 6.13887C79.56 6.13887 79.56 1.08887 74.88 1.08887C70.2 1.08887 70.2 6.13887 65.52 6.13887C60.84 6.13887 60.85 1.08887 56.17 1.08887C51.49 1.08887 51.49 6.13887 46.81 6.13887C42.13 6.13887 42.13 1.08887 37.45 1.08887C32.77 1.08887 32.77 6.13887 28.09 6.13887C23.41 6.13887 23.41 1.08887 18.73 1.08887C14.05 1.08887 14.05 6.13887 9.36 6.13887C4.67 6.13887 4.68 1.08887 0 1.08887" stroke="#BBB9BA" stroke-miterlimit="10"/>
</g>
<defs>
<clipPath id="clip0_2528_9166">
<rect width="84.24" height="23.09" fill="white" transform="translate(0 0.588867)"/>
</clipPath>
</defs>
</svg>
