<svg width="54" height="41" viewBox="0 0 54 41" fill="none" xmlns="http://www.w3.org/2000/svg">
<g opacity="0.13">
<ellipse opacity="0.2" cx="13.7357" cy="14.5594" rx="13.7357" ry="14.5594" transform="matrix(1 0 0 -1 0.960938 40.99)" fill="white"/>
<ellipse opacity="0.2" cx="13.7357" cy="14.5594" rx="13.7357" ry="14.5594" transform="matrix(1 0 0 -1 26.0273 29.5251)" fill="white"/>
</g>
<path fill-rule="evenodd" clip-rule="evenodd" d="M20.2729 2.74595C20.0686 2.00044 19.8023 1.4387 19.5201 1.12855C19.2698 0.853765 18.9909 0.731445 18.715 0.731445C18.439 0.731445 18.1602 0.853765 17.9098 1.12855C17.6276 1.43812 17.3613 1.99986 17.1571 2.74595C16.4947 2.36566 15.9172 2.16044 15.5024 2.14479C15.1348 2.13087 14.8526 2.24566 14.6574 2.44392C14.4623 2.64276 14.3502 2.92972 14.3638 3.3048C14.3792 3.72741 14.5806 4.31582 14.9539 4.9906C14.2221 5.19872 13.6708 5.47003 13.3669 5.75757C13.0972 6.01264 12.9772 6.2967 12.9772 6.57786C12.9772 6.85902 13.0972 7.1425 13.3669 7.39758C13.6708 7.68511 14.2221 7.95642 14.9544 8.16454C14.5812 8.83932 14.3798 9.42773 14.3644 9.85034C14.3507 10.2254 14.4628 10.5124 14.658 10.7112C14.8532 10.9101 15.1348 11.0243 15.503 11.0104C15.9178 10.9947 16.4953 10.7889 17.1576 10.4092C17.3619 11.1547 17.6282 11.7164 17.9104 12.0266C18.1608 12.3014 18.4396 12.4237 18.7155 12.4237C18.9915 12.4237 19.2703 12.3014 19.5207 12.0266C19.8029 11.717 20.0692 11.1553 20.2735 10.4098C20.9352 10.7895 21.5133 10.9953 21.9281 11.0109C22.2957 11.0248 22.5779 10.9101 22.7731 10.7118C22.9683 10.513 23.0803 10.226 23.0667 9.85093C23.0513 9.42831 22.8493 8.8399 22.4766 8.16512C23.2084 7.957 23.7597 7.68569 24.0636 7.39816C24.3333 7.14308 24.4533 6.85902 24.4533 6.57786C24.4533 6.2967 24.3333 6.01264 24.0636 5.75757C23.7597 5.47003 23.2084 5.19872 22.4766 4.9906C22.8493 4.31582 23.0513 3.72741 23.0667 3.3048C23.0803 2.92972 22.9677 2.64276 22.7731 2.44392C22.5779 2.24508 22.2963 2.13087 21.9281 2.14479C21.5133 2.16044 20.9346 2.36624 20.2729 2.74595ZM18.715 1.75464C18.7343 1.76913 18.769 1.7958 18.7907 1.81899C18.8578 1.89319 18.921 1.99116 18.9818 2.10827C19.1747 2.47696 19.3352 3.00624 19.4592 3.64451C19.4917 3.81089 19.6032 3.95002 19.7568 4.01495C19.9104 4.07987 20.0863 4.0619 20.2245 3.96741C20.7548 3.60567 21.2356 3.34711 21.6283 3.22479C21.7529 3.18653 21.865 3.16161 21.964 3.15813C21.9953 3.15697 22.0385 3.16335 22.0624 3.16682C22.0664 3.19059 22.0726 3.23523 22.0709 3.26711C22.0675 3.36856 22.0436 3.48277 22.0055 3.60972C21.886 4.00915 21.6322 4.49959 21.2766 5.0393C21.1839 5.18017 21.1668 5.3593 21.23 5.51582C21.2937 5.67293 21.4302 5.78655 21.5936 5.81959C22.22 5.94597 22.7395 6.10945 23.1014 6.3054C23.2163 6.368 23.3125 6.43177 23.3853 6.50076C23.4081 6.52279 23.4348 6.55757 23.4485 6.57786C23.4343 6.59757 23.4081 6.63293 23.3853 6.65438C23.3125 6.72337 23.2158 6.78714 23.1014 6.84975C22.7395 7.04569 22.22 7.20975 21.5936 7.33555C21.4302 7.36859 21.2937 7.48221 21.23 7.63932C21.1668 7.79584 21.1839 7.97497 21.2766 8.11584C21.6322 8.65614 21.886 9.14599 22.0055 9.54542C22.0431 9.67237 22.0675 9.78658 22.0709 9.88803C22.0721 9.91991 22.0664 9.96397 22.0624 9.98832C22.0391 9.9918 21.9953 9.99817 21.964 9.99701C21.865 9.99354 21.7529 9.96919 21.6283 9.93035C21.2362 9.80803 20.7548 9.54947 20.2245 9.18773C20.0863 9.09324 19.9104 9.07527 19.7568 9.14019C19.6032 9.20512 19.4911 9.34425 19.4592 9.51063C19.3352 10.1489 19.1747 10.6782 18.9818 11.0469C18.921 11.164 18.8578 11.2619 18.7907 11.3362C18.769 11.3593 18.7343 11.3866 18.715 11.4005C18.6956 11.386 18.6604 11.3593 18.6393 11.3362C18.5722 11.2619 18.509 11.164 18.4481 11.0469C18.2552 10.6782 18.0948 10.1489 17.9707 9.51063C17.9383 9.34425 17.8268 9.20512 17.6731 9.14019C17.5189 9.07527 17.3437 9.09324 17.2054 9.18773C16.6751 9.54947 16.1943 9.80803 15.8017 9.93035C15.6771 9.96861 15.565 9.99354 15.466 9.99701C15.4347 9.99817 15.3914 9.9918 15.3675 9.98832C15.3636 9.96455 15.3573 9.91991 15.359 9.88803C15.3624 9.78658 15.3863 9.67237 15.4244 9.54542C15.5439 9.14599 15.7977 8.65556 16.1533 8.11584C16.2461 7.97497 16.2632 7.79584 16.1994 7.63932C16.1357 7.48221 15.9991 7.36859 15.8358 7.33555C15.2099 7.20917 14.6899 7.04569 14.328 6.84975C14.213 6.78714 14.1169 6.72337 14.044 6.65438C14.0213 6.63235 13.9945 6.59757 13.9809 6.57786C13.9951 6.55815 14.0213 6.52221 14.044 6.50076C14.1169 6.43235 14.213 6.368 14.328 6.3054C14.6899 6.10945 15.2094 5.94539 15.8358 5.81959C15.9991 5.78655 16.1357 5.67293 16.1994 5.51582C16.2632 5.3593 16.2461 5.18017 16.1533 5.0393C15.7977 4.49901 15.5439 4.00915 15.4244 3.60972C15.3863 3.48277 15.3624 3.36856 15.359 3.26711C15.3579 3.23523 15.3636 3.19117 15.3675 3.16682C15.3909 3.16335 15.4347 3.15697 15.466 3.15813C15.565 3.16161 15.6771 3.18595 15.8017 3.22479C16.1937 3.34711 16.6751 3.60567 17.2054 3.96741C17.3437 4.0619 17.5189 4.07987 17.6731 4.01495C17.8268 3.95002 17.9389 3.81089 17.9707 3.64451C18.0948 3.00624 18.2552 2.47696 18.4481 2.10827C18.509 1.99116 18.5722 1.89319 18.6393 1.81899C18.6609 1.7958 18.6956 1.76855 18.715 1.75464Z" fill="#947BF2"/>
<path fill-rule="evenodd" clip-rule="evenodd" d="M17.0876 6.5779C17.0876 7.49269 17.8171 8.23588 18.7149 8.23588C19.6128 8.23588 20.3423 7.49269 20.3423 6.5779C20.3423 5.66311 19.6128 4.91934 18.7149 4.91934C18.4401 4.91934 18.2171 5.14717 18.2171 5.42659C18.2171 5.70601 18.4401 5.93384 18.7149 5.93384C19.0632 5.93384 19.3465 6.22254 19.3465 6.57732C19.3465 6.93211 19.0632 7.2208 18.7149 7.2208C18.3667 7.2208 18.0833 6.93211 18.0833 6.57732C18.0833 6.29732 17.8603 6.07007 17.5855 6.07007C17.3106 6.07007 17.0876 6.2979 17.0876 6.5779Z" fill="#947BF2"/>
<path fill-rule="evenodd" clip-rule="evenodd" d="M24.8123 21.0093C24.2502 16.6609 22.8066 12.7397 20.3497 9.31067C20.1875 9.08458 19.8763 9.03531 19.6544 9.20053C19.4324 9.36574 19.3835 9.68285 19.5457 9.90952C21.9048 13.2011 23.2857 16.9675 23.8257 21.1426C23.8615 21.4203 24.1119 21.6157 24.3845 21.5792C24.657 21.5426 24.8488 21.2876 24.8129 21.0099L24.8123 21.0093Z" fill="#947BF2"/>
<path fill-rule="evenodd" clip-rule="evenodd" d="M21.4291 14.7293C20.9187 14.4887 20.348 14.2985 19.7369 14.2208C18.3132 14.0406 16.9721 14.5142 16.1413 14.92C16.1391 14.9211 16.1368 14.9223 16.1345 14.9235C15.7908 15.098 15.5564 15.4359 15.5086 15.8238C15.4608 16.2116 15.6076 16.5977 15.8984 16.8527C15.9007 16.8551 15.9024 16.8562 15.9046 16.858C16.6125 17.4586 17.7988 18.2533 19.2225 18.4336C21.5605 18.7304 23.7238 17.2516 23.7238 17.2516C23.952 17.0951 24.0118 16.7797 23.8581 16.5478C23.7045 16.3159 23.395 16.2545 23.1674 16.411C23.1674 16.411 21.3323 17.6794 19.346 17.4272C18.1425 17.2748 17.1468 16.5907 16.5465 16.0823C16.5095 16.0493 16.4913 15.9994 16.4975 15.949C16.5038 15.9009 16.5311 15.8585 16.5726 15.8348C17.2811 15.4893 18.4117 15.0748 19.6145 15.2272C20.1187 15.2916 20.5892 15.4504 21.0109 15.6493C21.2601 15.7669 21.5565 15.6562 21.672 15.4023C21.7875 15.1484 21.6789 14.8464 21.4296 14.7287L21.4291 14.7293Z" fill="#947BF2"/>
<path fill-rule="evenodd" clip-rule="evenodd" d="M25.3506 17.022C25.8587 16.8481 26.3953 16.5791 26.8733 16.1716C27.6454 15.5125 28.0943 14.6168 28.3396 13.9229C28.3396 13.9223 28.3396 13.9217 28.3402 13.9211C28.4756 13.5327 28.3993 13.1003 28.1399 12.7843C27.8804 12.4684 27.4758 12.3159 27.077 12.3837C27.0764 12.3837 27.0758 12.3837 27.0747 12.3837C26.3612 12.5084 25.4172 12.8011 24.6445 13.4603C23.1958 14.6968 22.9506 16.7733 22.9506 16.7733C22.9181 17.0516 23.1144 17.3038 23.387 17.3362C23.6601 17.3693 23.9076 17.1699 23.9395 16.8916C23.9395 16.8916 24.1256 15.2267 25.284 14.2382C25.9043 13.7084 26.6673 13.4846 27.2408 13.3843C27.2915 13.3762 27.3433 13.3953 27.3768 13.4359C27.4098 13.4765 27.4195 13.5316 27.4024 13.5814C27.205 14.1391 26.8545 14.8655 26.2337 15.3942C25.857 15.7154 25.432 15.924 25.0326 16.0609C24.7719 16.1501 24.632 16.4377 24.7196 16.7032C24.8072 16.9687 25.0906 17.1113 25.3506 17.022Z" fill="#947BF2"/>
<path fill-rule="evenodd" clip-rule="evenodd" d="M30.5729 11.3565C30.5729 11.3565 30.5729 11.3576 30.5735 11.3582C30.8181 12.051 31.266 12.9432 32.0358 13.5994C33.4782 14.8301 35.4743 14.7646 35.4743 14.7646C35.6137 14.76 35.744 14.6962 35.835 14.5884C35.9261 14.4806 35.9682 14.3397 35.9517 14.1988C35.9517 14.1988 35.7076 12.1263 34.2612 10.8927C33.4913 10.2353 32.5508 9.94314 31.8389 9.81908C31.8384 9.81908 31.8378 9.81908 31.8367 9.81908C31.4372 9.75125 31.0327 9.90314 30.7726 10.2197C30.5126 10.5356 30.4369 10.9681 30.5723 11.3571L30.5729 11.3565ZM31.5106 11.015C31.4936 10.9652 31.5032 10.9101 31.5362 10.8695C31.5692 10.8289 31.621 10.8098 31.6722 10.8179C32.2446 10.9182 33.0037 11.142 33.6222 11.6695C34.3334 12.2765 34.6771 13.1391 34.8364 13.713C34.2629 13.6394 33.3855 13.4272 32.6754 12.8214C32.0574 12.2945 31.7081 11.5716 31.5106 11.015Z" fill="#947BF2"/>
<path fill-rule="evenodd" clip-rule="evenodd" d="M35.6501 14.7646C35.6501 14.7646 37.6456 14.8307 39.0886 13.5994C39.8584 12.9426 40.3062 12.051 40.5509 11.3582C40.5509 11.3576 40.5515 11.3571 40.5515 11.3565C40.6875 10.9681 40.6112 10.5356 40.3512 10.2191C40.0912 9.90256 39.6866 9.75009 39.2872 9.8185C39.2866 9.8185 39.286 9.8185 39.2849 9.8185C38.746 9.91241 38.074 10.102 37.4464 10.4759C37.2092 10.6168 37.1289 10.9275 37.2672 11.1692C37.406 11.411 37.711 11.4927 37.9483 11.3518C38.461 11.0475 39.0106 10.8962 39.4516 10.8185C39.5022 10.8104 39.554 10.8295 39.5876 10.8701C39.6206 10.9107 39.6303 10.9658 39.6132 11.0156C39.4163 11.5721 39.067 12.2945 38.4485 12.822C37.2894 13.811 35.6837 13.7507 35.6837 13.7507C35.4088 13.7414 35.1784 13.9606 35.1687 14.2406C35.1596 14.52 35.3753 14.7553 35.6501 14.7646Z" fill="#947BF2"/>
<path fill-rule="evenodd" clip-rule="evenodd" d="M31.5083 4.09672C31.5083 4.09672 31.5083 4.09788 31.5089 4.09846C31.7536 4.79064 32.2014 5.68282 32.9712 6.33964C34.4137 7.57037 36.4097 7.50486 36.4097 7.50486C36.5491 7.50022 36.6794 7.43588 36.7705 7.32805C36.8615 7.22022 36.9036 7.07935 36.8871 6.93848C36.8871 6.93848 36.643 4.866 35.1966 3.63237C34.4268 2.97556 33.4868 2.6828 32.7744 2.55874C32.7738 2.55874 32.7732 2.55874 32.7721 2.55874C32.3727 2.49092 31.9681 2.64338 31.7081 2.95933C31.448 3.27527 31.3729 3.70832 31.5083 4.09672ZM32.4461 3.75527C32.429 3.70542 32.4387 3.65034 32.4717 3.60976C32.5047 3.56918 32.5564 3.55005 32.6077 3.55817C33.1801 3.65846 33.9391 3.88223 34.5576 4.40919C35.2689 5.01615 35.6125 5.87876 35.7719 6.45268C35.1983 6.37906 34.3209 6.16688 33.6108 5.56108C32.9929 5.03354 32.6435 4.31122 32.4466 3.75469L32.4461 3.75527Z" fill="#947BF2"/>
<path fill-rule="evenodd" clip-rule="evenodd" d="M36.3483 7.50428C36.3483 7.50428 38.3438 7.57037 39.7867 6.33906C40.5566 5.68166 41.0044 4.79006 41.2491 4.09788C41.2491 4.0973 41.2491 4.09672 41.2496 4.09614C41.3856 3.70774 41.3094 3.27469 41.0494 2.95875C40.7893 2.6428 40.3848 2.48976 39.9853 2.55816C39.9848 2.55816 39.9842 2.55816 39.983 2.55816C39.2712 2.6828 38.3307 2.97498 37.5608 3.63179C37.3486 3.81266 37.1625 4.01093 36.9981 4.21788C36.8251 4.43586 36.8587 4.75528 37.0732 4.93093C37.2871 5.10717 37.6006 5.07296 37.773 4.85441C37.8977 4.69731 38.0388 4.54658 38.1998 4.40919C38.8177 3.88223 39.5773 3.65788 40.1492 3.55817C40.2004 3.55005 40.2522 3.56918 40.2852 3.60976C40.3182 3.65034 40.3279 3.70542 40.3108 3.75527C40.1139 4.3118 39.7645 5.03354 39.146 5.56166C37.987 6.55065 36.3813 6.49036 36.3813 6.49036C36.1064 6.48051 35.876 6.70022 35.8663 6.97964C35.8572 7.25964 36.0723 7.49443 36.3471 7.50428H36.3483Z" fill="#947BF2"/>
<path fill-rule="evenodd" clip-rule="evenodd" d="M34.2378 20.2047C35.7559 16.6632 36.9605 12.1582 36.8877 6.84979C36.8843 6.57036 36.6578 6.34601 36.383 6.35007C36.1087 6.35355 35.8885 6.58428 35.8925 6.86428C35.9631 12.0058 34.7955 16.3693 33.3257 19.7989C33.2159 20.0557 33.3309 20.3548 33.5829 20.4667C33.8344 20.5786 34.128 20.4615 34.2378 20.2047Z" fill="#947BF2"/>
<path fill-rule="evenodd" clip-rule="evenodd" d="M19.8313 22.4087C19.8313 21.8939 19.5758 21.4134 19.1519 21.1328C18.6307 20.7873 17.7755 20.2203 17.2185 19.8516C16.7234 19.5235 16.085 19.5235 15.59 19.8516C15.0335 20.2203 14.1777 20.7873 13.6565 21.1328C13.2332 21.4134 12.9766 21.8939 12.9766 22.4087V31.3357C12.9766 31.7392 13.1342 32.1265 13.4141 32.4117C13.6941 32.6969 14.0742 32.8575 14.4702 32.8575H19.3334C19.6083 32.8575 19.8313 32.6302 19.8313 32.3502V22.4087ZM18.8356 22.4087V31.843H14.4702C14.3382 31.843 14.2119 31.7897 14.1185 31.6946C14.0252 31.5995 13.9723 31.4702 13.9723 31.3357V22.4087C13.9723 22.2371 14.0577 22.0771 14.1988 21.9832C14.72 21.6377 15.5752 21.0707 16.1322 20.7021C16.2973 20.5931 16.5101 20.5931 16.6751 20.7021C17.2315 21.0707 18.0873 21.6377 18.6085 21.9832C18.7496 22.0771 18.8356 22.2371 18.8356 22.4087Z" fill="#947BF2"/>
<path fill-rule="evenodd" clip-rule="evenodd" d="M25.1919 32.8575H31.0503C31.3257 32.8575 31.5482 32.6302 31.5482 32.3502V22.4087C31.5482 21.8939 31.2927 21.4134 30.8688 21.1328C30.3476 20.7873 29.4918 20.2203 28.9353 19.8516C28.4403 19.5235 27.8019 19.5235 27.3068 19.8516C26.7504 20.2203 25.8946 20.7873 25.3734 21.1328C25.1429 21.2852 25.0775 21.5994 25.2271 21.8348C25.3768 22.0696 25.6852 22.1363 25.9162 21.9838C26.4374 21.6383 27.2932 21.0713 27.8497 20.7026C28.0147 20.5936 28.2275 20.5936 28.3925 20.7026C28.949 21.0713 29.8048 21.6383 30.326 21.9838C30.4671 22.0777 30.5524 22.2377 30.5524 22.4093V31.8436H25.1919C24.917 31.8436 24.694 32.0708 24.694 32.3508C24.694 32.6308 24.917 32.8575 25.1919 32.8575Z" fill="#947BF2"/>
<path fill-rule="evenodd" clip-rule="evenodd" d="M19.3334 32.8575H25.1919C25.4667 32.8575 25.6897 32.6302 25.6897 32.3502V22.4087C25.6897 21.8939 25.4337 21.4134 25.0104 21.1328C24.4892 20.7873 23.6334 20.2203 23.0769 19.8516C22.5819 19.5235 21.944 19.5235 21.4484 19.8516C21.2185 20.0035 20.8794 20.229 20.5226 20.4649C20.2922 20.6174 20.2268 20.9316 20.3764 21.167C20.5266 21.4018 20.8345 21.4684 21.0649 21.316C21.4217 21.08 21.7614 20.8545 21.9907 20.7026C22.1557 20.5936 22.3685 20.5936 22.5335 20.7026C23.09 21.0713 23.9458 21.6383 24.467 21.9838C24.6081 22.0777 24.6934 22.2377 24.6934 22.4093V31.8436H19.3334C19.0586 31.8436 18.8356 32.0708 18.8356 32.3508C18.8356 32.6308 19.0586 32.8575 19.3334 32.8575Z" fill="#947BF2"/>
<path fill-rule="evenodd" clip-rule="evenodd" d="M31.0503 32.8575H36.9087C37.1836 32.8575 37.4066 32.6302 37.4066 32.3502V22.4087C37.4066 21.8939 37.1511 21.4134 36.7272 21.1328C36.206 20.7873 35.3502 20.2203 34.7938 19.8516C34.2987 19.5235 33.6603 19.5235 33.1653 19.8516C32.6088 20.2203 31.753 20.7873 31.2318 21.1328C30.8085 21.4134 30.5524 21.8939 30.5524 22.4093C30.5524 22.6893 30.7755 22.916 31.0503 22.916C31.3251 22.916 31.5482 22.6887 31.5482 22.4087C31.5482 22.2371 31.6335 22.0771 31.7746 21.9832C32.2958 21.6377 33.1516 21.0707 33.7081 20.7021C33.8731 20.5931 34.0859 20.5931 34.2509 20.7021C34.8074 21.0707 35.6632 21.6377 36.1844 21.9832C36.3255 22.0771 36.4109 22.2371 36.4109 22.4087V31.843H31.0503C30.7755 31.843 30.5524 32.0702 30.5524 32.3502C30.5524 32.6302 30.7755 32.8575 31.0503 32.8575Z" fill="#947BF2"/>
<path fill-rule="evenodd" clip-rule="evenodd" d="M36.9087 32.8575H41.772C42.168 32.8575 42.5481 32.6969 42.828 32.4117C43.108 32.1265 43.2656 31.7392 43.2656 31.3357V22.4087C43.2656 21.8939 43.0096 21.4134 42.5862 21.1328C42.065 20.7873 41.2092 20.2203 40.6528 19.8516C40.1577 19.5235 39.5199 19.5235 39.0243 19.8516C38.754 20.0307 38.4137 20.2563 38.0746 20.4812C37.8442 20.6336 37.7787 20.9478 37.9284 21.1832C38.0786 21.418 38.387 21.4847 38.6174 21.3322C38.956 21.1073 39.2968 20.8818 39.5671 20.7026C39.7321 20.5936 39.9449 20.5936 40.1099 20.7026C40.6664 21.0713 41.5222 21.6383 42.0434 21.9838C42.1845 22.0777 42.2699 22.2377 42.2699 22.4093V31.3363C42.2699 31.4708 42.2175 31.5995 42.1236 31.6952C42.0303 31.7902 41.9034 31.8436 41.772 31.8436H36.9093C36.6345 31.8436 36.4114 32.0708 36.4114 32.3508C36.4114 32.6308 36.6345 32.8581 36.9093 32.8581L36.9087 32.8575Z" fill="#947BF2"/>
<path fill-rule="evenodd" clip-rule="evenodd" d="M15.9063 24.8586V25.4673C15.9063 25.7473 16.1294 25.9745 16.4042 25.9745C16.6791 25.9745 16.9021 25.7473 16.9021 25.4673V24.8586C16.9021 24.5786 16.6791 24.3513 16.4042 24.3513C16.1294 24.3513 15.9063 24.5786 15.9063 24.8586Z" fill="#947BF2"/>
<path fill-rule="evenodd" clip-rule="evenodd" d="M27.6232 24.8586V25.4673C27.6232 25.7473 27.8463 25.9745 28.1211 25.9745C28.3959 25.9745 28.619 25.7473 28.619 25.4673V24.8586C28.619 24.5786 28.3959 24.3513 28.1211 24.3513C27.8463 24.3513 27.6232 24.5786 27.6232 24.8586Z" fill="#947BF2"/>
<path fill-rule="evenodd" clip-rule="evenodd" d="M21.7648 24.8586V25.4673C21.7648 25.7473 21.9878 25.9745 22.2627 25.9745C22.5375 25.9745 22.7605 25.7473 22.7605 25.4673V24.8586C22.7605 24.5786 22.5375 24.3513 22.2627 24.3513C21.9878 24.3513 21.7648 24.5786 21.7648 24.8586Z" fill="#947BF2"/>
<path fill-rule="evenodd" clip-rule="evenodd" d="M33.4816 24.8586V25.4673C33.4816 25.7473 33.7047 25.9745 33.9795 25.9745C34.2543 25.9745 34.4774 25.7473 34.4774 25.4673V24.8586C34.4774 24.5786 34.2543 24.3513 33.9795 24.3513C33.7047 24.3513 33.4816 24.5786 33.4816 24.8586Z" fill="#947BF2"/>
<path fill-rule="evenodd" clip-rule="evenodd" d="M39.3401 24.8586V25.4673C39.3401 25.7473 39.5631 25.9745 39.8379 25.9745C40.1128 25.9745 40.3358 25.7473 40.3358 25.4673V24.8586C40.3358 24.5786 40.1128 24.3513 39.8379 24.3513C39.5631 24.3513 39.3401 24.5786 39.3401 24.8586Z" fill="#947BF2"/>
</svg>
