<svg width="19" height="20" viewBox="0 0 19 20" fill="none" xmlns="http://www.w3.org/2000/svg">
<path d="M2.96068 10.9227C2.12733 10.793 1.71066 10.7282 1.59538 10.4969C1.55975 10.4254 1.54176 10.3464 1.54293 10.2666C1.54672 10.0082 1.89425 9.76934 2.58932 9.29167L13.3916 1.86813C14.4411 1.14688 14.9659 0.786262 15.2291 0.916824C15.3089 0.956404 15.3767 1.01658 15.4254 1.09113C15.5862 1.33705 15.2902 1.90079 14.6982 3.02826L12.3544 7.49198C12.1349 7.90993 12.0252 8.1189 12.0718 8.30416C12.0867 8.36331 12.1123 8.41924 12.1473 8.46918C12.2569 8.62562 12.4867 8.67933 12.9464 8.78676L16.5903 9.63841C17.388 9.82483 17.7868 9.91804 17.8854 10.1537C17.916 10.2266 17.9288 10.3058 17.9228 10.3847C17.9034 10.6394 17.5543 10.8536 16.8561 11.2819L5.93025 17.9852C4.88435 18.6269 4.3614 18.9477 4.10651 18.8071C4.02912 18.7644 3.96443 18.7019 3.91904 18.6261C3.76953 18.3763 4.07183 17.8424 4.67643 16.7746L6.9414 12.7745C7.19824 12.3209 7.32665 12.0941 7.27487 11.8975C7.25842 11.835 7.23003 11.7763 7.19126 11.7247C7.06919 11.562 6.81166 11.5219 6.29661 11.4418L2.96068 10.9227Z" stroke="white" stroke-width="1.5" stroke-linejoin="round"/>
</svg>
