<svg width="21" height="21" viewBox="0 0 21 21" fill="none" xmlns="http://www.w3.org/2000/svg">
<path d="M10.8931 14.0746L14.439 10.5288M14.439 10.5288L10.8931 6.98294M14.439 10.5288H1.4375M7.34726 4.91285V4.85566C7.34726 3.53175 7.34726 2.8693 7.60491 2.36363C7.83154 1.91884 8.19291 1.55747 8.63771 1.33083C9.14338 1.07318 9.80582 1.07318 11.1297 1.07318H16.5667C17.8906 1.07318 18.5517 1.07318 19.0573 1.33083C19.5021 1.55747 19.8647 1.91884 20.0913 2.36363C20.3487 2.8688 20.3487 3.53045 20.3487 4.85177V16.2064C20.3487 17.5277 20.3487 18.1884 20.0913 18.6936C19.8647 19.1384 19.5021 19.5004 19.0573 19.727C18.5521 19.9844 17.8915 19.9844 16.5701 19.9844H11.1259C9.80453 19.9844 9.14288 19.9844 8.63771 19.727C8.19291 19.5004 7.83154 19.138 7.60491 18.6932C7.34726 18.1876 7.34726 17.5261 7.34726 16.2022V16.1431" stroke="#8991B1" stroke-width="1.2" stroke-linecap="round" stroke-linejoin="round"/>
</svg>
