<svg width="48" height="39" viewBox="0 0 48 39" fill="none" xmlns="http://www.w3.org/2000/svg">
<path d="M22.8749 0.40625L5.68945 6.28506V10.4894L6.37687 10.2509L22.8749 4.6054L40.0604 10.4842V6.28506L22.8749 0.40625ZM22.8749 1.5001L39.0189 7.02639V9.04301L22.8749 3.51673L6.731 9.04301V7.02639L22.8749 1.5001ZM7.25177 10.8056C6.96534 10.8056 6.731 11.0389 6.731 11.324C6.731 11.6092 6.96534 11.8424 7.25177 11.8424C7.53819 11.8424 7.77254 11.6092 7.77254 11.324C7.77254 11.0389 7.53819 10.8056 7.25177 10.8056ZM38.4981 10.8056C38.2117 10.8056 37.9773 11.0389 37.9773 11.324C37.9773 11.6092 38.2117 11.8424 38.4981 11.8424C38.7845 11.8424 39.0189 11.6092 39.0189 11.324C39.0189 11.0389 38.7845 10.8056 38.4981 10.8056ZM17.1464 12.3609C15.4279 12.3609 14.0218 13.7606 14.0218 15.4713V19.1002C12.3033 19.1002 10.8972 20.4999 10.8972 22.2107C10.8972 23.5534 11.7773 24.6628 12.9803 25.0983V29.9869C12.9803 30.272 13.2146 30.5053 13.501 30.5053H14.0218V32.579H17.6672V30.5053H28.0827V32.579H31.7281V30.5053H32.2488C32.5353 30.5053 32.7696 30.272 32.7696 29.9869V25.0983C33.9726 24.6628 34.8527 23.5534 34.8527 22.2107C34.8527 20.4999 33.4466 19.1002 31.7281 19.1002V15.4713C31.7281 13.7606 30.322 12.3609 28.6034 12.3609H17.1464V12.3609ZM7.25177 12.8793C6.96534 12.8793 6.731 13.1126 6.731 13.3977C6.731 13.6828 6.96534 13.9161 7.25177 13.9161C7.53819 13.9161 7.77254 13.6828 7.77254 13.3977C7.77254 13.1126 7.53819 12.8793 7.25177 12.8793ZM38.4981 12.8793C38.2117 12.8793 37.9773 13.1126 37.9773 13.3977C37.9773 13.6828 38.2117 13.9161 38.4981 13.9161C38.7845 13.9161 39.0189 13.6828 39.0189 13.3977C39.0189 13.1126 38.7845 12.8793 38.4981 12.8793ZM17.1464 13.3977H28.6034C29.7595 13.3977 30.6865 14.3205 30.6865 15.4713V19.2817C29.4783 19.712 28.6034 20.8628 28.6034 22.2107V23.0454C27.5723 22.7291 25.4892 22.2107 22.8749 22.2107C20.2607 22.2107 18.1776 22.7291 17.1464 23.0454V22.2107C17.1464 20.8628 16.2715 19.712 15.0634 19.2817V15.4713C15.0634 14.3205 15.9903 13.3977 17.1464 13.3977V13.3977ZM7.25177 14.9529C6.96534 14.9529 6.731 15.1862 6.731 15.4713C6.731 15.7565 6.96534 15.9898 7.25177 15.9898C7.53819 15.9898 7.77254 15.7565 7.77254 15.4713C7.77254 15.1862 7.53819 14.9529 7.25177 14.9529ZM38.4981 14.9529C38.2117 14.9529 37.9773 15.1862 37.9773 15.4713C37.9773 15.7565 38.2117 15.9898 38.4981 15.9898C38.7845 15.9898 39.0189 15.7565 39.0189 15.4713C39.0189 15.1862 38.7845 14.9529 38.4981 14.9529ZM20.7918 15.4713C20.5054 15.4713 20.2711 15.7046 20.2711 15.9898C20.2711 16.2749 20.5054 16.5082 20.7918 16.5082C21.0783 16.5082 21.3126 16.2749 21.3126 15.9898C21.3126 15.7046 21.0783 15.4713 20.7918 15.4713ZM24.958 15.4713C24.6716 15.4713 24.4372 15.7046 24.4372 15.9898C24.4372 16.2749 24.6716 16.5082 24.958 16.5082C25.2444 16.5082 25.4788 16.2749 25.4788 15.9898C25.4788 15.7046 25.2444 15.4713 24.958 15.4713ZM7.25177 17.0266C6.96534 17.0266 6.731 17.2599 6.731 17.545C6.731 17.8301 6.96534 18.0634 7.25177 18.0634C7.53819 18.0634 7.77254 17.8301 7.77254 17.545C7.77254 17.2599 7.53819 17.0266 7.25177 17.0266ZM38.4981 17.0266C38.2117 17.0266 37.9773 17.2599 37.9773 17.545C37.9773 17.8301 38.2117 18.0634 38.4981 18.0634C38.7845 18.0634 39.0189 17.8301 39.0189 17.545C39.0189 17.2599 38.7845 17.0266 38.4981 17.0266ZM18.7088 18.5818C18.4223 18.5818 18.188 18.8151 18.188 19.1002C18.188 19.3854 18.4223 19.6186 18.7088 19.6186C18.9952 19.6186 19.2295 19.3854 19.2295 19.1002C19.2295 18.8151 18.9952 18.5818 18.7088 18.5818ZM22.8749 18.5818C22.5885 18.5818 22.3542 18.8151 22.3542 19.1002C22.3542 19.3854 22.5885 19.6186 22.8749 19.6186C23.1614 19.6186 23.3957 19.3854 23.3957 19.1002C23.3957 18.8151 23.1614 18.5818 22.8749 18.5818ZM27.0411 18.5818C26.7547 18.5818 26.5203 18.8151 26.5203 19.1002C26.5203 19.3854 26.7547 19.6186 27.0411 19.6186C27.3275 19.6186 27.5619 19.3854 27.5619 19.1002C27.5619 18.8151 27.3275 18.5818 27.0411 18.5818ZM7.25177 19.1002C6.96534 19.1002 6.731 19.3335 6.731 19.6186C6.731 19.9038 6.96534 20.1371 7.25177 20.1371C7.53819 20.1371 7.77254 19.9038 7.77254 19.6186C7.77254 19.3335 7.53819 19.1002 7.25177 19.1002ZM38.4981 19.1002C38.2117 19.1002 37.9773 19.3335 37.9773 19.6186C37.9773 19.9038 38.2117 20.1371 38.4981 20.1371C38.7845 20.1371 39.0189 19.9038 39.0189 19.6186C39.0189 19.3335 38.7845 19.1002 38.4981 19.1002ZM14.0218 20.1371C15.1779 20.1371 16.1049 21.0598 16.1049 22.2107V26.358C16.1049 26.6431 16.3392 26.8764 16.6257 26.8764H29.1242C29.4106 26.8764 29.645 26.6431 29.645 26.358V22.2107C29.645 21.0598 30.5719 20.1371 31.7281 20.1371C32.8842 20.1371 33.8111 21.0598 33.8111 22.2107C33.8111 23.2216 33.0925 24.0511 32.1447 24.2429C31.8999 24.2895 31.7281 24.5021 31.7281 24.7509V29.4685H14.0218V24.7509C14.0218 24.5073 13.8447 24.2947 13.6052 24.2429C12.6574 24.0511 11.9387 23.2216 11.9387 22.2107C11.9387 21.0598 12.8657 20.1371 14.0218 20.1371ZM7.25177 21.1739C6.96534 21.1739 6.731 21.4072 6.731 21.6923C6.731 21.9774 6.96534 22.2107 7.25177 22.2107C7.53819 22.2107 7.77254 21.9774 7.77254 21.6923C7.77254 21.4072 7.53819 21.1739 7.25177 21.1739ZM38.4981 21.1739C38.2117 21.1739 37.9773 21.4072 37.9773 21.6923C37.9773 21.9774 38.2117 22.2107 38.4981 22.2107C38.7845 22.2107 39.0189 21.9774 39.0189 21.6923C39.0189 21.4072 38.7845 21.1739 38.4981 21.1739ZM14.0218 21.6923C13.7354 21.6923 13.501 21.9256 13.501 22.2107C13.501 22.4958 13.7354 22.7291 14.0218 22.7291C14.3082 22.7291 14.5426 22.4958 14.5426 22.2107C14.5426 21.9256 14.3082 21.6923 14.0218 21.6923ZM31.7281 21.6923C31.4416 21.6923 31.2073 21.9256 31.2073 22.2107C31.2073 22.4958 31.4416 22.7291 31.7281 22.7291C32.0145 22.7291 32.2488 22.4958 32.2488 22.2107C32.2488 21.9256 32.0145 21.6923 31.7281 21.6923ZM7.25177 23.2475C6.96534 23.2475 6.731 23.4808 6.731 23.7659C6.731 24.0511 6.96534 24.2844 7.25177 24.2844C7.53819 24.2844 7.77254 24.0511 7.77254 23.7659C7.77254 23.4808 7.53819 23.2475 7.25177 23.2475ZM22.8749 23.2475C26.0777 23.2475 28.1764 23.994 28.6034 24.1496V25.8396H17.1464V24.1496C17.5735 23.994 19.6722 23.2475 22.8749 23.2475ZM38.4981 23.2475C38.2117 23.2475 37.9773 23.4808 37.9773 23.7659C37.9773 24.0511 38.2117 24.2844 38.4981 24.2844C38.7845 24.2844 39.0189 24.0511 39.0189 23.7659C39.0189 23.4808 38.7845 23.2475 38.4981 23.2475ZM7.25177 25.3212C6.96534 25.3212 6.731 25.5545 6.731 25.8396C6.731 26.1247 6.96534 26.358 7.25177 26.358C7.53819 26.358 7.77254 26.1247 7.77254 25.8396C7.77254 25.5545 7.53819 25.3212 7.25177 25.3212ZM38.4981 25.3212C38.2117 25.3212 37.9773 25.5545 37.9773 25.8396C37.9773 26.1247 38.2117 26.358 38.4981 26.358C38.7845 26.358 39.0189 26.1247 39.0189 25.8396C39.0189 25.5545 38.7845 25.3212 38.4981 25.3212ZM7.25177 27.3948C6.96534 27.3948 6.731 27.6281 6.731 27.9133C6.731 28.1984 6.96534 28.4317 7.25177 28.4317C7.53819 28.4317 7.77254 28.1984 7.77254 27.9133C7.77254 27.6281 7.53819 27.3948 7.25177 27.3948ZM38.4981 27.3948C38.2117 27.3948 37.9773 27.6281 37.9773 27.9133C37.9773 28.1984 38.2117 28.4317 38.4981 28.4317C38.7845 28.4317 39.0189 28.1984 39.0189 27.9133C39.0189 27.6281 38.7845 27.3948 38.4981 27.3948ZM7.25177 29.4685C6.96534 29.4685 6.731 29.7018 6.731 29.9869C6.731 30.272 6.96534 30.5053 7.25177 30.5053C7.53819 30.5053 7.77254 30.272 7.77254 29.9869C7.77254 29.7018 7.53819 29.4685 7.25177 29.4685ZM38.4981 29.4685C38.2117 29.4685 37.9773 29.7018 37.9773 29.9869C37.9773 30.272 38.2117 30.5053 38.4981 30.5053C38.7845 30.5053 39.0189 30.272 39.0189 29.9869C39.0189 29.7018 38.7845 29.4685 38.4981 29.4685ZM15.0634 30.5053H16.6257V31.5421H15.0634V30.5053ZM29.1242 30.5053H30.6865V31.5421H29.1242V30.5053ZM7.25177 31.5421C6.96534 31.5421 6.731 31.7754 6.731 32.0606C6.731 32.3457 6.96534 32.579 7.25177 32.579C7.53819 32.579 7.77254 32.3457 7.77254 32.0606C7.77254 31.7754 7.53819 31.5421 7.25177 31.5421ZM38.4981 31.5421C38.2117 31.5421 37.9773 31.7754 37.9773 32.0606C37.9773 32.3457 38.2117 32.579 38.4981 32.579C38.7845 32.579 39.0189 32.3457 39.0189 32.0606C39.0189 31.7754 38.7845 31.5421 38.4981 31.5421Z" fill="#947BF2"/>
<ellipse cx="13.1001" cy="15.2421" rx="12.3521" ry="13.0927" fill="white" fill-opacity="0.04"/>
<ellipse cx="35.6431" cy="25.5522" rx="12.3521" ry="13.0927" fill="white" fill-opacity="0.04"/>
</svg>
