<svg width="20" height="20" viewBox="0 0 20 20" fill="none" xmlns="http://www.w3.org/2000/svg">
<path d="M0.84966 16.2413C0.849609 16.1767 0.849609 16.1101 0.849609 16.0414V4.44141C0.849609 3.3213 0.849609 2.76083 1.0676 2.33301C1.25934 1.95668 1.56508 1.65094 1.94141 1.4592C2.36923 1.24121 2.9297 1.24121 4.0498 1.24121H15.6498C16.7699 1.24121 17.3297 1.24121 17.7575 1.4592C18.1338 1.65094 18.4401 1.95668 18.6318 2.33301C18.8496 2.76041 18.8496 3.3202 18.8496 4.43812V16.0443C18.8496 16.5293 18.8496 16.9091 18.8318 17.2186M0.84966 16.2413C0.85043 17.2296 0.86298 17.747 1.0676 18.1486C1.25934 18.5249 1.56508 18.8317 1.94141 19.0234C2.36881 19.2412 2.9286 19.2412 4.04652 19.2412H15.6532C16.7711 19.2412 17.3301 19.2412 17.7575 19.0234C18.1338 18.8317 18.4401 18.5249 18.6318 18.1486C18.7551 17.9066 18.8086 17.6225 18.8318 17.2186M0.84966 16.2413L5.61759 10.6787L5.619 10.6772C6.04188 10.1838 6.25367 9.93672 6.50488 9.84766C6.72555 9.76942 6.96647 9.77125 7.18604 9.85254C7.43624 9.94518 7.64467 10.1951 8.06152 10.6953L10.7327 13.9007C11.1186 14.3638 11.3126 14.5966 11.5482 14.6901C11.7561 14.7725 11.9853 14.7818 12.1997 14.7185C12.4438 14.6465 12.6587 14.4317 13.0884 14.002L13.5854 13.5049C14.0229 13.0674 14.2417 12.8488 14.4893 12.7773C14.7067 12.7146 14.9392 12.7281 15.1484 12.8145C15.3866 12.9128 15.5798 13.1536 15.9663 13.6367L18.8318 17.2186M18.8318 17.2186L18.8496 17.2408M12.8496 7.24121C12.2973 7.24121 11.8496 6.7935 11.8496 6.24121C11.8496 5.68893 12.2973 5.24121 12.8496 5.24121C13.4019 5.24121 13.8496 5.68893 13.8496 6.24121C13.8496 6.7935 13.4019 7.24121 12.8496 7.24121Z" stroke="#8991B1" stroke-linecap="round" stroke-linejoin="round"/>
</svg>
