<svg width="19" height="18" viewBox="0 0 19 18" fill="none" xmlns="http://www.w3.org/2000/svg">
<path d="M3.2159 16.1872L4.67637 15.0188L4.6871 15.0106C4.99158 14.767 5.14522 14.6441 5.31664 14.5565C5.47043 14.4779 5.63442 14.4207 5.80359 14.386C5.99427 14.3468 6.19289 14.3468 6.59159 14.3468H14.9109C15.9822 14.3468 16.5185 14.3468 16.9281 14.1381C17.2888 13.9544 17.5822 13.6609 17.7659 13.3002C17.9746 12.8906 17.9746 12.3549 17.9746 11.2836V3.99388C17.9746 2.92255 17.9746 2.38608 17.7659 1.97648C17.5822 1.61584 17.2882 1.32284 16.9275 1.13908C16.5175 0.930176 15.9816 0.930176 14.9081 0.930176H3.79146C2.71803 0.930176 2.18091 0.930176 1.77091 1.13908C1.41027 1.32284 1.11727 1.61584 0.933514 1.97648C0.724609 2.38648 0.724609 2.9236 0.724609 3.99703V14.9901C0.724609 16.0114 0.724609 16.5219 0.933964 16.7842C1.11604 17.0123 1.39203 17.145 1.68388 17.1447C2.01946 17.1443 2.4184 16.8252 3.2159 16.1872Z" stroke="#8991B1" stroke-width="1.3" stroke-linecap="round" stroke-linejoin="round"/>
</svg>
