<svg width="21" height="22" viewBox="0 0 21 22" fill="none" xmlns="http://www.w3.org/2000/svg">
<path d="M20.8721 11.3935C21.0427 11.1616 21.0427 10.8384 20.8721 10.6066C20.8251 10.5427 19.6998 9.024 17.8747 7.48954C16.7962 6.58286 15.6953 5.85887 14.6025 5.33771C13.2141 4.67556 11.8338 4.33984 10.5 4.33984C9.16622 4.33984 7.78597 4.67556 6.39755 5.33771C5.30472 5.85883 4.20382 6.58286 3.12536 7.48954C1.30021 9.024 0.174942 10.5426 0.127938 10.6065C-0.042646 10.8384 -0.042646 11.1616 0.127938 11.3934C0.174942 11.4573 1.30021 12.976 3.12536 14.5105C4.20378 15.4171 5.30472 16.1411 6.39755 16.6623C7.78597 17.3244 9.16622 17.6602 10.5 17.6602C11.8338 17.6602 13.2141 17.3244 14.6025 16.6623C15.6953 16.1412 16.7962 15.4171 17.8747 14.5105C19.6998 12.976 20.8251 11.4574 20.8721 11.3935ZM10.5 16.3711C7.67301 16.3711 5.37306 13.9616 5.37306 11C5.37306 8.03838 7.67301 5.62891 10.5 5.62891C13.327 5.62891 15.627 8.03838 15.627 11C15.627 13.9616 13.327 16.3711 10.5 16.3711ZM1.41431 10.9997C1.85035 10.4703 2.72238 9.48114 3.89547 8.49488C4.23172 8.21219 4.60865 7.91794 5.01839 7.63013C4.46214 8.61923 4.14259 9.77118 4.14259 11C4.14259 12.2295 4.46292 13.3817 5.01979 14.3712C4.61784 14.089 4.2482 13.8007 3.91762 13.5237C2.73719 12.5345 1.85429 11.5335 1.41431 10.9997ZM15.9808 14.3703C16.5373 13.381 16.8574 12.2291 16.8574 11C16.8574 9.77036 16.5368 8.61811 15.9798 7.62854C16.3819 7.9108 16.7517 8.19917 17.0824 8.47627C18.2628 9.4655 19.1457 10.4665 19.5857 11.0003C19.1497 11.5297 18.2776 12.5189 17.1046 13.5051C16.7681 13.788 16.3908 14.0824 15.9808 14.3703Z" fill="#8991B1"/>
<path d="M9.89371 8.85156C9.66718 8.85156 9.48356 9.04393 9.48356 9.28125V10.5114H8.0332V9.28125C8.0332 9.04393 7.84958 8.85156 7.62305 8.85156C7.39652 8.85156 7.21289 9.04393 7.21289 9.28125V12.7188C7.21289 12.9561 7.39652 13.1484 7.62305 13.1484C7.84958 13.1484 8.0332 12.9561 8.0332 12.7188V11.3707H9.48356V12.7188C9.48356 12.9561 9.66718 13.1484 9.89371 13.1484C10.1202 13.1484 10.3039 12.9561 10.3039 12.7188V9.28125C10.3039 9.04393 10.1202 8.85156 9.89371 8.85156Z" fill="#8991B1"/>
<path d="M0.615234 4.72656C0.955008 4.72656 1.23047 4.43798 1.23047 4.08203V1.28906H3.89648C4.23626 1.28906 4.51172 1.00048 4.51172 0.644531C4.51172 0.288578 4.23626 0 3.89648 0H0.615234C0.275461 0 0 0.288578 0 0.644531V4.08203C0 4.43798 0.275461 4.72656 0.615234 4.72656Z" fill="#8991B1"/>
<path d="M20.3848 0H17.1035C16.7637 0 16.4883 0.288578 16.4883 0.644531C16.4883 1.00048 16.7637 1.28906 17.1035 1.28906H19.7695V4.08203C19.7695 4.43798 20.045 4.72656 20.3848 4.72656C20.7245 4.72656 21 4.43798 21 4.08203V0.644531C21 0.288578 20.7245 0 20.3848 0Z" fill="#8991B1"/>
<path d="M20.3848 17.2734C20.045 17.2734 19.7695 17.562 19.7695 17.918V20.7109H17.1035C16.7637 20.7109 16.4883 20.9995 16.4883 21.3555C16.4883 21.7114 16.7637 22 17.1035 22H20.3848C20.7245 22 21 21.7114 21 21.3555V17.918C21 17.562 20.7245 17.2734 20.3848 17.2734Z" fill="#8991B1"/>
<path d="M3.89648 20.7109H1.23047V17.918C1.23047 17.562 0.955008 17.2734 0.615234 17.2734C0.275461 17.2734 0 17.562 0 17.918V21.3555C0 21.7114 0.275461 22 0.615234 22H3.89648C4.23626 22 4.51172 21.7114 4.51172 21.3555C4.51172 20.9995 4.23626 20.7109 3.89648 20.7109Z" fill="#8991B1"/>
<path d="M12.4625 8.85156H11.5332C11.4243 8.85156 11.3198 8.89694 11.2429 8.97772C11.1659 9.0585 11.1228 9.16798 11.123 9.28207C11.123 9.28211 11.1254 10.6043 11.1254 10.9963C11.1254 11.469 11.1297 12.7079 11.1297 12.7203C11.1301 12.8343 11.1737 12.9434 11.2509 13.0237C11.3278 13.1037 11.4316 13.1485 11.5398 13.1485H11.5414C11.5695 13.1484 12.2321 13.1457 12.4968 13.1408C13.4824 13.1228 14.1977 12.2225 14.1977 11C14.1977 9.71493 13.5004 8.85156 12.4625 8.85156ZM12.4826 12.2815C12.3599 12.2838 12.1434 12.2856 11.9486 12.2869C11.9473 11.88 11.9457 11.2897 11.9457 10.9962C11.9457 10.7493 11.9448 10.1334 11.9441 9.71094H12.4625C12.9048 9.71094 13.3774 10.0496 13.3774 11C13.3774 11.6298 13.1007 12.2702 12.4826 12.2815Z" fill="#8991B1"/>
</svg>
