<svg width="25" height="27" viewBox="0 0 25 27" fill="none" xmlns="http://www.w3.org/2000/svg">
<g clip-path="url(#clip0_2043_941)">
<path d="M21.5445 22.0625H8.22466C8.22466 21.7389 7.96231 21.4766 7.63872 21.4766C7.31513 21.4766 7.05279 21.7389 7.05279 22.0625H2.71679C2.3932 22.0625 2.13086 22.3248 2.13086 22.6484C2.13086 22.972 2.3932 23.2344 2.71679 23.2344H7.05279C7.05279 23.5579 7.31513 23.8203 7.63872 23.8203C7.96231 23.8203 8.22466 23.5579 8.22466 23.2344H21.5445C21.8681 23.2344 22.1304 22.972 22.1304 22.6484C22.1304 22.3248 21.8681 22.0625 21.5445 22.0625Z" fill="white"/>
<path d="M21.5445 18.5469H15.7832C15.7832 18.2233 15.5209 17.9609 15.1973 17.9609C14.8737 17.9609 14.6113 18.2233 14.6113 18.5469H2.71679C2.3932 18.5469 2.13086 18.8092 2.13086 19.1328C2.13086 19.4564 2.3932 19.7187 2.71679 19.7187H14.6113C14.6113 20.0423 14.8737 20.3047 15.1973 20.3047C15.5209 20.3047 15.7832 20.0423 15.7832 19.7187H21.5445C21.8681 19.7187 22.1304 19.4564 22.1304 19.1328C22.1304 18.8092 21.8681 18.5469 21.5445 18.5469Z" fill="white"/>
<path d="M20.9588 3.82031H3.30272C2.65656 3.82031 2.13086 4.34601 2.13086 4.99217V15.617C2.13086 16.2632 2.65656 16.7889 3.30272 16.7889H20.9588C21.6049 16.7889 22.1306 16.2632 22.1306 15.617V4.99217C22.1306 4.34601 21.6049 3.82031 20.9588 3.82031ZM20.9588 15.1459L15.1502 10.0215C14.9287 9.8261 14.5964 9.8261 14.3749 10.0215L10.603 13.3491L3.934 4.99217H20.9588V15.1459ZM14.7625 11.2422L19.7214 15.617H9.80366L14.7625 11.2422ZM3.3026 6.0797L9.72315 14.1253L8.03235 15.617H3.30272L3.3026 6.0797Z" fill="white"/>
<path d="M12.1308 9.67965C13.1001 9.67965 13.8886 8.8911 13.8886 7.92185C13.8886 6.95261 13.1001 6.16406 12.1308 6.16406C11.1616 6.16406 10.373 6.95261 10.373 7.92185C10.373 8.8911 11.1616 9.67965 12.1308 9.67965ZM12.1308 7.33592C12.4539 7.33592 12.7168 7.59877 12.7168 7.92185C12.7168 8.24494 12.4539 8.50778 12.1308 8.50778C11.8078 8.50778 11.5449 8.24494 11.5449 7.92185C11.5449 7.59877 11.8078 7.33592 12.1308 7.33592Z" fill="white"/>
</g>
<defs>
<clipPath id="clip0_2043_941">
<rect width="20" height="20" fill="white" transform="translate(2.13086 3.82031)"/>
</clipPath>
</defs>
</svg>
