<svg width="25" height="26" viewBox="0 0 25 26" fill="none" xmlns="http://www.w3.org/2000/svg">
<g clip-path="url(#clip0_2043_960)">
<g clip-path="url(#clip1_2043_960)">
<path d="M24.3894 8.28905C24.2319 8.06914 24.0243 7.8899 23.7837 7.76616C23.5432 7.64242 23.2767 7.57773 23.0062 7.57744H20.9497V6.47447C20.9492 6.01589 20.7667 5.57626 20.4425 5.252C20.1182 4.92774 19.6786 4.74533 19.22 4.74478H10.8372C10.8295 4.74475 10.822 4.74269 10.8154 4.7388C10.8088 4.73491 10.8034 4.72934 10.7997 4.72266L10.7858 4.69772L9.80616 3.27858C9.6358 3.03178 9.40808 2.83004 9.14254 2.69068C8.87701 2.55132 8.58161 2.47851 8.28173 2.47852H2.55848C2.06739 2.47907 1.59657 2.6744 1.2493 3.02164C0.902032 3.36888 0.706673 3.83969 0.706077 4.33078V20.5793C0.702468 21.0271 1.13137 21.2121 1.521 21.1641H19.5204C19.8749 21.1641 20.2206 21.0532 20.5091 20.847C20.7975 20.6409 21.0143 20.3497 21.1291 20.0142L24.6148 9.82828C24.7021 9.57225 24.7273 9.2991 24.6881 9.03144C24.6489 8.76378 24.5465 8.50929 24.3894 8.28905ZM2.55848 3.64805H8.28164C8.39219 3.64803 8.50108 3.67487 8.59897 3.72624C8.69685 3.77762 8.78079 3.852 8.84358 3.94298L9.7935 5.31905C9.90082 5.50036 10.0535 5.6506 10.2365 5.75498C10.4195 5.85936 10.6266 5.91429 10.8373 5.91436H19.2199C19.3684 5.91452 19.5108 5.97358 19.6158 6.07859C19.7208 6.1836 19.7799 6.32597 19.78 6.47447V7.57744H6.29011C5.93556 7.57743 5.58987 7.68827 5.30142 7.89443C5.01297 8.1006 4.79619 8.39178 4.68141 8.72723L1.87575 16.926V4.33078C1.87595 4.14977 1.94794 3.97623 2.07594 3.84823C2.20393 3.72024 2.37747 3.64825 2.55848 3.64805ZM23.5082 9.44953L20.0225 19.6355C19.9866 19.7402 19.919 19.8311 19.829 19.8954C19.7389 19.9597 19.631 19.9943 19.5204 19.9943H2.06194L5.78808 9.10584C5.8239 9.00116 5.89156 8.9103 5.98157 8.84597C6.07159 8.78164 6.17947 8.74706 6.29011 8.74706H23.0062C23.0906 8.74708 23.1738 8.76723 23.2489 8.80586C23.3239 8.84449 23.3887 8.90048 23.4378 8.96917C23.4869 9.03786 23.5189 9.11727 23.5311 9.20081C23.5434 9.28435 23.5355 9.36965 23.5082 9.44953Z" fill="white"/>
<path d="M18.1855 16.709H5.98783C5.83363 16.7104 5.68621 16.7726 5.57766 16.8821C5.46911 16.9916 5.4082 17.1396 5.4082 17.2938C5.4082 17.448 5.46911 17.596 5.57766 17.7055C5.68621 17.8151 5.83363 17.8773 5.98783 17.8787H18.1855C18.3397 17.8773 18.4871 17.8151 18.5957 17.7055C18.7042 17.596 18.7651 17.448 18.7651 17.2938C18.7651 17.1396 18.7042 16.9916 18.5957 16.8821C18.4871 16.7726 18.3397 16.7104 18.1855 16.709Z" fill="white"/>
</g>
</g>
<defs>
<clipPath id="clip0_2043_960">
<rect width="24" height="25.5961" fill="white" transform="translate(0.581055 0.181641)"/>
</clipPath>
<clipPath id="clip1_2043_960">
<rect width="24" height="24" fill="white" transform="translate(0.706055 -0.173828)"/>
</clipPath>
</defs>
</svg>
