<svg width="25" height="27" viewBox="0 0 25 27" fill="none" xmlns="http://www.w3.org/2000/svg">
<path d="M14.3518 3.38137C13.7391 2.83315 12.9393 2.5293 12.1101 2.5293C11.2808 2.5293 10.4816 2.83315 9.8684 3.38137L2.70801 9.74509C2.00915 10.3678 1.61035 11.252 1.61035 12.1791V21.247C1.61144 22.1172 1.96387 22.9511 2.59017 23.5668C3.21646 24.182 4.06589 24.5282 4.95187 24.5293H19.2688C20.1548 24.5282 21.0037 24.182 21.6305 23.5668C22.2568 22.9516 22.6093 22.1172 22.6104 21.247V12.1797C22.6104 11.2526 22.2116 10.3689 21.5127 9.74616L14.3518 3.38137ZM21.6556 21.247C21.6545 21.8686 21.403 22.4645 20.9557 22.9039C20.5083 23.3434 19.9017 23.5904 19.2688 23.5915H4.94805C4.31521 23.5904 3.70855 23.3434 3.2612 22.9039C2.81384 22.4645 2.56234 21.8686 2.56125 21.247V12.1797C2.5618 11.5173 2.84712 10.8855 3.34685 10.4407L10.5078 4.07749C10.9459 3.68575 11.5165 3.46872 12.109 3.46872C12.7015 3.46872 13.2721 3.68575 13.7102 4.07749L20.8706 10.4412C21.3703 10.886 21.6556 11.5173 21.6562 12.1802L21.6556 21.247Z" fill="white"/>
<path d="M10.199 11.8689H9.24428C8.86457 11.8689 8.50015 12.0173 8.23173 12.281C7.96332 12.5446 7.8122 12.9026 7.8122 13.2756V14.2134C7.8122 14.5864 7.96332 14.9443 8.23173 15.208C8.50015 15.4717 8.86457 15.6201 9.24428 15.6201H10.199C10.5787 15.6201 10.9431 15.4717 11.2115 15.208C11.48 14.9443 11.6311 14.5864 11.6311 14.2134V13.2756C11.6311 12.9026 11.48 12.5446 11.2115 12.281C10.9431 12.0173 10.5787 11.8689 10.199 11.8689ZM10.6764 14.2134C10.6764 14.3377 10.6262 14.4572 10.5367 14.5451C10.4472 14.633 10.3256 14.6823 10.199 14.6823H9.24428C8.98078 14.6823 8.76692 14.4722 8.76692 14.2134V13.2756C8.76692 13.0167 8.98078 12.8067 9.24428 12.8067H10.199C10.3256 12.8067 10.4472 12.856 10.5367 12.9439C10.6262 13.0317 10.6764 13.1512 10.6764 13.2756V14.2134Z" fill="white"/>
<path d="M14.9726 11.8689H14.0178C13.6381 11.8689 13.2737 12.0173 13.0053 12.281C12.7369 12.5446 12.5858 12.9026 12.5858 13.2756V14.2134C12.5858 14.5864 12.7369 14.9443 13.0053 15.208C13.2737 15.4717 13.6381 15.6201 14.0178 15.6201H14.9726C15.3523 15.6201 15.7167 15.4717 15.9851 15.208C16.2535 14.9443 16.4046 14.5864 16.4046 14.2134V13.2756C16.4046 12.9026 16.2535 12.5446 15.9851 12.281C15.7167 12.0173 15.3523 11.8689 14.9726 11.8689ZM15.4499 14.2134C15.4499 14.3377 15.3997 14.4572 15.3103 14.5451C15.2208 14.633 15.0991 14.6823 14.9726 14.6823H14.0178C13.7543 14.6823 13.5405 14.4722 13.5405 14.2134V13.2756C13.5405 13.0167 13.7543 12.8067 14.0178 12.8067H14.9726C15.0991 12.8067 15.2208 12.856 15.3103 12.9439C15.3997 13.0317 15.4499 13.1512 15.4499 13.2756V14.2134Z" fill="white"/>
<path d="M10.199 16.5579H9.24428C8.86457 16.5579 8.50015 16.7064 8.23173 16.97C7.96332 17.2337 7.8122 17.5917 7.8122 17.9647V18.9025C7.8122 19.2755 7.96332 19.6334 8.23173 19.8971C8.50015 20.1607 8.86457 20.3092 9.24428 20.3092H10.199C10.5787 20.3092 10.9431 20.1607 11.2115 19.8971C11.48 19.6334 11.6311 19.2755 11.6311 18.9025V17.9647C11.6311 17.5917 11.48 17.2337 11.2115 16.97C10.9431 16.7064 10.5787 16.5579 10.199 16.5579ZM10.6764 18.9025C10.6764 19.0268 10.6262 19.1463 10.5367 19.2342C10.4472 19.3221 10.3256 19.3714 10.199 19.3714H9.24428C8.98078 19.3714 8.76692 19.1613 8.76692 18.9025V17.9647C8.76692 17.7058 8.98078 17.4958 9.24428 17.4958H10.199C10.3256 17.4958 10.4472 17.5451 10.5367 17.6329C10.6262 17.7208 10.6764 17.8403 10.6764 17.9647V18.9025Z" fill="white"/>
<path d="M14.9726 16.5579H14.0178C13.6381 16.5579 13.2737 16.7064 13.0053 16.97C12.7369 17.2337 12.5858 17.5917 12.5858 17.9647V18.9025C12.5858 19.2755 12.7369 19.6334 13.0053 19.8971C13.2737 20.1607 13.6381 20.3092 14.0178 20.3092H14.9726C15.3523 20.3092 15.7167 20.1607 15.9851 19.8971C16.2535 19.6334 16.4046 19.2755 16.4046 18.9025V17.9647C16.4046 17.5917 16.2535 17.2337 15.9851 16.97C15.7167 16.7064 15.3523 16.5579 14.9726 16.5579ZM15.4499 18.9025C15.4499 19.0268 15.3997 19.1463 15.3103 19.2342C15.2208 19.3221 15.0991 19.3714 14.9726 19.3714H14.0178C13.7543 19.3714 13.5405 19.1613 13.5405 18.9025V17.9647C13.5405 17.7058 13.7543 17.4958 14.0178 17.4958H14.9726C15.0991 17.4958 15.2208 17.5451 15.3103 17.6329C15.3997 17.7208 15.4499 17.8403 15.4499 17.9647V18.9025Z" fill="white"/>
</svg>
