<svg width="25" height="27" viewBox="0 0 25 27" fill="none" xmlns="http://www.w3.org/2000/svg">
<g clip-path="url(#clip0_2043_966)">
<path d="M5.2305 20.2806H19.932C21.627 20.2806 23.0063 18.9014 23.0063 17.2056V7.01836C23.0063 5.32261 21.627 3.94336 19.932 3.94336H5.2305C3.5355 3.94336 2.15625 5.32261 2.15625 7.01836V17.2056C2.15625 18.9014 3.5355 20.2806 5.2305 20.2806ZM3.50625 7.01836C3.50625 6.06736 4.28025 5.29411 5.2305 5.29411H19.932C20.883 5.29411 21.6563 6.06736 21.6563 7.01836V17.2056C21.6563 18.1566 20.8823 18.9299 19.932 18.9299H5.2305C4.2795 18.9299 3.50625 18.1566 3.50625 17.2056V7.01836Z" fill="white"/>
<path d="M10.6069 15.8883C10.9174 16.0488 11.2534 16.1283 11.5886 16.1283C12.0206 16.1283 12.4496 15.9963 12.8179 15.7368L15.4826 13.8528C16.0474 13.4538 16.3841 12.8028 16.3841 12.1113C16.3841 11.4205 16.0466 10.7695 15.4826 10.3713L12.8171 8.48805C12.1631 8.02605 11.3164 7.96755 10.6061 8.33655C9.89585 8.70405 9.4541 9.43005 9.4541 10.2295V13.9953C9.45485 14.7948 9.89585 15.5208 10.6069 15.8883ZM10.8049 10.2295C10.8049 9.9318 10.9624 9.6723 11.2271 9.53505C11.3426 9.47505 11.4664 9.44505 11.5886 9.44505C11.7454 9.44505 11.9014 9.4938 12.0379 9.59055L14.7026 11.4738C14.9126 11.6215 15.0326 11.8548 15.0326 12.112C15.0326 12.3693 14.9119 12.6018 14.7019 12.751L12.0371 14.6343C11.7941 14.806 11.4919 14.827 11.2264 14.6898C10.9616 14.5525 10.8041 14.2938 10.8041 13.9953L10.8049 10.2295Z" fill="white"/>
<path d="M23.0813 22.6309H2.08125C1.7085 22.6309 1.40625 22.9331 1.40625 23.3059C1.40625 23.6786 1.7085 23.9809 2.08125 23.9809H23.0813C23.454 23.9809 23.7563 23.6786 23.7563 23.3059C23.7563 22.9331 23.454 22.6309 23.0813 22.6309Z" fill="white"/>
</g>
<defs>
<clipPath id="clip0_2043_966">
<rect width="24" height="25.5961" fill="white" transform="translate(0.581055 0.962891)"/>
</clipPath>
</defs>
</svg>
