<svg width="38" height="38" viewBox="0 0 38 38" fill="none" xmlns="http://www.w3.org/2000/svg">
<path d="M33.3082 4.69286C30.2827 1.66726 26.2599 0.000976562 21.9811 0.000976562C17.7023 0.000976562 13.6796 1.66726 10.654 4.69279C7.6285 7.71832 5.96229 11.741 5.96229 16.0198C5.96229 19.1073 6.8302 22.0612 8.45003 24.6037L1.02466 32.029C0.363895 32.6898 0 33.5683 0 34.5028C0 35.4372 0.363895 36.3157 1.02466 36.9764C1.70659 37.6584 2.60226 37.9993 3.49815 37.9993C4.39382 37.9992 5.28987 37.6582 5.97186 36.9764L13.3972 29.5509C15.9396 31.1707 18.8936 32.0386 21.9811 32.0386C26.2599 32.0386 30.2827 30.3723 33.3082 27.3468C36.3338 24.3213 38 20.2986 38 16.0198C38 11.741 36.3338 7.71839 33.3082 4.69286ZM4.39754 35.4018C3.90168 35.8977 3.09485 35.8977 2.59899 35.4019C2.35882 35.1617 2.22656 34.8424 2.22656 34.5028C2.22656 34.1631 2.35882 33.8437 2.59907 33.6034L9.79034 26.4122C10.0647 26.733 10.3523 27.0451 10.6541 27.3468C10.9559 27.6486 11.268 27.9362 11.5888 28.2106L4.39754 35.4018ZM21.9811 29.8121C14.376 29.8121 8.18878 23.6249 8.18878 16.0198C8.18878 8.41471 14.3759 2.22754 21.9811 2.22754C29.5862 2.22754 35.7734 8.41471 35.7734 16.0198C35.7734 23.6249 29.5862 29.8121 21.9811 29.8121Z" fill="#7558EA"/>
<path d="M21.9815 4.77051C15.7788 4.77051 10.7324 9.81679 10.7324 16.0195C10.7324 22.2223 15.7788 27.2686 21.9815 27.2686C28.1844 27.2686 33.2307 22.2223 33.2307 16.0195C33.2307 9.81679 28.1844 4.77051 21.9815 4.77051ZM21.9815 25.0421C17.0065 25.0421 12.959 20.9946 12.959 16.0196C12.959 11.0447 17.0065 6.99707 21.9815 6.99707C26.9566 6.99707 31.0042 11.0446 31.0042 16.0195C31.0042 20.9945 26.9566 25.0421 21.9815 25.0421Z" fill="#6B5CA6"/>
</svg>
