<svg width="31" height="42" viewBox="0 0 31 42" fill="none" xmlns="http://www.w3.org/2000/svg">
<g clip-path="url(#clip0_2528_9011)">
<path d="M11.5556 4.67591C12.0205 4.67591 12.4432 4.2879 12.4432 3.77055V1.44247C12.4432 0.968235 12.0628 0.537109 11.5556 0.537109C11.0484 0.537109 10.668 0.925122 10.668 1.44247V3.77055C10.7102 4.2879 11.0906 4.67591 11.5556 4.67591Z" fill="#6B5CA6"/>
<path d="M7.45617 5.88305C7.62524 6.0555 7.83657 6.14173 8.09018 6.14173C8.30151 6.14173 8.55512 6.0555 8.72419 5.88305C9.06233 5.53815 9.06233 4.97769 8.72419 4.63279L7.11803 2.99451C6.77989 2.64961 6.23041 2.64961 5.89228 2.99451C5.55414 3.33942 5.55414 3.89988 5.89228 4.24478L7.45617 5.88305Z" fill="#6B5CA6"/>
<path d="M15.0641 6.14173C15.2754 6.14173 15.529 6.0555 15.6981 5.88305L17.3043 4.24478C17.6424 3.89988 17.6424 3.33942 17.3043 2.99451C16.9661 2.64961 16.4167 2.64961 16.0785 2.99451L14.4724 4.63279C14.1342 4.97769 14.1342 5.53815 14.4724 5.88305C14.6414 6.0555 14.8528 6.14173 15.0641 6.14173Z" fill="#6B5CA6"/>
<path d="M30.0684 30.5004C30.0684 28.6035 28.5467 27.0514 26.6447 27.0514C25.9684 27.0514 25.2921 27.267 24.7427 27.6119C24.2355 26.3616 23.0097 25.4994 21.6149 25.4994C20.9386 25.4994 20.2623 25.7149 19.7129 26.0598C19.2057 24.8096 17.9799 23.9473 16.5851 23.9473C15.9933 23.9473 15.4439 24.0767 14.9789 24.3784V20.4121H18.783C19.2902 20.4121 19.6706 20.0241 19.6706 19.5067V8.72861C19.6706 8.21126 19.2902 7.82324 18.783 7.82324H4.32679C3.81959 7.82324 3.43918 8.21126 3.43918 8.72938V19.5067C3.43918 20.0241 3.81959 20.4121 4.32679 20.4121H8.17312V34.0788L5.93295 31.7938C4.74947 30.6298 2.93197 30.4142 1.57942 31.3627C0.776337 31.9231 0.226862 32.7854 0.10006 33.777C-0.0267421 34.7686 0.226862 35.7602 0.860872 36.5362L4.7072 41.1923C4.87627 41.4079 5.12987 41.5372 5.38348 41.5372C5.59481 41.5372 5.80615 41.451 5.97522 41.3217C6.35563 40.9768 6.39789 40.4163 6.10202 40.0283L2.25569 35.4153C1.95982 35.0272 1.83302 34.5961 1.87529 34.1219C1.95982 33.6476 2.21343 33.2165 2.59383 32.9578C3.22784 32.5267 4.11546 32.6129 4.66493 33.1734L7.41231 35.9757C7.83498 36.4068 8.46899 36.5362 9.01847 36.3206C9.56794 36.105 9.94835 35.5446 9.94835 34.941V16.6613C9.94835 15.7559 10.6669 15.023 11.5545 15.023C11.9772 14.9799 12.3999 15.1955 12.6957 15.4973C12.9916 15.7991 13.1607 16.2302 13.1607 16.6613V29.1208C13.1607 29.6382 13.5833 30.0262 14.0483 30.0262C14.5555 30.0262 14.9359 29.5951 14.9359 29.1208V27.4394C14.9359 26.5341 15.6544 25.8012 16.5421 25.8012C17.4297 25.8012 18.1482 26.5341 18.1482 27.4394V30.6729C18.1482 31.1902 18.5709 31.5782 19.0358 31.5782C19.543 31.5782 19.9234 31.1471 19.9234 30.6729V28.9915C19.9234 28.0861 20.642 27.3532 21.5296 27.3532C22.4172 27.3532 23.1358 28.0861 23.1358 28.9915V32.2249C23.135 32.7423 23.5577 33.1303 24.0226 33.1303C24.5298 33.1303 24.9102 32.6992 24.9102 32.2249V30.5004C24.9102 29.5951 25.6288 28.8622 26.5164 28.8622C27.404 28.8622 28.1226 29.5951 28.1226 30.5004V40.5456C28.1226 41.063 28.5452 41.451 29.0102 41.451C29.5174 41.451 29.8978 41.0199 29.8978 40.5456L30.0668 30.5004H30.0684ZM11.5553 13.1692C9.6955 13.1692 8.17388 14.7212 8.17388 16.6613V18.5583H5.25743V9.63397H17.9376V18.5583H15.0212V16.6613C15.0212 15.7128 14.683 14.8506 14.0068 14.2039C13.3305 13.5572 12.5697 13.2123 11.5553 13.1692Z" fill="#43B0FF"/>
</g>
<defs>
<clipPath id="clip0_2528_9011">
<rect width="30" height="41" fill="white" transform="translate(0.0683594 0.537109)"/>
</clipPath>
</defs>
</svg>
