<svg width="45" height="45" viewBox="0 0 45 45" fill="none" xmlns="http://www.w3.org/2000/svg">
<path d="M43.4997 14.8642L24.8691 0.790247C23.4742 -0.263386 21.5259 -0.263474 20.1309 0.790334L1.50028 14.8641C-0.326351 16.2441 -0.514964 18.9289 1.09932 20.5525C1.87197 21.3296 2.91945 21.7023 3.95454 21.6514V40.9565C3.95454 41.6847 4.54481 42.2751 5.2729 42.2751H9.31595V43.6815C9.31595 44.4097 9.90623 45 10.6343 45C11.3624 45 11.9527 44.4097 11.9527 43.6815V23.8163H19.863V26.4533H15.9078C15.1798 26.4533 14.5895 27.0435 14.5895 27.7718C14.5895 28.5 15.1798 29.0903 15.9078 29.0903H19.863V31.7273H17.2262C16.4981 31.7273 15.9078 32.3177 15.9078 33.0458C15.9078 33.774 16.4981 34.3644 17.2262 34.3644H19.863V37.0014H15.9078C15.1798 37.0014 14.5895 37.5916 14.5895 38.3199C14.5895 39.0482 15.1798 39.6384 15.9078 39.6384H19.863V43.6818C19.863 44.41 20.4533 45.0004 21.1814 45.0004C21.9095 45.0004 22.4997 44.4101 22.4997 43.6818V42.2754H26.4549V43.6818C26.4549 44.41 27.0452 45.0004 27.7732 45.0004C28.5013 45.0004 29.0916 44.4101 29.0916 43.6818V39.6384H31.7284V43.6818C31.7284 44.41 32.3187 45.0004 33.0468 45.0004C33.7749 45.0004 34.3651 44.4101 34.3651 43.6818V42.2754H39.6387C40.3668 42.2754 40.9571 41.6851 40.9571 40.9569V21.6465C42.0357 21.7245 43.1152 21.3423 43.9002 20.5526C45.5148 18.9292 45.3266 16.2443 43.4997 14.8642ZM30.4983 31.7272C29.0444 31.7272 27.8615 30.4385 27.8615 28.8545C27.8615 27.1082 29.1304 25.7374 30.2406 24.737C31.4291 26.5547 33.135 27.0501 33.135 28.8545C33.135 30.4385 31.9522 31.7272 30.4983 31.7272ZM31.1199 34.3246C31.304 34.9763 31.5636 36.0105 31.6748 37.0011H29.1458C29.2582 35.9992 29.5226 34.9522 29.7072 34.302C30.1968 34.3793 30.6578 34.3816 31.1199 34.3246ZM34.3656 39.6382C34.3656 37.8062 34.4882 36.4041 33.576 33.3244C34.9046 32.3229 35.7719 30.693 35.7719 28.8545C35.7719 25.093 32.3987 24.4994 32.0656 22.3002C31.8995 21.2048 30.5321 20.7905 29.7866 21.6108C29.0159 22.4581 25.2248 24.844 25.2248 28.8545C25.2248 30.6265 26.0304 32.2046 27.2782 33.2132C26.3464 36.2969 26.4552 37.7021 26.4552 39.6382H22.5V22.4977C22.5 21.7696 21.9097 21.1792 21.1816 21.1792H10.6345C9.9064 21.1792 9.31613 21.7696 9.31613 22.4977V39.6382H6.59134V20.4765L22.5 8.45844L38.3207 20.4102V39.6382H34.3656ZM42.0309 18.6933C41.6376 19.0888 41.0061 19.1339 40.562 18.7984L23.2946 5.75396C22.8243 5.3987 22.1755 5.3987 21.7053 5.75396L4.4382 18.7984C3.99383 19.134 3.36224 19.0887 2.9692 18.6934C2.47965 18.2009 2.53774 17.3853 3.08961 16.9684L21.7202 2.89452C22.1795 2.54762 22.8208 2.5478 23.2798 2.89444L41.9105 16.9684C42.4621 17.3851 42.5205 18.2008 42.0309 18.6933Z" fill="white"/>
</svg>
