<svg width="48" height="50" viewBox="0 0 48 50" fill="none" xmlns="http://www.w3.org/2000/svg">
<path d="M32.7131 46.8823L26.2729 36.9789L26.0755 36.6445L23.8836 33.2688H28.6475V23.3828H36.8376V33.3269H41.625L39.3683 36.691L32.7101 46.8823H32.7131ZM27.5368 36.2345L32.7131 44.1956L38.1368 35.8914L38.8822 34.7807H35.3616V24.8366H30.1176V34.7226H26.5734L27.3365 35.8973L27.5338 36.2345H27.5368ZM13.151 42.1952H11.6485C10.4936 42.1952 9.5391 41.3258 9.42126 40.218C7.57995 39.3748 6.375 37.5517 6.375 35.5367V7.15827C6.375 4.28844 8.74071 1.95361 11.6485 1.95361H29.7964C32.7042 1.95361 35.0699 4.28844 35.0699 7.15827V22.8013H30.5919V21.3184H10.8531V35.5076C10.8531 35.9176 11.2036 36.2636 11.619 36.2636H24.7792L27.6664 40.7123H15.2663C14.9599 41.5759 14.1291 42.1952 13.151 42.1952ZM11.6485 3.40743C9.55383 3.40743 7.84805 5.09094 7.84805 7.15827V35.5367C7.84805 37.1068 8.87034 38.5112 10.3905 39.0375L10.8825 39.209V39.9854C10.8825 40.3954 11.2331 40.7414 11.6485 40.7414H13.151C13.5664 40.7414 13.917 40.3954 13.917 39.9854V39.2585H24.9737L23.972 37.7174H11.619C10.3846 37.7174 9.38001 36.7259 9.38001 35.5076V19.8646H32.0649V21.3475H33.5969V7.15827C33.5969 5.09094 31.8911 3.40743 29.7964 3.40743H11.6485ZM14.683 30.2448C13.4486 30.2448 12.444 29.2533 12.444 28.035V23.5573C12.444 22.339 13.4486 21.3475 14.683 21.3475C15.9174 21.3475 16.922 22.339 16.922 23.5573V28.035C16.922 29.2533 15.9174 30.2448 14.683 30.2448ZM14.683 22.8013C14.2676 22.8013 13.917 23.1473 13.917 23.5573V28.035C13.917 28.445 14.2676 28.791 14.683 28.791C15.0984 28.791 15.449 28.445 15.449 28.035V23.5573C15.449 23.1473 15.0984 22.8013 14.683 22.8013Z" fill="white"/>
<path d="M32.0637 18.3233H9.4082V7.15804C9.4082 5.93974 10.4128 4.94824 11.6472 4.94824H29.7952C30.7733 4.94824 31.6041 5.56757 31.9105 6.43113H32.0637V18.3233ZM10.8812 16.8695H30.5906V7.88495L30.5611 7.15804C30.5611 6.74806 30.2106 6.40206 29.7952 6.40206H11.6472C11.2318 6.40206 10.8812 6.74806 10.8812 7.15804V16.8695ZM14.6817 16.8114C13.4473 16.8114 12.4427 15.8199 12.4427 14.6016V11.6358C12.4427 10.4175 13.4473 9.42599 14.6817 9.42599C15.9161 9.42599 16.9207 10.4175 16.9207 11.6358V14.6016C16.9207 15.8199 15.9161 16.8114 14.6817 16.8114ZM14.6817 10.8798C14.2663 10.8798 13.9157 11.2258 13.9157 11.6358V14.6016C13.9157 15.0115 14.2663 15.3575 14.6817 15.3575C15.0971 15.3575 15.4477 15.0115 15.4477 14.6016V11.6358C15.4477 11.2258 15.0971 10.8798 14.6817 10.8798Z" fill="white"/>
</svg>
