<svg width="33" height="36" viewBox="0 0 33 36" fill="none" xmlns="http://www.w3.org/2000/svg">
<path d="M3.02043 13.3197C2.50043 13.1341 1.92843 13.4053 1.74283 13.9253C1.74203 13.9253 1.74203 13.9253 1.74203 13.9253C1.55643 14.4453 1.82763 15.0173 2.34763 15.2029C2.45883 15.2429 2.57243 15.2621 2.68443 15.2621C3.09483 15.2621 3.47963 15.0069 3.62603 14.5981C3.81163 14.0781 3.54043 13.5061 3.02043 13.3197Z" fill="#43B0FF"/>
<path d="M1.83468 20.6839C1.28908 20.7687 0.915484 21.2807 1.00028 21.8263C1.07708 22.3191 1.50268 22.6719 1.98748 22.6719C2.03868 22.6719 2.09068 22.6679 2.14268 22.6599C2.68828 22.5751 3.06188 22.0639 2.97628 21.5183C2.89148 20.9719 2.38028 20.5991 1.83468 20.6839Z" fill="#43B0FF"/>
<path d="M1.78049 18.9196C1.81249 18.922 1.84369 18.9236 1.87409 18.9236C2.38529 18.9236 2.82049 18.5348 2.86929 18.0164C2.91969 17.466 2.51569 16.9788 1.96609 16.9276C1.41569 16.8772 0.928494 17.2812 0.877294 17.8316C0.826894 18.3812 1.23089 18.8684 1.78049 18.9196Z" fill="#43B0FF"/>
<path d="M6.17982 7.34621C5.76782 7.71421 5.73182 8.34621 6.09982 8.75821C6.29742 8.97981 6.57102 9.09261 6.84622 9.09261C7.08302 9.09261 7.32062 9.00861 7.51182 8.83821C7.92382 8.47101 7.95982 7.83901 7.59182 7.42701C7.22382 7.01501 6.59182 6.97901 6.17982 7.34621Z" fill="#43B0FF"/>
<path d="M4.93661 10.0877C4.47901 9.77808 3.85741 9.89888 3.54861 10.3565C3.23901 10.8141 3.35981 11.4357 3.81741 11.7453C3.98941 11.8605 4.18381 11.9165 4.37581 11.9165C4.69741 11.9165 5.01261 11.7621 5.20621 11.4757C5.51501 11.0182 5.39421 10.3965 4.93661 10.0877Z" fill="#43B0FF"/>
<path d="M18.836 3.6422L15.5624 0.368604C15.1718 -0.0219564 14.5387 -0.0219564 14.1481 0.368604C13.7577 0.759084 13.7577 1.39228 14.1481 1.78284L15.6832 3.31788C13.5326 3.47764 11.4209 4.06756 9.51439 5.05116C9.02359 5.30436 8.83095 5.90756 9.08415 6.39836C9.26175 6.7426 9.61135 6.94004 9.97367 6.94004C10.128 6.94004 10.2847 6.9042 10.4313 6.82852C12.1009 5.96716 13.8848 5.46132 15.7473 5.3166L14.1481 6.9158C13.7577 7.30636 13.7577 7.93948 14.1481 8.33004C14.3434 8.52532 14.5993 8.62292 14.8553 8.62292C15.1112 8.62292 15.3671 8.52532 15.5624 8.33004L18.836 5.05644C19.2265 4.66588 19.2265 4.03276 18.836 3.6422Z" fill="#43B0FF"/>
<path d="M16.87 35.3948C10.5795 35.3948 4.83533 31.692 2.23605 25.9615C2.00789 25.4586 2.23069 24.8659 2.73365 24.6378C3.23661 24.4098 3.82933 24.6324 4.05741 25.1354C6.33325 30.1528 11.3624 33.3948 16.87 33.3948C24.6233 33.3948 30.9312 27.0869 30.9312 19.3335C30.9312 13.4016 27.1796 8.07779 21.5957 6.08571C21.0756 5.90011 20.8043 5.32803 20.9899 4.80779C21.1755 4.28763 21.7476 4.01643 22.2678 4.20195C28.646 6.47739 32.9313 12.5583 32.9313 19.3335C32.9312 28.1897 25.7262 35.3948 16.87 35.3948Z" fill="#43B0FF"/>
<path d="M16.8688 20.3333H10.8359C10.2837 20.3333 9.83594 19.8856 9.83594 19.3333C9.83594 18.7811 10.2837 18.3333 10.8359 18.3333H16.1863L20.038 8.49507C20.2394 7.98083 20.8193 7.72715 21.3338 7.92843C21.848 8.12979 22.1017 8.70987 21.9004 9.22419L17.8 19.6978C17.6499 20.0812 17.2804 20.3333 16.8688 20.3333Z" fill="#6B5CA6"/>
</svg>
