<svg width="33" height="32" viewBox="0 0 33 32" fill="none" xmlns="http://www.w3.org/2000/svg">
<g clip-path="url(#clip0_2528_9016)">
<path d="M21.3013 7.43829C21.9325 7.43829 22.3956 6.98851 22.3956 6.37548V1.06281C22.3956 0.449787 21.9325 0 21.3013 0C20.6701 0 20.207 0.449787 20.207 1.06281V6.37548C20.207 6.98851 20.7545 7.43829 21.3013 7.43829Z" fill="#43B0FF"/>
<path d="M20.207 20.1894C20.207 20.8024 20.6701 21.2522 21.3013 21.2522C21.9325 21.2522 22.3956 20.8024 22.3956 20.1894V15.6116C22.3956 14.9986 21.9325 14.5488 21.3013 14.5488C20.6701 14.5488 20.207 14.9986 20.207 15.6116V20.1894Z" fill="#43B0FF"/>
<path d="M31.906 10.626H26.4361C25.8049 10.626 25.3418 11.0758 25.3418 11.6888C25.3418 12.3018 25.8049 12.7516 26.4361 12.7516H31.906C32.5372 12.7516 33.0003 12.3018 33.0003 11.6888C33.0003 11.0758 32.5372 10.626 31.906 10.626Z" fill="#43B0FF"/>
<path d="M12.2134 10.626C11.5822 10.626 11.1191 11.0758 11.1191 11.6888C11.1191 12.3018 11.5822 12.7516 12.2134 12.7516H16.926C17.5571 12.7516 18.0202 12.3018 18.0202 11.6888C18.0202 11.0758 17.5571 10.626 16.926 10.626H12.2134Z" fill="#43B0FF"/>
<path d="M26.1408 8.13241L29.886 4.49489C30.3065 4.08644 30.3065 3.39144 29.886 3.02362C29.4654 2.61517 28.7499 2.61517 28.3712 3.02362L24.626 6.61981C24.2054 7.02826 24.2054 7.72326 24.626 8.09108C24.8366 8.29565 25.1309 8.41826 25.3834 8.41826C25.6358 8.41826 25.9727 8.33699 26.1408 8.13241Z" fill="#43B0FF"/>
<path d="M0.347327 31.6728C0.5154 31.8774 0.810429 32 1.10474 32C1.39904 32 1.65151 31.8774 1.86215 31.6728L19.367 14.7127C19.7875 14.3042 19.7875 13.6092 19.367 13.2414C18.9464 12.8329 18.2309 12.8329 17.8522 13.2414L0.347327 30.2016C-0.115776 30.5694 -0.115776 31.2644 0.347327 31.6728Z" fill="#6B5CA6"/>
<path d="M25.7619 13.2009C25.3413 12.7924 24.6258 12.7924 24.247 13.2009C23.8265 13.6093 23.8265 14.3043 24.247 14.6721L27.9923 18.3097C28.2029 18.5142 28.4972 18.6368 28.7497 18.6368C29.0021 18.6368 29.2964 18.5142 29.5071 18.3097C29.9276 17.9012 29.9276 17.2062 29.5071 16.8384L25.7619 13.2009Z" fill="#43B0FF"/>
<path d="M19.0305 8.13252C19.4511 7.72407 19.4511 7.02907 19.0305 6.66126L15.2853 2.9831C14.8648 2.57465 14.1492 2.57465 13.7705 2.9831C13.3499 3.39155 13.3499 4.08654 13.7705 4.45436L17.5157 8.09189C17.7263 8.29646 18.0206 8.41907 18.2731 8.41907C18.5256 8.41907 18.8199 8.3371 19.0305 8.13252Z" fill="#43B0FF"/>
</g>
<defs>
<clipPath id="clip0_2528_9016">
<rect width="33" height="32" fill="white"/>
</clipPath>
</defs>
</svg>
