<svg width="32" height="32" viewBox="0 0 32 32" fill="none" xmlns="http://www.w3.org/2000/svg">
<g clip-path="url(#clip0_2528_9034)">
<path d="M14.125 0H0.9375C0.41975 0 0 0.41975 0 0.9375V14.125C0 14.6427 0.41975 15.0625 0.9375 15.0625H14.125C14.6427 15.0625 15.0625 14.6427 15.0625 14.125V0.9375C15.0625 0.41975 14.6427 0 14.125 0ZM13.1875 13.1875H1.875V1.875H13.1875V13.1875Z" fill="#7558EA"/>
<path d="M14.125 16.9375H0.9375C0.41975 16.9375 0 17.3572 0 17.875V31.0625C0 31.5802 0.41975 32 0.9375 32H14.125C14.6427 32 15.0625 31.5802 15.0625 31.0625V17.875C15.0625 17.3572 14.6427 16.9375 14.125 16.9375ZM13.1875 30.125H1.875V18.8125H13.1875V30.125Z" fill="#7558EA"/>
<path d="M31.0625 0H17.875C17.3572 0 16.9375 0.41975 16.9375 0.9375V14.125C16.9375 14.6427 17.3572 15.0625 17.875 15.0625H31.0625C31.5802 15.0625 32 14.6427 32 14.125V0.9375C32 0.41975 31.5802 0 31.0625 0ZM30.125 13.1875H18.8125V1.875H30.125V13.1875Z" fill="#7558EA"/>
<path d="M31.0625 16.9375H17.875C17.3572 16.9375 16.9375 17.3572 16.9375 17.875V31.0625C16.9375 31.5802 17.3572 32 17.875 32H31.0625C31.5802 32 32 31.5802 32 31.0625V17.875C32 17.3572 31.5802 16.9375 31.0625 16.9375ZM30.125 30.125H18.8125V18.8125H30.125V30.125Z" fill="#7558EA"/>
<path d="M5.75752 10.48C6.12358 10.8461 6.7172 10.8461 7.08333 10.48L11.6553 5.90802C12.0214 5.5419 12.0214 4.94834 11.6553 4.58221C11.2892 4.21609 10.6956 4.21609 10.3295 4.58221L6.42039 8.49121L4.73127 6.80209C4.3652 6.43596 3.77158 6.43596 3.40545 6.80209C3.03933 7.16821 3.03933 7.76177 3.40545 8.1279L5.75752 10.48Z" fill="#6B5CA6"/>
<path d="M22.695 27.4175C23.0608 27.7834 23.6548 27.7835 24.0208 27.4175L28.5927 22.8455C28.9588 22.4794 28.9588 21.8858 28.5927 21.5197C28.2266 21.1536 27.633 21.1536 27.2669 21.5197L23.3578 25.4287L21.6688 23.7396C21.3028 23.3735 20.7091 23.3735 20.343 23.7396C19.9768 24.1057 19.9768 24.6993 20.343 25.0654L22.695 27.4175Z" fill="#6B5CA6"/>
</g>
<defs>
<clipPath id="clip0_2528_9034">
<rect width="32" height="32" fill="white"/>
</clipPath>
</defs>
</svg>
