<svg width="33" height="33" viewBox="0 0 33 33" fill="none" xmlns="http://www.w3.org/2000/svg">
<g clip-path="url(#clip0_2528_9030)">
<path d="M9.52932 10.7469C10.4826 10.7495 11.3984 10.3618 12.0755 9.66878C12.7526 8.97578 13.1353 8.03405 13.1394 7.05115C13.1436 6.06825 12.7693 5.12309 12.098 4.42408C11.4275 3.72507 10.515 3.32883 9.56093 3.32282C8.60766 3.31682 7.69016 3.70106 7.01056 4.39149C6.33096 5.08192 5.94583 6.02193 5.93751 7.00569C5.93502 7.99202 6.311 8.93975 6.98394 9.64048C7.65689 10.3421 8.57189 10.74 9.52848 10.7477L9.52932 10.7469ZM9.52932 5.32293C9.97018 5.32035 10.3944 5.49875 10.708 5.81952C11.0216 6.14029 11.1979 6.57599 11.1988 7.03056C11.1988 7.48513 11.0249 7.92255 10.713 8.24418C10.4011 8.56581 9.97767 8.74592 9.5368 8.74506C9.09594 8.7442 8.67254 8.56238 8.36227 8.23903C8.052 7.91569 7.87815 7.47913 7.88065 7.0237C7.88314 6.57342 8.05782 6.14201 8.36643 5.82381C8.67504 5.50561 9.09344 5.3255 9.53015 5.32293H9.52932Z" fill="#6B5CA6"/>
<path d="M26.0072 21.4334C25.8284 21.1736 25.5398 21.0175 25.2311 21.0132C24.9625 21.014 24.7054 21.1298 24.5224 21.3331L21.349 24.5451C21.1502 24.7346 21.0371 25.0014 21.0371 25.2801C21.0371 25.5589 21.1502 25.8265 21.349 26.016C21.5312 26.2056 21.7799 26.3119 22.0386 26.3119C22.2973 26.3119 22.5452 26.2056 22.7274 26.016L24.2604 24.4353V28.0178C24.2604 28.2829 24.3627 28.5376 24.5449 28.7254C24.7271 28.9133 24.9741 29.0187 25.2311 29.0187C25.4882 29.0187 25.7352 28.9133 25.9174 28.7254C26.0996 28.5376 26.2019 28.2829 26.2019 28.0178V24.4653L27.6476 25.956C28.0261 26.3436 28.6375 26.3436 29.0159 25.956C29.1998 25.7681 29.3029 25.5126 29.3029 25.2458C29.3029 24.9791 29.1998 24.7235 29.0159 24.5348L26.0072 21.4334Z" fill="#6B5CA6"/>
<path d="M19.7291 19.342C18.5147 20.6053 17.7427 22.2486 17.5356 24.0146H3.50363C3.08772 24.0095 2.69011 23.8353 2.39731 23.53C2.10451 23.2247 1.94064 22.813 1.94064 22.3833V22.1431L8.10277 15.8589C8.56276 15.3975 9.16833 15.1239 9.80883 15.087C10.4493 15.0502 11.0807 15.2534 11.5873 15.6582L13.1503 17.2389L13.2667 17.3393C13.582 17.5726 13.9605 17.6987 14.3489 17.6987C14.7374 17.6987 15.115 17.5734 15.4311 17.3393L20.4678 12.2361C21.0758 11.5997 21.842 11.1477 22.6829 10.9307C23.5239 10.7137 24.4056 10.7395 25.2333 11.0053C25.754 11.1829 26.2406 11.4539 26.6698 11.8056L27.1939 12.3356V13.0063C27.1939 13.5587 27.6281 14.0072 28.1646 14.0072C28.7011 14.0072 29.1345 13.5587 29.1345 13.0063V3.61217C29.132 2.64814 28.7569 1.72442 28.0923 1.04685C27.4251 0.368429 26.5259 -0.00809099 25.591 -0.000371894H3.50363C2.57532 0.00477417 1.68776 0.387298 1.03146 1.06401C0.375983 1.73986 0.00499093 2.65586 0 3.61217V22.3842C0 23.3439 0.368497 24.265 1.0248 24.9452C1.68111 25.6262 2.57199 26.0113 3.50363 26.0164H17.5364C17.8367 28.4265 19.1835 30.5655 21.1965 31.8306C23.2095 33.0957 25.67 33.3487 27.8851 32.5202C30.1011 31.6917 31.8313 29.8691 32.5882 27.568C33.346 25.2668 33.0482 22.7349 31.7797 20.6868C30.5112 18.6387 28.4092 17.2956 26.0651 17.0365C23.7219 16.7767 21.3911 17.6292 19.73 19.3531V19.3428L19.7291 19.342ZM3.5028 2.00145H25.5901C26.0069 1.99887 26.4078 2.16698 26.7048 2.46888C27.0017 2.77078 27.1698 3.18247 27.1723 3.61217V9.79602C26.7447 9.51813 26.2855 9.29599 25.8039 9.13561C24.6493 8.75137 23.4158 8.70077 22.2354 8.98809C21.055 9.27541 19.9737 9.89037 19.1078 10.7661L14.3231 15.6188L13.8673 15.1582L13.1494 14.4378C12.2868 13.5801 11.1356 13.1015 9.93693 13.1015C8.73828 13.1015 7.58704 13.5801 6.72444 14.4378L1.93981 19.3308V3.61217C1.9423 3.1859 2.10783 2.77765 2.40064 2.47574C2.69344 2.17384 3.08938 2.00402 3.5028 2.00059V2.00145ZM29.3367 29.2481C28.2445 30.3734 26.763 31.0047 25.2191 31.0038C23.6753 31.0038 22.1946 30.3708 21.1033 29.2447C20.0119 28.1194 19.3981 26.5919 19.3981 25.0001C19.3981 23.4082 20.0111 21.8816 21.1033 20.7554C22.1946 19.6302 23.6753 18.9972 25.2191 18.9963C26.763 18.9963 28.2436 19.6276 29.3367 20.7529C30.4297 21.879 31.0444 23.4074 31.0444 25.0001C31.0444 26.5928 30.4305 28.1212 29.3367 29.2481Z" fill="#7558EA"/>
</g>
<defs>
<clipPath id="clip0_2528_9030">
<rect width="33" height="33" fill="white"/>
</clipPath>
</defs>
</svg>
