<svg width="51" height="51" viewBox="0 0 51 51" fill="none" xmlns="http://www.w3.org/2000/svg">
<g opacity="0.41" filter="url(#filter0_b_4401_3259)">
<rect x="0.337891" y="0.192383" width="50.6191" height="50.6191" rx="10" fill="url(#paint0_linear_4401_3259)"/>
</g>
<path d="M12.9204 24.8094H13.4961C14.0118 24.8094 14.483 25.0217 14.8248 25.3635L14.8272 25.3659C15.127 25.6669 15.3261 26.065 15.3717 26.5064H20.9662C21.272 26.5064 21.5622 26.5711 21.8273 26.6946C22.0731 26.8086 22.2938 26.9741 22.4845 27.1875L25.437 30.6846L37.7101 28.1878C38.4273 28.0427 39.0677 28.3173 39.5318 28.7935C39.7776 29.0453 39.9731 29.3547 40.0978 29.6821C40.2262 30.0179 40.2861 30.3812 40.2573 30.7314C40.2082 31.3395 39.912 31.8983 39.2896 32.2365L25.3208 39.8229C25.0258 39.9836 24.7056 40.0675 24.3782 40.0711C24.0532 40.0771 23.7318 40.004 23.4308 39.854L17.1913 36.7373C17.1577 36.7181 17.1217 36.705 17.0821 36.6954C17.0486 36.6882 17.009 36.6834 16.9622 36.6834H15.3708C15.3264 37.1259 15.1262 37.5252 14.8252 37.8251C14.4858 38.168 14.0133 38.3791 13.4952 38.3791H12.9196C12.4015 38.3791 11.929 38.1668 11.5873 37.8251C11.2467 37.4845 11.0332 37.012 11.0332 36.4927V26.69C11.0332 26.172 11.2455 25.6994 11.5873 25.3577L11.6412 25.3085C11.9794 24.9967 12.4291 24.8048 12.9184 24.8048L12.9204 24.8094ZM27.9026 14.9398C27.9026 14.5165 28.2456 14.1723 28.6701 14.1723C29.0935 14.1723 29.4376 14.5153 29.4376 14.9398V15.2432C29.8286 15.3644 30.1824 15.5742 30.4714 15.8501L30.5206 15.8944C30.9943 16.3682 31.2881 17.0229 31.2881 17.7449C31.2881 18.1682 30.9451 18.5124 30.5206 18.5124C30.0972 18.5124 29.753 18.1694 29.753 17.7449C29.753 17.4451 29.6319 17.174 29.4365 16.9797L29.4077 16.9498C29.2146 16.7723 28.9555 16.6631 28.6702 16.6631C28.3703 16.6631 28.0981 16.7843 27.9026 16.9785C27.7084 17.174 27.5873 17.445 27.5873 17.746C27.5873 18.5579 28.254 18.7906 28.922 19.0232C30.1045 19.4358 31.2881 19.8483 31.2881 21.7455C31.2881 22.4639 30.9943 23.1187 30.5206 23.5935L30.5182 23.5959C30.2184 23.8946 29.849 24.1212 29.4377 24.2483V24.5517C29.4377 24.9751 29.0947 25.3192 28.6702 25.3192C28.2469 25.3192 27.9027 24.9763 27.9027 24.5517V24.2483C27.4913 24.1212 27.122 23.8946 26.8234 23.5971L26.821 23.5947C26.3461 23.1186 26.0534 22.4651 26.0534 21.7467C26.0534 21.3234 26.3964 20.9792 26.821 20.9792C27.2443 20.9792 27.5885 21.3222 27.5885 21.7467C27.5885 22.0465 27.7096 22.3188 27.9027 22.5118L27.9051 22.5142C28.0981 22.7073 28.3704 22.8284 28.6702 22.8284C28.9712 22.8284 29.2422 22.7073 29.4353 22.5142L29.4377 22.5118C29.6308 22.3188 29.7519 22.0477 29.7519 21.7467C29.7519 20.9348 29.0851 20.701 28.4183 20.4695C27.2347 20.057 26.0522 19.6444 26.0522 17.7484C26.0522 17.0277 26.346 16.3741 26.8197 15.9004L26.8221 15.898C27.1208 15.5994 27.4901 15.3728 27.9026 15.2468L27.9026 14.9398ZM28.6713 11.413C30.9679 11.413 33.0523 12.3472 34.5609 13.8558C36.0708 15.362 37.0038 17.4462 37.0038 19.7454C37.0038 22.0419 36.0707 24.1264 34.5633 25.6338C33.0558 27.1448 30.9729 28.0778 28.6725 28.0778C26.3721 28.0778 24.2894 27.1448 22.7817 25.6374L22.7397 25.5918C21.2562 24.0855 20.34 22.0204 20.34 19.7455C20.34 17.4489 21.273 15.3657 22.7805 13.8571L22.7829 13.8547C24.2939 12.3461 26.3757 11.4143 28.6712 11.4143L28.6713 11.413ZM33.4766 14.9374C32.2485 13.7082 30.5492 12.9478 28.6713 12.9478C26.7921 12.9478 25.0929 13.7082 23.8648 14.935L23.8624 14.9374C22.6344 16.1654 21.8753 17.8647 21.8753 19.7439C21.8753 21.6051 22.6212 23.2901 23.8277 24.5144L23.8648 24.5492C25.0941 25.7784 26.7946 26.5399 28.6713 26.5399C30.5481 26.5399 32.2473 25.7796 33.4766 24.5492C34.7058 23.3212 35.4673 21.6218 35.4673 19.744C35.4673 17.8671 34.707 16.168 33.4766 14.9362L33.4766 14.9374ZM15.3801 28.0404V35.1482H16.9619C17.1226 35.1482 17.2773 35.1662 17.4296 35.2021C17.5759 35.2357 17.7222 35.2909 17.8733 35.3664L24.1141 38.481C24.1981 38.523 24.2796 38.5434 24.3528 38.5422C24.4247 38.541 24.5051 38.517 24.5878 38.4726L38.5566 30.8923C38.6657 30.8336 38.7173 30.728 38.7269 30.6105C38.7365 30.4906 38.7125 30.3563 38.6633 30.2268C38.6105 30.0876 38.5302 29.9593 38.4331 29.8598C38.3107 29.7339 38.1584 29.6559 38.0145 29.6859L26.4754 32.0328C26.6877 32.4537 26.7872 32.9154 26.7752 33.3724C26.7572 34.0403 26.5006 34.7011 26.0113 35.2204L25.2726 36.0035C24.998 36.2937 24.5422 36.3273 24.2293 36.0694L20.225 32.7679C19.8988 32.5005 19.852 32.0172 20.1194 31.691C20.3869 31.3648 20.8702 31.318 21.1964 31.5855L24.6477 34.4312L24.896 34.1686C25.1202 33.93 25.2389 33.6302 25.2473 33.3279C25.2557 33.0269 25.155 32.7199 24.9439 32.4717L21.3329 28.1905C21.2873 28.1425 21.237 28.1065 21.183 28.0813C21.1219 28.0526 21.0475 28.0382 20.9624 28.0382H15.3785L15.3801 28.0404ZM13.4961 26.3435H12.9205C12.8342 26.3435 12.755 26.3734 12.6962 26.4238L12.6747 26.4466C12.6111 26.5102 12.5715 26.5977 12.5715 26.6936V36.4963C12.5715 36.5923 12.6111 36.6798 12.6747 36.7434C12.7382 36.8069 12.8258 36.8465 12.9217 36.8465H13.4973C13.5933 36.8465 13.6808 36.8069 13.7444 36.7434C13.8091 36.6822 13.8475 36.5947 13.8475 36.4963V26.6924C13.8475 26.5953 13.8091 26.5077 13.7468 26.4454L13.7444 26.443C13.6832 26.3818 13.5957 26.3422 13.4973 26.3422L13.4961 26.3435Z" fill="white"/>
<defs>
<filter id="filter0_b_4401_3259" x="-60.2091" y="-60.3546" width="171.713" height="171.713" filterUnits="userSpaceOnUse" color-interpolation-filters="sRGB">
<feFlood flood-opacity="0" result="BackgroundImageFix"/>
<feGaussianBlur in="BackgroundImageFix" stdDeviation="30.2735"/>
<feComposite in2="SourceAlpha" operator="in" result="effect1_backgroundBlur_4401_3259"/>
<feBlend mode="normal" in="SourceGraphic" in2="effect1_backgroundBlur_4401_3259" result="shape"/>
</filter>
<linearGradient id="paint0_linear_4401_3259" x1="10.2054" y1="-32.7519" x2="78.6849" y2="39.9299" gradientUnits="userSpaceOnUse">
<stop stop-color="#434343" stop-opacity="0.86"/>
<stop offset="1" stop-opacity="0"/>
</linearGradient>
</defs>
</svg>
