<svg width="52" height="52" viewBox="0 0 52 52" fill="none" xmlns="http://www.w3.org/2000/svg">
<g opacity="0.41" filter="url(#filter0_b_2536_4181)">
<rect x="0.472656" y="0.556641" width="50.6191" height="50.6191" rx="10" fill="url(#paint0_linear_2536_4181)"/>
</g>
<g clip-path="url(#clip0_2536_4181)">
<path d="M34.3486 13.3354H17.6514C15.0866 13.3354 13 15.4221 13 17.9868V34.6841C13 37.2488 15.0866 39.3354 17.6514 39.3354H34.3487C36.9134 39.3354 39 37.2488 39 34.6841V17.9868C39 15.4221 36.9134 13.3354 34.3486 13.3354ZM37.4766 34.6841C37.4766 36.4088 36.0734 37.812 34.3486 37.812H17.6514C15.9266 37.812 14.5234 36.4088 14.5234 34.6841V17.9868C14.5234 16.2621 15.9266 14.8589 17.6514 14.8589H34.3487C36.0734 14.8589 37.4766 16.2621 37.4766 17.9868V34.6841Z" fill="white"/>
<path d="M34.9748 19.0465H23.3733C23.0543 18.0992 22.1583 17.4148 21.1048 17.4148C20.0513 17.4148 19.1553 18.0992 18.8363 19.0465H17.0254C16.6047 19.0465 16.2637 19.3876 16.2637 19.8083C16.2637 20.2289 16.6047 20.57 17.0254 20.57H18.8364C19.1553 21.5173 20.0513 22.2017 21.1049 22.2017C22.1584 22.2017 23.0544 21.5173 23.3734 20.57H34.9749C35.3956 20.57 35.7366 20.2289 35.7366 19.8083C35.7366 19.3876 35.3956 19.0465 34.9748 19.0465ZM21.1048 20.6783C20.6251 20.6783 20.2348 20.288 20.2348 19.8083C20.2348 19.3285 20.6251 18.9382 21.1048 18.9382C21.5845 18.9382 21.9748 19.3285 21.9748 19.8083C21.9748 20.288 21.5845 20.6783 21.1048 20.6783Z" fill="white"/>
<path d="M34.9748 25.5736H33.1639C32.8449 24.6263 31.9488 23.9419 30.8954 23.9419C29.8419 23.9419 28.9459 24.6263 28.6269 25.5736H17.0254C16.6047 25.5736 16.2637 25.9147 16.2637 26.3354C16.2637 26.756 16.6047 27.0971 17.0254 27.0971H28.6269C28.9459 28.0444 29.842 28.7288 30.8954 28.7288C31.9489 28.7288 32.845 28.0444 33.1639 27.0971H34.9749C35.3956 27.0971 35.7366 26.756 35.7366 26.3354C35.7366 25.9147 35.3956 25.5736 34.9748 25.5736ZM30.8954 27.2054C30.4157 27.2054 30.0254 26.8151 30.0254 26.3354C30.0254 25.8556 30.4157 25.4653 30.8954 25.4653C31.3752 25.4653 31.7655 25.8556 31.7655 26.3354C31.7655 26.8151 31.3752 27.2054 30.8954 27.2054Z" fill="white"/>
<path d="M34.9748 32.1007H26.6369C26.3179 31.1534 25.4219 30.469 24.3684 30.469C23.3149 30.469 22.4188 31.1534 22.0999 32.1007H17.0254C16.6047 32.1007 16.2637 32.4418 16.2637 32.8625C16.2637 33.2831 16.6047 33.6242 17.0254 33.6242H22.0999C22.4188 34.5715 23.3149 35.2559 24.3684 35.2559C25.4219 35.2559 26.3179 34.5715 26.6369 33.6242H34.9749C35.3956 33.6242 35.7366 33.2831 35.7366 32.8625C35.7366 32.4418 35.3956 32.1007 34.9748 32.1007ZM24.3684 33.7326C23.8886 33.7326 23.4983 33.3422 23.4983 32.8625C23.4983 32.3828 23.8886 31.9925 24.3684 31.9925C24.8481 31.9925 25.2384 32.3827 25.2384 32.8625C25.2384 33.3422 24.8481 33.7326 24.3684 33.7326Z" fill="white"/>
</g>
<defs>
<filter id="filter0_b_2536_4181" x="-60.0744" y="-59.9904" width="171.713" height="171.713" filterUnits="userSpaceOnUse" color-interpolation-filters="sRGB">
<feFlood flood-opacity="0" result="BackgroundImageFix"/>
<feGaussianBlur in="BackgroundImageFix" stdDeviation="30.2735"/>
<feComposite in2="SourceAlpha" operator="in" result="effect1_backgroundBlur_2536_4181"/>
<feBlend mode="normal" in="SourceGraphic" in2="effect1_backgroundBlur_2536_4181" result="shape"/>
</filter>
<linearGradient id="paint0_linear_2536_4181" x1="10.3402" y1="-32.3876" x2="78.8197" y2="40.2941" gradientUnits="userSpaceOnUse">
<stop stop-color="#434343" stop-opacity="0.86"/>
<stop offset="1" stop-opacity="0"/>
</linearGradient>
<clipPath id="clip0_2536_4181">
<rect width="26" height="26" fill="white" transform="translate(13 13.3354)"/>
</clipPath>
</defs>
</svg>
