<svg width="13" height="16" viewBox="0 0 13 16" fill="none" xmlns="http://www.w3.org/2000/svg">
<path d="M4.38656 5.87402H2.94845C2.15504 5.87402 1.75804 5.87402 1.455 6.02843C1.18843 6.16425 0.971869 6.38082 0.836048 6.64738C0.681641 6.95042 0.681641 7.34742 0.681641 8.14083V12.1075C0.681641 12.9009 0.681641 13.2974 0.836048 13.6004C0.971869 13.867 1.18843 14.0839 1.455 14.2198C1.75774 14.374 2.15428 14.374 2.94614 14.374H9.7505C10.5424 14.374 10.9383 14.374 11.241 14.2198C11.5076 14.0839 11.7249 13.867 11.8607 13.6004C12.015 13.2977 12.015 12.9017 12.015 12.1099V8.1385C12.015 7.34664 12.015 6.95012 11.8607 6.64738C11.7249 6.38082 11.5076 6.16425 11.241 6.02843C10.938 5.87402 10.5419 5.87402 9.74845 5.87402H8.30963M4.38656 5.87402H8.30963M4.38656 5.87402C4.29628 5.87402 4.22331 5.80084 4.22331 5.71056V3.74902C4.22331 2.57542 5.1747 1.62402 6.34831 1.62402C7.52191 1.62402 8.47331 2.57542 8.47331 3.74902V5.71056C8.47331 5.80084 8.39991 5.87402 8.30963 5.87402" stroke="white" stroke-width="1.3" stroke-linecap="round" stroke-linejoin="round"/>
</svg>
