<svg width="51" height="52" viewBox="0 0 51 52" fill="none" xmlns="http://www.w3.org/2000/svg">
<g opacity="0.41" filter="url(#filter0_b_4415_1921)">
<rect x="0.257812" y="0.473389" width="50.6191" height="50.6191" rx="10" fill="url(#paint0_linear_4415_1921)"/>
</g>
<g clip-path="url(#clip0_4415_1921)">
<path d="M25.5664 17.3142C20.8967 17.3142 17.0977 21.1133 17.0977 25.783C17.0977 30.4526 20.8967 34.2517 25.5664 34.2517C30.2361 34.2517 34.0352 30.4526 34.0352 25.783C34.0352 21.1133 30.2361 17.3142 25.5664 17.3142ZM25.5664 32.3767C21.9306 32.3767 18.9727 29.4188 18.9727 25.783C18.9727 22.1471 21.9306 19.1892 25.5664 19.1892C29.2022 19.1892 32.1602 22.1471 32.1602 25.783C32.1602 29.4188 29.2022 32.3767 25.5664 32.3767Z" fill="white"/>
<path d="M27.2144 23.488L24.7931 26.0892L23.8933 25.1895C23.5273 24.8234 22.9336 24.8234 22.5675 25.1895C22.2015 25.5555 22.2015 26.1491 22.5675 26.5153L24.1543 28.1021C24.3303 28.278 24.5688 28.3767 24.8172 28.3767C24.8228 28.3767 24.8285 28.3766 24.834 28.3766C25.0885 28.372 25.3301 28.2642 25.5035 28.078L28.5868 24.7655C28.9396 24.3865 28.9183 23.7933 28.5393 23.4405C28.1604 23.0877 27.5671 23.109 27.2144 23.488Z" fill="white"/>
<path d="M40.6289 24.8455H39.3827C39.1605 21.4994 37.7519 18.3841 35.3585 15.9908C32.9652 13.5975 29.85 12.1888 26.5039 11.9666V10.7205C26.5039 10.2027 26.0842 9.78296 25.5664 9.78296C25.0487 9.78296 24.6289 10.2027 24.6289 10.7205V11.9666C21.2828 12.1889 18.1676 13.5975 15.7742 15.9908C13.3809 18.3841 11.9723 21.4994 11.7501 24.8455H10.5039C9.98616 24.8455 9.56641 25.2652 9.56641 25.783C9.56641 26.3007 9.98616 26.7205 10.5039 26.7205H11.7501C11.9723 30.0665 13.3809 33.1818 15.7743 35.5751C18.1677 37.9685 21.2829 39.3771 24.629 39.5993V40.8455C24.629 41.3632 25.0487 41.783 25.5665 41.783C26.0842 41.783 26.504 41.3632 26.504 40.8455V39.5993C29.85 39.377 32.9653 37.9684 35.3587 35.5751C37.752 33.1818 39.1606 30.0665 39.3828 26.7205H40.6289C41.1467 26.7205 41.5664 26.3007 41.5664 25.783C41.5664 25.2652 41.1467 24.8455 40.6289 24.8455ZM26.5039 37.7196V36.5418C26.5039 36.0241 26.0842 35.6043 25.5664 35.6043C25.0487 35.6043 24.6289 36.0241 24.6289 36.5418V37.7196C18.7728 37.2639 14.0855 32.5766 13.6298 26.7205H14.8075C15.3252 26.7205 15.745 26.3007 15.745 25.783C15.745 25.2652 15.3252 24.8455 14.8075 24.8455H13.6298C14.0855 18.9893 18.7728 14.302 24.6289 13.8463V15.0241C24.6289 15.5418 25.0487 15.9616 25.5664 15.9616C26.0842 15.9616 26.5039 15.5418 26.5039 15.0241V13.8463C32.36 14.302 37.0473 18.9893 37.503 24.8455H36.3253C35.8076 24.8455 35.3878 25.2652 35.3878 25.783C35.3878 26.3007 35.8076 26.7205 36.3253 26.7205H37.503C37.0473 32.5766 32.36 37.2639 26.5039 37.7196Z" fill="white"/>
</g>
<defs>
<filter id="filter0_b_4415_1921" x="-60.2892" y="-60.0736" width="171.713" height="171.713" filterUnits="userSpaceOnUse" color-interpolation-filters="sRGB">
<feFlood flood-opacity="0" result="BackgroundImageFix"/>
<feGaussianBlur in="BackgroundImageFix" stdDeviation="30.2735"/>
<feComposite in2="SourceAlpha" operator="in" result="effect1_backgroundBlur_4415_1921"/>
<feBlend mode="normal" in="SourceGraphic" in2="effect1_backgroundBlur_4415_1921" result="shape"/>
</filter>
<linearGradient id="paint0_linear_4415_1921" x1="10.1253" y1="-32.4709" x2="78.6048" y2="40.2109" gradientUnits="userSpaceOnUse">
<stop stop-color="#434343" stop-opacity="0.86"/>
<stop offset="1" stop-opacity="0"/>
</linearGradient>
<clipPath id="clip0_4415_1921">
<rect width="32" height="32" fill="white" transform="translate(9.56641 9.78296)"/>
</clipPath>
</defs>
</svg>
