<svg width="18" height="19" viewBox="0 0 18 19" fill="none" xmlns="http://www.w3.org/2000/svg">
<path d="M10.5 7.65039V12.9004M7.5 7.65039V12.9004M4.5 4.65039V13.5004C4.5 14.3405 4.5 14.7602 4.66349 15.0811C4.8073 15.3633 5.0366 15.5933 5.31885 15.7371C5.6394 15.9004 6.05925 15.9004 6.89768 15.9004H11.1023C11.9408 15.9004 12.36 15.9004 12.6805 15.7371C12.9628 15.5933 13.1929 15.3633 13.3367 15.0811C13.5 14.7605 13.5 14.3411 13.5 13.5027V4.65039M4.5 4.65039H6M4.5 4.65039H3M6 4.65039H12M6 4.65039C6 3.95148 6 3.60219 6.11418 3.32654C6.26642 2.959 6.55824 2.66681 6.92578 2.51457C7.20144 2.40039 7.55109 2.40039 8.25 2.40039H9.75C10.4489 2.40039 10.7984 2.40039 11.074 2.51457C11.4416 2.66681 11.7335 2.959 11.8857 3.32654C11.9999 3.60219 12 3.95148 12 4.65039M12 4.65039H13.5M13.5 4.65039H15" stroke="#8991B1" stroke-width="1.5" stroke-linecap="round" stroke-linejoin="round"/>
</svg>
