<svg width="51" height="52" viewBox="0 0 51 52" fill="none" xmlns="http://www.w3.org/2000/svg">
<g opacity="0.41" filter="url(#filter0_b_2538_4320)">
<rect x="0.257812" y="0.516846" width="50.6191" height="50.6191" rx="10" fill="url(#paint0_linear_2538_4320)"/>
</g>
<path d="M38.6921 12.6183C38.2591 12.1816 37.7437 11.8353 37.1757 11.5995C36.6077 11.3637 35.9986 11.2432 35.3836 11.2449C34.3081 11.2421 33.2649 11.6125 32.4319 12.2929C31.599 12.9733 31.0279 13.9217 30.8161 14.9761H24.7627C24.6394 14.9762 24.5172 15.0005 24.4033 15.0478C24.2894 15.0951 24.186 15.1644 24.0989 15.2518L12.593 26.7783C12.1356 27.2384 11.8789 27.8607 11.8789 28.5094C11.8789 29.1581 12.1356 29.7805 12.593 30.2405L21.0436 38.709C21.2702 38.9371 21.5399 39.118 21.837 39.2411C22.1341 39.3642 22.4527 39.4271 22.7742 39.4261C23.0957 39.4271 23.4141 39.3642 23.711 39.2411C24.008 39.1179 24.2775 38.9371 24.5039 38.709L36.0061 27.1777C36.1814 27.002 36.2798 26.764 36.2799 26.5158V20.5308C37.1953 20.3535 38.0359 19.9043 38.6921 19.2418C39.5664 18.3614 40.0571 17.1709 40.0571 15.93C40.0571 14.6892 39.5664 13.4987 38.6921 12.6183ZM23.1811 37.3843C23.1282 37.4372 23.0653 37.4792 22.9962 37.5079C22.927 37.5365 22.8529 37.5513 22.778 37.5513C22.7031 37.5513 22.629 37.5365 22.5598 37.5079C22.4906 37.4792 22.4278 37.4372 22.3749 37.3843L13.9242 28.9168C13.817 28.8083 13.7569 28.6619 13.7569 28.5094C13.7569 28.3569 13.817 28.2105 13.9242 28.1021L25.1555 16.8511H34.4133V18.5621C34.034 18.4244 33.6895 18.2056 33.4036 17.9208C33.2285 17.7443 32.9903 17.6446 32.7416 17.6436C32.4929 17.6426 32.2541 17.7405 32.0775 17.9157C31.901 18.0908 31.8013 18.329 31.8003 18.5777C31.7993 18.8263 31.8972 19.0652 32.0724 19.2418C32.7107 19.8837 33.5233 20.3244 34.4096 20.5093V26.1324L23.1811 37.3843ZM37.3646 17.9208C37.0604 18.2219 36.6908 18.4488 36.2846 18.5836V15.9136C36.2846 15.665 36.1858 15.4265 36.01 15.2507C35.8342 15.0749 35.5957 14.9761 35.3471 14.9761H32.7492C32.9079 14.5316 33.1766 14.1345 33.5303 13.8219C33.8839 13.5093 34.311 13.2913 34.7716 13.1883C35.2322 13.0854 35.7114 13.1008 36.1645 13.2331C36.6176 13.3653 37.0298 13.6102 37.3627 13.9449C37.8883 14.4729 38.1836 15.1875 38.1839 15.9325C38.1843 16.6775 37.8897 17.3923 37.3646 17.9208Z" fill="white"/>
<path d="M28.9918 23.8485L29.6546 23.1857C29.8253 23.0089 29.9198 22.7721 29.9177 22.5263C29.9156 22.2805 29.817 22.0453 29.6432 21.8715C29.4693 21.6977 29.2342 21.5991 28.9884 21.597C28.7426 21.5948 28.5058 21.6893 28.3289 21.8601L27.6671 22.5229C27.4059 22.2617 27.0958 22.0545 26.7546 21.9132C26.4133 21.7718 26.0475 21.6991 25.6782 21.6991C25.3088 21.6991 24.943 21.7718 24.6018 21.9132C24.2605 22.0545 23.9504 22.2617 23.6893 22.5229C23.4281 22.7841 23.2209 23.0942 23.0795 23.4354C22.9382 23.7767 22.8654 24.1424 22.8654 24.5118C22.8654 24.8812 22.9382 25.2469 23.0795 25.5882C23.2209 25.9295 23.4281 26.2395 23.6893 26.5007L25.0149 27.8254C25.102 27.9124 25.1711 28.0158 25.2183 28.1295C25.2654 28.2433 25.2897 28.3652 25.2898 28.4884C25.2898 28.6115 25.2656 28.7334 25.2185 28.8472C25.1714 28.961 25.1024 29.0644 25.0154 29.1515C24.9283 29.2386 24.825 29.3077 24.7112 29.3549C24.5975 29.402 24.4755 29.4263 24.3524 29.4264C24.2293 29.4264 24.1073 29.4022 23.9935 29.3551C23.8798 29.308 23.7764 29.239 23.6893 29.152L21.038 26.5007C20.8612 26.3299 20.6244 26.2354 20.3786 26.2376C20.1328 26.2397 19.8976 26.3383 19.7238 26.5121C19.55 26.686 19.4514 26.9211 19.4493 27.1669C19.4471 27.4127 19.5416 27.6495 19.7124 27.8263L21.038 29.152L20.3743 29.8148C20.2847 29.9013 20.2133 30.0047 20.1642 30.1191C20.115 30.2335 20.0892 30.3565 20.0881 30.481C20.087 30.6054 20.1107 30.7289 20.1579 30.8441C20.205 30.9593 20.2746 31.064 20.3626 31.152C20.4507 31.24 20.5553 31.3097 20.6706 31.3568C20.7858 31.4039 20.9092 31.4277 21.0337 31.4266C21.1582 31.4255 21.2812 31.3996 21.3956 31.3505C21.51 31.3014 21.6134 31.2299 21.6999 31.1404L22.3627 30.4785C22.8902 31.0061 23.6057 31.3026 24.3517 31.3027C25.0978 31.3028 25.8134 31.0065 26.341 30.479C26.8686 29.9515 27.1651 29.236 27.1651 28.49C27.1652 27.7439 26.8689 27.0283 26.3414 26.5007L25.0149 25.1751C24.839 24.9993 24.7401 24.7608 24.74 24.5121C24.7399 24.2635 24.8386 24.0249 25.0144 23.849C25.1902 23.6731 25.4287 23.5742 25.6774 23.5741C25.9261 23.574 26.1646 23.6727 26.3405 23.8485L28.9918 26.5007C29.0782 26.5903 29.1817 26.6617 29.2961 26.7108C29.4104 26.7599 29.5335 26.7858 29.6579 26.7869C29.7824 26.788 29.9059 26.7642 30.0211 26.7171C30.1363 26.67 30.241 26.6004 30.329 26.5123C30.417 26.4243 30.4866 26.3196 30.5338 26.2044C30.5809 26.0892 30.6046 25.9658 30.6036 25.8413C30.6025 25.7168 30.5766 25.5938 30.5275 25.4794C30.4783 25.365 30.4069 25.2616 30.3174 25.1751L28.9918 23.8485Z" fill="white"/>
<defs>
<filter id="filter0_b_2538_4320" x="-60.2892" y="-60.0302" width="171.713" height="171.713" filterUnits="userSpaceOnUse" color-interpolation-filters="sRGB">
<feFlood flood-opacity="0" result="BackgroundImageFix"/>
<feGaussianBlur in="BackgroundImageFix" stdDeviation="30.2735"/>
<feComposite in2="SourceAlpha" operator="in" result="effect1_backgroundBlur_2538_4320"/>
<feBlend mode="normal" in="SourceGraphic" in2="effect1_backgroundBlur_2538_4320" result="shape"/>
</filter>
<linearGradient id="paint0_linear_2538_4320" x1="10.1253" y1="-32.4274" x2="78.6048" y2="40.2543" gradientUnits="userSpaceOnUse">
<stop stop-color="#434343" stop-opacity="0.86"/>
<stop offset="1" stop-opacity="0"/>
</linearGradient>
</defs>
</svg>
