<svg width="18" height="19" viewBox="0 0 18 19" fill="none" xmlns="http://www.w3.org/2000/svg">
<path d="M3 15.1407H15M3 15.1407V12.1407L9 6.14071M3 15.1407L6 15.1407L12 9.1407M9 6.14071L11.1515 3.98922L11.1528 3.98795C11.4489 3.69178 11.5973 3.54344 11.7683 3.48788C11.9189 3.43894 12.0812 3.43894 12.2318 3.48788C12.4027 3.5434 12.5509 3.69158 12.8466 3.98732L14.1515 5.29217C14.4485 5.58918 14.597 5.73775 14.6527 5.909C14.7016 6.05963 14.7016 6.22189 14.6527 6.37252C14.5971 6.54365 14.4487 6.692 14.1521 6.98859L14.1515 6.98922L12 9.1407M9 6.14071L12 9.1407" stroke="#8991B1" stroke-width="1.5" stroke-linecap="round" stroke-linejoin="round"/>
</svg>
