<svg width="52" height="52" viewBox="0 0 52 52" fill="none" xmlns="http://www.w3.org/2000/svg">
<g opacity="0.41" filter="url(#filter0_b_4415_1920)">
<rect x="0.472656" y="0.473389" width="50.6191" height="50.6191" rx="10" fill="url(#paint0_linear_4415_1920)"/>
</g>
<path d="M26 12.1892C18.7629 12.1892 12.875 18.2874 12.875 25.783C12.875 33.2786 18.7629 39.3767 26 39.3767C33.2371 39.3767 39.125 33.2786 39.125 25.783C39.125 18.2874 33.2371 12.1892 26 12.1892ZM36.4976 21.2517H31.7975C31.3848 18.4978 30.6001 16.1948 29.5597 14.601C32.6951 15.6744 35.2321 18.1188 36.4976 21.2517ZM30.375 25.783C30.375 26.7325 30.3284 27.6381 30.2488 28.5017H21.7512C21.6716 27.6381 21.625 26.7325 21.625 25.783C21.625 24.8334 21.6716 23.9279 21.7512 23.0642H30.2486C30.3284 23.9279 30.375 24.8334 30.375 25.783ZM26 37.5642C24.4202 37.5642 22.7058 34.7383 21.9818 30.3142H30.0182C29.2942 34.7383 27.5798 37.5642 26 37.5642ZM21.9818 21.2517C22.7058 16.8276 24.4202 14.0017 26 14.0017C27.5798 14.0017 29.2942 16.8276 30.0182 21.2517H21.9818ZM22.4403 14.601C21.3999 16.1951 20.615 18.4978 20.2025 21.2517H15.5024C16.7679 18.1188 19.3049 15.6744 22.4403 14.601ZM14.9428 23.0642H19.9918C19.9179 23.939 19.875 24.8448 19.875 25.783C19.875 26.7212 19.9179 27.627 19.992 28.5017H14.9428C14.7425 27.6272 14.625 26.72 14.625 25.783C14.625 24.8459 14.7425 23.9387 14.9428 23.0642ZM15.5024 30.3142H20.2022C20.615 33.0681 21.3997 35.3711 22.4401 36.965C19.3047 35.8915 16.7679 33.4471 15.5024 30.3142ZM29.5597 36.965C30.6001 35.3709 31.385 33.0681 31.7975 30.3142H36.4974C35.2321 33.4471 32.6953 35.8915 29.5597 36.965ZM37.0572 28.5017H32.008C32.0821 27.627 32.125 26.7212 32.125 25.783C32.125 24.8448 32.0821 23.939 32.008 23.0642H37.0569C37.2575 23.9387 37.3748 24.8459 37.3748 25.783C37.3748 26.72 37.2575 27.6272 37.0572 28.5017Z" fill="white"/>
<defs>
<filter id="filter0_b_4415_1920" x="-60.0744" y="-60.0736" width="171.713" height="171.713" filterUnits="userSpaceOnUse" color-interpolation-filters="sRGB">
<feFlood flood-opacity="0" result="BackgroundImageFix"/>
<feGaussianBlur in="BackgroundImageFix" stdDeviation="30.2735"/>
<feComposite in2="SourceAlpha" operator="in" result="effect1_backgroundBlur_4415_1920"/>
<feBlend mode="normal" in="SourceGraphic" in2="effect1_backgroundBlur_4415_1920" result="shape"/>
</filter>
<linearGradient id="paint0_linear_4415_1920" x1="10.3402" y1="-32.4709" x2="78.8197" y2="40.2109" gradientUnits="userSpaceOnUse">
<stop stop-color="#434343" stop-opacity="0.86"/>
<stop offset="1" stop-opacity="0"/>
</linearGradient>
</defs>
</svg>
