<svg width="51" height="51" viewBox="0 0 51 51" fill="none" xmlns="http://www.w3.org/2000/svg">
<g opacity="0.41" filter="url(#filter0_b_4413_1925)">
<rect x="0.257812" y="0.153809" width="50.6191" height="50.6191" rx="10" fill="url(#paint0_linear_4413_1925)"/>
</g>
<path d="M41.0533 25.0461C40.9826 24.9671 39.2909 23.0914 36.5433 21.1935C33.309 18.9594 29.4653 17.3274 25.5664 17.3274C21.6669 17.3274 17.8232 18.9598 14.5895 21.1935C11.8418 23.0914 10.1502 24.9671 10.0795 25.0461C9.86672 25.2837 9.86672 25.6434 10.0795 25.8811C10.1502 25.96 11.8418 27.8357 14.5895 29.7337C17.0992 31.4672 20.9848 33.5266 25.3393 33.5965C25.4987 33.6009 25.6339 33.6009 25.7935 33.5965C30.148 33.5266 34.0336 31.4672 36.5433 29.7337C39.2909 27.8358 40.9826 25.96 41.0533 25.8811C41.2661 25.6434 41.2661 25.2837 41.0533 25.0461ZM32.4509 25.4636C32.4509 29.257 29.3648 32.348 25.5664 32.348C21.7736 32.348 18.682 29.2626 18.682 25.4636C18.682 21.6702 21.7679 18.5791 25.5664 18.5791C29.3592 18.5791 32.4509 21.6645 32.4509 25.4636ZM11.412 25.4633C12.0518 24.8181 13.4265 23.5181 15.3009 22.2234C16.4901 21.402 18.0038 20.503 19.728 19.8033C16.662 22.9649 16.6661 27.9663 19.7277 31.1237C18.014 30.4281 16.5093 29.5364 15.3264 28.7214C13.4438 27.4241 12.056 26.1123 11.412 25.4633ZM35.8319 28.7038C34.6427 29.5251 33.1291 30.424 31.405 31.1238C34.4708 27.9622 34.4667 22.9608 31.4052 19.8035C33.1189 20.4989 34.6236 21.3907 35.8064 22.2057C37.689 23.503 39.0768 24.8147 39.7208 25.4638C39.0811 26.1091 37.7063 27.409 35.8319 28.7038Z" fill="white"/>
<path d="M22.4371 25.4636C22.4371 27.1891 23.8409 28.5929 25.5664 28.5929C27.2919 28.5929 28.6957 27.1891 28.6957 25.4636C28.6957 23.7381 27.2919 22.3343 25.5664 22.3343C23.8409 22.3343 22.4371 23.7381 22.4371 25.4636ZM27.444 25.4636C27.444 26.4989 26.6017 27.3411 25.5664 27.3411C24.5311 27.3411 23.6888 26.4989 23.6888 25.4636C23.6888 24.4283 24.5311 23.586 25.5664 23.586C26.6017 23.586 27.444 24.4283 27.444 25.4636Z" fill="white"/>
<defs>
<filter id="filter0_b_4413_1925" x="-60.2892" y="-60.3932" width="171.713" height="171.713" filterUnits="userSpaceOnUse" color-interpolation-filters="sRGB">
<feFlood flood-opacity="0" result="BackgroundImageFix"/>
<feGaussianBlur in="BackgroundImageFix" stdDeviation="30.2735"/>
<feComposite in2="SourceAlpha" operator="in" result="effect1_backgroundBlur_4413_1925"/>
<feBlend mode="normal" in="SourceGraphic" in2="effect1_backgroundBlur_4413_1925" result="shape"/>
</filter>
<linearGradient id="paint0_linear_4413_1925" x1="10.1253" y1="-32.7905" x2="78.6048" y2="39.8913" gradientUnits="userSpaceOnUse">
<stop stop-color="#434343" stop-opacity="0.86"/>
<stop offset="1" stop-opacity="0"/>
</linearGradient>
</defs>
</svg>
