<svg width="52" height="51" viewBox="0 0 52 51" fill="none" xmlns="http://www.w3.org/2000/svg">
<g opacity="0.41" filter="url(#filter0_b_4413_1924)">
<rect x="0.472656" y="0.193604" width="50.6191" height="50.6191" rx="10" fill="url(#paint0_linear_4413_1924)"/>
</g>
<path d="M34.1216 18.8323C32.3347 18.8323 30.667 19.5232 29.4043 20.8097L27.6651 22.6442C27.403 22.9301 27.403 23.3828 27.6889 23.6449C27.9748 23.9069 28.4275 23.9069 28.6896 23.621L30.4288 21.8104C31.4056 20.8097 32.7159 20.2618 34.1216 20.2618C35.5272 20.2618 36.8376 20.8097 37.8382 21.7865C38.8389 22.7633 39.363 24.0975 39.363 25.5032C39.363 26.9088 38.815 28.2192 37.8382 29.2198C36.8614 30.2205 35.5272 30.7446 34.1216 30.7446C32.7159 30.7446 31.4056 30.1966 30.4288 29.2198L22.1616 20.7859C19.5647 18.189 15.3239 18.189 12.7271 20.7859C11.4644 22.0486 10.7734 23.7163 10.7734 25.5032C10.7734 27.29 11.4644 28.9577 12.7271 30.2205C15.3239 32.8173 19.5647 32.8173 22.1616 30.1966L23.9008 28.3621C24.1629 28.0762 24.1629 27.6236 23.877 27.3615C23.5911 27.0994 23.1384 27.0994 22.8764 27.3853L21.1372 29.196C19.0882 31.2449 15.7766 31.2449 13.7277 29.196C12.7509 28.2192 12.2029 26.9088 12.2029 25.5032C12.2029 24.0975 12.7509 22.7872 13.7277 21.7865C15.7766 19.7376 19.0882 19.7376 21.1372 21.7865L29.4043 30.2205C30.667 31.4832 32.3347 32.1741 34.1216 32.1741C35.9084 32.1741 37.5762 31.4832 38.8389 30.2205C40.1016 28.9577 40.7925 27.29 40.7925 25.5032C40.7925 23.7163 40.1016 22.0486 38.8389 20.7859C37.5762 19.5232 35.9084 18.8323 34.1216 18.8323Z" fill="white"/>
<defs>
<filter id="filter0_b_4413_1924" x="-60.0744" y="-60.3534" width="171.713" height="171.713" filterUnits="userSpaceOnUse" color-interpolation-filters="sRGB">
<feFlood flood-opacity="0" result="BackgroundImageFix"/>
<feGaussianBlur in="BackgroundImageFix" stdDeviation="30.2735"/>
<feComposite in2="SourceAlpha" operator="in" result="effect1_backgroundBlur_4413_1924"/>
<feBlend mode="normal" in="SourceGraphic" in2="effect1_backgroundBlur_4413_1924" result="shape"/>
</filter>
<linearGradient id="paint0_linear_4413_1924" x1="10.3402" y1="-32.7507" x2="78.8197" y2="39.9311" gradientUnits="userSpaceOnUse">
<stop stop-color="#434343" stop-opacity="0.86"/>
<stop offset="1" stop-opacity="0"/>
</linearGradient>
</defs>
</svg>
