<svg width="52" height="51" viewBox="0 0 52 51" fill="none" xmlns="http://www.w3.org/2000/svg">
<g opacity="0.41" filter="url(#filter0_b_4413_1922)">
<rect x="0.472656" y="0.110352" width="50.6191" height="50.6191" rx="10" fill="url(#paint0_linear_4413_1922)"/>
</g>
<g clip-path="url(#clip0_4413_1922)">
<path d="M20.9032 20.4411C22.0635 20.4411 23.0075 19.4971 23.0075 18.3368C23.0075 17.1764 22.0635 16.2324 20.9032 16.2324C19.7428 16.2324 18.7988 17.1764 18.7988 18.3368C18.7988 19.4971 19.7428 20.4411 20.9032 20.4411ZM20.9032 17.6387C21.2881 17.6387 21.6013 17.9518 21.6013 18.3368C21.6013 18.7217 21.2881 19.0349 20.9032 19.0349C20.5183 19.0349 20.2051 18.7217 20.2051 18.3368C20.2051 17.9518 20.5183 17.6387 20.9032 17.6387Z" fill="white"/>
<path d="M37.0801 24.1535H33.2949V14.123C33.2949 13.7347 32.9801 13.4199 32.5918 13.4199H14.4863C14.098 13.4199 13.7832 13.7347 13.7832 14.123V32.2285C13.7832 32.6168 14.098 32.9316 14.4863 32.9316H24.5167V36.7168C24.5167 37.1051 24.8315 37.4199 25.2199 37.4199H37.0801C37.4684 37.4199 37.7832 37.1051 37.7832 36.7168V24.8566C37.7832 24.4683 37.4684 24.1535 37.0801 24.1535ZM31.8887 14.8262V20.6708L27.8575 17.7663C27.5788 17.5654 27.1958 17.5955 26.9517 17.8371L22.0955 22.6451L19.2925 21.8727C19.0648 21.8099 18.8208 21.8657 18.643 22.0211L15.1895 25.04V14.8262H31.8887ZM15.1895 31.5254V26.9077L19.2836 23.3289L22.1143 24.109C22.3568 24.1758 22.6168 24.1079 22.7958 23.9307L27.5183 19.2552L31.8887 22.4041V24.1535H25.2199C24.8315 24.1535 24.5167 24.4683 24.5167 24.8566V31.5254H15.1895ZM36.377 36.0137H25.923V25.5597H36.377V36.0137Z" fill="white"/>
<path d="M28.0332 33.4666H31.7183V33.9043C31.7183 34.2927 32.0331 34.6075 32.4214 34.6075C32.8097 34.6075 33.1245 34.2927 33.1245 33.9043V33.4666H34.2684C34.6567 33.4666 34.9715 33.1518 34.9715 32.7635C34.9715 32.3751 34.6567 32.0603 34.2684 32.0603H33.1246V31.6226C33.1246 31.2342 32.8098 30.9194 32.4215 30.9194C32.0331 30.9194 31.7183 31.2342 31.7183 31.6226V32.0603H28.0332C27.6449 32.0603 27.3301 32.3751 27.3301 32.7635C27.33 33.1518 27.6448 33.4666 28.0332 33.4666Z" fill="white"/>
<path d="M28.0332 29.5132H29.177V29.951C29.177 30.3393 29.4918 30.6541 29.8801 30.6541C30.2684 30.6541 30.5832 30.3393 30.5832 29.951V29.5132H34.2684C34.6567 29.5132 34.9715 29.1984 34.9715 28.8101C34.9715 28.4218 34.6567 28.107 34.2684 28.107H30.5833V27.6692C30.5833 27.2809 30.2684 26.9661 29.8801 26.9661C29.4918 26.9661 29.177 27.2809 29.177 27.6692V28.107H28.0332C27.6449 28.107 27.3301 28.4218 27.3301 28.8101C27.33 29.1984 27.6448 29.5132 28.0332 29.5132Z" fill="white"/>
</g>
<defs>
<filter id="filter0_b_4413_1922" x="-60.0744" y="-60.4367" width="171.713" height="171.713" filterUnits="userSpaceOnUse" color-interpolation-filters="sRGB">
<feFlood flood-opacity="0" result="BackgroundImageFix"/>
<feGaussianBlur in="BackgroundImageFix" stdDeviation="30.2735"/>
<feComposite in2="SourceAlpha" operator="in" result="effect1_backgroundBlur_4413_1922"/>
<feBlend mode="normal" in="SourceGraphic" in2="effect1_backgroundBlur_4413_1922" result="shape"/>
</filter>
<linearGradient id="paint0_linear_4413_1922" x1="10.3402" y1="-32.8339" x2="78.8197" y2="39.8478" gradientUnits="userSpaceOnUse">
<stop stop-color="#434343" stop-opacity="0.86"/>
<stop offset="1" stop-opacity="0"/>
</linearGradient>
<clipPath id="clip0_4413_1922">
<rect width="24" height="24" fill="white" transform="translate(13.7832 13.4199)"/>
</clipPath>
</defs>
</svg>
