<svg width="51" height="51" viewBox="0 0 51 51" fill="none" xmlns="http://www.w3.org/2000/svg">
<g opacity="0.41" filter="url(#filter0_b_4413_1923)">
<rect x="0.257812" y="0.110352" width="50.6191" height="50.6191" rx="10" fill="url(#paint0_linear_4413_1923)"/>
</g>
<g clip-path="url(#clip0_4413_1923)">
<path d="M38.7813 21.4604L36.043 19.1766C35.6139 18.8187 35.1023 18.5984 34.6025 18.5563C34.0216 18.5096 33.5001 18.7067 33.1698 19.1023L31.0387 21.6575L22.9074 31.4083L22.9128 31.4128C22.81 31.5361 22.7465 31.6906 22.7501 31.8578L22.8575 37.1462C22.8616 37.3478 22.955 37.5373 23.1126 37.6632C23.2341 37.7606 23.3841 37.8123 23.5372 37.8123C23.5825 37.8123 23.6279 37.8078 23.6727 37.7987L28.7599 36.7642C28.914 36.733 29.0445 36.646 29.1415 36.5295L29.1465 36.5336L37.2393 26.8295L39.3703 24.2743C40.0106 23.5053 39.7514 22.2697 38.7813 21.4604ZM24.1997 36.3034L24.1385 33.3028L27.0861 35.7161L24.1997 36.3034ZM28.5329 35.1448L24.39 31.7522L31.6473 23.0504L35.7594 26.4796L28.5329 35.1448ZM38.3259 23.4029L36.6303 25.4356L32.5182 22.0064L34.2138 19.9732C34.2545 19.9243 34.3615 19.9007 34.4884 19.9111C34.709 19.9297 34.9582 20.0426 35.1717 20.2206L37.9099 22.5044C38.3363 22.8596 38.4219 23.2883 38.3259 23.4029Z" fill="white"/>
<path d="M20.5048 32.3879C20.4703 32.3657 20.4345 32.3485 20.3983 32.3331C20.3942 32.3313 20.3906 32.3286 20.3865 32.3272C20.3076 32.2955 20.2252 32.281 20.1432 32.2801C20.1386 32.2801 20.1345 32.2792 20.1305 32.2792C20.0471 32.2796 19.9646 32.2964 19.8871 32.3263C19.8831 32.3277 19.8794 32.3286 19.8754 32.3299C19.7942 32.3635 19.719 32.4124 19.6547 32.4763C19.6542 32.4767 19.6538 32.4767 19.6533 32.4772L19.652 32.4786C19.6511 32.4795 19.6497 32.4808 19.6488 32.4817L17.9283 34.2018C17.5486 34.5792 16.9337 34.5792 16.5571 34.2036L16.0813 33.7278C15.7052 33.3517 15.7062 32.7364 16.0813 32.3589L17.8041 30.6361C17.8046 30.6357 17.805 30.6352 17.8059 30.6343L17.8082 30.6321C17.8087 30.6316 17.8091 30.6307 17.8096 30.6298C17.873 30.5659 17.9219 30.4911 17.9555 30.4105C17.9573 30.4064 17.9577 30.4019 17.9595 30.3978C17.9895 30.3203 18.0062 30.2383 18.0067 30.1554C18.0067 30.1513 18.0058 30.1472 18.0058 30.1427C18.0049 30.0602 17.9899 29.9778 17.9582 29.8989C17.9568 29.8957 17.9546 29.893 17.9532 29.8899C17.9378 29.8527 17.9201 29.8164 17.8975 29.7816C17.3315 28.9106 16.9346 27.9536 16.7175 26.9373C16.7153 26.9269 16.7107 26.9178 16.708 26.9074C16.6994 26.8743 16.6899 26.8408 16.6768 26.81C16.67 26.7941 16.66 26.7801 16.6523 26.7646C16.6396 26.7406 16.6278 26.7166 16.6129 26.6944C16.6029 26.6799 16.5907 26.6677 16.5798 26.6545C16.563 26.6337 16.5467 26.6124 16.5277 26.5938C16.5177 26.5838 16.5059 26.5761 16.4955 26.5671C16.4728 26.5476 16.4502 26.5277 16.4253 26.5113C16.4162 26.5055 16.4062 26.5014 16.3967 26.4959C16.3686 26.4792 16.3401 26.4629 16.3093 26.4506C16.2979 26.4461 16.2862 26.4438 16.2748 26.4398C16.2449 26.4293 16.2155 26.4189 16.1842 26.413C16.1625 26.4089 16.1403 26.4085 16.118 26.4062C16.0968 26.404 16.0759 26.3999 16.0537 26.3999H13.6136C13.078 26.3999 12.6426 25.9644 12.6426 25.4293V24.7632C12.6426 24.2281 13.078 23.7926 13.6136 23.7926H16.0523H16.0546C16.056 23.7926 16.0573 23.7917 16.0587 23.7917C16.1294 23.7912 16.1964 23.7772 16.2603 23.7568C16.2712 23.7532 16.2821 23.7509 16.293 23.7468C16.355 23.7233 16.4121 23.6911 16.4642 23.6517C16.4742 23.6444 16.4828 23.6367 16.4923 23.6286C16.5431 23.5851 16.5888 23.5361 16.6251 23.4799C16.6296 23.4727 16.6328 23.465 16.6369 23.4577C16.6731 23.3966 16.7017 23.33 16.7175 23.2584C16.718 23.257 16.7184 23.2561 16.7189 23.2547C16.9359 22.2388 17.3329 21.2818 17.8988 20.41C17.9215 20.3751 17.9392 20.3389 17.9546 20.3017C17.9559 20.2986 17.9577 20.2958 17.9591 20.2927C17.9908 20.2134 18.0058 20.1309 18.0067 20.0484C18.0067 20.0444 18.0076 20.0403 18.0076 20.0362C18.0071 19.9528 17.9904 19.8708 17.9605 19.7933C17.9591 19.7892 17.9582 19.7852 17.9564 19.7811C17.9228 19.7 17.8739 19.6248 17.81 19.5604C17.8096 19.56 17.8096 19.5595 17.8091 19.5591L17.8078 19.5577C17.8064 19.5563 17.805 19.555 17.8037 19.5536L16.0841 17.834C15.7071 17.4543 15.7062 16.8389 16.0823 16.4629L16.558 15.9871C16.9346 15.611 17.5495 15.6119 17.9274 15.9871L19.6542 17.7139C19.657 17.7166 19.661 17.7176 19.6637 17.7203C19.7217 17.7765 19.7879 17.8186 19.8595 17.8503C19.8758 17.8576 19.8917 17.863 19.908 17.8689C19.9809 17.8947 20.0562 17.9124 20.1336 17.9129H20.135C20.2116 17.9129 20.2886 17.8952 20.3629 17.8684C20.3851 17.8607 20.4051 17.8494 20.4264 17.8394C20.4526 17.8268 20.4803 17.8195 20.5052 17.8032C21.3761 17.2372 22.3331 16.8403 23.349 16.6233C23.3572 16.6214 23.3644 16.6178 23.3726 16.6156C23.4084 16.6065 23.4433 16.5965 23.4763 16.5825C23.4936 16.5752 23.5085 16.5648 23.5244 16.5562C23.547 16.544 23.5701 16.5331 23.5914 16.5186C23.6096 16.5059 23.6254 16.4909 23.6422 16.4764C23.6585 16.4624 23.6762 16.4497 23.6911 16.4343C23.7065 16.4189 23.7188 16.4012 23.7324 16.384C23.7464 16.3668 23.7614 16.3509 23.7731 16.3324C23.7849 16.3147 23.7931 16.2956 23.803 16.2766C23.8135 16.2567 23.8257 16.2376 23.8343 16.2168C23.8434 16.1941 23.8493 16.1706 23.8561 16.147C23.8615 16.1284 23.8687 16.1103 23.8728 16.0908C23.8792 16.0587 23.881 16.0251 23.8828 15.9921C23.8833 15.9807 23.8864 15.9699 23.8864 15.9581V15.9544C23.8864 15.9535 23.8864 15.9531 23.8864 15.9522V13.5184C23.8864 12.9833 24.3219 12.5479 24.8575 12.5479H25.5231C26.0587 12.5479 26.4942 12.9833 26.4942 13.5184V15.9535V15.954V15.9585C26.4942 15.9735 26.4978 15.9871 26.4987 16.002C26.5005 16.0319 26.5019 16.0618 26.5078 16.0908C26.5123 16.113 26.52 16.1334 26.5268 16.1547C26.5331 16.1756 26.5377 16.1969 26.5458 16.2168C26.5549 16.2395 26.5676 16.2599 26.5793 16.2811C26.5889 16.2984 26.5966 16.3165 26.6074 16.3328C26.6201 16.3518 26.6351 16.3686 26.6496 16.3858C26.6627 16.4021 26.675 16.4194 26.6899 16.4348C26.7049 16.4502 26.7221 16.4629 26.7388 16.4764C26.7561 16.4909 26.7719 16.5064 26.7905 16.519C26.8104 16.5326 26.8326 16.5431 26.8539 16.5548C26.8712 16.5644 26.8875 16.5752 26.9056 16.5829C26.936 16.5961 26.9686 16.6051 27.0012 16.6137C27.0121 16.6165 27.0216 16.6214 27.0325 16.6237C28.0479 16.8408 29.0054 17.2377 29.8772 17.8036C29.9017 17.8195 29.9293 17.8268 29.9547 17.8394C29.9764 17.8499 29.9968 17.8612 30.019 17.8689C30.0933 17.8956 30.1695 17.9133 30.2465 17.9133C30.3244 17.9133 30.4005 17.8952 30.4735 17.8694C30.4898 17.8635 30.5057 17.858 30.522 17.8508C30.5936 17.8191 30.6597 17.7769 30.7177 17.7207C30.7205 17.718 30.7245 17.7171 30.7277 17.7144L32.4523 15.9893C32.832 15.6132 33.4474 15.6114 33.8235 15.9875L34.2992 16.4633C34.5584 16.7225 34.6341 17.0941 34.5362 17.4244C34.5888 17.4257 34.6404 17.4239 34.6935 17.428C35.0868 17.4611 35.4787 17.5712 35.853 17.7393C36.056 16.964 35.8648 16.1062 35.2603 15.5022L34.7845 15.0264C33.8801 14.122 32.4043 14.1211 31.4926 15.0264L30.1373 16.3822C29.4173 15.9703 28.6537 15.6531 27.854 15.4352V13.5184C27.854 12.2338 26.8086 11.1885 25.5236 11.1885H24.8579C23.5733 11.1885 22.5275 12.2338 22.5275 13.5184V15.4347C21.7277 15.6531 20.9638 15.9699 20.2442 16.3817L18.8866 15.0242C17.9772 14.1206 16.5005 14.1216 15.597 15.026L15.1212 15.5018C14.2167 16.4058 14.2163 17.8816 15.1212 18.7937L16.4765 20.149C16.0646 20.869 15.7478 21.6326 15.5294 22.4323H13.6136C12.329 22.4323 11.2832 23.4777 11.2832 24.7623V25.4284C11.2832 26.713 12.3286 27.7584 13.6136 27.7584H15.5294C15.7478 28.5586 16.0646 29.3221 16.4765 30.0416L15.1194 31.3992C14.2158 32.3086 14.2167 33.7845 15.1212 34.6889L15.597 35.1647C16.0492 35.6169 16.6446 35.843 17.2404 35.843C17.8363 35.843 18.4331 35.6173 18.8885 35.1647L20.2442 33.8094C20.7014 34.0713 21.1785 34.2897 21.6693 34.4741L21.6394 32.9992C21.2488 32.8229 20.8682 32.6236 20.5048 32.3879Z" fill="white"/>
<path d="M20.2422 25.0953C20.2422 22.3666 22.462 20.1467 25.1908 20.1467C26.8139 20.1467 28.253 20.9361 29.1561 22.1468L30.0487 21.0765C28.8905 19.6791 27.1433 18.7874 25.1908 18.7874C21.7126 18.7874 18.8828 21.6171 18.8828 25.0953C18.8828 27.4547 20.1869 29.5128 22.1104 30.5949L23.0013 29.5269C21.3691 28.7167 20.2422 27.0374 20.2422 25.0953Z" fill="white"/>
</g>
<defs>
<filter id="filter0_b_4413_1923" x="-60.2892" y="-60.4367" width="171.713" height="171.713" filterUnits="userSpaceOnUse" color-interpolation-filters="sRGB">
<feFlood flood-opacity="0" result="BackgroundImageFix"/>
<feGaussianBlur in="BackgroundImageFix" stdDeviation="30.2735"/>
<feComposite in2="SourceAlpha" operator="in" result="effect1_backgroundBlur_4413_1923"/>
<feBlend mode="normal" in="SourceGraphic" in2="effect1_backgroundBlur_4413_1923" result="shape"/>
</filter>
<linearGradient id="paint0_linear_4413_1923" x1="10.1253" y1="-32.8339" x2="78.6048" y2="39.8478" gradientUnits="userSpaceOnUse">
<stop stop-color="#434343" stop-opacity="0.86"/>
<stop offset="1" stop-opacity="0"/>
</linearGradient>
<clipPath id="clip0_4413_1923">
<rect width="29" height="29" fill="white" transform="translate(11.002 10)"/>
</clipPath>
</defs>
</svg>
