<svg width="53" height="54" viewBox="0 0 53 54" fill="none" xmlns="http://www.w3.org/2000/svg">
<ellipse cx="26.227" cy="26.9519" rx="26.145" ry="26.1448" fill="url(#paint0_linear_1695_2018)"/>
<g clip-path="url(#clip0_1695_2018)">
<path d="M41.2514 22.7322L33.5784 14.7642C33.1503 14.3197 32.4563 14.3198 32.0282 14.7644C31.8228 14.9779 31.7074 15.2672 31.7073 15.569V18.9839H24.0343C23.4289 18.9839 22.9381 19.4935 22.9381 20.1222C22.9381 20.7509 23.4289 21.2605 24.0343 21.2605H32.8035C33.4089 21.2605 33.8996 20.7509 33.8996 20.1222V18.3168L38.9265 23.537L33.8996 28.7572V26.9518C33.8996 26.3232 33.4089 25.8135 32.8035 25.8135H20.7459V22.3987C20.7458 21.77 20.2549 21.2605 19.6495 21.2606C19.359 21.2607 19.0803 21.3805 18.8748 21.5939L11.2018 29.562C10.7739 30.0065 10.7739 30.727 11.2018 31.1715L18.8748 39.1395C19.0803 39.353 19.3591 39.473 19.6498 39.4731C19.7938 39.4735 19.9366 39.4441 20.0696 39.3866C20.4791 39.2102 20.746 38.7952 20.7459 38.3348V34.9199H28.4189C29.0243 34.9199 29.515 34.4103 29.515 33.7816C29.515 33.1529 29.0243 32.6433 28.4189 32.6433H19.6498C19.0444 32.6433 18.5536 33.1529 18.5536 33.7816V35.5869L13.5267 30.3667L18.5536 25.1465V26.9518C18.5536 27.5805 19.0444 28.0902 19.6498 28.0902H31.7073V31.505C31.7074 32.1337 32.1983 32.6432 32.8037 32.6431C33.0942 32.643 33.3729 32.5231 33.5784 32.3098L41.2514 24.3417C41.6793 23.8972 41.6793 23.1767 41.2514 22.7322Z" fill="white"/>
</g>
<defs>
<linearGradient id="paint0_linear_1695_2018" x1="26.227" y1="0.807129" x2="26.227" y2="53.0966" gradientUnits="userSpaceOnUse">
<stop stop-color="#8F73FF"/>
<stop offset="1" stop-color="#5B3DD5"/>
</linearGradient>
<clipPath id="clip0_1695_2018">
<rect width="30.6914" height="31.8716" fill="white" transform="translate(10.8809 11.0161)"/>
</clipPath>
</defs>
</svg>
