<svg width="14" height="12" viewBox="0 0 14 12" fill="none" xmlns="http://www.w3.org/2000/svg">
<path d="M1.36157 5.02966C1.17884 4.86068 1.2781 4.55519 1.52526 4.52589L5.02734 4.1105C5.12807 4.09856 5.21557 4.0353 5.25806 3.94319L6.73519 0.740814C6.83943 0.51481 7.16073 0.514766 7.26497 0.740771L8.74211 3.94312C8.78459 4.03523 8.87152 4.09866 8.97225 4.1106L12.4745 4.52589C12.7217 4.55519 12.8207 4.86077 12.6379 5.02975L10.049 7.42432C9.97457 7.49319 9.94141 7.59571 9.96118 7.6952L10.6483 11.1542C10.6968 11.3983 10.437 11.5874 10.2198 11.4659L7.14251 9.7429C7.054 9.69335 6.94647 9.69358 6.85795 9.74313L3.78035 11.4654C3.56317 11.587 3.30289 11.3983 3.3514 11.1542L4.0386 7.69541C4.05836 7.59592 4.02529 7.49317 3.95082 7.4243L1.36157 5.02966Z" stroke="white" stroke-linecap="round" stroke-linejoin="round"/>
</svg>
