<svg width="51" height="51" viewBox="0 0 51 51" fill="none" xmlns="http://www.w3.org/2000/svg">
<g opacity="0.41" filter="url(#filter0_b_4401_3260)">
<rect x="0.123047" y="0.192383" width="50.6191" height="50.6191" rx="10" fill="url(#paint0_linear_4401_3260)"/>
</g>
<path d="M12.5608 24.9452H18.9638C19.3397 24.9452 19.6438 25.2493 19.6438 25.6252V38.7364C19.6438 39.1122 19.3397 39.4164 18.9638 39.4164H12.5608C12.185 39.4164 11.8809 39.1123 11.8809 38.7364V25.6252C11.8809 25.2493 12.185 24.9452 12.5608 24.9452ZM32.9967 13.8808H37.2812C37.6571 13.8808 37.9612 14.1849 37.9612 14.5607V18.9169C37.9612 19.2928 37.6571 19.5969 37.2812 19.5969H32.925C32.5492 19.5969 32.2451 19.2928 32.2451 18.9169V15.0927L28.2903 14.1283V15.4431C28.2903 15.8189 27.9862 16.1231 27.6103 16.1231H23.2541C22.8783 16.1231 22.5741 15.819 22.5741 15.4431V14.5365L18.6193 17.1858V21.1811C18.6193 21.5569 18.3152 21.8611 17.9394 21.8611H13.5832C13.2073 21.8611 12.9032 21.557 12.9032 21.1811V16.8249C12.9032 16.4503 13.2073 16.1449 13.5832 16.1449H17.7357L22.573 12.9048V11.087C22.573 10.7123 22.8771 10.407 23.2529 10.407H27.6091C27.985 10.407 28.2891 10.7111 28.2891 11.087V12.7337L32.9955 13.8808L32.9967 13.8808ZM36.6012 15.2407H33.6062V18.2369H36.6012V15.2407ZM26.9314 11.767H23.9364V14.7632H26.9314V11.767ZM17.2616 17.5063H14.2666V20.5025H17.2616V17.5063ZM31.9028 23.6387H38.3058C38.6816 23.6387 38.9858 23.9428 38.9858 24.3187V38.7367C38.9858 39.1125 38.6817 39.4166 38.3058 39.4166H31.9028C31.527 39.4166 31.2228 39.1125 31.2228 38.7367V24.3187C31.2228 23.9429 31.527 23.6387 31.9028 23.6387ZM37.6258 24.9987H32.5816V38.0566H37.6258V24.9987ZM22.233 20.5024H28.636C29.0118 20.5024 29.316 20.8066 29.316 21.1824V38.7366C29.316 39.1124 29.0119 39.4166 28.636 39.4166H22.233C21.8572 39.4166 21.553 39.1124 21.553 38.7366V21.1824C21.553 20.8066 21.8572 20.5024 22.233 20.5024ZM27.956 21.8624H22.9118V38.0566H27.956V21.8624ZM18.2862 26.3053H13.242V38.0566H18.2862V26.3053Z" fill="white"/>
<defs>
<filter id="filter0_b_4401_3260" x="-60.424" y="-60.3546" width="171.713" height="171.713" filterUnits="userSpaceOnUse" color-interpolation-filters="sRGB">
<feFlood flood-opacity="0" result="BackgroundImageFix"/>
<feGaussianBlur in="BackgroundImageFix" stdDeviation="30.2735"/>
<feComposite in2="SourceAlpha" operator="in" result="effect1_backgroundBlur_4401_3260"/>
<feBlend mode="normal" in="SourceGraphic" in2="effect1_backgroundBlur_4401_3260" result="shape"/>
</filter>
<linearGradient id="paint0_linear_4401_3260" x1="9.99057" y1="-32.7519" x2="78.4701" y2="39.9299" gradientUnits="userSpaceOnUse">
<stop stop-color="#434343" stop-opacity="0.86"/>
<stop offset="1" stop-opacity="0"/>
</linearGradient>
</defs>
</svg>
