<svg width="51" height="52" viewBox="0 0 51 52" fill="none" xmlns="http://www.w3.org/2000/svg">
<g opacity="0.41" filter="url(#filter0_b_4401_3261)">
<rect x="0.337891" y="0.895508" width="50.6191" height="50.6191" rx="10" fill="url(#paint0_linear_4401_3261)"/>
</g>
<path d="M25.5853 11.6644C25.0934 11.6644 24.7992 11.8428 24.4739 12.0216C24.1485 12.2007 23.8205 12.4162 23.507 12.6313C23.1934 12.8464 22.8953 13.0613 22.6464 13.2211C22.3975 13.3809 22.1656 13.4797 22.1945 13.472C22.2234 13.4655 21.975 13.4916 21.6795 13.4787C21.384 13.4658 21.0169 13.4332 20.6378 13.404C20.2587 13.375 19.866 13.3464 19.4948 13.3541C19.1237 13.3606 18.7844 13.3523 18.3585 13.5983C17.9325 13.8443 17.7599 14.148 17.5677 14.4656C17.3754 14.7832 17.2034 15.1326 17.0394 15.4757C16.8753 15.8187 16.7231 16.1548 16.5875 16.4176C16.4519 16.6806 16.3022 16.8857 16.3233 16.8645C16.3446 16.842 16.1409 16.9917 15.8781 17.127C15.6152 17.2627 15.2792 17.4149 14.9361 17.5789C14.5931 17.7429 14.2436 17.9149 13.926 18.1072C13.6084 18.2995 13.3114 18.4654 13.0655 18.8914C12.8195 19.3173 12.8223 19.6632 12.8146 20.0344C12.8069 20.4056 12.8351 20.7982 12.8644 21.1774C12.894 21.5565 12.9252 21.9235 12.9392 22.219C12.9533 22.5145 12.9248 22.7629 12.9325 22.734C12.9403 22.7051 12.8415 22.9322 12.6817 23.1809C12.5218 23.4298 12.307 23.7329 12.0919 24.0465C11.8768 24.3599 11.6611 24.6831 11.4822 25.0084C11.3033 25.3337 11.125 25.633 11.125 26.1248C11.125 26.6167 11.3033 26.9109 11.4822 27.2363C11.6611 27.5615 11.8768 27.8846 12.0919 28.1982C12.307 28.5119 12.5218 28.8149 12.6817 29.0637C12.8415 29.3126 12.9402 29.5445 12.9325 29.5156C12.9248 29.4867 12.953 29.735 12.9392 30.0306C12.925 30.3261 12.8939 30.6948 12.8644 31.0739C12.8349 31.4531 12.8069 31.8391 12.8146 32.2103C12.8223 32.5815 12.8194 32.9274 13.0655 33.3533C13.3114 33.7792 13.6084 33.9452 13.926 34.1375C14.2436 34.3297 14.5931 34.5001 14.9361 34.6641C15.2792 34.8281 15.6152 34.987 15.8781 35.1226C16.141 35.2583 16.3445 35.408 16.3233 35.3868C16.3021 35.3643 16.4519 35.5643 16.5875 35.827C16.7231 36.09 16.8753 36.426 17.0394 36.769C17.2034 37.1121 17.3754 37.4615 17.5677 37.7791C17.76 38.0967 17.9325 38.4004 18.3585 38.6463C18.7844 38.8923 19.1237 38.8895 19.4948 38.8972C19.866 38.9036 20.2587 38.8782 20.6378 38.8474C21.0169 38.8184 21.384 38.7848 21.6795 38.7709C21.9749 38.7581 22.2234 38.7841 22.1945 38.7777C22.1656 38.7713 22.3975 38.8688 22.6464 39.0285C22.8953 39.1883 23.1934 39.4049 23.507 39.62C23.8205 39.8351 24.1485 40.0491 24.4739 40.228C24.7992 40.4071 25.0934 40.5869 25.5853 40.5869C26.0771 40.5869 26.3714 40.4069 26.6967 40.228C27.022 40.0493 27.35 39.8351 27.6636 39.62C27.9772 39.4049 28.2753 39.1884 28.5242 39.0285C28.7731 38.8688 29.005 38.77 28.9761 38.7777C28.9471 38.7841 29.1956 38.7581 29.4911 38.7709C29.7865 38.7838 30.1536 38.8181 30.5327 38.8474C30.9119 38.8763 31.3046 38.9049 31.6757 38.8972C32.0469 38.8908 32.3862 38.8911 32.8121 38.6463C33.2381 38.4004 33.4123 38.0967 33.6046 37.7791C33.7968 37.4615 33.9672 37.1121 34.1312 36.769C34.2952 36.426 34.4475 36.0899 34.5831 35.827C34.7187 35.5641 34.8684 35.3656 34.8472 35.3868C34.826 35.4093 35.0296 35.2583 35.2925 35.1226C35.5554 34.987 35.8914 34.828 36.2345 34.6641C36.5775 34.5001 36.9286 34.3297 37.2462 34.1375C37.5638 33.9452 37.8609 33.7792 38.1068 33.3533C38.3527 32.9274 38.3499 32.5815 38.3576 32.2103C38.3654 31.8391 38.3355 31.4531 38.3061 31.0739C38.2766 30.6948 38.2454 30.3261 38.2314 30.0306C38.2176 29.7352 38.2457 29.4867 38.238 29.5156C38.2303 29.5446 38.329 29.3127 38.4889 29.0637C38.6487 28.8149 38.8636 28.5118 39.0787 28.1982C39.2937 27.8847 39.5095 27.5615 39.6884 27.2363C39.8673 26.9109 40.0456 26.6167 40.0456 26.1248C40.0456 25.633 39.8673 25.3337 39.6884 25.0084C39.5095 24.6831 39.2938 24.3601 39.0787 24.0465C38.8636 23.7327 38.6487 23.4298 38.4889 23.1809C38.329 22.9321 38.2303 22.7052 38.238 22.734C38.2457 22.763 38.2176 22.5143 38.2314 22.219C38.2452 21.9236 38.2767 21.5565 38.3061 21.1774C38.3357 20.7982 38.3654 20.4056 38.3576 20.0344C38.3499 19.6632 38.3528 19.3173 38.1068 18.8914C37.8608 18.4654 37.5638 18.2995 37.2462 18.1072C36.9286 17.915 36.5775 17.7429 36.2345 17.5789C35.8914 17.4149 35.5553 17.2628 35.2925 17.127C35.0296 16.9914 34.8261 16.8433 34.8472 16.8645C34.8685 16.887 34.7187 16.6805 34.5831 16.4176C34.4475 16.1547 34.2952 15.8187 34.1312 15.4757C33.9672 15.1326 33.7968 14.7832 33.6046 14.4656C33.4123 14.1479 33.2381 13.8442 32.8121 13.5983C32.3862 13.3524 32.0469 13.3618 31.6757 13.3541C31.3046 13.3477 30.9119 13.3731 30.5327 13.404C30.1536 13.4329 29.7866 13.4649 29.4911 13.4787C29.1956 13.4916 28.9472 13.4655 28.9761 13.472C29.005 13.4784 28.7731 13.3809 28.5242 13.2211C28.2753 13.0613 27.9772 12.8464 27.6636 12.6313C27.35 12.4163 27.022 12.2005 26.6967 12.0216C26.3714 11.8429 26.0771 11.6644 25.5853 11.6644ZM25.5853 13.3856C25.6406 13.4042 25.7519 13.4392 25.881 13.5102C26.1086 13.6352 26.3964 13.8257 26.6967 14.0318C26.997 14.2379 27.3094 14.4619 27.6071 14.6532C27.9049 14.8445 28.1575 15.0099 28.5375 15.1117C28.9175 15.2136 29.219 15.1916 29.5725 15.1748C29.926 15.1588 30.3026 15.1264 30.6657 15.0984C31.0287 15.0695 31.3796 15.0497 31.6392 15.0552C31.7842 15.0587 31.8969 15.0809 31.9549 15.0918C31.9928 15.1363 32.0709 15.2243 32.1476 15.351C32.282 15.5731 32.4357 15.8813 32.5928 16.2099C32.7499 16.5384 32.9074 16.8822 33.0696 17.1967C33.2319 17.5111 33.3696 17.7841 33.6478 18.0623C33.9259 18.3403 34.1938 18.4715 34.5083 18.6338C34.8228 18.7961 35.1716 18.9601 35.5001 19.1172C35.8287 19.2744 36.1386 19.4295 36.3607 19.5641C36.4855 19.6396 36.5729 19.7164 36.6182 19.7552C36.6288 19.8122 36.6533 19.9256 36.6564 20.0725C36.6619 20.3322 36.6398 20.683 36.6116 21.046C36.5833 21.4091 36.5469 21.784 36.5302 22.1375C36.5135 22.491 36.4915 22.7942 36.5933 23.1742C36.6951 23.5542 36.8656 23.8051 37.0568 24.1029C37.2481 24.4006 37.4672 24.7063 37.6732 25.0066C37.8792 25.3069 38.0747 25.6031 38.1998 25.8307C38.2702 25.9587 38.3056 26.0688 38.3244 26.1247C38.3055 26.1795 38.2695 26.287 38.1998 26.4138C38.0747 26.6414 37.8792 26.9358 37.6732 27.2362C37.4672 27.5364 37.2481 27.8488 37.0568 28.1466C36.8656 28.4443 36.6951 28.6969 36.5933 29.0769C36.4915 29.4569 36.5134 29.7584 36.5302 30.112C36.5469 30.4654 36.5834 30.8421 36.6116 31.2051C36.6399 31.5682 36.6618 31.9191 36.6564 32.1787C36.6534 32.3238 36.629 32.4364 36.6182 32.4943C36.5733 32.5326 36.4865 32.6109 36.3607 32.687C36.1386 32.8214 35.8287 32.9751 35.5001 33.1322C35.1716 33.2894 34.8228 33.4469 34.5083 33.609C34.1938 33.7714 33.9259 33.9024 33.6478 34.1805C33.3696 34.4586 33.2319 34.7333 33.0696 35.0478C32.9074 35.3622 32.7499 35.711 32.5928 36.0396C32.4357 36.3681 32.282 36.678 32.1476 36.9001C32.0714 37.0259 31.9932 37.1127 31.9549 37.1577C31.8969 37.1683 31.7842 37.1923 31.6392 37.1959C31.3796 37.2023 31.0287 37.1788 30.6657 37.151C30.3026 37.1221 29.926 37.0863 29.5725 37.0696C29.219 37.0535 28.9175 37.0312 28.5375 37.1327C28.1575 37.2347 27.9049 37.4049 27.6071 37.5963C27.3094 37.7875 26.997 38.0066 26.6967 38.2126C26.3964 38.4187 26.1085 38.6091 25.881 38.7343C25.7516 38.8054 25.6404 38.8418 25.5853 38.8622C25.5296 38.8416 25.4196 38.8048 25.2912 38.7343C25.0637 38.6092 24.7742 38.4187 24.4739 38.2126C24.1736 38.0065 23.8612 37.7875 23.5634 37.5963C23.2657 37.405 23.0148 37.2346 22.6348 37.1327C22.2548 37.0308 21.9516 37.0529 21.5981 37.0696C21.2446 37.0857 20.8696 37.1227 20.5066 37.151C20.1435 37.1799 19.7927 37.2013 19.533 37.1959C19.3861 37.1923 19.2728 37.1682 19.2157 37.1577C19.177 37.1124 19.1002 37.0249 19.0247 36.9001C18.8902 36.678 18.7349 36.3681 18.5778 36.0396C18.4207 35.711 18.2632 35.3623 18.101 35.0478C17.9387 34.7333 17.801 34.4587 17.5228 34.1805C17.2446 33.9025 16.9767 33.7713 16.6622 33.609C16.3477 33.4467 15.999 33.2893 15.6704 33.1322C15.3419 32.975 15.032 32.8216 14.8099 32.687C14.6832 32.6104 14.5969 32.5322 14.5524 32.4943C14.5416 32.4364 14.5189 32.3237 14.5158 32.1787C14.5103 31.9189 14.5308 31.5682 14.559 31.2051C14.5873 30.8421 14.6237 30.4654 14.6404 30.112C14.6571 29.7584 14.6808 29.4569 14.5789 29.0769C14.4771 28.6969 14.305 28.4444 14.1138 28.1466C13.9225 27.8489 13.7034 27.5365 13.4974 27.2362C13.2914 26.9359 13.0959 26.6413 12.9708 26.4138C12.901 26.287 12.8651 26.1795 12.8462 26.1247C12.865 26.0689 12.9004 25.9587 12.9708 25.8307C13.0959 25.6031 13.2914 25.3069 13.4974 25.0066C13.7034 24.7064 13.9225 24.4006 14.1138 24.1029C14.305 23.8052 14.4771 23.5542 14.5789 23.1742C14.6808 22.7942 14.6571 22.491 14.6404 22.1375C14.6237 21.784 14.5872 21.4091 14.559 21.046C14.5307 20.683 14.5104 20.3321 14.5158 20.0725C14.5189 19.9274 14.5416 19.8147 14.5524 19.7568C14.5969 19.7189 14.6832 19.6407 14.8099 19.5641C15.032 19.4298 15.3419 19.2744 15.6704 19.1172C15.999 18.96 16.3477 18.7961 16.6622 18.6338C16.9768 18.4714 17.2446 18.3405 17.5228 18.0623C17.801 17.7842 17.9387 17.5112 18.101 17.1967C18.2632 16.8823 18.4207 16.5384 18.5778 16.2099C18.7348 15.8814 18.8902 15.5731 19.0247 15.351C19.1013 15.2243 19.1795 15.1364 19.2174 15.0918C19.2753 15.0812 19.388 15.0588 19.533 15.0552C19.7927 15.0488 20.1435 15.0704 20.5066 15.0985C20.8696 15.1274 21.2446 15.1582 21.5981 15.1749C21.9516 15.1909 22.2548 15.2133 22.6348 15.1117C23.0148 15.0098 23.2657 14.8444 23.5634 14.6532C23.8612 14.4619 24.1735 14.2378 24.4739 14.0319C24.7742 13.8258 25.0637 13.6354 25.2912 13.5102C25.4192 13.4399 25.5294 13.4044 25.5853 13.3856ZM21.6828 19.2966C20.937 19.3143 20.1968 19.6047 19.6327 20.1688C18.4681 21.3334 18.4681 23.2489 19.6327 24.4135C20.7973 25.5781 22.7128 25.5781 23.8774 24.4135C25.0421 23.2489 25.0421 21.3334 23.8774 20.1688C23.2769 19.5683 22.4767 19.2778 21.6828 19.2966ZM21.7542 20.9862C22.0852 20.9862 22.4157 21.116 22.673 21.3733C23.1875 21.8878 23.1875 22.6962 22.673 23.2107C22.1585 23.7252 21.35 23.7252 20.8355 23.2107C20.321 22.6962 20.321 21.8878 20.8355 21.3733C21.0928 21.116 21.4233 20.9862 21.7542 20.9862ZM29.722 21.139C29.6103 21.1384 29.4995 21.1598 29.396 21.202C29.2925 21.2441 29.1984 21.3063 29.1189 21.3849L20.8488 29.6534C20.7694 29.7324 20.7063 29.8264 20.6633 29.9299C20.6202 30.0334 20.5981 30.1444 20.5981 30.2564C20.5981 30.3685 20.6202 30.4795 20.6633 30.583C20.7063 30.6865 20.7694 30.7805 20.8488 30.8595C20.9279 30.939 21.0218 31.002 21.1253 31.0451C21.2288 31.0881 21.3398 31.1102 21.4519 31.1102C21.564 31.1102 21.6749 31.0881 21.7784 31.0451C21.8819 31.002 21.9759 30.939 22.0549 30.8595L30.3234 22.5894C30.4026 22.5104 30.4655 22.4165 30.5084 22.3132C30.5513 22.2098 30.5733 22.099 30.5733 21.9871C30.5733 21.8753 30.5513 21.7645 30.5084 21.6611C30.4655 21.5578 30.4026 21.4639 30.3234 21.3849C30.1634 21.2266 29.9471 21.1382 29.722 21.139ZM29.418 26.9587C28.648 26.9587 27.8771 27.2502 27.2948 27.8325C26.1302 28.9972 26.1302 30.9126 27.2948 32.0773C28.4594 33.2419 30.3749 33.2419 31.5395 32.0773C32.7041 30.9126 32.7041 28.9972 31.5395 27.8325C30.9572 27.2502 30.188 26.9587 29.418 26.9587ZM29.418 28.6499C29.7489 28.6499 30.0795 28.7781 30.3367 29.0353C30.8512 29.5499 30.8512 30.3599 30.3367 30.8744C29.8222 31.389 29.0138 31.389 28.4993 30.8744C27.9848 30.3599 27.9848 29.5499 28.4993 29.0353C28.7565 28.7781 29.0871 28.6499 29.418 28.6499Z" fill="white"/>
<defs>
<filter id="filter0_b_4401_3261" x="-60.2091" y="-59.6515" width="171.713" height="171.713" filterUnits="userSpaceOnUse" color-interpolation-filters="sRGB">
<feFlood flood-opacity="0" result="BackgroundImageFix"/>
<feGaussianBlur in="BackgroundImageFix" stdDeviation="30.2735"/>
<feComposite in2="SourceAlpha" operator="in" result="effect1_backgroundBlur_4401_3261"/>
<feBlend mode="normal" in="SourceGraphic" in2="effect1_backgroundBlur_4401_3261" result="shape"/>
</filter>
<linearGradient id="paint0_linear_4401_3261" x1="10.2054" y1="-32.0488" x2="78.6849" y2="40.633" gradientUnits="userSpaceOnUse">
<stop stop-color="#434343" stop-opacity="0.86"/>
<stop offset="1" stop-opacity="0"/>
</linearGradient>
</defs>
</svg>
