<svg width="21" height="21" viewBox="0 0 21 21" fill="none" xmlns="http://www.w3.org/2000/svg">
<path d="M5.06738 5.90307L5.06738 12.5867C5.06738 13.3744 5.06738 13.7683 5.11169 14.0989C5.41114 16.3334 7.16881 18.091 9.40323 18.3905C9.73383 18.4348 10.1277 18.4348 10.9155 18.4348V18.4348C11.7033 18.4348 12.0972 18.4348 12.4278 18.3905C14.6622 18.091 16.4199 16.3334 16.7193 14.0989C16.7636 13.7683 16.7636 13.3744 16.7636 12.5867V5.90307M5.06738 5.90307H3.39648M5.06738 5.90307H8.40917M16.7636 5.90307H18.4345M16.7636 5.90307H13.4219M8.40917 5.90307V5.90307C8.40917 5.43251 8.40917 5.19723 8.44858 5.00166C8.60765 4.21223 9.22467 3.59521 10.0141 3.43614C10.2097 3.39673 10.445 3.39673 10.9155 3.39673V3.39673C11.3861 3.39673 11.6214 3.39673 11.8169 3.43614C12.6064 3.59521 13.2234 4.21223 13.3824 5.00166C13.4219 5.19723 13.4219 5.43251 13.4219 5.90307V5.90307M8.40917 5.90307L13.4219 5.90307M8.82689 8.82714L8.82689 14.6753M13.0041 8.82714L13.0041 14.6753" stroke="white" stroke-width="1.5" stroke-linecap="round" stroke-linejoin="round"/>
</svg>
