<svg width="25" height="44" viewBox="0 0 25 44" fill="none" xmlns="http://www.w3.org/2000/svg">
<path fill-rule="evenodd" clip-rule="evenodd" d="M14.5934 12.2246C14.41 7.47119 10.4926 3.66949 5.69463 3.66949C5.21384 3.66949 4.82227 4.06105 4.82227 4.54349C4.82227 5.02594 5.21384 5.41752 5.69463 5.41752C9.55086 5.41752 12.6983 8.47243 12.847 12.2923C12.8652 12.7748 13.2716 13.1498 13.754 13.1316C14.2348 13.1134 14.6115 12.707 14.5934 12.2246ZM5.69463 8.92514C7.62274 8.92514 9.2039 10.4237 9.33608 12.3188C9.36912 12.7995 9.78712 13.163 10.2679 13.13C10.7487 13.0969 11.1122 12.6789 11.0791 12.1981C10.8858 9.39437 8.54797 7.17711 5.69463 7.17711C5.21384 7.17711 4.82227 7.56867 4.82227 8.05111C4.82227 8.53356 5.21384 8.92514 5.69463 8.92514ZM5.69463 2.14451C11.3534 2.14451 15.9663 6.66162 16.12 12.2824C16.1332 12.7648 16.5363 13.1448 17.0171 13.1316C17.4996 13.1184 17.8812 12.7169 17.868 12.2345C17.6879 5.67029 12.3018 0.396484 5.69463 0.396484C5.21384 0.396484 4.82227 0.788042 4.82227 1.27048C4.82227 1.75293 5.21384 2.14451 5.69463 2.14451Z" fill="#6B5CA6"/>
<path fill-rule="evenodd" clip-rule="evenodd" d="M24.3785 20.3239C24.3785 19.8414 23.9884 19.4507 23.5055 19.4507H1.79899C1.31614 19.4507 0.923828 19.8414 0.923828 20.3239V29.2933C0.923828 29.7759 1.31614 30.1675 1.79899 30.1675H23.5055C23.9884 30.1675 24.3785 29.7759 24.3785 29.2933V20.3239ZM22.6325 21.1981V28.4192H2.67199V21.1981H22.6325Z" fill="#7558EA"/>
<path fill-rule="evenodd" clip-rule="evenodd" d="M24.3759 20.3244C24.3759 19.8419 23.985 19.4512 23.5022 19.4512H18.5813C18.0985 19.4512 17.707 19.8419 17.707 20.3244V29.2938C17.707 29.7764 18.0985 30.168 18.5813 30.168H23.5022C23.985 30.168 24.3759 29.7764 24.3759 29.2938V20.3244ZM22.6284 21.1986V28.4197H19.455V21.1986H22.6284Z" fill="#7558EA"/>
<path fill-rule="evenodd" clip-rule="evenodd" d="M24.3759 33.4719C24.3759 32.9893 23.985 32.5986 23.5022 32.5986H18.5813C18.0985 32.5986 17.707 32.9893 17.707 33.4719V42.4413C17.707 42.9238 18.0985 43.3155 18.5813 43.3155H23.5022C23.985 43.3155 24.3759 42.9238 24.3759 42.4413V33.4719ZM22.6284 34.3461V41.5671H19.455V34.3461H22.6284Z" fill="#7558EA"/>
<path fill-rule="evenodd" clip-rule="evenodd" d="M24.3785 33.4709C24.3785 32.9884 23.9884 32.5977 23.5055 32.5977H1.79899C1.31614 32.5977 0.923828 32.9884 0.923828 33.4709V42.4403C0.923828 42.9229 1.31614 43.3145 1.79899 43.3145H23.5055C23.9884 43.3145 24.3785 42.9229 24.3785 42.4403V33.4709ZM22.6325 34.3451V41.5661H2.67199V34.3451H22.6325Z" fill="#7558EA"/>
<path fill-rule="evenodd" clip-rule="evenodd" d="M7.30903 25.6831H13.6107C14.0931 25.6831 14.4852 25.2911 14.4852 24.8096C14.4852 24.3256 14.0931 23.9336 13.6107 23.9336H7.30903C6.82667 23.9336 6.43555 24.3256 6.43555 24.8096C6.43555 25.2911 6.82667 25.6831 7.30903 25.6831Z" fill="#7558EA"/>
<path fill-rule="evenodd" clip-rule="evenodd" d="M11.7797 29.6139V33.4727C11.7797 33.9553 12.1718 34.3469 12.6533 34.3469C13.1373 34.3469 13.5293 33.9553 13.5293 33.4727V29.6139C13.5293 29.1319 13.1373 28.7402 12.6533 28.7402C12.1718 28.7402 11.7797 29.1319 11.7797 29.6139Z" fill="#7558EA"/>
<path fill-rule="evenodd" clip-rule="evenodd" d="M7.30903 38.8306H13.6107C14.0931 38.8306 14.4852 38.4386 14.4852 37.957C14.4852 37.4731 14.0931 37.0811 13.6107 37.0811H7.30903C6.82667 37.0811 6.43555 37.4731 6.43555 37.957C6.43555 38.4386 6.82667 38.8306 7.30903 38.8306Z" fill="#7558EA"/>
<path fill-rule="evenodd" clip-rule="evenodd" d="M3.33754 13.0107C3.33754 11.9256 4.21924 11.0452 5.30457 11.0452C6.38991 11.0452 7.26953 11.9256 7.26953 13.0107C7.26953 14.0958 6.38991 14.9775 5.30457 14.9775C4.21924 14.9775 3.33754 14.0958 3.33754 13.0107Z" fill="#6B5CA6"/>
<path fill-rule="evenodd" clip-rule="evenodd" d="M6.17578 20.209L6.17578 13.0105C6.17578 12.5284 5.78531 12.137 5.30247 12.137C4.81963 12.137 4.42916 12.5284 4.42916 13.0105L4.42916 20.209C4.42916 20.6911 4.81963 21.0825 5.30247 21.0825C5.78531 21.0825 6.17578 20.6911 6.17578 20.209Z" fill="#6B5CA6"/>
</svg>
