<svg width="43" height="35" viewBox="0 0 43 35" fill="none" xmlns="http://www.w3.org/2000/svg">
<path d="M21.5862 5.7876C18.9582 5.78689 16.3912 6.57892 14.2205 8.06019C12.0499 9.54145 10.3765 11.6431 9.4191 14.0904C8.46171 16.5377 8.26483 19.2169 8.85418 21.7779C9.44353 24.3389 10.7917 26.6625 12.7225 28.4452V34.1383L20.0906 31.8301C20.5869 31.89 21.0863 31.92 21.5862 31.9199C25.0515 31.9199 28.3749 30.5433 30.8253 28.0929C33.2757 25.6425 34.6523 22.3191 34.6523 18.8537C34.6523 15.3884 33.2757 12.065 30.8253 9.61458C28.3749 7.16421 25.0515 5.7876 21.5862 5.7876ZM21.5862 30.4243C21.0862 30.424 20.5867 30.3924 20.0906 30.3296H19.9261L14.2181 32.1442V27.7722L13.9588 27.5529C11.923 25.7669 10.5785 23.3231 10.1597 20.6475C9.74081 17.972 10.2741 15.2342 11.6667 12.9115C13.0593 10.5888 15.2228 8.82847 17.7802 7.93728C20.3375 7.04609 23.1265 7.08058 25.661 8.03475C28.1955 8.98892 30.3148 10.8023 31.6495 13.1587C32.9842 15.5151 33.4497 18.2652 32.9648 20.9296C32.4799 23.594 31.0753 26.0038 28.996 27.7389C26.9166 29.4739 24.2943 30.4243 21.5862 30.4243Z" fill="#43B0FF"/>
<path d="M39.5335 13.1209H39.2294C38.0194 9.39604 35.6612 6.14989 32.4927 3.84774C29.3243 1.5456 25.5084 0.305664 21.5919 0.305664C17.6754 0.305664 13.8595 1.5456 10.691 3.84774C7.52262 6.14989 5.16438 9.39604 3.95435 13.1209H3.86462C3.47533 13.1203 3.08973 13.1964 2.72988 13.3449C2.37004 13.4934 2.04301 13.7114 1.76751 13.9865C1.49201 14.2615 1.27345 14.5882 1.12432 14.9477C0.975195 15.3073 0.898437 15.6928 0.898438 16.0821V22.0394C0.898438 22.8247 1.21042 23.5779 1.76575 24.1333C2.32108 24.6886 3.07427 25.0006 3.85963 25.0006H6.35222C6.81456 24.9993 7.2576 24.815 7.58453 24.4881C7.91146 24.1611 8.09571 23.7181 8.09703 23.2558V14.8657C8.09571 14.4034 7.91146 13.9603 7.58453 13.6334C7.2576 13.3065 6.81456 13.1222 6.35222 13.1209H5.54462C6.72286 9.80806 8.89769 6.94114 11.7705 4.91378C14.6433 2.88643 18.0733 1.79803 21.5894 1.79803C25.1055 1.79803 28.5355 2.88643 31.4083 4.91378C34.2811 6.94114 36.4559 9.80806 37.6342 13.1209H37.0409C36.5782 13.1209 36.1344 13.3047 35.8072 13.632C35.48 13.9592 35.2961 14.403 35.2961 14.8657V23.2558C35.2961 23.7185 35.48 24.1623 35.8072 24.4895C36.1344 24.8167 36.5782 25.0006 37.0409 25.0006H39.5335C40.3165 24.9928 41.0651 24.6783 41.6188 24.1246C42.1724 23.571 42.4869 22.8223 42.4947 22.0394V16.0821C42.4869 15.2992 42.1724 14.5505 41.6188 13.9968C41.0651 13.4432 40.3165 13.1287 39.5335 13.1209ZM6.60148 14.8657V23.2558C6.60148 23.3219 6.57521 23.3853 6.52847 23.432C6.48172 23.4788 6.41832 23.505 6.35222 23.505H3.85963C3.47092 23.505 3.09813 23.3506 2.82327 23.0757C2.5484 22.8009 2.39399 22.4281 2.39399 22.0394V16.0821C2.39399 15.6934 2.5484 15.3206 2.82327 15.0457C3.09813 14.7709 3.47092 14.6165 3.85963 14.6165H6.35222C6.41746 14.6178 6.47958 14.6446 6.52525 14.6912C6.57093 14.7378 6.5965 14.8005 6.59649 14.8657H6.60148ZM40.9992 22.0394C40.9992 22.4281 40.8448 22.8009 40.5699 23.0757C40.295 23.3506 39.9222 23.505 39.5335 23.505H37.0409C36.9748 23.505 36.9114 23.4788 36.8647 23.432C36.8179 23.3853 36.7917 23.3219 36.7917 23.2558V14.8657C36.7917 14.7996 36.8179 14.7362 36.8647 14.6895C36.9114 14.6427 36.9748 14.6165 37.0409 14.6165H39.5335C39.9222 14.6165 40.295 14.7709 40.5699 15.0457C40.8448 15.3206 40.9992 15.6934 40.9992 16.0821V22.0394Z" fill="#6B5CA6"/>
<path d="M15.4906 16.3765C14.9976 16.3765 14.5157 16.5227 14.1058 16.7965C13.6959 17.0704 13.3764 17.4597 13.1878 17.9152C12.9991 18.3706 12.9498 18.8718 13.0459 19.3553C13.1421 19.8388 13.3795 20.283 13.7281 20.6316C14.0767 20.9802 14.5208 21.2176 15.0044 21.3137C15.4879 21.4099 15.989 21.3606 16.4445 21.1719C16.9 20.9832 17.2893 20.6638 17.5631 20.2539C17.837 19.844 17.9832 19.362 17.9832 18.8691C17.9832 18.5417 17.9187 18.2176 17.7935 17.9152C17.6682 17.6128 17.4846 17.338 17.2532 17.1065C17.0217 16.8751 16.7469 16.6915 16.4445 16.5662C16.1421 16.4409 15.818 16.3765 15.4906 16.3765ZM15.4906 19.8661C15.2934 19.8661 15.1007 19.8076 14.9367 19.6981C14.7728 19.5885 14.645 19.4328 14.5695 19.2506C14.494 19.0684 14.4743 18.8679 14.5128 18.6745C14.5512 18.4811 14.6462 18.3035 14.7856 18.164C14.9251 18.0246 15.1027 17.9296 15.2961 17.8912C15.4895 17.8527 15.69 17.8724 15.8722 17.9479C16.0544 18.0234 16.2101 18.1512 16.3196 18.3151C16.4292 18.4791 16.4877 18.6719 16.4877 18.8691C16.489 19.0008 16.4642 19.1315 16.4147 19.2537C16.3651 19.3758 16.2919 19.4869 16.1992 19.5805C16.1065 19.6742 15.9961 19.7485 15.8745 19.7992C15.7529 19.8499 15.6224 19.8761 15.4906 19.8761V19.8661Z" fill="#43B0FF"/>
<path d="M21.5863 16.3765C21.0934 16.3765 20.6114 16.5227 20.2015 16.7965C19.7916 17.0704 19.4721 17.4597 19.2835 17.9152C19.0948 18.3706 19.0455 18.8718 19.1416 19.3553C19.2378 19.8388 19.4752 20.283 19.8238 20.6316C20.1724 20.9802 20.6165 21.2176 21.1001 21.3137C21.5836 21.4099 22.0847 21.3606 22.5402 21.1719C22.9957 20.9832 23.385 20.6638 23.6588 20.2539C23.9327 19.844 24.0789 19.362 24.0789 18.8691C24.0789 18.208 23.8163 17.574 23.3489 17.1065C22.8814 16.6391 22.2474 16.3765 21.5863 16.3765ZM21.5863 19.8661C21.3891 19.8661 21.1964 19.8076 21.0324 19.6981C20.8685 19.5885 20.7407 19.4328 20.6652 19.2506C20.5897 19.0684 20.57 18.8679 20.6085 18.6745C20.6469 18.4811 20.7419 18.3035 20.8813 18.164C21.0208 18.0246 21.1984 17.9296 21.3918 17.8912C21.5852 17.8527 21.7857 17.8724 21.9679 17.9479C22.1501 18.0234 22.3058 18.1512 22.4153 18.3151C22.5249 18.4791 22.5834 18.6719 22.5834 18.8691C22.5847 19.0008 22.5599 19.1315 22.5104 19.2537C22.4608 19.3758 22.3876 19.4869 22.2949 19.5805C22.2022 19.6742 22.0918 19.7485 21.9702 19.7992C21.8486 19.8499 21.7181 19.8761 21.5863 19.8761V19.8661Z" fill="#43B0FF"/>
<path d="M27.684 16.3765C27.191 16.3765 26.7091 16.5227 26.2992 16.7965C25.8893 17.0704 25.5698 17.4597 25.3811 17.9152C25.1925 18.3706 25.1431 18.8718 25.2393 19.3553C25.3355 19.8388 25.5729 20.283 25.9215 20.6316C26.2701 20.9802 26.7142 21.2176 27.1977 21.3137C27.6812 21.4099 28.1824 21.3606 28.6379 21.1719C29.0933 20.9832 29.4826 20.6638 29.7565 20.2539C30.0304 19.844 30.1766 19.362 30.1766 18.8691C30.1766 18.208 29.914 17.574 29.4465 17.1065C28.9791 16.6391 28.3451 16.3765 27.684 16.3765ZM27.684 19.8661C27.4868 19.8661 27.294 19.8076 27.1301 19.6981C26.9661 19.5885 26.8383 19.4328 26.7629 19.2506C26.6874 19.0684 26.6676 18.8679 26.7061 18.6745C26.7446 18.4811 26.8395 18.3035 26.979 18.164C27.1184 18.0246 27.2961 17.9296 27.4895 17.8912C27.6829 17.8527 27.8834 17.8724 28.0655 17.9479C28.2477 18.0234 28.4034 18.1512 28.513 18.3151C28.6226 18.4791 28.681 18.6719 28.681 18.8691C28.6823 19.0008 28.6575 19.1315 28.608 19.2537C28.5585 19.3758 28.4853 19.4869 28.3926 19.5805C28.2998 19.6742 28.1895 19.7485 28.0679 19.7992C27.9462 19.8499 27.8158 19.8761 27.684 19.8761V19.8661Z" fill="#43B0FF"/>
</svg>
