<svg width="44" height="39" viewBox="0 0 44 39" fill="none" xmlns="http://www.w3.org/2000/svg">
<path d="M21.8449 31.5386C21.2449 31.5386 20.8449 31.9386 20.8449 32.5386V36.1386H15.9449V32.5386C15.9449 32.5386 15.9449 32.5386 15.9449 32.4386C15.9449 32.3386 15.9449 32.3386 15.9449 32.2386C15.9449 32.1386 15.9449 32.1386 15.8449 32.0386C15.8449 31.9386 15.7449 31.9386 15.7449 31.8386C15.7449 31.7386 15.6449 31.7386 15.6449 31.7386C15.6449 31.7386 15.5449 31.6386 15.4449 31.6386C15.3449 31.6386 15.3449 31.5386 15.2449 31.5386C15.2449 31.5386 15.2449 31.5386 15.1449 31.5386C12.8449 30.9386 10.7449 29.7386 9.04486 28.0386C9.04486 28.0386 9.04486 28.0386 8.94486 28.0386C8.84486 28.0386 8.84486 27.9386 8.74486 27.9386C8.64486 27.9386 8.64486 27.8386 8.54486 27.8386C8.44486 27.8386 8.44486 27.8386 8.34486 27.8386C8.24486 27.8386 8.24486 27.8386 8.14486 27.8386C8.04486 27.8386 8.04486 27.8386 7.94486 27.8386C7.84486 27.8386 7.84486 27.8386 7.74486 27.9386H7.64486L4.54486 29.7386L2.04486 25.4386L5.14486 23.6386C5.14486 23.6386 5.14486 23.6386 5.24486 23.6386C5.34486 23.6386 5.34486 23.5386 5.44486 23.5386L5.54486 23.4386C5.54486 23.3386 5.64486 23.3386 5.64486 23.2386C5.64486 23.1386 5.64486 23.1386 5.74486 23.0386C5.74486 22.9386 5.74486 22.9386 5.74486 22.8386C5.74486 22.7386 5.74486 22.7386 5.74486 22.6386C5.74486 22.6386 5.74486 22.6386 5.74486 22.5386C5.44486 21.4386 5.24486 20.2386 5.24486 19.0386C5.24486 17.8386 5.44486 16.6386 5.74486 15.5386C5.74486 15.5386 5.74486 15.5386 5.74486 15.4386C5.74486 15.3386 5.74486 15.3386 5.74486 15.2386C5.74486 15.1386 5.74486 15.1386 5.74486 15.0386C5.74486 14.9386 5.74486 14.9386 5.64486 14.8386C5.64486 14.7386 5.64486 14.7386 5.54486 14.6386C5.54486 14.5386 5.44486 14.5386 5.44486 14.5386C5.44486 14.5386 5.34486 14.4386 5.24486 14.4386C5.24486 14.4386 5.24486 14.4386 5.14486 14.4386L2.04486 12.6386L4.54486 8.33857L7.64486 10.1386C7.64486 10.1386 7.64486 10.1386 7.74486 10.1386C7.84486 10.1386 7.84486 10.1386 7.94486 10.2386C8.04486 10.2386 8.04486 10.2386 8.14486 10.2386C8.14486 10.2386 8.14486 10.2386 8.24486 10.2386H8.34486C8.44486 10.2386 8.44486 10.2386 8.54486 10.2386C8.64486 10.2386 8.64486 10.2386 8.74486 10.1386C8.84486 10.1386 8.84486 10.0386 8.94486 10.0386C8.94486 10.0386 8.94486 10.0386 9.04486 10.0386C10.7449 8.33857 12.8449 7.13857 15.1449 6.53857C15.1449 6.53857 15.1449 6.53857 15.2449 6.53857C15.3449 6.53857 15.3449 6.43857 15.4449 6.43857C15.5449 6.43857 15.5449 6.33857 15.6449 6.33857L15.7449 6.23857C15.7449 6.13858 15.8449 6.13857 15.8449 6.03857C15.8449 5.93857 15.8449 5.93857 15.9449 5.83857C15.9449 5.73857 15.9449 5.73857 15.9449 5.63857C15.9449 5.63857 15.9449 5.63857 15.9449 5.53857V1.93857H20.8449V5.53857C20.8449 5.53857 20.8449 5.53857 20.8449 5.63857C20.8449 5.73857 20.8449 5.73857 20.8449 5.83857C20.8449 5.93857 20.8449 5.93857 20.9449 6.03857C20.9449 6.13857 21.0449 6.13858 21.0449 6.23857C21.0449 6.33857 21.1449 6.33857 21.1449 6.33857C21.1449 6.33857 21.2449 6.43857 21.3449 6.43857C21.4449 6.43857 21.4449 6.53857 21.5449 6.53857C21.5449 6.53857 21.5449 6.53857 21.6449 6.53857C23.9449 7.13857 26.0449 8.33857 27.7449 10.0386C27.9449 10.2386 28.2449 10.3386 28.4449 10.3386C28.7449 10.3386 28.9449 10.2386 29.1449 10.0386C29.5449 9.63857 29.5449 9.03857 29.1449 8.63857C27.4449 6.83857 25.2449 5.53857 22.9449 4.83857V1.03857C22.9449 0.438574 22.5449 0.0385742 21.9449 0.0385742H15.0449C14.4449 0.0385742 14.0449 0.438574 14.0449 1.03857V4.83857C11.9449 5.53857 10.0449 6.63857 8.34486 8.13857L5.04486 6.23857C4.84486 6.13858 4.54486 6.03857 4.24486 6.13857C3.94486 6.23857 3.74486 6.33857 3.64486 6.63857L0.14486 12.6386C-0.15514 13.1386 0.0448599 13.7386 0.54486 14.0386L3.84486 15.9386C3.64486 17.0386 3.44486 18.1386 3.44486 19.2386C3.44486 20.3386 3.54486 21.4386 3.84486 22.5386L0.54486 24.4386C0.0448599 24.7386 -0.0551397 25.3386 0.14486 25.8386L3.64486 31.8386C3.74486 32.0386 4.04486 32.2386 4.24486 32.3386C4.34486 32.3386 4.44486 32.3386 4.54486 32.3386C4.74486 32.3386 4.84486 32.3386 5.04486 32.2386L8.34486 30.3386C9.94486 31.8386 11.9449 32.9386 14.0449 33.6386V37.4386C14.0449 38.0386 14.4449 38.4386 15.0449 38.4386H21.9449C22.5449 38.4386 22.9449 38.0386 22.9449 37.4386V32.8386C22.8449 32.0386 22.3449 31.5386 21.8449 31.5386Z" fill="#43B0FF"/>
<path d="M18.3441 11.4385C14.1441 11.4385 10.7441 14.8385 10.7441 19.0385C10.7441 23.2385 14.1441 26.6385 18.3441 26.6385C22.5441 26.6385 25.9441 23.2385 25.9441 19.0385C25.9441 14.8385 22.5441 11.4385 18.3441 11.4385ZM18.3441 24.6385C15.2441 24.6385 12.7441 22.1385 12.7441 19.0385C12.7441 15.9385 15.2441 13.4385 18.3441 13.4385C21.4441 13.4385 23.9441 15.9385 23.9441 19.0385C23.9441 22.1385 21.4441 24.6385 18.3441 24.6385Z" fill="#43B0FF"/>
<path d="M39.9445 4.73835C38.6445 4.23835 37.1445 4.23835 35.8445 4.83835C34.5445 5.43835 33.5445 6.43835 32.9445 7.73835L32.4445 8.83835L24.7445 28.3384C24.7445 28.4384 24.6445 28.5384 24.6445 28.6384V28.7384V28.8384L26.1445 36.9384C26.2445 37.2384 26.4445 37.5384 26.7445 37.7384C26.8445 37.7384 26.9445 37.8384 27.1445 37.8384C27.3445 37.8384 27.5445 37.7383 27.7445 37.6384L34.3445 32.7384L34.4445 32.6384C34.4445 32.6384 34.5445 32.6384 34.5445 32.5384C34.6445 32.4384 34.6445 32.3384 34.6445 32.2384L42.8445 11.6384C43.3445 10.3384 43.3445 8.83835 42.7445 7.53835C42.1445 6.23835 41.2445 5.23835 39.9445 4.73835ZM36.6445 6.63835C37.4445 6.23835 38.3445 6.23835 39.2445 6.63835C40.0445 6.93835 40.7445 7.63835 41.0445 8.43835C41.4445 9.23835 41.4445 10.1384 41.0445 11.0384L40.9445 11.2384L34.7445 8.73835L34.8445 8.53835C35.1445 7.63835 35.8445 7.03835 36.6445 6.63835ZM33.2445 30.6384L27.0445 28.1384L34.0445 10.5384L40.2445 13.0384L33.2445 30.6384ZM27.0445 30.3384L31.7445 32.2384L27.8445 35.1384L27.0445 30.3384Z" fill="#6B5CA6"/>
</svg>
