<svg width="41" height="41" viewBox="0 0 41 41" fill="none" xmlns="http://www.w3.org/2000/svg">
<path d="M13.562 14.8747C15.2205 12.6634 17.871 11.3438 20.6514 11.3438C25.0905 11.3438 28.8221 14.6319 29.4503 18.9493L27.0889 19.0362C26.7756 19.0472 26.497 19.239 26.3747 19.5278C26.2523 19.8167 26.3084 20.1505 26.5175 20.3833L29.8771 24.1218C30.031 24.293 30.2496 24.3901 30.4785 24.3901C30.488 24.3901 30.4982 24.3901 30.5085 24.3893C30.7476 24.3806 30.971 24.2662 31.1178 24.0768L34.1941 20.1016C34.3858 19.853 34.4166 19.5168 34.2738 19.2374C34.1309 18.9588 33.8697 18.7852 33.5248 18.7994L31.0684 18.8898C30.4013 13.7025 25.9562 9.72754 20.6514 9.72754C17.3647 9.72754 14.2312 11.2886 12.2693 13.904C12.0013 14.2615 12.0735 14.7682 12.4307 15.0357C12.7882 15.304 13.2944 15.2314 13.562 14.8747ZM30.4319 22.3216L28.8741 20.5877L31.8588 20.478L30.4319 22.3216Z" fill="#6B5CA6"/>
<path d="M7.75932 21.8476C7.79744 21.8476 10.2138 21.7262 10.252 21.7243C10.9782 26.8449 15.3949 30.7498 20.6533 30.7498C23.9403 30.7498 27.0734 29.1879 29.0354 26.5725C29.3037 26.2158 29.2311 25.7091 28.8736 25.4416C28.5177 25.1741 28.0102 25.2451 27.7427 25.6034C26.0846 27.8139 23.4344 29.1335 20.6533 29.1335C16.2528 29.1335 12.5436 25.9042 11.8677 21.6436L14.2316 21.5256C14.5449 21.5098 14.8207 21.3141 14.9395 21.0237C15.0579 20.7332 14.9979 20.401 14.7852 20.1705L11.377 16.4771C11.2144 16.3003 10.9828 16.2048 10.7429 16.2174C10.5034 16.2293 10.282 16.3468 10.1376 16.5386L7.11375 20.5533C6.92513 20.8035 6.8983 21.1412 7.04549 21.4183C7.18596 21.6834 7.4614 21.8476 7.75932 21.8476ZM10.8459 18.2843L12.4263 19.9969L10.9583 20.0703C10.9436 20.0702 10.931 20.0634 10.9161 20.064C10.9023 20.0649 10.8912 20.0728 10.8776 20.0743L9.44387 20.1461L10.8459 18.2843Z" fill="#6B5CA6"/>
<path d="M1.20189 23.9535L4.81762 24.6607C5.17197 25.9329 5.67903 27.1553 6.32933 28.3076L4.27149 31.3641C4.05564 31.6846 4.09708 32.1139 4.37054 32.3869L8.50279 36.5192C8.77625 36.7931 9.204 36.8349 9.5252 36.6186L12.5826 34.5612C13.7332 35.2107 14.9561 35.7174 16.2303 36.0725L16.9362 39.6878C17.0104 40.0675 17.3426 40.3413 17.7293 40.3413H23.573C23.9597 40.3413 24.292 40.0675 24.3661 39.6878L25.0733 36.0725C26.347 35.7174 27.5695 35.2107 28.7202 34.5612L31.7767 36.6186C32.0972 36.8341 32.5265 36.7931 32.7995 36.5192L36.9318 32.3869C37.2049 32.1139 37.2467 31.6853 37.0312 31.3641L34.9738 28.3076C35.6233 27.1569 36.13 25.9344 36.4851 24.6607L40.1004 23.9535C40.4801 23.8794 40.7539 23.5471 40.7539 23.1604V17.3171C40.7539 16.9304 40.4801 16.5982 40.1004 16.524L36.4851 15.8169C36.13 14.5431 35.6225 13.3198 34.973 12.17L37.0305 9.1134C37.2467 8.79298 37.2049 8.36366 36.9318 8.09059L32.7995 3.95833C32.5257 3.68448 32.0964 3.64265 31.7767 3.85889L28.7202 5.91634C27.5695 5.26683 26.3462 4.76016 25.0725 4.40502L24.3661 0.789689C24.292 0.410083 23.9597 0.13623 23.573 0.13623H17.7293C17.3426 0.13623 17.0104 0.410083 16.9362 0.789689L16.2303 4.40502C14.9561 4.76016 13.7332 5.26683 12.5826 5.91634L9.5252 3.85889C9.204 3.64344 8.77625 3.68527 8.50279 3.95833L4.37054 8.09059C4.09708 8.36366 4.05564 8.79298 4.27149 9.1134L6.32933 12.17C5.67903 13.3222 5.17197 14.5447 4.81762 15.8169L1.20189 16.524C0.822681 16.5982 0.548828 16.9304 0.548828 17.3171V23.1604C0.548828 23.5471 0.822681 23.8794 1.20189 23.9535ZM2.16511 17.9824L5.62576 17.3061C5.93473 17.2453 6.18096 17.0109 6.25554 16.7047C6.61345 15.2431 7.19154 13.8486 7.97442 12.559C8.13779 12.2899 8.1299 11.9498 7.95391 11.6886L5.98406 8.76299L9.17519 5.57146L12.1016 7.54131C12.3632 7.7173 12.7029 7.72598 12.972 7.56104C14.2592 6.77973 15.6541 6.20124 17.1185 5.84295C17.4243 5.76797 17.6587 5.52174 17.7191 5.21237L18.395 1.75251H22.9077L23.5833 5.21237C23.644 5.52174 23.8784 5.76797 24.1838 5.84295C25.6486 6.20124 27.0439 6.77973 28.3311 7.56104C28.5994 7.72598 28.9396 7.7173 29.2016 7.54131L32.1271 5.57146L35.3187 8.76299L33.3488 11.6886C33.172 11.9506 33.1642 12.2899 33.3283 12.5598C34.1096 13.8454 34.6881 15.2408 35.0472 16.7055C35.1222 17.0109 35.3684 17.2453 35.6778 17.3061L39.1376 17.9824V22.4951L35.6778 23.1714C35.3684 23.2322 35.1222 23.4666 35.0472 23.772C34.6889 25.236 34.1104 26.6313 33.3291 27.9185C33.1649 28.1876 33.1736 28.527 33.3488 28.789L35.3187 31.7145L32.1271 34.9061L29.2016 32.9362C28.9396 32.761 28.5994 32.7516 28.3311 32.9165C27.0439 33.6978 25.6486 34.2763 24.1846 34.6346C23.8792 34.7096 23.6448 34.9558 23.584 35.2652L22.9077 38.725H18.395L17.7191 35.2652C17.6587 34.9558 17.4243 34.7096 17.1185 34.6346C15.6541 34.2763 14.2592 33.6978 12.972 32.9165C12.7029 32.7516 12.3632 32.7602 12.1016 32.9362L9.17519 34.9061L5.98406 31.7145L7.95391 28.789C8.1299 28.5278 8.13779 28.1876 7.97442 27.9185C7.19154 26.6289 6.61345 25.2344 6.25554 23.7728C6.18096 23.4666 5.93473 23.2322 5.62576 23.1714L2.16511 22.4951V17.9824Z" fill="#7558EA"/>
</svg>
