<svg width="33" height="37" viewBox="0 0 33 37" fill="none" xmlns="http://www.w3.org/2000/svg">
<path d="M22.0322 17.2102C23.6128 16.0804 24.7938 14.4778 25.4049 12.6335C26.0161 10.7892 26.0257 8.79847 25.4325 6.94834C24.8392 5.09821 23.6738 3.48427 22.1042 2.33921C20.5345 1.19416 18.6418 0.577148 16.6989 0.577148C14.756 0.577148 12.8633 1.19416 11.2936 2.33921C9.72401 3.48427 8.55856 5.09821 7.96533 6.94834C7.3721 8.79847 7.38174 10.7892 7.99286 12.6335C8.60398 14.4778 9.785 16.0804 11.3656 17.2102C8.33657 17.6039 5.55389 19.0853 3.53589 21.3783C1.51788 23.6714 0.402143 26.6197 0.396484 29.6743V35.943C0.396484 36.1863 0.493113 36.4196 0.665113 36.5916C0.837113 36.7636 1.07039 36.8602 1.31364 36.8602H32.0842C32.3274 36.8602 32.5607 36.7636 32.7327 36.5916C32.9047 36.4196 33.0013 36.1863 33.0013 35.943V29.6743C32.9957 26.6197 31.8799 23.6714 29.8619 21.3783C27.8439 19.0853 25.0612 17.6039 22.0322 17.2102ZM9.36167 9.78121C9.36167 8.33005 9.79199 6.91147 10.5982 5.70487C11.4044 4.49827 12.5504 3.55783 13.8911 3.0025C15.2318 2.44716 16.707 2.30186 18.1303 2.58497C19.5536 2.86807 20.861 3.56688 21.8871 4.59301C22.9132 5.61914 23.612 6.92651 23.8951 8.34979C24.1783 9.77308 24.033 11.2483 23.4776 12.5891C22.9223 13.9298 21.9818 15.0757 20.7752 15.8819C19.5686 16.6881 18.1501 17.1184 16.6989 17.1184C14.7529 17.1184 12.8867 16.3454 11.5107 14.9694C10.1347 13.5934 9.36167 11.7272 9.36167 9.78121ZM31.167 35.0259H2.23079V29.6743C2.23565 26.8278 3.36887 24.0994 5.38207 22.087C7.39526 20.0747 10.1242 18.9426 12.9707 18.939H20.4271C23.2736 18.9426 26.0025 20.0747 28.0157 22.087C30.0289 24.0994 31.1622 26.8278 31.167 29.6743V35.0259Z" fill="#43B0FF"/>
<path d="M20.9953 26.354H17.6155V22.9743C17.6155 22.731 17.5189 22.4978 17.3469 22.3258C17.1749 22.1538 16.9416 22.0571 16.6984 22.0571C16.4552 22.0571 16.2219 22.1538 16.0499 22.3258C15.8779 22.4978 15.7812 22.731 15.7812 22.9743V26.354H12.4015C12.1583 26.354 11.925 26.4506 11.753 26.6226C11.581 26.7946 11.4844 27.0279 11.4844 27.2711C11.4844 27.5144 11.581 27.7477 11.753 27.9197C11.925 28.0917 12.1583 28.1883 12.4015 28.1883H15.7812V31.5818C15.7812 31.825 15.8779 32.0583 16.0499 32.2303C16.2219 32.4023 16.4552 32.4989 16.6984 32.4989C16.9416 32.4989 17.1749 32.4023 17.3469 32.2303C17.5189 32.0583 17.6155 31.825 17.6155 31.5818V28.1883H20.9953C21.2385 28.1883 21.4718 28.0917 21.6438 27.9197C21.8158 27.7477 21.9124 27.5144 21.9124 27.2711C21.9124 27.0279 21.8158 26.7946 21.6438 26.6226C21.4718 26.4506 21.2385 26.354 20.9953 26.354Z" fill="#6B5CA6"/>
</svg>
