<svg width="41" height="41" viewBox="0 0 41 41" fill="none" xmlns="http://www.w3.org/2000/svg">
<g clip-path="url(#clip0_2567_1530)">
<path d="M2.5544 38.2948C2.75864 38.4995 3.01394 38.6018 3.26924 38.6018C3.52453 38.6018 3.77983 38.4995 3.98407 38.2948L11.8472 30.4166C12.2557 30.0073 12.2557 29.3935 11.8472 28.9842C11.4388 28.5749 10.826 28.5749 10.4176 28.9842L2.5544 36.8624C2.14593 37.2205 2.14593 37.8856 2.5544 38.2948Z" fill="#6B5CA6"/>
<path d="M4.59735 31.0305L8.52893 27.0914C8.93741 26.6821 8.93741 26.0683 8.52893 25.659C8.12045 25.2497 7.50774 25.2497 7.09927 25.659L3.16769 29.5981C2.75921 30.0074 2.75921 30.6213 3.16769 31.0305C3.37192 31.2352 3.62722 31.3375 3.88252 31.3375C4.13782 31.3375 4.39311 31.2352 4.59735 31.0305Z" fill="#6B5CA6"/>
<path d="M1.22793 26.7844C1.33005 26.8356 1.48323 26.8356 1.58535 26.8356C1.89171 26.8356 2.19806 26.6821 2.4023 26.4263C2.45336 26.3751 6.07859 21.3617 9.29533 23.1011L17.6691 31.4909C19.4562 34.7138 14.4013 38.346 14.3502 38.3971C13.9928 38.6529 13.8396 39.1645 13.9928 39.5737C14.146 39.983 14.5034 40.2388 14.9629 40.2388H15.0651C19.8646 39.7272 23.4899 38.039 25.7365 35.1231C28.2384 31.9001 28.3916 28.2168 28.2895 26.7844C34.0592 22.4872 37.0206 17.3714 38.5524 13.2277C41.0033 6.78184 40.5437 1.41031 40.4927 1.20568C40.4416 0.694102 40.0842 0.336 39.5736 0.284843C39.3694 0.284843 34.0081 -0.226732 27.5236 2.17767C23.3878 3.71239 18.2818 6.73068 13.9928 12.4603C12.5631 12.4092 8.88686 12.5115 5.67011 15.0182C2.75972 17.2691 1.07476 20.9013 0.564161 25.7101C0.513102 26.2217 0.819459 26.6309 1.22793 26.7844ZM24.1536 33.8953C22.775 35.6346 20.7327 36.9136 18.1286 37.6298C19.4562 36.0439 20.6305 33.793 19.8646 31.4397C22.2644 30.4677 24.3579 29.3934 26.2471 28.2168C26.145 29.7515 25.6854 31.9513 24.1536 33.8953ZM38.5014 2.27998C38.5014 3.86586 38.3992 7.39573 37.0206 11.4883L29.3107 3.71239C33.3954 2.3823 36.9185 2.22882 38.5014 2.27998ZM15.2693 14.1997C15.3204 14.1485 15.3714 14.0973 15.3714 14.0462C18.435 9.69781 22.4176 6.52605 27.2172 4.53091L36.2547 13.5858C34.2634 18.3946 31.0467 22.3337 26.7577 25.4543C26.7066 25.5055 26.6556 25.5566 26.6045 25.5566C24.3068 27.1937 21.7028 28.5749 18.7924 29.7004L11.1335 22.0268C12.2568 19.1108 13.6354 16.5017 15.2693 14.1997ZM6.89554 16.6552C8.8358 15.1205 11.0824 14.6601 12.5631 14.5578C11.3888 16.4506 10.2655 18.548 9.34639 20.9524C6.99766 20.1851 4.8021 21.3617 3.1682 22.6918C3.93409 20.0828 5.15951 18.0365 6.89554 16.6552Z" fill="#7558EA"/>
<path d="M15.1676 32.3094C14.7591 31.9001 14.1464 31.9001 13.7379 32.3094L9.80636 36.2485C9.39788 36.6578 9.39788 37.2717 9.80636 37.6809C10.0106 37.8855 10.2659 37.9879 10.5212 37.9879C10.7765 37.9879 11.0318 37.8855 11.236 37.6809L15.1676 33.7418C15.5761 33.3837 15.5761 32.7186 15.1676 32.3094Z" fill="#6B5CA6"/>
<path d="M25.532 20.4406C26.8596 20.4406 28.1871 19.9291 29.2083 18.9059C31.2507 16.8596 31.2507 13.5855 29.2083 11.5904C27.1659 9.54409 23.8981 9.54409 21.9068 11.5904C19.8644 13.6367 19.8644 16.9108 21.9068 18.9059C22.8769 19.9291 24.2045 20.4406 25.532 20.4406ZM23.3364 13.0228C23.9492 12.4089 24.7661 12.102 25.532 12.102C26.2979 12.102 27.1149 12.4089 27.7276 13.0228C28.3403 13.6367 28.6466 14.404 28.6466 15.2226C28.6466 16.0411 28.3403 16.8596 27.7276 17.4223C26.5021 18.6501 24.5108 18.6501 23.2854 17.4223C22.111 16.2457 22.111 14.2506 23.3364 13.0228Z" fill="#6B5CA6"/>
</g>
<defs>
<clipPath id="clip0_2567_1530">
<rect width="40" height="40" fill="white" transform="translate(0.558594 0.23877)"/>
</clipPath>
</defs>
</svg>
