<svg width="39" height="38" viewBox="0 0 39 38" fill="none" xmlns="http://www.w3.org/2000/svg">
<path fill-rule="evenodd" clip-rule="evenodd" d="M18.3205 14.3538C18.3203 14.3253 18.3203 14.2966 18.3205 14.268C18.3428 10.1785 21.6649 6.87012 25.7597 6.87012C29.8684 6.87012 33.1991 10.2009 33.1991 14.3095C33.1991 16.2836 32.4302 18.0781 31.1755 19.4099C31.1441 19.4433 31.1123 19.4765 31.0801 19.5094C31.0252 19.5656 30.9694 19.6209 30.9128 19.6752C30.8754 19.7111 30.8377 19.7466 30.7996 19.7817C29.5092 20.9707 27.7974 21.7092 25.9135 21.7474C25.8131 21.7494 25.7125 21.7495 25.6118 21.7475C23.7014 21.7102 21.9674 20.9528 20.6702 19.7355C20.5582 19.6305 20.4496 19.5221 20.3445 19.4105C19.0989 18.0886 18.3319 16.3108 18.3205 14.3538ZM20.8003 14.3443L20.8001 14.3095L20.8003 14.2757C20.8011 14.1536 20.8065 14.0312 20.8163 13.909C20.8885 13.0186 21.1997 12.1642 21.7173 11.4362C21.9914 11.0506 22.3179 10.708 22.6858 10.4174L24.6255 14.8104C24.8238 15.2596 25.2687 15.5494 25.7597 15.5494H30.5619C30.4446 16.0034 30.2631 16.4405 30.0211 16.847C29.8523 17.1305 29.6564 17.3951 29.4368 17.6377C29.3592 17.7235 29.2786 17.8065 29.1951 17.8867C28.8758 18.1933 28.5155 18.4572 28.1229 18.6699C27.4336 19.0435 26.667 19.2476 25.8863 19.2675C25.8442 19.2686 25.8021 19.2691 25.7597 19.2691C25.7184 19.2691 25.6771 19.2686 25.636 19.2676C25.6105 19.2669 25.5849 19.2661 25.5592 19.2651C24.6668 19.229 23.8005 18.9525 23.0521 18.4649C22.8355 18.3237 22.6311 18.1664 22.4405 17.9946C22.4046 17.9624 22.3693 17.9297 22.3345 17.8964C22.2881 17.852 22.2424 17.8068 22.1978 17.7607C22.1654 17.7273 22.1336 17.6934 22.1022 17.6592C21.7845 17.3124 21.5164 16.9206 21.3074 16.4945C20.978 15.8234 20.8055 15.0882 20.8003 14.3443ZM30.5631 13.0696H26.5676L24.954 9.41501C25.2163 9.37217 25.4854 9.34992 25.7597 9.34992C28.0707 9.34992 30.0125 10.9305 30.5631 13.0696Z" fill="#6B5CA6"/>
<path d="M14.6012 13.689C15.286 13.689 15.8411 14.2441 15.8411 14.9289V19.8885C15.8411 20.5733 15.286 21.1284 14.6012 21.1284C13.9164 21.1284 13.3613 20.5733 13.3613 19.8885V14.9289C13.3613 14.2441 13.9164 13.689 14.6012 13.689Z" fill="#6B5CA6"/>
<path d="M12.1224 14.9289C12.1224 14.2441 11.5673 13.689 10.8825 13.689C10.1977 13.689 9.64258 14.2441 9.64258 14.9289V19.8885C9.64258 20.5733 10.1977 21.1284 10.8825 21.1284C11.5673 21.1284 12.1224 20.5733 12.1224 19.8885V14.9289Z" fill="#6B5CA6"/>
<path d="M5.92188 19.8885V14.9289C5.92188 14.2441 6.47698 13.689 7.16177 13.689C7.84657 13.689 8.40167 14.2441 8.40167 14.9289V19.8885C8.40167 20.5733 7.84657 21.1284 7.16177 21.1284C6.47698 21.1284 5.92188 20.5733 5.92188 19.8885Z" fill="#6B5CA6"/>
<path d="M15.4306 8.41151C15.9396 7.95343 15.9809 7.16945 15.5228 6.66047C15.0647 6.15149 14.2807 6.1102 13.7717 6.56828L11.5503 8.56762L11.0574 8.02231C10.8295 7.77036 10.5083 7.62281 10.1688 7.61426C9.82923 7.6057 9.50097 7.73682 9.2608 7.97705L6.28504 10.9528C5.80082 11.437 5.80082 12.2221 6.28504 12.7063C6.76922 13.1905 7.55432 13.1905 8.0385 12.7063L10.0922 10.6526L10.5403 11.1483C10.9988 11.6555 11.7813 11.6959 12.2896 11.2385L15.4306 8.41151Z" fill="#6B5CA6"/>
<mask id="mask0_2568_1585" style="mask-type:alpha" maskUnits="userSpaceOnUse" x="0" y="0" width="39" height="38">
<path fill-rule="evenodd" clip-rule="evenodd" d="M0.960938 5.01038C0.960938 2.27127 3.18142 0.0507812 5.92054 0.0507812H33.1983C35.9375 0.0507812 38.1579 2.27127 38.1579 5.01038V23.6089C38.1579 26.348 35.9375 28.5685 33.1983 28.5685H25.2766C25.5361 30.7762 25.8823 32.3726 26.6553 34.768H28.8587C29.5435 34.768 30.0986 35.3231 30.0986 36.0079C30.0986 36.6927 29.5435 37.2478 28.8587 37.2478H10.2602C9.57539 37.2478 9.02029 36.6927 9.02029 36.0079C9.02029 35.3231 9.57539 34.768 10.2602 34.768H12.4474C13.1709 32.4101 13.556 30.8165 13.8361 28.5685H5.92054C3.18142 28.5685 0.960938 26.348 0.960938 23.6089V5.01038ZM15.0376 34.768H24.0557C23.3645 32.5113 23.0351 30.8396 22.7806 28.5685H16.3338C16.0585 30.904 15.6878 32.5725 15.0376 34.768ZM33.1983 26.0887H5.92054C4.55098 26.0887 3.44074 24.9784 3.44074 23.6089V5.01038C3.44074 3.64082 4.55098 2.53058 5.92054 2.53058H33.1983C34.5679 2.53058 35.6781 3.64082 35.6781 5.01038V23.6089C35.6781 24.9784 34.5679 26.0887 33.1983 26.0887Z" fill="black"/>
</mask>
<g mask="url(#mask0_2568_1585)">
<rect x="-0.277344" y="-1.18945" width="41.3405" height="29.8166" fill="#7558EA"/>
</g>
</svg>
