<svg width="33" height="40" viewBox="0 0 33 40" fill="none" xmlns="http://www.w3.org/2000/svg">
<path d="M7.12926 35.7935H26.0405C26.5087 35.7935 26.881 36.1657 26.881 36.634V37.1142L30.363 34.6528L26.881 32.2033V32.6836C26.881 33.1519 26.5087 33.5241 26.0405 33.5241H9.02639C7.1893 33.5241 4.64379 33.6802 2.6266 30.3422V31.2788C2.61459 33.7643 4.64379 35.7935 7.12926 35.7935ZM25.2 37.4745H7.12926C3.71924 37.4745 0.933594 34.6888 0.933594 31.2788V26.0197C0.933594 25.0471 2.32642 24.855 2.57857 25.8035C4.19953 31.8791 6.98518 31.8551 8.7142 31.8431C9.00237 31.8431 8.73821 31.8431 9.00237 31.8431H25.188V30.5824C25.188 29.91 25.9564 29.5017 26.5087 29.898L32.2722 33.9564C32.7524 34.2806 32.7764 34.989 32.2842 35.3372L26.5568 39.3836C25.9564 39.8399 25.188 39.3956 25.188 38.7352V37.4745H25.2Z" fill="#6B5CA6"/>
<path d="M17.4478 20.302V21.1185C17.4478 21.5868 17.0756 21.959 16.6073 21.959C16.139 21.959 15.7668 21.5868 15.7668 21.1185V20.302C13.9417 20.0739 11.9365 18.9812 11.9365 17.1081C11.9365 16.6399 12.3088 16.2676 12.777 16.2676C13.2453 16.2676 13.6175 16.6399 13.6175 17.1081C13.6175 17.4683 13.8937 17.8166 14.35 18.1047C15.5627 18.8732 17.6519 18.8732 18.8766 18.1047C19.3209 17.8166 19.6091 17.4683 19.6091 17.1081C19.6091 16.0035 18.0482 15.7633 16.4992 15.5352C14.2179 15.199 11.9485 14.8508 11.9485 12.2933C11.9485 10.4202 13.9657 9.32753 15.7788 9.09939V8.28291C15.7788 7.81463 16.151 7.44241 16.6193 7.44241C17.0876 7.44241 17.4598 7.81463 17.4598 8.28291V9.09939C19.2849 9.32753 21.2901 10.4202 21.2901 12.2933C21.2901 12.7616 20.9179 13.1338 20.4496 13.1338C19.9813 13.1338 19.6091 12.7616 19.6091 12.2933C19.6091 11.9331 19.3329 11.5849 18.8766 11.2967C17.6639 10.5282 15.5747 10.5282 14.35 11.2967C13.9057 11.5849 13.6175 11.9331 13.6175 12.2933C13.6175 13.4099 15.1785 13.6381 16.7274 13.8782C19.0087 14.2144 21.2781 14.5626 21.2781 17.1201C21.2781 18.9692 19.2729 20.0739 17.4478 20.302ZM16.6073 25.2369C10.7839 25.2369 6.06506 20.5182 6.06506 14.6947C6.06506 8.87126 10.7839 4.15246 16.6073 4.15246C22.4308 4.15246 27.1495 8.87126 27.1495 14.6947C27.1616 20.5182 22.4308 25.2369 16.6073 25.2369ZM10.3396 20.9624C13.7976 24.4205 19.417 24.4205 22.875 20.9624C26.3331 17.5044 26.3331 11.885 22.875 8.42699C19.417 4.96895 13.7976 4.96895 10.3396 8.42699C6.88155 11.885 6.88155 17.4924 10.3396 20.9624ZM16.6073 29.2473C8.57455 29.2473 2.05469 22.7275 2.05469 14.6947C2.06669 6.66195 8.57455 0.14209 16.6073 0.14209C24.6401 0.14209 31.1599 6.66195 31.1599 14.6947C31.1599 22.7275 24.6401 29.2473 16.6073 29.2473ZM7.50591 23.7961C12.5249 28.8151 20.6777 28.8151 25.7087 23.7961C30.7397 18.7651 30.7397 10.6243 25.7087 5.59332C20.6897 0.574346 12.5369 0.574346 7.50591 5.59332C2.48694 10.6123 2.48694 18.7651 7.50591 23.7961Z" fill="#43B0FF"/>
</svg>
