<svg width="49" height="43" viewBox="0 0 49 43" fill="none" xmlns="http://www.w3.org/2000/svg">
<path d="M28.7406 20.5393C27.6406 18.6393 25.9406 17.1393 23.7406 16.5393L22.7406 16.2393L15.5406 23.4393L8.34062 16.2393L7.34062 16.5393C3.64062 17.6393 1.14062 20.9393 1.14062 24.7393V32.2393H24.4406" stroke="#7558EA" stroke-width="2" stroke-miterlimit="10"/>
<path d="M35.6406 41.2393C41.9919 41.2393 47.1406 36.0905 47.1406 29.7393C47.1406 23.388 41.9919 18.2393 35.6406 18.2393C29.2894 18.2393 24.1406 23.388 24.1406 29.7393C24.1406 36.0905 29.2894 41.2393 35.6406 41.2393Z" stroke="#7558EA" stroke-width="2" stroke-miterlimit="10"/>
<path d="M15.1406 13.2393C18.4543 13.2393 21.1406 10.553 21.1406 7.23926C21.1406 3.92555 18.4543 1.23926 15.1406 1.23926C11.8269 1.23926 9.14062 3.92555 9.14062 7.23926C9.14062 10.553 11.8269 13.2393 15.1406 13.2393Z" stroke="#7558EA" stroke-width="2" stroke-miterlimit="10"/>
<path d="M39.6406 26.2393L42.6406 29.2393L39.6406 32.2393" stroke="#6B5CA6" stroke-width="2" stroke-miterlimit="10"/>
<path d="M31.6406 26.2393L28.6406 29.2393L31.6406 32.2393" stroke="#6B5CA6" stroke-width="2" stroke-miterlimit="10"/>
<path d="M33.8398 34.5395L37.4398 24.9395" stroke="#6B5CA6" stroke-width="2" stroke-miterlimit="10"/>
</svg>
