<svg width="29" height="33" viewBox="0 0 29 33" fill="none" xmlns="http://www.w3.org/2000/svg">
<path d="M1.6734 17.6373H8.19842C8.5814 17.6373 8.89135 17.9472 8.89135 18.3302V31.6913C8.89135 32.0743 8.58143 32.3842 8.19842 32.3842H1.6734C1.29041 32.3842 0.980469 32.0743 0.980469 31.6913V18.3302C0.980469 17.9472 1.29038 17.6373 1.6734 17.6373ZM21.3839 16.3059H27.909C28.2919 16.3059 28.6019 16.6158 28.6019 16.9988V31.6915C28.6019 32.0745 28.292 32.3845 27.909 32.3845H21.3839C21.0009 32.3845 20.691 32.0746 20.691 31.6915V16.9988C20.691 16.6159 21.0009 16.3059 21.3839 16.3059ZM27.216 17.6918H22.0757V30.9986H27.216V17.6918ZM11.5299 13.1099H18.0549C18.4379 13.1099 18.7478 13.4198 18.7478 13.8028V31.6915C18.7478 32.0745 18.4379 32.3844 18.0549 32.3844H11.5299C11.1469 32.3844 10.8369 32.0745 10.8369 31.6915V13.8028C10.8369 13.4198 11.1469 13.1099 11.5299 13.1099ZM17.3619 14.4957H12.2216V30.9985H17.3619V14.4957ZM7.50788 19.0233H2.36756V30.9985H7.50788V19.0233Z" fill="#43B0FF"/>
<path d="M21.4568 4.15715H25.823C26.206 4.15715 26.5159 4.46707 26.5159 4.85008V9.2893C26.5159 9.67228 26.206 9.98222 25.823 9.98222H21.3838C21.0008 9.98222 20.6909 9.67231 20.6909 9.2893V5.3922L16.6607 4.40939V5.74927C16.6607 6.13225 16.3508 6.4422 15.9678 6.4422H11.5286C11.1456 6.4422 10.8357 6.13228 10.8357 5.74927V4.82537L6.80554 7.52516V11.5966C6.80554 11.9796 6.49562 12.2896 6.11261 12.2896H1.6734C1.29041 12.2896 0.980469 11.9796 0.980469 11.5966V7.15742C0.980469 6.77561 1.29038 6.46449 1.6734 6.46449H5.90505L10.8345 3.16261V1.31011C10.8345 0.928309 11.1444 0.617188 11.5274 0.617188H15.9666C16.3496 0.617188 16.6596 0.927103 16.6596 1.31011V2.98821L21.4557 4.15721L21.4568 4.15715ZM25.1301 5.54301H22.078V8.59631H25.1301V5.54301ZM15.276 2.0031H12.2239V5.0564H15.276V2.0031ZM5.42194 7.85176H2.36985V10.9051H5.42194V7.85176Z" fill="#6B5CA6"/>
</svg>
