<svg width="41" height="41" viewBox="0 0 41 41" fill="none" xmlns="http://www.w3.org/2000/svg">
<path d="M13.2631 15.2678C14.9217 13.0565 17.5722 11.737 20.3525 11.737C24.7916 11.737 28.5233 15.025 29.1515 19.3424L26.7901 19.4293C26.4767 19.4403 26.1982 19.6321 26.0758 19.921C25.9535 20.2098 26.0095 20.5436 26.2187 20.7765L29.5783 24.5149C29.7322 24.6862 29.9508 24.7832 30.1797 24.7832C30.1891 24.7832 30.1994 24.7832 30.2097 24.7825C30.4488 24.7738 30.6721 24.6593 30.8189 24.4699L33.8952 20.4947C34.087 20.2461 34.1178 19.9099 33.9749 19.6305C33.8321 19.352 33.5709 19.1783 33.226 19.1925L30.7696 19.2829C30.1025 14.0956 25.6574 10.1207 20.3525 10.1207C17.0659 10.1207 13.9324 11.6817 11.9704 14.2971C11.7025 14.6546 11.7747 15.1613 12.1318 15.4288C12.4893 15.6972 12.9956 15.6246 13.2631 15.2678ZM30.1331 22.7147L28.5752 20.9809L31.56 20.8712L30.1331 22.7147Z" fill="#6B5CA6"/>
<path d="M7.46049 22.2408C7.49861 22.2408 9.91496 22.1194 9.95318 22.1175C10.6794 27.2381 15.0961 31.143 20.3545 31.143C23.6415 31.143 26.7746 29.5811 28.7366 26.9657C29.0049 26.609 28.9323 26.1023 28.5748 25.8348C28.2189 25.5673 27.7114 25.6383 27.4439 25.9966C25.7857 28.2071 23.1356 29.5267 20.3545 29.5267C15.954 29.5267 12.2448 26.2974 11.5688 22.0368L13.9327 21.9188C14.246 21.903 14.5219 21.7073 14.6406 21.4168C14.759 21.1264 14.699 20.7942 14.4864 20.5637L11.0782 16.8703C10.9156 16.6935 10.684 16.598 10.4441 16.6106C10.2045 16.6224 9.98317 16.74 9.83875 16.9318L6.81492 20.9465C6.62631 21.1967 6.59947 21.5344 6.74666 21.8114C6.88714 22.0766 7.16257 22.2408 7.46049 22.2408ZM10.5471 18.6775L12.1274 20.3901L10.6595 20.4635C10.6448 20.4633 10.6321 20.4566 10.6173 20.4572C10.6034 20.4581 10.5924 20.466 10.5788 20.4675L9.14504 20.5393L10.5471 18.6775Z" fill="#6B5CA6"/>
<path d="M0.903064 24.3467L4.51879 25.0539C4.87314 26.326 5.3802 27.5485 6.03051 28.7008L3.97266 31.7573C3.75682 32.0777 3.79825 32.5071 4.07171 32.7801L8.20397 36.9124C8.47742 37.1862 8.90517 37.2281 9.22638 37.0118L12.2837 34.9544C13.4344 35.6039 14.6573 36.1106 15.9314 36.4657L16.6374 40.081C16.7116 40.4606 17.0438 40.7345 17.4305 40.7345H23.2742C23.6609 40.7345 23.9931 40.4606 24.0673 40.081L24.7744 36.4657C26.0482 36.1106 27.2707 35.6039 28.4213 34.9544L31.4779 37.0118C31.7983 37.2273 32.2277 37.1862 32.5007 36.9124L36.633 32.7801C36.906 32.5071 36.9479 32.0785 36.7324 31.7573L34.675 28.7008C35.3245 27.5501 35.8311 26.3276 36.1863 25.0539L39.8016 24.3467C40.1812 24.2725 40.4551 23.9403 40.4551 23.5536V17.7103C40.4551 17.3236 40.1812 16.9914 39.8016 16.9172L36.1863 16.2101C35.8311 14.9363 35.3237 13.713 34.6742 12.5632L36.7316 9.50659C36.9479 9.18617 36.906 8.75684 36.633 8.48378L32.5007 4.35152C32.2269 4.07767 31.7975 4.03584 31.4779 4.25208L28.4213 6.30953C27.2707 5.66002 26.0474 5.15335 24.7736 4.79821L24.0673 1.18288C23.9931 0.803272 23.6609 0.529419 23.2742 0.529419H17.4305C17.0438 0.529419 16.7116 0.803272 16.6374 1.18288L15.9314 4.79821C14.6573 5.15335 13.4344 5.66002 12.2837 6.30953L9.22638 4.25208C8.90517 4.03663 8.47742 4.07846 8.20397 4.35152L4.07171 8.48378C3.79825 8.75684 3.75682 9.18617 3.97266 9.50659L6.03051 12.5632C5.3802 13.7154 4.87314 14.9379 4.51879 16.2101L0.903064 16.9172C0.523853 16.9914 0.25 17.3236 0.25 17.7103V23.5536C0.25 23.9403 0.523853 24.2725 0.903064 24.3467ZM1.86628 18.3756L5.32693 17.6993C5.6359 17.6385 5.88214 17.4041 5.95672 17.0979C6.31462 15.6363 6.89271 14.2418 7.6756 12.9522C7.83896 12.6831 7.83107 12.343 7.65508 12.0817L5.68523 9.15618L8.87637 5.96465L11.8027 7.9345C12.0643 8.11049 12.4041 8.11917 12.6732 7.95423C13.9604 7.17292 15.3553 6.59443 16.8197 6.23613C17.1255 6.16116 17.3599 5.91493 17.4203 5.60556L18.0962 2.1457H22.6089L23.2844 5.60556C23.3452 5.91493 23.5796 6.16116 23.885 6.23613C25.3498 6.59443 26.7451 7.17292 28.0323 7.95423C28.3006 8.11917 28.6407 8.11049 28.9027 7.9345L31.8283 5.96465L35.0198 9.15618L33.05 12.0817C32.8732 12.3438 32.8653 12.6831 33.0295 12.953C33.8108 14.2386 34.3893 15.6339 34.7484 17.0987C34.8233 17.4041 35.0696 17.6385 35.3789 17.6993L38.8388 18.3756V22.8883L35.3789 23.5646C35.0696 23.6254 34.8233 23.8598 34.7484 24.1652C34.3901 25.6292 33.8116 27.0245 33.0303 28.3117C32.8661 28.5808 32.8748 28.9202 33.05 29.1822L35.0198 32.1077L31.8283 35.2993L28.9027 33.3294C28.6407 33.1542 28.3006 33.1447 28.0323 33.3097C26.7451 34.091 25.3498 34.6695 23.8858 35.0278C23.5804 35.1028 23.346 35.349 23.2852 35.6584L22.6089 39.1182H18.0962L17.4203 35.6584C17.3599 35.349 17.1255 35.1028 16.8197 35.0278C15.3553 34.6695 13.9604 34.091 12.6732 33.3097C12.4041 33.1447 12.0643 33.1534 11.8027 33.3294L8.87637 35.2993L5.68523 32.1077L7.65508 29.1822C7.83107 28.9209 7.83896 28.5808 7.6756 28.3117C6.89271 27.0221 6.31462 25.6276 5.95672 24.166C5.88214 23.8598 5.6359 23.6254 5.32693 23.5646L1.86628 22.8883V18.3756Z" fill="#7558EA"/>
</svg>
