<svg width="44" height="39" viewBox="0 0 44 39" fill="none" xmlns="http://www.w3.org/2000/svg">
<path d="M21.8449 31.7959C21.2449 31.7959 20.8449 32.1959 20.8449 32.7959V36.3959H15.9449V32.7959C15.9449 32.7959 15.9449 32.7959 15.9449 32.6959C15.9449 32.5959 15.9449 32.5959 15.9449 32.4959C15.9449 32.3959 15.9449 32.3959 15.8449 32.2959C15.8449 32.1959 15.7449 32.1959 15.7449 32.0959C15.7449 31.9959 15.6449 31.9959 15.6449 31.9959C15.6449 31.9959 15.5449 31.8959 15.4449 31.8959C15.3449 31.8959 15.3449 31.7959 15.2449 31.7959C15.2449 31.7959 15.2449 31.7959 15.1449 31.7959C12.8449 31.1959 10.7449 29.9959 9.04486 28.2959C9.04486 28.2959 9.04486 28.2959 8.94486 28.2959C8.84486 28.2959 8.84486 28.1959 8.74486 28.1959C8.64486 28.1959 8.64486 28.0959 8.54486 28.0959C8.44486 28.0959 8.44486 28.0959 8.34486 28.0959C8.24486 28.0959 8.24486 28.0959 8.14486 28.0959C8.04486 28.0959 8.04486 28.0959 7.94486 28.0959C7.84486 28.0959 7.84486 28.0959 7.74486 28.1959H7.64486L4.54486 29.9959L2.04486 25.6959L5.14486 23.8959C5.14486 23.8959 5.14486 23.8959 5.24486 23.8959C5.34486 23.8959 5.34486 23.7959 5.44486 23.7959L5.54486 23.6959C5.54486 23.5959 5.64486 23.5959 5.64486 23.4959C5.64486 23.3959 5.64486 23.3959 5.74486 23.2959C5.74486 23.1959 5.74486 23.1959 5.74486 23.0959C5.74486 22.9959 5.74486 22.9959 5.74486 22.8959C5.74486 22.8959 5.74486 22.8959 5.74486 22.7959C5.44486 21.6959 5.24486 20.4959 5.24486 19.2959C5.24486 18.0959 5.44486 16.8959 5.74486 15.7959C5.74486 15.7959 5.74486 15.7959 5.74486 15.6959C5.74486 15.5959 5.74486 15.5959 5.74486 15.4959C5.74486 15.3959 5.74486 15.3959 5.74486 15.2959C5.74486 15.1959 5.74486 15.1959 5.64486 15.0959C5.64486 14.9959 5.64486 14.9959 5.54486 14.8959C5.54486 14.7959 5.44486 14.7959 5.44486 14.7959C5.44486 14.7959 5.34486 14.6959 5.24486 14.6959C5.24486 14.6959 5.24486 14.6959 5.14486 14.6959L2.04486 12.8959L4.54486 8.5959L7.64486 10.3959C7.64486 10.3959 7.64486 10.3959 7.74486 10.3959C7.84486 10.3959 7.84486 10.3959 7.94486 10.4959C8.04486 10.4959 8.04486 10.4959 8.14486 10.4959C8.14486 10.4959 8.14486 10.4959 8.24486 10.4959H8.34486C8.44486 10.4959 8.44486 10.4959 8.54486 10.4959C8.64486 10.4959 8.64486 10.4959 8.74486 10.3959C8.84486 10.3959 8.84486 10.2959 8.94486 10.2959C8.94486 10.2959 8.94486 10.2959 9.04486 10.2959C10.7449 8.5959 12.8449 7.3959 15.1449 6.7959C15.1449 6.7959 15.1449 6.7959 15.2449 6.7959C15.3449 6.7959 15.3449 6.6959 15.4449 6.6959C15.5449 6.6959 15.5449 6.5959 15.6449 6.5959L15.7449 6.4959C15.7449 6.3959 15.8449 6.3959 15.8449 6.2959C15.8449 6.1959 15.8449 6.1959 15.9449 6.0959C15.9449 5.9959 15.9449 5.9959 15.9449 5.8959C15.9449 5.8959 15.9449 5.8959 15.9449 5.7959V2.1959H20.8449V5.7959C20.8449 5.7959 20.8449 5.7959 20.8449 5.8959C20.8449 5.9959 20.8449 5.9959 20.8449 6.0959C20.8449 6.1959 20.8449 6.1959 20.9449 6.2959C20.9449 6.3959 21.0449 6.3959 21.0449 6.4959C21.0449 6.5959 21.1449 6.5959 21.1449 6.5959C21.1449 6.5959 21.2449 6.6959 21.3449 6.6959C21.4449 6.6959 21.4449 6.7959 21.5449 6.7959C21.5449 6.7959 21.5449 6.7959 21.6449 6.7959C23.9449 7.3959 26.0449 8.5959 27.7449 10.2959C27.9449 10.4959 28.2449 10.5959 28.4449 10.5959C28.7449 10.5959 28.9449 10.4959 29.1449 10.2959C29.5449 9.8959 29.5449 9.2959 29.1449 8.8959C27.4449 7.0959 25.2449 5.7959 22.9449 5.0959V1.2959C22.9449 0.695898 22.5449 0.295898 21.9449 0.295898H15.0449C14.4449 0.295898 14.0449 0.695898 14.0449 1.2959V5.0959C11.9449 5.7959 10.0449 6.8959 8.34486 8.3959L5.04486 6.4959C4.84486 6.3959 4.54486 6.2959 4.24486 6.3959C3.94486 6.4959 3.74486 6.5959 3.64486 6.8959L0.14486 12.8959C-0.15514 13.3959 0.0448599 13.9959 0.54486 14.2959L3.84486 16.1959C3.64486 17.2959 3.44486 18.3959 3.44486 19.4959C3.44486 20.5959 3.54486 21.6959 3.84486 22.7959L0.54486 24.6959C0.0448599 24.9959 -0.0551397 25.5959 0.14486 26.0959L3.64486 32.0959C3.74486 32.2959 4.04486 32.4959 4.24486 32.5959C4.34486 32.5959 4.44486 32.5959 4.54486 32.5959C4.74486 32.5959 4.84486 32.5959 5.04486 32.4959L8.34486 30.5959C9.94486 32.0959 11.9449 33.1959 14.0449 33.8959V37.6959C14.0449 38.2959 14.4449 38.6959 15.0449 38.6959H21.9449C22.5449 38.6959 22.9449 38.2959 22.9449 37.6959V33.0959C22.8449 32.2959 22.3449 31.7959 21.8449 31.7959Z" fill="#43B0FF"/>
<path d="M18.3441 11.6958C14.1441 11.6958 10.7441 15.0958 10.7441 19.2958C10.7441 23.4958 14.1441 26.8958 18.3441 26.8958C22.5441 26.8958 25.9441 23.4958 25.9441 19.2958C25.9441 15.0958 22.5441 11.6958 18.3441 11.6958ZM18.3441 24.8958C15.2441 24.8958 12.7441 22.3958 12.7441 19.2958C12.7441 16.1958 15.2441 13.6958 18.3441 13.6958C21.4441 13.6958 23.9441 16.1958 23.9441 19.2958C23.9441 22.3958 21.4441 24.8958 18.3441 24.8958Z" fill="#43B0FF"/>
<path d="M39.9445 4.99568C38.6445 4.49568 37.1445 4.49568 35.8445 5.09568C34.5445 5.69568 33.5445 6.69568 32.9445 7.99568L32.4445 9.09568L24.7445 28.5957C24.7445 28.6957 24.6445 28.7957 24.6445 28.8957V28.9957V29.0957L26.1445 37.1957C26.2445 37.4957 26.4445 37.7957 26.7445 37.9957C26.8445 37.9957 26.9445 38.0957 27.1445 38.0957C27.3445 38.0957 27.5445 37.9957 27.7445 37.8957L34.3445 32.9957L34.4445 32.8957C34.4445 32.8957 34.5445 32.8957 34.5445 32.7957C34.6445 32.6957 34.6445 32.5957 34.6445 32.4957L42.8445 11.8957C43.3445 10.5957 43.3445 9.09568 42.7445 7.79568C42.1445 6.49568 41.2445 5.49568 39.9445 4.99568ZM36.6445 6.89568C37.4445 6.49568 38.3445 6.49568 39.2445 6.89568C40.0445 7.19568 40.7445 7.89568 41.0445 8.69568C41.4445 9.49568 41.4445 10.3957 41.0445 11.2957L40.9445 11.4957L34.7445 8.99568L34.8445 8.79568C35.1445 7.89568 35.8445 7.29568 36.6445 6.89568ZM33.2445 30.8957L27.0445 28.3957L34.0445 10.7957L40.2445 13.2957L33.2445 30.8957ZM27.0445 30.5957L31.7445 32.4957L27.8445 35.3957L27.0445 30.5957Z" fill="#6B5CA6"/>
</svg>
