<svg width="45" height="48" viewBox="0 0 45 48" fill="none" xmlns="http://www.w3.org/2000/svg">
<path d="M22.8483 45.5528C22.4879 45.5551 22.1647 45.7737 22.0275 46.1085C21.8903 46.441 21.9694 46.8247 22.2252 47.0781C22.481 47.3339 22.8646 47.4083 23.1971 47.2711C23.5296 47.1316 23.7482 46.8061 23.7482 46.4457C23.7482 46.2085 23.6552 45.9783 23.4855 45.8109C23.3157 45.6435 23.0855 45.5504 22.8483 45.5528Z" fill="#43B0FF"/>
<path d="M1.76215 23.772H4.61526C4.81524 27.9923 6.48244 32.0128 9.32858 35.1356L7.30563 37.1656C6.95917 37.5144 6.95917 38.077 7.30563 38.4282C7.65674 38.777 8.22181 38.777 8.57289 38.4282L10.5912 36.4099C13.7164 39.2513 17.7344 40.9139 21.9548 41.1115V43.9646C21.9548 44.4576 22.3548 44.8575 22.8477 44.8575C23.3407 44.8575 23.7406 44.4576 23.7406 43.9646V41.1115C27.961 40.9116 31.9815 39.2444 35.1043 36.3982L37.1272 38.4212C37.2946 38.5886 37.5225 38.6839 37.7597 38.6839C38.1155 38.6746 38.4317 38.4584 38.5689 38.1305C38.7061 37.8003 38.6363 37.4236 38.3899 37.1655L36.3669 35.1472C39.2154 32.0197 40.8825 27.9969 41.0802 23.7723H43.9333C44.4263 23.7723 44.8262 23.3723 44.8262 22.8794C44.8262 22.3864 44.4263 21.9865 43.9333 21.9865H41.0802C40.8802 17.7661 39.213 13.7456 36.3669 10.6228L38.3899 8.59286C38.5875 8.43242 38.7061 8.19756 38.72 7.94646C38.7317 7.693 38.6387 7.44653 38.4596 7.2675C38.2806 7.08845 38.0341 6.99544 37.7807 7.00707C37.5295 7.02102 37.2947 7.13961 37.1343 7.33726L35.1113 9.36021C31.9838 6.51412 27.9633 4.8469 23.7405 4.64689V1.79378C23.7405 1.30083 23.3406 0.900879 22.8476 0.900879C22.3547 0.900879 21.9547 1.30083 21.9547 1.79378V4.64689C17.7344 4.84686 13.7139 6.51406 10.5911 9.36021L8.56111 7.33726C8.21232 6.99079 7.64964 6.99079 7.29849 7.33726C7.13107 7.50467 7.03574 7.73023 7.03574 7.9674C7.03574 8.20458 7.13107 8.43246 7.29849 8.59987L9.3168 10.6228C6.47536 13.748 4.81278 17.766 4.61515 21.9865H1.76204C1.26909 21.9865 0.869141 22.3864 0.869141 22.8794C0.869141 23.3723 1.2692 23.772 1.76215 23.772ZM22.8477 6.40685C27.2145 6.41382 31.4022 8.14848 34.4905 11.2364C37.5787 14.3244 39.3131 18.5124 39.3201 22.8792C39.3154 27.2461 37.5784 31.4338 34.4905 34.5221C31.4025 37.6103 27.2146 39.347 22.8477 39.3516C16.9625 39.3516 11.5257 36.2102 8.58212 31.1155C5.64067 26.0186 5.64067 19.7406 8.58212 14.6433C11.5259 9.54866 16.9623 6.40685 22.8477 6.40685Z" fill="#43B0FF"/>
<path d="M14.7095 32.6363C14.5886 33.0036 14.7188 33.4083 15.0327 33.6361C15.3466 33.8663 15.7721 33.864 16.086 33.6361L22.8477 28.7182L29.6164 33.6361C29.928 33.864 30.3536 33.8663 30.6674 33.6361C30.9813 33.4083 31.1116 33.0037 30.9906 32.6363L28.4003 24.665L35.1691 19.7657C35.483 19.5402 35.6155 19.1402 35.4969 18.7728C35.369 18.4124 35.0272 18.1752 34.6459 18.1775H26.3121L23.6986 10.1998C23.5776 9.83471 23.2358 9.58594 22.8498 9.58594C22.4638 9.58594 22.122 9.83474 22.0011 10.1998L19.4131 18.1519H11.0793C10.6933 18.1519 10.3492 18.4007 10.2283 18.7682C10.1074 19.1332 10.2376 19.5378 10.5492 19.7657L17.2947 24.665L14.7095 32.6363ZM13.8003 19.938H20.0625C20.4439 19.9427 20.7857 19.7032 20.9136 19.3428L22.8482 13.355L24.7828 19.3076C24.9107 19.6681 25.2525 19.9076 25.6339 19.9029H31.8961L26.8294 23.5884H26.8317C26.5178 23.8117 26.3852 24.214 26.5038 24.5814L28.4454 30.534L23.374 26.8485L23.3717 26.8508C23.0578 26.6276 22.6392 26.6276 22.3253 26.8508L17.2586 30.5363L19.1932 24.5837V24.5814C19.3118 24.2163 19.1816 23.8163 18.8723 23.5884L13.8003 19.938Z" fill="#6B5CA6"/>
</svg>
