<svg width="41" height="41" viewBox="0 0 41 41" fill="none" xmlns="http://www.w3.org/2000/svg">
<path d="M13.2241 15.1384C14.8826 12.927 17.5331 11.6075 20.3135 11.6075C24.7526 11.6075 28.4842 14.8956 29.1124 19.213L26.751 19.2998C26.4377 19.3109 26.1591 19.5027 26.0368 19.7915C25.9144 20.0804 25.9705 20.4142 26.1796 20.647L29.5392 24.3855C29.6931 24.5567 29.9117 24.6538 30.1406 24.6538C30.1501 24.6538 30.1603 24.6538 30.1706 24.653C30.4097 24.6443 30.6331 24.5299 30.7799 24.3405L33.8562 20.3653C34.048 20.1167 34.0787 19.7805 33.9359 19.5011C33.793 19.2225 33.5318 19.0489 33.1869 19.0631L30.7305 19.1534C30.0634 13.9661 25.6183 9.99121 20.3135 9.99121C17.0268 9.99121 13.8933 11.5523 11.9314 14.1677C11.6634 14.5252 11.7356 15.0318 12.0928 15.2994C12.4503 15.5677 12.9565 15.4951 13.2241 15.1384ZM30.0941 22.5853L28.5362 20.8514L31.5209 20.7417L30.0941 22.5853Z" fill="#6B5CA6"/>
<path d="M7.42143 22.1113C7.45955 22.1113 9.87589 21.9899 9.91412 21.988C10.6403 27.1086 15.057 31.0134 20.3154 31.0134C23.6024 31.0134 26.7356 29.4516 28.6975 26.8362C28.9658 26.4795 28.8932 25.9728 28.5357 25.7053C28.1798 25.4377 27.6723 25.5088 27.4048 25.8671C25.7467 28.0776 23.0965 29.3972 20.3154 29.3972C15.9149 29.3972 12.2057 26.1679 11.5298 21.9073L13.8937 21.7893C14.207 21.7735 14.4828 21.5778 14.6016 21.2873C14.72 20.9969 14.66 20.6646 14.4473 20.4342L11.0391 16.7407C10.8766 16.564 10.6449 16.4685 10.405 16.4811C10.1655 16.4929 9.94411 16.6105 9.79969 16.8023L6.77586 20.817C6.58724 21.0671 6.56041 21.4049 6.7076 21.6819C6.84807 21.9471 7.1235 22.1113 7.42143 22.1113ZM10.508 18.548L12.0884 20.2606L10.6205 20.334C10.6058 20.3338 10.5931 20.3271 10.5782 20.3277C10.5644 20.3285 10.5533 20.3364 10.5397 20.338L9.10598 20.4097L10.508 18.548Z" fill="#6B5CA6"/>
<path d="M0.864002 24.2172L4.47973 24.9243C4.83408 26.1965 5.34114 27.419 5.99144 28.5712L3.9336 31.6278C3.71775 31.9482 3.75919 32.3776 4.03265 32.6506L8.1649 36.7829C8.43836 37.0567 8.86611 37.0986 9.18731 36.8823L12.2447 34.8249C13.3953 35.4744 14.6182 35.981 15.8924 36.3362L16.5983 39.9515C16.6725 40.3311 17.0047 40.605 17.3915 40.605H23.2351C23.6218 40.605 23.9541 40.3311 24.0282 39.9515L24.7354 36.3362C26.0091 35.981 27.2316 35.4744 28.3823 34.8249L31.4388 36.8823C31.7593 37.0978 32.1886 37.0567 32.4617 36.7829L36.5939 32.6506C36.867 32.3776 36.9088 31.949 36.6934 31.6278L34.6359 28.5712C35.2854 27.4206 35.7921 26.1981 36.1472 24.9243L39.7626 24.2172C40.1422 24.143 40.416 23.8108 40.416 23.4241V17.5808C40.416 17.1941 40.1422 16.8619 39.7626 16.7877L36.1472 16.0805C35.7921 14.8068 35.2846 13.5835 34.6351 12.4336L36.6926 9.37707C36.9088 9.05665 36.867 8.62733 36.5939 8.35426L32.4617 4.222C32.1878 3.94815 31.7585 3.90632 31.4388 4.12257L28.3823 6.18001C27.2316 5.5305 26.0084 5.02383 24.7346 4.66869L24.0282 1.05336C23.9541 0.673755 23.6218 0.399902 23.2351 0.399902H17.3915C17.0047 0.399902 16.6725 0.673755 16.5983 1.05336L15.8924 4.66869C14.6182 5.02383 13.3953 5.5305 12.2447 6.18001L9.18731 4.12257C8.86611 3.90711 8.43836 3.94894 8.1649 4.222L4.03265 8.35426C3.75919 8.62733 3.71775 9.05665 3.9336 9.37707L5.99144 12.4336C5.34114 13.5859 4.83408 14.8084 4.47973 16.0805L0.864002 16.7877C0.48479 16.8619 0.210938 17.1941 0.210938 17.5808V23.4241C0.210938 23.8108 0.48479 24.143 0.864002 24.2172ZM1.82722 18.2461L5.28787 17.5698C5.59684 17.509 5.84307 17.2746 5.91765 16.9684C6.27556 15.5068 6.85365 14.1123 7.63653 12.8227C7.7999 12.5536 7.79201 12.2135 7.61601 11.9522L5.64617 9.02666L8.8373 5.83513L11.7637 7.80498C12.0253 7.98097 12.365 7.98965 12.6342 7.82471C13.9213 7.0434 15.3163 6.46492 16.7806 6.10662C17.0864 6.03164 17.3208 5.78541 17.3812 5.47605L18.0571 2.01619H22.5698L23.2454 5.47605C23.3061 5.78541 23.5405 6.03164 23.8459 6.10662C25.3107 6.46492 26.706 7.0434 27.9932 7.82471C28.2615 7.98965 28.6017 7.98097 28.8637 7.80498L31.7893 5.83513L34.9808 9.02666L33.0109 11.9522C32.8342 12.2142 32.8263 12.5536 32.9904 12.8235C33.7717 14.1091 34.3502 15.5044 34.7093 16.9692C34.7843 17.2746 35.0305 17.509 35.3399 17.5698L38.7997 18.2461V22.7588L35.3399 23.4351C35.0305 23.4959 34.7843 23.7303 34.7093 24.0357C34.351 25.4997 33.7725 26.895 32.9912 28.1822C32.8271 28.4513 32.8357 28.7906 33.0109 29.0526L34.9808 31.9782L31.7893 35.1698L28.8637 33.1999C28.6017 33.0247 28.2615 33.0152 27.9932 33.1802C26.706 33.9615 25.3107 34.54 23.8467 34.8983C23.5413 34.9732 23.3069 35.2195 23.2461 35.5288L22.5698 38.9887H18.0571L17.3812 35.5288C17.3208 35.2195 17.0864 34.9732 16.7806 34.8983C15.3163 34.54 13.9213 33.9615 12.6342 33.1802C12.365 33.0152 12.0253 33.0239 11.7637 33.1999L8.8373 35.1698L5.64617 31.9782L7.61601 29.0526C7.79201 28.7914 7.7999 28.4513 7.63653 28.1822C6.85365 26.8926 6.27556 25.4981 5.91765 24.0365C5.84307 23.7303 5.59684 23.4959 5.28787 23.4351L1.82722 22.7588V18.2461Z" fill="#7558EA"/>
</svg>
