<svg width="43" height="43" viewBox="0 0 43 43" fill="none" xmlns="http://www.w3.org/2000/svg">
<path fill-rule="evenodd" clip-rule="evenodd" d="M19.7873 16.8056C19.7871 16.7731 19.7871 16.7404 19.7873 16.7079C19.8127 12.0475 23.5985 8.27734 28.2649 8.27734C32.947 8.27734 36.7427 12.073 36.7427 16.7551C36.7427 19.0048 35.8664 21.0498 34.4367 22.5674C34.4008 22.6055 34.3645 22.6433 34.3279 22.6808C34.2653 22.7448 34.2018 22.8078 34.1372 22.8698C34.0946 22.9107 34.0516 22.9511 34.0082 22.9911C32.5378 24.3461 30.587 25.1876 28.4402 25.2311C28.3257 25.2335 28.2111 25.2335 28.0963 25.2313C25.9192 25.1888 23.9433 24.3257 22.465 22.9385C22.3374 22.8188 22.2136 22.6953 22.0938 22.5681C20.6743 21.0617 19.8003 19.0357 19.7873 16.8056ZM22.6132 16.7948L22.6131 16.7551L22.6132 16.7166C22.6141 16.5774 22.6203 16.438 22.6315 16.2987C22.7137 15.284 23.0685 14.3104 23.6582 13.4807C23.9706 13.0413 24.3427 12.6509 24.762 12.3198L26.9723 17.3259C27.1984 17.8378 27.7053 18.1681 28.2649 18.1681H33.7373C33.6037 18.6854 33.3969 19.1836 33.121 19.6468C32.9287 19.9698 32.7054 20.2714 32.4553 20.5478C32.3667 20.6456 32.2749 20.7402 32.1798 20.8316C31.816 21.1809 31.4054 21.4817 30.9579 21.7242C30.1724 22.1499 29.2988 22.3825 28.4092 22.4051C28.3612 22.4063 28.3132 22.407 28.2649 22.407C28.2178 22.407 28.1708 22.4064 28.124 22.4053C28.0949 22.4045 28.0657 22.4036 28.0364 22.4024C27.0194 22.3613 26.0322 22.0462 25.1793 21.4905C24.9325 21.3296 24.6996 21.1504 24.4823 20.9546C24.4415 20.9179 24.4013 20.8805 24.3616 20.8427C24.3087 20.7921 24.2567 20.7405 24.2058 20.688C24.1689 20.65 24.1326 20.6114 24.0969 20.5723C23.7349 20.1771 23.4293 19.7306 23.1911 19.2451C22.8157 18.4803 22.6191 17.6425 22.6132 16.7948ZM33.7387 15.3422H29.1856L27.3468 11.1774C27.6456 11.1286 27.9523 11.1033 28.2649 11.1033C30.8985 11.1033 33.1113 12.9045 33.7387 15.3422Z" fill="#6B5CA6"/>
<path d="M15.5477 16.0483C16.3281 16.0483 16.9607 16.6809 16.9607 17.4613V23.1132C16.9607 23.8935 16.3281 24.5261 15.5477 24.5261C14.7673 24.5261 14.1348 23.8935 14.1348 23.1132V17.4613C14.1348 16.6809 14.7673 16.0483 15.5477 16.0483Z" fill="#6B5CA6"/>
<path d="M12.7224 17.4613C12.7224 16.6809 12.0898 16.0483 11.3094 16.0483C10.5291 16.0483 9.89648 16.6809 9.89648 17.4613V23.1132C9.89648 23.8935 10.5291 24.5261 11.3094 24.5261C12.0898 24.5261 12.7224 23.8935 12.7224 23.1132V17.4613Z" fill="#6B5CA6"/>
<path d="M5.6582 23.1132V17.4613C5.6582 16.6809 6.29079 16.0483 7.07117 16.0483C7.85155 16.0483 8.48413 16.6809 8.48413 17.4613V23.1132C8.48413 23.8935 7.85155 24.5261 7.07117 24.5261C6.29079 24.5261 5.6582 23.8935 5.6582 23.1132Z" fill="#6B5CA6"/>
<path d="M16.4941 10.034C17.0742 9.512 17.1212 8.61858 16.5992 8.03856C16.0772 7.45854 15.1838 7.41149 14.6037 7.93351L12.0722 10.2119L11.5105 9.59049C11.2508 9.30337 10.8848 9.13523 10.4979 9.12548C10.1109 9.11573 9.73686 9.26515 9.46317 9.53891L6.07206 12.93C5.52025 13.4818 5.52025 14.3765 6.07206 14.9282C6.62382 15.4801 7.51851 15.4801 8.07027 14.9282L10.4106 12.5879L10.9213 13.1528C11.4437 13.7308 12.3355 13.7768 12.9147 13.2556L16.4941 10.034Z" fill="#6B5CA6"/>
<mask id="mask0_4405_3297" style="mask-type:alpha" maskUnits="userSpaceOnUse" x="0" y="0" width="43" height="43">
<path fill-rule="evenodd" clip-rule="evenodd" d="M0.00390625 6.1582C0.00390625 3.03677 2.53433 0.506348 5.65576 0.506348H36.7409C39.8624 0.506348 42.3928 3.03677 42.3928 6.1582V27.3526C42.3928 30.4741 39.8624 33.0045 36.7409 33.0045H27.7135C28.0093 35.5204 28.4038 37.3395 29.2847 40.0693H31.7956C32.576 40.0693 33.2085 40.7019 33.2085 41.4823C33.2085 42.2627 32.576 42.8952 31.7956 42.8952H10.6011C9.82075 42.8952 9.18817 42.2627 9.18817 41.4823C9.18817 40.7019 9.82075 40.0693 10.6011 40.0693H13.0937C13.9181 37.3823 14.3569 35.5663 14.6761 33.0045H5.65576C2.53433 33.0045 0.00390625 30.4741 0.00390625 27.3526V6.1582ZM16.0454 40.0693H26.3222C25.5345 37.4976 25.1592 35.5926 24.8691 33.0045H17.5225C17.2088 35.666 16.7864 37.5675 16.0454 40.0693ZM36.7409 30.1786H5.65576C4.09504 30.1786 2.82983 28.9133 2.82983 27.3526V6.1582C2.82983 4.59748 4.09504 3.33227 5.65576 3.33227H36.7409C38.3016 3.33227 39.5669 4.59748 39.5669 6.1582V27.3526C39.5669 28.9133 38.3016 30.1786 36.7409 30.1786Z" fill="#43B0FF"/>
</mask>
<g mask="url(#mask0_4405_3297)">
<rect x="-1" y="-1" width="44" height="44" fill="#43B0FF"/>
</g>
</svg>
