<svg width="36" height="31" viewBox="0 0 36 31" fill="none" xmlns="http://www.w3.org/2000/svg">
<path d="M7.80817 7.66037H9.2055C11.9705 7.73199 11.9705 11.7807 9.2055 11.8541V12.5528C9.18978 13.4733 7.82212 13.4698 7.80817 12.5528V11.8541H6.41084C5.49034 11.8401 5.49383 10.4707 6.41084 10.4568H9.2055C10.1243 10.4411 10.1225 9.07519 9.2055 9.05945H7.80817C5.04319 8.98783 5.04319 4.93908 7.80817 4.8657V4.16704C7.80817 3.78102 8.12082 3.46837 8.50684 3.46837C8.89285 3.46837 9.2055 3.78102 9.2055 4.16704V4.8657H10.6028C11.5233 4.87968 11.5198 6.24909 10.6028 6.26304H7.80817C6.88942 6.27876 6.89116 7.64463 7.80817 7.66037ZM0.121273 8.35904C0.386766 -1.6964 14.3759 -3.13039 16.718 6.62111C16.8927 7.52238 15.5565 7.80533 15.3504 6.90931C14.6744 3.69893 11.7959 1.37051 8.50858 1.37051C4.65543 1.37051 1.52013 4.50576 1.52013 8.35896C1.52013 12.2121 4.65538 15.3474 8.50858 15.3474C10.374 15.3474 12.1347 14.6225 13.45 13.3003L25.1053 1.64501H23.8267C22.9115 1.62929 22.9045 0.265161 23.8267 0.247677C23.8757 0.279117 27.1489 0.179559 27.0581 0.301822C27.3149 0.404876 27.4913 0.670369 27.4895 0.946339V3.91043C27.4895 4.29644 27.1769 4.6091 26.7909 4.6091C26.4048 4.6091 26.0922 4.29644 26.0922 3.91043V2.6336C26.0904 2.6336 14.4351 14.2925 14.4387 14.2907C9.25623 19.5568 0.0743227 15.7528 0.121273 8.35904Z" fill="#6B5CA6"/>
<path d="M34.7741 29.3423H34.0755V9.07586C34.0755 8.68985 33.7628 8.3772 33.3768 8.3772H29.183C28.797 8.3772 28.4844 8.68985 28.4844 9.07586V26.5477C28.4844 26.9337 28.797 27.2463 29.183 27.2463C29.5691 27.2463 29.8817 26.9337 29.8817 26.5477V9.7761H32.6764V29.3441H26.3868V14.6688C26.3868 14.2828 26.0742 13.9701 25.6881 13.9701H21.4944C21.1084 13.9701 20.7957 14.2828 20.7957 14.6688V29.3441H18.6997V19.561C18.6997 19.175 18.3871 18.8623 18.0011 18.8623H13.8073C13.4213 18.8623 13.1087 19.175 13.1087 19.561V29.3441H11.0127V23.753C11.0127 23.367 10.7 23.0543 10.314 23.0543H6.12025C5.73424 23.0543 5.42158 23.367 5.42158 23.753V29.3441H4.72292C3.81642 29.3529 3.79545 30.7275 4.72292 30.7415H18.0009C19.8891 30.7432 23.7861 30.7397 25.6878 30.7415H34.7721C35.6821 30.7257 35.6995 29.3616 34.7721 29.3441L34.7741 29.3423ZM9.61497 29.3423H6.8203V24.4501H9.61497V29.3423ZM17.3019 29.3423H14.5072V20.2581H17.3019V29.3423ZM24.9888 29.3423H22.1941V15.3654H24.9888V29.3423Z" fill="#7558EA"/>
</svg>
