<svg width="36" height="45" viewBox="0 0 36 45" fill="none" xmlns="http://www.w3.org/2000/svg">
<path fill-rule="evenodd" clip-rule="evenodd" d="M17.9993 2.71855C9.36989 2.71855 2.37435 9.65812 2.37435 18.2185C2.37435 20.2296 3.30706 22.7299 4.84454 25.4389C6.36631 28.1199 8.40897 30.8835 10.4727 33.3889C12.5331 35.8904 14.5964 38.1129 16.146 39.7113C16.9112 40.5007 17.55 41.1364 17.9993 41.5766C18.4487 41.1364 19.0875 40.5007 19.8527 39.7113C21.4023 38.1129 23.4656 35.8904 25.526 33.3889C27.5898 30.8835 29.6325 28.1199 31.1541 25.4389C32.6916 22.7299 33.6243 20.2296 33.6243 18.2185C33.6243 9.65812 26.6287 2.71855 17.9993 2.71855ZM17.9993 43.0185C17.2829 43.7685 17.2827 43.7683 17.2825 43.7681L17.2789 43.7648L17.2689 43.7555L17.2314 43.72L17.0883 43.5836C16.9637 43.4641 16.7821 43.2887 16.5514 43.0628C16.0902 42.611 15.4327 41.9569 14.6443 41.1439C13.069 39.5189 10.9656 37.2536 8.85937 34.6965C6.75639 32.1433 4.63239 29.2775 3.02916 26.4528C1.44164 23.6555 0.291016 20.7732 0.291016 18.2185C0.291016 8.51674 8.21931 0.651878 17.9993 0.651878C27.7793 0.651878 35.7077 8.51674 35.7077 18.2185C35.7077 20.7732 34.5571 23.6555 32.9696 26.4528C31.3662 29.2775 29.2423 32.1433 27.1393 34.6965C25.0331 37.2536 22.9298 39.5189 21.3543 41.1439C20.566 41.9569 19.9085 42.611 19.4473 43.0628C19.2166 43.2887 19.035 43.4641 18.9104 43.5836L18.7673 43.72L18.7298 43.7555L18.7198 43.7648L18.7171 43.7675C18.7168 43.7677 18.7158 43.7685 17.9993 43.0185ZM17.9993 43.0185L18.7171 43.7675C18.3154 44.1453 17.6841 44.1459 17.2825 43.7681L17.9993 43.0185Z" fill="#43B0FF"/>
<path fill-rule="evenodd" clip-rule="evenodd" d="M17.9993 13.0519C16.2735 13.0519 14.8743 14.4398 14.8743 16.1519C14.8743 17.864 16.2735 19.2519 17.9993 19.2519C19.7252 19.2519 21.1243 17.864 21.1243 16.1519C21.1243 14.4398 19.7252 13.0519 17.9993 13.0519ZM12.791 16.1519C12.791 13.2984 15.1229 10.9852 17.9993 10.9852C20.8758 10.9852 23.2077 13.2984 23.2077 16.1519C23.2077 19.0053 20.8758 21.3185 17.9993 21.3185C15.1229 21.3185 12.791 19.0053 12.791 16.1519Z" fill="#6B5CA6"/>
<path fill-rule="evenodd" clip-rule="evenodd" d="M19.0423 7.88522V12.0185H16.959V7.88522H19.0423Z" fill="#6B5CA6"/>
<path fill-rule="evenodd" clip-rule="evenodd" d="M19.0423 20.2852V24.4186H16.959V20.2852H19.0423Z" fill="#6B5CA6"/>
<path fill-rule="evenodd" clip-rule="evenodd" d="M9.66602 15.1185H13.8327V17.1852H9.66602V15.1185Z" fill="#6B5CA6"/>
<path fill-rule="evenodd" clip-rule="evenodd" d="M22.166 15.1185H26.3327V17.1852H22.166V15.1185Z" fill="#6B5CA6"/>
<path fill-rule="evenodd" clip-rule="evenodd" d="M12.8442 9.57579L15.7906 12.4985L14.3174 13.9599L11.3711 11.0371L12.8442 9.57579Z" fill="#6B5CA6"/>
<path fill-rule="evenodd" clip-rule="evenodd" d="M21.6823 18.3438L24.6286 21.2665L23.1554 22.728L20.209 19.8051L21.6823 18.3438Z" fill="#6B5CA6"/>
<path fill-rule="evenodd" clip-rule="evenodd" d="M11.3711 21.2667L14.3174 18.344L15.7906 19.8053L12.8442 22.728L11.3711 21.2667Z" fill="#6B5CA6"/>
<path fill-rule="evenodd" clip-rule="evenodd" d="M20.209 12.4986L23.1554 9.57585L24.6286 11.0372L21.6823 13.9599L20.209 12.4986Z" fill="#6B5CA6"/>
</svg>
