<svg width="39" height="38" viewBox="0 0 39 38" fill="none" xmlns="http://www.w3.org/2000/svg">
<path d="M24.4643 37.0836C25.3915 37.0825 26.2804 36.7137 26.936 36.0581C27.5917 35.4024 27.9605 34.5135 27.9616 33.5864V19.0416C27.9302 18.1345 27.5478 17.2749 26.895 16.6443C26.2422 16.0136 25.3699 15.6611 24.4622 15.6611C23.5545 15.6611 22.6823 16.0136 22.0295 16.6443C21.3767 17.2749 20.9942 18.1345 20.9629 19.0416V33.5864C20.964 34.5135 21.3328 35.4024 21.9884 36.0581C22.6441 36.7137 23.533 37.0825 24.4601 37.0836H24.4643ZM23.0521 33.5864V19.0416C23.0717 18.6809 23.2288 18.3414 23.4911 18.093C23.7534 17.8446 24.101 17.7061 24.4622 17.7061C24.8235 17.7061 25.171 17.8446 25.4333 18.093C25.6956 18.3414 25.8528 18.6809 25.8724 19.0416V33.5864C25.8724 33.9598 25.7241 34.318 25.46 34.582C25.1959 34.8461 24.8378 34.9944 24.4643 34.9944C24.2791 34.995 24.0955 34.959 23.9242 34.8885C23.7529 34.8179 23.5971 34.7143 23.4659 34.5835C23.3348 34.4527 23.2307 34.2973 23.1596 34.1262C23.0886 33.9551 23.052 33.7716 23.0521 33.5864Z" fill="#7558EA"/>
<path d="M14.019 37.0835C14.9462 37.0824 15.8351 36.7136 16.4907 36.058C17.1463 35.4023 17.5152 34.5134 17.5163 33.5863V23.2198C17.4849 22.3127 17.1025 21.4532 16.4497 20.8225C15.7968 20.1918 14.9246 19.8394 14.0169 19.8394C13.1092 19.8394 12.237 20.1918 11.5842 20.8225C10.9313 21.4532 10.5489 22.3127 10.5176 23.2198V33.5863C10.5187 34.5134 10.8875 35.4023 11.5431 36.058C12.1987 36.7136 13.0876 37.0824 14.0148 37.0835H14.019ZM12.6067 33.5863V23.2198C12.6264 22.8591 12.7835 22.5196 13.0458 22.2712C13.3081 22.0228 13.6557 21.8844 14.0169 21.8844C14.3782 21.8844 14.7257 22.0228 14.988 22.2712C15.2503 22.5196 15.4075 22.8591 15.4271 23.2198V33.5863C15.4271 33.9597 15.2788 34.3179 15.0147 34.5819C14.7506 34.846 14.3925 34.9944 14.019 34.9944C13.8337 34.9949 13.6502 34.9589 13.4789 34.8884C13.3076 34.8179 13.1518 34.7142 13.0206 34.5834C12.8894 34.4526 12.7853 34.2972 12.7143 34.1261C12.6433 33.955 12.6067 33.7715 12.6067 33.5863Z" fill="#7558EA"/>
<path d="M34.9055 11.3657C33.9783 11.3668 33.0894 11.7356 32.4337 12.3913C31.7781 13.0469 31.4093 13.9358 31.4082 14.863V33.586C31.4093 34.5132 31.7781 35.4021 32.4337 36.0577C33.0894 36.7134 33.9783 37.0822 34.9055 37.0833C35.8326 37.0822 36.7215 36.7134 37.3772 36.0577C38.0328 35.4021 38.4016 34.5132 38.4027 33.586V14.863C38.4016 13.9358 38.0328 13.0469 37.3772 12.3913C36.7215 11.7356 35.8326 11.3668 34.9055 11.3657ZM36.3177 33.586C36.3177 33.7709 36.2813 33.954 36.2105 34.1249C36.1398 34.2957 36.0361 34.4509 35.9053 34.5817C35.7746 34.7125 35.6193 34.8162 35.4485 34.8869C35.2776 34.9577 35.0945 34.9941 34.9096 34.9941C34.5362 34.9941 34.178 34.8458 33.914 34.5817C33.6499 34.3176 33.5015 33.9595 33.5015 33.586V14.863C33.5212 14.5022 33.6783 14.1628 33.9406 13.9143C34.2029 13.6659 34.5505 13.5275 34.9117 13.5275C35.273 13.5275 35.6205 13.6659 35.8828 13.9143C36.1451 14.1628 36.3023 14.5022 36.3219 14.863L36.3177 33.586Z" fill="#7558EA"/>
<path d="M32.0868 8.39518C32.2733 8.43396 32.467 8.42098 32.6467 8.35765C32.8264 8.29431 32.9853 8.18303 33.1063 8.03584L36.6955 3.69875C36.8068 3.56752 36.884 3.41083 36.9201 3.24259C36.9563 3.07435 36.9504 2.89979 36.9028 2.73441C36.8553 2.56903 36.7676 2.41795 36.6476 2.29461C36.5276 2.17127 36.379 2.07949 36.215 2.02742L30.8584 0.280885C30.6781 0.222751 30.4854 0.214727 30.3009 0.25767C30.1165 0.300614 29.9471 0.392908 29.8111 0.524678C29.675 0.656448 29.5773 0.822734 29.5285 1.00574C29.4797 1.18875 29.4815 1.38159 29.5338 1.56363L30.0896 3.4773L8.09489 10.5804C7.62215 9.74605 6.86275 9.1115 5.95763 8.79456C5.05251 8.47761 4.06315 8.49981 3.17315 8.85702C2.28315 9.21423 1.55297 9.88219 1.11812 10.7369C0.683269 11.5917 0.573284 12.5752 0.808577 13.5049C1.04387 14.4346 1.60846 15.2473 2.39756 15.7923C3.18667 16.3373 4.14669 16.5775 5.09947 16.4683C6.05224 16.3592 6.93305 15.908 7.57843 15.1987C8.22381 14.4893 8.58993 13.5699 8.60883 12.6111L30.6704 5.50378L31.2971 7.6598C31.3493 7.84264 31.4505 8.00776 31.5896 8.13736C31.7288 8.26695 31.9007 8.35609 32.0868 8.39518ZM34.1049 3.55251L32.7512 5.18623L32.0868 2.89651L34.1049 3.55251ZM5.16172 14.366C4.80461 14.4693 4.42488 14.4645 4.07053 14.3521C3.71618 14.2396 3.40311 14.0247 3.17087 13.7344C2.93864 13.4441 2.79767 13.0915 2.76578 12.7211C2.7339 12.3507 2.81252 11.9792 2.99172 11.6535C3.17093 11.3278 3.44266 11.0625 3.77258 10.8912C4.10251 10.7198 4.47582 10.6502 4.84533 10.6909C5.21484 10.7317 5.56397 10.8811 5.84861 11.1203C6.13324 11.3594 6.34059 11.6775 6.44446 12.0345C6.58277 12.5138 6.52541 13.0283 6.28496 13.4654C6.04451 13.9024 5.64058 14.2263 5.16172 14.366Z" fill="#6B5CA6"/>
</svg>
