<svg width="34" height="40" viewBox="0 0 34 40" fill="none" xmlns="http://www.w3.org/2000/svg">
<path d="M17.0034 9.45458C12.3718 9.45458 8.60547 13.2205 8.60547 17.8525C8.60547 21.1135 10.4524 24.0282 13.3668 25.4134V27.7653L15.0983 30.882L13.3668 33.335V36.5815L17.003 39.9579L20.6247 36.5815V25.4131C23.5394 24.028 25.4008 21.1133 25.4008 17.8523C25.4008 13.2207 21.6354 9.45458 17.0034 9.45458ZM19.5574 24.1866L19.0668 24.3886V35.9032L17.0034 37.8367L14.9256 35.9032V33.8254L16.9313 30.9685L14.9256 27.3612V24.3888L14.435 24.1868C11.8378 23.1479 10.1496 20.6517 10.1496 17.8523C10.1496 14.0719 13.223 10.9984 17.0035 10.9984C20.7841 10.9984 23.8427 14.0717 23.8427 17.8523C23.8427 20.6515 22.1546 23.1477 19.5574 24.1866Z" fill="#6B5CA6"/>
<path d="M17.0015 0.294054L0.121094 5.82928V18.368C0.121094 23.6978 2.86982 27.0652 6.05156 30.9645C6.61067 31.6481 7.18424 32.3515 7.7614 33.0892L8.98605 32.1279C8.40168 31.3812 7.82092 30.6724 7.25816 29.9816C4.13968 26.1615 1.67768 23.1457 1.67768 18.3681V6.95646L17.003 1.93144L32.3283 6.95646V18.3681C32.3283 24.3254 28.391 29.0854 25.0847 32.0289L26.12 33.1904C31.199 28.6651 33.8844 23.5412 33.8844 18.368L33.8826 5.82919L17.0022 0.292114L17.0015 0.294054Z" fill="#43B0FF"/>
</svg>
