<svg width="45" height="34" viewBox="0 0 45 34" fill="none" xmlns="http://www.w3.org/2000/svg">
<path d="M42.1195 28.9768C41.8528 28.6972 41.4097 28.6866 41.1301 28.9533C40.8505 29.2199 40.84 29.663 41.1066 29.9426L41.7113 30.5771H31.6321L28.0871 25.0414C30.5353 23.2621 32.1304 20.3765 32.1304 17.1255C32.1304 13.8739 30.5353 10.9888 28.0871 9.20957L31.6321 3.67382H41.7113L41.1066 4.3083C40.84 4.58789 40.8505 5.03102 41.1301 5.29766C41.2658 5.42667 41.4394 5.49093 41.613 5.49093C41.7977 5.49093 41.9823 5.41804 42.1195 5.27416L43.8522 3.45705C44.1102 3.18657 44.1102 2.76166 43.8522 2.49118L42.1195 0.674063C41.8528 0.39447 41.4097 0.383919 41.1301 0.650564C40.8505 0.917209 40.84 1.36034 41.1066 1.63993L41.7113 2.27441H31.2494C31.011 2.27441 30.7885 2.39574 30.66 2.59669L26.8991 8.46958C25.5395 7.75214 23.9915 7.34498 22.3499 7.34498C20.6104 7.34498 18.9756 7.80201 17.5589 8.60147L13.7132 2.59669C13.5846 2.39574 13.3626 2.27441 13.1238 2.27441H1.354C0.96746 2.27441 0.654297 2.58757 0.654297 2.97411C0.654297 3.36065 0.96746 3.67382 1.354 3.67382H12.7411L16.3921 9.37455C14.069 11.1643 12.5694 13.9727 12.5694 17.1255C12.5694 20.2782 14.069 23.0866 16.3921 24.8764L12.7411 30.5771H1.354C0.96746 30.5771 0.654297 30.8903 0.654297 31.2768C0.654297 31.6634 0.96746 31.9765 1.354 31.9765H13.1238C13.3621 31.9765 13.5846 31.8552 13.7132 31.6542L17.5589 25.6495C18.9756 26.4489 20.6104 26.906 22.3499 26.906C23.9915 26.906 25.5391 26.4988 26.8991 25.7813L30.66 31.6542C30.7885 31.8552 31.0105 31.9765 31.2494 31.9765H41.7113L41.1066 32.611C40.84 32.8906 40.8505 33.3337 41.1301 33.6004C41.2658 33.7294 41.4394 33.7936 41.613 33.7936C41.7977 33.7936 41.9823 33.7207 42.1195 33.5769L43.8522 31.7598C44.1102 31.4893 44.1102 31.0644 43.8522 30.7939L42.1195 28.9768ZM13.9688 17.1255C13.9688 12.5043 17.7287 8.74438 22.3499 8.74438C26.9711 8.74438 30.731 12.5043 30.731 17.1255C30.731 21.7467 26.9711 25.5065 22.3499 25.5065C17.7287 25.5065 13.9688 21.7467 13.9688 17.1255ZM28.3273 22.1068C28.0875 19.8667 26.6445 18.0309 24.6797 17.2084C25.3295 16.5912 25.7357 15.7198 25.7357 14.7549C25.7357 12.8879 24.2169 11.3691 22.3499 11.3691C20.4829 11.3691 18.9641 12.8879 18.9641 14.7549C18.9641 15.7198 19.3703 16.5907 20.0201 17.2084C18.0553 18.0314 16.6122 19.8667 16.3724 22.1068C16.3513 22.3044 16.4151 22.5015 16.548 22.6492C16.6808 22.7969 16.8697 22.8813 17.0683 22.8813H27.6315C27.83 22.8813 28.0194 22.7969 28.1518 22.6492C28.2846 22.5015 28.3484 22.3044 28.3273 22.1068ZM22.3499 12.769C23.4447 12.769 24.3358 13.66 24.3358 14.7549C24.3358 15.8498 23.4447 16.7408 22.3499 16.7408C21.255 16.7408 20.3639 15.8498 20.3639 14.7549C20.3639 13.66 21.255 12.769 22.3499 12.769ZM17.9143 21.4815C18.4677 19.5315 20.2551 18.1407 22.3499 18.1407C24.4447 18.1407 26.232 19.5315 26.7855 21.4815H17.9143Z" fill="#7558EA"/>
<mask id="mask0_2587_2981" style="mask-type:alpha" maskUnits="userSpaceOnUse" x="0" y="0" width="45" height="34">
<path d="M42.1214 28.9768C41.8548 28.6972 41.4116 28.6866 41.1321 28.9533C40.8525 29.2199 40.8419 29.663 41.1086 29.9426L41.7133 30.5771H31.634L28.089 25.0414C30.5372 23.2621 32.1323 20.3765 32.1323 17.1255C32.1323 13.8739 30.5372 10.9888 28.089 9.20957L31.634 3.67382H41.7133L41.1086 4.3083C40.8419 4.58789 40.8525 5.03102 41.1321 5.29766C41.2678 5.42667 41.4414 5.49093 41.615 5.49093C41.7996 5.49093 41.9843 5.41804 42.1214 5.27416L43.8541 3.45705C44.1121 3.18657 44.1121 2.76166 43.8541 2.49118L42.1214 0.674063C41.8548 0.39447 41.4116 0.383919 41.1321 0.650564C40.8525 0.917209 40.8419 1.36034 41.1086 1.63993L41.7133 2.27441H31.2513C31.013 2.27441 30.7905 2.39574 30.6619 2.59669L26.9011 8.46958C25.5415 7.75214 23.9934 7.34498 22.3518 7.34498C20.6124 7.34498 18.9775 7.80201 17.5609 8.60147L13.7151 2.59669C13.5866 2.39574 13.3646 2.27441 13.1257 2.27441H1.35595C0.969414 2.27441 0.65625 2.58757 0.65625 2.97411C0.65625 3.36065 0.969414 3.67382 1.35595 3.67382H12.743L16.394 9.37455C14.071 11.1643 12.5713 13.9727 12.5713 17.1255C12.5713 20.2782 14.071 23.0866 16.394 24.8764L12.743 30.5771H1.35595C0.969414 30.5771 0.65625 30.8903 0.65625 31.2768C0.65625 31.6634 0.969414 31.9765 1.35595 31.9765H13.1257C13.3641 31.9765 13.5866 31.8552 13.7151 31.6542L17.5609 25.6495C18.9775 26.4489 20.6124 26.906 22.3518 26.906C23.9934 26.906 25.541 26.4988 26.9011 25.7813L30.6619 31.6542C30.7905 31.8552 31.0125 31.9765 31.2513 31.9765H41.7133L41.1086 32.611C40.8419 32.8906 40.8525 33.3337 41.1321 33.6004C41.2678 33.7294 41.4414 33.7936 41.615 33.7936C41.7996 33.7936 41.9843 33.7207 42.1214 33.5769L43.8541 31.7598C44.1121 31.4893 44.1121 31.0644 43.8541 30.7939L42.1214 28.9768ZM13.9707 17.1255C13.9707 12.5043 17.7306 8.74438 22.3518 8.74438C26.973 8.74438 30.7329 12.5043 30.7329 17.1255C30.7329 21.7467 26.973 25.5065 22.3518 25.5065C17.7306 25.5065 13.9707 21.7467 13.9707 17.1255ZM28.3293 22.1068C28.0895 19.8667 26.6464 18.0309 24.6816 17.2084C25.3314 16.5912 25.7376 15.7198 25.7376 14.7549C25.7376 12.8879 24.2188 11.3691 22.3518 11.3691C20.4848 11.3691 18.966 12.8879 18.966 14.7549C18.966 15.7198 19.3722 16.5907 20.022 17.2084C18.0572 18.0314 16.6142 19.8667 16.3744 22.1068C16.3533 22.3044 16.4171 22.5015 16.5499 22.6492C16.6827 22.7969 16.8717 22.8813 17.0702 22.8813H27.6334C27.8319 22.8813 28.0214 22.7969 28.1537 22.6492C28.2866 22.5015 28.3504 22.3044 28.3293 22.1068ZM22.3518 12.769C23.4467 12.769 24.3378 13.66 24.3378 14.7549C24.3378 15.8498 23.4467 16.7408 22.3518 16.7408C21.257 16.7408 20.3659 15.8498 20.3659 14.7549C20.3659 13.66 21.257 12.769 22.3518 12.769ZM17.9162 21.4815C18.4697 19.5315 20.257 18.1407 22.3518 18.1407C24.4466 18.1407 26.234 19.5315 26.7874 21.4815H17.9162Z" fill="#6B5CA6"/>
</mask>
<g mask="url(#mask0_2587_2981)">
<circle cx="22.3535" cy="17.1255" r="8.15625" fill="#6B5CA6"/>
</g>
</svg>
