<svg width="39" height="40" viewBox="0 0 39 40" fill="none" xmlns="http://www.w3.org/2000/svg">
<path d="M30.1167 20.5672C27.6646 20.5672 25.6675 22.5643 25.6675 25.0165C25.6675 25.9771 25.9877 26.8703 26.5102 27.595C23.8052 28.9432 22.0694 31.6987 22.0694 34.7913V37.6985H38.1726V34.7913C38.1726 32.6425 37.3299 30.6201 35.8047 29.0949C35.1895 28.4882 34.4817 27.991 33.7149 27.6034C34.2458 26.8703 34.566 25.9771 34.566 25.008C34.566 22.5559 32.5689 20.5588 30.1167 20.5588V20.5672ZM30.1167 22.2525C31.6419 22.2525 32.8807 23.4912 32.8807 25.0165C32.8807 26.5417 31.6419 27.7804 30.1167 27.7804C28.5915 27.7804 27.3528 26.5417 27.3528 25.0165C27.3528 23.4912 28.5915 22.2525 30.1167 22.2525ZM36.4872 34.7997V36.0216H23.7547V34.7997C23.7547 32.1201 25.4147 29.7775 27.9005 28.8505C28.5578 29.2297 29.3078 29.4657 30.1167 29.4657C30.9257 29.4657 31.6841 29.2297 32.3414 28.8505C33.184 29.1708 33.9677 29.6595 34.6165 30.2999C35.8215 31.5049 36.4872 33.106 36.4872 34.7997ZM22.4064 9.84018L18.4375 5.87126L22.4064 1.90234L23.5946 3.09049L21.6649 5.02018H22.162C28.6674 5.02018 33.9593 10.3121 33.9593 16.8174H32.2739C32.2739 11.239 27.7404 6.70549 22.162 6.70549H21.6649L23.5946 8.63518L22.4064 9.82333V9.84018Z" fill="#43B0FF"/>
<path d="M10.9741 37.8617L12.9038 35.932H12.4066C5.90127 35.932 0.609375 30.6401 0.609375 24.1348H2.29469C2.29469 29.7132 6.82819 34.2467 12.4066 34.2467H12.9038L10.9741 32.317L12.1622 31.1288L16.1311 35.0977L12.1622 39.0667L10.9741 37.8785V37.8617Z" fill="#43B0FF"/>
<path d="M16.7126 14.8472C16.7126 12.6985 15.8699 10.6761 14.3531 9.15087C13.7464 8.54416 13.0302 8.04699 12.2633 7.65937C12.7942 6.92625 13.1144 6.03304 13.1144 5.06398C13.1144 2.61185 11.1173 0.614746 8.66519 0.614746C6.21305 0.614746 4.21595 2.61185 4.21595 5.06398C4.21595 6.03304 4.53616 6.91783 5.05861 7.65094C2.35368 8.99919 0.609375 11.7547 0.609375 14.8472V17.7544H16.7126V14.8472ZM8.66519 2.30006C10.1904 2.30006 11.4291 3.53877 11.4291 5.06398C11.4291 6.58919 10.1904 7.8279 8.66519 7.8279C7.13998 7.8279 5.90127 6.58919 5.90127 5.06398C5.90127 3.53877 7.13998 2.30006 8.66519 2.30006ZM15.0273 16.0691H2.29469V14.8472C2.29469 12.1676 3.95473 9.825 6.449 8.89807C7.10627 9.27727 7.85623 9.51321 8.66519 9.51321C9.47414 9.51321 10.2325 9.27727 10.8898 8.89807C11.7409 9.21828 12.5246 9.70703 13.165 10.3474C14.37 11.5524 15.0357 13.1535 15.0357 14.8472V16.0691H15.0273Z" fill="#6B5CA6"/>
</svg>
