<svg width="44" height="40" viewBox="0 0 44 40" fill="none" xmlns="http://www.w3.org/2000/svg">
<path d="M21.8449 32.4255C21.2449 32.4255 20.8449 32.8255 20.8449 33.4255V37.0255H15.9449V33.4255C15.9449 33.4255 15.9449 33.4255 15.9449 33.3255C15.9449 33.2255 15.9449 33.2255 15.9449 33.1255C15.9449 33.0255 15.9449 33.0255 15.8449 32.9255C15.8449 32.8255 15.7449 32.8255 15.7449 32.7255C15.7449 32.6255 15.6449 32.6255 15.6449 32.6255C15.6449 32.6255 15.5449 32.5255 15.4449 32.5255C15.3449 32.5255 15.3449 32.4255 15.2449 32.4255C15.2449 32.4255 15.2449 32.4255 15.1449 32.4255C12.8449 31.8255 10.7449 30.6255 9.04486 28.9255C9.04486 28.9255 9.04486 28.9255 8.94486 28.9255C8.84486 28.9255 8.84486 28.8255 8.74486 28.8255C8.64486 28.8255 8.64486 28.7255 8.54486 28.7255C8.44486 28.7255 8.44486 28.7255 8.34486 28.7255C8.24486 28.7255 8.24486 28.7255 8.14486 28.7255C8.04486 28.7255 8.04486 28.7255 7.94486 28.7255C7.84486 28.7255 7.84486 28.7255 7.74486 28.8255H7.64486L4.54486 30.6255L2.04486 26.3255L5.14486 24.5255C5.14486 24.5255 5.14486 24.5255 5.24486 24.5255C5.34486 24.5255 5.34486 24.4255 5.44486 24.4255L5.54486 24.3255C5.54486 24.2255 5.64486 24.2255 5.64486 24.1255C5.64486 24.0255 5.64486 24.0255 5.74486 23.9255C5.74486 23.8255 5.74486 23.8255 5.74486 23.7255C5.74486 23.6255 5.74486 23.6255 5.74486 23.5255C5.74486 23.5255 5.74486 23.5255 5.74486 23.4255C5.44486 22.3255 5.24486 21.1255 5.24486 19.9255C5.24486 18.7255 5.44486 17.5255 5.74486 16.4255C5.74486 16.4255 5.74486 16.4255 5.74486 16.3255C5.74486 16.2255 5.74486 16.2255 5.74486 16.1255C5.74486 16.0255 5.74486 16.0255 5.74486 15.9255C5.74486 15.8255 5.74486 15.8255 5.64486 15.7255C5.64486 15.6255 5.64486 15.6255 5.54486 15.5255C5.54486 15.4255 5.44486 15.4255 5.44486 15.4255C5.44486 15.4255 5.34486 15.3255 5.24486 15.3255C5.24486 15.3255 5.24486 15.3255 5.14486 15.3255L2.04486 13.5255L4.54486 9.22554L7.64486 11.0255C7.64486 11.0255 7.64486 11.0255 7.74486 11.0255C7.84486 11.0255 7.84486 11.0255 7.94486 11.1255C8.04486 11.1255 8.04486 11.1255 8.14486 11.1255C8.14486 11.1255 8.14486 11.1255 8.24486 11.1255H8.34486C8.44486 11.1255 8.44486 11.1255 8.54486 11.1255C8.64486 11.1255 8.64486 11.1255 8.74486 11.0255C8.84486 11.0255 8.84486 10.9255 8.94486 10.9255C8.94486 10.9255 8.94486 10.9255 9.04486 10.9255C10.7449 9.22554 12.8449 8.02554 15.1449 7.42554C15.1449 7.42554 15.1449 7.42554 15.2449 7.42554C15.3449 7.42554 15.3449 7.32554 15.4449 7.32554C15.5449 7.32554 15.5449 7.22554 15.6449 7.22554L15.7449 7.12554C15.7449 7.02554 15.8449 7.02554 15.8449 6.92554C15.8449 6.82554 15.8449 6.82554 15.9449 6.72554C15.9449 6.62554 15.9449 6.62554 15.9449 6.52554C15.9449 6.52554 15.9449 6.52554 15.9449 6.42554V2.82554H20.8449V6.42554C20.8449 6.42554 20.8449 6.42554 20.8449 6.52554C20.8449 6.62554 20.8449 6.62554 20.8449 6.72554C20.8449 6.82554 20.8449 6.82554 20.9449 6.92554C20.9449 7.02554 21.0449 7.02554 21.0449 7.12554C21.0449 7.22554 21.1449 7.22554 21.1449 7.22554C21.1449 7.22554 21.2449 7.32554 21.3449 7.32554C21.4449 7.32554 21.4449 7.42554 21.5449 7.42554C21.5449 7.42554 21.5449 7.42554 21.6449 7.42554C23.9449 8.02554 26.0449 9.22554 27.7449 10.9255C27.9449 11.1255 28.2449 11.2255 28.4449 11.2255C28.7449 11.2255 28.9449 11.1255 29.1449 10.9255C29.5449 10.5255 29.5449 9.92554 29.1449 9.52554C27.4449 7.72554 25.2449 6.42554 22.9449 5.72554V1.92554C22.9449 1.32554 22.5449 0.925537 21.9449 0.925537H15.0449C14.4449 0.925537 14.0449 1.32554 14.0449 1.92554V5.72554C11.9449 6.42554 10.0449 7.52554 8.34486 9.02554L5.04486 7.12554C4.84486 7.02554 4.54486 6.92554 4.24486 7.02554C3.94486 7.12554 3.74486 7.22554 3.64486 7.52554L0.14486 13.5255C-0.15514 14.0255 0.0448599 14.6255 0.54486 14.9255L3.84486 16.8255C3.64486 17.9255 3.44486 19.0255 3.44486 20.1255C3.44486 21.2255 3.54486 22.3255 3.84486 23.4255L0.54486 25.3255C0.0448599 25.6255 -0.0551397 26.2255 0.14486 26.7255L3.64486 32.7255C3.74486 32.9255 4.04486 33.1255 4.24486 33.2255C4.34486 33.2255 4.44486 33.2255 4.54486 33.2255C4.74486 33.2255 4.84486 33.2255 5.04486 33.1255L8.34486 31.2255C9.94486 32.7255 11.9449 33.8255 14.0449 34.5255V38.3255C14.0449 38.9255 14.4449 39.3255 15.0449 39.3255H21.9449C22.5449 39.3255 22.9449 38.9255 22.9449 38.3255V33.7255C22.8449 32.9255 22.3449 32.4255 21.8449 32.4255Z" fill="#7558EA"/>
<path d="M18.3441 12.3254C14.1441 12.3254 10.7441 15.7254 10.7441 19.9254C10.7441 24.1254 14.1441 27.5254 18.3441 27.5254C22.5441 27.5254 25.9441 24.1254 25.9441 19.9254C25.9441 15.7254 22.5441 12.3254 18.3441 12.3254ZM18.3441 25.5254C15.2441 25.5254 12.7441 23.0254 12.7441 19.9254C12.7441 16.8254 15.2441 14.3254 18.3441 14.3254C21.4441 14.3254 23.9441 16.8254 23.9441 19.9254C23.9441 23.0254 21.4441 25.5254 18.3441 25.5254Z" fill="#7558EA"/>
<path d="M39.9445 5.62532C38.6445 5.12532 37.1445 5.12532 35.8445 5.72532C34.5445 6.32532 33.5445 7.32532 32.9445 8.62532L32.4445 9.72532L24.7445 29.2253C24.7445 29.3253 24.6445 29.4253 24.6445 29.5253V29.6253V29.7253L26.1445 37.8253C26.2445 38.1253 26.4445 38.4253 26.7445 38.6253C26.8445 38.6253 26.9445 38.7253 27.1445 38.7253C27.3445 38.7253 27.5445 38.6253 27.7445 38.5253L34.3445 33.6253L34.4445 33.5253C34.4445 33.5253 34.5445 33.5253 34.5445 33.4253C34.6445 33.3253 34.6445 33.2253 34.6445 33.1253L42.8445 12.5253C43.3445 11.2253 43.3445 9.72532 42.7445 8.42532C42.1445 7.12532 41.2445 6.12532 39.9445 5.62532ZM36.6445 7.52532C37.4445 7.12532 38.3445 7.12532 39.2445 7.52532C40.0445 7.82532 40.7445 8.52532 41.0445 9.32532C41.4445 10.1253 41.4445 11.0253 41.0445 11.9253L40.9445 12.1253L34.7445 9.62532L34.8445 9.42532C35.1445 8.52532 35.8445 7.92532 36.6445 7.52532ZM33.2445 31.5253L27.0445 29.0253L34.0445 11.4253L40.2445 13.9253L33.2445 31.5253ZM27.0445 31.2253L31.7445 33.1253L27.8445 36.0253L27.0445 31.2253Z" fill="#6B5CA6"/>
</svg>
