<svg width="42" height="35" viewBox="0 0 42 35" fill="none" xmlns="http://www.w3.org/2000/svg">
<path d="M28.1427 7.0798C24.6775 7.0798 21.3867 8.39202 18.8817 10.7221V1.12319C18.8817 0.754401 18.5831 0.455811 18.2143 0.455811H6.76836C6.39957 0.455811 6.10098 0.754401 6.10098 1.12319V18.0276H1.61637C1.36545 18.0276 1.13548 18.1685 1.02181 18.3922C0.908134 18.6159 0.929087 18.8846 1.07681 19.0878L11.9518 34.0268C12.0775 34.1996 12.2781 34.3013 12.4913 34.3013C12.7045 34.3013 12.9052 34.1991 13.0309 34.0268L17.0247 28.5406C19.5763 32.1645 23.6617 34.3013 28.1427 34.3013C35.6478 34.3013 41.7537 28.1954 41.7537 20.6908C41.7537 13.1857 35.6478 7.0798 28.1427 7.0798ZM23.9059 19.0878C24.0536 18.8846 24.0751 18.6164 23.9609 18.3922C23.8472 18.1685 23.6172 18.0276 23.3663 18.0276H18.8817V17.268C20.3092 13.4062 24.0164 10.82 28.1427 10.82C33.5859 10.82 38.014 15.2481 38.014 20.6913C38.014 26.134 33.5859 30.5626 28.1427 30.5626C24.4852 30.5626 21.096 28.5013 19.4003 25.2781L23.9059 19.0878ZM12.4913 32.4998L2.92807 19.3623H6.76888C7.13767 19.3623 7.43626 19.0637 7.43626 18.695V1.79056H17.5475V12.3874V17.1501V18.695C17.5475 19.0637 17.846 19.3623 18.2148 19.3623H22.0556L12.4913 32.4998ZM28.1427 32.9665C23.9488 32.9665 20.1363 30.8926 17.8581 27.3954L18.5412 26.4572C20.5517 29.791 24.2076 31.8968 28.1427 31.8968C34.3219 31.8968 39.3487 26.87 39.3487 20.6908C39.3487 14.5115 34.3219 9.48476 28.1427 9.48476C24.3841 9.48476 20.9367 11.38 18.8817 14.3926V12.6336C21.218 9.9494 24.5795 8.41455 28.1427 8.41455C34.9118 8.41455 40.4189 13.9217 40.4189 20.6908C40.4189 27.4599 34.9118 32.9665 28.1427 32.9665Z" fill="#7558EA"/>
<path d="M25.4263 19.611C25.199 18.9274 25.2739 18.1998 25.638 17.5617C26.0775 16.7912 26.8941 16.2275 27.8784 16.0154C27.9078 16.0091 27.9371 16.0054 27.9664 15.9996V14.5486C27.9664 14.1798 28.265 13.8812 28.6338 13.8812C29.0026 13.8812 29.3012 14.1798 29.3012 14.5486V15.9619C30.4332 16.1165 31.4259 16.7404 31.8994 17.6833C32.065 18.0128 31.9325 18.414 31.603 18.579C31.2745 18.7446 30.8727 18.612 30.7072 18.2825C30.3222 17.5172 29.2032 17.0934 28.1597 17.3197C27.5458 17.4523 27.0492 17.7812 26.7972 18.2228C26.6746 18.4376 26.5568 18.7797 26.693 19.1888C26.9806 20.0531 27.627 20.203 28.7449 20.3936C29.8774 20.5864 31.2866 20.8268 31.8418 22.4953C32.0692 23.1789 31.9943 23.907 31.6302 24.5451C31.1907 25.3151 30.374 25.8788 29.3897 26.0909C29.3604 26.0972 29.3305 26.0993 29.3012 26.1051V27.4875C29.3012 27.8563 29.0026 28.1549 28.6338 28.1549C28.265 28.1549 27.9664 27.8563 27.9664 27.4875V26.1444C26.8344 25.9898 25.8417 25.3654 25.3682 24.4225C25.2026 24.093 25.3352 23.6923 25.6647 23.5267C25.9936 23.3607 26.3949 23.4943 26.5604 23.8232C26.9449 24.588 28.0628 25.0108 29.1079 24.786C29.7218 24.6535 30.2184 24.3245 30.4704 23.8835C30.593 23.6682 30.7108 23.3261 30.5746 22.917C30.286 22.0505 29.6391 21.9002 28.5201 21.7095C27.3892 21.5173 25.9811 21.2774 25.4263 19.611Z" fill="#6B5CA6"/>
</svg>
