<svg width="34" height="39" viewBox="0 0 34 39" fill="none" xmlns="http://www.w3.org/2000/svg">
<path d="M23.8456 10.2499C23.8456 10.2499 20.4337 9.83336 20.4337 9.83116C20.3367 9.82014 20.2508 9.76063 20.2045 9.67246L18.6154 6.62429C17.9057 5.14756 15.5605 5.17403 14.9192 6.70584L13.4667 9.82014C13.4248 9.9083 13.3411 9.97222 13.2441 9.98985L9.85428 10.5607C9.07406 10.6929 8.44809 11.2439 8.2211 12.0021C7.99411 12.7604 8.21228 13.5648 8.78974 14.1026L11.3045 16.4455C11.3773 16.5138 11.4103 16.6108 11.3971 16.7078L10.8924 20.1086C10.5926 21.7396 12.5124 23.0709 13.9318 22.2135L16.9381 20.5473C17.024 20.4988 17.1276 20.4966 17.2158 20.5407L20.2926 22.0724C21.7517 22.8615 23.6097 21.4509 23.235 19.8331L22.5782 16.4587C22.5583 16.3617 22.5892 16.2625 22.6575 16.192L25.0665 13.7366C26.2655 12.595 25.4985 10.3909 23.8455 10.2454L23.8456 10.2499ZM23.8081 12.5069C20.1207 16.2979 20.5263 14.9975 21.5049 20.1726C21.5424 20.4415 21.3176 20.5958 21.0795 20.4966C16.3386 18.1625 17.6941 18.1471 13.0764 20.6751C12.8339 20.7942 12.6157 20.6288 12.6356 20.371C13.3916 15.1364 13.8236 16.4279 9.99292 12.8153C9.80558 12.6191 9.89594 12.3634 10.1472 12.3017C15.3576 11.4024 14.2666 12.2136 16.5146 7.45278C16.6447 7.21254 16.918 7.22136 17.0502 7.44176L18.6393 10.4899C18.9545 11.0916 19.543 11.4994 20.2174 11.5832L23.6293 12.0019C23.896 12.0504 23.9732 12.3105 23.8057 12.5067L23.8081 12.5069Z" fill="#6B5CA6"/>
<path d="M28.5595 0.975586H5.02239C2.40619 0.975586 0.279297 3.12674 0.279297 5.7694V24.0608C0.279297 26.7035 2.40839 28.8547 5.02239 28.8547H18.3525L25.8309 38.4027C26.3136 39.0573 27.4332 38.6738 27.4068 37.8583V28.8548H28.5595C31.1757 28.8548 33.3026 26.7036 33.3026 24.0609V5.76949C33.3026 3.12683 31.1735 0.975586 28.5595 0.975586ZM31.5394 24.0608C31.5394 25.7314 30.2015 27.0914 28.5595 27.0914H26.5252C26.0381 27.0914 25.6436 27.4859 25.6436 27.973V35.3036L19.4765 27.4285C19.3089 27.2147 19.0533 27.0913 18.7822 27.0913H5.02211C3.37786 27.0913 2.04226 25.7313 2.04226 24.0607V5.76926C2.04226 4.09861 3.38012 2.73868 5.02211 2.73868H28.5593C30.2035 2.73868 31.5391 4.09861 31.5391 5.76926L31.5394 24.0608Z" fill="#7558EA"/>
</svg>
