<svg width="45" height="38" viewBox="0 0 45 38" fill="none" xmlns="http://www.w3.org/2000/svg">
<path fill-rule="evenodd" clip-rule="evenodd" d="M4.64267 19.2729L2.53327 22.2143C2.22858 22.6362 1.64265 22.7299 1.22077 22.4291C0.798889 22.1244 0.705149 21.5385 1.00593 21.1166L4.78323 15.851C4.83792 15.7651 4.90823 15.6831 4.99417 15.6127C5.40042 15.2885 5.99417 15.3549 6.31447 15.7651L10.3809 20.8862C10.7051 21.2924 10.6348 21.8862 10.2285 22.2065C9.82228 22.5307 9.22853 22.4604 8.90823 22.0541L6.52153 19.0463C6.53325 23.5229 8.35353 27.5697 11.2871 30.5073C14.2324 33.4526 18.2988 35.2768 22.7911 35.2768V35.2729C25.8653 35.2729 28.7403 34.4214 31.1934 32.9409C33.7325 31.4057 35.8145 29.1987 37.2012 26.5698C37.4434 26.1089 38.0098 25.9331 38.4707 26.1753C38.9317 26.4175 39.1074 26.9878 38.8653 27.4448C37.3223 30.3823 34.9942 32.8432 32.1661 34.5542C29.4278 36.2065 26.2208 37.1597 22.7911 37.1597V37.1558C17.7755 37.1558 13.2364 35.1246 9.95506 31.8433C6.72846 28.6167 4.71297 24.1788 4.64267 19.2729ZM40.7987 22.1635L44.576 16.8979C44.8807 16.476 44.783 15.8901 44.3611 15.5854C43.9393 15.2807 43.3533 15.3784 43.0486 15.8002L40.9392 18.7416C40.8689 13.8354 38.8533 9.39783 35.6228 6.17162C32.3376 2.88642 27.7986 0.855225 22.7868 0.855225C19.3571 0.855225 16.1501 1.80834 13.4118 3.46072C10.5837 5.17162 8.25563 7.63263 6.71263 10.5701C6.47044 11.0311 6.64622 11.5974 7.10716 11.8396C7.5681 12.0818 8.13446 11.906 8.37666 11.4451C9.75946 8.81229 11.8455 6.60529 14.3845 5.07399C16.8337 3.59349 19.7087 2.73809 22.7868 2.73809C27.279 2.73809 31.3454 4.55839 34.2908 7.5037C37.2244 10.4373 39.0447 14.4881 39.0525 18.9647L36.6658 15.9569C36.3415 15.5506 35.7517 15.4842 35.3455 15.8046C34.9392 16.1288 34.8689 16.7186 35.1931 17.1249L39.2634 22.246C39.5876 22.6522 40.1775 22.7225 40.5837 22.3983C40.6736 22.3319 40.744 22.2533 40.7987 22.1635Z" fill="#43B0FF"/>
<path fill-rule="evenodd" clip-rule="evenodd" d="M16.0969 19.6555L20.0227 24.7844C20.3391 25.1984 20.929 25.2766 21.343 24.9602C21.4172 24.9055 21.4797 24.8391 21.5305 24.7688L29.4875 14.3738C29.8039 13.9597 29.7258 13.3699 29.3117 13.0535C28.8977 12.737 28.3078 12.8191 27.9914 13.2292L20.7687 22.6589L17.589 18.5066C17.2726 18.0926 16.6828 18.0144 16.2687 18.3309C15.8586 18.6512 15.7805 19.2414 16.0969 19.6555Z" fill="#6B5CA6"/>
</svg>
