<svg width="41" height="37" viewBox="0 0 41 37" fill="none" xmlns="http://www.w3.org/2000/svg">
<path d="M40.7335 32.4767L37.0435 21.7067C37.0835 21.5867 37.1135 21.4667 37.1135 21.3367L36.8635 3.45668C36.8635 1.74668 35.5135 0.34668 33.8635 0.34668H7.86354C6.21354 0.34668 4.86354 1.73668 4.86354 3.45668V21.1767L0.993541 32.4667V32.5067C0.713541 33.4067 0.883541 34.3567 1.45354 35.1067C2.03354 35.8867 2.94354 36.3367 3.93354 36.3367H37.7935C38.7835 36.3367 39.6935 35.8867 40.2735 35.1067C40.8335 34.3567 41.0135 33.4067 40.7335 32.4667V32.4767ZM6.86354 3.45668C6.86354 2.84668 7.31354 2.34668 7.86354 2.34668H33.8635C34.4135 2.34668 34.8635 2.84668 34.8635 3.46668L35.0935 20.3467H6.86354V3.45668ZM38.6735 33.9267C38.4735 34.1967 38.1535 34.3567 37.7935 34.3567H3.93354C3.58354 34.3567 3.25354 34.1967 3.05354 33.9267C2.94354 33.7867 2.78354 33.4967 2.89354 33.1067L6.57354 22.3567H35.1435L38.8135 33.0867C38.9335 33.4767 38.7635 33.7767 38.6635 33.9267H38.6735Z" fill="#43B0FF"/>
<path d="M24.393 30.3467H17.873C17.323 30.3467 16.873 30.7967 16.873 31.3467C16.873 31.8967 17.323 32.3467 17.873 32.3467H24.393C24.943 32.3467 25.393 31.8967 25.393 31.3467C25.393 30.7967 24.943 30.3467 24.393 30.3467Z" fill="#43B0FF"/>
<path d="M23.0034 5.40656C22.4834 5.21656 21.9134 5.48656 21.7234 6.00656L18.1234 16.0066C17.9334 16.5266 18.2034 17.0966 18.7234 17.2866C18.8334 17.3266 18.9534 17.3466 19.0634 17.3466C19.4734 17.3466 19.8534 17.0966 20.0034 16.6866L23.6034 6.68656C23.7934 6.16656 23.5234 5.59656 23.0034 5.40656Z" fill="#7B6FB1"/>
<path d="M17.173 7.41657C16.843 6.96657 16.213 6.87657 15.773 7.20657L11.273 10.5366C11.023 10.7266 10.873 11.0266 10.873 11.3366C10.873 11.6466 11.023 11.9566 11.273 12.1366L15.773 15.4666C15.953 15.5966 16.163 15.6666 16.363 15.6666C16.673 15.6666 16.973 15.5266 17.163 15.2566C17.493 14.8166 17.403 14.1866 16.953 13.8566L13.533 11.3266L16.953 8.79657C17.393 8.46657 17.493 7.83657 17.163 7.39657L17.173 7.41657Z" fill="#7B6FB1"/>
<path d="M25.9635 7.20657C25.5235 6.87657 24.8935 6.96657 24.5635 7.41657C24.2335 7.85657 24.3235 8.48657 24.7735 8.81657L28.1935 11.3466L24.7735 13.8766C24.3335 14.2066 24.2335 14.8366 24.5635 15.2766C24.7635 15.5466 25.0635 15.6866 25.3635 15.6866C25.5735 15.6866 25.7835 15.6266 25.9535 15.4866L30.4535 12.1566C30.7035 11.9666 30.8635 11.6666 30.8635 11.3566C30.8635 11.0466 30.7135 10.7366 30.4535 10.5566L25.9535 7.22657L25.9635 7.20657Z" fill="#7B6FB1"/>
</svg>
