<svg width="46" height="49" viewBox="0 0 46 49" fill="none" xmlns="http://www.w3.org/2000/svg">
<path d="M22.8448 14.3657C18.3787 14.3657 14.7246 18.0198 14.7246 22.4859C14.7246 25.5817 16.4501 28.373 19.1907 29.7433V32.1286C19.1907 32.3823 19.2922 32.5853 19.4445 32.7376L20.9162 34.1586L19.6475 35.3766C19.4952 35.5289 19.3937 35.7319 19.3937 35.9856C19.3937 36.1887 19.4952 36.4424 19.6475 36.5947L20.967 37.8127L19.6475 39.0307C19.4952 39.183 19.3937 39.386 19.3937 39.6397C19.3937 39.8427 19.4952 40.0965 19.6475 40.2487L20.9162 41.4668L19.4445 42.8878C19.2922 43.04 19.1907 43.243 19.1907 43.4968V44.5626C19.1907 44.7656 19.2922 45.0193 19.4445 45.1716L22.2865 48.0136C22.4388 48.1659 22.6418 48.2674 22.8955 48.2674C23.0985 48.2674 23.3523 48.1659 23.5045 48.0136L26.3466 45.1716C26.4988 45.0193 26.6003 44.8163 26.6003 44.5626V29.794C29.3409 28.4237 31.0664 25.6324 31.0664 22.5366C30.9649 18.0198 27.3109 14.3657 22.8448 14.3657ZM25.3823 28.4745C25.0778 28.6268 24.8748 28.9313 24.8748 29.2358V44.2581L22.8448 46.2881L20.8147 44.2581V43.9028L22.6925 42.1265C22.8448 41.9743 22.9463 41.7713 22.9463 41.5175C22.9463 41.2638 22.8448 41.1115 22.6925 40.9592L21.373 39.6905L22.6925 38.4724C22.8448 38.3202 22.9463 38.1172 22.9463 37.8634C22.9463 37.6097 22.8448 37.4067 22.6925 37.2544L21.373 36.0364L22.6925 34.7676C22.8448 34.6154 22.9463 34.4124 22.9463 34.1586C22.9463 33.9049 22.8448 33.7019 22.6925 33.5496L20.8147 31.8241V29.2358C20.8147 28.8805 20.6117 28.576 20.3072 28.4745C17.9219 27.4595 16.3486 25.1249 16.3486 22.4859C16.3486 18.9333 19.2414 15.9898 22.8448 15.9898C26.4481 15.9898 29.3409 18.8826 29.3409 22.4859C29.3409 25.1249 27.7676 27.4595 25.3823 28.4745Z" fill="#7558EA"/>
<path d="M22.844 18.2231C21.2707 18.2231 19.9512 19.5427 19.9512 21.116C19.9512 22.6892 21.2707 24.0088 22.844 24.0088C24.4173 24.0088 25.7368 22.6892 25.7368 21.116C25.7368 19.4919 24.4173 18.2231 22.844 18.2231ZM22.844 22.2832C22.1842 22.2832 21.626 21.725 21.626 21.0652C21.626 20.4054 22.1842 19.8472 22.844 19.8472C23.5037 19.8472 24.062 20.4054 24.062 21.0652C24.062 21.7757 23.5037 22.2832 22.844 22.2832Z" fill="#7558EA"/>
<path d="M3.25413 23.349H10.4608C10.9175 23.349 11.2728 22.9937 11.2728 22.537C11.2728 22.0802 10.9175 21.725 10.4608 21.725H3.25413L4.52291 20.4562C4.82742 20.1517 4.82742 19.5934 4.52291 19.2889C4.2184 18.9844 3.66014 18.9844 3.35564 19.2889L0.615083 22.0295C0.46283 22.1817 0.361328 22.3847 0.361328 22.6385C0.361328 22.8415 0.46283 23.0953 0.615083 23.2475L3.35564 25.9881C3.50789 26.1403 3.71089 26.2418 3.96465 26.2418C4.16765 26.2418 4.37066 26.1403 4.57366 25.9881C4.87817 25.6836 4.87817 25.1253 4.57366 24.8208L3.25413 23.349Z" fill="#6B5CA6"/>
<path d="M45.023 21.9274L42.2824 19.1869C41.9779 18.8824 41.4197 18.8824 41.1151 19.1869C40.8106 19.4914 40.8106 20.0496 41.1151 20.3542L42.3839 21.6229H35.228C34.7713 21.6229 34.416 21.9782 34.416 22.4349C34.416 22.8917 34.7713 23.247 35.228 23.247H42.4347L41.1151 24.668C40.8106 24.9725 40.8106 25.5308 41.1151 25.8353C41.2674 25.9875 41.4704 26.089 41.7242 26.089C41.9272 26.089 42.1302 25.9875 42.3332 25.8353L45.0737 23.0947C45.3275 22.7902 45.3275 22.2827 45.023 21.9274Z" fill="#6B5CA6"/>
<path d="M20.712 4.26656L21.9808 2.99779V10.2044C21.9808 10.6612 22.3361 11.0164 22.7928 11.0164C23.2496 11.0164 23.6048 10.6612 23.6048 10.2044V2.94704L24.8736 4.21581C25.0259 4.36806 25.2289 4.46957 25.4826 4.46957C25.6856 4.46957 25.8886 4.36806 26.0916 4.21581C26.3961 3.91131 26.3961 3.35304 26.0916 3.04854L23.4526 0.358735C23.3003 0.206482 23.0973 0.10498 22.8436 0.10498C22.5898 0.10498 22.3868 0.206482 22.2346 0.358735L19.494 3.09929C19.1895 3.4038 19.1895 3.96206 19.494 4.26656C19.7985 4.57107 20.4075 4.57107 20.712 4.26656Z" fill="#6B5CA6"/>
<path d="M7.56788 11.9304C8.02463 11.9304 8.37989 11.5751 8.37989 11.1183V9.2913L13.455 14.3664C13.6072 14.5187 13.8102 14.6202 14.064 14.6202C14.267 14.6202 14.47 14.5187 14.673 14.3664C14.9775 14.0619 14.9775 13.5036 14.673 13.1991L9.59792 8.12403H11.425C11.8817 8.12403 12.237 7.76878 12.237 7.31202C12.237 6.85526 11.8817 6.5 11.425 6.5H7.56788C7.11112 6.5 6.75586 6.85526 6.75586 7.31202V11.1691C6.75586 11.5751 7.11112 11.9304 7.56788 11.9304Z" fill="#6B5CA6"/>
<path d="M38.1207 33.0931C37.6639 33.0931 37.3086 33.4484 37.3086 33.9052V35.7322L32.2335 30.6571C31.929 30.3526 31.3708 30.3526 31.0663 30.6571C30.7618 30.9616 30.7618 31.5199 31.0663 31.8244L36.1414 36.8995H34.3143C33.8576 36.8995 33.5023 37.2547 33.5023 37.7115C33.5023 38.1682 33.8576 38.5235 34.3143 38.5235H38.1714C38.6282 38.5235 38.9834 38.1682 38.9834 37.7115V33.8544C38.9327 33.4991 38.5774 33.0931 38.1207 33.0931Z" fill="#6B5CA6"/>
<path d="M31.6245 14.6196C31.8275 14.6196 32.0305 14.5181 32.2335 14.3659L37.3086 9.29079V11.1178C37.3086 11.5746 37.6639 11.9298 38.1206 11.9298C38.5774 11.9298 38.9326 11.5746 38.9326 11.1178V7.26075C38.9326 6.80399 38.5774 6.44873 38.1206 6.44873H34.2636C33.8068 6.44873 33.4515 6.80399 33.4515 7.26075C33.4515 7.71751 33.8068 8.07276 34.2636 8.07276H36.0906L31.0155 13.1479C30.711 13.4524 30.711 14.0106 31.0155 14.3151C31.1677 14.5181 31.3707 14.6196 31.6245 14.6196Z" fill="#6B5CA6"/>
<path d="M13.5058 30.7082L8.43067 35.7833V33.9562C8.43067 33.4995 8.07542 33.1442 7.61866 33.1442C7.1619 33.1442 6.80664 33.4995 6.80664 33.9562V37.8133C6.80664 38.2701 7.1619 38.6253 7.61866 38.6253H11.4757C11.9325 38.6253 12.2877 38.2701 12.2877 37.8133C12.2877 37.3566 11.9325 37.0013 11.4757 37.0013H9.6487L14.7238 31.9262C15.0283 31.6217 15.0283 31.0634 14.7238 30.7589C14.3685 30.3529 13.8103 30.3529 13.5058 30.7082Z" fill="#6B5CA6"/>
</svg>
