<svg width="45" height="42" viewBox="0 0 45 42" fill="none" xmlns="http://www.w3.org/2000/svg">
<path d="M22.3364 37.2155C25.4805 37.2155 28.554 36.2831 31.1683 34.5363C33.7825 32.7896 35.8201 30.3068 37.0233 27.402C38.2265 24.4972 38.5413 21.3009 37.9279 18.2172C37.3145 15.1335 35.8005 12.3009 33.5773 10.0777C31.354 7.85443 28.5215 6.34039 25.4377 5.727C22.354 5.11361 19.1577 5.42843 16.2529 6.63163C13.3481 7.83483 10.8654 9.87239 9.11857 12.4866C7.37179 15.1009 6.43945 18.1744 6.43945 21.3185C6.44429 25.5331 8.1207 29.5738 11.1009 32.554C14.0811 35.5342 18.1218 37.2106 22.3364 37.2155ZM8.86374 26.0876H16.2622C16.7121 29.8178 17.6929 33.2229 19.1602 35.2585C16.8117 34.7179 14.6373 33.5943 12.8377 31.9914C11.0381 30.3886 9.67141 28.3581 8.86374 26.0876ZM22.3364 7.01124C24.1359 7.01124 26.0952 10.7566 26.8154 16.5494H17.8574C18.5776 10.7566 20.5369 7.01124 22.3364 7.01124ZM26.9791 18.1391C27.0586 19.151 27.1055 20.2113 27.1055 21.3185C27.1055 22.4257 27.0602 23.4861 26.9791 24.4979H17.6937C17.6142 23.4861 17.5673 22.4257 17.5673 21.3185C17.5673 20.2113 17.6126 19.151 17.6937 18.1391H26.9791ZM36.6437 21.3185C36.6404 22.3888 36.5167 23.4553 36.2749 24.4979H28.5688C28.6483 23.4439 28.6952 22.3764 28.6952 21.3185C28.6952 20.2606 28.6515 19.1931 28.5688 18.1391H36.2788C36.5193 19.1819 36.6417 20.2484 36.6437 21.3185ZM22.3364 35.6258C20.5369 35.6258 18.5776 31.8804 17.8574 26.0876H26.8154C26.0952 31.8804 24.1359 35.6258 22.3364 35.6258ZM16.104 24.4979H8.39796C7.9062 22.4068 7.9062 20.2302 8.39796 18.1391H16.104C16.0245 19.1931 15.9776 20.2606 15.9776 21.3185C15.9776 22.3764 16.0213 23.4439 16.104 24.4979ZM25.5158 35.2585C26.9847 33.2229 27.9639 29.8178 28.4138 26.0876H35.8091C35.0017 28.3577 33.6355 30.3879 31.8365 31.9908C30.0375 33.5936 27.8637 34.7174 25.5158 35.2585ZM35.8091 16.5494H28.4106C27.9607 12.8192 26.9799 9.41407 25.5126 7.37846C27.8611 7.91909 30.0355 9.04271 31.8351 10.6456C33.6347 12.2484 35.0014 14.2789 35.8091 16.5494ZM19.157 7.37846C17.6881 9.41407 16.7089 12.8192 16.259 16.5494H8.86374C9.67112 14.2793 11.0374 12.2491 12.8364 10.6462C14.6353 9.0434 16.8091 7.91956 19.157 7.37846Z" fill="#6B5CA6"/>
<path d="M44.5907 21.3185C44.5907 20.8872 44.4738 20.464 44.2524 20.0939C44.031 19.7238 43.7133 19.4207 43.3332 19.2168C42.9532 19.013 42.5249 18.916 42.0941 18.9363C41.6633 18.9565 41.2461 19.0932 40.8868 19.3319C40.5276 19.5705 40.2398 19.902 40.054 20.2913C39.8683 20.6805 39.7916 21.1128 39.8321 21.5422C39.8726 21.9716 40.0289 22.3819 40.2841 22.7296C40.5394 23.0772 40.8842 23.3491 41.2817 23.5163C40.8543 27.2036 39.3603 30.6861 36.983 33.537C34.6057 36.3878 31.4482 38.4831 27.8977 39.5661C24.3472 40.6491 20.5578 40.6726 16.9941 39.6339C13.4304 38.5951 10.2471 36.5392 7.83452 33.7181C7.76667 33.6388 7.68386 33.5736 7.59082 33.5263C7.49778 33.479 7.39633 33.4504 7.29226 33.4423C7.18819 33.4342 7.08354 33.4466 6.98428 33.479C6.88503 33.5113 6.79311 33.5628 6.71378 33.6307C6.63445 33.6985 6.56926 33.7813 6.52194 33.8744C6.47461 33.9674 6.44607 34.0689 6.43795 34.173C6.42984 34.277 6.44229 34.3817 6.47462 34.4809C6.50694 34.5802 6.5585 34.6721 6.62635 34.7514C9.24549 37.8138 12.7028 40.0437 16.5728 41.1666C20.4428 42.2895 24.5567 42.2565 28.4083 41.0717C32.2598 39.8868 35.6809 37.6018 38.2506 34.4978C40.8203 31.3938 42.4264 27.6063 42.8714 23.6013C43.3661 23.4576 43.801 23.1575 44.1109 22.746C44.4208 22.3345 44.5891 21.8337 44.5907 21.3185ZM42.2117 22.1133H42.2061H42.1982C41.9991 22.1116 41.8089 22.031 41.6691 21.8893C41.5293 21.7476 41.4513 21.5563 41.4522 21.3573C41.4531 21.1582 41.5328 20.9676 41.6739 20.8272C41.8149 20.6868 42.0059 20.6079 42.2049 20.6079C42.404 20.6079 42.5949 20.6868 42.736 20.8272C42.8771 20.9676 42.9567 21.1582 42.9576 21.3573C42.9585 21.5563 42.8806 21.7476 42.7408 21.8893C42.601 22.031 42.4107 22.1116 42.2117 22.1133Z" fill="#43B0FF"/>
<path d="M3.38898 19.1207C3.81642 15.4334 5.31036 11.9509 7.6877 9.10005C10.065 6.2492 13.2225 4.15388 16.773 3.07092C20.3235 1.98795 24.1129 1.9644 27.6766 3.00315C31.2403 4.04189 34.4236 6.0978 36.8362 8.91888C36.9031 9.00123 36.9858 9.06936 37.0794 9.11925C37.1731 9.16913 37.2757 9.19977 37.3814 9.20934C37.4871 9.21892 37.5936 9.20724 37.6947 9.175C37.7957 9.14276 37.8893 9.09061 37.97 9.02162C38.0506 8.95264 38.1165 8.86821 38.164 8.77332C38.2115 8.67843 38.2395 8.575 38.2463 8.46912C38.2532 8.36324 38.2388 8.25706 38.2039 8.15684C38.1691 8.05662 38.1146 7.96439 38.0435 7.88558C35.4244 4.82317 31.967 2.59332 28.0969 1.47043C24.2268 0.347537 20.1129 0.380595 16.2613 1.56554C12.4098 2.75048 8.9887 5.0356 6.41906 8.1397C3.84942 11.2438 2.24335 15.0314 1.79849 19.0365C1.26405 19.1975 0.80366 19.5422 0.498528 20.0096C0.193396 20.477 0.0631306 21.0371 0.13071 21.5912C0.19829 22.1453 0.459373 22.6577 0.867904 23.038C1.27643 23.4184 1.80616 23.6422 2.36365 23.6701C2.92113 23.698 3.47055 23.5281 3.91498 23.1904C4.35942 22.8527 4.67031 22.3689 4.79282 21.8243C4.91533 21.2797 4.84159 20.7094 4.5846 20.2139C4.32762 19.7184 3.9039 19.3295 3.38819 19.116L3.38898 19.1207ZM2.46458 22.1133C2.30737 22.1133 2.15369 22.0667 2.02298 21.9794C1.89227 21.8921 1.79039 21.7679 1.73023 21.6227C1.67007 21.4774 1.65433 21.3176 1.685 21.1634C1.71567 21.0093 1.79137 20.8676 1.90253 20.7565C2.01369 20.6453 2.15532 20.5696 2.30951 20.5389C2.46369 20.5083 2.62351 20.524 2.76875 20.5842C2.91399 20.6443 3.03813 20.7462 3.12547 20.8769C3.21281 21.0076 3.25942 21.1613 3.25942 21.3185C3.25942 21.5293 3.17568 21.7315 3.02662 21.8805C2.87755 22.0296 2.67538 22.1133 2.46458 22.1133Z" fill="#43B0FF"/>
</svg>
