<svg width="45" height="36" viewBox="0 0 45 36" fill="none" xmlns="http://www.w3.org/2000/svg">
<path d="M22.5815 6.28418C19.8371 6.28344 17.1562 7.11059 14.8893 8.65754C12.6223 10.2045 10.8748 12.3993 9.87492 14.9551C8.87508 17.511 8.66946 20.309 9.28495 22.9835C9.90043 25.6581 11.3084 28.0848 13.3248 29.9465V35.892L21.0196 33.4815C21.5379 33.5441 22.0595 33.5754 22.5815 33.5753C26.2005 33.5753 29.6713 32.1376 32.2304 29.5786C34.7894 27.0195 36.227 23.5487 36.227 19.9297C36.227 16.3107 34.7894 12.8399 32.2304 10.2809C29.6713 7.72183 26.2005 6.28418 22.5815 6.28418ZM22.5815 32.0134C22.0593 32.0131 21.5377 31.98 21.0196 31.9145H20.8478L14.8867 33.8095V29.2437L14.616 29.0146C12.4899 27.1494 11.0858 24.5973 10.6483 21.8031C10.2109 19.0088 10.7679 16.1497 12.2222 13.724C13.6765 11.2983 15.936 9.45989 18.6067 8.52918C21.2775 7.59847 24.1901 7.6345 26.837 8.63098C29.4839 9.62746 31.6972 11.5212 33.0911 13.9821C34.485 16.4431 34.9711 19.3151 34.4647 22.0976C33.9583 24.8802 32.4915 27.3968 30.3199 29.2088C28.1483 31.0209 25.4098 32.0134 22.5815 32.0134Z" fill="#43B0FF"/>
<path d="M41.3249 13.9426H41.0073C39.7436 10.0526 37.2808 6.66246 33.9718 4.25823C30.6629 1.854 26.6778 0.559082 22.5876 0.559082C18.4975 0.559082 14.5123 1.854 11.2034 4.25823C7.89448 6.66246 5.43167 10.0526 4.16798 13.9426H4.07427C3.66772 13.9419 3.26502 14.0214 2.88922 14.1765C2.51342 14.3316 2.17189 14.5593 1.88418 14.8465C1.59646 15.1338 1.3682 15.4749 1.21246 15.8504C1.05672 16.226 0.976562 16.6285 0.976563 17.0351V23.2565C0.976563 24.0767 1.30238 24.8633 1.88234 25.4433C2.46229 26.0232 3.24888 26.349 4.06906 26.349H6.67218C7.15503 26.3477 7.61771 26.1553 7.95914 25.8138C8.30057 25.4724 8.49299 25.0097 8.49436 24.5269V15.7648C8.49299 15.2819 8.30057 14.8192 7.95914 14.4778C7.61771 14.1364 7.15503 13.944 6.67218 13.9426H5.82877C7.05926 10.4828 9.33053 7.4888 12.3307 5.37154C15.3309 3.25428 18.913 2.11762 22.585 2.11762C26.2571 2.11762 29.8391 3.25428 32.8393 5.37154C35.8395 7.4888 38.1108 10.4828 39.3413 13.9426H38.7217C38.2385 13.9426 37.775 14.1346 37.4333 14.4763C37.0915 14.818 36.8996 15.2815 36.8996 15.7648V24.5269C36.8996 25.0101 37.0915 25.4736 37.4333 25.8153C37.775 26.1571 38.2385 26.349 38.7217 26.349H41.3249C42.1425 26.3409 42.9244 26.0125 43.5026 25.4343C44.0808 24.8561 44.4092 24.0742 44.4174 23.2565V17.0351C44.4092 16.2174 44.0808 15.4356 43.5026 14.8574C42.9244 14.2792 42.1425 13.9507 41.3249 13.9426ZM6.93249 15.7648V24.5269C6.93249 24.5959 6.90507 24.6621 6.85625 24.7109C6.80743 24.7597 6.74122 24.7872 6.67218 24.7872H4.06906C3.66312 24.7872 3.27379 24.6259 2.98674 24.3389C2.69969 24.0518 2.53843 23.6625 2.53843 23.2565V17.0351C2.53843 16.6291 2.69969 16.2398 2.98674 15.9528C3.27379 15.6657 3.66312 15.5045 4.06906 15.5045H6.67218C6.74031 15.5058 6.80519 15.5339 6.85289 15.5825C6.90059 15.6312 6.9273 15.6966 6.92729 15.7648H6.93249ZM42.8555 23.2565C42.8555 23.6625 42.6942 24.0518 42.4072 24.3389C42.1201 24.6259 41.7308 24.7872 41.3249 24.7872H38.7217C38.6527 24.7872 38.5865 24.7597 38.5377 24.7109C38.4889 24.6621 38.4614 24.5959 38.4614 24.5269V15.7648C38.4614 15.6957 38.4889 15.6295 38.5377 15.5807C38.5865 15.5319 38.6527 15.5045 38.7217 15.5045H41.3249C41.7308 15.5045 42.1201 15.6657 42.4072 15.9528C42.6942 16.2398 42.8555 16.6291 42.8555 17.0351V23.2565Z" fill="#6B5CA6"/>
<path d="M16.2164 17.3425C15.7016 17.3425 15.1983 17.4952 14.7702 17.7812C14.3421 18.0673 14.0085 18.4738 13.8114 18.9495C13.6144 19.4251 13.5629 19.9485 13.6633 20.4535C13.7637 20.9584 14.0117 21.4223 14.3757 21.7863C14.7398 22.1504 15.2036 22.3983 15.7086 22.4987C16.2135 22.5992 16.7369 22.5476 17.2126 22.3506C17.6882 22.1536 18.0948 21.8199 18.3808 21.3919C18.6668 20.9638 18.8195 20.4605 18.8195 19.9456C18.8195 19.6038 18.7522 19.2653 18.6214 18.9495C18.4905 18.6337 18.2988 18.3467 18.0571 18.105C17.8154 17.8632 17.5284 17.6715 17.2126 17.5407C16.8967 17.4099 16.5582 17.3425 16.2164 17.3425ZM16.2164 20.9869C16.0105 20.9869 15.8091 20.9258 15.6379 20.8114C15.4667 20.697 15.3332 20.5344 15.2544 20.3441C15.1756 20.1539 15.155 19.9445 15.1952 19.7425C15.2353 19.5405 15.3345 19.355 15.4801 19.2094C15.6257 19.0638 15.8113 18.9646 16.0133 18.9244C16.2152 18.8842 16.4246 18.9048 16.6149 18.9837C16.8051 19.0625 16.9677 19.1959 17.0822 19.3672C17.1966 19.5384 17.2576 19.7397 17.2576 19.9456C17.259 20.0833 17.2331 20.2198 17.1814 20.3473C17.1297 20.4748 17.0532 20.5909 16.9564 20.6887C16.8596 20.7865 16.7443 20.8641 16.6173 20.9171C16.4903 20.97 16.354 20.9973 16.2164 20.9973V20.9869Z" fill="#43B0FF"/>
<path d="M22.5816 17.3425C22.0668 17.3425 21.5635 17.4952 21.1354 17.7812C20.7073 18.0673 20.3737 18.4738 20.1767 18.9495C19.9796 19.4251 19.9281 19.9485 20.0285 20.4535C20.129 20.9584 20.3769 21.4223 20.741 21.7863C21.105 22.1504 21.5688 22.3983 22.0738 22.4987C22.5787 22.5992 23.1021 22.5476 23.5778 22.3506C24.0535 22.1536 24.46 21.8199 24.746 21.3919C25.0321 20.9638 25.1847 20.4605 25.1847 19.9456C25.1847 19.2553 24.9105 18.5931 24.4223 18.105C23.9341 17.6168 23.272 17.3425 22.5816 17.3425ZM22.5816 20.9869C22.3757 20.9869 22.1744 20.9258 22.0031 20.8114C21.8319 20.697 21.6985 20.5344 21.6196 20.3441C21.5408 20.1539 21.5202 19.9445 21.5604 19.7425C21.6006 19.5405 21.6997 19.355 21.8454 19.2094C21.991 19.0638 22.1765 18.9646 22.3785 18.9244C22.5805 18.8842 22.7898 18.9048 22.9801 18.9837C23.1704 19.0625 23.333 19.1959 23.4474 19.3672C23.5618 19.5384 23.6229 19.7397 23.6229 19.9456C23.6243 20.0833 23.5983 20.2198 23.5466 20.3473C23.4949 20.4748 23.4184 20.5909 23.3216 20.6887C23.2248 20.7865 23.1095 20.8641 22.9825 20.9171C22.8555 20.97 22.7193 20.9973 22.5816 20.9973V20.9869Z" fill="#43B0FF"/>
<path d="M28.9508 17.3425C28.4359 17.3425 27.9326 17.4952 27.5046 17.7812C27.0765 18.0673 26.7428 18.4738 26.5458 18.9495C26.3488 19.4251 26.2972 19.9485 26.3977 20.4535C26.4981 20.9584 26.746 21.4223 27.1101 21.7863C27.4741 22.1504 27.938 22.3983 28.4429 22.4987C28.9479 22.5992 29.4713 22.5476 29.9469 22.3506C30.4226 22.1536 30.8291 21.8199 31.1152 21.3919C31.4012 20.9638 31.5539 20.4605 31.5539 19.9456C31.5539 19.2553 31.2796 18.5931 30.7915 18.105C30.3033 17.6168 29.6412 17.3425 28.9508 17.3425ZM28.9508 20.9869C28.7448 20.9869 28.5435 20.9258 28.3723 20.8114C28.2011 20.697 28.0676 20.5344 27.9888 20.3441C27.91 20.1539 27.8894 19.9445 27.9295 19.7425C27.9697 19.5405 28.0689 19.355 28.2145 19.2094C28.3601 19.0638 28.5457 18.9646 28.7476 18.9244C28.9496 18.8842 29.159 18.9048 29.3492 18.9837C29.5395 19.0625 29.7021 19.1959 29.8165 19.3672C29.931 19.5384 29.992 19.7397 29.992 19.9456C29.9934 20.0833 29.9675 20.2198 29.9158 20.3473C29.8641 20.4748 29.7876 20.5909 29.6908 20.6887C29.5939 20.7865 29.4787 20.8641 29.3517 20.9171C29.2246 20.97 29.0884 20.9973 28.9508 20.9973V20.9869Z" fill="#43B0FF"/>
</svg>
