<svg width="193" height="29" viewBox="0 0 193 29" fill="none" xmlns="http://www.w3.org/2000/svg">
<g clip-path="url(#clip0_1668_3171)">
<path d="M18.1621 21.8457V19.6668H15.5509V22.2853H17.7205L18.6805 23.2218H6.7573V16.0928L7.9861 17.316V19.858H10.9813V16.8764H8.4469L2.7637 11.2382V9.59448H0.670898V11.6778H2.3221L3.8773 13.2259V26.0887H21.5413L23.0581 27.5986V28.8791H24.7861V27.159H23.4997L18.1621 21.8457Z" fill="white"/>
<path d="M28.8178 23.9099L27.5122 22.6294V12.6335L23.4034 8.52427V3.34475H20.5234V5.67649L15.7042 0.860107L7.7554 8.77273L3.205 4.26215V3.30652H1.8418V4.68263H2.7826L6.7954 8.67717L13.8994 15.7297V17.2205H15.8002V15.3093H14.3218L9.7906 10.7987L15.7042 4.91198L24.6514 13.8185V19.7625L15.5698 10.7222V9.61369H14.0146V11.1427H15.1474L22.885 18.8451L24.6514 20.6035L27.5122 23.4703L28.3762 24.3304V26.5857H31.0834V23.9099H28.8178Z" fill="#7558EA"/>
<path d="M47.2306 10.7605V24.6363H44.005V18.9598H37.669V24.6554H34.4434V10.7605H37.669V16.2267H44.005V10.7605H47.2306Z" fill="white"/>
<path d="M52.3758 24.1011C51.4734 23.6233 50.7822 22.9735 50.283 22.1516C49.7838 21.3107 49.5342 20.3742 49.5342 19.323C49.5342 18.2718 49.7838 17.3161 50.283 16.4943C50.7822 15.6533 51.4926 15.0035 52.3758 14.5448C53.2782 14.067 54.2766 13.8376 55.4094 13.8376C56.5422 13.8376 57.5406 14.067 58.443 14.5448C59.3262 15.0226 60.0366 15.6725 60.5358 16.4943C61.035 17.3353 61.2846 18.2718 61.2846 19.323C61.2846 20.3742 61.035 21.3298 60.5358 22.1516C60.0366 22.9926 59.3262 23.6424 58.443 24.1011C57.5598 24.5789 56.5422 24.8083 55.4094 24.8083C54.2766 24.8083 53.2782 24.5598 52.3758 24.1011ZM57.3678 21.4636C57.8862 20.9284 58.1358 20.2022 58.1358 19.3039C58.1358 18.4056 57.8862 17.6793 57.3678 17.1441C56.8494 16.609 56.1966 16.3414 55.4094 16.3414C54.603 16.3414 53.9502 16.609 53.4318 17.1441C52.9134 17.6793 52.6638 18.4056 52.6638 19.3039C52.6638 20.2022 52.9134 20.9284 53.4318 21.4636C53.9502 21.9987 54.603 22.2663 55.4094 22.2663C56.2158 22.2663 56.8686 21.9987 57.3678 21.4636Z" fill="white"/>
<path d="M80.2922 15.0034C81.0794 15.787 81.4825 16.972 81.4825 18.5392V24.6553H78.3722V19.0171C78.3722 18.1761 78.1993 17.5454 77.8345 17.1249C77.4889 16.7044 76.9898 16.4942 76.337 16.4942C75.6074 16.4942 75.0314 16.7235 74.609 17.2014C74.1866 17.6792 73.9753 18.3672 73.9753 19.2846V24.6362H70.865V19.0171C70.865 17.3352 70.193 16.4942 68.8298 16.4942C68.1194 16.4942 67.5434 16.7235 67.121 17.2014C66.6986 17.6792 66.4873 18.3672 66.4873 19.2846V24.6362H63.377V13.9713H66.3338V15.1945C66.737 14.7358 67.217 14.3918 67.793 14.1625C68.369 13.9331 69.0026 13.7993 69.6938 13.7993C70.4426 13.7993 71.1338 13.9522 71.7482 14.2389C72.3626 14.5447 72.8426 14.9652 73.2266 15.5386C73.6681 14.9843 74.225 14.5447 74.897 14.258C75.569 13.9522 76.2986 13.7993 77.105 13.7993C78.4298 13.8184 79.505 14.2007 80.2922 15.0034Z" fill="white"/>
<path d="M94.8271 20.1829H86.7247C86.8783 20.8519 87.2239 21.3679 87.7615 21.7502C88.2991 22.1324 88.9903 22.3235 89.7967 22.3235C90.3535 22.3235 90.8527 22.2471 91.2751 22.0751C91.6975 21.9031 92.1007 21.6546 92.4847 21.2915L94.1359 23.0689C93.1183 24.2157 91.6591 24.7891 89.7199 24.7891C88.5103 24.7891 87.4351 24.5597 86.5135 24.0819C85.5919 23.6041 84.8623 22.9543 84.3631 22.1324C83.8639 21.2915 83.6143 20.3549 83.6143 19.3038C83.6143 18.2526 83.8639 17.316 84.3631 16.4751C84.8623 15.6341 85.5535 14.9843 86.4175 14.5065C87.2815 14.0287 88.2607 13.7993 89.3359 13.7993C90.3919 13.7993 91.3327 14.0287 92.1775 14.4683C93.0223 14.927 93.6943 15.5577 94.1743 16.3986C94.6543 17.2396 94.9039 18.2143 94.9039 19.3229C94.8847 19.3802 94.8655 19.6669 94.8271 20.1829ZM87.5503 16.7427C87.0703 17.144 86.7823 17.6792 86.6671 18.3672H91.9471C91.8319 17.6983 91.5439 17.1631 91.0639 16.7427C90.5839 16.3413 90.0079 16.1311 89.3167 16.1311C88.6255 16.1502 88.0303 16.3604 87.5503 16.7427Z" fill="white"/>
<path d="M97.7842 10.7605H103.467C104.946 10.7605 106.251 11.0472 107.365 11.6397C108.498 12.2322 109.362 13.054 109.995 14.1052C110.629 15.1564 110.936 16.3605 110.936 17.6984C110.936 19.0363 110.629 20.2404 109.995 21.2916C109.362 22.3428 108.498 23.1646 107.365 23.7571C106.232 24.3496 104.927 24.6363 103.467 24.6363H97.7842V10.7605ZM103.391 23.3748C104.619 23.3748 105.675 23.1264 106.597 22.6486C107.519 22.1707 108.229 21.5018 108.728 20.6417C109.227 19.7817 109.477 18.8069 109.477 17.6984C109.477 16.5899 109.227 15.6151 108.728 14.755C108.229 13.895 107.519 13.226 106.597 12.7482C105.675 12.2704 104.619 12.0219 103.391 12.0219H99.2626V23.3748H103.391Z" fill="white"/>
<path d="M122.571 19.8581H113.797C113.874 20.9475 114.296 21.8267 115.045 22.4765C115.794 23.1454 116.754 23.4703 117.906 23.4703C118.558 23.4703 119.154 23.3557 119.691 23.1263C120.229 22.897 120.709 22.5529 121.112 22.1133L121.918 23.0308C121.458 23.585 120.882 24.0055 120.171 24.2922C119.48 24.5789 118.712 24.7318 117.867 24.7318C116.792 24.7318 115.832 24.5024 115.006 24.0437C114.181 23.585 113.528 22.9543 113.067 22.1516C112.606 21.3488 112.376 20.4314 112.376 19.4185C112.376 18.4055 112.606 17.4881 113.048 16.6854C113.49 15.8826 114.104 15.2519 114.872 14.7932C115.64 14.3345 116.523 14.1243 117.483 14.1243C118.443 14.1243 119.326 14.3536 120.094 14.7932C120.862 15.2519 121.477 15.8635 121.899 16.6662C122.341 17.469 122.552 18.3864 122.552 19.4185L122.571 19.8581ZM114.968 16.3031C114.277 16.9529 113.893 17.7748 113.797 18.8069H121.246C121.15 17.7748 120.766 16.9338 120.075 16.3031C119.384 15.6533 118.539 15.3475 117.522 15.3475C116.504 15.3475 115.659 15.6533 114.968 16.3031Z" fill="white"/>
<path d="M125.356 24.3688C124.588 24.1203 123.974 23.8145 123.532 23.4514L124.166 22.3429C124.607 22.6869 125.164 22.9736 125.817 23.1838C126.489 23.3941 127.18 23.5087 127.891 23.5087C128.851 23.5087 129.561 23.3558 130.022 23.0692C130.483 22.7634 130.713 22.3429 130.713 21.8077C130.713 21.4255 130.579 21.1197 130.329 20.9094C130.079 20.6992 129.753 20.5272 129.369 20.4125C128.985 20.2978 128.467 20.1831 127.833 20.0876C126.988 19.9347 126.297 19.7627 125.779 19.6098C125.26 19.4378 124.819 19.1702 124.454 18.7688C124.089 18.3674 123.897 17.8323 123.897 17.1251C123.897 16.2459 124.262 15.5388 124.991 14.9845C125.721 14.4302 126.739 14.1436 128.044 14.1436C128.716 14.1436 129.407 14.2391 130.079 14.4111C130.751 14.5831 131.308 14.8316 131.75 15.1183L131.135 16.2459C130.271 15.6535 129.235 15.3477 128.044 15.3477C127.142 15.3477 126.451 15.5006 126.009 15.8255C125.567 16.1504 125.318 16.5517 125.318 17.0678C125.318 17.4692 125.452 17.775 125.702 18.0234C125.951 18.2528 126.278 18.4439 126.662 18.5586C127.046 18.6732 127.583 18.7879 128.255 18.9026C129.1 19.0555 129.753 19.2275 130.271 19.3804C130.771 19.5333 131.212 19.8009 131.558 20.2023C131.923 20.5845 132.095 21.1197 132.095 21.7886C132.095 22.706 131.711 23.4323 130.943 23.9674C130.175 24.5026 129.119 24.7702 127.756 24.7702C126.95 24.7511 126.143 24.6173 125.356 24.3688Z" fill="white"/>
<path d="M134.206 11.6397C134.014 11.4486 133.898 11.2002 133.898 10.9326C133.898 10.665 133.994 10.4356 134.206 10.2445C134.398 10.0534 134.647 9.93872 134.935 9.93872C135.223 9.93872 135.473 10.0343 135.665 10.2254C135.857 10.4165 135.972 10.6459 135.972 10.9135C135.972 11.2002 135.876 11.4486 135.665 11.6397C135.473 11.8309 135.223 11.9455 134.935 11.9455C134.666 11.9264 134.417 11.8309 134.206 11.6397ZM134.225 14.2199H135.646V24.6554H134.225V14.2199Z" fill="white"/>
<path d="M148.798 14.22V23.375C148.798 25.1524 148.357 26.4521 147.493 27.3122C146.629 28.1722 145.304 28.5927 143.557 28.5927C142.577 28.5927 141.675 28.4589 140.792 28.1722C139.928 27.8855 139.217 27.5033 138.661 26.9872L139.371 25.9169C139.87 26.3756 140.485 26.7197 141.214 26.9681C141.944 27.2166 142.693 27.3504 143.499 27.3504C144.824 27.3504 145.803 27.0446 146.437 26.433C147.07 25.8214 147.377 24.8657 147.377 23.5661V22.2282C146.936 22.8971 146.36 23.3941 145.649 23.7381C144.939 24.0821 144.152 24.2541 143.288 24.2541C142.309 24.2541 141.406 24.0439 140.6 23.6043C139.793 23.1838 139.16 22.5722 138.699 21.8077C138.238 21.0432 138.008 20.164 138.008 19.1702C138.008 18.1954 138.238 17.3163 138.699 16.5517C139.16 15.7872 139.793 15.1947 140.581 14.7743C141.368 14.3538 142.27 14.1436 143.269 14.1436C144.152 14.1436 144.958 14.3156 145.688 14.6787C146.398 15.0418 146.974 15.5579 147.416 16.2268V14.22H148.798ZM145.496 22.5149C146.11 22.19 146.59 21.7313 146.917 21.1579C147.262 20.5845 147.416 19.9156 147.416 19.1702C147.416 18.4248 147.243 17.775 146.917 17.2016C146.59 16.6282 146.11 16.1695 145.496 15.8446C144.901 15.5197 144.209 15.3668 143.441 15.3668C142.693 15.3668 142.001 15.5197 141.406 15.8446C140.811 16.1695 140.331 16.6091 139.985 17.2016C139.64 17.775 139.486 18.4439 139.486 19.1893C139.486 19.9347 139.659 20.5845 139.985 21.177C140.331 21.7504 140.792 22.2091 141.406 22.534C142.001 22.8589 142.693 23.0118 143.441 23.0118C144.19 23.0118 144.881 22.8398 145.496 22.5149Z" fill="white"/>
<path d="M160.741 15.2707C161.509 16.0352 161.912 17.1437 161.912 18.5963V24.655H160.492V18.73C160.492 17.6406 160.223 16.8188 159.666 16.2454C159.128 15.672 158.341 15.3853 157.343 15.3853C156.21 15.3853 155.327 15.7103 154.655 16.3792C154.002 17.0481 153.676 17.9655 153.676 19.1505V24.6167H152.255V14.2195H153.618V16.1498C154.002 15.5191 154.54 15.0222 155.231 14.6782C155.922 14.3341 156.709 14.143 157.612 14.143C158.917 14.1239 159.973 14.5062 160.741 15.2707Z" fill="white"/>
<path d="M165.618 24.3688C164.85 24.1203 164.236 23.8145 163.794 23.4514L164.428 22.3429C164.869 22.6869 165.426 22.9736 166.079 23.1838C166.751 23.3941 167.442 23.5087 168.152 23.5087C169.112 23.5087 169.823 23.3558 170.284 23.0692C170.744 22.7634 170.975 22.3429 170.975 21.8077C170.975 21.4255 170.84 21.1197 170.591 20.9094C170.341 20.6992 170.015 20.5272 169.631 20.4125C169.247 20.2978 168.728 20.1831 168.095 20.0876C167.25 19.9347 166.559 19.7627 166.04 19.6098C165.522 19.4378 165.08 19.1702 164.716 18.7688C164.351 18.3674 164.159 17.8323 164.159 17.1251C164.159 16.2459 164.524 15.5388 165.253 14.9845C165.983 14.4302 167 14.1436 168.306 14.1436C168.978 14.1436 169.669 14.2391 170.341 14.4111C171.013 14.5831 171.57 14.8316 172.012 15.1183L171.397 16.2459C170.533 15.6535 169.496 15.3477 168.306 15.3477C167.404 15.3477 166.712 15.5006 166.271 15.8255C165.829 16.1504 165.58 16.5517 165.58 17.0678C165.58 17.4692 165.714 17.775 165.964 18.0234C166.213 18.2528 166.54 18.4439 166.924 18.5586C167.308 18.6732 167.845 18.7879 168.517 18.9026C169.362 19.0555 170.015 19.2275 170.533 19.3804C171.032 19.5333 171.474 19.8009 171.82 20.2023C172.184 20.5845 172.357 21.1197 172.357 21.7886C172.357 22.706 171.973 23.4323 171.205 23.9674C170.437 24.5026 169.381 24.7702 168.018 24.7702C167.212 24.7511 166.405 24.6173 165.618 24.3688Z" fill="white"/>
<path d="M183.359 21.674H176.889L175.66 24.6556H172.357L178.578 10.7798H181.765L188.005 24.6556H184.607L183.359 21.674ZM182.341 19.2276L180.133 13.9143L177.925 19.2276H182.341Z" fill="#7558EA"/>
<path d="M189.445 10.7607H192.671V24.6365H189.445V10.7607Z" fill="#7558EA"/>
</g>
<defs>
<clipPath id="clip0_1668_3171">
<rect width="192" height="28" fill="white" transform="translate(0.670898 0.91748)"/>
</clipPath>
</defs>
</svg>
