<svg width="26" height="26" viewBox="0 0 26 26" fill="none" xmlns="http://www.w3.org/2000/svg">
<path d="M11.8002 0.491211C13.2507 1.1308 14.3767 2.05855 15.5912 3.0733C15.8313 3.26919 16.0713 3.46509 16.3187 3.66692C17.377 4.53165 18.4276 5.40548 19.4771 6.28125C20.4041 7.00274 21.2613 7.37846 22.3557 7.77829C23.1522 8.58411 22.8535 10.2083 22.8842 11.3007C23.1472 12.588 23.4743 13.1826 24.1572 14.2681C25.4552 16.5095 25.3683 18.5494 25.2654 21.0881C25.2564 21.5134 25.2474 21.9387 25.2382 22.3768C25.215 23.4152 25.1793 24.4533 25.141 25.4912C23.8279 25.4912 22.5148 25.4912 21.162 25.4912C20.965 24.2956 20.965 24.2956 20.764 23.0758C20.5365 23.0785 20.309 23.0812 20.0745 23.0839C17.7122 23.1106 15.3499 23.1289 12.9875 23.1422C12.1052 23.1482 11.2228 23.1565 10.3405 23.1669C9.07427 23.1815 7.8082 23.1884 6.54191 23.1938C5.94751 23.2031 5.94751 23.2031 5.3411 23.2126C4.79151 23.2128 4.79151 23.2128 4.23081 23.2129C3.74571 23.2169 3.74571 23.2169 3.25081 23.221C2.98992 23.1731 2.72903 23.1252 2.46023 23.0758C1.66441 21.8681 1.66441 21.8681 1.73902 21.0127C1.89905 20.639 1.89905 20.639 2.06232 20.2578C2.65322 20.0586 2.65322 20.0586 3.25605 19.8553C3.25605 17.1983 3.25605 14.5414 3.25605 11.804C2.46819 11.6711 1.68033 11.5383 0.868593 11.4014C0.470684 10.9988 0.470684 10.9988 0.318359 9.88547C0.470684 8.58342 0.470684 8.58342 1.31935 7.60846C1.71225 7.29917 2.10516 6.98989 2.50997 6.67123C2.72133 6.50372 2.93269 6.3362 3.15045 6.1636C3.60461 5.80728 4.06188 5.45498 4.52186 5.10637C5.2657 4.54252 5.99905 3.96621 6.73309 3.38937C7.22296 3.01459 7.7136 2.64083 8.20504 2.26816C8.43515 2.08848 8.66527 1.9088 8.90235 1.72368C9.87539 1.0083 10.5824 0.541815 11.8002 0.491211ZM8.20504 3.75263C7.95903 3.95232 7.71301 4.15201 7.45954 4.35775C6.95924 4.76424 6.45991 5.17195 5.96156 5.58088C5.30817 6.11671 4.65218 6.64893 3.99436 7.17916C3.0834 7.91355 2.17422 8.65007 1.2665 9.38856C1.39781 9.7871 1.52912 10.1856 1.66441 10.5963C3.56562 10.4163 4.64305 9.50001 6.01654 8.25634C10.1373 4.59299 10.1373 4.59299 11.7862 4.50744C12.8188 4.96609 13.3177 5.41627 14.1239 6.19319C15.2164 7.2132 15.8626 7.54004 17.357 7.52669C18.0586 7.45196 18.0586 7.45196 18.7745 7.37572C17.3847 5.91519 15.9514 4.65153 14.3478 3.42554C13.9364 3.10744 13.525 2.78933 13.1012 2.46158C10.9517 1.03968 9.92791 2.32759 8.20504 3.75263ZM9.32105 6.49354C9.03945 6.72784 8.75786 6.96214 8.46772 7.20353C8.17587 7.45132 7.88401 7.69911 7.58331 7.95441C7.28837 8.20065 6.99344 8.44688 6.68957 8.70058C5.3343 9.8085 5.3343 9.8085 4.05187 10.9988C4.01725 11.6569 4.00929 12.3165 4.01301 12.9755C4.014 13.3341 4.01499 13.6927 4.01602 14.0622C4.01964 14.5209 4.02326 14.9796 4.027 15.4522C4.0352 16.9052 4.04341 18.3582 4.05187 19.8553C7.33462 19.8553 10.6174 19.8553 13.9996 19.8553C13.9996 19.191 13.9996 18.5268 13.9996 17.8425C13.7124 17.9836 13.4251 18.1248 13.1292 18.2702C11.4772 18.8273 10.5402 18.4704 8.97599 17.7921C7.72572 16.7935 7.19093 15.7586 6.83723 14.2194C6.74781 12.8702 6.76476 11.5433 6.83723 10.1937C7.45515 9.84287 8.07785 9.50066 8.70243 9.16211C9.04866 8.97063 9.39488 8.77914 9.7516 8.58185C11.3709 7.97197 12.411 8.45028 13.9996 8.98599C14.1309 8.4546 14.2622 7.92322 14.3975 7.37572C14.0282 7.04361 13.6589 6.71149 13.2784 6.36931C13.0706 6.18249 12.8629 5.99568 12.6489 5.8032C11.2586 4.84496 10.4461 5.54844 9.32105 6.49354ZM15.1933 8.58342C15.1933 9.51335 15.1933 10.4433 15.1933 11.4014C15.4724 11.2685 15.7514 11.1357 16.0389 10.9988C17.6225 10.4415 18.9088 10.343 20.4905 10.9485C21.162 11.4014 21.162 11.4014 21.5599 12.2065C21.2972 12.2065 21.0346 12.2065 20.764 12.2065C20.764 12.6051 20.764 13.0036 20.764 13.4142C20.5014 13.4142 20.2388 13.4142 19.9682 13.4142C19.9682 13.6799 19.9682 13.9456 19.9682 14.2194C19.7056 14.2194 19.443 14.2194 19.1724 14.2194C19.0411 14.6179 18.9098 15.0164 18.7745 15.4271C18.5119 15.4271 18.2493 15.4271 17.9787 15.4271C17.5808 14.7561 17.1829 14.0852 16.785 13.4142C16.5223 13.4142 16.2597 13.4142 15.9891 13.4142C15.9891 13.0157 15.9891 12.6171 15.9891 12.2065C15.7265 12.2065 15.4639 12.2065 15.1933 12.2065C15.1933 14.8635 15.1933 17.5204 15.1933 20.2578C16.3751 20.2578 17.5569 20.2578 18.7745 20.2578C18.5119 19.8593 18.2493 19.4608 17.9787 19.0501C17.9289 17.9683 17.9289 17.9683 17.9787 17.0373C18.6253 16.7354 18.6253 16.7354 19.5703 16.6348C20.3795 17.1507 21.1767 17.6865 21.9578 18.245C21.9693 16.7102 21.9764 15.1755 21.9826 13.6407C21.986 13.2024 21.9893 12.7642 21.9927 12.3127C21.994 11.8962 21.9953 11.4798 21.9966 11.0507C21.9987 10.6649 22.0008 10.2791 22.0029 9.88164C22.0575 8.99692 22.0575 8.99692 21.5599 8.58342C20.4869 8.55396 19.4243 8.54622 18.3517 8.55826C17.8989 8.56099 17.8989 8.56099 17.437 8.56377C16.6891 8.56853 15.9412 8.57575 15.1933 8.58342ZM9.15008 9.79112C8.8654 9.94058 8.58072 10.09 8.28742 10.244C7.96351 10.4184 7.96351 10.4184 7.63305 10.5963C7.48949 12.6376 7.40943 14.1694 8.32939 16.0309C9.39218 17.2434 9.39218 17.2434 10.8163 17.8425C12.2046 17.7054 12.8171 17.4323 13.9996 16.6348C13.9996 16.3691 13.9996 16.1034 13.9996 15.8296C12.2926 15.8296 10.5855 15.8296 8.82677 15.8296C9.14147 12.0727 9.14147 12.0727 10.4184 10.5963C11.4132 10.3447 11.4132 10.3447 12.408 10.5963C13.1043 11.6027 13.1043 11.6027 13.6017 12.6091C13.733 12.6091 13.8643 12.6091 13.9996 12.6091C14.1657 11.4523 14.1657 11.4523 13.9996 10.1937C12.2417 8.75171 11.0892 8.76196 9.15008 9.79112ZM10.8163 11.4014C10.8163 11.6671 10.8163 11.9328 10.8163 12.2065C11.2102 12.2065 11.6042 12.2065 12.01 12.2065C12.01 11.9408 12.01 11.6751 12.01 11.4014C11.6161 11.4014 11.2222 11.4014 10.8163 11.4014ZM10.0205 13.0117C10.0205 13.6759 10.0205 14.3401 10.0205 15.0245C10.2831 15.0245 10.5457 15.0245 10.8163 15.0245C10.8163 14.3603 10.8163 13.696 10.8163 13.0117C10.5537 13.0117 10.2911 13.0117 10.0205 13.0117ZM12.01 13.0117C12.01 13.6759 12.01 14.3401 12.01 15.0245C12.2727 15.0245 12.5353 15.0245 12.8059 15.0245C12.8059 14.3603 12.8059 13.696 12.8059 13.0117C12.5432 13.0117 12.2806 13.0117 12.01 13.0117ZM22.7536 15.0245C22.7536 16.4858 22.7536 17.9471 22.7536 19.4527C20.5154 18.5469 20.5154 18.5469 19.5703 17.4399C19.1764 17.5727 18.7825 17.7056 18.3766 17.8425C18.5351 18.0376 18.6936 18.2327 18.8569 18.4337C20.3298 20.319 21.231 21.996 21.9578 24.2835C22.7456 24.2835 23.5335 24.2835 24.3452 24.2835C24.3775 23.1175 24.4012 21.9524 24.4198 20.7862C24.4348 20.2931 24.4348 20.2931 24.4501 19.79C24.4732 17.8667 24.3999 16.5865 23.1515 15.0245C23.0202 15.0245 22.8889 15.0245 22.7536 15.0245ZM3.25605 20.6604C3.12474 21.059 2.99343 21.4575 2.85814 21.8681C8.50447 21.8681 14.1508 21.8681 19.9682 21.8681C19.9682 21.6024 19.9682 21.3367 19.9682 21.063C14.4151 20.4716 8.83148 20.6223 3.25605 20.6604Z" fill="#77849E"/>
</svg>
