<svg width="239" height="49" viewBox="0 0 239 49" fill="none" xmlns="http://www.w3.org/2000/svg">
<g filter="url(#filter0_ii_2030_6609)">
<path d="M0.230469 14.0586C0.230469 6.32661 6.49848 0.0585938 14.2305 0.0585938H224.23C231.962 0.0585938 238.23 6.32661 238.23 14.0586V34.0586C238.23 41.7906 231.962 48.0586 224.23 48.0586H14.2305C6.49848 48.0586 0.230469 41.7906 0.230469 34.0586V14.0586Z" fill="url(#paint0_linear_2030_6609)" fill-opacity="0.16"/>
<g clip-path="url(#clip0_2030_6609)">
<path d="M51.9336 22.2402V26.113H57.4253C57.1841 27.3584 56.4605 28.413 55.3751 29.1221L58.6868 31.6403C60.6163 29.8949 61.7295 27.3313 61.7295 24.2858C61.7295 23.5767 61.6646 22.8948 61.544 22.2403L51.9336 22.2402Z" fill="#4285F4"/>
<path d="M46.215 25.9619L45.4681 26.5222L42.8242 28.5404C44.5033 31.804 47.9446 34.0586 51.9334 34.0586C54.6885 34.0586 56.9983 33.1677 58.6867 31.6404L55.375 29.1222C54.4659 29.7222 53.3063 30.0859 51.9334 30.0859C49.2804 30.0859 47.0263 28.3314 46.2191 25.9677L46.215 25.9619Z" fill="#34A853"/>
<path d="M42.825 19.5771C42.1293 20.9226 41.7305 22.4408 41.7305 24.0589C41.7305 25.6771 42.1293 27.1953 42.825 28.5407C42.825 28.5497 46.2203 25.9589 46.2203 25.9589C46.0162 25.3589 45.8956 24.7226 45.8956 24.0588C45.8956 23.3951 46.0162 22.7588 46.2203 22.1588L42.825 19.5771Z" fill="#FBBC05"/>
<path d="M51.9337 18.0404C53.4365 18.0404 54.7723 18.5495 55.8391 19.5313L58.7611 16.6677C56.9893 15.0496 54.6888 14.0586 51.9337 14.0586C47.9448 14.0586 44.5033 16.3041 42.8242 19.5768L46.2194 22.1586C47.0264 19.795 49.2806 18.0404 51.9337 18.0404Z" fill="#EA4335"/>
</g>
<path d="M74.5465 31.2506C73.7038 31.2506 72.9198 31.1013 72.1945 30.8026C71.4691 30.4933 70.8398 30.0613 70.3065 29.5066C69.7731 28.9519 69.3571 28.3013 69.0585 27.5546C68.7598 26.7973 68.6105 25.9759 68.6105 25.0906C68.6105 24.2053 68.7545 23.3893 69.0425 22.6426C69.3411 21.8853 69.7518 21.2346 70.2745 20.6906C70.8078 20.1359 71.4318 19.7093 72.1465 19.4106C72.8718 19.1013 73.6611 18.9466 74.5145 18.9466C75.3465 18.9466 76.0985 19.0906 76.7705 19.3786C77.4425 19.6666 78.0078 20.0453 78.4665 20.5146C78.9251 20.9733 79.2558 21.4746 79.4585 22.0186L77.7785 22.8346C77.5331 22.1733 77.1278 21.6453 76.5625 21.2506C75.9971 20.8559 75.3145 20.6586 74.5145 20.6586C73.7251 20.6586 73.0265 20.8453 72.4185 21.2186C71.8211 21.5919 71.3518 22.1093 71.0105 22.7706C70.6691 23.4319 70.4985 24.2053 70.4985 25.0906C70.4985 25.9759 70.6691 26.7546 71.0105 27.4266C71.3625 28.0879 71.8425 28.6053 72.4505 28.9786C73.0585 29.3413 73.7571 29.5226 74.5465 29.5226C75.2078 29.5226 75.8105 29.3893 76.3545 29.1226C76.9091 28.8453 77.3518 28.4613 77.6825 27.9706C78.0131 27.4693 78.1785 26.8879 78.1785 26.2266V26.1786H74.5145V24.5786H80.0505V25.6986C80.0505 26.5733 79.9011 27.3573 79.6025 28.0506C79.3038 28.7333 78.8931 29.3146 78.3705 29.7946C77.8585 30.2746 77.2718 30.6373 76.6105 30.8826C75.9598 31.1279 75.2718 31.2506 74.5465 31.2506ZM86.1281 31.2506C85.2961 31.2506 84.5334 31.0533 83.8401 30.6586C83.1574 30.2639 82.6134 29.7253 82.2081 29.0426C81.8028 28.3599 81.6001 27.5866 81.6001 26.7226C81.6001 25.8479 81.7974 25.0746 82.1921 24.4026C82.5974 23.7199 83.1414 23.1866 83.8241 22.8026C84.5174 22.4079 85.2854 22.2106 86.1281 22.2106C86.9708 22.2106 87.7334 22.4079 88.4161 22.8026C89.0988 23.1866 89.6374 23.7199 90.0321 24.4026C90.4374 25.0746 90.6401 25.8479 90.6401 26.7226C90.6401 27.5973 90.4374 28.3759 90.0321 29.0586C89.6268 29.7413 89.0828 30.2799 88.4001 30.6746C87.7174 31.0586 86.9601 31.2506 86.1281 31.2506ZM86.1281 29.5706C86.6294 29.5706 87.0774 29.4479 87.4721 29.2026C87.8774 28.9573 88.1921 28.6213 88.4161 28.1946C88.6508 27.7573 88.7681 27.2666 88.7681 26.7226C88.7681 26.1786 88.6508 25.6933 88.4161 25.2666C88.1921 24.8399 87.8774 24.5039 87.4721 24.2586C87.0774 24.0133 86.6294 23.8906 86.1281 23.8906C85.6268 23.8906 85.1734 24.0133 84.7681 24.2586C84.3734 24.5039 84.0588 24.8399 83.8241 25.2666C83.6001 25.6933 83.4881 26.1786 83.4881 26.7226C83.4881 27.2666 83.6001 27.7573 83.8241 28.1946C84.0588 28.6213 84.3734 28.9573 84.7681 29.2026C85.1734 29.4479 85.6268 29.5706 86.1281 29.5706ZM96.7312 31.2506C95.8992 31.2506 95.1366 31.0533 94.4432 30.6586C93.7606 30.2639 93.2166 29.7253 92.8112 29.0426C92.4059 28.3599 92.2032 27.5866 92.2032 26.7226C92.2032 25.8479 92.4006 25.0746 92.7952 24.4026C93.2006 23.7199 93.7446 23.1866 94.4272 22.8026C95.1206 22.4079 95.8886 22.2106 96.7312 22.2106C97.5739 22.2106 98.3366 22.4079 99.0192 22.8026C99.7019 23.1866 100.241 23.7199 100.635 24.4026C101.041 25.0746 101.243 25.8479 101.243 26.7226C101.243 27.5973 101.041 28.3759 100.635 29.0586C100.23 29.7413 99.6859 30.2799 99.0032 30.6746C98.3206 31.0586 97.5632 31.2506 96.7312 31.2506ZM96.7312 29.5706C97.2326 29.5706 97.6806 29.4479 98.0752 29.2026C98.4806 28.9573 98.7952 28.6213 99.0192 28.1946C99.2539 27.7573 99.3712 27.2666 99.3712 26.7226C99.3712 26.1786 99.2539 25.6933 99.0192 25.2666C98.7952 24.8399 98.4806 24.5039 98.0752 24.2586C97.6806 24.0133 97.2326 23.8906 96.7312 23.8906C96.2299 23.8906 95.7766 24.0133 95.3712 24.2586C94.9766 24.5039 94.6619 24.8399 94.4272 25.2666C94.2032 25.6933 94.0912 26.1786 94.0912 26.7226C94.0912 27.2666 94.2032 27.7573 94.4272 28.1946C94.6619 28.6213 94.9766 28.9573 95.3712 29.2026C95.7766 29.4479 96.2299 29.5706 96.7312 29.5706ZM107.334 34.5786C106.385 34.5786 105.553 34.3546 104.838 33.9066C104.124 33.4693 103.628 32.8933 103.35 32.1786L105.014 31.4906C105.164 31.8959 105.436 32.2319 105.83 32.4986C106.236 32.7653 106.732 32.8986 107.318 32.8986C108.012 32.8986 108.588 32.7013 109.046 32.3066C109.505 31.9226 109.734 31.3733 109.734 30.6586V29.5546C109.425 29.9493 109.036 30.2533 108.566 30.4666C108.097 30.6693 107.585 30.7706 107.03 30.7706C106.22 30.7706 105.494 30.5839 104.854 30.2106C104.225 29.8266 103.724 29.3146 103.35 28.6746C102.988 28.0239 102.806 27.2933 102.806 26.4826C102.806 25.6719 102.988 24.9466 103.35 24.3066C103.713 23.6559 104.209 23.1439 104.838 22.7706C105.478 22.3973 106.204 22.2106 107.014 22.2106C108.198 22.2106 109.132 22.6479 109.814 23.5226V22.4026H111.526V30.6586C111.526 31.4159 111.345 32.0879 110.982 32.6746C110.63 33.2719 110.14 33.7359 109.51 34.0666C108.881 34.4079 108.156 34.5786 107.334 34.5786ZM107.238 29.0906C107.718 29.0906 108.145 28.9786 108.518 28.7546C108.892 28.5199 109.185 28.2106 109.398 27.8266C109.622 27.4319 109.734 26.9893 109.734 26.4986C109.734 26.0079 109.622 25.5653 109.398 25.1706C109.185 24.7759 108.886 24.4666 108.502 24.2426C108.129 24.0079 107.708 23.8906 107.238 23.8906C106.748 23.8906 106.31 24.0079 105.926 24.2426C105.542 24.4666 105.238 24.7759 105.014 25.1706C104.801 25.5653 104.694 26.0079 104.694 26.4986C104.694 26.9786 104.801 27.4159 105.014 27.8106C105.238 28.2053 105.542 28.5199 105.926 28.7546C106.31 28.9786 106.748 29.0906 107.238 29.0906ZM113.793 31.0586V18.9466H115.601V31.0586H113.793ZM121.929 31.2506C121.065 31.2506 120.302 31.0533 119.641 30.6586C118.979 30.2533 118.457 29.7093 118.073 29.0266C117.699 28.3333 117.513 27.5599 117.513 26.7066C117.513 25.8426 117.699 25.0746 118.073 24.4026C118.446 23.7199 118.953 23.1866 119.593 22.8026C120.243 22.4079 120.974 22.2106 121.785 22.2106C122.659 22.2106 123.401 22.4079 124.009 22.8026C124.627 23.1866 125.097 23.6986 125.417 24.3386C125.747 24.9679 125.913 25.6559 125.913 26.4026C125.913 26.5413 125.907 26.6853 125.897 26.8346C125.886 26.9839 125.865 27.1226 125.833 27.2506H119.401C119.454 27.9866 119.721 28.5733 120.201 29.0106C120.681 29.4373 121.262 29.6506 121.945 29.6506C122.467 29.6506 122.91 29.5333 123.273 29.2986C123.646 29.0533 123.939 28.7493 124.153 28.3866L125.625 29.1066C125.358 29.7253 124.894 30.2373 124.233 30.6426C123.582 31.0479 122.814 31.2506 121.929 31.2506ZM121.785 23.7306C121.198 23.7306 120.686 23.9119 120.249 24.2746C119.811 24.6373 119.539 25.1493 119.433 25.8106H123.993C123.961 25.1919 123.737 24.6906 123.321 24.3066C122.905 23.9226 122.393 23.7306 121.785 23.7306ZM129.894 31.0586L134.086 19.1386H136.422L140.614 31.0586H138.598L137.686 28.3866H132.838L131.91 31.0586H129.894ZM133.382 26.7066H137.11L135.254 21.2346L133.382 26.7066ZM145.802 31.2506C144.938 31.2506 144.17 31.0533 143.498 30.6586C142.826 30.2533 142.298 29.7093 141.914 29.0266C141.53 28.3439 141.338 27.5706 141.338 26.7066C141.338 25.8426 141.53 25.0746 141.914 24.4026C142.298 23.7199 142.826 23.1866 143.498 22.8026C144.17 22.4079 144.938 22.2106 145.802 22.2106C146.388 22.2106 146.938 22.3119 147.45 22.5146C147.962 22.7173 148.404 23.0053 148.778 23.3786C149.162 23.7413 149.444 24.1626 149.626 24.6426L148.042 25.3786C147.86 24.9306 147.572 24.5733 147.178 24.3066C146.783 24.0293 146.324 23.8906 145.802 23.8906C145.311 23.8906 144.868 24.0133 144.474 24.2586C144.09 24.5039 143.786 24.8399 143.562 25.2666C143.338 25.6826 143.226 26.1679 143.226 26.7226C143.226 27.2666 143.338 27.7573 143.562 28.1946C143.786 28.6213 144.09 28.9573 144.474 29.2026C144.868 29.4479 145.311 29.5706 145.802 29.5706C146.324 29.5706 146.778 29.4373 147.162 29.1706C147.556 28.8933 147.85 28.5253 148.042 28.0666L149.626 28.8186C149.455 29.2773 149.178 29.6933 148.794 30.0666C148.42 30.4293 147.978 30.7173 147.466 30.9306C146.954 31.1439 146.399 31.2506 145.802 31.2506ZM155.655 31.2506C154.791 31.2506 154.023 31.0533 153.351 30.6586C152.679 30.2533 152.151 29.7093 151.767 29.0266C151.383 28.3439 151.191 27.5706 151.191 26.7066C151.191 25.8426 151.383 25.0746 151.767 24.4026C152.151 23.7199 152.679 23.1866 153.351 22.8026C154.023 22.4079 154.791 22.2106 155.655 22.2106C156.241 22.2106 156.791 22.3119 157.303 22.5146C157.815 22.7173 158.257 23.0053 158.631 23.3786C159.015 23.7413 159.297 24.1626 159.479 24.6426L157.895 25.3786C157.713 24.9306 157.425 24.5733 157.031 24.3066C156.636 24.0293 156.177 23.8906 155.655 23.8906C155.164 23.8906 154.721 24.0133 154.327 24.2586C153.943 24.5039 153.639 24.8399 153.415 25.2666C153.191 25.6826 153.079 26.1679 153.079 26.7226C153.079 27.2666 153.191 27.7573 153.415 28.1946C153.639 28.6213 153.943 28.9573 154.327 29.2026C154.721 29.4479 155.164 29.5706 155.655 29.5706C156.177 29.5706 156.631 29.4373 157.015 29.1706C157.409 28.8933 157.703 28.5253 157.895 28.0666L159.479 28.8186C159.308 29.2773 159.031 29.6933 158.647 30.0666C158.273 30.4293 157.831 30.7173 157.319 30.9306C156.807 31.1439 156.252 31.2506 155.655 31.2506ZM165.572 31.2506C164.74 31.2506 163.977 31.0533 163.284 30.6586C162.601 30.2639 162.057 29.7253 161.652 29.0426C161.247 28.3599 161.044 27.5866 161.044 26.7226C161.044 25.8479 161.241 25.0746 161.636 24.4026C162.041 23.7199 162.585 23.1866 163.268 22.8026C163.961 22.4079 164.729 22.2106 165.572 22.2106C166.415 22.2106 167.177 22.4079 167.86 22.8026C168.543 23.1866 169.081 23.7199 169.476 24.4026C169.881 25.0746 170.084 25.8479 170.084 26.7226C170.084 27.5973 169.881 28.3759 169.476 29.0586C169.071 29.7413 168.527 30.2799 167.844 30.6746C167.161 31.0586 166.404 31.2506 165.572 31.2506ZM165.572 29.5706C166.073 29.5706 166.521 29.4479 166.916 29.2026C167.321 28.9573 167.636 28.6213 167.86 28.1946C168.095 27.7573 168.212 27.2666 168.212 26.7226C168.212 26.1786 168.095 25.6933 167.86 25.2666C167.636 24.8399 167.321 24.5039 166.916 24.2586C166.521 24.0133 166.073 23.8906 165.572 23.8906C165.071 23.8906 164.617 24.0133 164.212 24.2586C163.817 24.5039 163.503 24.8399 163.268 25.2666C163.044 25.6933 162.932 26.1786 162.932 26.7226C162.932 27.2666 163.044 27.7573 163.268 28.1946C163.503 28.6213 163.817 28.9573 164.212 29.2026C164.617 29.4479 165.071 29.5706 165.572 29.5706ZM175.087 31.2506C174.436 31.2506 173.866 31.1066 173.375 30.8186C172.884 30.5199 172.5 30.1093 172.223 29.5866C171.956 29.0533 171.823 28.4399 171.823 27.7466V22.4026H173.631V27.5866C173.631 28.1839 173.807 28.6639 174.159 29.0266C174.522 29.3893 174.98 29.5706 175.535 29.5706C176.1 29.5706 176.564 29.3839 176.927 29.0106C177.29 28.6373 177.471 28.1359 177.471 27.5066V22.4026H179.263V31.0586H177.551V29.9866C177.306 30.3919 176.97 30.7066 176.543 30.9306C176.116 31.1439 175.631 31.2506 175.087 31.2506ZM181.524 31.0586V22.4026H183.252V23.4586C183.497 23.0533 183.833 22.7439 184.26 22.5306C184.687 22.3173 185.167 22.2106 185.7 22.2106C186.329 22.2106 186.889 22.3493 187.38 22.6266C187.871 22.9039 188.255 23.2879 188.532 23.7786C188.82 24.2586 188.964 24.8186 188.964 25.4586V31.0586H187.172V25.9546C187.172 25.3146 186.991 24.8133 186.628 24.4506C186.276 24.0773 185.817 23.8906 185.252 23.8906C184.697 23.8906 184.239 24.0773 183.876 24.4506C183.513 24.8133 183.332 25.3146 183.332 25.9546V31.0586H181.524ZM194.793 31.1546C193.886 31.1546 193.182 30.8986 192.681 30.3866C192.18 29.8746 191.929 29.1546 191.929 28.2266V24.0346H190.409V22.4026H190.649C191.054 22.4026 191.369 22.2853 191.593 22.0506C191.817 21.8159 191.929 21.4959 191.929 21.0906V20.4186H193.737V22.4026H195.705V24.0346H193.737V28.1466C193.737 28.5839 193.844 28.9306 194.057 29.1866C194.281 29.4319 194.654 29.5546 195.177 29.5546C195.369 29.5546 195.566 29.5386 195.769 29.5066V31.0586C195.63 31.0799 195.47 31.1013 195.289 31.1226C195.108 31.1439 194.942 31.1546 194.793 31.1546Z" fill="#fff"/>
</g>
<defs>
<filter id="filter0_ii_2030_6609" x="0.230469" y="0.0585938" width="254" height="72" filterUnits="userSpaceOnUse" color-interpolation-filters="sRGB">
<feFlood flood-opacity="0" result="BackgroundImageFix"/>
<feBlend mode="normal" in="SourceGraphic" in2="BackgroundImageFix" result="shape"/>
<feColorMatrix in="SourceAlpha" type="matrix" values="0 0 0 0 0 0 0 0 0 0 0 0 0 0 0 0 0 0 127 0" result="hardAlpha"/>
<feOffset dy="8"/>
<feGaussianBlur stdDeviation="6"/>
<feComposite in2="hardAlpha" operator="arithmetic" k2="-1" k3="1"/>
<feColorMatrix type="matrix" values="0 0 0 0 1 0 0 0 0 1 0 0 0 0 1 0 0 0 0.08 0"/>
<feBlend mode="normal" in2="shape" result="effect1_innerShadow_2030_6609"/>
<feColorMatrix in="SourceAlpha" type="matrix" values="0 0 0 0 0 0 0 0 0 0 0 0 0 0 0 0 0 0 127 0" result="hardAlpha"/>
<feMorphology radius="24" operator="dilate" in="SourceAlpha" result="effect2_innerShadow_2030_6609"/>
<feOffset dx="16" dy="24"/>
<feGaussianBlur stdDeviation="32"/>
<feComposite in2="hardAlpha" operator="arithmetic" k2="-1" k3="1"/>
<feColorMatrix type="matrix" values="0 0 0 0 1 0 0 0 0 1 0 0 0 0 1 0 0 0 0.08 0"/>
<feBlend mode="normal" in2="effect1_innerShadow_2030_6609" result="effect2_innerShadow_2030_6609"/>
</filter>
<linearGradient id="paint0_linear_2030_6609" x1="-67.3832" y1="-40.6961" x2="2.09258" y2="139.236" gradientUnits="userSpaceOnUse">
<stop stop-color="#D7EDED"/>
<stop offset="1" stop-color="#CCEBEB" stop-opacity="0"/>
</linearGradient>
<clipPath id="clip0_2030_6609">
<rect width="20" height="20" fill="white" transform="translate(41.7305 14.0586)"/>
</clipPath>
</defs>
</svg>
