<svg width="82" height="77" viewBox="0 0 82 77" fill="none" xmlns="http://www.w3.org/2000/svg">
<path d="M47.2725 57.3388V51.4837H40.2556V58.5201H46.0858L48.6655 61.0367H16.6251V41.8794L19.9272 45.1665V51.9973H27.976V43.9852H21.1655L5.89337 28.834V24.417H0.269531V30.0152H4.70669L8.88587 34.1754V68.7407H56.3531L60.4291 72.7982V76.2393H65.0727V71.6169H61.6158L47.2725 57.3388Z" fill="white"/>
<path d="M75.9088 62.8865L72.4003 59.4454V32.5841L61.359 21.5417V7.6231H53.6198V13.889L40.6695 0.946289L19.3092 22.2094L7.0812 10.0884V7.52038H3.41797V11.2183H5.94612L16.7294 21.9526L35.8195 40.9044V44.9105H40.9274V39.7745H36.9546L24.7782 27.6535L40.6695 11.8346L64.7127 35.7684V51.7414L40.3083 27.4481V24.4692H36.1291V28.578H39.1732L59.9659 49.2761L64.7127 54.0012L72.4003 61.7052L74.7221 64.0164V70.0769H81.9969V62.8865H75.9088Z" fill="#7558EA"/>
</svg>
