<svg width="33" height="33" viewBox="0 0 33 33" fill="none" xmlns="http://www.w3.org/2000/svg">
<path d="M6.17806 14.1738L14.3216 20.3234L14.3243 20.3257C15.2285 20.9888 15.6809 21.3205 16.1764 21.4487C16.6144 21.562 17.0747 21.562 17.5127 21.4487C18.0086 21.3204 18.4623 20.9877 19.3682 20.3234L27.5114 14.1738M27.245 12.8931L19.7796 6.91592C18.8527 6.17376 18.3888 5.80281 17.8734 5.6555C17.4186 5.52553 16.937 5.51864 16.4788 5.63597C15.9594 5.76895 15.4859 6.1268 14.5388 6.843L6.53743 12.8934C5.91646 13.3629 5.60637 13.5979 5.38249 13.8946C5.18419 14.1575 5.03642 14.4547 4.94638 14.7714C4.84473 15.1289 4.84473 15.5183 4.84473 16.2968V24.5739C4.84473 26.0674 4.84473 26.8145 5.13538 27.3849C5.39104 27.8867 5.79869 28.2944 6.30046 28.55C6.87033 28.8404 7.61672 28.8404 9.10727 28.8404H24.5822C26.0727 28.8404 26.818 28.8404 27.3879 28.55C27.8897 28.2944 28.2987 27.8864 28.5544 27.3846C28.8447 26.8148 28.8447 26.0691 28.8447 24.5785V16.2091C28.8447 15.4663 28.8447 15.0925 28.7497 14.7473C28.6649 14.4394 28.5241 14.1493 28.3368 13.8907C28.1253 13.5988 27.8325 13.3635 27.245 12.8931Z" stroke="white" stroke-width="2" stroke-linecap="round" stroke-linejoin="round"/>
</svg>
