<svg width="33" height="33" viewBox="0 0 33 33" fill="none" xmlns="http://www.w3.org/2000/svg">
<path d="M5.39909 23.5059H4.73242C3.62785 23.5059 2.73242 24.4013 2.73242 25.5059C2.73242 26.6104 3.62785 27.5059 4.73242 27.5059H27.3991C28.5037 27.5059 29.3991 26.6104 29.3991 25.5059C29.3991 24.4013 28.5037 23.5059 27.3991 23.5059H26.7324M5.39909 23.5059H26.7324M5.39909 23.5059V11.7728C5.39909 10.2793 5.39909 9.53202 5.68974 8.96159C5.9454 8.45982 6.35305 8.05217 6.85482 7.79651C7.42525 7.50586 8.17254 7.50586 9.66602 7.50586H22.466C23.9595 7.50586 24.7052 7.50586 25.2756 7.79651C25.7774 8.05217 26.1864 8.45982 26.4421 8.96159C26.7324 9.53146 26.7324 10.2779 26.7324 11.7684V23.5059" stroke="white" stroke-width="2" stroke-linecap="round" stroke-linejoin="round"/>
</svg>
