<svg width="33" height="33" viewBox="0 0 33 33" fill="none" xmlns="http://www.w3.org/2000/svg">
<path d="M12.2324 28.8398H20.2324M16.2324 4.83984C11.8141 4.83984 8.23242 8.42157 8.23242 12.8398C8.23242 14.4592 8.71355 15.9661 9.54064 17.2256C10.8125 19.1623 11.4479 20.13 11.5304 20.2746C12.2648 21.5612 12.1296 21.1074 12.222 22.5859C12.2324 22.7521 12.2324 23.0037 12.2324 23.5065C12.2324 24.2429 12.8294 24.8398 13.5658 24.8398L18.8991 24.8398C19.6355 24.8398 20.2324 24.2429 20.2324 23.5065C20.2324 23.0037 20.2324 22.7521 20.2428 22.5859C20.3352 21.1074 20.1992 21.5612 20.9336 20.2746C21.0161 20.13 21.6526 19.1623 22.9245 17.2256C23.7516 15.9661 24.2327 14.4592 24.2327 12.8398C24.2327 8.42157 20.6507 4.83984 16.2324 4.83984Z" stroke="white" stroke-width="2" stroke-linecap="round" stroke-linejoin="round"/>
</svg>
