<svg width="41" height="41" viewBox="0 0 41 41" fill="none" xmlns="http://www.w3.org/2000/svg">
<path d="M39.6809 19.3243C40.1894 19.3243 40.6013 18.9125 40.6013 18.4039C40.6013 17.8954 40.1894 17.4835 39.6809 17.4835H32.3177V15.6427H36.9197C37.4282 15.6427 37.8401 15.2308 37.8401 14.7223C37.8401 14.2138 37.4282 13.8019 36.9197 13.8019H32.3177V11.9611C32.3177 9.93162 30.6655 8.27949 28.6361 8.27949H26.7952V3.67747C26.7952 3.16895 26.3834 2.75706 25.8748 2.75706C25.3663 2.75706 24.9544 3.16895 24.9544 3.67747V8.27949H23.1136V0.916254C23.1136 0.407731 22.7017 -0.00415039 22.1932 -0.00415039C21.6847 -0.00415039 21.2728 0.407731 21.2728 0.916254V8.27949H19.432V0.916254C19.432 0.407731 19.0201 -0.00415039 18.5116 -0.00415039C18.0031 -0.00415039 17.5912 0.407731 17.5912 0.916254V8.27949H15.7504V3.67747C15.7504 3.16895 15.3385 2.75706 14.83 2.75706C14.3215 2.75706 13.9096 3.16895 13.9096 3.67747V8.27949H12.0688C10.0393 8.27949 8.38716 9.93162 8.38716 11.9611V13.8019H3.78513C3.27661 13.8019 2.86473 14.2138 2.86473 14.7223C2.86473 15.2308 3.27661 15.6427 3.78513 15.6427H8.38716V17.4835H1.02392C0.515397 17.4835 0.103516 17.8954 0.103516 18.4039C0.103516 18.9125 0.515397 19.3243 1.02392 19.3243H8.38716V21.1652H1.02392C0.515397 21.1652 0.103516 21.577 0.103516 22.0856C0.103516 22.5941 0.515397 23.006 1.02392 23.006H8.38716V24.8468H3.78513C3.27661 24.8468 2.86473 25.2587 2.86473 25.7672C2.86473 26.2757 3.27661 26.6876 3.78513 26.6876H8.38716V28.5284C8.38716 30.5579 10.0393 32.21 12.0688 32.21H13.9096V36.812C13.9096 37.3206 14.3215 37.7324 14.83 37.7324C15.3385 37.7324 15.7504 37.3206 15.7504 36.812V32.21H17.5912V39.5732C17.5912 40.0818 18.0031 40.4937 18.5116 40.4937C19.0201 40.4937 19.432 40.0818 19.432 39.5732V32.21H21.2728V39.5732C21.2728 40.0818 21.6847 40.4937 22.1932 40.4937C22.7017 40.4937 23.1136 40.0818 23.1136 39.5732V32.21H24.9544V36.812C24.9544 37.3206 25.3663 37.7324 25.8748 37.7324C26.3834 37.7324 26.7952 37.3206 26.7952 36.812V32.21H28.6361C30.6655 32.21 32.3177 30.5579 32.3177 28.5284V26.6876H36.9197C37.4282 26.6876 37.8401 26.2757 37.8401 25.7672C37.8401 25.2587 37.4282 24.8468 36.9197 24.8468H32.3177V23.006H39.6809C40.1894 23.006 40.6013 22.5941 40.6013 22.0856C40.6013 21.577 40.1894 21.1652 39.6809 21.1652H32.3177V19.3243H39.6809ZM30.4769 28.5284C30.4769 29.5432 29.6508 30.3692 28.6361 30.3692H12.0688C11.054 30.3692 10.228 29.5432 10.228 28.5284V11.9611C10.228 10.9463 11.054 10.1203 12.0688 10.1203H28.6361C29.6508 10.1203 30.4769 10.9463 30.4769 11.9611V28.5284Z" fill="#43B0FF"/>
<path d="M27.7172 11.9609H12.9907C12.4822 11.9609 12.0703 12.3728 12.0703 12.8813V27.6078C12.0703 28.1163 12.4822 28.5282 12.9907 28.5282H27.7172C28.2257 28.5282 28.6376 28.1163 28.6376 27.6078V12.8813C28.6376 12.3728 28.2257 11.9609 27.7172 11.9609ZM26.7968 26.6874H13.9111V13.8017H26.7968V26.6874Z" fill="#6B5CA6"/>
<path d="M16.6704 24.8462H20.352C20.8605 24.8462 21.2724 24.4343 21.2724 23.9258C21.2724 23.4172 20.8605 23.0053 20.352 23.0053H17.5908V20.2441C17.5908 19.7356 17.1789 19.3237 16.6704 19.3237C16.1619 19.3237 15.75 19.7356 15.75 20.2441V23.9258C15.75 24.4343 16.1619 24.8462 16.6704 24.8462Z" fill="#6B5CA6"/>
<path d="M20.352 17.4829H23.1133V20.2441C23.1133 20.7526 23.5251 21.1645 24.0337 21.1645C24.5422 21.1645 24.9541 20.7526 24.9541 20.2441V16.5625C24.9541 16.054 24.5422 15.6421 24.0337 15.6421H20.352C19.8435 15.6421 19.4316 16.054 19.4316 16.5625C19.4316 17.071 19.8435 17.4829 20.352 17.4829Z" fill="#6B5CA6"/>
</svg>
