<svg width="138" height="113" viewBox="0 0 138 113" fill="none" xmlns="http://www.w3.org/2000/svg">
<path d="M129.175 0.254761H9.37259C4.69568 0.254761 0.904297 4.05271 0.904297 8.73772V103.868C0.904297 108.553 4.69568 112.351 9.37259 112.351H129.175C133.852 112.351 137.643 108.553 137.643 103.868V8.73772C137.643 4.05271 133.852 0.254761 129.175 0.254761Z" fill="white"/>
<path d="M33.2313 69.0273H30.8965V67.5731H37.1872V69.0273H34.8887V76.6014H33.2313V69.0273ZM36.9689 70.0089H38.6384L40.0175 74.1656L41.4813 70.0089H42.8846L44.3361 74.1535L45.7152 70.0089H47.3847L45.1224 76.6014H43.707L42.183 72.1539L40.6345 76.6014H39.2312L36.9689 70.0089ZM48.2539 70.0089H49.8387V76.6014H48.2539V70.0089ZM48.1329 68.1912C48.1329 67.9003 48.2134 67.6743 48.3749 67.5125C48.5358 67.3507 48.7577 67.2701 49.0402 67.2701C49.3306 67.2701 49.5562 67.3507 49.7177 67.5125C49.8786 67.6743 49.9596 67.9003 49.9596 68.1912C49.9596 68.4741 49.8786 68.6959 49.7177 68.8577C49.564 69.0194 49.3384 69.1 49.0402 69.1C48.7577 69.1 48.5358 69.0194 48.3749 68.8577C48.2134 68.6959 48.1329 68.4741 48.1329 68.1912ZM54.4714 76.7468C53.826 76.7468 53.2375 76.5972 52.7052 76.2985C52.1808 75.9912 51.7694 75.5756 51.4712 75.0502C51.1724 74.5249 51.0236 73.9396 51.0236 73.293C51.0236 72.6465 51.1724 72.0648 51.4712 71.548C51.7694 71.0226 52.1808 70.6106 52.7052 70.3119C53.229 70.0132 53.8182 69.8635 54.4714 69.8635C55.1731 69.8635 55.7979 70.0453 56.3465 70.4089C56.8946 70.7645 57.2696 71.2329 57.4716 71.8146L56.0925 72.4205C55.9631 72.0812 55.7538 71.8146 55.4634 71.6207C55.1731 71.4189 54.8422 71.3178 54.4714 71.3178C54.1327 71.3178 53.826 71.4026 53.552 71.5722C53.2774 71.7419 53.0596 71.98 52.8987 72.2872C52.7451 72.5859 52.6689 72.9253 52.6689 73.3052C52.6689 73.6851 52.7451 74.0281 52.8987 74.3353C53.0596 74.634 53.2774 74.8685 53.552 75.0381C53.826 75.2078 54.1327 75.2926 54.4714 75.2926C54.8501 75.2926 55.1809 75.1957 55.4634 75.0018C55.7538 74.8 55.9631 74.5249 56.0925 74.1777L57.4716 74.8079C57.2781 75.3817 56.903 75.8501 56.3465 76.2136C55.7979 76.5693 55.1731 76.7468 54.4714 76.7468ZM61.7832 76.7468C61.1215 76.7468 60.5329 76.5935 60.0169 76.2863C59.5089 75.9791 59.1096 75.5635 58.8193 75.0381C58.5368 74.5128 58.3959 73.9311 58.3959 73.293C58.3959 72.6465 58.5368 72.0648 58.8193 71.548C59.1096 71.0226 59.5004 70.6106 59.9928 70.3119C60.4924 70.0132 61.0489 69.8635 61.6622 69.8635C62.3233 69.8635 62.8962 70.0089 63.3801 70.2998C63.864 70.5827 64.2305 70.9706 64.4809 71.4632C64.7386 71.9558 64.8681 72.4975 64.8681 73.0871C64.8681 73.3615 64.8396 73.5839 64.7834 73.7536H60.0411C60.0895 74.2383 60.2746 74.6261 60.5976 74.9169C60.92 75.2078 61.3193 75.3532 61.7953 75.3532C62.1497 75.3532 62.4522 75.2805 62.7026 75.1351C62.9603 74.9818 63.1659 74.7715 63.3196 74.5049L64.6019 75.1351C64.3999 75.6198 64.0454 76.0119 63.5373 76.3106C63.0292 76.6014 62.4443 76.7468 61.7832 76.7468ZM63.1744 72.5417C63.1339 72.1376 62.9766 71.8104 62.7026 71.5601C62.428 71.3014 62.0814 71.1723 61.6622 71.1723C61.2588 71.1723 60.9158 71.2935 60.6339 71.5359C60.3514 71.7704 60.1657 72.1054 60.0774 72.5417H63.1744ZM70.2152 76.7468C69.522 76.7468 68.9691 76.5772 68.5578 76.2379C68.155 75.8986 67.9529 75.438 67.9529 74.8563C67.9529 74.2989 68.1429 73.8384 68.5215 73.4749C68.9008 73.1113 69.4694 72.8689 70.2273 72.7477L72.1871 72.4326V72.2145C72.1871 71.9237 72.0746 71.6855 71.8484 71.4995C71.6306 71.3135 71.3403 71.2208 70.9773 71.2208C70.6386 71.2208 70.3362 71.3135 70.07 71.4995C69.8123 71.6771 69.6224 71.9158 69.5014 72.2145L68.207 71.5843C68.4006 71.0675 68.7556 70.6512 69.2716 70.3361C69.7882 70.021 70.3767 69.8635 71.0378 69.8635C71.5701 69.8635 72.0419 69.9647 72.4532 70.1665C72.873 70.3604 73.1954 70.6391 73.421 71.0027C73.6551 71.3583 73.7719 71.7619 73.7719 72.2145V76.6014H72.2718V75.8986C71.7558 76.4639 71.0705 76.7468 70.2152 76.7468ZM69.5982 74.7958C69.5982 75.0218 69.6829 75.2035 69.8523 75.3411C70.0216 75.4701 70.2394 75.535 70.5055 75.535C70.9979 75.535 71.4007 75.3817 71.7153 75.0745C72.0298 74.7594 72.1871 74.3716 72.1871 73.9111V73.6445L70.5297 73.9232C70.2152 73.9881 69.9817 74.0929 69.8281 74.2383C69.675 74.3758 69.5982 74.5613 69.5982 74.7958ZM77.7048 76.7347C77.0437 76.7347 76.4587 76.5772 75.9506 76.2621C75.4504 75.947 75.096 75.515 74.8861 74.9654L76.0595 74.3595C76.2368 74.7152 76.4708 74.9939 76.7612 75.1957C77.0594 75.3896 77.386 75.4865 77.7411 75.4865C78.0478 75.4865 78.2855 75.4259 78.4548 75.3047C78.6321 75.1757 78.721 75.0018 78.721 74.7836C78.721 74.5976 78.6484 74.4443 78.5032 74.3231C78.3581 74.1941 78.1687 74.1092 77.9346 74.0686L76.858 73.8869C76.3015 73.7415 75.8702 73.4948 75.5635 73.1476C75.2653 72.792 75.1159 72.3763 75.1159 71.8994C75.1159 71.5038 75.2206 71.1523 75.4304 70.8451C75.6403 70.53 75.9307 70.2877 76.3015 70.118C76.6807 69.9483 77.1078 69.8635 77.5838 69.8635C78.1887 69.8635 78.721 70.0089 79.1807 70.2998C79.6404 70.5827 79.9749 70.9784 80.1848 71.4874L79.0113 72.0933C78.8825 71.8104 78.6847 71.5844 78.4185 71.4147C78.1524 71.245 77.8578 71.1602 77.5354 71.1602C77.2693 71.1602 77.0558 71.2208 76.8943 71.342C76.7412 71.4632 76.6644 71.6207 76.6644 71.8146C76.6644 72.1703 76.9305 72.4084 77.4628 72.5296L78.5153 72.7235C79.0718 72.8768 79.5031 73.1277 79.8098 73.4749C80.1164 73.822 80.2695 74.2341 80.2695 74.7109C80.2695 75.1066 80.1606 75.458 79.9428 75.7652C79.7329 76.0724 79.4347 76.3106 79.0476 76.4802C78.6605 76.6499 78.2129 76.7347 77.7048 76.7347ZM83.7342 67.5731H89.7467V69.0273H85.3795V71.5238H89.2023V72.978H85.3795V76.6014H83.7342V67.5731ZM92.4021 76.7468C91.7083 76.7468 91.1561 76.5772 90.7448 76.2379C90.3413 75.8986 90.1399 75.438 90.1399 74.8563C90.1399 74.2989 90.3292 73.8384 90.7085 73.4749C91.0877 73.1113 91.6563 72.8689 92.4142 72.7477L94.374 72.4326V72.2145C94.374 71.9237 94.2609 71.6855 94.0353 71.4995C93.8175 71.3135 93.5272 71.2208 93.1643 71.2208C92.8255 71.2208 92.5231 71.3135 92.257 71.4995C91.9987 71.6771 91.8093 71.9158 91.6884 72.2145L90.3939 71.5843C90.5875 71.0675 90.9425 70.6512 91.4585 70.3361C91.9745 70.021 92.5636 69.8635 93.2248 69.8635C93.757 69.8635 94.2289 69.9647 94.6402 70.1665C95.0593 70.3604 95.3824 70.6391 95.608 71.0027C95.8421 71.3583 95.9588 71.7619 95.9588 72.2145V76.6014H94.4587V75.8986C93.9427 76.4639 93.2568 76.7468 92.4021 76.7468ZM91.7851 74.7958C91.7851 75.0218 91.8698 75.2035 92.0392 75.3411C92.2086 75.4701 92.4263 75.535 92.6925 75.535C93.1842 75.535 93.5877 75.3817 93.9022 75.0745C94.2168 74.7594 94.374 74.3716 94.374 73.9111V73.6445L92.7167 73.9232C92.4021 73.9881 92.168 74.0929 92.015 74.2383C91.862 74.3758 91.7851 74.5613 91.7851 74.7958ZM99.8917 76.7347C99.23 76.7347 98.6457 76.5772 98.1376 76.2621C97.6373 75.947 97.2823 75.515 97.073 74.9654L98.2465 74.3595C98.4237 74.7152 98.6578 74.9939 98.9481 75.1957C99.2463 75.3896 99.5729 75.4865 99.928 75.4865C100.234 75.4865 100.472 75.4259 100.642 75.3047C100.819 75.1757 100.908 75.0018 100.908 74.7836C100.908 74.5976 100.835 74.4443 100.69 74.3231C100.545 74.1941 100.355 74.1092 100.122 74.0686L99.0449 73.8869C98.4884 73.7415 98.0565 73.4948 97.7505 73.1476C97.4516 72.792 97.3028 72.3763 97.3028 71.8994C97.3028 71.5038 97.4075 71.1523 97.6174 70.8451C97.8267 70.53 98.117 70.2877 98.4884 70.118C98.8671 69.9483 99.2947 69.8635 99.7707 69.8635C100.376 69.8635 100.908 70.0089 101.368 70.2998C101.827 70.5827 102.162 70.9784 102.372 71.4874L101.198 72.0933C101.069 71.8104 100.872 71.5844 100.605 71.4147C100.339 71.245 100.045 71.1602 99.7224 71.1602C99.4562 71.1602 99.2421 71.2208 99.0812 71.342C98.9275 71.4632 98.8513 71.6207 98.8513 71.8146C98.8513 72.1703 99.1175 72.4084 99.6498 72.5296L100.702 72.7235C101.259 72.8768 101.69 73.1277 101.997 73.4749C102.303 73.822 102.456 74.2341 102.456 74.7109C102.456 75.1066 102.348 75.458 102.13 75.7652C101.92 76.0724 101.622 76.3106 101.235 76.4802C100.847 76.6499 100.4 76.7347 99.8917 76.7347ZM106.638 76.6741C105.896 76.6741 105.319 76.4724 104.908 76.0682C104.505 75.6562 104.303 75.0787 104.303 74.3353V71.4268H103.166V70.0089H103.287C103.609 70.0089 103.86 69.9241 104.037 69.7545C104.214 69.5848 104.303 69.3382 104.303 69.0152V68.5063H105.888V70.0089H107.4V71.4268H105.888V74.2504C105.888 74.9369 106.259 75.2805 107.001 75.2805C107.13 75.2805 107.271 75.2684 107.424 75.2441V76.6135C107.166 76.6541 106.904 76.6741 106.638 76.6741ZM50.2591 82.7213H56.2473V84.1755H51.9043V86.4901H56.0054V87.9443H51.9043V90.2953H56.2473V91.7496H50.2591V82.7213ZM57.321 85.1571H58.809V85.969C58.9784 85.6618 59.2246 85.4279 59.547 85.2661C59.8778 85.0965 60.2529 85.0117 60.672 85.0117C61.1481 85.0117 61.5751 85.1165 61.9544 85.3268C62.3336 85.537 62.6276 85.8315 62.8375 86.2114C63.0474 86.5913 63.152 87.0233 63.152 87.5081V91.7496H61.5673V87.8838C61.5673 87.4554 61.442 87.1124 61.1922 86.8537C60.9503 86.5949 60.6315 86.4659 60.2365 86.4659C59.8415 86.4659 59.5185 86.5949 59.2687 86.8537C59.0268 87.1124 58.9058 87.4554 58.9058 87.8838V91.7496H57.321V85.1571ZM67.6856 94.4157C66.944 94.4157 66.2907 94.2381 65.7258 93.8824C65.1693 93.5352 64.7864 93.0705 64.5765 92.4888L66.0524 91.9313C66.1492 92.2464 66.3428 92.4967 66.6331 92.6827C66.9234 92.8687 67.2743 92.9614 67.6856 92.9614C68.1695 92.9614 68.5608 92.8239 68.8591 92.5494C69.1657 92.2749 69.3188 91.8992 69.3188 91.4224V90.7074C68.8512 91.2242 68.2179 91.483 67.4194 91.483C66.8146 91.483 66.2666 91.3418 65.7742 91.0588C65.2903 90.7758 64.9116 90.3881 64.637 89.8954C64.363 89.4028 64.2257 88.849 64.2257 88.2352C64.2257 87.6214 64.3588 87.0718 64.6249 86.5871C64.8995 86.0944 65.2782 85.7103 65.7621 85.4358C66.246 85.1529 66.7867 85.0117 67.3831 85.0117C68.23 85.0117 68.9038 85.3104 69.4035 85.9084V85.1571H70.9035V91.4224C70.9035 91.9962 70.7668 92.5088 70.4922 92.9614C70.2182 93.4219 69.8353 93.7776 69.343 94.0279C68.8591 94.2866 68.3068 94.4157 67.6856 94.4157ZM65.871 88.2473C65.871 88.7563 66.0325 89.1804 66.3549 89.5198C66.6857 89.8512 67.1049 90.0166 67.613 90.0166C68.1132 90.0166 68.5203 89.8512 68.8349 89.5198C69.1579 89.1883 69.3188 88.7641 69.3188 88.2473C69.3188 87.7304 69.1579 87.3063 68.8349 86.9749C68.5125 86.6355 68.1054 86.4659 67.613 86.4659C67.1134 86.4659 66.6978 86.6355 66.367 86.9749C66.0367 87.3142 65.871 87.7383 65.871 88.2473ZM72.3837 85.1571H73.9685V91.7496H72.3837V85.1571ZM72.2627 83.3393C72.2627 83.0485 72.3438 82.8225 72.5047 82.6607C72.6662 82.4989 72.8881 82.4183 73.17 82.4183C73.4604 82.4183 73.6866 82.4989 73.8475 82.6607C74.009 82.8225 74.0894 83.0485 74.0894 83.3393C74.0894 83.6223 74.009 83.844 73.8475 84.0058C73.6945 84.1676 73.4688 84.2482 73.17 84.2482C72.8881 84.2482 72.6662 84.1676 72.5047 84.0058C72.3438 83.844 72.2627 83.6223 72.2627 83.3393ZM75.4317 85.1571H76.9197V85.969C77.089 85.6618 77.3352 85.4279 77.6576 85.2661C77.9885 85.0965 78.3635 85.0117 78.7827 85.0117C79.2587 85.0117 79.6864 85.1165 80.065 85.3268C80.4443 85.537 80.7389 85.8315 80.9482 86.2114C81.158 86.5913 81.2627 87.0233 81.2627 87.5081V91.7496H79.6779V87.8838C79.6779 87.4554 79.5533 87.1124 79.3029 86.8537C79.0609 86.5949 78.7428 86.4659 78.3472 86.4659C77.9522 86.4659 77.6298 86.5949 77.3794 86.8537C77.1374 87.1124 77.0164 87.4554 77.0164 87.8838V91.7496H75.4317V85.1571ZM85.7243 91.895C85.0625 91.895 84.474 91.7417 83.958 91.4345C83.4499 91.1273 83.0507 90.7116 82.7604 90.1863C82.4779 89.6609 82.3369 89.0792 82.3369 88.4412C82.3369 87.7947 82.4779 87.213 82.7604 86.6961C83.0507 86.1708 83.4415 85.7588 83.9338 85.46C84.4335 85.1613 84.9899 85.0117 85.6033 85.0117C86.2644 85.0117 86.8372 85.1571 87.3211 85.4479C87.805 85.7309 88.1716 86.1187 88.422 86.6113C88.6797 87.1039 88.8091 87.6456 88.8091 88.2352C88.8091 88.5097 88.7807 88.732 88.7245 88.9017H83.9822C84.0306 89.3864 84.2157 89.7742 84.5387 90.0651C84.8611 90.3559 85.2603 90.5014 85.7364 90.5014C86.0908 90.5014 86.3933 90.4287 86.6437 90.2832C86.9014 90.1299 87.107 89.9197 87.2607 89.653L88.543 90.2832C88.341 90.768 87.9865 91.16 87.4784 91.4587C86.9703 91.7496 86.3854 91.895 85.7243 91.895ZM87.1155 87.6899C87.075 87.2857 86.9177 86.9585 86.6437 86.7083C86.3691 86.4495 86.0225 86.3205 85.6033 86.3205C85.1998 86.3205 84.8569 86.4417 84.575 86.684C84.2925 86.9185 84.1068 87.2536 84.0185 87.6899H87.1155Z" fill="#1E1634"/>
<path opacity="0.1" d="M83.9954 12.3733H54.6902C50.6814 12.3733 47.4316 15.6287 47.4316 19.6444V49.0004C47.4316 53.0161 50.6814 56.2715 54.6902 56.2715H83.9954C88.0042 56.2715 91.2539 53.0161 91.2539 49.0004V19.6444C91.2539 15.6287 88.0042 12.3733 83.9954 12.3733Z" fill="#7558EA"/>
<path d="M62.6111 35.204C62.6111 35.5694 62.3147 35.8669 61.9494 35.8669C61.5846 35.8669 61.2882 35.5694 61.2882 35.204C61.2882 32.57 62.2548 30.1621 63.8511 28.3158L62.8028 27.2651C62.5445 27.0076 62.5445 26.5871 62.8028 26.3296C63.0605 26.0702 63.4797 26.0702 63.7374 26.3296L64.7778 27.3718C66.6384 25.6988 69.0978 24.6809 71.7943 24.6809C74.6953 24.6809 77.3217 25.8582 79.2235 27.7632C81.1246 29.6676 82.2999 32.2992 82.2999 35.2052C82.2999 38.1112 81.1246 40.7415 79.2235 42.6466C77.3217 44.5516 74.6953 45.7295 71.7943 45.7295H61.9494C61.5846 45.7295 61.2882 45.4326 61.2882 45.0672C61.2882 44.7019 61.5846 44.4043 61.9494 44.4043H71.7943C74.3306 44.4043 76.6267 43.3749 78.2883 41.711C79.9493 40.0466 80.9776 37.7465 80.9776 35.2058C80.9776 32.6652 79.9493 30.3657 78.2883 28.7012C76.6267 27.0367 74.3306 26.0072 71.7943 26.0072C69.2593 26.0072 66.9626 27.0367 65.301 28.7012C63.6394 30.3657 62.6117 32.6652 62.6117 35.2058L62.6111 35.204ZM72.2625 35.6724C72.0036 35.9305 71.5857 35.9305 71.3268 35.6724C71.0691 35.4136 71.0691 34.9949 71.3268 34.7356L75.1303 30.9255C75.3891 30.6674 75.8071 30.6674 76.066 30.9255C76.3231 31.1843 76.3231 31.6036 76.066 31.8623L72.2625 35.6724ZM68.1935 37.9319C68.5582 37.9319 68.8546 38.2288 68.8546 38.5941C68.8546 38.9595 68.5582 39.257 68.1935 39.257H54.7471C54.3823 39.257 54.0859 38.9595 54.0859 38.5941C54.0859 38.2282 54.3823 37.9319 54.7471 37.9319H68.1935ZM68.1935 41.1681C68.5582 41.1681 68.8546 41.465 68.8546 41.8304C68.8546 42.1958 68.5582 42.4927 68.1935 42.4927H58.3485C57.9838 42.4927 57.6874 42.1958 57.6874 41.8304C57.6874 41.465 57.9838 41.1681 58.3485 41.1681H68.1935ZM70.1237 23.3933C69.7589 23.3933 69.4625 23.0958 69.4625 22.7304C69.4625 22.365 69.7589 22.0681 70.1237 22.0681H73.4662C73.831 22.0681 74.128 22.365 74.128 22.7304C74.128 23.0958 73.831 23.3933 73.4662 23.3933H70.1237Z" fill="#7558EA"/>
</svg>
