<svg width="138" height="114" viewBox="0 0 138 114" fill="none" xmlns="http://www.w3.org/2000/svg">
<path d="M128.847 0.980713H9.04446C4.36756 0.980713 0.576172 4.77866 0.576172 9.46368V104.594C0.576172 109.279 4.36756 113.077 9.04446 113.077H128.847C133.524 113.077 137.315 109.279 137.315 104.594V9.46368C137.315 4.77866 133.524 0.980713 128.847 0.980713Z" fill="white"/>
<path d="M24.7011 76.0792L27.1448 73.5222C27.6693 72.9726 28.0522 72.557 28.2941 72.274C28.5361 71.9831 28.7097 71.7329 28.8143 71.5227C28.9195 71.3045 28.9716 71.0821 28.9716 70.8561C28.9716 70.4847 28.8548 70.1896 28.6207 69.9715C28.3873 69.7455 28.0806 69.6321 27.7013 69.6321C27.3063 69.6321 26.9676 69.7455 26.6851 69.9715C26.4111 70.1896 26.2097 70.5126 26.0802 70.9409L24.6406 70.4926C24.7374 70.0242 24.931 69.6158 25.2213 69.2686C25.5201 68.9129 25.8867 68.6384 26.3222 68.4445C26.7577 68.2506 27.2174 68.1537 27.7013 68.1537C28.2741 68.1537 28.7822 68.2628 29.2256 68.4809C29.6696 68.6911 30.012 68.9899 30.2539 69.3777C30.5043 69.7576 30.6289 70.1939 30.6289 70.6865C30.6289 71.1712 30.4958 71.6438 30.2297 72.1043C29.972 72.557 29.5486 73.0902 28.9595 73.704L26.8424 75.9338H30.7499V77.3274H24.7011V76.0792ZM35.6458 77.4728C34.9363 77.4728 34.3072 77.2789 33.7586 76.8911C33.2184 76.5034 32.795 75.958 32.4883 75.2551C32.1901 74.5444 32.0407 73.7282 32.0407 72.8072C32.0407 71.8862 32.1901 71.0743 32.4883 70.3714C32.795 69.6685 33.2184 69.1232 33.7586 68.7354C34.2987 68.3476 34.9242 68.1537 35.6337 68.1537C36.3517 68.1537 36.9844 68.3476 37.533 68.7354C38.0816 69.1232 38.505 69.6685 38.8032 70.3714C39.1099 71.0743 39.263 71.8862 39.263 72.8072C39.263 73.7282 39.1099 74.5444 38.8032 75.2551C38.505 75.958 38.0816 76.5034 37.533 76.8911C36.9929 77.2789 36.3638 77.4728 35.6458 77.4728ZM33.686 72.8072C33.686 73.7846 33.8596 74.5565 34.2062 75.1218C34.5528 75.6872 35.0331 75.9701 35.6458 75.9701C36.2585 75.9701 36.7388 75.6914 37.0854 75.134C37.4405 74.5686 37.6177 73.7931 37.6177 72.8072C37.6177 71.8299 37.4405 71.0621 37.0854 70.5047C36.7388 69.9394 36.2549 69.6564 35.6337 69.6564C35.0209 69.6564 34.5407 69.9351 34.1941 70.4926C33.8553 71.05 33.686 71.8214 33.686 72.8072ZM43.2431 74.9764H40.8961V73.607H43.2431V71.2682H44.6101V73.607H46.9449V74.9764H44.6101V77.3274H43.2431V74.9764ZM50.9359 68.2991H52.2183L56.5129 74.0918V68.2991H58.1581V77.3274H56.8637L52.5812 71.4257V77.3274H50.9359V68.2991ZM62.8907 77.4728C62.2296 77.4728 61.641 77.3195 61.1245 77.0123C60.6164 76.7051 60.2171 76.2895 59.9268 75.7641C59.6449 75.2388 59.5034 74.6571 59.5034 74.0191C59.5034 73.3725 59.6449 72.7908 59.9268 72.274C60.2171 71.7487 60.6085 71.3366 61.1003 71.0379C61.6005 70.7392 62.157 70.5895 62.7697 70.5895C63.4315 70.5895 64.0037 70.7349 64.4876 71.0258C64.9715 71.3088 65.3387 71.6965 65.5885 72.1892C65.8468 72.6818 65.9756 73.2235 65.9756 73.8131C65.9756 74.0875 65.9478 74.3099 65.8909 74.4796H61.1487C61.197 74.9643 61.3827 75.3521 61.7051 75.6429C62.0281 75.9338 62.4274 76.0792 62.9028 76.0792C63.2579 76.0792 63.5603 76.0065 63.8101 75.8611C64.0684 75.7078 64.2741 75.4975 64.4271 75.2309L65.7094 75.8611C65.508 76.3458 65.1529 76.7378 64.6448 77.0366C64.1367 77.3274 63.5524 77.4728 62.8907 77.4728ZM64.2819 73.2677C64.242 72.8636 64.0848 72.5364 63.8101 72.2861C63.5361 72.0274 63.1895 71.8983 62.7697 71.8983C62.3669 71.8983 62.0239 72.0195 61.7414 72.2619C61.4596 72.4964 61.2739 72.8314 61.1849 73.2677H64.2819ZM66.572 70.7349H68.2415L69.6206 74.8916L71.0844 70.7349H72.4877L73.9394 74.8795L75.3185 70.7349H76.988L74.7257 77.3274H73.3103L71.786 72.8799L70.2376 77.3274H68.8342L66.572 70.7349ZM80.14 68.2991H83.491C84.1044 68.2991 84.6488 68.4124 85.1242 68.6384C85.6003 68.8566 85.9674 69.1795 86.2251 69.6079C86.4912 70.0363 86.6243 70.5489 86.6243 71.147C86.6243 71.7608 86.4791 72.2904 86.1888 72.7345C85.8984 73.1708 85.4992 73.4937 84.9911 73.704L87.0598 77.3274H85.1968L83.3338 73.9948H81.7853V77.3274H80.14V68.2991ZM83.5152 72.5406C83.9592 72.5406 84.3137 72.4152 84.5798 72.1649C84.846 71.9062 84.979 71.5669 84.979 71.147C84.979 70.7271 84.846 70.3914 84.5798 70.1411C84.3137 69.8824 83.9592 69.7533 83.5152 69.7533H81.7853V72.5406H83.5152ZM90.8566 77.4728C90.2197 77.4728 89.6348 77.3232 89.1025 77.0245C88.5702 76.7257 88.1468 76.3137 87.8323 75.7884C87.5262 75.263 87.3725 74.6777 87.3725 74.0312C87.3725 73.3847 87.5262 72.7993 87.8323 72.274C88.1389 71.7487 88.5581 71.3366 89.0904 71.0379C89.6227 70.7392 90.2118 70.5895 90.8566 70.5895C91.4942 70.5895 92.0749 70.7392 92.5987 71.0379C93.131 71.3366 93.5508 71.7487 93.8568 72.274C94.1714 72.7993 94.3286 73.3847 94.3286 74.0312C94.3286 74.6856 94.1714 75.2751 93.8568 75.8005C93.5508 76.3258 93.131 76.7378 92.5987 77.0366C92.0664 77.3274 91.4857 77.4728 90.8566 77.4728ZM89.0178 74.0312C89.0178 74.605 89.1872 75.0813 89.5259 75.4612C89.8731 75.8326 90.3165 76.0186 90.8566 76.0186C91.2038 76.0186 91.5141 75.9338 91.7881 75.7641C92.0628 75.5945 92.2763 75.36 92.4293 75.0613C92.5908 74.7541 92.6713 74.4111 92.6713 74.0312C92.6713 73.6597 92.5908 73.3241 92.4293 73.0253C92.2763 72.7181 92.0628 72.48 91.7881 72.3103C91.5141 72.1328 91.2038 72.0437 90.8566 72.0437C90.5022 72.0437 90.1834 72.1328 89.9009 72.3103C89.6269 72.48 89.4091 72.7145 89.2477 73.0132C89.0946 73.3119 89.0178 73.6513 89.0178 74.0312ZM98.7485 77.4728C98.1115 77.4728 97.5266 77.3232 96.9943 77.0245C96.462 76.7257 96.0386 76.3137 95.7241 75.7884C95.418 75.263 95.2644 74.6777 95.2644 74.0312C95.2644 73.3847 95.418 72.7993 95.7241 72.274C96.0308 71.7487 96.4499 71.3366 96.9822 71.0379C97.5145 70.7392 98.1037 70.5895 98.7485 70.5895C99.386 70.5895 99.9667 70.7392 100.491 71.0379C101.023 71.3366 101.443 71.7487 101.749 72.274C102.063 72.7993 102.22 73.3847 102.22 74.0312C102.22 74.6856 102.063 75.2751 101.749 75.8005C101.443 76.3258 101.023 76.7378 100.491 77.0366C99.9582 77.3274 99.3776 77.4728 98.7485 77.4728ZM96.9096 74.0312C96.9096 74.605 97.079 75.0813 97.4177 75.4612C97.7649 75.8326 98.2083 76.0186 98.7485 76.0186C99.0957 76.0186 99.406 75.9338 99.68 75.7641C99.9546 75.5945 100.168 75.36 100.321 75.0613C100.483 74.7541 100.563 74.4111 100.563 74.0312C100.563 73.6597 100.483 73.3241 100.321 73.0253C100.168 72.7181 99.9546 72.48 99.68 72.3103C99.406 72.1328 99.0957 72.0437 98.7485 72.0437C98.394 72.0437 98.0752 72.1328 97.7928 72.3103C97.5188 72.48 97.301 72.7145 97.1395 73.0132C96.9865 73.3119 96.9096 73.6513 96.9096 74.0312ZM103.422 70.7349H104.91V71.559C105.08 71.2439 105.322 71.0058 105.636 70.844C105.959 70.6743 106.33 70.5895 106.749 70.5895C107.185 70.5895 107.584 70.6865 107.947 70.8804C108.31 71.0664 108.588 71.3245 108.782 71.656C108.999 71.3003 109.282 71.0337 109.628 70.8561C109.983 70.6786 110.383 70.5895 110.826 70.5895C111.286 70.5895 111.701 70.6943 112.072 70.9046C112.443 71.1149 112.733 71.4093 112.943 71.7892C113.153 72.1692 113.258 72.6012 113.258 73.0859V77.3274H111.673V73.4616C111.673 73.0253 111.556 72.6818 111.322 72.4315C111.096 72.1728 110.79 72.0437 110.403 72.0437C110.023 72.0437 109.717 72.1728 109.483 72.4315C109.249 72.6903 109.132 73.0332 109.132 73.4616V77.3274H107.548V73.4616C107.548 73.0253 107.431 72.6818 107.197 72.4315C106.971 72.1728 106.665 72.0437 106.277 72.0437C105.898 72.0437 105.592 72.1728 105.358 72.4315C105.124 72.6903 105.007 73.0332 105.007 73.4616V77.3274H103.422V70.7349ZM55.8233 92.5483C55.0811 92.5483 54.5047 92.3465 54.0934 91.9423C53.6899 91.5303 53.4885 90.9529 53.4885 90.2094V87.3009H52.3513V85.8831H52.4723C52.7947 85.8831 53.0445 85.7983 53.2223 85.6286C53.3996 85.4589 53.4885 85.2123 53.4885 84.8894V84.3804H55.0733V85.8831H56.5855V87.3009H55.0733V90.1246C55.0733 90.8111 55.4441 91.1546 56.1862 91.1546C56.3151 91.1546 56.456 91.1425 56.6096 91.1183V92.4877C56.3514 92.5283 56.0894 92.5483 55.8233 92.5483ZM59.7804 92.3786L57.2157 85.8831H58.9215L60.6273 90.4275L62.3209 85.8831H64.0388L60.4821 94.8993H58.7763L59.7804 92.3786ZM64.9086 85.8831H66.3966V86.6587C66.6385 86.3678 66.9373 86.1418 67.2918 85.98C67.6547 85.8183 68.0624 85.7377 68.5137 85.7377C69.127 85.7377 69.6871 85.891 70.1952 86.1982C70.7033 86.4969 71.1025 86.9089 71.3929 87.4343C71.6832 87.9596 71.8284 88.5413 71.8284 89.1793C71.8284 89.8174 71.6832 90.3991 71.3929 90.9244C71.1025 91.4497 70.7033 91.8654 70.1952 92.1726C69.6956 92.4713 69.1306 92.621 68.5016 92.621C68.0987 92.621 67.7237 92.5562 67.3765 92.4271C67.0299 92.2896 66.7353 92.0956 66.4934 91.8454V94.8993H64.9086V85.8831ZM66.4934 89.1793C66.4934 89.5592 66.5702 89.9022 66.7232 90.2094C66.8847 90.5081 67.1025 90.7426 67.3765 90.9123C67.659 91.0819 67.9735 91.1668 68.3201 91.1668C68.8609 91.1668 69.3042 90.9808 69.6508 90.6093C70.0059 90.2294 70.1831 89.7531 70.1831 89.1793C70.1831 88.8079 70.1027 88.4722 69.9412 88.1735C69.7803 87.8663 69.5583 87.6282 69.2758 87.4585C68.9939 87.281 68.6752 87.1919 68.3201 87.1919C67.9735 87.1919 67.659 87.2767 67.3765 87.4464C67.1025 87.616 66.8847 87.8542 66.7232 88.1614C66.5702 88.4601 66.4934 88.7994 66.4934 89.1793ZM76.1581 92.621C75.4964 92.621 74.9078 92.4677 74.3918 92.1605C73.8837 91.8533 73.4845 91.4376 73.1942 90.9123C72.9117 90.3869 72.7708 89.8053 72.7708 89.1672C72.7708 88.5207 72.9117 87.939 73.1942 87.4221C73.4845 86.8968 73.8753 86.4848 74.3677 86.186C74.8673 85.8873 75.4238 85.7377 76.0371 85.7377C76.6983 85.7377 77.2711 85.8831 77.755 86.1739C78.2389 86.4569 78.6054 86.8447 78.8559 87.3373C79.1135 87.8299 79.243 88.3716 79.243 88.9612C79.243 89.2357 79.2145 89.458 79.1583 89.6277H74.4161C74.4645 90.1124 74.6495 90.5002 74.9725 90.7911C75.2949 91.0819 75.6941 91.2274 76.1702 91.2274C76.5246 91.2274 76.8271 91.1546 77.0775 91.0092C77.3352 90.8559 77.5409 90.6457 77.6945 90.3791L78.9768 91.0092C78.7748 91.494 78.4203 91.886 77.9122 92.1847C77.4041 92.4756 76.8192 92.621 76.1581 92.621ZM77.5493 88.4159C77.5088 88.0117 77.3515 87.6845 77.0775 87.4343C76.8029 87.1755 76.4563 87.0465 76.0371 87.0465C75.6337 87.0465 75.2907 87.1677 75.0088 87.41C74.7264 87.6445 74.5407 87.9796 74.4524 88.4159H77.5493ZM82.9122 92.6089C82.251 92.6089 81.6661 92.4513 81.158 92.1362C80.6578 91.8212 80.3033 91.3891 80.0934 90.8396L81.2669 90.2336C81.4441 90.5893 81.6782 90.868 81.9685 91.0698C82.2668 91.2637 82.5934 91.3607 82.9484 91.3607C83.2551 91.3607 83.4928 91.3001 83.6622 91.1789C83.8394 91.0498 83.9283 90.8759 83.9283 90.6578C83.9283 90.4718 83.8558 90.3185 83.7106 90.1973C83.5654 90.0682 83.3761 89.9834 83.142 89.9428L82.0653 89.761C81.5089 89.6156 81.0776 89.369 80.7709 89.0218C80.4727 88.6661 80.3233 88.2504 80.3233 87.7736C80.3233 87.3779 80.4279 87.0265 80.6378 86.7193C80.8477 86.4042 81.138 86.1618 81.5088 85.9921C81.8881 85.8225 82.3151 85.7377 82.7912 85.7377C83.3961 85.7377 83.9284 85.8831 84.3881 86.1739C84.8478 86.4569 85.1823 86.8526 85.3922 87.3615L84.2187 87.9675C84.0899 87.6845 83.8921 87.4585 83.6259 87.2888C83.3598 87.1192 83.0652 87.0343 82.7428 87.0343C82.4767 87.0343 82.2631 87.0949 82.1016 87.2161C81.9486 87.3373 81.8718 87.4949 81.8718 87.6888C81.8718 88.0444 82.1379 88.2826 82.6702 88.4037L83.7227 88.5976C84.2792 88.7509 84.7105 89.0018 85.0172 89.349C85.3238 89.6962 85.4768 90.1082 85.4768 90.5851C85.4768 90.9807 85.368 91.3322 85.1502 91.6394C84.9403 91.9466 84.6421 92.1847 84.255 92.3544C83.8679 92.524 83.4203 92.6089 82.9122 92.6089Z" fill="#1E1634"/>
<path opacity="0.1" d="M83.7629 13.0992H54.4578C50.449 13.0992 47.1992 16.3546 47.1992 20.3704V49.7263C47.1992 53.742 50.449 56.9974 54.4578 56.9974H83.7629C87.7717 56.9974 91.0215 53.742 91.0215 49.7263V20.3704C91.0215 16.3546 87.7717 13.0992 83.7629 13.0992Z" fill="#7558EA"/>
<mask id="mask0_2043_11757" style="mask-type:luminance" maskUnits="userSpaceOnUse" x="55" y="19" width="31" height="32">
<path d="M85.3084 19.7644H55.0645V50.0607H85.3084V19.7644Z" fill="white"/>
</mask>
<g mask="url(#mask0_2043_11757)">
<path d="M76.3519 36.328C75.8432 36.328 75.3817 36.5322 75.0436 36.8624C74.204 35.35 72.5926 34.3236 70.7459 34.3236H62.5468C60.7001 34.3236 59.0887 35.35 58.2491 36.8624C57.911 36.5322 57.4495 36.328 56.9408 36.328C55.9064 36.328 55.0645 37.1714 55.0645 38.2076V42.0982C55.0645 43.4749 56.1823 44.5947 57.5565 44.5947H57.6327V45.0897C57.6327 45.4175 57.8983 45.6829 58.2249 45.6829C58.5516 45.6829 58.8165 45.4175 58.8165 45.0897V44.5947H63.9906C64.3179 44.5947 64.5828 44.3293 64.5828 44.0014C64.5828 43.6742 64.3179 43.4089 63.9906 43.4089H57.5565C56.8349 43.4089 56.2482 42.8211 56.2482 42.0982V38.2076C56.2482 37.8252 56.5591 37.5138 56.9408 37.5138C57.3225 37.5138 57.6327 37.8252 57.6327 38.2076V40.498C57.6327 40.8252 57.8983 41.0906 58.2249 41.0906H75.0677C75.3944 41.0906 75.6599 40.8252 75.6599 40.498V38.2076C75.6599 37.8252 75.9702 37.5138 76.3519 37.5138C76.7336 37.5138 77.0445 37.8252 77.0445 38.2076V42.0982C77.0445 42.8211 76.4578 43.4089 75.7362 43.4089H69.3026C68.9754 43.4089 68.7105 43.6742 68.7105 44.0014C68.7105 44.3293 68.9754 44.5947 69.3026 44.5947H74.4756V45.0897C74.4756 45.4175 74.7411 45.6829 75.0677 45.6829C75.3944 45.6829 75.6599 45.4175 75.6599 45.0897V44.5947H75.7362C77.1104 44.5947 78.2282 43.4749 78.2282 42.0982V38.2076C78.2282 37.1714 77.3863 36.328 76.3519 36.328ZM58.8165 39.2461C58.8165 37.1854 60.4902 35.5094 62.5468 35.5094H66.0526V39.9054H58.8165V39.2461ZM74.4756 39.9054H67.2364V35.5094H70.7459C72.8025 35.5094 74.4756 37.1854 74.4756 39.2461V39.9054Z" fill="#7558EA"/>
<path d="M85.2209 32.0538L83.7946 28.5285C83.6113 28.0765 83.1782 27.7844 82.6913 27.7844H80.8204C80.3335 27.7844 79.9004 28.0765 79.7177 28.5285L78.2908 32.0538C78.1414 32.4222 78.1849 32.8385 78.4063 33.1681C78.6283 33.4977 78.9973 33.6946 79.3941 33.6946H81.1639V42.0982C79.9687 42.36 79.0711 43.4282 79.0711 44.7025V45.0897C79.0711 45.4175 79.336 45.6829 79.6633 45.6829H83.849C84.1757 45.6829 84.4406 45.4175 84.4406 45.0897V44.7025C84.4406 43.4282 83.543 42.36 82.3477 42.0982V33.6946H83.5744V34.1188C83.5744 34.446 83.84 34.712 84.1666 34.712C84.4932 34.712 84.7581 34.446 84.7581 34.1188V33.5068C84.8936 33.4201 85.0128 33.3062 85.1053 33.1681C85.3267 32.8385 85.3703 32.4222 85.2209 32.0538ZM83.2429 44.4971H80.2687C80.3692 43.7778 80.9873 43.2222 81.7325 43.2222H81.7791C82.5243 43.2222 83.1425 43.7778 83.2429 44.4971ZM79.3911 32.5088C79.3893 32.5076 79.3868 32.504 79.3875 32.4997L80.8143 28.9745C80.8155 28.9714 80.818 28.9702 80.8204 28.9702H82.6913C82.6937 28.9702 82.6961 28.9721 82.6973 28.9745L84.1254 32.5022C84.1248 32.504 84.1224 32.5076 84.1182 32.5088H79.3911Z" fill="#7558EA"/>
<path d="M60.3732 30.3015H64.1537C64.807 30.3015 65.3374 29.7695 65.3374 29.1157V25.328C65.3374 24.6742 64.8064 24.1422 64.1537 24.1422H60.3732C59.72 24.1422 59.1895 24.6742 59.1895 25.328V29.1157C59.1895 29.7695 59.7206 30.3015 60.3732 30.3015ZM60.3732 25.328H64.1537L64.1549 29.1157H64.1537H60.3732V25.328Z" fill="#7558EA"/>
<path d="M69.1388 32.3531H72.9199C73.5726 32.3531 74.1037 31.8211 74.1037 31.1673V27.3796C74.1037 26.7259 73.5726 26.1938 72.9199 26.1938H69.1388C68.4861 26.1938 67.9551 26.7259 67.9551 27.3796V31.1673C67.9551 31.8211 68.4861 32.3531 69.1388 32.3531ZM69.1388 27.3796H72.9199L72.9205 31.1673H69.1388V27.3796Z" fill="#7558EA"/>
<path d="M66.6476 44.5934C66.9736 44.5934 67.238 44.3286 67.238 44.0014C67.238 43.6748 66.9736 43.41 66.6476 43.41C66.321 43.41 66.0566 43.6748 66.0566 44.0014C66.0566 44.3286 66.321 44.5934 66.6476 44.5934Z" fill="#7558EA"/>
<path d="M70.5376 38.1615C70.8643 38.1615 71.1286 37.8967 71.1286 37.5701C71.1286 37.2429 70.8643 36.9781 70.5376 36.9781C70.2116 36.9781 69.9473 37.2429 69.9473 37.5701C69.9473 37.8967 70.2116 38.1615 70.5376 38.1615Z" fill="#7558EA"/>
<path d="M62.8482 38.1615C63.1748 38.1615 63.4391 37.8967 63.4391 37.5701C63.4391 37.2429 63.1748 36.9781 62.8482 36.9781C62.5222 36.9781 62.2578 37.2429 62.2578 37.5701C62.2578 37.8967 62.5222 38.1615 62.8482 38.1615Z" fill="#7558EA"/>
</g>
</svg>
