<svg width="138" height="113" viewBox="0 0 138 113" fill="none" xmlns="http://www.w3.org/2000/svg">
<path d="M129.011 0.254761H9.20853C4.53162 0.254761 0.740234 4.05271 0.740234 8.73772V103.868C0.740234 108.553 4.53162 112.351 9.20853 112.351H129.011C133.688 112.351 137.479 108.553 137.479 103.868V8.73772C137.479 4.05271 133.688 0.254761 129.011 0.254761Z" fill="white"/>
<path d="M45.7817 76.7469C45.0958 76.7469 44.483 76.6015 43.9429 76.3106C43.4021 76.0198 42.9787 75.6198 42.6726 75.1109C42.3659 74.594 42.2129 74.016 42.2129 73.3779V67.5732H43.8582V73.2931C43.8582 73.8669 44.0354 74.3353 44.3905 74.6988C44.7534 75.0624 45.2167 75.2442 45.7817 75.2442C46.346 75.2442 46.8057 75.0624 47.1608 74.6988C47.5237 74.3353 47.7052 73.8669 47.7052 73.2931V67.5732H49.3505V73.3779C49.3505 74.016 49.1968 74.594 48.8907 75.1109C48.5841 75.6198 48.1607 76.0198 47.6205 76.3106C47.0797 76.6015 46.467 76.7469 45.7817 76.7469ZM50.8596 67.4277H52.4444V76.6015H50.8596V67.4277ZM56.9078 76.6742C56.1662 76.6742 55.5892 76.4724 55.1779 76.0682C54.775 75.6562 54.573 75.0788 54.573 74.3353V71.4269H53.4358V70.009H53.5568C53.8798 70.009 54.1296 69.9242 54.3068 69.7545C54.4847 69.5848 54.573 69.3382 54.573 69.0153V68.5063H56.1578V70.009H57.67V71.4269H56.1578V74.2505C56.1578 74.937 56.5292 75.2805 57.2707 75.2805C57.4002 75.2805 57.5411 75.2684 57.6942 75.2442V76.6136C57.4365 76.6542 57.1739 76.6742 56.9078 76.6742ZM58.9051 70.009H60.3931V70.93C60.5546 70.5743 60.7845 70.3198 61.0827 70.1665C61.3809 70.0132 61.7438 69.9363 62.1714 69.9363H62.5586V71.342H61.99C61.5381 71.342 61.1752 71.4832 60.9012 71.7662C60.6272 72.0492 60.4899 72.4369 60.4899 72.9296V76.6015H58.9051V70.009ZM65.4257 76.7469C64.7325 76.7469 64.1797 76.5772 63.7683 76.2379C63.3655 75.8986 63.1635 75.4381 63.1635 74.8564C63.1635 74.2989 63.3534 73.8385 63.732 73.4749C64.1113 73.1113 64.6799 72.869 65.4378 72.7478L67.3976 72.4327V72.2146C67.3976 71.9237 67.2851 71.6856 67.0589 71.4996C66.8411 71.3136 66.5508 71.2208 66.1878 71.2208C65.8491 71.2208 65.5467 71.3136 65.2805 71.4996C65.0229 71.6771 64.8329 71.9158 64.7119 72.2146L63.4175 71.5844C63.6111 71.0675 63.9661 70.6513 64.4821 70.3362C64.9987 70.0211 65.5872 69.8636 66.2483 69.8636C66.7806 69.8636 67.2524 69.9648 67.6638 70.1665C68.0835 70.3604 68.4059 70.6392 68.6316 71.0027C68.8656 71.3584 68.9824 71.7619 68.9824 72.2146V76.6015H67.4823V75.8986C66.9663 76.4639 66.281 76.7469 65.4257 76.7469ZM64.8087 74.7958C64.8087 75.0218 64.8934 75.2036 65.0628 75.3411C65.2321 75.4702 65.4499 75.535 65.716 75.535C66.2084 75.535 66.6113 75.3817 66.9258 75.0745C67.2403 74.7594 67.3976 74.3717 67.3976 73.9111V73.6445L65.7402 73.9233C65.4257 73.9881 65.1922 74.0929 65.0386 74.2383C64.8855 74.3759 64.8087 74.5613 64.8087 74.7958ZM72.7308 67.5732H78.7433V69.0274H74.3761V71.5238H78.1989V72.978H74.3761V76.6015H72.7308V67.5732ZM81.3987 76.7469C80.7049 76.7469 80.1527 76.5772 79.7413 76.2379C79.3379 75.8986 79.1365 75.4381 79.1365 74.8564C79.1365 74.2989 79.3258 73.8385 79.705 73.4749C80.0837 73.1113 80.6523 72.869 81.4108 72.7478L83.3706 72.4327V72.2146C83.3706 71.9237 83.2575 71.6856 83.0319 71.4996C82.8141 71.3136 82.5238 71.2208 82.1609 71.2208C81.8221 71.2208 81.5197 71.3136 81.2535 71.4996C80.9953 71.6771 80.8059 71.9158 80.685 72.2146L79.3905 71.5844C79.5841 71.0675 79.9385 70.6513 80.4551 70.3362C80.9711 70.0211 81.5596 69.8636 82.2213 69.8636C82.7536 69.8636 83.2254 69.9648 83.6368 70.1665C84.0559 70.3604 84.3783 70.6392 84.6046 71.0027C84.838 71.3584 84.9554 71.7619 84.9554 72.2146V76.6015H83.4553V75.8986C82.9387 76.4639 82.2534 76.7469 81.3987 76.7469ZM80.7817 74.7958C80.7817 75.0218 80.8664 75.2036 81.0358 75.3411C81.2052 75.4702 81.4229 75.535 81.689 75.535C82.1808 75.535 82.5843 75.3817 82.8988 75.0745C83.2133 74.7594 83.3706 74.3717 83.3706 73.9111V73.6445L81.7132 73.9233C81.3987 73.9881 81.1646 74.0929 81.0116 74.2383C80.8579 74.3759 80.7817 74.5613 80.7817 74.7958ZM88.8877 76.7347C88.2266 76.7347 87.6417 76.5772 87.1336 76.2621C86.6339 75.9471 86.2789 75.515 86.069 74.9655L87.2424 74.3595C87.4203 74.7152 87.6538 74.9939 87.9441 75.1957C88.2429 75.3896 88.5695 75.4865 88.924 75.4865C89.2307 75.4865 89.4684 75.426 89.6378 75.3048C89.8156 75.1757 89.9039 75.0018 89.9039 74.7837C89.9039 74.5977 89.8313 74.4444 89.6861 74.3232C89.541 74.1941 89.3516 74.1093 89.1176 74.0687L88.0409 73.8869C87.4844 73.7415 87.0531 73.4949 86.7464 73.1477C86.4482 72.792 86.2988 72.3763 86.2988 71.8995C86.2988 71.5038 86.4041 71.1524 86.6134 70.8452C86.8233 70.5301 87.1136 70.2877 87.4844 70.118C87.8637 69.9484 88.2913 69.8636 88.7667 69.8636C89.3716 69.8636 89.9039 70.009 90.3636 70.2998C90.8233 70.5828 91.1584 70.9785 91.3677 71.4874L90.1942 72.0934C90.0654 71.8104 89.8676 71.5844 89.6015 71.4147C89.3353 71.2451 89.0413 71.1603 88.7183 71.1603C88.4522 71.1603 88.2387 71.2208 88.0772 71.342C87.9241 71.4632 87.8473 71.6207 87.8473 71.8146C87.8473 72.1703 88.1135 72.4085 88.6458 72.5297L89.6983 72.7235C90.2547 72.8768 90.6866 73.1277 90.9927 73.4749C91.2994 73.8221 91.4524 74.2341 91.4524 74.711C91.4524 75.1066 91.3435 75.4581 91.1258 75.7653C90.9165 76.0725 90.6177 76.3106 90.2305 76.4803C89.8434 76.6499 89.3958 76.7347 88.8877 76.7347ZM95.6345 76.6742C94.8923 76.6742 94.3159 76.4724 93.9046 76.0682C93.5011 75.6562 93.2997 75.0788 93.2997 74.3353V71.4269H92.1625V70.009H92.2835C92.6059 70.009 92.8557 69.9242 93.0335 69.7545C93.2108 69.5848 93.2997 69.3382 93.2997 69.0153V68.5063H94.8845V70.009H96.3967V71.4269H94.8845V74.2505C94.8845 74.937 95.2553 75.2805 95.9974 75.2805C96.1263 75.2805 96.2672 75.2684 96.4209 75.2442V76.6136C96.1626 76.6542 95.9007 76.6742 95.6345 76.6742ZM48.8297 91.895C48.1195 91.895 47.5026 91.7617 46.9787 91.4951C46.4622 91.2285 46.0593 90.8934 45.769 90.4893C45.4786 90.0772 45.2929 89.6489 45.2125 89.2047L46.761 88.7927C46.882 89.2853 47.1239 89.6695 47.4868 89.944C47.8498 90.2184 48.3052 90.356 48.8538 90.356C49.273 90.356 49.6118 90.2512 49.8701 90.0409C50.1362 89.8306 50.2693 89.5804 50.2693 89.2896C50.2693 89.0229 50.1725 88.7927 49.9789 88.5988C49.7932 88.397 49.5392 88.2637 49.2168 88.1989L47.8619 87.9323C47.1439 87.7947 46.5795 87.4839 46.1682 86.9991C45.7569 86.5144 45.5512 85.9248 45.5512 85.2298C45.5512 84.7451 45.6879 84.3009 45.9625 83.8968C46.2444 83.4848 46.6158 83.1618 47.0755 82.9273C47.5431 82.6928 48.0391 82.5759 48.5635 82.5759C49.2325 82.5759 49.8011 82.6892 50.2693 82.9152C50.7368 83.1412 51.0998 83.4284 51.3581 83.7756C51.6242 84.115 51.8014 84.4743 51.8903 84.8542L50.354 85.3389C50.1846 84.9026 49.9547 84.5918 49.6644 84.4058C49.374 84.2119 49.0069 84.115 48.5635 84.115C48.3131 84.115 48.0875 84.1676 47.8861 84.2725C47.6925 84.3773 47.5389 84.5149 47.4263 84.6845C47.3211 84.8463 47.2691 85.0117 47.2691 85.1814C47.2691 85.448 47.3574 85.6825 47.5352 85.8843C47.7124 86.0781 47.9586 86.2036 48.2732 86.2599L49.5555 86.5387C50.3376 86.7083 50.9425 87.0313 51.3701 87.5081C51.7972 87.9765 52.0113 88.5382 52.0113 89.1926C52.0113 89.661 51.8819 90.1015 51.6242 90.5135C51.3659 90.9256 50.9951 91.2606 50.5112 91.5194C50.0352 91.7696 49.4745 91.895 48.8297 91.895ZM55.6581 91.895C54.8918 91.895 54.2869 91.6484 53.8435 91.1558C53.4001 90.6632 53.1781 90.0088 53.1781 89.1926V85.1571H54.7629V89.0593C54.7629 89.4713 54.8839 89.8064 55.1258 90.0651C55.3757 90.3154 55.6987 90.4408 56.0936 90.4408C56.4886 90.4408 56.8074 90.3118 57.0493 90.053C57.2992 89.7943 57.4244 89.4513 57.4244 89.0229V85.1571H59.0091V91.7496H57.5091V90.9619C57.3318 91.2691 57.0814 91.503 56.759 91.6648C56.4445 91.8181 56.0773 91.895 55.6581 91.895ZM60.482 85.1571H61.97V85.9327C62.212 85.6419 62.5108 85.4159 62.8652 85.2541C63.2282 85.0923 63.6359 85.0117 64.0871 85.0117C64.7005 85.0117 65.2606 85.165 65.7687 85.4722C66.2768 85.7709 66.676 86.183 66.9663 86.7083C67.2567 87.2336 67.4018 87.8153 67.4018 88.4534C67.4018 89.0914 67.2567 89.6731 66.9663 90.1984C66.676 90.7238 66.2768 91.1394 65.7687 91.4466C65.269 91.7454 64.7041 91.895 64.075 91.895C63.6722 91.895 63.2971 91.8302 62.9499 91.7011C62.6033 91.5636 62.3088 91.3697 62.0668 91.1195V94.1733H60.482V85.1571ZM62.0668 88.4534C62.0668 88.8333 62.1436 89.1762 62.2967 89.4835C62.4582 89.7822 62.6759 90.0167 62.9499 90.1863C63.2324 90.356 63.547 90.4408 63.8935 90.4408C64.4343 90.4408 64.8777 90.2548 65.2243 89.8833C65.5793 89.5034 65.7566 89.0272 65.7566 88.4534C65.7566 88.0819 65.6761 87.7463 65.5146 87.4475C65.3537 87.1403 65.1317 86.9022 64.8492 86.7325C64.5674 86.555 64.2486 86.466 63.8935 86.466C63.547 86.466 63.2324 86.5508 62.9499 86.7204C62.6759 86.8901 62.4582 87.1282 62.2967 87.4354C62.1436 87.7341 62.0668 88.0735 62.0668 88.4534ZM68.6104 85.1571H70.0984V85.9327C70.3403 85.6419 70.6385 85.4159 70.9936 85.2541C71.3565 85.0923 71.7636 85.0117 72.2155 85.0117C72.8282 85.0117 73.3889 85.165 73.897 85.4722C74.4051 85.7709 74.8043 86.183 75.0947 86.7083C75.385 87.2336 75.5302 87.8153 75.5302 88.4534C75.5302 89.0914 75.385 89.6731 75.0947 90.1984C74.8043 90.7238 74.4051 91.1394 73.897 91.4466C73.3968 91.7454 72.8324 91.895 72.2034 91.895C71.7999 91.895 71.4249 91.8302 71.0783 91.7011C70.7317 91.5636 70.4371 91.3697 70.1952 91.1195V94.1733H68.6104V85.1571ZM70.1952 88.4534C70.1952 88.8333 70.272 89.1762 70.425 89.4835C70.5865 89.7822 70.8043 90.0167 71.0783 90.1863C71.3608 90.356 71.6753 90.4408 72.0219 90.4408C72.562 90.4408 73.006 90.2548 73.3526 89.8833C73.7077 89.5034 73.8849 89.0272 73.8849 88.4534C73.8849 88.0819 73.8045 87.7463 73.643 87.4475C73.4815 87.1403 73.2601 86.9022 72.9776 86.7325C72.6951 86.555 72.377 86.466 72.0219 86.466C71.6753 86.466 71.3608 86.5508 71.0783 86.7204C70.8043 86.8901 70.5865 87.1282 70.425 87.4354C70.272 87.7341 70.1952 88.0735 70.1952 88.4534ZM79.9561 91.895C79.3191 91.895 78.7342 91.7454 78.2019 91.4466C77.6696 91.1479 77.2462 90.7359 76.9317 90.2106C76.6256 89.6852 76.472 89.0999 76.472 88.4534C76.472 87.8068 76.6256 87.2215 76.9317 86.6962C77.2384 86.1708 77.6576 85.7588 78.1898 85.4601C78.7221 85.1614 79.3113 85.0117 79.9561 85.0117C80.5936 85.0117 81.1743 85.1614 81.6981 85.4601C82.2304 85.7588 82.6502 86.1708 82.9563 86.6962C83.2708 87.2215 83.4281 87.8068 83.4281 88.4534C83.4281 89.1078 83.2708 89.6973 82.9563 90.2227C82.6502 90.748 82.2304 91.1601 81.6981 91.4588C81.1658 91.7496 80.5852 91.895 79.9561 91.895ZM78.1172 88.4534C78.1172 89.0272 78.2866 89.5034 78.6254 89.8833C78.9726 90.2548 79.4159 90.4408 79.9561 90.4408C80.3033 90.4408 80.6136 90.356 80.8876 90.1863C81.1622 90.0167 81.3757 89.7822 81.5288 89.4835C81.6903 89.1762 81.7707 88.8333 81.7707 88.4534C81.7707 88.0819 81.6903 87.7463 81.5288 87.4475C81.3757 87.1403 81.1622 86.9022 80.8876 86.7325C80.6136 86.555 80.3033 86.466 79.9561 86.466C79.6016 86.466 79.2829 86.555 79.0004 86.7325C78.7264 86.9022 78.5086 87.1367 78.3471 87.4354C78.1941 87.7341 78.1172 88.0735 78.1172 88.4534ZM84.63 85.1571H86.118V86.0782C86.2795 85.7225 86.5093 85.468 86.8075 85.3147C87.1063 85.1614 87.4693 85.0844 87.8963 85.0844H88.2834V86.4902H87.7148C87.2636 86.4902 86.9007 86.6314 86.6261 86.9143C86.3521 87.1973 86.2148 87.5851 86.2148 88.0777V91.7496H84.63V85.1571ZM92.3325 91.8223C91.5903 91.8223 91.0139 91.6205 90.6025 91.2164C90.1991 90.8044 89.9977 90.2269 89.9977 89.4835V86.575H88.8605V85.1571H88.9815C89.3039 85.1571 89.5537 85.0723 89.7315 84.9027C89.9087 84.733 89.9977 84.4864 89.9977 84.1634V83.6544H91.5824V85.1571H93.0946V86.575H91.5824V89.3986C91.5824 90.0851 91.9532 90.4287 92.6954 90.4287C92.8243 90.4287 92.9652 90.4166 93.1188 90.3923V91.7617C92.8606 91.8023 92.5986 91.8223 92.3325 91.8223Z" fill="#1E1634"/>
<path opacity="0.1" d="M83.8801 12.3733H54.5749C50.5662 12.3733 47.3164 15.6287 47.3164 19.6444V49.0004C47.3164 53.0161 50.5662 56.2715 54.5749 56.2715H83.8801C87.8889 56.2715 91.1387 53.0161 91.1387 49.0004V19.6444C91.1387 15.6287 87.8889 12.3733 83.8801 12.3733Z" fill="#43B0FF"/>
<mask id="mask0_2043_11786" style="mask-type:luminance" maskUnits="userSpaceOnUse" x="55" y="20" width="28" height="28">
<path d="M82.3978 20.8562H55.7832V47.5169H82.3978V20.8562Z" fill="white"/>
</mask>
<g mask="url(#mask0_2043_11786)">
<path d="M80.529 32.4797C80.4274 29.5718 79.2515 26.8524 77.1876 24.7844C75.024 22.6164 72.1478 21.4233 69.0908 21.4233C62.9156 21.4233 57.8703 26.3465 57.6525 32.4797C56.7101 32.899 56.0508 33.8442 56.0508 34.9422V37.9675C56.0508 39.4527 57.2569 40.6615 58.7407 40.6615C59.7006 40.6615 60.4809 39.8799 60.4809 38.9182V33.9908C60.4809 33.088 59.7895 32.3518 58.9113 32.2646C59.2355 26.9209 63.6759 22.6727 69.0908 22.6727C71.8151 22.6727 74.3774 23.7368 76.3057 25.6684C78.0762 27.442 79.113 29.7542 79.269 32.2646C78.3907 32.353 77.7012 33.0886 77.7012 33.9908V38.9176C77.7012 39.8283 78.4028 40.5688 79.292 40.6457V41.8909C79.292 43.293 78.153 44.434 76.7533 44.434H74.8734C74.7808 44.1698 74.6363 43.9256 74.433 43.7232C74.0773 43.3651 73.6037 43.1682 73.0987 43.1682H71.1606C70.8824 43.1682 70.6156 43.2276 70.3713 43.3415C69.7041 43.6487 69.2734 44.3225 69.2734 45.0587C69.2734 45.5646 69.47 46.0391 69.8263 46.3948C70.1825 46.7523 70.6568 46.9492 71.1606 46.9492H73.0987C73.9019 46.9492 74.6103 46.4293 74.8746 45.6834H76.7533C78.8414 45.6834 80.5399 43.982 80.5399 41.8909V40.4234C81.4762 40.0016 82.1307 39.06 82.1307 37.9663V34.9415C82.1307 33.8442 81.4714 32.899 80.529 32.4797ZM59.233 33.9908V38.9176C59.233 39.1897 59.0123 39.4115 58.7401 39.4115C57.9453 39.4115 57.298 38.7631 57.298 37.9669V34.9415C57.298 34.1447 57.9453 33.497 58.7401 33.497C59.0123 33.497 59.233 33.7188 59.233 33.9908ZM73.7247 45.1926C73.6624 45.4871 73.3987 45.7004 73.0981 45.7004H71.1606C70.9901 45.7004 70.8298 45.6337 70.7076 45.5113C70.5872 45.3913 70.5207 45.2301 70.5207 45.0593C70.5207 44.8096 70.6664 44.5818 70.8951 44.4764C70.9767 44.4382 71.0663 44.4188 71.1606 44.4188H73.0981C73.2686 44.4188 73.4289 44.4849 73.5505 44.6073C73.6715 44.7279 73.738 44.8884 73.738 45.0593C73.738 45.1053 73.7332 45.1514 73.7247 45.1926ZM80.8828 37.9669C80.8828 38.7631 80.2362 39.4115 79.4408 39.4115C79.1692 39.4115 78.9478 39.1903 78.9478 38.9176V33.9908C78.9478 33.7188 79.1692 33.497 79.4408 33.497C80.2362 33.497 80.8828 34.1453 80.8828 34.9415V37.9669Z" fill="#43B0FF"/>
<path d="M73.1297 38.1821C74.5874 38.1821 75.773 36.9944 75.773 35.5348V30.1396C75.773 29.4337 75.4978 28.769 74.9975 28.2685C74.4979 27.7674 73.8344 27.4917 73.1297 27.4917H65.0515C63.5938 27.4917 62.4082 28.6793 62.4082 30.1396V35.5348C62.4082 36.9944 63.5938 38.1821 65.0515 38.1821H65.1005V39.5805C65.1005 40.1137 65.4181 40.587 65.9086 40.7863C66.0671 40.85 66.2316 40.8815 66.395 40.8815C66.7349 40.8815 67.0658 40.7469 67.3083 40.4955L69.6299 38.1821H73.1297ZM68.933 37.1144L66.4204 39.6175C66.4095 39.629 66.401 39.6381 66.3774 39.6272C66.349 39.6157 66.349 39.5969 66.349 39.5805V37.5573C66.349 37.2126 66.0695 36.9326 65.7248 36.9326H65.0515C64.2821 36.9326 63.6561 36.3055 63.6561 35.5348V30.1396C63.6561 29.3683 64.2821 28.7417 65.0515 28.7417H73.1303C73.5017 28.7417 73.8513 28.8872 74.1162 29.1519C74.3806 29.4167 74.5257 29.7676 74.5257 30.1396V35.5348C74.5257 36.3055 73.8991 36.9326 73.1303 36.9326H69.3734C69.2083 36.9326 69.0504 36.9981 68.933 37.1144Z" fill="#43B0FF"/>
<path d="M66.0613 32.0149C65.5538 32.0149 65.1406 32.4288 65.1406 32.9365C65.1406 33.4449 65.5544 33.8587 66.0613 33.8587C66.5687 33.8587 66.9825 33.4449 66.9825 32.9365C66.9825 32.4288 66.5693 32.0149 66.0613 32.0149Z" fill="#43B0FF"/>
<path d="M69.0905 32.0149C68.5831 32.0149 68.1699 32.4288 68.1699 32.9365C68.1699 33.4449 68.5837 33.8587 69.0905 33.8587C69.5986 33.8587 70.0112 33.4449 70.0112 32.9365C70.0112 32.4288 69.5986 32.0149 69.0905 32.0149Z" fill="#43B0FF"/>
<path d="M72.1192 32.0149C71.6123 32.0149 71.1992 32.4288 71.1992 32.9365C71.1992 33.4449 71.6123 33.8587 72.1192 33.8587C72.6273 33.8587 73.0405 33.4449 73.0405 32.9365C73.0405 32.4288 72.6273 32.0149 72.1192 32.0149Z" fill="#43B0FF"/>
</g>
</svg>
