<svg width="138" height="114" viewBox="0 0 138 114" fill="none" xmlns="http://www.w3.org/2000/svg">
<path d="M129.175 0.980713H9.37259C4.69568 0.980713 0.904297 4.77866 0.904297 9.46368V104.594C0.904297 109.279 4.69568 113.077 9.37259 113.077H129.175C133.852 113.077 137.643 109.279 137.643 104.594V9.46368C137.643 4.77866 133.852 0.980713 129.175 0.980713Z" fill="white"/>
<path d="M43.9881 77.4728C43.1414 77.4728 42.3752 77.2711 41.6896 76.8669C41.0041 76.4628 40.4637 75.9053 40.0686 75.1946C39.6815 74.4838 39.4879 73.6876 39.4879 72.8072C39.4879 71.9268 39.6815 71.1306 40.0686 70.4199C40.4637 69.7091 41.0001 69.1553 41.6775 68.7596C42.3631 68.3555 43.1333 68.1537 43.9881 68.1537C44.6093 68.1537 45.1779 68.2628 45.6939 68.4809C46.2098 68.6911 46.6454 68.9778 47.0004 69.3413C47.3633 69.697 47.6253 70.0927 47.7868 70.5289L46.3109 71.2197C46.1336 70.7513 45.8391 70.3756 45.4277 70.0927C45.0164 69.8018 44.5367 69.6564 43.9881 69.6564C43.4316 69.6564 42.9357 69.7897 42.5002 70.0563C42.0647 70.315 41.7259 70.6822 41.484 71.1591C41.2501 71.636 41.1332 72.1849 41.1332 72.8072C41.1332 73.4295 41.2501 73.9827 41.484 74.4674C41.7259 74.9443 42.0647 75.3157 42.5002 75.5823C42.9357 75.8411 43.4316 75.9701 43.9881 75.9701C44.5367 75.9701 45.0164 75.829 45.4277 75.546C45.8391 75.2551 46.1336 74.8752 46.3109 74.4068L47.7868 75.0976C47.6253 75.5339 47.3633 75.9338 47.0004 76.2973C46.6454 76.653 46.2098 76.9396 45.6939 77.1578C45.1779 77.368 44.6093 77.4728 43.9881 77.4728ZM51.3362 77.4728C50.5704 77.4728 49.9655 77.2262 49.5215 76.7336C49.0782 76.241 48.8562 75.5866 48.8562 74.7704V70.7349H50.441V74.6371C50.441 75.0491 50.5619 75.3842 50.8039 75.6429C51.0543 75.8932 51.3767 76.0186 51.7717 76.0186C52.1673 76.0186 52.4854 75.8896 52.7274 75.6308C52.9778 75.3721 53.1024 75.0291 53.1024 74.6007V70.7349H54.6872V77.3274H53.1871V76.5397C53.0099 76.8469 52.7601 77.0808 52.4371 77.2426C52.1225 77.3959 51.756 77.4728 51.3362 77.4728ZM58.6286 77.4607C57.9675 77.4607 57.3825 77.3032 56.8744 76.9881C56.3742 76.673 56.0198 76.241 55.8099 75.6914L56.9833 75.0855C57.1606 75.4412 57.3946 75.7199 57.685 75.9217C57.9832 76.1156 58.3098 76.2125 58.6649 76.2125C58.9716 76.2125 59.2093 76.1519 59.3786 76.0307C59.5559 75.9017 59.6448 75.7278 59.6448 75.5096C59.6448 75.3236 59.5722 75.1703 59.427 75.0491C59.2819 74.9201 59.0925 74.8352 58.8584 74.7946L57.7818 74.6129C57.2253 74.4674 56.794 74.2208 56.4873 73.8736C56.1891 73.518 56.0397 73.1023 56.0397 72.6254C56.0397 72.2298 56.1444 71.8783 56.3542 71.5711C56.5641 71.256 56.8545 71.0137 57.2253 70.844C57.6045 70.6743 58.0316 70.5895 58.5076 70.5895C59.1125 70.5895 59.6448 70.7349 60.1045 71.0258C60.5642 71.3088 60.8987 71.7044 61.1086 72.2134L59.9351 72.8193C59.8063 72.5364 59.6085 72.3103 59.3423 72.1407C59.0762 71.971 58.7816 71.8862 58.4592 71.8862C58.1931 71.8862 57.9796 71.9468 57.8181 72.068C57.665 72.1892 57.5882 72.3467 57.5882 72.5406C57.5882 72.8963 57.8543 73.1344 58.3866 73.2556L59.4391 73.4495C59.9956 73.6028 60.4269 73.8536 60.7336 74.2008C61.0402 74.548 61.1933 74.9601 61.1933 75.4369C61.1933 75.8326 61.0844 76.184 60.8666 76.4912C60.6568 76.7984 60.3585 77.0366 59.9714 77.2062C59.5843 77.3759 59.1367 77.4607 58.6286 77.4607ZM65.3748 77.4001C64.6332 77.4001 64.0562 77.1983 63.6448 76.7942C63.242 76.3822 63.04 75.8047 63.04 75.0613V72.1528H61.9028V70.7349H62.0238C62.3468 70.7349 62.5966 70.6501 62.7738 70.4805C62.9517 70.3108 63.04 70.0642 63.04 69.7412V69.2323H64.6248V70.7349H66.1369V72.1528H64.6248V74.9764C64.6248 75.6629 64.9961 76.0065 65.7377 76.0065C65.8672 76.0065 66.0081 75.9944 66.1611 75.9701V77.3395C65.9035 77.3801 65.6409 77.4001 65.3748 77.4001ZM70.5308 77.4728C69.8938 77.4728 69.3089 77.3232 68.7766 77.0245C68.2443 76.7257 67.8209 76.3137 67.5064 75.7884C67.2003 75.263 67.0467 74.6777 67.0467 74.0312C67.0467 73.3847 67.2003 72.7993 67.5064 72.274C67.8131 71.7487 68.2322 71.3366 68.7645 71.0379C69.2968 70.7392 69.886 70.5895 70.5308 70.5895C71.1683 70.5895 71.749 70.7392 72.2728 71.0379C72.8051 71.3366 73.2249 71.7487 73.531 72.274C73.8455 72.7993 74.0028 73.3847 74.0028 74.0312C74.0028 74.6856 73.8455 75.2752 73.531 75.8005C73.2249 76.3258 72.8051 76.7378 72.2728 77.0366C71.7405 77.3274 71.1598 77.4728 70.5308 77.4728ZM68.6919 74.0312C68.6919 74.605 68.8613 75.0813 69.2 75.4612C69.5472 75.8326 69.9906 76.0186 70.5308 76.0186C70.878 76.0186 71.1883 75.9338 71.4623 75.7641C71.7369 75.5945 71.9504 75.36 72.1035 75.0613C72.265 74.7541 72.3454 74.4111 72.3454 74.0312C72.3454 73.6597 72.265 73.3241 72.1035 73.0253C71.9504 72.7181 71.7369 72.48 71.4623 72.3103C71.1883 72.1328 70.878 72.0437 70.5308 72.0437C70.1763 72.0437 69.8575 72.1328 69.5751 72.3103C69.3011 72.48 69.0833 72.7145 68.9218 73.0132C68.7688 73.3119 68.6919 73.6513 68.6919 74.0312ZM75.2047 70.7349H76.6927V71.559C76.862 71.2439 77.104 71.0058 77.4185 70.844C77.7415 70.6743 78.1123 70.5895 78.5315 70.5895C78.967 70.5895 79.3662 70.6865 79.7292 70.8804C80.0921 71.0664 80.3703 71.3245 80.5639 71.656C80.7816 71.3003 81.0641 71.0337 81.4107 70.8561C81.7658 70.6786 82.165 70.5895 82.6084 70.5895C83.0681 70.5895 83.4836 70.6943 83.8544 70.9046C84.2258 71.1149 84.5162 71.4093 84.7255 71.7892C84.9353 72.1692 85.04 72.6012 85.04 73.0859V77.3274H83.4552V73.4616C83.4552 73.0253 83.3385 72.6818 83.1044 72.4315C82.8788 72.1728 82.5721 72.0437 82.185 72.0437C81.8063 72.0437 81.4996 72.1728 81.2656 72.4315C81.0321 72.6903 80.9147 73.0332 80.9147 73.4616V77.3274H79.3299V73.4616C79.3299 73.0253 79.2132 72.6818 78.9791 72.4315C78.7535 72.1728 78.4468 72.0437 78.0597 72.0437C77.681 72.0437 77.3744 72.1728 77.1403 72.4315C76.9068 72.6903 76.7894 73.0332 76.7894 73.4616V77.3274H75.2047V70.7349ZM91.0349 68.2991H93.1641L96.2732 77.3274H94.4827L93.8416 75.3884H90.3575L89.7042 77.3274H87.9259L91.0349 68.2991ZM93.3698 73.9342L92.0995 70.129L90.8293 73.9342H93.3698ZM97.2767 68.2991H98.9219V77.3274H97.2767V68.2991ZM35.1348 83.4473H36.78V92.4756H35.1348V83.4473ZM38.3805 85.8831H39.8685V86.695C40.0378 86.3878 40.2838 86.1539 40.6064 85.9921C40.9371 85.8225 41.3121 85.7377 41.7315 85.7377C42.2074 85.7377 42.6348 85.8425 43.0138 86.0527C43.3929 86.263 43.6875 86.5575 43.8968 86.9374C44.1067 87.3173 44.2113 87.7493 44.2113 88.2341V92.4756H42.6267V88.6098C42.6267 88.1814 42.5017 87.8384 42.2517 87.5797C42.0097 87.321 41.6912 87.1919 41.296 87.1919C40.9008 87.1919 40.5782 87.321 40.3282 87.5797C40.0862 87.8384 39.9653 88.1814 39.9653 88.6098V92.4756H38.3805V85.8831ZM48.0196 92.6089C47.3579 92.6089 46.7736 92.4513 46.2655 92.1362C45.7653 91.8212 45.4102 91.3891 45.2009 90.8396L46.3744 90.2336C46.5516 90.5893 46.7857 90.868 47.076 91.0698C47.3742 91.2637 47.7009 91.3607 48.0559 91.3607C48.362 91.3607 48.6003 91.3001 48.7697 91.1789C48.9469 91.0498 49.0358 90.8759 49.0358 90.6578C49.0358 90.4718 48.9632 90.3185 48.8181 90.1973C48.6729 90.0682 48.483 89.9834 48.2495 89.9428L47.1728 89.761C46.6163 89.6156 46.1844 89.369 45.8784 89.0218C45.5796 88.6661 45.4308 88.2504 45.4308 87.7736C45.4308 87.3779 45.5354 87.0265 45.7453 86.7193C45.9546 86.4042 46.2449 86.1618 46.6163 85.9921C46.995 85.8225 47.4226 85.7377 47.8987 85.7377C48.5035 85.7377 49.0358 85.8831 49.4955 86.1739C49.9552 86.4569 50.2897 86.8526 50.4996 87.3615L49.3262 87.9675C49.1967 87.6845 48.9995 87.4585 48.7334 87.2888C48.4672 87.1192 48.1727 87.0343 47.8503 87.0343C47.5841 87.0343 47.37 87.0949 47.2091 87.2161C47.0555 87.3373 46.9792 87.4949 46.9792 87.6888C46.9792 88.0444 47.2454 88.2826 47.7777 88.4037L48.8302 88.5976C49.3867 88.7509 49.8179 89.0018 50.1246 89.349C50.4307 89.6962 50.5843 90.1082 50.5843 90.5851C50.5843 90.9807 50.4754 91.3322 50.2577 91.6394C50.0478 91.9466 49.7496 92.1847 49.3625 92.3544C48.9753 92.524 48.5277 92.6089 48.0196 92.6089ZM54.7658 92.5483C54.0243 92.5483 53.4472 92.3465 53.0359 91.9423C52.633 91.5303 52.431 90.9529 52.431 90.2094V87.301H51.2938V85.8831H51.4148C51.7378 85.8831 51.9876 85.7983 52.1649 85.6286C52.3427 85.4589 52.431 85.2123 52.431 84.8894V84.3804H54.0158V85.8831H55.528V87.301H54.0158V90.1246C54.0158 90.8111 54.3872 91.1546 55.1288 91.1546C55.2582 91.1546 55.3991 91.1425 55.5522 91.1183V92.4877C55.2945 92.5283 55.032 92.5483 54.7658 92.5483ZM56.7631 85.8831H58.2511V86.8041C58.4127 86.4484 58.6425 86.1939 58.9407 86.0406C59.2389 85.8873 59.6018 85.8104 60.0295 85.8104H60.4166V87.2161H59.848C59.3962 87.2161 59.0333 87.3573 58.7592 87.6403C58.4852 87.9232 58.3479 88.311 58.3479 88.8037V92.4756H56.7631V85.8831ZM63.6346 92.621C62.8688 92.621 62.2639 92.3744 61.8199 91.8818C61.3765 91.3891 61.1546 90.7347 61.1546 89.9186V85.8831H62.7393V89.7853C62.7393 90.1973 62.8603 90.5324 63.1023 90.7911C63.3527 91.0413 63.6751 91.1668 64.0701 91.1668C64.4657 91.1668 64.7838 91.0377 65.0258 90.779C65.2762 90.5202 65.4008 90.1773 65.4008 89.7489V85.8831H66.9856V92.4756H65.4855V91.6879C65.3083 91.9951 65.0584 92.2289 64.7354 92.3907C64.4209 92.544 64.0543 92.621 63.6346 92.621ZM71.6286 92.621C70.9832 92.621 70.3947 92.4713 69.8624 92.1726C69.338 91.8654 68.9266 91.4497 68.6284 90.9244C68.3302 90.3991 68.1808 89.8137 68.1808 89.1672C68.1808 88.5207 68.3302 87.939 68.6284 87.4221C68.9266 86.8968 69.338 86.4848 69.8624 86.1861C70.3868 85.8873 70.9754 85.7377 71.6286 85.7377C72.3303 85.7377 72.9551 85.9194 73.5038 86.283C74.0524 86.6387 74.4274 87.1071 74.6288 87.6888L73.2497 88.2947C73.1209 87.9554 72.911 87.6887 72.6206 87.4949C72.3303 87.2931 71.9994 87.1919 71.6286 87.1919C71.2899 87.1919 70.9832 87.2767 70.7092 87.4464C70.4352 87.616 70.2175 87.8542 70.056 88.1614C69.9029 88.4601 69.8261 88.7994 69.8261 89.1793C69.8261 89.5592 69.9029 89.9022 70.056 90.2094C70.2175 90.5081 70.4352 90.7426 70.7092 90.9123C70.9832 91.0819 71.2899 91.1668 71.6286 91.1668C72.0079 91.1668 72.3382 91.0698 72.6206 90.8759C72.911 90.6741 73.1209 90.3991 73.2497 90.0519L74.6288 90.682C74.4353 91.2558 74.0602 91.7242 73.5038 92.0878C72.9551 92.4434 72.3303 92.621 71.6286 92.621ZM78.8194 92.5483C78.0772 92.5483 77.5008 92.3465 77.0895 91.9423C76.686 91.5303 76.4846 90.9529 76.4846 90.2094V87.301H75.3474V85.8831H75.4684C75.7908 85.8831 76.0412 85.7983 76.2184 85.6286C76.3957 85.4589 76.4846 85.2123 76.4846 84.8894V84.3804H78.0694V85.8831H79.5816V87.301H78.0694V90.1246C78.0694 90.8111 78.4402 91.1546 79.1824 91.1546C79.3112 91.1546 79.4527 91.1425 79.6058 91.1183V92.4877C79.3475 92.5283 79.0856 92.5483 78.8194 92.5483ZM80.8167 85.8831H82.4015V92.4756H80.8167V85.8831ZM80.6958 84.0653C80.6958 83.7745 80.7762 83.5485 80.9377 83.3867C81.0986 83.2249 81.3206 83.1443 81.6031 83.1443C81.8934 83.1443 82.119 83.2249 82.2805 83.3867C82.4414 83.5485 82.5225 83.7745 82.5225 84.0653C82.5225 84.3483 82.4414 84.57 82.2805 84.7318C82.1269 84.8936 81.9013 84.9742 81.6031 84.9742C81.3206 84.9742 81.0986 84.8936 80.9377 84.7318C80.7762 84.57 80.6958 84.3483 80.6958 84.0653ZM87.0827 92.621C86.4451 92.621 85.8608 92.4713 85.3285 92.1726C84.7962 91.8739 84.3728 91.4618 84.0583 90.9365C83.7516 90.4112 83.5986 89.8258 83.5986 89.1793C83.5986 88.5328 83.7516 87.9475 84.0583 87.4221C84.3643 86.8968 84.7841 86.4848 85.3164 86.1861C85.8487 85.8873 86.4373 85.7377 87.0827 85.7377C87.7196 85.7377 88.3003 85.8873 88.8247 86.1861C89.357 86.4848 89.7762 86.8968 90.0829 87.4221C90.3974 87.9475 90.5547 88.5328 90.5547 89.1793C90.5547 89.8337 90.3974 90.4233 90.0829 90.9486C89.7762 91.474 89.357 91.886 88.8247 92.1847C88.2924 92.4756 87.7117 92.621 87.0827 92.621ZM85.2438 89.1793C85.2438 89.7531 85.4132 90.2294 85.7519 90.6093C86.0985 90.9808 86.5419 91.1668 87.0827 91.1668C87.4293 91.1668 87.7396 91.0819 88.0142 90.9123C88.2882 90.7426 88.5017 90.5081 88.6553 90.2094C88.8162 89.9022 88.8973 89.5592 88.8973 89.1793C88.8973 88.8079 88.8162 88.4722 88.6553 88.1735C88.5017 87.8663 88.2882 87.6282 88.0142 87.4585C87.7396 87.281 87.4293 87.1919 87.0827 87.1919C86.7276 87.1919 86.4088 87.281 86.127 87.4585C85.8523 87.6282 85.6346 87.8627 85.4737 88.1614C85.32 88.4601 85.2438 88.7994 85.2438 89.1793ZM91.756 85.8831H93.2439V86.695C93.4133 86.3878 93.6595 86.1539 93.9819 85.9921C94.3128 85.8225 94.6878 85.7377 95.107 85.7377C95.583 85.7377 96.0107 85.8425 96.3893 86.0527C96.7686 86.263 97.0631 86.5575 97.2724 86.9374C97.4823 87.3173 97.587 87.7493 97.587 88.2341V92.4756H96.0022V88.6098C96.0022 88.1814 95.8776 87.8384 95.6272 87.5797C95.3852 87.321 95.0671 87.1919 94.6715 87.1919C94.2765 87.1919 93.9541 87.321 93.7037 87.5797C93.4617 87.8384 93.3407 88.1814 93.3407 88.6098V92.4756H91.756V85.8831ZM101.395 92.6089C100.734 92.6089 100.149 92.4513 99.6411 92.1362C99.1409 91.8212 98.7864 91.3891 98.5765 90.8396L99.75 90.2336C99.9272 90.5893 100.161 90.868 100.452 91.0698C100.75 91.2637 101.077 91.3607 101.432 91.3607C101.738 91.3607 101.976 91.3001 102.145 91.1789C102.323 91.0498 102.411 90.8759 102.411 90.6578C102.411 90.4718 102.339 90.3185 102.194 90.1973C102.049 90.0682 101.859 89.9834 101.625 89.9428L100.548 89.761C99.992 89.6156 99.5607 89.369 99.254 89.0218C98.9558 88.6661 98.8064 88.2504 98.8064 87.7736C98.8064 87.3779 98.9111 87.0265 99.1209 86.7193C99.3308 86.4042 99.6212 86.1618 99.992 85.9921C100.371 85.8225 100.798 85.7377 101.274 85.7377C101.879 85.7377 102.411 85.8831 102.871 86.1739C103.331 86.4569 103.665 86.8526 103.875 87.3615L102.702 87.9675C102.573 87.6845 102.375 87.4585 102.109 87.2888C101.843 87.1192 101.548 87.0343 101.226 87.0343C100.96 87.0343 100.746 87.0949 100.585 87.2161C100.432 87.3373 100.355 87.4949 100.355 87.6888C100.355 88.0444 100.621 88.2826 101.153 88.4037L102.206 88.5976C102.762 88.7509 103.194 89.0018 103.5 89.349C103.807 89.6962 103.96 90.1082 103.96 90.5851C103.96 90.9807 103.851 91.3322 103.633 91.6394C103.423 91.9466 103.125 92.1847 102.738 92.3544C102.351 92.524 101.903 92.6089 101.395 92.6089Z" fill="#1E1634"/>
<path opacity="0.1" d="M83.9954 13.0992H54.6902C50.6814 13.0992 47.4316 16.3546 47.4316 20.3704V49.7263C47.4316 53.742 50.6814 56.9974 54.6902 56.9974H83.9954C88.0042 56.9974 91.2539 53.742 91.2539 49.7263V20.3704C91.2539 16.3546 88.0042 13.0992 83.9954 13.0992Z" fill="#7558EA"/>
<mask id="mask0_2043_11729" style="mask-type:luminance" maskUnits="userSpaceOnUse" x="57" y="22" width="25" height="26">
<path d="M81.3045 22.7941H57.1094V47.0311H81.3045V22.7941Z" fill="white"/>
</mask>
<g mask="url(#mask0_2043_11729)">
<path d="M74.5429 24.7003C72.5456 23.074 69.935 22.4487 67.38 22.9831C64.1868 23.6514 61.5816 26.2726 60.8969 29.5053C60.3204 32.2313 61.0312 34.9677 62.8476 37.0133C63.7489 38.0282 64.2449 39.297 64.2449 40.5913V42.011C64.2449 42.9368 64.8377 43.7263 65.6627 44.019V44.8988C65.6627 46.0731 66.6166 47.0292 67.7889 47.0292H70.6245C71.7968 47.0292 72.7513 46.0731 72.7513 44.8988V44.019C73.5763 43.7263 74.1685 42.9368 74.1685 42.011V40.5913C74.1685 39.314 74.6796 38.0264 75.6075 36.9666C76.9649 35.4149 77.7131 33.4238 77.7131 31.36C77.7131 28.7678 76.5578 26.3399 74.5429 24.7003ZM71.3334 44.8988C71.3334 45.2902 71.0153 45.609 70.6245 45.609H67.7889C67.3981 45.609 67.0805 45.2902 67.0805 44.8988V44.1414H71.3334V44.8988ZM72.7513 42.011C72.7513 42.4024 72.4331 42.7211 72.0424 42.7211H66.3716C65.9809 42.7211 65.6627 42.4024 65.6627 42.011V41.3008H72.7513V42.011ZM69.2067 34.8477C69.6858 34.8477 70.1642 34.7714 70.6245 34.6187V39.8811H67.7889V34.6187C68.2498 34.7714 68.7282 34.8477 69.2067 34.8477ZM68.0217 33.1917L69.2067 30.8177L70.3917 33.1917C69.6319 33.505 68.7815 33.505 68.0217 33.1917ZM74.5411 36.0305C73.5558 37.1569 72.9479 38.5021 72.7912 39.8811H72.0424V33.4953C72.0424 33.4941 72.0424 33.4935 72.0424 33.4923C72.0424 33.3953 72.0212 33.2887 71.974 33.1887C71.9716 33.1832 71.9698 33.1778 71.9674 33.1729L69.8406 28.9127C69.7208 28.6721 69.4753 28.52 69.2067 28.52C68.9381 28.52 68.6932 28.6721 68.5728 28.9127L66.446 33.1729C66.3995 33.2668 66.3716 33.3814 66.3716 33.4923C66.3716 33.4935 66.3716 33.4947 66.3716 33.4959V39.8811H65.624C65.4722 38.493 64.8758 37.1605 63.9068 36.0693C62.3934 34.3648 61.8012 32.0792 62.2839 29.7997C62.8537 27.1088 65.0179 24.9287 67.6697 24.3731C69.8049 23.9265 71.9843 24.447 73.6489 25.8024C75.3305 27.1712 76.2953 29.1968 76.2953 31.36C76.2953 33.079 75.6722 34.7374 74.5411 36.0305Z" fill="#7558EA"/>
<path d="M59.2361 31.36H57.8183C57.4269 31.36 57.1094 31.6775 57.1094 32.0701C57.1094 32.4622 57.4269 32.7797 57.8183 32.7797H59.2361C59.6275 32.7797 59.945 32.4622 59.945 32.0701C59.945 31.6775 59.6275 31.36 59.2361 31.36Z" fill="#7558EA"/>
<path d="M59.5294 27.8093L58.5265 26.8053C58.25 26.5278 57.8012 26.5278 57.5242 26.8053C57.2471 27.0828 57.2471 27.5324 57.5242 27.8093L58.5265 28.8139C58.8035 29.0909 59.2523 29.0909 59.5294 28.8139C59.8058 28.5364 59.8058 28.0868 59.5294 27.8093Z" fill="#7558EA"/>
<path d="M59.5287 35.3264C59.2523 35.0489 58.8035 35.0489 58.5265 35.3264L57.5242 36.3304C57.2471 36.6079 57.2471 37.0569 57.5242 37.3345C57.8012 37.612 58.2494 37.612 58.5265 37.3345L59.5287 36.3304C59.8058 36.0529 59.8058 35.6033 59.5287 35.3264Z" fill="#7558EA"/>
<path d="M80.5955 31.36H79.1777C78.7863 31.36 78.4688 31.6775 78.4688 32.0701C78.4688 32.4622 78.7863 32.7797 79.1777 32.7797H80.5955C80.9869 32.7797 81.3044 32.4622 81.3044 32.0701C81.3044 31.6775 80.9869 31.36 80.5955 31.36Z" fill="#7558EA"/>
<path d="M80.8881 26.8053C80.6111 26.5278 80.1623 26.5278 79.8858 26.8053L78.8836 27.8093C78.6065 28.0868 78.6065 28.5364 78.8836 28.8139C79.16 29.0909 79.6088 29.0909 79.8858 28.8139L80.8881 27.8093C81.1652 27.5324 81.1652 27.0828 80.8881 26.8053Z" fill="#7558EA"/>
<path d="M80.8881 36.3304L79.8858 35.3264C79.6088 35.0489 79.16 35.0489 78.8836 35.3264C78.6065 35.6033 78.6065 36.0529 78.8836 36.3304L79.8858 37.3345C80.1623 37.612 80.6111 37.612 80.8881 37.3345C81.1652 37.0569 81.1652 36.6079 80.8881 36.3304Z" fill="#7558EA"/>
</g>
</svg>
