<svg width="138" height="113" viewBox="0 0 138 113" fill="none" xmlns="http://www.w3.org/2000/svg">
<path d="M129.175 0.706665H9.37259C4.69568 0.706665 0.904297 4.50462 0.904297 9.18963V104.32C0.904297 109.005 4.69568 112.803 9.37259 112.803H129.175C133.852 112.803 137.643 109.005 137.643 104.32V9.18963C137.643 4.50462 133.852 0.706665 129.175 0.706665Z" fill="white"/>
<path d="M24.3555 68.025H27.7186C28.3315 68.025 28.8759 68.1383 29.3518 68.3643C29.8276 68.5825 30.1945 68.9054 30.4526 69.3338C30.7188 69.7622 30.8519 70.2748 30.8519 70.8729C30.8519 71.4624 30.7188 71.9714 30.4526 72.3998C30.1865 72.8282 29.8155 73.1554 29.3397 73.3814C28.8719 73.6074 28.3315 73.7207 27.7186 73.7207H26.0007V77.0533H24.3555V68.025ZM27.7428 72.2665C28.1863 72.2665 28.5412 72.1411 28.8074 71.8908C29.0735 71.6321 29.2066 71.2928 29.2066 70.8729C29.2066 70.453 29.0735 70.1173 28.8074 69.867C28.5412 69.6083 28.1863 69.4792 27.7428 69.4792H26.0007V72.2665H27.7428ZM32.0669 70.4608H33.5549V71.3818C33.7162 71.0262 33.9461 70.7717 34.2444 70.6184C34.5429 70.4651 34.9058 70.3881 35.3332 70.3881H35.7203V71.7939H35.1518C34.7002 71.7939 34.3372 71.935 34.063 72.218C33.7888 72.501 33.6517 72.8888 33.6517 73.3814V77.0533H32.0669V70.4608ZM39.7128 77.1987C39.0515 77.1987 38.4627 77.0454 37.9466 76.7382C37.4385 76.431 37.0393 76.0153 36.7489 75.49C36.4666 74.9647 36.3255 74.383 36.3255 73.7449C36.3255 73.0984 36.4666 72.5167 36.7489 71.9999C37.0393 71.4745 37.4305 71.0625 37.9224 70.7638C38.4225 70.4651 38.9789 70.3154 39.5919 70.3154C40.2532 70.3154 40.8258 70.4608 41.3097 70.7517C41.7936 71.0346 42.1606 71.4224 42.4106 71.9151C42.6687 72.4077 42.7977 72.9494 42.7977 73.5389C42.7977 73.8134 42.7695 74.0358 42.713 74.2055H37.9708C38.0192 74.6902 38.2047 75.078 38.5273 75.3688C38.8499 75.6597 39.2491 75.8051 39.7249 75.8051C40.0798 75.8051 40.3823 75.7324 40.6323 75.587C40.8904 75.4337 41.096 75.2234 41.2492 74.9568L42.5316 75.587C42.33 76.0717 41.9751 76.4637 41.467 76.7625C40.9589 77.0533 40.3742 77.1987 39.7128 77.1987ZM41.1041 72.9936C41.0637 72.5894 40.9064 72.2622 40.6323 72.012C40.3581 71.7533 40.0112 71.6242 39.5919 71.6242C39.1886 71.6242 38.8459 71.7454 38.5636 71.9878C38.2813 72.2223 38.0958 72.5573 38.0071 72.9936H41.1041ZM47.1686 77.1987C46.5232 77.1987 45.9346 77.0491 45.4023 76.7503C44.8779 76.4431 44.4666 76.0275 44.1684 75.5021C43.8702 74.9768 43.7208 74.3915 43.7208 73.7449C43.7208 73.0984 43.8702 72.5167 44.1684 71.9999C44.4666 71.4745 44.8779 71.0625 45.4023 70.7638C45.9268 70.4651 46.5153 70.3154 47.1686 70.3154C47.8702 70.3154 48.4951 70.4972 49.0437 70.8607C49.5923 71.2164 49.9673 71.6848 50.1688 72.2665L48.7896 72.8724C48.6608 72.5331 48.4509 72.2665 48.1606 72.0726C47.8702 71.8708 47.5394 71.7696 47.1686 71.7696C46.8298 71.7696 46.5232 71.8545 46.2491 72.0241C45.9751 72.1938 45.7574 72.4319 45.5959 72.7391C45.4428 73.0378 45.366 73.3771 45.366 73.7571C45.366 74.137 45.4428 74.4799 45.5959 74.7871C45.7574 75.0859 45.9751 75.3204 46.2491 75.49C46.5232 75.6597 46.8298 75.7445 47.1686 75.7445C47.5478 75.7445 47.8781 75.6476 48.1606 75.4537C48.4509 75.2519 48.6608 74.9768 48.7896 74.6296L50.1688 75.2598C49.9752 75.8336 49.6002 76.302 49.0437 76.6655C48.4951 77.0212 47.8702 77.1987 47.1686 77.1987ZM51.3592 70.4608H52.9439V77.0533H51.3592V70.4608ZM51.2382 68.643C51.2382 68.3522 51.3186 68.1262 51.4801 67.9644C51.6416 67.8026 51.863 67.722 52.1455 67.722C52.4358 67.722 52.6615 67.8026 52.823 67.9644C52.9845 68.1262 53.0649 68.3522 53.0649 68.643C53.0649 68.926 52.9845 69.1478 52.823 69.3096C52.6699 69.4714 52.4437 69.5519 52.1455 69.5519C51.863 69.5519 51.6416 69.4714 51.4801 69.3096C51.3186 69.1478 51.2382 68.926 51.2382 68.643ZM56.875 77.1866C56.2139 77.1866 55.629 77.0291 55.1209 76.714C54.6207 76.3989 54.2662 75.9669 54.0563 75.4173L55.2298 74.8114C55.407 75.1671 55.6411 75.4458 55.9314 75.6475C56.2296 75.8414 56.5563 75.9384 56.9113 75.9384C57.218 75.9384 57.4557 75.8778 57.6251 75.7566C57.8023 75.6276 57.8912 75.4537 57.8912 75.2355C57.8912 75.0495 57.8187 74.8962 57.6735 74.775C57.5283 74.646 57.339 74.5611 57.1049 74.5205L56.0282 74.3388C55.4717 74.1933 55.0404 73.9467 54.7338 73.5995C54.4356 73.2438 54.2862 72.8282 54.2862 72.3513C54.2862 71.9556 54.3908 71.6042 54.6007 71.297C54.8106 70.9819 55.1009 70.7396 55.4717 70.5699C55.851 70.4002 56.278 70.3154 56.7541 70.3154C57.3589 70.3154 57.8912 70.4608 58.3509 70.7517C58.8107 71.0346 59.1451 71.4303 59.355 71.9393L58.1816 72.5452C58.0527 72.2622 57.8549 72.0362 57.5888 71.8666C57.3227 71.6969 57.0281 71.6121 56.7057 71.6121C56.4395 71.6121 56.226 71.6727 56.0645 71.7939C55.9115 71.9151 55.8347 72.0726 55.8347 72.2665C55.8347 72.6222 56.1008 72.8603 56.6331 72.9815L57.6856 73.1754C58.2421 73.3287 58.6733 73.5795 58.98 73.9267C59.2867 74.2739 59.4397 74.686 59.4397 75.1628C59.4397 75.5585 59.3308 75.9099 59.1131 76.2171C58.9032 76.5243 58.605 76.7625 58.2179 76.9321C57.8308 77.1018 57.3831 77.1866 56.875 77.1866ZM60.6217 70.4608H62.2064V77.0533H60.6217V70.4608ZM60.5007 68.643C60.5007 68.3522 60.5811 68.1262 60.7426 67.9644C60.9035 67.8026 61.1255 67.722 61.408 67.722C61.6983 67.722 61.924 67.8026 62.0855 67.9644C62.2464 68.1262 62.3274 68.3522 62.3274 68.643C62.3274 68.926 62.2464 69.1478 62.0855 69.3096C61.9318 69.4714 61.7062 69.5519 61.408 69.5519C61.1255 69.5519 60.9035 69.4714 60.7426 69.3096C60.5811 69.1478 60.5007 68.926 60.5007 68.643ZM66.8876 77.1987C66.25 77.1987 65.6657 77.0491 65.1334 76.7503C64.6012 76.4516 64.1777 76.0396 63.8632 75.5143C63.5565 74.9889 63.4035 74.4036 63.4035 73.7571C63.4035 73.1105 63.5565 72.5252 63.8632 71.9999C64.1693 71.4745 64.5891 71.0625 65.1213 70.7638C65.6536 70.4651 66.2422 70.3154 66.8876 70.3154C67.5245 70.3154 68.1052 70.4651 68.6296 70.7638C69.1619 71.0625 69.5811 71.4745 69.8878 71.9999C70.2023 72.5252 70.3596 73.1105 70.3596 73.7571C70.3596 74.4115 70.2023 75.001 69.8878 75.5264C69.5811 76.0517 69.1619 76.4637 68.6296 76.7625C68.0973 77.0533 67.5167 77.1987 66.8876 77.1987ZM65.0488 73.7571C65.0488 74.3309 65.2181 74.8071 65.5569 75.187C65.9035 75.5585 66.3468 75.7445 66.8876 75.7445C67.2342 75.7445 67.5445 75.6597 67.8191 75.49C68.0931 75.3204 68.3066 75.0859 68.4603 74.7871C68.6212 74.4799 68.7022 74.137 68.7022 73.7571C68.7022 73.3856 68.6212 73.0499 68.4603 72.7512C68.3066 72.444 68.0931 72.2059 67.8191 72.0362C67.5445 71.8587 67.2342 71.7696 66.8876 71.7696C66.5325 71.7696 66.2138 71.8587 65.9319 72.0362C65.6573 72.2059 65.4395 72.4404 65.2786 72.7391C65.125 73.0378 65.0488 73.3771 65.0488 73.7571ZM71.5609 70.4608H73.0489V71.2728C73.2182 70.9656 73.4644 70.7317 73.7868 70.5699C74.1177 70.4002 74.4927 70.3154 74.9119 70.3154C75.3879 70.3154 75.8156 70.4202 76.1942 70.6305C76.5735 70.8407 76.8681 71.1352 77.0774 71.5151C77.2873 71.8951 77.3919 72.3271 77.3919 72.8118V77.0533H75.8071V73.1875C75.8071 72.7591 75.6825 72.4161 75.4321 72.1574C75.1901 71.8987 74.872 71.7696 74.4764 71.7696C74.0814 71.7696 73.759 71.8987 73.5086 72.1574C73.2666 72.4161 73.1457 72.7591 73.1457 73.1875V77.0533H71.5609V70.4608ZM81.3091 74.7023H78.9622V73.3329H81.3091V70.994H82.6761V73.3329H85.0109V74.7023H82.6761V77.0533H81.3091V74.7023ZM89.0019 68.025H90.2843L94.5789 73.8177V68.025H96.2242V77.0533H94.9297L90.6472 71.1516V77.0533H89.0019V68.025ZM100.957 77.1987C100.296 77.1987 99.7065 77.0454 99.1905 76.7382C98.6824 76.431 98.2832 76.0153 97.9928 75.49C97.7104 74.9647 97.5694 74.383 97.5694 73.7449C97.5694 73.0984 97.7104 72.5167 97.9928 71.9999C98.2832 71.4745 98.6745 71.0625 99.1663 70.7638C99.6665 70.4651 100.223 70.3154 100.836 70.3154C101.497 70.3154 102.07 70.4608 102.554 70.7517C103.038 71.0346 103.405 71.4224 103.655 71.9151C103.913 72.4077 104.042 72.9494 104.042 73.5389C104.042 73.8134 104.013 74.0358 103.957 74.2055H99.2147C99.2631 74.6902 99.4488 75.078 99.7712 75.3688C100.094 75.6597 100.493 75.8051 100.969 75.8051C101.324 75.8051 101.626 75.7324 101.876 75.587C102.134 75.4337 102.34 75.2234 102.493 74.9568L103.775 75.587C103.574 76.0717 103.219 76.4637 102.711 76.7625C102.203 77.0533 101.618 77.1987 100.957 77.1987ZM102.348 72.9936C102.307 72.5894 102.15 72.2622 101.876 72.012C101.602 71.7533 101.255 71.6242 100.836 71.6242C100.432 71.6242 100.09 71.7454 99.8075 71.9878C99.525 72.2223 99.3399 72.5573 99.251 72.9936H102.348ZM104.638 70.4608H106.307L107.687 74.6175L109.15 70.4608H110.554L112.005 74.6054L113.385 70.4608H115.054L112.792 77.0533H111.376L109.852 72.6058L108.304 77.0533H106.9L104.638 70.4608ZM47.9833 83.1732H49.556L52.5562 87.245L55.4838 83.1732H57.0565V92.2014H55.3991V86.0695L52.6167 89.7777H52.4231L49.6286 85.9483V92.2014H47.9833V83.1732ZM61.8665 92.3469C61.229 92.3469 60.6446 92.1972 60.1124 91.8985C59.5801 91.5998 59.1566 91.1877 58.8421 90.6624C58.5354 90.1371 58.3824 89.5517 58.3824 88.9052C58.3824 88.2587 58.5354 87.6734 58.8421 87.148C59.1482 86.6227 59.568 86.2107 60.1003 85.9119C60.6325 85.6132 61.2211 85.4636 61.8665 85.4636C62.5034 85.4636 63.0841 85.6132 63.6085 85.9119C64.1408 86.2107 64.56 86.6227 64.8667 87.148C65.1812 87.6734 65.3385 88.2587 65.3385 88.9052C65.3385 89.5596 65.1812 90.1492 64.8667 90.6745C64.56 91.1999 64.1408 91.6119 63.6085 91.9106C63.0763 92.2015 62.4956 92.3469 61.8665 92.3469ZM60.0277 88.9052C60.0277 89.479 60.197 89.9553 60.5358 90.3352C60.8824 90.7066 61.3257 90.8926 61.8665 90.8926C62.2131 90.8926 62.5234 90.8078 62.798 90.6382C63.072 90.4685 63.2855 90.234 63.4392 89.9353C63.6001 89.6281 63.6811 89.2851 63.6811 88.9052C63.6811 88.5338 63.6001 88.1981 63.4392 87.8994C63.2855 87.5922 63.072 87.354 62.798 87.1844C62.5234 87.0068 62.2131 86.9178 61.8665 86.9178C61.5114 86.9178 61.1927 87.0068 60.9108 87.1844C60.6362 87.354 60.4184 87.5885 60.2575 87.8873C60.1039 88.186 60.0277 88.5253 60.0277 88.9052ZM69.6011 92.3469C68.972 92.3469 68.4034 92.1972 67.8953 91.8985C67.3951 91.5913 67.0001 91.1756 66.7098 90.6503C66.4194 90.1249 66.2742 89.5433 66.2742 88.9052C66.2742 88.2672 66.4194 87.6855 66.7098 87.1601C67.0001 86.6348 67.3993 86.2228 67.9074 85.9241C68.4155 85.6169 68.9756 85.4636 69.589 85.4636C70.0082 85.4636 70.391 85.5363 70.7382 85.6817C71.0848 85.8192 71.3752 86.0168 71.6093 86.2755V83.0277H73.1941V92.2014H71.6939V91.4743C71.452 91.7573 71.1496 91.9754 70.7866 92.1287C70.4237 92.2742 70.0281 92.3469 69.6011 92.3469ZM67.9195 88.9052C67.9195 89.2851 67.9957 89.6281 68.1494 89.9353C68.3103 90.234 68.5323 90.4685 68.8147 90.6382C69.0966 90.8078 69.4154 90.8926 69.7704 90.8926C70.1249 90.8926 70.4394 90.8078 70.714 90.6382C70.9959 90.4685 71.2137 90.234 71.3673 89.9353C71.5282 89.6281 71.6093 89.2851 71.6093 88.9052C71.6093 88.5253 71.5282 88.186 71.3673 87.8873C71.2137 87.5801 70.9959 87.3419 70.714 87.1723C70.4316 87.0026 70.117 86.9178 69.7704 86.9178C69.4154 86.9178 69.0966 87.0068 68.8147 87.1844C68.5323 87.354 68.3103 87.5922 68.1494 87.8994C67.9957 88.1981 67.9195 88.5338 67.9195 88.9052ZM77.0151 92.3469C76.2493 92.3469 75.6444 92.1003 75.2004 91.6076C74.7571 91.115 74.5351 90.4606 74.5351 89.6444V85.609H76.1198V89.5111C76.1198 89.9232 76.2408 90.2582 76.4828 90.517C76.7332 90.7672 77.0556 90.8926 77.4506 90.8926C77.8462 90.8926 78.1643 90.7636 78.4063 90.5049C78.6567 90.2461 78.7813 89.9032 78.7813 89.4748V85.609H80.3661V92.2014H78.866V91.4137C78.6888 91.7209 78.4389 91.9548 78.1159 92.1166C77.8014 92.2699 77.4349 92.3469 77.0151 92.3469ZM81.8396 83.0277H83.4244V92.2014H81.8396V83.0277ZM88.0087 92.3469C87.347 92.3469 86.7584 92.1936 86.2425 91.8864C85.7344 91.5792 85.3352 91.1635 85.0448 90.6382C84.7623 90.1128 84.6214 89.5311 84.6214 88.8931C84.6214 88.2466 84.7623 87.6649 85.0448 87.148C85.3352 86.6227 85.7259 86.2107 86.2183 85.9119C86.7179 85.6132 87.2744 85.4636 87.8877 85.4636C88.5489 85.4636 89.1217 85.609 89.6056 85.8998C90.0895 86.1828 90.4561 86.5706 90.7065 87.0632C90.9642 87.5558 91.0936 88.0975 91.0936 88.6871C91.0936 88.9616 91.0652 89.1839 91.0089 89.3536H86.2667C86.3151 89.8383 86.5002 90.2261 86.8232 90.517C87.1456 90.8078 87.5448 90.9532 88.0208 90.9532C88.3753 90.9532 88.6777 90.8805 88.9281 90.7351C89.1858 90.5818 89.3915 90.3715 89.5451 90.1049L90.8275 90.7351C90.6254 91.2199 90.271 91.6119 89.7629 91.9106C89.2548 92.2015 88.6699 92.3469 88.0087 92.3469ZM89.3999 88.1417C89.3594 87.7376 89.2021 87.4104 88.9281 87.1601C88.6535 86.9014 88.3069 86.7723 87.8877 86.7723C87.4843 86.7723 87.1413 86.8935 86.8595 87.1359C86.577 87.3704 86.3913 87.7055 86.303 88.1417H89.3999Z" fill="#1E1634"/>
<path opacity="0.1" d="M83.9954 12.8252H54.6902C50.6814 12.8252 47.4316 16.0806 47.4316 20.0963V49.4523C47.4316 53.468 50.6814 56.7234 54.6902 56.7234H83.9954C88.0042 56.7234 91.2539 53.468 91.2539 49.4523V20.0963C91.2539 16.0806 88.0042 12.8252 83.9954 12.8252Z" fill="#7558EA"/>
<path d="M70.3986 40.4043H59.6807C58.696 40.4043 57.8945 39.6016 57.8945 38.6149V26.6857C57.8945 25.699 58.696 24.8964 59.6807 24.8964H62.4595C62.788 24.8964 63.0547 25.1635 63.0547 25.4928C63.0547 25.8221 62.788 26.0893 62.4595 26.0893H59.6807C59.3523 26.0893 59.0855 26.3568 59.0855 26.6857V38.6149C59.0855 38.9438 59.3523 39.2114 59.6807 39.2114H70.3986C70.727 39.2114 70.9938 39.4785 70.9938 39.8078C70.9938 40.1371 70.727 40.4043 70.3986 40.4043Z" fill="#7558EA"/>
<path d="M77.5435 34.0028C77.2151 34.0028 76.9483 33.7357 76.9483 33.4064V26.6857C76.9483 26.3568 76.681 26.0893 76.3525 26.0893H73.5743C73.2453 26.0893 72.9785 25.8221 72.9785 25.4928C72.9785 25.1635 73.2453 24.8964 73.5743 24.8964H76.3525C77.3379 24.8964 78.1393 25.699 78.1393 26.6857V33.4064C78.1393 33.7357 77.8726 34.0028 77.5435 34.0028Z" fill="#7558EA"/>
<path d="M65.6349 43.5854C65.3058 43.5854 65.0391 43.3182 65.0391 42.9889V39.8078C65.0391 39.4785 65.3058 39.2114 65.6349 39.2114C65.9633 39.2114 66.2301 39.4785 66.2301 39.8078V42.9889C66.2301 43.3182 65.9633 43.5854 65.6349 43.5854Z" fill="#7558EA"/>
<path d="M70.3988 43.5853H63.2534C62.925 43.5853 62.6582 43.3182 62.6582 42.9889C62.6582 42.6596 62.925 42.3925 63.2534 42.3925H70.3988C70.7273 42.3925 70.994 42.6596 70.994 42.9889C70.994 43.3182 70.7273 43.5853 70.3988 43.5853Z" fill="#7558EA"/>
<path d="M70.3986 37.6208H58.4897C58.1613 37.6208 57.8945 37.3536 57.8945 37.0243C57.8945 36.695 58.1613 36.4279 58.4897 36.4279H70.3986C70.727 36.4279 70.9938 36.695 70.9938 37.0243C70.9938 37.3536 70.727 37.6208 70.3986 37.6208Z" fill="#7558EA"/>
<path d="M72.3827 34.4397H63.6495C62.6647 34.4397 61.8633 33.6371 61.8633 32.6504V25.0952C61.8633 24.1085 62.6647 23.3058 63.6495 23.3058H72.3827C73.3675 23.3058 74.1689 24.1085 74.1689 25.0952V32.6504C74.1689 33.6371 73.3675 34.4397 72.3827 34.4397ZM63.6495 24.4987C63.3216 24.4987 63.0543 24.7663 63.0543 25.0952V32.6504C63.0543 32.9793 63.3216 33.2468 63.6495 33.2468H72.3827C72.7112 33.2468 72.9779 32.9793 72.9779 32.6504V25.0952C72.9779 24.7663 72.7112 24.4987 72.3827 24.4987H63.6495Z" fill="#7558EA"/>
<path d="M66.7225 32.4515C66.555 32.4515 66.388 32.3809 66.2701 32.2434C66.0566 31.9933 66.085 31.6167 66.3348 31.4023L70.0088 28.2472C70.1915 28.0908 70.4492 28.0593 70.6633 28.1664L73.8389 29.757C74.1329 29.9046 74.2521 30.2626 74.1051 30.5574C73.9581 30.8521 73.6006 30.9709 73.306 30.8241L70.4843 29.4106L67.1097 32.3079C66.9978 32.4042 66.8592 32.4515 66.7225 32.4515Z" fill="#7558EA"/>
<path d="M62.4596 32.4775C62.2781 32.4775 62.0997 32.3952 61.9823 32.2391C61.7851 31.9754 61.8384 31.6015 62.1015 31.4038L65.2771 29.018C65.4949 28.8549 65.7937 28.8596 66.0066 29.0296L67.9912 30.6202C68.2483 30.826 68.2894 31.2011 68.0843 31.4586C67.8787 31.7152 67.5049 31.7579 67.2472 31.5514L65.6231 30.2497L62.8165 32.3583C62.7088 32.4387 62.5836 32.4775 62.4596 32.4775Z" fill="#7558EA"/>
<path d="M67.6169 28.8731C66.6315 28.8731 65.8301 28.0705 65.8301 27.0838C65.8301 26.097 66.6315 25.294 67.6169 25.294C68.6016 25.294 69.4031 26.097 69.4031 27.0838C69.4031 28.0705 68.6016 28.8731 67.6169 28.8731ZM67.6169 26.487C67.2884 26.487 67.0211 26.7549 67.0211 27.0838C67.0211 27.4127 67.2884 27.6803 67.6169 27.6803C67.9453 27.6803 68.2121 27.4127 68.2121 27.0838C68.2121 26.7549 67.9453 26.487 67.6169 26.487Z" fill="#7558EA"/>
<path d="M79.9254 45.9711H70.3985C70.0695 45.9711 69.8027 45.7039 69.8027 45.3748V35.8315C69.8027 35.5021 70.0695 35.235 70.3985 35.235H79.9254C80.2538 35.235 80.5206 35.5021 80.5206 35.8315V45.3748C80.5206 45.7039 80.2538 45.9711 79.9254 45.9711ZM70.9937 44.7783H79.3296V36.4279H70.9937V44.7783Z" fill="#7558EA"/>
<path d="M78.3376 39.2246H71.9864C71.6574 39.2246 71.3906 38.9575 71.3906 38.6282C71.3906 38.2989 71.6574 38.0317 71.9864 38.0317H78.3376C78.6661 38.0317 78.9329 38.2989 78.9329 38.6282C78.9329 38.9575 78.6661 39.2246 78.3376 39.2246Z" fill="#7558EA"/>
<path d="M73.9702 39.8211C73.6417 39.8211 73.375 39.554 73.375 39.2247V38.0318C73.375 37.7025 73.6417 37.4353 73.9702 37.4353C74.2986 37.4353 74.5654 37.7025 74.5654 38.0318V39.2247C74.5654 39.554 74.2986 39.8211 73.9702 39.8211Z" fill="#7558EA"/>
<path d="M78.3376 43.1878H71.9864C71.6574 43.1878 71.3906 42.9206 71.3906 42.5913C71.3906 42.262 71.6574 41.9948 71.9864 41.9948H78.3376C78.6661 41.9948 78.9329 42.262 78.9329 42.5913C78.9329 42.9206 78.6661 43.1878 78.3376 43.1878Z" fill="#7558EA"/>
<path d="M76.3518 43.7711H76.3385C76.0101 43.7638 75.7487 43.4907 75.756 43.1615L75.782 41.9949C75.7893 41.6699 76.0548 41.4117 76.3772 41.4117H76.3905C76.7196 41.4191 76.9803 41.692 76.973 42.0214L76.947 43.1879C76.9397 43.5129 76.6748 43.7711 76.3518 43.7711Z" fill="#7558EA"/>
</svg>
