<svg width="138" height="113" viewBox="0 0 138 113" fill="none" xmlns="http://www.w3.org/2000/svg">
<path d="M128.847 0.706665H9.04446C4.36756 0.706665 0.576172 4.50462 0.576172 9.18963V104.32C0.576172 109.005 4.36756 112.803 9.04446 112.803H128.847C133.524 112.803 137.315 109.005 137.315 104.32V9.18963C137.315 4.50462 133.524 0.706665 128.847 0.706665Z" fill="white"/>
<path d="M33.8186 68.025H35.4639V71.9635H39.2988V68.025H40.9562V77.0533H39.2988V73.4177H35.4639V77.0533H33.8186V68.025ZM42.5579 70.4608H44.1427V77.0533H42.5579V70.4608ZM42.4369 68.643C42.4369 68.3522 42.5174 68.1262 42.6789 67.9644C42.8404 67.8026 43.0618 67.722 43.3442 67.722C43.6346 67.722 43.8602 67.8026 44.0217 67.9644C44.1832 68.1262 44.2637 68.3522 44.2637 68.643C44.2637 68.926 44.1832 69.1478 44.0217 69.3096C43.8687 69.4714 43.6424 69.5519 43.3442 69.5519C43.0618 69.5519 42.8404 69.4714 42.6789 69.3096C42.5174 69.1478 42.4369 68.926 42.4369 68.643ZM48.7996 79.7194C48.0574 79.7194 47.4042 79.5418 46.8398 79.1862C46.2833 78.839 45.9005 78.3742 45.6906 77.7925L47.1665 77.2351C47.2633 77.5502 47.4568 77.8004 47.7471 77.9864C48.0375 78.1724 48.3883 78.2652 48.7996 78.2652C49.2835 78.2652 49.6749 78.1276 49.9731 77.8531C50.2798 77.5786 50.4328 77.203 50.4328 76.7261V76.0111C49.9652 76.528 49.3319 76.7867 48.5335 76.7867C47.9286 76.7867 47.38 76.6455 46.8882 76.3625C46.4043 76.0796 46.0251 75.6918 45.7511 75.1992C45.477 74.7066 45.3397 74.1527 45.3397 73.5389C45.3397 72.9251 45.4728 72.3756 45.7389 71.8908C46.013 71.3982 46.3922 71.014 46.8761 70.7396C47.36 70.4566 47.9002 70.3154 48.4972 70.3154C49.344 70.3154 50.0173 70.6141 50.5175 71.2122V70.4608H52.0176V76.7261C52.0176 77.2999 51.8803 77.8125 51.6063 78.2652C51.3323 78.7257 50.9488 79.0813 50.457 79.3316C49.9731 79.5903 49.4208 79.7194 48.7996 79.7194ZM46.985 73.5511C46.985 74.06 47.1465 74.4842 47.4689 74.8235C47.7998 75.1549 48.2189 75.3204 48.727 75.3204C49.2273 75.3204 49.6344 75.1549 49.9489 74.8235C50.2713 74.4921 50.4328 74.0679 50.4328 73.5511C50.4328 73.0342 50.2713 72.61 49.9489 72.2786C49.6265 71.9393 49.2188 71.7696 48.727 71.7696C48.2268 71.7696 47.8119 71.9393 47.481 72.2786C47.1501 72.6179 46.985 73.0421 46.985 73.5511ZM53.4977 67.8796H55.0825V71.1152C55.2682 70.8565 55.5138 70.659 55.8205 70.5214C56.1271 70.3839 56.4695 70.3154 56.8487 70.3154C57.3248 70.3154 57.7518 70.4202 58.1311 70.6305C58.5103 70.8407 58.8043 71.1352 59.0142 71.5151C59.2241 71.8951 59.3288 72.3271 59.3288 72.8118V77.0533H57.744V73.1875C57.744 72.7591 57.6188 72.4161 57.369 72.1574C57.127 71.8987 56.8082 71.7696 56.4132 71.7696C56.0261 71.7696 55.7073 71.8987 55.4575 72.1574C55.2077 72.4161 55.0825 72.7591 55.0825 73.1875V77.0533H53.4977V67.8796ZM67.6216 77.1987C66.7022 77.1987 65.8639 77.0006 65.1053 76.6049C64.3553 76.2092 63.7625 75.6554 63.327 74.9447C62.9 74.2339 62.6858 73.4299 62.6858 72.5331C62.6858 71.6606 62.8915 70.8686 63.3028 70.1579C63.7141 69.4471 64.2791 68.8897 64.9965 68.4855C65.7145 68.0814 66.5129 67.8796 67.3918 67.8796C68.2713 67.8796 69.0697 68.0814 69.7871 68.4855C70.5051 68.8897 71.0694 69.4471 71.4807 70.1579C71.9005 70.8686 72.1098 71.6606 72.1098 72.5331C72.1098 73.1311 72.0173 73.6965 71.8316 74.2297C71.6465 74.755 71.3803 75.2234 71.0331 75.6354L72.0735 76.7867L70.8638 77.8047L69.8234 76.6534C69.1623 77.0169 68.4285 77.1987 67.6216 77.1987ZM64.3311 72.5331C64.3311 73.1311 64.4642 73.6722 64.7303 74.157C64.9965 74.6417 65.3594 75.0216 65.8191 75.2961C66.2873 75.5627 66.8111 75.696 67.3918 75.696C67.8599 75.696 68.2991 75.6033 68.7104 75.4173L67.053 73.5874L68.2749 72.5816L69.9081 74.3872C70.271 73.8619 70.4524 73.2438 70.4524 72.5331C70.4524 71.935 70.3194 71.3982 70.0532 70.9213C69.7871 70.4366 69.4205 70.0609 68.9524 69.7943C68.4926 69.5198 67.9724 69.3823 67.3918 69.3823C66.8111 69.3823 66.2873 69.5198 65.8191 69.7943C65.3594 70.0609 64.9965 70.4366 64.7303 70.9213C64.4642 71.3982 64.3311 71.935 64.3311 72.5331ZM75.7869 77.1987C75.0205 77.1987 74.4156 76.9521 73.9722 76.4595C73.5283 75.9669 73.3069 75.3125 73.3069 74.4963V70.4608H74.8917V74.363C74.8917 74.775 75.0126 75.1101 75.2546 75.3688C75.5044 75.6191 75.8268 75.7445 76.2224 75.7445C76.6174 75.7445 76.9361 75.6154 77.1781 75.3567C77.4279 75.098 77.5531 74.755 77.5531 74.3266V70.4608H79.1379V77.0533H77.6378V76.2656C77.46 76.5728 77.2102 76.8067 76.8878 76.9685C76.5732 77.1218 76.2061 77.1987 75.7869 77.1987ZM82.6069 77.1987C81.9137 77.1987 81.3608 77.0291 80.9495 76.6897C80.5466 76.3504 80.3446 75.8899 80.3446 75.3082C80.3446 74.7508 80.5346 74.2903 80.9132 73.9267C81.2925 73.5632 81.8611 73.3208 82.619 73.1996L84.5788 72.8845V72.6664C84.5788 72.3756 84.4663 72.1374 84.24 71.9514C84.0223 71.7654 83.7319 71.6727 83.369 71.6727C83.0303 71.6727 82.7278 71.7654 82.4617 71.9514C82.204 72.1289 82.0141 72.3677 81.8931 72.6664L80.5987 72.0362C80.7923 71.5194 81.1473 71.1031 81.6633 70.788C82.1799 70.4729 82.7684 70.3154 83.4295 70.3154C83.9618 70.3154 84.4336 70.4166 84.8449 70.6184C85.2647 70.8123 85.5871 71.091 85.8127 71.4545C86.0468 71.8102 86.1635 72.2138 86.1635 72.6664V77.0533H84.6635V76.3504C84.1475 76.9158 83.4622 77.1987 82.6069 77.1987ZM81.9899 75.2476C81.9899 75.4737 82.0746 75.6554 82.2439 75.793C82.4133 75.922 82.6311 75.9869 82.8972 75.9869C83.3896 75.9869 83.7924 75.8336 84.107 75.5264C84.4215 75.2113 84.5788 74.8235 84.5788 74.363V74.0964L82.9214 74.3751C82.6069 74.4399 82.3734 74.5448 82.2198 74.6902C82.0667 74.8277 81.9899 75.0132 81.9899 75.2476ZM87.6286 67.8796H89.2134V77.0533H87.6286V67.8796ZM90.6766 70.4608H92.2614V77.0533H90.6766V70.4608ZM90.5556 68.643C90.5556 68.3522 90.636 68.1262 90.7975 67.9644C90.959 67.8026 91.1804 67.722 91.4629 67.722C91.7533 67.722 91.9789 67.8026 92.1404 67.9644C92.3019 68.1262 92.3823 68.3522 92.3823 68.643C92.3823 68.926 92.3019 69.1478 92.1404 69.3096C91.9873 69.4714 91.7611 69.5519 91.4629 69.5519C91.1804 69.5519 90.959 69.4714 90.7975 69.3096C90.636 69.1478 90.5556 68.926 90.5556 68.643ZM96.7247 77.126C95.9825 77.126 95.4061 76.9242 94.9948 76.5201C94.5913 76.1081 94.3899 75.5306 94.3899 74.7871V71.8787H93.2527V70.4608H93.3737C93.6961 70.4608 93.9465 70.376 94.1238 70.2063C94.301 70.0367 94.3899 69.7901 94.3899 69.4671V68.9581H95.9747V70.4608H97.4869V71.8787H95.9747V74.7023C95.9747 75.3888 96.3455 75.7324 97.0877 75.7324C97.2165 75.7324 97.358 75.7203 97.5111 75.696V77.0654C97.2528 77.106 96.9909 77.126 96.7247 77.126ZM100.682 76.9564L98.1172 70.4608H99.8229L101.529 75.0053L103.222 70.4608H104.94L101.384 79.477H99.6778L100.682 76.9564ZM33.959 92.3469C33.2494 92.3469 32.6325 92.2136 32.108 91.947C31.5921 91.6804 31.1886 91.3453 30.8983 90.9411C30.6079 90.5291 30.4229 90.1007 30.3418 89.6566L31.8903 89.2445C32.0113 89.7371 32.2532 90.1213 32.6161 90.3958C32.9791 90.6703 33.4351 90.8078 33.9831 90.8078C34.4029 90.8078 34.7417 90.703 34.9993 90.4927C35.2655 90.2825 35.3986 90.0322 35.3986 89.7414C35.3986 89.4748 35.3018 89.2445 35.1082 89.0506C34.9231 88.8489 34.6691 88.7156 34.3461 88.6507L32.9912 88.3841C32.2738 88.2466 31.7088 87.9357 31.2975 87.451C30.8862 86.9663 30.6805 86.3767 30.6805 85.6817C30.6805 85.197 30.8178 84.7528 31.0918 84.3486C31.3743 83.9366 31.7451 83.6137 32.2048 83.3792C32.673 83.1447 33.169 83.0277 33.6928 83.0277C34.3624 83.0277 34.931 83.141 35.3986 83.3671C35.8667 83.5931 36.2297 83.8803 36.4873 84.2275C36.7535 84.5668 36.9313 84.9261 37.0196 85.306L35.4833 85.7908C35.3139 85.3545 35.084 85.0437 34.7937 84.8576C34.5033 84.6637 34.1368 84.5668 33.6928 84.5668C33.443 84.5668 33.2174 84.6195 33.0153 84.7243C32.8218 84.8292 32.6687 84.9667 32.5556 85.1364C32.451 85.2981 32.3984 85.4636 32.3984 85.6332C32.3984 85.8998 32.4873 86.1343 32.6645 86.3361C32.8423 86.53 33.0879 86.6554 33.4025 86.7118L34.6848 86.9905C35.4675 87.1601 36.0724 87.4831 36.4995 87.96C36.9271 88.4284 37.1406 88.99 37.1406 89.6444C37.1406 90.1128 37.0118 90.5533 36.7535 90.9654C36.4958 91.3774 36.1244 91.7125 35.6405 91.9712C35.1651 92.2214 34.6044 92.3469 33.959 92.3469ZM41.6101 92.3469C40.9653 92.3469 40.3761 92.1972 39.8438 91.8985C39.32 91.5913 38.9087 91.1756 38.6099 90.6503C38.3117 90.1249 38.1622 89.5396 38.1622 88.8931C38.1622 88.2466 38.3117 87.6649 38.6099 87.148C38.9087 86.6227 39.32 86.2107 39.8438 85.9119C40.3682 85.6132 40.9568 85.4636 41.6101 85.4636C42.3117 85.4636 42.9372 85.6453 43.4852 86.0089C44.0338 86.3646 44.4088 86.833 44.6103 87.4146L43.2311 88.0206C43.1023 87.6812 42.8924 87.4146 42.6021 87.2207C42.3117 87.019 41.9814 86.9178 41.6101 86.9178C41.2713 86.9178 40.9653 87.0026 40.6907 87.1723C40.4167 87.3419 40.1989 87.5801 40.0374 87.8873C39.8843 88.186 39.8075 88.5253 39.8075 88.9052C39.8075 89.2851 39.8843 89.6281 40.0374 89.9353C40.1989 90.234 40.4167 90.4685 40.6907 90.6382C40.9653 90.8078 41.2713 90.8926 41.6101 90.8926C41.9893 90.8926 42.3202 90.7957 42.6021 90.6018C42.8924 90.4 43.1023 90.1249 43.2311 89.7777L44.6103 90.4079C44.4167 90.9817 44.0417 91.4501 43.4852 91.8137C42.9372 92.1693 42.3117 92.3469 41.6101 92.3469ZM47.7617 92.3469C47.0679 92.3469 46.5156 92.1772 46.1043 91.8379C45.7008 91.4986 45.4994 91.0381 45.4994 90.4564C45.4994 89.8989 45.6887 89.4384 46.068 89.0749C46.4473 88.7113 47.0158 88.4689 47.7738 88.3478L49.7336 88.0327V87.8145C49.7336 87.5237 49.6204 87.2856 49.3948 87.0996C49.1771 86.9135 48.8867 86.8208 48.5238 86.8208C48.1851 86.8208 47.8826 86.9135 47.6165 87.0996C47.3582 87.2771 47.1689 87.5158 47.0479 87.8145L45.7535 87.1844C45.947 86.6675 46.3021 86.2513 46.818 85.9362C47.334 85.6211 47.9232 85.4636 48.5843 85.4636C49.1166 85.4636 49.5884 85.5647 49.9997 85.7665C50.4189 85.9604 50.7419 86.2391 50.9675 86.6027C51.2016 86.9584 51.3183 87.3619 51.3183 87.8145V92.2015H49.8183V91.4986C49.3023 92.0639 48.6163 92.3469 47.7617 92.3469ZM47.1447 90.3958C47.1447 90.6218 47.2294 90.8036 47.3987 90.9411C47.5681 91.0702 47.7859 91.135 48.052 91.135C48.5438 91.135 48.9472 90.9817 49.2618 90.6745C49.5763 90.3594 49.7336 89.9716 49.7336 89.5111V89.2445L48.0762 89.5233C47.7617 89.5881 47.5276 89.6929 47.3746 89.8383C47.2215 89.9759 47.1447 90.1613 47.1447 90.3958ZM52.7828 83.0277H54.3675V92.2015H52.7828V83.0277ZM58.9519 92.3469C58.2908 92.3469 57.7022 92.1936 57.1857 91.8864C56.6776 91.5792 56.2784 91.1635 55.988 90.6382C55.7061 90.1128 55.5646 89.5311 55.5646 88.8931C55.5646 88.2466 55.7061 87.6649 55.988 87.148C56.2784 86.6227 56.6697 86.2107 57.1615 85.9119C57.6617 85.6132 58.2182 85.4636 58.8309 85.4636C59.4927 85.4636 60.0649 85.609 60.5488 85.8998C61.0327 86.1828 61.3998 86.5706 61.6497 87.0632C61.9079 87.5558 62.0368 88.0975 62.0368 88.6871C62.0368 88.9616 62.009 89.1839 61.9521 89.3536H57.2099C57.2583 89.8383 57.444 90.2261 57.7664 90.517C58.0894 90.8078 58.4886 90.9532 58.964 90.9532C59.3191 90.9532 59.6215 90.8805 59.8713 90.7351C60.1296 90.5818 60.3353 90.3716 60.4883 90.1049L61.7706 90.7351C61.5692 91.2199 61.2142 91.6119 60.7061 91.9106C60.198 92.2015 59.6136 92.3469 58.9519 92.3469ZM60.3431 88.1418C60.3032 87.7376 60.1459 87.4104 59.8713 87.1601C59.5973 86.9014 59.2507 86.7724 58.8309 86.7724C58.4281 86.7724 58.0851 86.8935 57.8026 87.1359C57.5208 87.3704 57.3351 87.7055 57.2462 88.1418H60.3431ZM68.9935 92.3469C68.3082 92.3469 67.6954 92.2015 67.1547 91.9106C66.6145 91.6198 66.1911 91.2198 65.8844 90.7109C65.5784 90.194 65.4247 89.616 65.4247 88.9779V83.1732H67.07V88.8931C67.07 89.4669 67.2478 89.9353 67.6023 90.2988C67.9652 90.6624 68.4291 90.8442 68.9935 90.8442C69.5584 90.8442 70.0182 90.6624 70.3726 90.2988C70.7355 89.9353 70.917 89.4669 70.917 88.8931V83.1732H72.5623V88.9779C72.5623 89.616 72.4092 90.194 72.1026 90.7109C71.7965 91.2198 71.3731 91.6198 70.8323 91.9106C70.2922 92.2015 69.6794 92.3469 68.9935 92.3469ZM74.072 85.609H75.5601V86.3846C75.802 86.0937 76.1002 85.8677 76.4553 85.7059C76.8182 85.5441 77.2253 85.4636 77.6771 85.4636C78.2899 85.4636 78.8506 85.6169 79.3587 85.9241C79.8668 86.2228 80.266 86.6348 80.5564 87.1601C80.8467 87.6855 80.9918 88.2672 80.9918 88.9052C80.9918 89.5433 80.8467 90.1249 80.5564 90.6503C80.266 91.1756 79.8668 91.5913 79.3587 91.8985C78.8584 92.1972 78.2941 92.3469 77.665 92.3469C77.2616 92.3469 76.8865 92.282 76.54 92.153C76.1927 92.0154 75.8988 91.8215 75.6568 91.5713V94.6252H74.072V85.609ZM75.6568 88.9052C75.6568 89.2851 75.733 89.6281 75.8867 89.9353C76.0476 90.234 76.2653 90.4685 76.54 90.6382C76.8218 90.8078 77.1364 90.8926 77.4836 90.8926C78.0237 90.8926 78.4671 90.7066 78.8143 90.3352C79.1688 89.9553 79.3466 89.479 79.3466 88.9052C79.3466 88.5338 79.2655 88.1981 79.1046 87.8994C78.9431 87.5922 78.7211 87.354 78.4393 87.1844C78.1568 87.0068 77.838 86.9178 77.4836 86.9178C77.1364 86.9178 76.8218 87.0026 76.54 87.1723C76.2653 87.3419 76.0476 87.5801 75.8867 87.8873C75.733 88.186 75.6568 88.5253 75.6568 88.9052ZM86.0801 84.6274H83.7453V83.1732H90.036V84.6274H87.7375V92.2015H86.0801V84.6274ZM93.2739 92.3469C92.637 92.3469 92.0521 92.1972 91.5198 91.8985C90.9875 91.5998 90.564 91.1877 90.2495 90.6624C89.9434 90.1371 89.7898 89.5517 89.7898 88.9052C89.7898 88.2587 89.9434 87.6734 90.2495 87.148C90.5562 86.6227 90.9754 86.2107 91.5077 85.9119C92.0399 85.6132 92.6291 85.4636 93.2739 85.4636C93.9114 85.4636 94.4921 85.6132 95.0159 85.9119C95.5482 86.2107 95.968 86.6227 96.2741 87.148C96.5886 87.6734 96.7459 88.2587 96.7459 88.9052C96.7459 89.5596 96.5886 90.1492 96.2741 90.6745C95.968 91.1999 95.5482 91.6119 95.0159 91.9106C94.4837 92.2015 93.903 92.3469 93.2739 92.3469ZM91.4351 88.9052C91.4351 89.479 91.6045 89.9553 91.9432 90.3352C92.2904 90.7066 92.7337 90.8926 93.2739 90.8926C93.6211 90.8926 93.9314 90.8078 94.2054 90.6382C94.48 90.4685 94.6936 90.234 94.8466 89.9353C95.0081 89.6281 95.0885 89.2851 95.0885 88.9052C95.0885 88.5338 95.0081 88.1981 94.8466 87.8994C94.6936 87.5922 94.48 87.354 94.2054 87.1844C93.9314 87.0068 93.6211 86.9178 93.2739 86.9178C92.9194 86.9178 92.6007 87.0068 92.3182 87.1844C92.0442 87.354 91.8264 87.5885 91.6649 87.8873C91.5119 88.186 91.4351 88.5253 91.4351 88.9052ZM101.166 92.3469C100.529 92.3469 99.9439 92.1972 99.4116 91.8985C98.8793 91.5998 98.4559 91.1877 98.1413 90.6624C97.8353 90.1371 97.6817 89.5517 97.6817 88.9052C97.6817 88.2587 97.8353 87.6734 98.1413 87.148C98.448 86.6227 98.8672 86.2107 99.3995 85.9119C99.9318 85.6132 100.521 85.4636 101.166 85.4636C101.803 85.4636 102.384 85.6132 102.908 85.9119C103.44 86.2107 103.86 86.6227 104.166 87.148C104.48 87.6734 104.638 88.2587 104.638 88.9052C104.638 89.5596 104.48 90.1492 104.166 90.6745C103.86 91.1999 103.44 91.6119 102.908 91.9106C102.375 92.2015 101.795 92.3469 101.166 92.3469ZM99.3269 88.9052C99.3269 89.479 99.4963 89.9553 99.835 90.3352C100.182 90.7066 100.626 90.8926 101.166 90.8926C101.513 90.8926 101.823 90.8078 102.097 90.6382C102.372 90.4685 102.585 90.234 102.738 89.9353C102.9 89.6281 102.98 89.2851 102.98 88.9052C102.98 88.5338 102.9 88.1981 102.738 87.8994C102.585 87.5922 102.372 87.354 102.097 87.1844C101.823 87.0068 101.513 86.9178 101.166 86.9178C100.811 86.9178 100.493 87.0068 100.21 87.1844C99.936 87.354 99.7183 87.5885 99.5568 87.8873C99.4037 88.186 99.3269 88.5253 99.3269 88.9052ZM105.84 83.0277H107.424V92.2015H105.84V83.0277Z" fill="#1E1634"/>
<path opacity="0.1" d="M83.7629 12.8252H54.4578C50.449 12.8252 47.1992 16.0806 47.1992 20.0963V49.4523C47.1992 53.468 50.449 56.7234 54.4578 56.7234H83.7629C87.7717 56.7234 91.0215 53.468 91.0215 49.4523V20.0963C91.0215 16.0806 87.7717 12.8252 83.7629 12.8252Z" fill="#7558EA"/>
<path d="M75.528 29.0026L70.0938 34.4463C69.838 34.7025 69.423 34.7025 69.1665 34.4463C68.9113 34.1899 68.9113 33.7743 69.1665 33.5178L74.6014 28.0743H70.9407C70.5789 28.0743 70.2856 27.7804 70.2856 27.4179C70.2856 27.0553 70.5789 26.7615 70.9407 26.7615H76.1831C76.5449 26.7615 76.8382 27.0553 76.8382 27.4179V32.6692C76.8382 33.0317 76.5449 33.3256 76.1831 33.3256C75.8214 33.3256 75.528 33.0317 75.528 32.6692V29.0026ZM59.1455 35.9514C59.5079 35.9514 59.8012 36.2453 59.8012 36.6078C59.8012 36.9702 59.5079 37.2641 59.1455 37.2641C58.7838 37.2641 58.4905 37.5581 58.4905 37.9206C58.4905 38.2831 58.1971 38.577 57.8354 38.577C57.473 38.577 57.1797 38.2831 57.1797 37.9206C57.1797 36.833 58.0598 35.9514 59.1455 35.9514ZM65.6988 37.2641C65.3365 37.2641 65.0431 36.9702 65.0431 36.6078C65.0431 36.2453 65.3365 35.9514 65.6988 35.9514C66.7839 35.9514 67.6646 36.833 67.6646 37.9206C67.6646 38.2831 67.3707 38.577 67.009 38.577C66.6472 38.577 66.3539 38.2831 66.3539 37.9206C66.3539 37.5581 66.0605 37.2641 65.6988 37.2641ZM66.3539 44.4848C66.3539 44.1223 66.6472 43.8284 67.009 43.8284C67.3707 43.8284 67.6646 44.1223 67.6646 44.4848C67.6646 45.5724 66.7839 46.454 65.6988 46.454C65.3365 46.454 65.0431 46.1602 65.0431 45.7978C65.0431 45.4352 65.3365 45.1412 65.6988 45.1412C66.0605 45.1412 66.3539 44.8473 66.3539 44.4848ZM57.1797 44.4848C57.1797 44.1223 57.473 43.8284 57.8354 43.8284C58.1971 43.8284 58.4905 44.1223 58.4905 44.4848C58.4905 44.8473 58.7838 45.1412 59.1455 45.1412C59.5079 45.1412 59.8012 45.4352 59.8012 45.7978C59.8012 46.1602 59.5079 46.454 59.1455 46.454C58.0598 46.454 57.1797 45.5724 57.1797 44.4848ZM57.1797 40.5463C57.1797 40.1838 57.473 39.8899 57.8354 39.8899C58.1971 39.8899 58.4905 40.1838 58.4905 40.5463V41.8591C58.4905 42.2216 58.1971 42.5155 57.8354 42.5155C57.473 42.5155 57.1797 42.2216 57.1797 41.8591V40.5463ZM67.6646 41.2027V41.8591C67.6646 42.2216 67.3707 42.5155 67.009 42.5155C66.6472 42.5155 66.3539 42.2216 66.3539 41.8591V40.5463C66.3539 40.1838 66.6472 39.8899 67.009 39.8899H77.4939C78.5791 39.8899 79.4598 39.0081 79.4598 37.9206V26.1051C79.4598 25.0174 78.5791 24.1358 77.4939 24.1358H65.6988C64.613 24.1358 63.7329 25.0174 63.7329 26.1051V36.6078C63.7329 36.9702 63.4396 37.2641 63.0772 37.2641H61.7671C61.4048 37.2641 61.1114 36.9702 61.1114 36.6078C61.1114 36.2453 61.4048 35.9514 61.7671 35.9514H62.4222V26.1051C62.4222 24.2924 63.889 22.8229 65.6988 22.8229H77.4939C79.3031 22.8229 80.7699 24.2924 80.7699 26.1051V37.9206C80.7699 39.7332 79.3031 41.2027 77.4939 41.2027H67.6646ZM61.7671 46.454C61.4048 46.454 61.1114 46.1602 61.1114 45.7978C61.1114 45.4352 61.4048 45.1412 61.7671 45.1412H63.0772C63.4396 45.1412 63.7329 45.4352 63.7329 45.7978C63.7329 46.1602 63.4396 46.454 63.0772 46.454H61.7671Z" fill="#7558EA"/>
</svg>
