<svg width="138" height="113" viewBox="0 0 138 113" fill="none" xmlns="http://www.w3.org/2000/svg">
<path d="M128.683 0.706665H8.8804C4.20349 0.706665 0.412109 4.50462 0.412109 9.18963V104.32C0.412109 109.005 4.20349 112.803 8.8804 112.803H128.683C133.359 112.803 137.151 109.005 137.151 104.32V9.18963C137.151 4.50462 133.359 0.706665 128.683 0.706665Z" fill="white"/>
<path d="M34.0551 77.1988C33.3692 77.1988 32.7564 77.0534 32.2163 76.7625C31.6755 76.4717 31.2521 76.0718 30.946 75.5628C30.6393 75.0459 30.4863 74.4679 30.4863 73.8298V68.0251H32.1316V73.745C32.1316 74.3188 32.3088 74.7872 32.6639 75.1508C33.0268 75.5143 33.4901 75.6961 34.0551 75.6961C34.6194 75.6961 35.0792 75.5143 35.4342 75.1508C35.7972 74.7872 35.9786 74.3188 35.9786 73.745V68.0251H37.6239V73.8298C37.6239 74.4679 37.4702 75.0459 37.1642 75.5628C36.8575 76.0718 36.4341 76.4717 35.8939 76.7625C35.3532 77.0534 34.7404 77.1988 34.0551 77.1988ZM39.133 67.8796H40.7178V77.0534H39.133V67.8796ZM45.1812 77.1261C44.439 77.1261 43.8626 76.9243 43.4513 76.5201C43.0478 76.1081 42.8464 75.5307 42.8464 74.7872V71.8788H41.7092V70.4609H41.8302C42.1526 70.4609 42.403 70.3761 42.5802 70.2064C42.7575 70.0367 42.8464 69.7901 42.8464 69.4672V68.9582H44.4312V70.4609H45.9434V71.8788H44.4312V74.7024C44.4312 75.3889 44.802 75.7324 45.5442 75.7324C45.673 75.7324 45.8145 75.7203 45.9676 75.6961V77.0655C45.7093 77.1061 45.4473 77.1261 45.1812 77.1261ZM47.1785 70.4609H48.6665V71.3819C48.8274 71.0262 49.0573 70.7717 49.3561 70.6184C49.6543 70.4651 50.0172 70.3882 50.4449 70.3882H50.832V71.7939H50.2634C49.8116 71.7939 49.4486 71.9351 49.1746 72.2181C48.9 72.501 48.7633 72.8888 48.7633 73.3814V77.0534H47.1785V70.4609ZM53.6991 77.1988C53.0059 77.1988 52.4531 77.0291 52.0418 76.6898C51.6389 76.3505 51.4369 75.89 51.4369 75.3083C51.4369 74.7508 51.6268 74.2903 52.0055 73.9268C52.3847 73.5632 52.9533 73.3209 53.7112 73.1997L55.671 72.8846V72.6665C55.671 72.3756 55.5585 72.1375 55.3323 71.9515C55.1145 71.7654 54.8242 71.6727 54.4613 71.6727C54.1225 71.6727 53.8201 71.7654 53.5539 71.9515C53.2963 72.129 53.1063 72.3677 52.9854 72.6665L51.6909 72.0363C51.8845 71.5194 52.2395 71.1032 52.7555 70.7881C53.2721 70.473 53.8606 70.3155 54.5217 70.3155C55.054 70.3155 55.5259 70.4167 55.9372 70.6184C56.357 70.8123 56.6793 71.091 56.905 71.4546C57.139 71.8103 57.2558 72.2138 57.2558 72.6665V77.0534H55.7557V76.3505C55.2398 76.9158 54.5544 77.1988 53.6991 77.1988ZM53.0821 75.2477C53.0821 75.4737 53.1668 75.6555 53.3362 75.793C53.5056 75.9221 53.7233 75.9869 53.9894 75.9869C54.4818 75.9869 54.8847 75.8336 55.1992 75.5264C55.5137 75.2113 55.671 74.8235 55.671 74.363V74.0964L54.0137 74.3752C53.6991 74.44 53.4656 74.5448 53.312 74.6902C53.1589 74.8278 53.0821 75.0132 53.0821 75.2477ZM61.0042 68.0251H66.9925V69.4793H62.6495V71.7939H66.7506V73.2481H62.6495V75.5991H66.9925V77.0534H61.0042V68.0251ZM68.0656 70.4609H69.5536V71.2728C69.7229 70.9656 69.9691 70.7317 70.2915 70.57C70.6224 70.4003 70.9974 70.3155 71.4166 70.3155C71.8926 70.3155 72.3197 70.4203 72.6989 70.6305C73.0782 70.8408 73.3721 71.1353 73.582 71.5152C73.7919 71.8951 73.8966 72.3271 73.8966 72.8119V77.0534H72.3118V73.1875C72.3118 72.7592 72.1866 72.4162 71.9368 72.1575C71.6948 71.8987 71.3761 71.7697 70.9811 71.7697C70.5861 71.7697 70.2631 71.8987 70.0133 72.1575C69.7713 72.4162 69.6503 72.7592 69.6503 73.1875V77.0534H68.0656V70.4609ZM75.237 67.8796H76.8218V71.1153C77.0069 70.8566 77.2531 70.659 77.5597 70.5215C77.8658 70.3839 78.2088 70.3155 78.588 70.3155C79.0634 70.3155 79.4911 70.4203 79.8703 70.6305C80.249 70.8408 80.5436 71.1353 80.7535 71.5152C80.9628 71.8951 81.068 72.3271 81.068 72.8119V77.0534H79.4833V73.1875C79.4833 72.7592 79.358 72.4162 79.1082 72.1575C78.8663 71.8987 78.5475 71.7697 78.1525 71.7697C77.7654 71.7697 77.4466 71.8987 77.1968 72.1575C76.9464 72.4162 76.8218 72.7592 76.8218 73.1875V77.0534H75.237V67.8796ZM84.4039 77.1988C83.7101 77.1988 83.1579 77.0291 82.7465 76.6898C82.3431 76.3505 82.1417 75.89 82.1417 75.3083C82.1417 74.7508 82.331 74.2903 82.7103 73.9268C83.0895 73.5632 83.6581 73.3209 84.416 73.1997L86.3758 72.8846V72.6665C86.3758 72.3756 86.2627 72.1375 86.0371 71.9515C85.8193 71.7654 85.529 71.6727 85.1661 71.6727C84.8273 71.6727 84.5249 71.7654 84.2587 71.9515C84.0005 72.129 83.8111 72.3677 83.6902 72.6665L82.3957 72.0363C82.5893 71.5194 82.9444 71.1032 83.4603 70.7881C83.9763 70.473 84.5654 70.3155 85.2266 70.3155C85.7589 70.3155 86.2306 70.4167 86.642 70.6184C87.0611 70.8123 87.3842 71.091 87.6098 71.4546C87.8439 71.8103 87.9606 72.2138 87.9606 72.6665V77.0534H86.4605V76.3505C85.9445 76.9158 85.2586 77.1988 84.4039 77.1988ZM83.787 75.2477C83.787 75.4737 83.8716 75.6555 84.041 75.793C84.2104 75.9221 84.4281 75.9869 84.6943 75.9869C85.186 75.9869 85.5895 75.8336 85.904 75.5264C86.2186 75.2113 86.3758 74.8235 86.3758 74.363V74.0964L84.7185 74.3752C84.4039 74.44 84.1698 74.5448 84.0168 74.6902C83.8638 74.8278 83.787 75.0132 83.787 75.2477ZM92.5952 77.1988C91.9498 77.1988 91.3612 77.0491 90.8289 76.7504C90.3045 76.4432 89.8932 76.0275 89.595 75.5022C89.2962 74.9769 89.1474 74.3915 89.1474 73.745C89.1474 73.0985 89.2962 72.5168 89.595 71.9999C89.8932 71.4746 90.3045 71.0626 90.8289 70.7638C91.3528 70.4651 91.9419 70.3155 92.5952 70.3155C93.2969 70.3155 93.9217 70.4972 94.4703 70.8608C95.0183 71.2165 95.3933 71.6849 95.5954 72.2665L94.2163 72.8725C94.0868 72.5332 93.8775 72.2665 93.5872 72.0726C93.2968 71.8709 92.966 71.7697 92.5952 71.7697C92.2565 71.7697 91.9498 71.8545 91.6758 72.0242C91.4012 72.1938 91.1834 72.432 91.0225 72.7392C90.8689 73.0379 90.7926 73.3772 90.7926 73.7571C90.7926 74.137 90.8689 74.48 91.0225 74.7872C91.1834 75.0859 91.4012 75.3204 91.6758 75.4901C91.9498 75.6597 92.2565 75.7446 92.5952 75.7446C92.9739 75.7446 93.3047 75.6476 93.5872 75.4537C93.8775 75.2519 94.0868 74.9768 94.2163 74.6297L95.5954 75.2598C95.4018 75.8336 95.0268 76.302 94.4703 76.6656C93.9217 77.0212 93.2969 77.1988 92.5952 77.1988ZM99.9069 77.1988C99.2452 77.1988 98.6567 77.0455 98.1407 76.7383C97.6326 76.4311 97.2334 76.0154 96.9431 75.4901C96.6606 74.9647 96.5196 74.383 96.5196 73.745C96.5196 73.0985 96.6606 72.5168 96.9431 71.9999C97.2334 71.4746 97.6241 71.0626 98.1165 70.7638C98.6161 70.4651 99.1726 70.3155 99.786 70.3155C100.447 70.3155 101.02 70.4609 101.504 70.7517C101.988 71.0347 102.354 71.4225 102.605 71.9151C102.862 72.4077 102.992 72.9494 102.992 73.539C102.992 73.8135 102.963 74.0358 102.907 74.2055H98.1649C98.2133 74.6902 98.3984 75.078 98.7214 75.3689C99.0438 75.6597 99.443 75.8052 99.919 75.8052C100.273 75.8052 100.576 75.7324 100.826 75.587C101.084 75.4337 101.29 75.2235 101.443 74.9568L102.726 75.587C102.524 76.0718 102.169 76.4638 101.661 76.7625C101.153 77.0534 100.568 77.1988 99.9069 77.1988ZM101.298 72.9937C101.258 72.5895 101.1 72.2623 100.826 72.012C100.552 71.7533 100.205 71.6243 99.786 71.6243C99.3825 71.6243 99.0396 71.7454 98.7577 71.9878C98.4752 72.2223 98.2895 72.5574 98.2012 72.9937H101.298ZM104.193 70.4609H105.681V71.3819C105.842 71.0262 106.072 70.7717 106.371 70.6184C106.669 70.4651 107.032 70.3882 107.459 70.3882H107.847V71.7939H107.278C106.826 71.7939 106.463 71.9351 106.189 72.2181C105.915 72.501 105.778 72.8888 105.778 73.3814V77.0534H104.193V70.4609ZM59.045 84.6274H56.7102V83.1732H63.0009V84.6274H60.7024V92.2015H59.045V84.6274ZM66.2388 92.3469C65.6019 92.3469 65.017 92.1973 64.4847 91.8985C63.9524 91.5998 63.529 91.1878 63.2145 90.6625C62.9084 90.1371 62.7547 89.5518 62.7547 88.9053C62.7547 88.2587 62.9084 87.6734 63.2145 87.1481C63.5211 86.6227 63.9403 86.2107 64.4726 85.912C65.0049 85.6133 65.594 85.4636 66.2388 85.4636C66.8764 85.4636 67.4571 85.6133 67.9809 85.912C68.5132 86.2107 68.933 86.6227 69.239 87.1481C69.5536 87.6734 69.7108 88.2587 69.7108 88.9053C69.7108 89.5597 69.5536 90.1492 69.239 90.6746C68.933 91.1999 68.5132 91.6119 67.9809 91.9107C67.4486 92.2015 66.8679 92.3469 66.2388 92.3469ZM64.4 88.9053C64.4 89.4791 64.5694 89.9553 64.9081 90.3353C65.2553 90.7067 65.6987 90.8927 66.2388 90.8927C66.586 90.8927 66.8963 90.8079 67.1703 90.6382C67.445 90.4686 67.6585 90.2341 67.8115 89.9353C67.973 89.6281 68.0535 89.2852 68.0535 88.9053C68.0535 88.5338 67.973 88.1982 67.8115 87.8994C67.6585 87.5922 67.445 87.3541 67.1703 87.1844C66.8963 87.0069 66.586 86.9178 66.2388 86.9178C65.8844 86.9178 65.5656 87.0069 65.2831 87.1844C65.0091 87.3541 64.7914 87.5886 64.6299 87.8873C64.4768 88.186 64.4 88.5254 64.4 88.9053ZM74.1307 92.3469C73.4938 92.3469 72.9088 92.1973 72.3765 91.8985C71.8442 91.5998 71.4208 91.1878 71.1063 90.6625C70.7996 90.1371 70.6466 89.5518 70.6466 88.9053C70.6466 88.2587 70.7996 87.6734 71.1063 87.1481C71.413 86.6227 71.8321 86.2107 72.3644 85.912C72.8967 85.6133 73.4853 85.4636 74.1307 85.4636C74.7676 85.4636 75.3483 85.6133 75.8727 85.912C76.405 86.2107 76.8242 86.6227 77.1309 87.1481C77.4454 87.6734 77.6027 88.2587 77.6027 88.9053C77.6027 89.5597 77.4454 90.1492 77.1309 90.6746C76.8242 91.1999 76.405 91.6119 75.8727 91.9107C75.3405 92.2015 74.7598 92.3469 74.1307 92.3469ZM72.2918 88.9053C72.2918 89.4791 72.4612 89.9553 72.8 90.3353C73.1465 90.7067 73.5905 90.8927 74.1307 90.8927C74.4773 90.8927 74.7882 90.8079 75.0622 90.6382C75.3362 90.4686 75.5503 90.2341 75.7034 89.9353C75.8649 89.6281 75.9453 89.2852 75.9453 88.9053C75.9453 88.5338 75.8649 88.1982 75.7034 87.8994C75.5503 87.5922 75.3362 87.3541 75.0622 87.1844C74.7882 87.0069 74.4773 86.9178 74.1307 86.9178C73.7756 86.9178 73.4575 87.0069 73.175 87.1844C72.901 87.3541 72.6832 87.5886 72.5217 87.8873C72.3687 88.186 72.2918 88.5254 72.2918 88.9053ZM78.8046 83.0278H80.3894V92.2015H78.8046V83.0278Z" fill="#1E1634"/>
<path opacity="0.1" d="M83.6477 12.8252H54.3425C50.3337 12.8252 47.084 16.0806 47.084 20.0963V49.4523C47.084 53.468 50.3337 56.7234 54.3425 56.7234H83.6477C87.6565 56.7234 90.9063 53.468 90.9063 49.4523V20.0963C90.9063 16.0806 87.6565 12.8252 83.6477 12.8252Z" fill="#43B0FF"/>
<mask id="mask0_2043_11710" style="mask-type:luminance" maskUnits="userSpaceOnUse" x="54" y="20" width="29" height="29">
<path d="M82.7717 20.7022H54.9473V48.5748H82.7717V20.7022Z" fill="white"/>
</mask>
<g mask="url(#mask0_2043_11710)">
<path d="M79.8731 26.5091H75.5942L74.0185 23.3462C73.9199 23.1483 73.7178 23.0238 73.4971 23.025H64.2219C64.0023 23.0249 63.8015 23.1492 63.7035 23.3462L62.1248 26.5091H57.8458C56.2459 26.511 54.9491 27.8098 54.9473 29.4125V43.3488C54.9491 44.9515 56.2459 46.2505 57.8458 46.2523H79.8731C81.473 46.2505 82.7698 44.9515 82.7717 43.3488V29.4125C82.7698 27.8098 81.473 26.511 79.8731 26.5091ZM81.6121 43.3488C81.6121 44.3109 80.8336 45.0908 79.8731 45.0908H57.8458C56.8853 45.0908 56.1068 44.3109 56.1068 43.3488V29.4125C56.1068 28.4504 56.8853 27.6704 57.8458 27.6704H62.4828C62.7036 27.6716 62.9063 27.5472 63.0049 27.3493L64.5806 24.1864H73.1384L74.7141 27.3493C74.8127 27.5472 75.0153 27.6716 75.2361 27.6704H79.8731C80.8336 27.6704 81.6121 28.4504 81.6121 29.4125V43.3488Z" fill="#43B0FF"/>
<path d="M71.6967 25.6687C71.5987 25.4718 71.3979 25.3474 71.1784 25.3475H66.5407C66.3218 25.3485 66.1228 25.4727 66.0248 25.6687L64.8652 27.9914L65.9032 28.5105L66.8988 26.5089H70.8197L71.8189 28.5105L72.8563 27.9914L71.6967 25.6687Z" fill="#43B0FF"/>
<path d="M74.0767 27.6703H63.6426V28.8317H74.0767V27.6703Z" fill="#43B0FF"/>
<path d="M79.2937 29.4124H77.5547V30.5737H78.7142V31.7351H77.5547V32.8965H79.2937C79.6137 32.8965 79.8732 32.6365 79.8732 32.3158V29.9931C79.8732 29.6724 79.6137 29.4124 79.2937 29.4124Z" fill="#43B0FF"/>
<path d="M59.0053 29.4124H57.8457V30.5737H59.0053V29.4124Z" fill="#43B0FF"/>
<path d="M60.1642 31.7352H57.8457V32.8965H60.1642V31.7352Z" fill="#43B0FF"/>
<path d="M67.1205 31.7352H65.9609V42.1875H67.1205V31.7352Z" fill="#43B0FF"/>
<path d="M63.0638 36.3806V31.7352H61.9043V36.9613C61.9043 37.2821 62.1638 37.5421 62.4838 37.5421H68.8604V36.3806H63.0638Z" fill="#43B0FF"/>
<path d="M71.1791 31.7352H70.0195V42.1875H71.1791V31.7352Z" fill="#43B0FF"/>
<path d="M74.6552 31.7352V34.9789L73.2561 36.3806H70.5977V37.542H73.4962C73.6499 37.5419 73.7969 37.4807 73.9057 37.3719L75.6448 35.6298C75.7536 35.5209 75.8147 35.3733 75.8147 35.2193V31.7352H74.6552Z" fill="#43B0FF"/>
<path d="M75.6465 38.2928L73.9075 36.5507L73.0879 37.3718L74.6569 38.9437V42.1874H75.8165V38.7033C75.8165 38.5493 75.7554 38.4016 75.6465 38.2928Z" fill="#43B0FF"/>
</g>
</svg>
