<svg width="138" height="113" viewBox="0 0 138 113" fill="none" xmlns="http://www.w3.org/2000/svg">
<path d="M128.847 0.254761H9.04446C4.36756 0.254761 0.576172 4.05271 0.576172 8.73772V103.868C0.576172 108.553 4.36756 112.351 9.04446 112.351H128.847C133.524 112.351 137.315 108.553 137.315 103.868V8.73772C137.315 4.05271 133.524 0.254761 128.847 0.254761Z" fill="white"/>
<path d="M30.793 67.5731H34.144C34.7567 67.5731 35.3011 67.6864 35.7772 67.9124C36.2532 68.1306 36.6198 68.4536 36.878 68.8819C37.1442 69.3103 37.2772 69.8229 37.2772 70.421C37.2772 71.0348 37.1321 71.5644 36.8417 72.0085C36.5514 72.4448 36.1522 72.7677 35.6441 72.978L37.7128 76.6014H35.8497L33.9867 73.2688H32.4382V76.6014H30.793V67.5731ZM34.1682 71.8146C34.6116 71.8146 34.9666 71.6892 35.2328 71.4389C35.4989 71.1802 35.632 70.8409 35.632 70.421C35.632 70.0011 35.4989 69.6654 35.2328 69.4152C34.9666 69.1564 34.6116 69.0274 34.1682 69.0274H32.4382V71.8146H34.1682ZM41.4128 76.7468C40.7517 76.7468 40.1625 76.5935 39.6466 76.2863C39.1385 75.9791 38.7392 75.5635 38.4489 75.0381C38.1664 74.5128 38.0255 73.9311 38.0255 73.2931C38.0255 72.6465 38.1664 72.0648 38.4489 71.548C38.7392 71.0227 39.1306 70.6106 39.6224 70.3119C40.1226 70.0132 40.6791 69.8635 41.2918 69.8635C41.953 69.8635 42.5258 70.0089 43.0097 70.2998C43.4936 70.5828 43.8607 70.9706 44.1105 71.4632C44.3688 71.9558 44.4977 72.4975 44.4977 73.0871C44.4977 73.3616 44.4692 73.5839 44.413 73.7536H39.6708C39.7192 74.2383 39.9048 74.6261 40.2272 74.9169C40.5496 75.2078 40.9489 75.3532 41.4249 75.3532C41.78 75.3532 42.0824 75.2805 42.3322 75.1351C42.5905 74.9818 42.7962 74.7715 42.9492 74.5049L44.2315 75.1351C44.0301 75.6198 43.675 76.0119 43.1669 76.3106C42.6588 76.6014 42.0739 76.7468 41.4128 76.7468ZM42.804 72.5417C42.7635 72.1376 42.6062 71.8104 42.3322 71.5601C42.0582 71.3014 41.711 71.1723 41.2918 71.1723C40.8884 71.1723 40.546 71.2935 40.2635 71.5359C39.9811 71.7704 39.796 72.1055 39.7071 72.5417H42.804ZM50.7679 75.9713C50.5259 76.2215 50.2319 76.4154 49.8847 76.5529C49.5381 76.682 49.1631 76.7468 48.7597 76.7468C48.1306 76.7468 47.562 76.5972 47.0539 76.2985C46.5543 75.9913 46.1587 75.5756 45.8683 75.0503C45.578 74.5249 45.4328 73.9432 45.4328 73.3052C45.4328 72.6672 45.578 72.0855 45.8683 71.5601C46.1587 71.0348 46.5579 70.6228 47.066 70.324C47.5741 70.0168 48.1348 69.8635 48.7476 69.8635C49.1915 69.8635 49.5944 69.9441 49.9573 70.1059C50.3202 70.2592 50.619 70.4816 50.8525 70.7724V70.009H52.3526V79.0251H50.7679V75.9713ZM47.0781 73.3052C47.0781 73.6851 47.1549 74.0281 47.3079 74.3353C47.4694 74.634 47.6915 74.8685 47.9733 75.0381C48.2558 75.2078 48.5746 75.2926 48.929 75.2926C49.2841 75.2926 49.5986 75.2078 49.8726 75.0381C50.1551 74.8685 50.3729 74.634 50.5259 74.3353C50.6874 74.0281 50.7679 73.6851 50.7679 73.3052C50.7679 72.9253 50.6874 72.586 50.5259 72.2872C50.3729 71.98 50.1551 71.7419 49.8726 71.5723C49.5907 71.4026 49.2762 71.3178 48.929 71.3178C48.5746 71.3178 48.2558 71.4068 47.9733 71.5843C47.6915 71.754 47.4694 71.9922 47.3079 72.2994C47.1549 72.5981 47.0781 72.9338 47.0781 73.3052ZM56.1743 76.7468C55.4079 76.7468 54.803 76.5003 54.3596 76.0076C53.9156 75.515 53.6943 74.8606 53.6943 74.0444V70.009H55.279V73.9111C55.279 74.3231 55.4 74.6582 55.642 74.9169C55.8918 75.1672 56.2142 75.2926 56.6098 75.2926C57.0047 75.2926 57.3235 75.1636 57.5655 74.9048C57.8153 74.6461 57.9405 74.3032 57.9405 73.8748V70.009H59.5253V76.6014H58.0252V75.8137C57.8473 76.1209 57.5975 76.3548 57.2751 76.5166C56.9606 76.6699 56.5934 76.7468 56.1743 76.7468ZM64.1193 76.7468C63.4582 76.7468 62.8696 76.5935 62.3531 76.2863C61.845 75.9791 61.4458 75.5635 61.1554 75.0381C60.8735 74.5128 60.732 73.9311 60.732 73.2931C60.732 72.6465 60.8735 72.0648 61.1554 71.548C61.4458 71.0227 61.8371 70.6106 62.3289 70.3119C62.8291 70.0132 63.3856 69.8635 63.9984 69.8635C64.6601 69.8635 65.2323 70.0089 65.7162 70.2998C66.2001 70.5828 66.5673 70.9706 66.8171 71.4632C67.0754 71.9558 67.2042 72.4975 67.2042 73.0871C67.2042 73.3616 67.1764 73.5839 67.1195 73.7536H62.3773C62.4257 74.2383 62.6114 74.6261 62.9338 74.9169C63.2568 75.2078 63.656 75.3532 64.1314 75.3532C64.4865 75.3532 64.7889 75.2805 65.0387 75.1351C65.297 74.9818 65.5027 74.7715 65.6557 74.5049L66.9381 75.1351C66.7366 75.6198 66.3816 76.0119 65.8735 76.3106C65.3654 76.6014 64.7811 76.7468 64.1193 76.7468ZM65.5105 72.5417C65.4706 72.1376 65.3133 71.8104 65.0387 71.5601C64.7647 71.3014 64.4181 71.1723 63.9984 71.1723C63.5955 71.1723 63.2525 71.2935 62.9701 71.5359C62.6882 71.7704 62.5025 72.1055 62.4136 72.5417H65.5105ZM70.8734 76.7347C70.2123 76.7347 69.6273 76.5772 69.1193 76.2621C68.6196 75.947 68.2646 75.515 68.0547 74.9654L69.2281 74.3595C69.406 74.7152 69.6394 74.9939 69.9298 75.1957C70.2286 75.3896 70.5552 75.4865 70.9097 75.4865C71.2164 75.4865 71.4541 75.4259 71.6235 75.3047C71.8013 75.1757 71.8896 75.0018 71.8896 74.7837C71.8896 74.5976 71.817 74.4443 71.6718 74.3231C71.5266 74.1941 71.3373 74.1093 71.1032 74.0687L70.0266 73.8869C69.4701 73.7415 69.0388 73.4948 68.7321 73.1476C68.4339 72.792 68.2845 72.3763 68.2845 71.8994C68.2845 71.5038 68.3898 71.1523 68.5991 70.8451C68.809 70.5301 69.0993 70.2877 69.4701 70.118C69.8493 69.9484 70.277 69.8635 70.7524 69.8635C71.3573 69.8635 71.8896 70.0089 72.3493 70.2998C72.809 70.5828 73.1441 70.9784 73.3534 71.4874L72.1799 72.0933C72.0511 71.8104 71.8533 71.5844 71.5872 71.4147C71.321 71.245 71.027 71.1602 70.704 71.1602C70.4379 71.1602 70.2244 71.2208 70.0629 71.342C69.9098 71.4632 69.833 71.6207 69.833 71.8146C69.833 72.1703 70.0992 72.4084 70.6314 72.5296L71.6839 72.7235C72.2404 72.8768 72.6723 73.1277 72.9784 73.4749C73.285 73.8221 73.4381 74.2341 73.4381 74.7109C73.4381 75.1066 73.3292 75.458 73.1114 75.7653C72.9021 76.0725 72.6033 76.3106 72.2162 76.4802C71.8291 76.6499 71.3815 76.7347 70.8734 76.7347ZM77.6202 76.6741C76.878 76.6741 76.3016 76.4724 75.8902 76.0682C75.4868 75.6562 75.2854 75.0787 75.2854 74.3353V71.4268H74.1482V70.009H74.2692C74.5916 70.009 74.8414 69.9241 75.0192 69.7545C75.1964 69.5848 75.2854 69.3382 75.2854 69.0152V68.5063H76.8701V70.009H78.3823V71.4268H76.8701V74.2504C76.8701 74.9369 77.2409 75.2805 77.9831 75.2805C78.112 75.2805 78.2529 75.2684 78.4066 75.2442V76.6136C78.1483 76.6542 77.8864 76.6741 77.6202 76.6741ZM81.9003 67.5731H83.1827L87.4773 73.3658V67.5731H89.1226V76.6014H87.8281L83.5456 70.6997V76.6014H81.9003V67.5731ZM93.8551 76.7468C93.194 76.7468 92.6055 76.5935 92.0889 76.2863C91.5808 75.9791 91.1816 75.5635 90.8912 75.0381C90.6094 74.5128 90.4678 73.9311 90.4678 73.2931C90.4678 72.6465 90.6094 72.0648 90.8912 71.548C91.1816 71.0227 91.5729 70.6106 92.0647 70.3119C92.5649 70.0132 93.1214 69.8635 93.7341 69.8635C94.3959 69.8635 94.9681 70.0089 95.452 70.2998C95.9359 70.5828 96.3031 70.9706 96.5529 71.4632C96.8112 71.9558 96.94 72.4975 96.94 73.0871C96.94 73.3616 96.9122 73.5839 96.8553 73.7536H92.1131C92.1615 74.2383 92.3472 74.6261 92.6696 74.9169C92.9926 75.2078 93.3918 75.3532 93.8672 75.3532C94.2223 75.3532 94.5247 75.2805 94.7746 75.1351C95.0328 74.9818 95.2385 74.7715 95.3915 74.5049L96.6739 75.1351C96.4725 75.6198 96.1174 76.0119 95.6093 76.3106C95.1012 76.6014 94.5169 76.7468 93.8551 76.7468ZM95.2463 72.5417C95.2064 72.1376 95.0492 71.8104 94.7746 71.5601C94.5005 71.3014 94.1539 71.1723 93.7341 71.1723C93.3313 71.1723 92.9884 71.2935 92.7059 71.5359C92.424 71.7704 92.2383 72.1055 92.1494 72.5417H95.2463ZM97.5364 70.009H99.2059L100.585 74.1656L102.049 70.009H103.452L104.904 74.1535L106.283 70.009H107.952L105.69 76.6014H104.275L102.75 72.1539L101.202 76.6014H99.7987L97.5364 70.009ZM54.7976 91.895C54.088 91.895 53.4711 91.7617 52.9466 91.4951C52.4307 91.2285 52.0272 90.8934 51.7369 90.4892C51.4465 90.0772 51.2614 89.6488 51.1804 89.2047L52.7289 88.7927C52.8499 89.2853 53.0918 89.6694 53.4547 89.9439C53.8176 90.2184 54.2737 90.356 54.8217 90.356C55.2415 90.356 55.5802 90.2511 55.8379 90.0409C56.1041 89.8306 56.2372 89.5804 56.2372 89.2895C56.2372 89.0229 56.1404 88.7927 55.9468 88.5988C55.7617 88.397 55.5077 88.2637 55.1847 88.1989L53.8298 87.9323C53.1124 87.7947 52.5474 87.4838 52.1361 86.9991C51.7248 86.5144 51.5191 85.9248 51.5191 85.2298C51.5191 84.7451 51.6564 84.3009 51.9304 83.8968C52.2129 83.4847 52.5837 83.1618 53.0434 82.9273C53.5116 82.6928 54.0076 82.5759 54.5314 82.5759C55.201 82.5759 55.7696 82.6892 56.2372 82.9152C56.7053 83.1412 57.0683 83.4284 57.3259 83.7756C57.5921 84.1149 57.7699 84.4742 57.8582 84.8541L56.3219 85.3389C56.1525 84.9026 55.9226 84.5918 55.6323 84.4058C55.3419 84.2119 54.9754 84.1149 54.5314 84.1149C54.2816 84.1149 54.056 84.1676 53.8539 84.2724C53.6604 84.3773 53.5073 84.5148 53.3942 84.6845C53.2896 84.8463 53.237 85.0117 53.237 85.1813C53.237 85.4479 53.3259 85.6824 53.5031 85.8842C53.6809 86.0781 53.9265 86.2035 54.2411 86.2599L55.5234 86.5386C56.3061 86.7083 56.911 87.0312 57.338 87.5081C57.7657 87.9765 57.9792 88.5382 57.9792 89.1926C57.9792 89.661 57.8504 90.1015 57.5921 90.5135C57.3344 90.9255 56.963 91.2606 56.4791 91.5193C56.0037 91.7696 55.443 91.895 54.7976 91.895ZM62.2793 91.8223C61.5377 91.8223 60.9606 91.6205 60.5493 91.2164C60.1465 90.8043 59.9444 90.2269 59.9444 89.4834V86.575H58.8073V85.1571H58.9283C59.2513 85.1571 59.5011 85.0723 59.6783 84.9026C59.8561 84.733 59.9444 84.4863 59.9444 84.1634V83.6544H61.5292V85.1571H63.0414V86.575H61.5292V89.3986C61.5292 90.0851 61.9006 90.4287 62.6422 90.4287C62.7717 90.4287 62.9126 90.4165 63.0656 90.3923V91.7617C62.808 91.8023 62.5454 91.8223 62.2793 91.8223ZM66.2364 91.6526L63.6717 85.1571H65.3775L67.0832 89.7015L68.7769 85.1571H70.4947L66.9381 94.1733H65.2323L66.2364 91.6526ZM71.3652 82.5759H72.95V91.7496H71.3652V82.5759ZM77.5343 91.895C76.8732 91.895 76.284 91.7417 75.7681 91.4345C75.26 91.1273 74.8608 90.7116 74.5704 90.1863C74.2879 89.6609 74.147 89.0793 74.147 88.4412C74.147 87.7947 74.2879 87.213 74.5704 86.6961C74.8608 86.1708 75.2521 85.7588 75.7439 85.4601C76.2441 85.1613 76.8006 85.0117 77.4133 85.0117C78.0745 85.0117 78.6473 85.1571 79.1312 85.4479C79.6151 85.7309 79.9823 86.1187 80.2321 86.6113C80.4904 87.104 80.6192 87.6457 80.6192 88.2352C80.6192 88.5097 80.5908 88.7321 80.5345 88.9017H75.7923C75.8406 89.3865 76.0263 89.7742 76.3487 90.0651C76.6711 90.3559 77.0704 90.5014 77.5464 90.5014C77.9015 90.5014 78.2039 90.4287 78.4537 90.2832C78.712 90.1299 78.9177 89.9197 79.0707 89.6531L80.3531 90.2832C80.1516 90.768 79.7966 91.16 79.2885 91.4587C78.7804 91.7496 78.1954 91.895 77.5343 91.895ZM78.9255 87.6899C78.885 87.2857 78.7277 86.9585 78.4537 86.7083C78.1797 86.4495 77.8325 86.3205 77.4133 86.3205C77.0099 86.3205 76.6675 86.4417 76.3851 86.684C76.1026 86.9185 75.9175 87.2536 75.8285 87.6899H78.9255ZM84.2884 91.8829C83.6273 91.8829 83.0423 91.7253 82.5342 91.4103C82.034 91.0952 81.6795 90.6631 81.4696 90.1136L82.6431 89.5076C82.8203 89.8633 83.0544 90.1421 83.3448 90.3438C83.643 90.5377 83.9696 90.6347 84.3247 90.6347C84.6314 90.6347 84.8691 90.5741 85.0384 90.4529C85.2157 90.3238 85.3046 90.1499 85.3046 89.9318C85.3046 89.7458 85.232 89.5925 85.0868 89.4713C84.9417 89.3422 84.7523 89.2574 84.5182 89.2168L83.4415 89.035C82.8851 88.8896 82.4538 88.643 82.1471 88.2958C81.8489 87.9401 81.6995 87.5245 81.6995 87.0476C81.6995 86.6519 81.8041 86.3005 82.014 85.9933C82.2239 85.6782 82.5143 85.4358 82.8851 85.2662C83.2643 85.0965 83.6914 85.0117 84.1674 85.0117C84.7723 85.0117 85.3046 85.1571 85.7643 85.4479C86.224 85.7309 86.5585 86.1266 86.7684 86.6356L85.5949 87.2415C85.4661 86.9585 85.2683 86.7325 85.0021 86.5629C84.736 86.3932 84.4414 86.3084 84.119 86.3084C83.8529 86.3084 83.6393 86.369 83.4778 86.4901C83.3248 86.6113 83.248 86.7689 83.248 86.9627C83.248 87.3184 83.5141 87.5566 84.0464 87.6778L85.0989 87.8716C85.6554 88.0249 86.0867 88.2758 86.3933 88.623C86.7 88.9702 86.8531 89.3822 86.8531 89.8591C86.8531 90.2548 86.7442 90.6062 86.5264 90.9134C86.3166 91.2206 86.0183 91.4587 85.6312 91.6284C85.2441 91.798 84.7965 91.8829 84.2884 91.8829Z" fill="#1E1634"/>
<path opacity="0.1" d="M83.7629 12.3733H54.4578C50.449 12.3733 47.1992 15.6287 47.1992 19.6444V49.0004C47.1992 53.0161 50.449 56.2715 54.4578 56.2715H83.7629C87.7717 56.2715 91.0215 53.0161 91.0215 49.0004V19.6444C91.0215 15.6287 87.7717 12.3733 83.7629 12.3733Z" fill="#7558EA"/>
<mask id="mask0_2043_11799" style="mask-type:luminance" maskUnits="userSpaceOnUse" x="55" y="20" width="28" height="28">
<path d="M82.2826 20.8562H55.668V47.5169H82.2826V20.8562Z" fill="white"/>
</mask>
<g mask="url(#mask0_2043_11799)">
<path d="M68.9753 20.8562C61.6375 20.8562 55.668 26.8361 55.668 34.1866C55.668 41.5371 61.6375 47.5169 68.9753 47.5169C76.3131 47.5169 82.2826 41.5371 82.2826 34.1866C82.2826 26.8361 76.3131 20.8562 68.9753 20.8562ZM68.9753 46.0761C65.7156 46.0761 62.7583 44.7521 60.611 42.6132C59.7539 41.7594 59.0262 40.7754 58.4595 39.6932C57.5963 38.0463 57.107 36.1728 57.107 34.1866C57.107 27.6311 62.4311 22.2971 68.9753 22.2971C72.0795 22.2971 74.9085 23.498 77.0256 25.4588C78.1234 26.4756 79.0301 27.6965 79.6834 29.0616C80.4274 30.614 80.8442 32.3524 80.8442 34.1866C80.8442 40.7421 75.5201 46.0761 68.9753 46.0761Z" fill="#7558EA"/>
<path d="M64.6298 32.6553C65.4246 32.6553 66.0688 32.01 66.0688 31.2138C66.0688 30.4183 65.4246 29.7729 64.6298 29.7729C63.8356 29.7729 63.1914 30.4183 63.1914 31.2138C63.1914 32.01 63.8356 32.6553 64.6298 32.6553Z" fill="#7558EA"/>
<path d="M73.5321 32.6553C74.327 32.6553 74.9705 32.01 74.9705 31.2144C74.9705 30.4183 74.327 29.7729 73.5321 29.7729C72.7373 29.7729 72.0938 30.4183 72.0938 31.2144C72.0938 32.01 72.7373 32.6553 73.5321 32.6553Z" fill="#7558EA"/>
<path d="M68.9505 41.5722C71.7335 41.5722 74.401 40.1464 75.9284 37.7791L74.7198 36.9968C73.3177 39.1709 70.7524 40.3839 68.1835 40.087C66.182 39.8556 64.331 38.7007 63.232 36.9968L62.0234 37.7791C63.3536 39.8404 65.5946 41.2383 68.019 41.5189C68.3299 41.5546 68.6408 41.5722 68.9505 41.5722Z" fill="#7558EA"/>
</g>
</svg>
