<svg width="138" height="113" viewBox="0 0 138 113" fill="none" xmlns="http://www.w3.org/2000/svg">
<path d="M129.011 0.706665H9.20853C4.53162 0.706665 0.740234 4.50462 0.740234 9.18963V104.32C0.740234 109.005 4.53162 112.803 9.20853 112.803H129.011C133.688 112.803 137.479 109.005 137.479 104.32V9.18963C137.479 4.50462 133.688 0.706665 129.011 0.706665Z" fill="white"/>
<path d="M45.0324 68.025H47.1616L50.2706 77.0533H48.4802L47.839 75.1143H44.3549L43.7017 77.0533H41.9233L45.0324 68.025ZM47.3672 73.6601L46.097 69.8549L44.8267 73.6601H47.3672ZM53.9652 77.1987C53.3362 77.1987 52.7676 77.0491 52.2595 76.7503C51.7592 76.4431 51.3643 76.0275 51.0739 75.5021C50.7836 74.9768 50.6384 74.3951 50.6384 73.7571C50.6384 73.119 50.7836 72.5373 51.0739 72.012C51.3643 71.4867 51.7635 71.0746 52.2716 70.7759C52.7797 70.4687 53.3404 70.3154 53.9531 70.3154C54.3723 70.3154 54.7558 70.3881 55.1024 70.5335C55.449 70.6711 55.7394 70.8686 55.9734 71.1273V67.8796H57.5582V77.0533H56.0581V76.3262C55.8162 76.6092 55.5137 76.8273 55.1508 76.9806C54.7879 77.126 54.3929 77.1987 53.9652 77.1987ZM52.2837 73.7571C52.2837 74.137 52.3605 74.4799 52.5135 74.7871C52.675 75.0859 52.8964 75.3204 53.1789 75.49C53.4614 75.6597 53.7795 75.7445 54.1346 75.7445C54.4897 75.7445 54.8042 75.6597 55.0782 75.49C55.3607 75.3204 55.5784 75.0859 55.7315 74.7871C55.893 74.4799 55.9734 74.137 55.9734 73.7571C55.9734 73.3771 55.893 73.0378 55.7315 72.7391C55.5784 72.4319 55.3607 72.1938 55.0782 72.0241C54.7957 71.8545 54.4812 71.7696 54.1346 71.7696C53.7795 71.7696 53.4614 71.8587 53.1789 72.0362C52.8964 72.2059 52.675 72.444 52.5135 72.7512C52.3605 73.0499 52.2837 73.3856 52.2837 73.7571ZM62.093 77.1987C61.4639 77.1987 60.8953 77.0491 60.3872 76.7503C59.8876 76.4431 59.492 76.0275 59.2017 75.5021C58.9113 74.9768 58.7662 74.3951 58.7662 73.7571C58.7662 73.119 58.9113 72.5373 59.2017 72.012C59.492 71.4867 59.8912 71.0746 60.3993 70.7759C60.9074 70.4687 61.4681 70.3154 62.0809 70.3154C62.5007 70.3154 62.8836 70.3881 63.2301 70.5335C63.5773 70.6711 63.8677 70.8686 64.1012 71.1273V67.8796H65.686V77.0533H64.1859V76.3262C63.9439 76.6092 63.6415 76.8273 63.2785 76.9806C62.9156 77.126 62.5206 77.1987 62.093 77.1987ZM60.4114 73.7571C60.4114 74.137 60.4882 74.4799 60.6413 74.7871C60.8028 75.0859 61.0248 75.3204 61.3066 75.49C61.5891 75.6597 61.9079 75.7445 62.2624 75.7445C62.6174 75.7445 62.932 75.6597 63.206 75.49C63.4884 75.3204 63.7062 75.0859 63.8592 74.7871C64.0207 74.4799 64.1012 74.137 64.1012 73.7571C64.1012 73.3771 64.0207 73.0378 63.8592 72.7391C63.7062 72.4319 63.4884 72.1938 63.206 72.0241C62.9241 71.8545 62.6096 71.7696 62.2624 71.7696C61.9079 71.7696 61.5891 71.8587 61.3066 72.0362C61.0248 72.2059 60.8028 72.444 60.6413 72.7512C60.4882 73.0499 60.4114 73.3856 60.4114 73.7571ZM72.2991 77.1987C71.7505 77.1987 71.2623 77.0975 70.8353 76.8958C70.4076 76.694 70.0768 76.4068 69.8433 76.0354C69.6092 75.6639 69.4925 75.2355 69.4925 74.7508C69.4925 73.7086 70.0405 72.8645 71.1377 72.218C70.8794 71.9029 70.6738 71.5836 70.5207 71.2607C70.3756 70.9377 70.303 70.5863 70.303 70.2063C70.303 69.7458 70.4119 69.3417 70.6296 68.9945C70.8552 68.6388 71.1498 68.3643 71.5128 68.1704C71.8835 67.9765 72.287 67.8796 72.7225 67.8796C73.158 67.8796 73.5572 67.9765 73.9202 68.1704C74.291 68.3643 74.5813 68.6352 74.7912 68.9824C75.0005 69.3217 75.1057 69.7052 75.1057 70.1336C75.1057 70.6911 74.94 71.1558 74.6097 71.5273C74.2867 71.8908 73.8754 72.2223 73.3758 72.521L74.5976 73.8904L75.4686 72.63H77.126L75.6017 75.0053L77.4285 77.0533H75.5291L74.7307 76.1808C74.069 76.8594 73.2584 77.1987 72.2991 77.1987ZM71.1619 74.7265C71.1619 75.0737 71.2666 75.3488 71.4765 75.5506C71.6942 75.7445 71.9882 75.8415 72.3596 75.8415C72.8919 75.8415 73.3552 75.5948 73.7508 75.1022L72.0934 73.2844C71.4722 73.6886 71.1619 74.1691 71.1619 74.7265ZM71.8031 70.1336C71.8031 70.5535 72.0245 71.0104 72.4685 71.503C72.8471 71.3012 73.1375 71.0952 73.3395 70.885C73.5488 70.6668 73.654 70.4124 73.654 70.1215C73.654 69.8549 73.5651 69.6325 73.3879 69.455C73.2185 69.269 73.0008 69.1763 72.7346 69.1763C72.4685 69.1763 72.2465 69.269 72.0692 69.455C71.8914 69.6325 71.8031 69.8591 71.8031 70.1336ZM81.1872 68.025H87.1997V69.4792H82.8324V71.9756H86.6553V73.4299H82.8324V77.0533H81.1872V68.025ZM88.1421 70.4608H89.7268V77.0533H88.1421V70.4608ZM88.0211 68.643C88.0211 68.3522 88.1021 68.1262 88.263 67.9644C88.4245 67.8026 88.6465 67.722 88.9284 67.722C89.2187 67.722 89.445 67.8026 89.6059 67.9644C89.7674 68.1262 89.8478 68.3522 89.8478 68.643C89.8478 68.926 89.7674 69.1478 89.6059 69.3096C89.4528 69.4714 89.2272 69.5519 88.9284 69.5519C88.6465 69.5519 88.4245 69.4714 88.263 69.3096C88.1021 69.1478 88.0211 68.926 88.0211 68.643ZM91.1906 67.8796H92.7754V77.0533H91.1906V67.8796ZM94.2386 67.8796H95.8234V77.0533H94.2386V67.8796ZM23.5508 92.3469C22.8412 92.3469 22.2243 92.2136 21.6998 91.947C21.1839 91.6804 20.7804 91.3453 20.4901 90.9411C20.1997 90.5291 20.0146 90.1007 19.9336 89.6566L21.4821 89.2445C21.6031 89.7371 21.845 90.1213 22.2079 90.3958C22.5708 90.6703 23.0269 90.8078 23.575 90.8078C23.9947 90.8078 24.3335 90.703 24.5911 90.4927C24.8573 90.2825 24.9904 90.0322 24.9904 89.7414C24.9904 89.4748 24.8936 89.2445 24.7 89.0506C24.5149 88.8489 24.2609 88.7156 23.9379 88.6507L22.583 88.3841C21.8656 88.2466 21.3006 87.9357 20.8893 87.451C20.478 86.9663 20.2723 86.3767 20.2723 85.6817C20.2723 85.197 20.4096 84.7528 20.6836 84.3486C20.9661 83.9366 21.3369 83.6137 21.7966 83.3792C22.2648 83.1447 22.7608 83.0277 23.2846 83.0277C23.9542 83.0277 24.5228 83.141 24.9904 83.3671C25.4585 83.5931 25.8215 83.8803 26.0792 84.2275C26.3453 84.5668 26.5231 84.9261 26.6114 85.306L25.0751 85.7908C24.9057 85.3545 24.6758 85.0437 24.3855 84.8576C24.0951 84.6637 23.7286 84.5668 23.2846 84.5668C23.0348 84.5668 22.8092 84.6195 22.6071 84.7243C22.4136 84.8292 22.2606 84.9667 22.1474 85.1364C22.0428 85.2981 21.9902 85.4636 21.9902 85.6332C21.9902 85.8998 22.0791 86.1343 22.2563 86.3361C22.4342 86.53 22.6797 86.6554 22.9943 86.7118L24.2766 86.9905C25.0593 87.1601 25.6642 87.4831 26.0912 87.96C26.5189 88.4284 26.7324 88.99 26.7324 89.6444C26.7324 90.1128 26.6036 90.5533 26.3453 90.9654C26.0876 91.3774 25.7162 91.7125 25.2323 91.9712C24.7569 92.2214 24.1962 92.3469 23.5508 92.3469ZM28.0323 85.609H29.5203V86.3846C29.7623 86.0937 30.0611 85.8677 30.4155 85.7059C30.7784 85.5441 31.1861 85.4636 31.6374 85.4636C32.2507 85.4636 32.8108 85.6169 33.3189 85.9241C33.827 86.2228 34.2262 86.6348 34.5166 87.1601C34.8069 87.6855 34.9521 88.2672 34.9521 88.9052C34.9521 89.5433 34.8069 90.1249 34.5166 90.6503C34.2262 91.1756 33.827 91.5913 33.3189 91.8985C32.8193 92.1972 32.2543 92.3469 31.6253 92.3469C31.2224 92.3469 30.8474 92.282 30.5002 92.153C30.1536 92.0154 29.859 91.8215 29.6171 91.5713V94.6252H28.0323V85.609ZM29.6171 88.9052C29.6171 89.2851 29.6939 89.6281 29.8469 89.9353C30.0084 90.234 30.2262 90.4685 30.5002 90.6382C30.7827 90.8078 31.0972 90.8926 31.4438 90.8926C31.9846 90.8926 32.428 90.7066 32.7746 90.3352C33.1296 89.9553 33.3068 89.479 33.3068 88.9052C33.3068 88.5338 33.2264 88.1981 33.0649 87.8994C32.904 87.5922 32.682 87.354 32.3995 87.1844C32.1176 87.0068 31.7989 86.9178 31.4438 86.9178C31.0972 86.9178 30.7827 87.0026 30.5002 87.1723C30.2262 87.3419 30.0084 87.5801 29.8469 87.8873C29.6939 88.186 29.6171 88.5253 29.6171 88.9052ZM38.1567 92.3469C37.4629 92.3469 36.9107 92.1772 36.4994 91.8379C36.0959 91.4986 35.8945 91.0381 35.8945 90.4564C35.8945 89.8989 36.0838 89.4384 36.4631 89.0749C36.8424 88.7113 37.4109 88.4689 38.1689 88.3478L40.1287 88.0327V87.8145C40.1287 87.5237 40.0155 87.2856 39.7899 87.0996C39.5722 86.9135 39.2818 86.8208 38.9189 86.8208C38.5802 86.8208 38.2777 86.9135 38.0116 87.0996C37.7533 87.2771 37.564 87.5158 37.443 87.8145L36.1485 87.1844C36.3421 86.6675 36.6972 86.2513 37.2131 85.9362C37.7291 85.6211 38.3183 85.4636 38.9794 85.4636C39.5117 85.4636 39.9835 85.5647 40.3948 85.7665C40.814 85.9604 41.137 86.2391 41.3626 86.6027C41.5967 86.9584 41.7134 87.3619 41.7134 87.8145V92.2015H40.2133V91.4986C39.6974 92.0639 39.0114 92.3469 38.1567 92.3469ZM37.5398 90.3958C37.5398 90.6218 37.6244 90.8036 37.7938 90.9411C37.9632 91.0702 38.1809 91.135 38.4471 91.135C38.9389 91.135 39.3423 90.9817 39.6568 90.6745C39.9714 90.3594 40.1287 89.9716 40.1287 89.5111V89.2445L38.4713 89.5233C38.1568 89.5881 37.9227 89.6929 37.7696 89.8383C37.6166 89.9759 37.5398 90.1613 37.5398 90.3958ZM46.348 92.3469C45.7026 92.3469 45.1141 92.1972 44.5818 91.8985C44.0573 91.5913 43.646 91.1756 43.3478 90.6503C43.049 90.1249 42.9002 89.5396 42.9002 88.8931C42.9002 88.2466 43.049 87.6649 43.3478 87.148C43.646 86.6227 44.0573 86.2107 44.5818 85.9119C45.1056 85.6132 45.6947 85.4636 46.348 85.4636C47.0497 85.4636 47.6745 85.6453 48.2231 86.0089C48.7711 86.3646 49.1462 86.833 49.3482 87.4146L47.9691 88.0206C47.8396 87.6812 47.6304 87.4146 47.34 87.2207C47.0497 87.019 46.7188 86.9178 46.348 86.9178C46.0093 86.9178 45.7026 87.0026 45.4286 87.1723C45.154 87.3419 44.9362 87.5801 44.7753 87.8873C44.6217 88.186 44.5455 88.5253 44.5455 88.9052C44.5455 89.2851 44.6217 89.6281 44.7753 89.9353C44.9362 90.234 45.154 90.4685 45.4286 90.6382C45.7026 90.8078 46.0093 90.8926 46.348 90.8926C46.7267 90.8926 47.0575 90.7957 47.34 90.6018C47.6304 90.4 47.8396 90.1249 47.9691 89.7777L49.3482 90.4079C49.1546 90.9817 48.7796 91.4501 48.2231 91.8137C47.6745 92.1693 47.0497 92.3469 46.348 92.3469ZM53.6598 92.3469C52.998 92.3469 52.4095 92.1936 51.8935 91.8864C51.3854 91.5792 50.9862 91.1635 50.6959 90.6382C50.4134 90.1128 50.2725 89.5311 50.2725 88.8931C50.2725 88.2466 50.4134 87.6649 50.6959 87.148C50.9862 86.6227 51.377 86.2107 51.8693 85.9119C52.369 85.6132 52.9254 85.4636 53.5388 85.4636C54.1999 85.4636 54.7728 85.609 55.2567 85.8998C55.7406 86.1828 56.1071 86.5706 56.3575 87.0632C56.6152 87.5558 56.7447 88.0975 56.7447 88.6871C56.7447 88.9616 56.7162 89.1839 56.66 89.3536H51.9177C51.9661 89.8383 52.1512 90.2261 52.4742 90.517C52.7966 90.8078 53.1958 90.9532 53.6719 90.9532C54.0263 90.9532 54.3288 90.8805 54.5792 90.7351C54.8369 90.5818 55.0425 90.3716 55.1962 90.1049L56.4785 90.7351C56.2765 91.2199 55.922 91.6119 55.4139 91.9106C54.9058 92.2015 54.3209 92.3469 53.6598 92.3469ZM55.051 88.1418C55.0105 87.7376 54.8532 87.4104 54.5792 87.1601C54.3046 86.9014 53.958 86.7724 53.5388 86.7724C53.1353 86.7724 52.7924 86.8935 52.5105 87.1359C52.228 87.3704 52.0423 87.7055 51.954 88.1418H55.051ZM60.4139 92.3348C59.7521 92.3348 59.1678 92.1772 58.6597 91.8621C58.1595 91.5471 57.8044 91.115 57.5951 90.5655L58.7686 89.9595C58.9458 90.3152 59.1799 90.5939 59.4702 90.7957C59.7684 90.9896 60.0951 91.0865 60.4501 91.0865C60.7562 91.0865 60.9945 91.026 61.1639 90.9048C61.3411 90.7757 61.43 90.6018 61.43 90.3837C61.43 90.1977 61.3574 90.0444 61.2123 89.9232C61.0671 89.7941 60.8772 89.7093 60.6437 89.6687L59.567 89.4869C59.0105 89.3415 58.5786 89.0949 58.2726 88.7477C57.9738 88.392 57.825 87.9763 57.825 87.4995C57.825 87.1038 57.9296 86.7524 58.1395 86.4452C58.3488 86.1301 58.6391 85.8877 59.0105 85.718C59.3892 85.5484 59.8168 85.4636 60.2929 85.4636C60.8977 85.4636 61.43 85.609 61.8897 85.8998C62.3494 86.1828 62.6839 86.5785 62.8938 87.0874L61.7204 87.6934C61.5909 87.4104 61.3937 87.1844 61.1276 87.0147C60.8615 86.8451 60.5669 86.7602 60.2445 86.7602C59.9783 86.7602 59.7642 86.8208 59.6033 86.942C59.4497 87.0632 59.3735 87.2207 59.3735 87.4146C59.3735 87.7703 59.6396 88.0084 60.1719 88.1296L61.2244 88.3235C61.7809 88.4768 62.2121 88.7277 62.5188 89.0749C62.8249 89.4221 62.9785 89.8341 62.9785 90.311C62.9785 90.7066 62.8696 91.0581 62.6519 91.3653C62.442 91.6725 62.1438 91.9106 61.7567 92.0803C61.3696 92.2499 60.9219 92.3348 60.4139 92.3348ZM69.2983 92.3469C68.7497 92.3469 68.2615 92.2457 67.8345 92.0439C67.4068 91.8421 67.076 91.5549 66.8425 91.1835C66.6084 90.8121 66.4916 90.3837 66.4916 89.8989C66.4916 88.8567 67.0397 88.0127 68.1369 87.3662C67.8786 87.0511 67.673 86.7318 67.52 86.4088C67.3748 86.0858 67.3022 85.7344 67.3022 85.3545C67.3022 84.894 67.4111 84.4898 67.6288 84.1426C67.8544 83.787 68.149 83.5125 68.512 83.3186C68.8827 83.1247 69.2862 83.0277 69.7217 83.0277C70.1572 83.0277 70.5564 83.1247 70.9194 83.3186C71.2902 83.5125 71.5805 83.7833 71.7904 84.1305C71.9997 84.4698 72.1049 84.8534 72.1049 85.2818C72.1049 85.8392 71.9392 86.304 71.6089 86.6754C71.2859 87.039 70.8746 87.3704 70.375 87.6691L71.5968 89.0385L72.4678 87.7782H74.1252L72.6009 90.1534L74.4277 92.2015H72.5283L71.7299 91.3289C71.0682 92.0076 70.2576 92.3469 69.2983 92.3469ZM68.1611 89.8747C68.1611 90.2219 68.2658 90.497 68.4757 90.6988C68.6934 90.8927 68.9874 90.9896 69.3588 90.9896C69.8911 90.9896 70.3544 90.743 70.75 90.2504L69.0926 88.4326C68.4714 88.8367 68.1611 89.3172 68.1611 89.8747ZM68.8023 85.2818C68.8023 85.7017 69.0237 86.1586 69.4677 86.6512C69.8463 86.4494 70.1367 86.2434 70.3387 86.0331C70.548 85.815 70.6532 85.5605 70.6532 85.2697C70.6532 85.003 70.5643 84.7807 70.3871 84.6031C70.2177 84.4171 70 84.3244 69.7338 84.3244C69.4677 84.3244 69.2457 84.4171 69.0684 84.6031C68.8906 84.7807 68.8023 85.0073 68.8023 85.2818ZM78.1864 83.1732H79.8316V87.1117H83.6666V83.1732H85.3239V92.2015H83.6666V88.5659H79.8316V92.2015H78.1864V83.1732ZM90.1436 92.3469C89.5061 92.3469 88.9218 92.1972 88.3895 91.8985C87.8572 91.5998 87.4338 91.1877 87.1192 90.6624C86.8125 90.1371 86.6595 89.5517 86.6595 88.9052C86.6595 88.2587 86.8125 87.6734 87.1192 87.148C87.4253 86.6227 87.8451 86.2107 88.3773 85.9119C88.9096 85.6132 89.4982 85.4636 90.1436 85.4636C90.7805 85.4636 91.3612 85.6132 91.8857 85.9119C92.4179 86.2107 92.8371 86.6227 93.1438 87.148C93.4583 87.6734 93.6156 88.2587 93.6156 88.9052C93.6156 89.5596 93.4583 90.1492 93.1438 90.6745C92.8371 91.1999 92.4179 91.6119 91.8857 91.9106C91.3534 92.2015 90.7727 92.3469 90.1436 92.3469ZM88.3048 88.9052C88.3048 89.479 88.4741 89.9553 88.8129 90.3352C89.1595 90.7066 89.6028 90.8926 90.1436 90.8926C90.4902 90.8926 90.8005 90.8078 91.0751 90.6382C91.3491 90.4685 91.5627 90.234 91.7163 89.9353C91.8772 89.6281 91.9582 89.2851 91.9582 88.9052C91.9582 88.5338 91.8772 88.1981 91.7163 87.8994C91.5627 87.5922 91.3491 87.354 91.0751 87.1844C90.8005 87.0068 90.4902 86.9178 90.1436 86.9178C89.7885 86.9178 89.4698 87.0068 89.1879 87.1844C88.9133 87.354 88.6955 87.5885 88.5346 87.8873C88.381 88.186 88.3048 88.5253 88.3048 88.9052ZM94.8175 85.609H96.3055V86.433C96.4749 86.118 96.7168 85.8798 97.0313 85.718C97.3537 85.5484 97.7245 85.4636 98.1443 85.4636C98.5798 85.4636 98.9791 85.5605 99.342 85.7544C99.7049 85.9404 99.9832 86.1985 100.177 86.53C100.394 86.1743 100.676 85.9077 101.024 85.7302C101.378 85.5526 101.777 85.4636 102.221 85.4636C102.681 85.4636 103.096 85.5684 103.467 85.7786C103.838 85.9889 104.128 86.2834 104.338 86.6633C104.548 87.0432 104.653 87.4752 104.653 87.96V92.2015H103.068V88.3356C103.068 87.8994 102.951 87.5558 102.717 87.3056C102.491 87.0468 102.185 86.9178 101.798 86.9178C101.419 86.9178 101.112 87.0468 100.878 87.3056C100.644 87.5643 100.528 87.9073 100.528 88.3356V92.2015H98.9428V88.3356C98.9428 87.8994 98.8254 87.5558 98.5919 87.3056C98.3657 87.0468 98.0596 86.9178 97.6725 86.9178C97.2933 86.9178 96.9866 87.0468 96.7531 87.3056C96.519 87.5643 96.4023 87.9073 96.4023 88.3356V92.2015H94.8175V85.609ZM109.114 92.3469C108.453 92.3469 107.865 92.1936 107.348 91.8864C106.84 91.5792 106.441 91.1635 106.15 90.6382C105.869 90.1128 105.727 89.5311 105.727 88.8931C105.727 88.2466 105.869 87.6649 106.15 87.148C106.441 86.6227 106.832 86.2107 107.324 85.9119C107.824 85.6132 108.381 85.4636 108.993 85.4636C109.655 85.4636 110.227 85.609 110.711 85.8998C111.195 86.1828 111.562 86.5706 111.812 87.0632C112.07 87.5558 112.199 88.0975 112.199 88.6871C112.199 88.9616 112.171 89.1839 112.115 89.3536H107.372C107.421 89.8383 107.606 90.2261 107.929 90.517C108.252 90.8078 108.651 90.9532 109.126 90.9532C109.482 90.9532 109.784 90.8805 110.034 90.7351C110.292 90.5818 110.498 90.3716 110.651 90.1049L111.933 90.7351C111.732 91.2199 111.377 91.6119 110.869 91.9106C110.36 92.2015 109.776 92.3469 109.114 92.3469ZM110.506 88.1418C110.466 87.7376 110.308 87.4104 110.034 87.1601C109.76 86.9014 109.413 86.7724 108.993 86.7724C108.591 86.7724 108.248 86.8935 107.965 87.1359C107.683 87.3704 107.498 87.7055 107.409 88.1418H110.506ZM115.868 92.3348C115.207 92.3348 114.622 92.1772 114.114 91.8621C113.615 91.5471 113.26 91.115 113.05 90.5655L114.223 89.9595C114.401 90.3152 114.635 90.5939 114.925 90.7957C115.224 90.9896 115.55 91.0865 115.905 91.0865C116.211 91.0865 116.449 91.026 116.618 90.9048C116.796 90.7757 116.885 90.6018 116.885 90.3837C116.885 90.1977 116.812 90.0444 116.667 89.9232C116.522 89.7941 116.332 89.7093 116.098 89.6687L115.022 89.4869C114.465 89.3415 114.034 89.0949 113.727 88.7477C113.429 88.392 113.28 87.9763 113.28 87.4995C113.28 87.1038 113.385 86.7524 113.594 86.4452C113.804 86.1301 114.094 85.8877 114.465 85.718C114.844 85.5484 115.272 85.4636 115.747 85.4636C116.352 85.4636 116.885 85.609 117.344 85.8998C117.804 86.1828 118.139 86.5785 118.348 87.0874L117.175 87.6934C117.046 87.4104 116.848 87.1844 116.582 87.0147C116.316 86.8451 116.022 86.7602 115.699 86.7602C115.433 86.7602 115.219 86.8208 115.058 86.942C114.905 87.0632 114.828 87.2207 114.828 87.4146C114.828 87.7703 115.094 88.0084 115.627 88.1296L116.679 88.3235C117.235 88.4768 117.667 88.7277 117.973 89.0749C118.28 89.4221 118.433 89.8341 118.433 90.311C118.433 90.7066 118.324 91.0581 118.107 91.3653C117.897 91.6725 117.598 91.9106 117.211 92.0803C116.824 92.2499 116.377 92.3348 115.868 92.3348Z" fill="#1E1634"/>
<path opacity="0.1" d="M83.8801 12.8252H54.5749C50.5662 12.8252 47.3164 16.0806 47.3164 20.0963V49.4523C47.3164 53.468 50.5662 56.7234 54.5749 56.7234H83.8801C87.8889 56.7234 91.1387 53.468 91.1387 49.4523V20.0963C91.1387 16.0806 87.8889 12.8252 83.8801 12.8252Z" fill="#43B0FF"/>
<mask id="mask0_2043_11696" style="mask-type:luminance" maskUnits="userSpaceOnUse" x="56" y="21" width="26" height="25">
<path d="M81.1893 21.3082H56.9941V45.5452H81.1893V21.3082Z" fill="white"/>
</mask>
<g mask="url(#mask0_2043_11696)">
<path d="M69.0313 21.3079C68.9557 21.3162 68.8831 21.3421 68.8196 21.3837L57.2059 29.0638C57.1394 29.109 57.0856 29.1701 57.0481 29.2415C57.0112 29.3129 56.993 29.3923 56.9942 29.4728V32.5782C56.9924 32.6669 57.0154 32.7545 57.0602 32.8311C57.1049 32.9078 57.1702 32.9707 57.2483 33.0129C57.3263 33.0551 57.414 33.075 57.5029 33.0705C57.5912 33.0659 57.6771 33.0371 57.7503 32.9872L58.4459 32.5327V45.0602C58.4459 45.1888 58.4967 45.3121 58.5875 45.403C58.6782 45.4938 58.8016 45.5449 58.9298 45.545H79.2537C79.382 45.5449 79.5048 45.4938 79.5955 45.403C79.6862 45.3121 79.7376 45.1888 79.7376 45.0602V32.5327L80.4333 32.9872C80.5065 33.0371 80.5923 33.0659 80.6807 33.0705C80.769 33.075 80.8573 33.0551 80.9353 33.0129C81.0133 32.9707 81.0781 32.9078 81.1228 32.8311C81.1676 32.7545 81.1906 32.6669 81.1894 32.5782V29.4728C81.1906 29.3923 81.1718 29.3129 81.1349 29.2415C81.098 29.1701 81.0442 29.109 80.9777 29.0638L69.364 21.3837C69.266 21.3188 69.1474 21.2919 69.0313 21.3079ZM69.0918 22.3835L80.2216 29.7455V31.6844L69.364 24.4891C69.2835 24.4343 69.1886 24.4051 69.0918 24.4051C68.9944 24.4051 68.8994 24.4343 68.8196 24.4891L57.962 31.6844V29.7455L69.0918 22.3835ZM69.0918 25.4888L78.7698 31.8813V44.5755H59.4138V31.8813L69.0918 25.4888ZM66.4455 31.9722C64.704 31.9722 63.285 33.3939 63.285 35.1382V35.4412C62.4527 35.6578 61.8333 36.406 61.8333 37.3044C61.8333 38.1995 62.4569 38.9326 63.285 39.1525V39.5918C63.285 40.3256 63.6757 40.9798 64.2528 41.3489V42.1063C64.2528 42.3972 64.4917 42.6365 64.782 42.6365H65.6591C65.9501 42.6365 66.1884 42.3972 66.1884 42.1063V41.6671H71.9952V42.1063C71.9952 42.3972 72.2335 42.6365 72.5245 42.6365H73.4016C73.6919 42.6365 73.9308 42.3972 73.9308 42.1063V41.3489C74.5079 40.9798 74.8986 40.3256 74.8986 39.5918V39.1525C75.7261 38.9326 76.3503 38.1995 76.3503 37.3044C76.3503 36.406 75.7309 35.6578 74.8986 35.4412V35.1382C74.8986 33.3939 73.4796 31.9722 71.7381 31.9722H66.4455ZM66.4455 32.9417H71.7381C72.9564 32.9417 73.9308 33.9178 73.9308 35.1382V35.4412C73.0985 35.6578 72.4791 36.406 72.4791 37.3044C72.4791 37.7084 72.3799 37.9186 72.2523 38.0466C72.1246 38.1747 71.9142 38.2739 71.5113 38.2739H66.6723C66.2694 38.2739 66.0589 38.1747 65.9313 38.0466C65.8031 37.9186 65.7045 37.7081 65.7045 37.3044C65.7045 36.406 65.0851 35.6578 64.2528 35.4412V35.1382C64.2528 33.9178 65.2272 32.9417 66.4455 32.9417ZM63.6781 36.3349C63.7283 36.3428 63.7792 36.3428 63.8294 36.3349C64.3399 36.3659 64.7367 36.7838 64.7367 37.3044C64.7367 37.8697 64.8794 38.3869 65.2357 38.7435C65.5914 39.1 66.1079 39.2433 66.6723 39.2433H71.5113C72.0757 39.2433 72.5916 39.1001 72.9479 38.7435C73.3036 38.3867 73.4469 37.8698 73.4469 37.3044C73.4469 36.7941 73.8274 36.3802 74.324 36.3349C74.3742 36.3428 74.425 36.3428 74.4752 36.3349C74.9857 36.3659 75.3825 36.7838 75.3825 37.3044C75.3825 37.8457 74.9549 38.2739 74.4147 38.2739H73.9308V38.7586V39.5918C73.9308 40.2107 73.4439 40.6976 72.8269 40.6976H65.3567C64.7385 40.6976 64.2528 40.2107 64.2528 39.5918V38.7586V38.2739H63.7689C63.2281 38.2739 62.8011 37.8457 62.8011 37.3044C62.8011 36.7941 63.1815 36.3802 63.6781 36.3349Z" fill="#43B0FF"/>
</g>
</svg>
