<svg width="138" height="113" viewBox="0 0 138 113" fill="none" xmlns="http://www.w3.org/2000/svg">
<path d="M128.683 0.254761H8.8804C4.20349 0.254761 0.412109 4.05271 0.412109 8.73772V103.868C0.412109 108.553 4.20349 112.351 8.8804 112.351H128.683C133.359 112.351 137.151 108.553 137.151 103.868V8.73772C137.151 4.05271 133.359 0.254761 128.683 0.254761Z" fill="white"/>
<path d="M36.707 67.5731H40.5057C41.393 67.5731 42.0905 67.7991 42.5986 68.2518C43.1067 68.7044 43.3607 69.3261 43.3607 70.118C43.3607 70.7645 43.1188 71.3056 42.6349 71.7419C43.3607 72.2103 43.7236 72.9095 43.7236 73.8384C43.7236 74.7031 43.4375 75.3817 42.8647 75.8743C42.3003 76.3591 41.514 76.6014 40.5057 76.6014H36.707V67.5731ZM40.675 75.1472C41.0942 75.1472 41.433 75.0303 41.6913 74.7958C41.9495 74.5534 42.0784 74.2341 42.0784 73.8384C42.0784 73.4427 41.9495 73.1234 41.6913 72.881C41.4414 72.6387 41.1027 72.5175 40.675 72.5175H38.3523V75.1472H40.675ZM40.5904 71.0754C40.9291 71.0754 41.1995 70.9785 41.4009 70.7846C41.6023 70.5828 41.7033 70.324 41.7033 70.009C41.7033 69.6939 41.6023 69.4436 41.4009 69.2576C41.1995 69.0716 40.9291 68.9789 40.5904 68.9789H38.3523V71.0754H40.5904ZM48.0594 76.7468C47.3983 76.7468 46.8091 76.5935 46.2932 76.2863C45.7851 75.9791 45.3858 75.5635 45.0955 75.0381C44.813 74.5128 44.6721 73.9311 44.6721 73.2931C44.6721 72.6465 44.813 72.0648 45.0955 71.548C45.3858 71.0227 45.7772 70.6106 46.269 70.3119C46.7692 70.0132 47.3257 69.8635 47.9384 69.8635C48.5995 69.8635 49.1724 70.0089 49.6563 70.2998C50.1402 70.5828 50.5073 70.9706 50.7572 71.4632C51.0154 71.9558 51.1443 72.4975 51.1443 73.0871C51.1443 73.3616 51.1158 73.5839 51.0596 73.7536H46.3173C46.3657 74.2383 46.5514 74.6261 46.8738 74.9169C47.1962 75.2078 47.5955 75.3532 48.0715 75.3532C48.4266 75.3532 48.729 75.2805 48.9788 75.1351C49.2371 74.9818 49.4428 74.7715 49.5958 74.5049L50.8781 75.1351C50.6767 75.6198 50.3216 76.0119 49.8135 76.3106C49.3054 76.6014 48.7205 76.7468 48.0594 76.7468ZM49.4506 72.5417C49.4101 72.1376 49.2528 71.8104 48.9788 71.5601C48.7048 71.3014 48.3576 71.1723 47.9384 71.1723C47.5349 71.1723 47.1926 71.2935 46.9101 71.5359C46.6277 71.7704 46.4425 72.1055 46.3536 72.5417H49.4506ZM54.8135 76.7347C54.1523 76.7347 53.5674 76.5772 53.0593 76.2621C52.5591 75.947 52.2046 75.515 51.9947 74.9654L53.1682 74.3595C53.3454 74.7152 53.5795 74.9939 53.8699 75.1957C54.1681 75.3896 54.4947 75.4865 54.8498 75.4865C55.1564 75.4865 55.3941 75.4259 55.5635 75.3047C55.7407 75.1757 55.8297 75.0018 55.8297 74.7837C55.8297 74.5976 55.7571 74.4443 55.6119 74.3231C55.4667 74.1941 55.2774 74.1093 55.0433 74.0687L53.9666 73.8869C53.4101 73.7415 52.9789 73.4948 52.6722 73.1476C52.374 72.792 52.2246 72.3763 52.2246 71.8994C52.2246 71.5038 52.3292 71.1523 52.5391 70.8451C52.749 70.5301 53.0394 70.2877 53.4101 70.118C53.7894 69.9484 54.2164 69.8635 54.6925 69.8635C55.2974 69.8635 55.8297 70.0089 56.2894 70.2998C56.7491 70.5828 57.0836 70.9784 57.2934 71.4874L56.12 72.0933C55.9911 71.8104 55.7934 71.5844 55.5272 71.4147C55.2611 71.245 54.9665 71.1602 54.6441 71.1602C54.378 71.1602 54.1644 71.2208 54.0029 71.342C53.8499 71.4632 53.7731 71.6207 53.7731 71.8146C53.7731 72.1703 54.0392 72.4084 54.5715 72.5296L55.624 72.7235C56.1805 72.8768 56.6118 73.1277 56.9184 73.4749C57.2251 73.8221 57.3781 74.2341 57.3781 74.7109C57.3781 75.1066 57.2693 75.458 57.0515 75.7653C56.8416 76.0725 56.5434 76.3106 56.1563 76.4802C55.7692 76.6499 55.3216 76.7347 54.8135 76.7347ZM61.5603 76.6741C60.8181 76.6741 60.2416 76.4724 59.8303 76.0682C59.4269 75.6562 59.2254 75.0787 59.2254 74.3353V71.4268H58.0883V70.009H58.2093C58.5317 70.009 58.7815 69.9241 58.9593 69.7545C59.1365 69.5848 59.2254 69.3382 59.2254 69.0152V68.5063H60.8102V70.009H62.3224V71.4268H60.8102V74.2504C60.8102 74.9369 61.181 75.2805 61.9232 75.2805C62.0521 75.2805 62.193 75.2684 62.3466 75.2442V76.6136C62.0883 76.6542 61.8264 76.6741 61.5603 76.6741ZM65.8404 67.5731H67.4857V76.6014H65.8404V67.5731ZM69.0862 70.009H70.5742V70.833C70.7435 70.5179 70.9855 70.2798 71.3 70.118C71.6224 69.9484 71.9938 69.8635 72.413 69.8635C72.8485 69.8635 73.2477 69.9605 73.6106 70.1544C73.9736 70.3404 74.2518 70.5985 74.4454 70.93C74.6631 70.5743 74.9456 70.3077 75.2922 70.1301C75.6473 69.9526 76.0465 69.8635 76.4899 69.8635C76.9496 69.8635 77.3651 69.9684 77.7359 70.1786C78.1067 70.3889 78.3971 70.6833 78.6069 71.0633C78.8168 71.4432 78.9215 71.8752 78.9215 72.3599V76.6014H77.3367V72.7356C77.3367 72.2994 77.22 71.9558 76.9859 71.7055C76.7603 71.4468 76.4536 71.3178 76.0665 71.3178C75.6872 71.3178 75.3811 71.4468 75.1471 71.7055C74.913 71.9643 74.7962 72.3072 74.7962 72.7356V76.6014H73.2114V72.7356C73.2114 72.2994 73.0947 71.9558 72.8606 71.7055C72.635 71.4468 72.3283 71.3178 71.9412 71.3178C71.5619 71.3178 71.2559 71.4468 71.0218 71.7055C70.7877 71.9643 70.6709 72.3072 70.6709 72.7356V76.6014H69.0862V70.009ZM82.2586 76.7468C81.5648 76.7468 81.0125 76.5772 80.6012 76.2379C80.1978 75.8986 79.9963 75.4381 79.9963 74.8564C79.9963 74.2989 80.1857 73.8384 80.5649 73.4749C80.9436 73.1113 81.5122 72.8689 82.2707 72.7478L84.2305 72.4327V72.2145C84.2305 71.9237 84.1174 71.6856 83.8918 71.4995C83.674 71.3135 83.3837 71.2208 83.0207 71.2208C82.682 71.2208 82.3796 71.3135 82.1134 71.4995C81.8551 71.6771 81.6658 71.9158 81.5448 72.2145L80.2504 71.5843C80.444 71.0675 80.7984 70.6512 81.315 70.3361C81.8309 70.0211 82.4195 69.8635 83.0812 69.8635C83.6135 69.8635 84.0853 69.9647 84.4966 70.1665C84.9158 70.3604 85.2382 70.6391 85.4644 71.0027C85.6979 71.3584 85.8153 71.7619 85.8153 72.2145V76.6014H84.3152V75.8986C83.7986 76.4639 83.1133 76.7468 82.2586 76.7468ZM81.6416 74.7958C81.6416 75.0218 81.7263 75.2035 81.8957 75.3411C82.065 75.4702 82.2828 75.535 82.549 75.535C83.0407 75.535 83.4442 75.3817 83.7587 75.0745C84.0732 74.7594 84.2305 74.3716 84.2305 73.9111V73.6445L82.5731 73.9232C82.2586 73.9881 82.0245 74.0929 81.8715 74.2383C81.7179 74.3759 81.6416 74.5613 81.6416 74.7958ZM90.4734 79.2675C89.7312 79.2675 89.078 79.09 88.5136 78.7343C87.9571 78.3871 87.5743 77.9223 87.3644 77.3406L88.8403 76.7832C88.9371 77.0983 89.1306 77.3485 89.421 77.5345C89.7113 77.7206 90.0621 77.8133 90.4734 77.8133C90.9573 77.8133 91.3487 77.6757 91.6469 77.4013C91.9536 77.1268 92.1066 76.7511 92.1066 76.2742V75.5593C91.639 76.0761 91.0057 76.3348 90.2073 76.3348C89.6024 76.3348 89.0538 76.1936 88.562 75.9107C88.0781 75.6277 87.6989 75.2399 87.4249 74.7473C87.1509 74.2547 87.0135 73.7009 87.0135 73.0871C87.0135 72.4733 87.1466 71.9237 87.4128 71.4389C87.6868 70.9463 88.066 70.5622 88.5499 70.2877C89.0338 70.0047 89.574 69.8635 90.171 69.8635C91.0178 69.8635 91.6911 70.1622 92.1913 70.7603V70.009H93.6914V76.2742C93.6914 76.8481 93.5541 77.3607 93.2801 77.8133C93.0061 78.2738 92.6226 78.6295 92.1308 78.8797C91.6469 79.1384 91.0946 79.2675 90.4734 79.2675ZM88.6588 73.0992C88.6588 73.6081 88.8203 74.0323 89.1427 74.3716C89.4736 74.7031 89.8928 74.8685 90.4009 74.8685C90.9011 74.8685 91.3082 74.7031 91.6227 74.3716C91.9451 74.0402 92.1066 73.616 92.1066 73.0992C92.1066 72.5823 91.9451 72.1582 91.6227 71.8267C91.3003 71.4874 90.8926 71.3178 90.4009 71.3178C89.9006 71.3178 89.4857 71.4874 89.1548 71.8267C88.8239 72.1661 88.6588 72.5902 88.6588 73.0992ZM98.2927 76.7468C97.6316 76.7468 97.0424 76.5935 96.5265 76.2863C96.0184 75.9791 95.6192 75.5635 95.3288 75.0381C95.0463 74.5128 94.9054 73.9311 94.9054 73.2931C94.9054 72.6465 95.0463 72.0648 95.3288 71.548C95.6192 71.0227 96.0105 70.6106 96.5023 70.3119C97.0025 70.0132 97.559 69.8635 98.1717 69.8635C98.8329 69.8635 99.4057 70.0089 99.8896 70.2998C100.373 70.5828 100.741 70.9706 100.99 71.4632C101.249 71.9558 101.378 72.4975 101.378 73.0871C101.378 73.3616 101.349 73.5839 101.293 73.7536H96.5506C96.599 74.2383 96.7848 74.6261 97.1072 74.9169C97.4296 75.2078 97.8288 75.3532 98.3048 75.3532C98.6599 75.3532 98.9623 75.2805 99.2121 75.1351C99.4704 74.9818 99.6761 74.7715 99.8291 74.5049L101.111 75.1351C100.91 75.6198 100.555 76.0119 100.047 76.3106C99.5388 76.6014 98.9538 76.7468 98.2927 76.7468ZM99.6839 72.5417C99.6434 72.1376 99.4861 71.8104 99.2121 71.5601C98.9381 71.3014 98.5909 71.1723 98.1717 71.1723C97.7683 71.1723 97.4259 71.2935 97.1434 71.5359C96.861 71.7704 96.6758 72.1055 96.5869 72.5417H99.6839ZM52.8833 91.895C51.9639 91.895 51.1255 91.6969 50.367 91.3012C49.6169 90.9055 49.0242 90.3517 48.5887 89.641C48.1616 88.9302 47.9475 88.1261 47.9475 87.2294C47.9475 86.3568 48.1532 85.5649 48.5645 84.8541C48.9758 84.1434 49.5407 83.5859 50.2581 83.1818C50.9761 82.7776 51.7746 82.5759 52.6535 82.5759C53.5329 82.5759 54.3314 82.7776 55.0487 83.1818C55.7667 83.5859 56.3311 84.1434 56.7424 84.8541C57.1622 85.5649 57.3715 86.3568 57.3715 87.2294C57.3715 87.8274 57.2789 88.3928 57.0932 88.926C56.9081 89.4513 56.642 89.9197 56.2948 90.3317L57.3352 91.483L56.1254 92.5009L55.085 91.3497C54.4239 91.7132 53.6902 91.895 52.8833 91.895ZM49.5928 87.2294C49.5928 87.8274 49.7258 88.3685 49.992 88.8532C50.2581 89.338 50.621 89.7179 51.0807 89.9924C51.5489 90.259 52.0728 90.3923 52.6535 90.3923C53.1216 90.3923 53.5608 90.2996 53.9721 90.1136L52.3147 88.2837L53.5366 87.2778L55.1697 89.0835C55.5327 88.5582 55.7141 87.9401 55.7141 87.2294C55.7141 86.6313 55.581 86.0945 55.3149 85.6176C55.0487 85.1329 54.6822 84.7572 54.214 84.4906C53.7543 84.2161 53.2341 84.0786 52.6535 84.0786C52.0728 84.0786 51.5489 84.2161 51.0807 84.4906C50.621 84.7572 50.2581 85.1329 49.992 85.6176C49.7258 86.0945 49.5928 86.6313 49.5928 87.2294ZM61.0485 91.895C60.2822 91.895 59.6773 91.6484 59.2339 91.1558C58.7905 90.6632 58.5686 90.0088 58.5686 89.1926V85.1571H60.1533V89.0593C60.1533 89.4713 60.2743 89.8064 60.5162 90.0651C60.7661 90.3153 61.0891 90.4408 61.4841 90.4408C61.8791 90.4408 62.1978 90.3117 62.4398 90.053C62.6896 89.7943 62.8148 89.4513 62.8148 89.0229V85.1571H64.3996V91.7496H62.8995V90.9619C62.7222 91.2691 62.4718 91.503 62.1494 91.6647C61.8349 91.818 61.4677 91.895 61.0485 91.895ZM67.8686 91.895C67.1754 91.895 66.6225 91.7254 66.2112 91.386C65.8083 91.0467 65.6063 90.5862 65.6063 90.0045C65.6063 89.4471 65.7962 88.9866 66.1749 88.623C66.5542 88.2595 67.1227 88.0171 67.8807 87.8959L69.8405 87.5808V87.3627C69.8405 87.0718 69.728 86.8337 69.5017 86.6477C69.284 86.4617 68.9936 86.369 68.6307 86.369C68.292 86.369 67.9895 86.4617 67.7234 86.6477C67.4657 86.8252 67.2758 87.064 67.1548 87.3627L65.8604 86.7325C66.0539 86.2156 66.409 85.7994 66.9249 85.4843C67.4415 85.1692 68.03 85.0117 68.6912 85.0117C69.2235 85.0117 69.6953 85.1129 70.1066 85.3146C70.5264 85.5085 70.8488 85.7873 71.0744 86.1508C71.3085 86.5065 71.4252 86.9101 71.4252 87.3627V91.7496H69.9252V91.0467C69.4092 91.6121 68.7239 91.895 67.8686 91.895ZM67.2516 89.9439C67.2516 90.1699 67.3363 90.3517 67.5056 90.4892C67.675 90.6183 67.8927 90.6831 68.1589 90.6831C68.6513 90.6831 69.0541 90.5298 69.3686 90.2226C69.6832 89.9076 69.8405 89.5198 69.8405 89.0593V88.7927L68.1831 89.0714C67.8686 89.1362 67.6351 89.241 67.4814 89.3865C67.3284 89.524 67.2516 89.7094 67.2516 89.9439ZM72.8903 82.5759H74.475V91.7496H72.8903V82.5759ZM75.9382 85.1571H77.523V91.7496H75.9382V85.1571ZM75.8172 83.3393C75.8172 83.0485 75.8977 82.8225 76.0592 82.6607C76.2207 82.4989 76.4421 82.4183 76.7246 82.4183C77.0149 82.4183 77.2405 82.4989 77.402 82.6607C77.5635 82.8225 77.644 83.0485 77.644 83.3393C77.644 83.6223 77.5635 83.844 77.402 84.0058C77.249 84.1676 77.0228 84.2482 76.7246 84.2482C76.4421 84.2482 76.2207 84.1676 76.0592 84.0058C75.8977 83.844 75.8172 83.6223 75.8172 83.3393ZM81.9864 91.8223C81.2442 91.8223 80.6678 91.6205 80.2564 91.2164C79.853 90.8043 79.6516 90.2269 79.6516 89.4834V86.575H78.5144V85.1571H78.6354C78.9578 85.1571 79.2082 85.0723 79.3854 84.9026C79.5626 84.733 79.6516 84.4863 79.6516 84.1634V83.6544H81.2363V85.1571H82.7485V86.575H81.2363V89.3986C81.2363 90.0851 81.6072 90.4287 82.3493 90.4287C82.4782 90.4287 82.6197 90.4165 82.7728 90.3923V91.7617C82.5145 91.8023 82.2525 91.8223 81.9864 91.8223ZM85.9435 91.6526L83.3788 85.1571H85.0846L86.7903 89.7015L88.484 85.1571H90.2019L86.6452 94.1733H84.9394L85.9435 91.6526Z" fill="#1E1634"/>
<path opacity="0.1" d="M83.6477 12.3733H54.3425C50.3337 12.3733 47.084 15.6287 47.084 19.6444V49.0004C47.084 53.0161 50.3337 56.2715 54.3425 56.2715H83.6477C87.6565 56.2715 90.9063 53.0161 90.9063 49.0004V19.6444C90.9063 15.6287 87.6565 12.3733 83.6477 12.3733Z" fill="#43B0FF"/>
<mask id="mask0_2043_11811" style="mask-type:luminance" maskUnits="userSpaceOnUse" x="57" y="22" width="24" height="24">
<path d="M80.3526 22.6741H57.3672V45.6993H80.3526V22.6741Z" fill="white"/>
</mask>
<g mask="url(#mask0_2043_11811)">
<path d="M80.2122 34.5987C80.3991 34.3557 80.3991 34.0176 80.2122 33.7746C80.1608 33.708 78.9293 32.1186 76.932 30.5123C75.7513 29.5634 74.5463 28.806 73.3499 28.2607C71.8304 27.5675 70.3194 27.2161 68.8599 27.2161C67.3997 27.2161 65.8893 27.5675 64.3692 28.2607C63.1734 28.806 61.9685 29.5634 60.7878 30.5123C58.7905 32.1186 57.5583 33.708 57.5069 33.7746C57.3206 34.0176 57.3206 34.3557 57.5069 34.5987C57.5583 34.6653 58.7905 36.2547 60.7878 37.861C61.9685 38.8099 63.1734 39.5673 64.3692 40.1126C65.8893 40.8058 67.3997 41.1572 68.8599 41.1572C70.3194 41.1572 71.8304 40.8058 73.3499 40.1126C74.5463 39.5673 75.7513 38.8099 76.932 37.861C78.9293 36.2547 80.1608 34.6653 80.2122 34.5987ZM68.8599 39.8078C65.7653 39.8078 63.2484 37.2866 63.2484 34.1866C63.2484 31.0867 65.7653 28.5655 68.8599 28.5655C71.9538 28.5655 74.4713 31.0867 74.4713 34.1866C74.4713 37.2866 71.9538 39.8078 68.8599 39.8078ZM58.9151 34.186C59.3923 33.6322 60.3468 32.5973 61.631 31.5648C61.9987 31.2691 62.4113 30.9607 62.8601 30.6595C62.251 31.6951 61.9014 32.9003 61.9014 34.1866C61.9014 35.4736 62.2522 36.6794 62.8613 37.7149C62.4215 37.4199 62.0169 37.1181 61.6552 36.8279C60.3631 35.7929 59.3966 34.7447 58.9151 34.186ZM74.8584 37.7137C75.4681 36.6788 75.8184 35.473 75.8184 34.1866C75.8184 32.8996 75.4676 31.6939 74.8578 30.6583C75.2976 30.9534 75.7029 31.2552 76.0646 31.5454C77.3566 32.5809 78.3226 33.628 78.8047 34.1872C78.3274 34.741 77.3729 35.776 76.0888 36.8085C75.7204 37.1048 75.3079 37.4126 74.8584 37.7137Z" fill="#43B0FF"/>
<path d="M68.196 31.9381C67.948 31.9381 67.7472 32.1393 67.7472 32.3877V33.6753H66.1594V32.3877C66.1594 32.1393 65.9585 31.9381 65.7105 31.9381C65.4625 31.9381 65.2617 32.1393 65.2617 32.3877V35.9857C65.2617 36.2341 65.4625 36.4353 65.7105 36.4353C65.9585 36.4353 66.1594 36.2341 66.1594 35.9857V34.5745H67.7472V35.9857C67.7472 36.2341 67.948 36.4353 68.196 36.4353C68.444 36.4353 68.6448 36.2341 68.6448 35.9857V32.3877C68.6448 32.1393 68.444 31.9381 68.196 31.9381Z" fill="#43B0FF"/>
<path d="M58.0404 27.6209C58.4124 27.6209 58.7137 27.3191 58.7137 26.9465V24.0235H61.6322C62.0042 24.0235 62.3054 23.7211 62.3054 23.3485C62.3054 22.9758 62.0042 22.6741 61.6322 22.6741H58.0404C57.6684 22.6741 57.3672 22.9758 57.3672 23.3485V26.9465C57.3672 27.3191 57.6684 27.6209 58.0404 27.6209Z" fill="#43B0FF"/>
<path d="M79.6791 22.6741H76.0873C75.7153 22.6741 75.4141 22.9758 75.4141 23.3485C75.4141 23.7211 75.7153 24.0235 76.0873 24.0235H79.0052V26.9465C79.0052 27.3191 79.3071 27.6209 79.6791 27.6209C80.0505 27.6209 80.3523 27.3191 80.3523 26.9465V23.3485C80.3523 22.9758 80.0505 22.6741 79.6791 22.6741Z" fill="#43B0FF"/>
<path d="M79.6791 40.7524C79.3071 40.7524 79.0052 41.0542 79.0052 41.4268V44.3498H76.0873C75.7153 44.3498 75.4141 44.6522 75.4141 45.0248C75.4141 45.3975 75.7153 45.6992 76.0873 45.6992H79.6791C80.0505 45.6992 80.3523 45.3975 80.3523 45.0248V41.4268C80.3523 41.0542 80.0505 40.7524 79.6791 40.7524Z" fill="#43B0FF"/>
<path d="M61.6322 44.3498H58.7137V41.4268C58.7137 41.0542 58.4124 40.7524 58.0404 40.7524C57.6684 40.7524 57.3672 41.0542 57.3672 41.4268V45.0248C57.3672 45.3975 57.6684 45.6992 58.0404 45.6992H61.6322C62.0042 45.6992 62.3054 45.3975 62.3054 45.0248C62.3054 44.6522 62.0042 44.3498 61.6322 44.3498Z" fill="#43B0FF"/>
<path d="M71.0092 31.9381H69.9918C69.8726 31.9381 69.7583 31.9854 69.6743 32.0702C69.5896 32.155 69.5424 32.2695 69.543 32.3889C69.543 32.3889 69.5454 33.7728 69.5454 34.1831C69.5454 34.6775 69.5502 35.9742 69.5502 35.9869C69.5509 36.1063 69.5986 36.2208 69.6827 36.305C69.7668 36.3886 69.8805 36.4353 69.9991 36.4353H70.0009C70.0317 36.4353 70.757 36.4323 71.0467 36.4274C72.1252 36.4086 72.9085 35.4664 72.9085 34.1867C72.9085 32.8415 72.1452 31.9381 71.0092 31.9381ZM71.031 35.5282C70.8967 35.53 70.6596 35.5325 70.4467 35.5337C70.4449 35.1077 70.4431 34.4897 70.4431 34.1825C70.4431 33.9243 70.4425 33.2796 70.4412 32.8373H71.0092C71.4931 32.8373 72.0103 33.1918 72.0103 34.1867C72.0103 34.8459 71.7078 35.5161 71.031 35.5282Z" fill="#43B0FF"/>
</g>
</svg>
