<svg width="78" height="78" viewBox="0 0 78 78" fill="none" xmlns="http://www.w3.org/2000/svg">
<circle cx="39.2109" cy="39.3232" r="38.5566" fill="#7558EA"/>
<g clip-path="url(#clip0_1910_2376)">
<path d="M50.2974 29.5288H27.7025L20 39.3021L38.531 58.1406H39.469L58 39.3021L50.2974 29.5288ZM31.9083 40.3335L36.2824 52.6813L24.1362 40.3335H31.9083ZM43.7362 40.3335L39.0027 53.6955L34.2692 40.3335H43.7362ZM34.3347 38.108L36.8619 31.7543H41.1435L43.6708 38.108H34.3347ZM46.0971 40.3335H53.8638L41.726 52.6727L46.0971 40.3335ZM54.2254 38.108H46.0657L43.5386 31.7543H49.2178L54.2254 38.108ZM28.7822 31.7542H34.4668L31.9396 38.108H23.7746L28.7822 31.7542Z" fill="white"/>
<path d="M37.8867 20.1602H40.1122V25.1708H37.8867V20.1602Z" fill="white"/>
<path d="M44.3633 25.6309L46.6725 21.2215L48.6442 22.2541L46.335 26.6635L44.3633 25.6309Z" fill="white"/>
<path d="M29.3574 22.2612L31.3292 21.2286L33.6383 25.638L31.6666 26.6706L29.3574 22.2612Z" fill="white"/>
</g>
<defs>
<clipPath id="clip0_1910_2376">
<rect width="38" height="38" fill="white" transform="translate(20 20.1504)"/>
</clipPath>
</defs>
</svg>
