<svg width="138" height="114" viewBox="0 0 138 114" fill="none" xmlns="http://www.w3.org/2000/svg">
<path d="M129.011 0.980713H9.20853C4.53162 0.980713 0.740234 4.77866 0.740234 9.46368V104.594C0.740234 109.279 4.53162 113.077 9.20853 113.077H129.011C133.688 113.077 137.479 109.279 137.479 104.594V9.46368C137.479 4.77866 133.688 0.980713 129.011 0.980713Z" fill="white"/>
<path d="M26.4782 68.2991H28.6074L31.7165 77.3274H29.926L29.2848 75.3884H25.8007L25.1475 77.3274H23.3691L26.4782 68.2991ZM28.813 73.9342L27.5428 70.129L26.2725 73.9342H28.813ZM32.7199 68.2991H34.3652V77.3274H32.7199V68.2991ZM38.2485 68.2991H41.6117C42.225 68.2991 42.7694 68.4124 43.2448 68.6384C43.7209 68.8566 44.088 69.1795 44.3457 69.6079C44.6118 70.0363 44.7449 70.5489 44.7449 71.147C44.7449 71.7365 44.6118 72.2455 44.3457 72.6739C44.0796 73.1023 43.7088 73.4295 43.2327 73.6555C42.7652 73.8815 42.225 73.9948 41.6117 73.9948H39.8938V77.3274H38.2485V68.2991ZM41.6359 72.5406C42.0798 72.5406 42.4343 72.4152 42.7004 72.1649C42.9666 71.9062 43.0997 71.5669 43.0997 71.147C43.0997 70.7271 42.9666 70.3914 42.7004 70.1411C42.4343 69.8824 42.0798 69.7533 41.6359 69.7533H39.8938V72.5406H41.6359ZM45.9601 70.7349H47.4481V71.656C47.6096 71.3003 47.8395 71.0458 48.1377 70.8925C48.4359 70.7392 48.7988 70.6622 49.2265 70.6622H49.6136V72.068H49.045C48.5932 72.068 48.2302 72.2092 47.9562 72.4921C47.6822 72.7751 47.5449 73.1629 47.5449 73.6555V77.3274H45.9601V70.7349ZM53.7032 77.4728C53.0656 77.4728 52.4813 77.3232 51.949 77.0245C51.4167 76.7257 50.9933 76.3137 50.6788 75.7884C50.3721 75.263 50.2191 74.6777 50.2191 74.0312C50.2191 73.3847 50.3721 72.7993 50.6788 72.274C50.9848 71.7487 51.4046 71.3366 51.9369 71.0379C52.4692 70.7392 53.0578 70.5895 53.7032 70.5895C54.3401 70.5895 54.9208 70.7392 55.4452 71.0379C55.9775 71.3366 56.3967 71.7487 56.7034 72.274C57.0179 72.7993 57.1752 73.3847 57.1752 74.0312C57.1752 74.6856 57.0179 75.2751 56.7034 75.8005C56.3967 76.3258 55.9775 76.7378 55.4452 77.0366C54.9129 77.3274 54.3322 77.4728 53.7032 77.4728ZM51.8643 74.0312C51.8643 74.605 52.0337 75.0813 52.3724 75.4612C52.719 75.8326 53.1624 76.0186 53.7032 76.0186C54.0498 76.0186 54.3601 75.9338 54.6347 75.7641C54.9087 75.5945 55.1222 75.36 55.2759 75.0613C55.4367 74.7541 55.5178 74.4111 55.5178 74.0312C55.5178 73.6597 55.4367 73.3241 55.2759 73.0253C55.1222 72.7181 54.9087 72.48 54.6347 72.3103C54.3601 72.1328 54.0498 72.0437 53.7032 72.0437C53.3481 72.0437 53.0293 72.1328 52.7475 72.3103C52.4728 72.48 52.2551 72.7145 52.0942 73.0132C51.9405 73.3119 51.8643 73.6513 51.8643 74.0312ZM58.3765 70.7349H59.8645V71.559C60.0338 71.2439 60.2758 71.0058 60.5903 70.844C60.9133 70.6743 61.2841 70.5895 61.7033 70.5895C62.1388 70.5895 62.538 70.6865 62.901 70.8804C63.2639 71.0664 63.5421 71.3245 63.7357 71.656C63.9534 71.3003 64.2359 71.0337 64.5825 70.8561C64.9376 70.6786 65.3368 70.5895 65.7802 70.5895C66.2399 70.5895 66.6554 70.6943 67.0262 70.9046C67.3976 71.1149 67.6879 71.4093 67.8972 71.7892C68.1071 72.1692 68.2118 72.6012 68.2118 73.0859V77.3274H66.627V73.4616C66.627 73.0253 66.5103 72.6818 66.2762 72.4315C66.0505 72.1728 65.7439 72.0437 65.3568 72.0437C64.9781 72.0437 64.6714 72.1728 64.4373 72.4315C64.2038 72.6903 64.0865 73.0332 64.0865 73.4616V77.3274H62.5017V73.4616C62.5017 73.0253 62.385 72.6818 62.1509 72.4315C61.9253 72.1728 61.6186 72.0437 61.2315 72.0437C60.8528 72.0437 60.5462 72.1728 60.3121 72.4315C60.0786 72.6903 59.9612 73.0332 59.9612 73.4616V77.3274H58.3765V70.7349ZM69.5528 70.7349H71.0408V71.5105C71.2827 71.2197 71.5809 70.9937 71.936 70.8319C72.2989 70.6701 72.706 70.5895 73.1579 70.5895C73.7706 70.5895 74.3313 70.7428 74.8394 71.05C75.3475 71.3488 75.7467 71.7608 76.0371 72.2861C76.3274 72.8114 76.4726 73.3931 76.4726 74.0312C76.4726 74.6692 76.3274 75.2509 76.0371 75.7762C75.7467 76.3016 75.3475 76.7172 74.8394 77.0245C74.3392 77.3232 73.7748 77.4728 73.1458 77.4728C72.7423 77.4728 72.3673 77.408 72.0207 77.2789C71.6741 77.1414 71.3795 76.9475 71.1376 76.6972V79.7511H69.5528V70.7349ZM71.1376 74.0312C71.1376 74.4111 71.2144 74.7541 71.3674 75.0613C71.5289 75.36 71.7467 75.5945 72.0207 75.7641C72.3032 75.9338 72.6177 76.0186 72.9643 76.0186C73.5045 76.0186 73.9484 75.8326 74.295 75.4612C74.6501 75.0813 74.8273 74.605 74.8273 74.0312C74.8273 73.6597 74.7469 73.3241 74.5854 73.0253C74.4239 72.7181 74.2025 72.48 73.92 72.3103C73.6375 72.1328 73.3194 72.0437 72.9643 72.0437C72.6177 72.0437 72.3032 72.1286 72.0207 72.2982C71.7467 72.4679 71.5289 72.706 71.3674 73.0132C71.2144 73.3119 71.1376 73.6513 71.1376 74.0312ZM80.5628 77.4001C79.8212 77.4001 79.2441 77.1983 78.8328 76.7942C78.43 76.3822 78.228 75.8047 78.228 75.0613V72.1528H77.0908V70.7349H77.2118C77.5348 70.7349 77.7846 70.6501 77.9618 70.4805C78.1396 70.3108 78.228 70.0642 78.228 69.7412V69.2323H79.8127V70.7349H81.3249V72.1528H79.8127V74.9764C79.8127 75.6629 80.1841 76.0065 80.9257 76.0065C81.0551 76.0065 81.1961 75.9944 81.3491 75.9701V77.3395C81.0914 77.3801 80.8289 77.4001 80.5628 77.4001ZM84.8435 68.2991H88.6421C89.5289 68.2991 90.2269 68.5251 90.735 68.9778C91.2431 69.4304 91.4972 70.0521 91.4972 70.844C91.4972 71.4905 91.2552 72.0316 90.7713 72.4679C91.4972 72.9363 91.8601 73.6355 91.8601 74.5644C91.8601 75.429 91.5734 76.1077 91.0012 76.6003C90.4362 77.085 89.6499 77.3274 88.6421 77.3274H84.8435V68.2991ZM88.8115 75.8732C89.2307 75.8732 89.5694 75.7562 89.8277 75.5217C90.0854 75.2794 90.2148 74.9601 90.2148 74.5644C90.2148 74.1687 90.0854 73.8494 89.8277 73.607C89.5773 73.3646 89.2386 73.2435 88.8115 73.2435H86.4888V75.8732H88.8115ZM88.7268 71.8014C89.0656 71.8014 89.3353 71.7044 89.5374 71.5105C89.7388 71.3087 89.8398 71.05 89.8398 70.7349C89.8398 70.4199 89.7388 70.1696 89.5374 69.9836C89.3353 69.7976 89.0656 69.7049 88.7268 69.7049H86.4888V71.8014H88.7268ZM96.2926 77.4728C95.6551 77.4728 95.0708 77.3232 94.5385 77.0245C94.0062 76.7257 93.5828 76.3137 93.2682 75.7884C92.9616 75.263 92.8085 74.6777 92.8085 74.0312C92.8085 73.3847 92.9616 72.7993 93.2682 72.274C93.5743 71.7487 93.9941 71.3366 94.5264 71.0379C95.0587 70.7392 95.6472 70.5895 96.2926 70.5895C96.9296 70.5895 97.5103 70.7392 98.0347 71.0379C98.567 71.3366 98.9862 71.7487 99.2928 72.274C99.6074 72.7993 99.7646 73.3847 99.7646 74.0312C99.7646 74.6856 99.6074 75.2751 99.2928 75.8005C98.9862 76.3258 98.567 76.7378 98.0347 77.0366C97.5024 77.3274 96.9217 77.4728 96.2926 77.4728ZM94.4538 74.0312C94.4538 74.605 94.6232 75.0813 94.9619 75.4612C95.3085 75.8326 95.7519 76.0186 96.2926 76.0186C96.6392 76.0186 96.9495 75.9338 97.2241 75.7641C97.4982 75.5945 97.7117 75.36 97.8653 75.0613C98.0262 74.7541 98.1073 74.4111 98.1073 74.0312C98.1073 73.6597 98.0262 73.3241 97.8653 73.0253C97.7117 72.7181 97.4982 72.48 97.2241 72.3103C96.9495 72.1328 96.6392 72.0437 96.2926 72.0437C95.9376 72.0437 95.6188 72.1328 95.3369 72.3103C95.0623 72.48 94.8446 72.7145 94.6837 73.0132C94.53 73.3119 94.4538 73.6513 94.4538 74.0312ZM104.184 77.4728C103.547 77.4728 102.963 77.3232 102.43 77.0245C101.898 76.7257 101.475 76.3137 101.16 75.7884C100.853 75.263 100.7 74.6777 100.7 74.0312C100.7 73.3847 100.853 72.7993 101.16 72.274C101.466 71.7487 101.886 71.3366 102.418 71.0379C102.951 70.7392 103.539 70.5895 104.184 70.5895C104.821 70.5895 105.402 70.7392 105.927 71.0379C106.459 71.3366 106.878 71.7487 107.185 72.274C107.499 72.7993 107.656 73.3847 107.656 74.0312C107.656 74.6856 107.499 75.2751 107.185 75.8005C106.878 76.3258 106.459 76.7378 105.927 77.0366C105.394 77.3274 104.814 77.4728 104.184 77.4728ZM102.346 74.0312C102.346 74.605 102.515 75.0813 102.854 75.4612C103.2 75.8326 103.644 76.0186 104.184 76.0186C104.531 76.0186 104.841 75.9338 105.116 75.7641C105.39 75.5945 105.604 75.36 105.757 75.0613C105.918 74.7541 105.999 74.4111 105.999 74.0312C105.999 73.6597 105.918 73.3241 105.757 73.0253C105.604 72.7181 105.39 72.48 105.116 72.3103C104.841 72.1328 104.531 72.0437 104.184 72.0437C103.829 72.0437 103.511 72.1328 103.229 72.3103C102.954 72.48 102.736 72.7145 102.575 73.0132C102.422 73.3119 102.346 73.6513 102.346 74.0312ZM108.858 68.1537H110.443V73.3525L112.935 70.7349H114.907L112.476 73.3889L114.956 77.3274H113.141L111.29 74.3947L110.443 75.3157V77.3274H108.858V68.1537ZM36.5948 83.4473H42.6073V84.9015H38.2401V87.3979H42.0629V88.8521H38.2401V92.4756H36.5948V83.4473ZM46.6146 92.621C45.9777 92.621 45.3927 92.4713 44.8605 92.1726C44.3282 91.8739 43.9047 91.4618 43.5902 90.9365C43.2835 90.4112 43.1305 89.8258 43.1305 89.1793C43.1305 88.5328 43.2835 87.9475 43.5902 87.4221C43.8969 86.8968 44.3161 86.4848 44.8484 86.186C45.3807 85.8873 45.9692 85.7377 46.6146 85.7377C47.2515 85.7377 47.8322 85.8873 48.3567 86.186C48.8889 86.4848 49.3081 86.8968 49.6148 87.4221C49.9293 87.9475 50.0866 88.5328 50.0866 89.1793C50.0866 89.8337 49.9293 90.4233 49.6148 90.9486C49.3081 91.474 48.8889 91.886 48.3567 92.1847C47.8244 92.4756 47.2437 92.621 46.6146 92.621ZM44.7758 89.1793C44.7758 89.7531 44.9451 90.2294 45.2839 90.6093C45.6305 90.9808 46.0744 91.1668 46.6146 91.1668C46.9612 91.1668 47.2721 91.0819 47.5461 90.9123C47.8201 90.7426 48.0343 90.5081 48.1873 90.2094C48.3488 89.9022 48.4292 89.5592 48.4292 89.1793C48.4292 88.8079 48.3488 88.4722 48.1873 88.1735C48.0343 87.8663 47.8201 87.6282 47.5461 87.4585C47.2721 87.281 46.9612 87.1919 46.6146 87.1919C46.2595 87.1919 45.9414 87.281 45.6589 87.4585C45.3849 87.6282 45.1671 87.8626 45.0056 88.1614C44.8526 88.4601 44.7758 88.7994 44.7758 89.1793ZM51.2885 85.8831H52.7765V86.8041C52.9374 86.4484 53.1672 86.1939 53.4661 86.0406C53.7643 85.8873 54.1272 85.8104 54.5548 85.8104H54.942V87.2161H54.3734C53.9215 87.2161 53.5586 87.3573 53.2846 87.6403C53.01 87.9232 52.8733 88.311 52.8733 88.8037V92.4756H51.2885V85.8831ZM58.0964 83.4473H64.0847V84.9015H59.7417V87.2161H63.8427V88.6703H59.7417V91.0213H64.0847V92.4756H58.0964V83.4473ZM66.8635 89.1672L64.5529 85.8831H66.4159L67.8071 87.9311L69.1862 85.8831H71.0372L68.7386 89.1672L71.0251 92.4756H69.1741L67.8071 90.4275L66.428 92.4756H64.565L66.8635 89.1672ZM71.9039 85.8831H73.392V86.6587C73.6339 86.3678 73.9321 86.1418 74.2872 85.98C74.6501 85.8183 75.0572 85.7377 75.509 85.7377C76.1218 85.7377 76.6825 85.891 77.1906 86.1982C77.6987 86.4969 78.0979 86.9089 78.3882 87.4343C78.6786 87.9596 78.8237 88.5413 78.8237 89.1793C78.8237 89.8174 78.6786 90.3991 78.3882 90.9244C78.0979 91.4497 77.6987 91.8654 77.1906 92.1726C76.6904 92.4713 76.126 92.621 75.4969 92.621C75.0935 92.621 74.7184 92.5562 74.3719 92.4271C74.0247 92.2896 73.7307 92.0956 73.4887 91.8454V94.8993H71.9039V85.8831ZM73.4887 89.1793C73.4887 89.5592 73.5649 89.9022 73.7186 90.2094C73.8795 90.5081 74.0972 90.7426 74.3719 90.9123C74.6537 91.0819 74.9683 91.1668 75.3155 91.1668C75.8556 91.1668 76.299 90.9808 76.6462 90.6093C77.0007 90.2294 77.1785 89.7531 77.1785 89.1793C77.1785 88.8079 77.0974 88.4722 76.9365 88.1735C76.775 87.8663 76.553 87.6282 76.2712 87.4585C75.9887 87.281 75.6699 87.1919 75.3155 87.1919C74.9683 87.1919 74.6537 87.2767 74.3719 87.4464C74.0972 87.616 73.8795 87.8542 73.7186 88.1614C73.5649 88.4601 73.4887 88.7994 73.4887 89.1793ZM83.1529 92.621C82.4917 92.621 81.9032 92.4677 81.3866 92.1605C80.8785 91.8533 80.4793 91.4376 80.189 90.9123C79.9071 90.3869 79.7655 89.8053 79.7655 89.1672C79.7655 88.5207 79.9071 87.939 80.189 87.4221C80.4793 86.8968 80.8707 86.4848 81.3624 86.186C81.8627 85.8873 82.4191 85.7377 83.0319 85.7377C83.6936 85.7377 84.2659 85.8831 84.7498 86.1739C85.2337 86.4569 85.6008 86.8447 85.8506 87.3373C86.1089 87.8299 86.2378 88.3716 86.2378 88.9612C86.2378 89.2357 86.2099 89.458 86.1531 89.6277H81.4108C81.4592 90.1124 81.6449 90.5002 81.9673 90.7911C82.2903 91.0819 82.6895 91.2274 83.165 91.2274C83.52 91.2274 83.8225 91.1546 84.0723 91.0092C84.3306 90.8559 84.5362 90.6457 84.6893 90.3791L85.9716 91.0092C85.7702 91.494 85.4151 91.886 84.907 92.1847C84.3989 92.4756 83.8146 92.621 83.1529 92.621ZM84.5441 88.4159C84.5042 88.0117 84.3469 87.6845 84.0723 87.4343C83.7983 87.1755 83.4517 87.0465 83.0319 87.0465C82.629 87.0465 82.2861 87.1677 82.0036 87.41C81.7217 87.6445 81.536 87.9796 81.4471 88.4159H84.5441ZM87.439 85.8831H88.927V86.8041C89.0885 86.4484 89.3184 86.1939 89.6166 86.0406C89.9154 85.8873 90.2783 85.8104 90.7054 85.8104H91.0925V87.2161H90.5239C90.0727 87.2161 89.7097 87.3573 89.4351 87.6403C89.1611 87.9232 89.0238 88.311 89.0238 88.8037V92.4756H87.439V85.8831ZM95.1416 92.5483C94.3994 92.5483 93.8229 92.3465 93.4116 91.9423C93.0081 91.5303 92.8067 90.9529 92.8067 90.2094V87.3009H91.6695V85.8831H91.7905C92.1129 85.8831 92.3627 85.7983 92.5406 85.6286C92.7178 85.4589 92.8067 85.2123 92.8067 84.8894V84.3804H94.3915V85.8831H95.9037V87.3009H94.3915V90.1246C94.3915 90.8111 94.7623 91.1546 95.5045 91.1546C95.6333 91.1546 95.7743 91.1425 95.9279 91.1183V92.4877C95.6696 92.5283 95.4077 92.5483 95.1416 92.5483ZM99.6068 92.6089C98.945 92.6089 98.3607 92.4513 97.8526 92.1362C97.3524 91.8212 96.9973 91.3891 96.788 90.8396L97.9615 90.2336C98.1387 90.5893 98.3728 90.868 98.6632 91.0698C98.9614 91.2637 99.288 91.3607 99.6431 91.3607C99.9491 91.3607 100.187 91.3001 100.357 91.1789C100.534 91.0498 100.623 90.8759 100.623 90.6578C100.623 90.4718 100.55 90.3185 100.405 90.1973C100.26 90.0682 100.07 89.9834 99.8366 89.9428L98.7599 89.761C98.2034 89.6156 97.7716 89.369 97.4655 89.0218C97.1667 88.6661 97.0179 88.2504 97.0179 87.7736C97.0179 87.3779 97.1225 87.0265 97.3324 86.7193C97.5417 86.4042 97.832 86.1618 98.2034 85.9921C98.5821 85.8225 99.0098 85.7377 99.4858 85.7377C100.091 85.7377 100.623 85.8831 101.083 86.1739C101.542 86.4569 101.877 86.8526 102.087 87.3615L100.913 87.9675C100.784 87.6845 100.587 87.4585 100.321 87.2888C100.054 87.1192 99.7598 87.0343 99.4374 87.0343C99.1712 87.0343 98.9571 87.0949 98.7962 87.2161C98.6426 87.3373 98.5664 87.4949 98.5664 87.6888C98.5664 88.0444 98.8325 88.2826 99.3648 88.4037L100.417 88.5976C100.974 88.7509 101.405 89.0018 101.712 89.349C102.018 89.6962 102.171 90.1082 102.171 90.5851C102.171 90.9807 102.063 91.3322 101.845 91.6394C101.635 91.9466 101.337 92.1847 100.95 92.3544C100.562 92.524 100.115 92.6089 99.6068 92.6089Z" fill="#1E1634"/>
<path opacity="0.1" d="M83.8801 13.0992H54.5749C50.5662 13.0992 47.3164 16.3546 47.3164 20.3704V49.7263C47.3164 53.742 50.5662 56.9974 54.5749 56.9974H83.8801C87.8889 56.9974 91.1387 53.742 91.1387 49.7263V20.3704C91.1387 16.3546 87.8889 13.0992 83.8801 13.0992Z" fill="#43B0FF"/>
<path d="M80.206 23.8544C76.4032 23.835 72.6311 24.5403 69.0914 25.9327C65.5892 24.5566 61.8601 23.8513 58.0983 23.8544C58.0197 23.8356 57.9374 23.8356 57.8582 23.8538C57.7796 23.8719 57.7058 23.9077 57.6429 23.9592C57.58 24.0101 57.5291 24.0749 57.4959 24.1489C57.462 24.2228 57.4451 24.3034 57.4475 24.3846V44.5316C57.4451 44.6128 57.462 44.6934 57.4959 44.7673C57.5291 44.8412 57.58 44.9061 57.6429 44.9576C57.7058 45.0085 57.7796 45.0448 57.8582 45.063C57.9374 45.0806 58.0197 45.0806 58.0983 45.0618C61.8625 45.0812 65.5898 45.8004 69.0914 47.1825C72.6311 45.7847 76.4013 45.0654 80.206 45.0618C80.3464 45.0618 80.4812 45.006 80.5804 44.9067C80.6796 44.8073 80.7353 44.6722 80.7353 44.5316V24.3846C80.7353 24.244 80.6796 24.1089 80.5804 24.0095C80.4812 23.9101 80.3464 23.8544 80.206 23.8544ZM58.506 24.9147C61.9478 24.9626 65.3526 25.6249 68.5621 26.8713V45.8889C65.3436 44.6837 61.9417 44.045 58.506 44.0014V24.9147ZM79.6768 44.0014C76.2417 44.0432 72.8392 44.68 69.6207 45.8834V26.8713C72.8295 25.6249 76.235 24.9626 79.6768 24.9147V44.0014Z" fill="#43B0FF"/>
<path d="M61.1523 31.8072C61.7136 31.8072 62.252 32.0308 62.6494 32.4283C63.0462 32.8264 63.2694 33.3657 63.2694 33.928C63.2694 34.0686 63.325 34.2037 63.4242 34.303C63.5234 34.4024 63.6583 34.4582 63.7987 34.4582C63.939 34.4582 64.0733 34.4024 64.1725 34.303C64.2717 34.2037 64.3279 34.0686 64.3279 33.928C64.3279 33.3657 64.5505 32.8264 64.9479 32.4283C65.3447 32.0308 65.8831 31.8072 66.445 31.8072C66.5853 31.8072 66.7196 31.7515 66.8188 31.6521C66.918 31.5527 66.9743 31.4176 66.9743 31.2771C66.9743 31.1365 66.918 31.0014 66.8188 30.902C66.7196 30.8026 66.5853 30.7469 66.445 30.7469C65.8831 30.7469 65.3447 30.5233 64.9479 30.1258C64.5505 29.7277 64.3279 29.1884 64.3279 28.6261C64.3279 28.4856 64.2717 28.3504 64.1725 28.2511C64.0733 28.1517 63.939 28.0959 63.7987 28.0959C63.6583 28.0959 63.5234 28.1517 63.4242 28.2511C63.325 28.3504 63.2694 28.4856 63.2694 28.6261C63.2694 29.1884 63.0462 29.7277 62.6494 30.1258C62.252 30.5233 61.7136 30.7469 61.1523 30.7469C61.012 30.7469 60.8771 30.8026 60.7779 30.902C60.6787 31.0014 60.623 31.1365 60.623 31.2771C60.623 31.4176 60.6787 31.5527 60.7779 31.6521C60.8771 31.7515 61.012 31.8072 61.1523 31.8072ZM63.7987 30.3809C64.8832 31.7915 64.8572 30.7626 63.7987 32.1732C62.7401 30.7469 62.7401 31.8072 63.7987 30.3809Z" fill="#43B0FF"/>
<path d="M66.445 35.5184H61.1523C61.012 35.5184 60.8771 35.5742 60.7779 35.6736C60.6787 35.7729 60.623 35.908 60.623 36.0486C60.623 36.1892 60.6787 36.3243 60.7779 36.4237C60.8771 36.5231 61.012 36.5788 61.1523 36.5788H66.445C66.5853 36.5788 66.7196 36.5231 66.8188 36.4237C66.918 36.3243 66.9743 36.1892 66.9743 36.0486C66.9743 35.908 66.918 35.7729 66.8188 35.6736C66.7196 35.5742 66.5853 35.5184 66.445 35.5184Z" fill="#43B0FF"/>
<path d="M66.445 37.6393H61.1523C61.012 37.6393 60.8771 37.695 60.7779 37.7944C60.6787 37.8938 60.623 38.0289 60.623 38.1695C60.623 38.31 60.6787 38.4452 60.7779 38.5445C60.8771 38.6439 61.012 38.6997 61.1523 38.6997H66.445C66.5853 38.6997 66.7196 38.6439 66.8188 38.5445C66.918 38.4452 66.9743 38.31 66.9743 38.1695C66.9743 38.0289 66.918 37.8938 66.8188 37.7944C66.7196 37.695 66.5853 37.6393 66.445 37.6393Z" fill="#43B0FF"/>
<path d="M66.445 39.76H61.1523C61.012 39.76 60.8771 39.8158 60.7779 39.9151C60.6787 40.0145 60.623 40.1496 60.623 40.2902C60.623 40.4308 60.6787 40.5659 60.7779 40.6653C60.8771 40.7646 61.012 40.8204 61.1523 40.8204H66.445C66.5853 40.8204 66.7196 40.7646 66.8188 40.6653C66.918 40.5659 66.9743 40.4308 66.9743 40.2902C66.9743 40.1496 66.918 40.0145 66.8188 39.9151C66.7196 39.8158 66.5853 39.76 66.445 39.76Z" fill="#43B0FF"/>
<path d="M71.7383 31.8072C72.2996 31.8072 72.8379 32.0308 73.2353 32.4283C73.6321 32.8264 73.8553 33.3657 73.8553 33.928C73.8553 34.0686 73.911 34.2037 74.0102 34.303C74.1094 34.4024 74.2443 34.4582 74.3846 34.4582C74.5249 34.4582 74.6592 34.4024 74.7584 34.303C74.8576 34.2037 74.9139 34.0686 74.9139 33.928C74.9139 33.3657 75.1365 32.8264 75.5339 32.4283C75.9307 32.0308 76.469 31.8072 77.0309 31.8072C77.1713 31.8072 77.3055 31.7515 77.4047 31.6521C77.5039 31.5527 77.5602 31.4176 77.5602 31.2771C77.5602 31.1365 77.5039 31.0014 77.4047 30.902C77.3055 30.8026 77.1713 30.7469 77.0309 30.7469C76.469 30.7469 75.9307 30.5233 75.5339 30.1258C75.1365 29.7277 74.9139 29.1884 74.9139 28.6261C74.9139 28.4856 74.8576 28.3504 74.7584 28.2511C74.6592 28.1517 74.5249 28.0959 74.3846 28.0959C74.2443 28.0959 74.1094 28.1517 74.0102 28.2511C73.911 28.3504 73.8553 28.4856 73.8553 28.6261C73.8553 29.1884 73.6321 29.7277 73.2353 30.1258C72.8379 30.5233 72.2996 30.7469 71.7383 30.7469C71.5979 30.7469 71.463 30.8026 71.3638 30.902C71.2646 31.0014 71.209 31.1365 71.209 31.2771C71.209 31.4176 71.2646 31.5527 71.3638 31.6521C71.463 31.7515 71.5979 31.8072 71.7383 31.8072ZM74.3846 30.3809C75.4431 31.7915 75.4431 30.7626 74.3846 32.1732C73.3261 30.7469 73.3261 31.8072 74.3846 30.3809Z" fill="#43B0FF"/>
<path d="M71.7383 36.5788H77.0309C77.1713 36.5788 77.3055 36.5231 77.4047 36.4237C77.5039 36.3243 77.5602 36.1892 77.5602 36.0486C77.5602 35.908 77.5039 35.7729 77.4047 35.6736C77.3055 35.5742 77.1713 35.5184 77.0309 35.5184H71.7383C71.5979 35.5184 71.463 35.5742 71.3638 35.6736C71.2646 35.7729 71.209 35.908 71.209 36.0486C71.209 36.1892 71.2646 36.3243 71.3638 36.4237C71.463 36.5231 71.5979 36.5788 71.7383 36.5788Z" fill="#43B0FF"/>
<path d="M71.7383 38.6997H77.0309C77.1713 38.6997 77.3055 38.6439 77.4047 38.5445C77.5039 38.4452 77.5602 38.31 77.5602 38.1695C77.5602 38.0289 77.5039 37.8938 77.4047 37.7944C77.3055 37.695 77.1713 37.6393 77.0309 37.6393H71.7383C71.5979 37.6393 71.463 37.695 71.3638 37.7944C71.2646 37.8938 71.209 38.0289 71.209 38.1695C71.209 38.31 71.2646 38.4452 71.3638 38.5445C71.463 38.6439 71.5979 38.6997 71.7383 38.6997Z" fill="#43B0FF"/>
<path d="M77.0309 39.76H71.7383C71.5979 39.76 71.463 39.8158 71.3638 39.9151C71.2646 40.0145 71.209 40.1496 71.209 40.2902C71.209 40.4308 71.2646 40.5659 71.3638 40.6653C71.463 40.7646 71.5979 40.8204 71.7383 40.8204H77.0309C77.1713 40.8204 77.3055 40.7646 77.4047 40.6653C77.5039 40.5659 77.5602 40.4308 77.5602 40.2902C77.5602 40.1496 77.5039 40.0145 77.4047 39.9151C77.3055 39.8158 77.1713 39.76 77.0309 39.76Z" fill="#43B0FF"/>
</svg>
