<svg width="138" height="114" viewBox="0 0 138 114" fill="none" xmlns="http://www.w3.org/2000/svg">
<path d="M128.683 0.980713H8.8804C4.20349 0.980713 0.412109 4.77866 0.412109 9.46368V104.594C0.412109 109.279 4.20349 113.077 8.8804 113.077H128.683C133.359 113.077 137.151 109.279 137.151 104.594V9.46368C137.151 4.77866 133.359 0.980713 128.683 0.980713Z" fill="white"/>
<path d="M24.7557 69.7048H23.0137V68.2991H26.401V77.3273H24.7557V69.7048ZM31.1354 77.4728C30.6593 77.4728 30.2039 77.3837 29.7683 77.2062C29.3328 77.0286 28.9614 76.7741 28.6553 76.4427C28.3487 76.1113 28.1388 75.7235 28.0263 75.2793L29.4538 74.7703C29.5905 75.166 29.8083 75.469 30.1071 75.6792C30.4053 75.881 30.7482 75.9822 31.1354 75.9822C31.5951 75.9822 31.9701 75.8368 32.2604 75.5459C32.5508 75.2472 32.6959 74.8631 32.6959 74.3947C32.6959 73.9263 32.5508 73.5464 32.2604 73.2555C31.9701 72.9647 31.5951 72.8193 31.1354 72.8193C30.8124 72.8193 30.5262 72.892 30.2764 73.0374C30.026 73.1749 29.8446 73.3688 29.732 73.6191L28.3892 73.3161L29.103 68.2991H34.0146V69.6927H30.2764L29.9982 71.765C30.3611 71.5305 30.8329 71.4135 31.4136 71.4135C31.9943 71.4135 32.506 71.5426 32.95 71.8013C33.4012 72.0516 33.7484 72.403 33.9904 72.8556C34.2323 73.3082 34.3533 73.8209 34.3533 74.3947C34.3533 74.9764 34.2118 75.5017 33.9299 75.9701C33.6553 76.4385 33.2724 76.8062 32.7806 77.0729C32.2883 77.3395 31.7402 77.4728 31.1354 77.4728ZM38.2995 74.9764H35.9526V73.607H38.2995V71.2681H39.6666V73.607H42.0014V74.9764H39.6666V77.3273H38.2995V74.9764ZM45.9924 68.2991H47.2747L51.5694 74.0917V68.2991H53.2146V77.3273H51.9202L47.6376 71.4256V77.3273H45.9924V68.2991ZM57.9472 77.4728C57.2861 77.4728 56.6975 77.3195 56.181 77.0123C55.6729 76.7051 55.2736 76.2894 54.9833 75.7641C54.7014 75.2387 54.5599 74.657 54.5599 74.019C54.5599 73.3725 54.7014 72.7908 54.9833 72.2739C55.2736 71.7486 55.665 71.3366 56.1567 71.0378C56.657 70.7391 57.2135 70.5895 57.8262 70.5895C58.4879 70.5895 59.0602 70.7349 59.5441 71.0257C60.028 71.3087 60.3951 71.6965 60.645 72.1891C60.9032 72.6817 61.0321 73.2234 61.0321 73.813C61.0321 74.0875 61.0043 74.3098 60.9474 74.4795H56.2051C56.2535 74.9642 56.4392 75.352 56.7616 75.6429C57.0846 75.9337 57.4839 76.0791 57.9593 76.0791C58.3144 76.0791 58.6168 76.0064 58.8666 75.861C59.1249 75.7077 59.3305 75.4975 59.4836 75.2309L60.7659 75.861C60.5645 76.3457 60.2094 76.7378 59.7014 77.0365C59.1933 77.3273 58.6089 77.4728 57.9472 77.4728ZM59.3384 73.2676C59.2985 72.8635 59.1412 72.5363 58.8666 72.286C58.5926 72.0273 58.246 71.8983 57.8262 71.8983C57.4234 71.8983 57.0804 72.0194 56.7979 72.2618C56.516 72.4963 56.3303 72.8314 56.2414 73.2676H59.3384ZM61.6291 70.7349H63.2985L64.6777 74.8915L66.1415 70.7349H67.5448L68.9965 74.8794L70.3756 70.7349H72.0451L69.7828 77.3273H68.3674L66.8431 72.8799L65.2946 77.3273H63.8913L61.6291 70.7349ZM75.1965 68.2991H78.1362C79.0798 68.2991 79.9067 68.4887 80.6162 68.8686C81.3263 69.2485 81.8744 69.7817 82.2615 70.4683C82.6486 71.1469 82.8421 71.9267 82.8421 72.8071C82.8421 73.6797 82.6486 74.4595 82.2615 75.146C81.8744 75.8325 81.3221 76.37 80.6041 76.7578C79.8946 77.1377 79.072 77.3273 78.1362 77.3273H75.1965V68.2991ZM78.1725 75.8731C78.7774 75.8731 79.306 75.7477 79.7573 75.4975C80.217 75.2472 80.5678 74.8915 80.8098 74.431C81.0602 73.9626 81.1848 73.421 81.1848 72.8071C81.1848 72.1933 81.0602 71.6559 80.8098 71.1954C80.5678 70.7349 80.217 70.3792 79.7573 70.1289C79.306 69.8787 78.7774 69.7533 78.1725 69.7533H76.8418V75.8731H78.1725ZM87.1398 77.4728C86.4787 77.4728 85.8895 77.3195 85.3736 77.0123C84.8655 76.7051 84.4663 76.2894 84.1759 75.7641C83.8934 75.2387 83.7525 74.657 83.7525 74.019C83.7525 73.3725 83.8934 72.7908 84.1759 72.2739C84.4663 71.7486 84.8576 71.3366 85.3494 71.0378C85.8496 70.7391 86.4061 70.5895 87.0188 70.5895C87.68 70.5895 88.2528 70.7349 88.7367 71.0257C89.2206 71.3087 89.5877 71.6965 89.8376 72.1891C90.0958 72.6817 90.2247 73.2234 90.2247 73.813C90.2247 74.0875 90.1963 74.3098 90.14 74.4795H85.3978C85.4462 74.9642 85.6319 75.352 85.9543 75.6429C86.2767 75.9337 86.6759 76.0791 87.1519 76.0791C87.507 76.0791 87.8094 76.0064 88.0592 75.861C88.3175 75.7077 88.5232 75.4975 88.6762 75.2309L89.9585 75.861C89.7571 76.3457 89.4021 76.7378 88.894 77.0365C88.3859 77.3273 87.801 77.4728 87.1398 77.4728ZM88.531 73.2676C88.4905 72.8635 88.3332 72.5363 88.0592 72.286C87.7852 72.0273 87.438 71.8983 87.0188 71.8983C86.6154 71.8983 86.273 72.0194 85.9905 72.2618C85.7081 72.4963 85.523 72.8314 85.4341 73.2676H88.531ZM93.8939 77.4607C93.2327 77.4607 92.6478 77.3031 92.1397 76.988C91.6401 76.673 91.285 76.2409 91.0752 75.6913L92.2486 75.0854C92.4265 75.4411 92.6599 75.7198 92.9503 75.9216C93.2491 76.1155 93.5757 76.2124 93.9302 76.2124C94.2368 76.2124 94.4745 76.1518 94.6439 76.0307C94.8217 75.9016 94.9101 75.7277 94.9101 75.5096C94.9101 75.3236 94.8375 75.1702 94.6923 75.0491C94.5471 74.92 94.3578 74.8352 94.1237 74.7946L93.0471 74.6128C92.4906 74.4674 92.0593 74.2208 91.7526 73.8736C91.4544 73.5179 91.305 73.1022 91.305 72.6254C91.305 72.2297 91.4102 71.8783 91.6195 71.5711C91.8294 71.256 92.1198 71.0136 92.4905 70.8439C92.8698 70.6743 93.2975 70.5895 93.7729 70.5895C94.3778 70.5895 94.9101 70.7349 95.3698 71.0257C95.8295 71.3087 96.1646 71.7044 96.3739 72.2133L95.2004 72.8193C95.0716 72.5363 94.8738 72.3103 94.6076 72.1406C94.3415 71.971 94.0475 71.8861 93.7245 71.8861C93.4584 71.8861 93.2449 71.9467 93.0834 72.0679C92.9303 72.1891 92.8535 72.3466 92.8535 72.5405C92.8535 72.8962 93.1197 73.1343 93.6519 73.2555L94.7044 73.4494C95.2609 73.6027 95.6928 73.8536 95.9989 74.2008C96.3055 74.548 96.4585 74.96 96.4585 75.4369C96.4585 75.8325 96.3497 76.184 96.1319 76.4912C95.9226 76.7984 95.6238 77.0365 95.2367 77.2062C94.8496 77.3758 94.402 77.4607 93.8939 77.4607ZM97.6405 70.7349H99.2253V77.3273H97.6405V70.7349ZM97.5195 68.9171C97.5195 68.6263 97.6 68.4002 97.7615 68.2385C97.9224 68.0767 98.1444 67.9961 98.4268 67.9961C98.7172 67.9961 98.9428 68.0767 99.1043 68.2385C99.2652 68.4002 99.3463 68.6263 99.3463 68.9171C99.3463 69.2001 99.2652 69.4218 99.1043 69.5836C98.9507 69.7454 98.725 69.826 98.4268 69.826C98.1444 69.826 97.9224 69.7454 97.7615 69.5836C97.6 69.4218 97.5195 69.2001 97.5195 68.9171ZM103.882 79.9934C103.14 79.9934 102.487 79.8159 101.922 79.4602C101.366 79.113 100.982 78.6483 100.773 78.0666L102.249 77.5091C102.346 77.8242 102.539 78.0745 102.83 78.2605C103.12 78.4465 103.471 78.5392 103.882 78.5392C104.366 78.5392 104.757 78.4017 105.056 78.1272C105.362 77.8527 105.515 77.477 105.515 77.0001V76.2852C105.047 76.802 104.415 77.0607 103.616 77.0607C103.011 77.0607 102.463 76.9196 101.971 76.6366C101.487 76.3536 101.108 75.9658 100.834 75.4732C100.559 74.9806 100.422 74.4268 100.422 73.813C100.422 73.1992 100.555 72.6496 100.822 72.1649C101.096 71.6722 101.475 71.2881 101.959 71.0136C102.443 70.7306 102.983 70.5895 103.58 70.5895C104.427 70.5895 105.1 70.8882 105.6 71.4862V70.7349H107.1V77.0001C107.1 77.574 106.963 78.0866 106.689 78.5392C106.414 78.9997 106.031 79.3554 105.54 79.6056C105.056 79.8644 104.503 79.9934 103.882 79.9934ZM102.068 73.8251C102.068 74.3341 102.228 74.7582 102.551 75.0975C102.882 75.429 103.302 75.5944 103.81 75.5944C104.309 75.5944 104.717 75.429 105.032 75.0975C105.354 74.7661 105.515 74.342 105.515 73.8251C105.515 73.3082 105.354 72.8841 105.032 72.5527C104.709 72.2133 104.301 72.0437 103.81 72.0437C103.309 72.0437 102.894 72.2133 102.564 72.5527C102.233 72.892 102.068 73.3161 102.068 73.8251ZM108.58 70.7349H110.068V71.5468C110.238 71.2396 110.483 71.0057 110.806 70.8439C111.137 70.6743 111.512 70.5895 111.931 70.5895C112.407 70.5895 112.834 70.6943 113.214 70.9045C113.592 71.1148 113.887 71.4093 114.097 71.7892C114.306 72.1691 114.411 72.6011 114.411 73.0859V77.3273H112.827V73.4615C112.827 73.0331 112.701 72.6902 112.452 72.4315C112.21 72.1727 111.891 72.0437 111.496 72.0437C111.1 72.0437 110.778 72.1727 110.528 72.4315C110.286 72.6902 110.165 73.0331 110.165 73.4615V77.3273H108.58V70.7349ZM54.6331 92.6209C53.9235 92.6209 53.3066 92.4876 52.7821 92.221C52.2662 91.9544 51.8627 91.6193 51.5724 91.2152C51.282 90.8032 51.0963 90.3747 51.0159 89.9306L52.5644 89.5186C52.6854 90.0112 52.9273 90.3953 53.2902 90.6698C53.6532 90.9443 54.1086 91.0819 54.6572 91.0819C55.0764 91.0819 55.4151 90.977 55.6734 90.7668C55.9396 90.5565 56.0727 90.3063 56.0727 90.0154C56.0727 89.7488 55.9759 89.5186 55.7823 89.3247C55.5966 89.1229 55.3426 88.9896 55.0202 88.9248L53.6653 88.6582C52.9473 88.5206 52.3829 88.2098 51.9716 87.725C51.5603 87.2403 51.3546 86.6507 51.3546 85.9557C51.3546 85.471 51.4919 85.0269 51.7659 84.6227C52.0484 84.2107 52.4192 83.8877 52.8789 83.6532C53.3465 83.4187 53.8425 83.3018 54.3669 83.3018C55.0365 83.3018 55.6051 83.4151 56.0727 83.6411C56.5402 83.8671 56.9032 84.1543 57.1614 84.5015C57.4276 84.8408 57.6048 85.2001 57.6937 85.5801L56.1574 86.0648C55.988 85.6285 55.7581 85.3177 55.4678 85.1317C55.1775 84.9378 54.8103 84.8408 54.3669 84.8408C54.1171 84.8408 53.8909 84.8936 53.6895 84.9984C53.4959 85.1032 53.3428 85.2407 53.2297 85.4104C53.1251 85.5722 53.0725 85.7376 53.0725 85.9073C53.0725 86.1739 53.1614 86.4084 53.3386 86.6101C53.5158 86.804 53.762 86.9295 54.0766 86.9858L55.3589 87.2645C56.141 87.4342 56.7459 87.7572 57.1736 88.234C57.6012 88.7024 57.8147 89.2641 57.8147 89.9185C57.8147 90.3869 57.6859 90.8274 57.4276 91.2394C57.1693 91.6514 56.7985 91.9865 56.3146 92.2452C55.8386 92.4955 55.2785 92.6209 54.6331 92.6209ZM62.1148 92.5482C61.3732 92.5482 60.7961 92.3464 60.3848 91.9423C59.982 91.5303 59.7799 90.9528 59.7799 90.2093V87.3009H58.6428V85.883H58.7638C59.0868 85.883 59.3366 85.7982 59.5138 85.6285C59.6916 85.4589 59.7799 85.2123 59.7799 84.8893V84.3803H61.3648V85.883H62.877V87.3009H61.3648V90.1245C61.3648 90.811 61.7361 91.1546 62.4777 91.1546C62.6072 91.1546 62.7481 91.1425 62.9011 91.1182V92.4876C62.6435 92.5282 62.381 92.5482 62.1148 92.5482ZM66.0719 92.3785L63.5072 85.883H65.213L66.9187 90.4275L68.6124 85.883H70.3302L66.7736 94.8992H65.0678L66.0719 92.3785ZM71.2007 83.3018H72.7855V92.4755H71.2007V83.3018ZM77.3698 92.6209C76.7081 92.6209 76.1195 92.4676 75.6036 92.1604C75.0955 91.8532 74.6963 91.4376 74.4059 90.9122C74.1235 90.3869 73.9825 89.8052 73.9825 89.1671C73.9825 88.5206 74.1235 87.9389 74.4059 87.4221C74.6963 86.8967 75.087 86.4847 75.5794 86.186C76.079 85.8873 76.6355 85.7376 77.2488 85.7376C77.91 85.7376 78.4828 85.883 78.9667 86.1739C79.4506 86.4568 79.8172 86.8446 80.0676 87.3372C80.3253 87.8299 80.4547 88.3716 80.4547 88.9611C80.4547 89.2356 80.4263 89.458 80.37 89.6276H75.6278C75.6762 90.1124 75.8613 90.5002 76.1843 90.791C76.5067 91.0819 76.9059 91.2273 77.3819 91.2273C77.7364 91.2273 78.0388 91.1546 78.2892 91.0092C78.5469 90.8559 78.7526 90.6456 78.9062 90.379L80.1886 91.0092C79.9865 91.4939 79.6321 91.8859 79.124 92.1846C78.6159 92.4755 78.0309 92.6209 77.3698 92.6209ZM78.761 88.4158C78.7205 88.0116 78.5633 87.6844 78.2892 87.4342C78.0146 87.1755 77.668 87.0464 77.2488 87.0464C76.8454 87.0464 76.5024 87.1676 76.2206 87.41C75.9381 87.6445 75.7524 87.9795 75.6641 88.4158H78.761ZM84.1239 92.6088C83.4628 92.6088 82.8778 92.4513 82.3697 92.1362C81.8695 91.8211 81.515 91.3891 81.3051 90.8395L82.4786 90.2336C82.6558 90.5892 82.8899 90.868 83.1803 91.0697C83.4785 91.2636 83.8051 91.3606 84.1602 91.3606C84.4669 91.3606 84.7046 91.3 84.8739 91.1788C85.0512 91.0497 85.1401 90.8759 85.1401 90.6577C85.1401 90.4717 85.0675 90.3184 84.9223 90.1972C84.7772 90.0681 84.5878 89.9833 84.3537 89.9427L83.2771 89.7609C82.7206 89.6155 82.2893 89.3689 81.9826 89.0217C81.6844 88.666 81.535 88.2504 81.535 87.7735C81.535 87.3778 81.6397 87.0264 81.8495 86.7192C82.0594 86.4041 82.3498 86.1617 82.7206 85.9921C83.0998 85.8224 83.5269 85.7376 84.0029 85.7376C84.6078 85.7376 85.1401 85.883 85.5998 86.1739C86.0595 86.4568 86.394 86.8525 86.6039 87.3615L85.4304 87.9674C85.3016 87.6844 85.1038 87.4584 84.8376 87.2888C84.5715 87.1191 84.2769 87.0343 83.9545 87.0343C83.6884 87.0343 83.4748 87.0949 83.3133 87.2161C83.1603 87.3373 83.0835 87.4948 83.0835 87.6887C83.0835 88.0444 83.3496 88.2825 83.8819 88.4037L84.9344 88.5976C85.4909 88.7509 85.9222 89.0017 86.2289 89.3489C86.5355 89.6961 86.6886 90.1082 86.6886 90.585C86.6886 90.9807 86.5797 91.3321 86.3619 91.6393C86.1521 91.9465 85.8538 92.1846 85.4667 92.3543C85.0796 92.524 84.632 92.6088 84.1239 92.6088Z" fill="#1E1634"/>
<path opacity="0.1" d="M83.6477 13.0992H54.3425C50.3337 13.0992 47.084 16.3546 47.084 20.3704V49.7263C47.084 53.742 50.3337 56.9974 54.3425 56.9974H83.6477C87.6565 56.9974 90.9063 53.742 90.9063 49.7263V20.3704C90.9063 16.3546 87.6565 13.0992 83.6477 13.0992Z" fill="#43B0FF"/>
<mask id="mask0_2043_11772" style="mask-type:luminance" maskUnits="userSpaceOnUse" x="56" y="23" width="25" height="25">
<path d="M80.9568 23.4H56.7617V47.6371H80.9568V23.4Z" fill="white"/>
</mask>
<g mask="url(#mask0_2043_11772)">
<path d="M80.15 31.4055L70.1332 23.8254C69.3831 23.2576 68.3355 23.2576 67.5855 23.8254L57.5687 31.4055C56.5864 32.149 56.4847 33.5947 57.3527 34.4691C57.7683 34.8877 58.3314 35.0883 58.8879 35.061V45.4587C58.8879 45.8514 59.2055 46.1689 59.5968 46.1689H61.7707V46.9263C61.7707 47.3189 62.0877 47.637 62.4797 47.637C62.871 47.637 63.1886 47.3189 63.1886 46.9263V36.2275H67.4415V37.6477H65.3147C64.9234 37.6477 64.6058 37.9652 64.6058 38.3579C64.6058 38.7499 64.9234 39.068 65.3147 39.068H67.4415V40.4883H66.0236C65.6323 40.4883 65.3147 40.8058 65.3147 41.1985C65.3147 41.5905 65.6323 41.9086 66.0236 41.9086H67.4415V43.3289H65.3147C64.9234 43.3289 64.6058 43.6464 64.6058 44.039C64.6058 44.4311 64.9234 44.7492 65.3147 44.7492H67.4415V46.9269C67.4415 47.3189 67.759 47.637 68.1504 47.637C68.5417 47.637 68.8593 47.3189 68.8593 46.9269V46.1695H70.9855V46.9269C70.9855 47.3189 71.303 47.637 71.6944 47.637C72.0857 47.637 72.4033 47.3189 72.4033 46.9269V44.7492H73.8211V46.9269C73.8211 47.3189 74.1387 47.637 74.53 47.637C74.9214 47.637 75.239 47.3189 75.239 46.9269V46.1695H78.074C78.466 46.1695 78.7829 45.8514 78.7829 45.4593V35.0586C79.363 35.1004 79.9437 34.8944 80.3653 34.4697C81.2333 33.5947 81.1323 32.149 80.15 31.4055ZM73.16 40.4877C72.3779 40.4877 71.7422 39.7939 71.7422 38.9408C71.7422 38.0004 72.4245 37.2618 73.0209 36.7231C73.6602 37.7023 74.5772 37.9689 74.5772 38.9408C74.5772 39.7939 73.9415 40.4877 73.16 40.4877ZM73.4939 41.8868C73.5931 42.2382 73.7322 42.7951 73.7921 43.3283H72.4323C72.4928 42.789 72.635 42.2249 72.7342 41.8747C72.9979 41.9165 73.2453 41.9177 73.4939 41.8868ZM75.239 44.7486C75.239 43.7621 75.3049 43.0072 74.8144 41.3481C75.5287 40.8089 75.9951 39.9309 75.9951 38.9408C75.9951 36.9146 74.1816 36.5952 74.0026 35.4107C73.9131 34.8205 73.1781 34.5975 72.7771 35.0392C72.3628 35.4955 70.3243 36.7807 70.3243 38.9408C70.3243 39.8951 70.7574 40.7452 71.4282 41.2881C70.9274 42.949 70.9861 43.7058 70.9861 44.7486H68.8593V35.5167C68.8593 35.1247 68.5417 34.8066 68.1504 34.8066H62.4797C62.0883 34.8066 61.7707 35.1247 61.7707 35.5167V44.7486H60.3057V34.4284L68.8593 27.9553L77.3657 34.3927V44.7486H75.239ZM79.3606 33.4681C79.1489 33.6807 78.8095 33.705 78.5706 33.5244L69.2863 26.4987C69.0335 26.3072 68.6845 26.3072 68.4323 26.4987L59.148 33.5244C58.9091 33.705 58.5698 33.6807 58.358 33.4681C58.0949 33.2027 58.1264 32.7634 58.4228 32.5386L68.4401 24.9584C68.6869 24.7718 69.0317 24.7718 69.2785 24.9584L79.2959 32.5386C79.5923 32.7634 79.6237 33.2027 79.3606 33.4681Z" fill="#43B0FF"/>
</g>
</svg>
