<svg width="51" height="51" viewBox="0 0 51 51" fill="none" xmlns="http://www.w3.org/2000/svg">
<rect x="0.53125" y="0.347656" width="50" height="50" rx="13" fill="url(#paint0_linear_3336_1434)"/>
<g clip-path="url(#clip0_3336_1434)">
<path d="M37.6609 28.1666L36.0992 26.2758C35.8657 25.9932 35.4593 25.9266 35.1478 26.1202L33.086 27.4019C32.7424 27.6156 32.6372 28.067 32.8508 28.4105C33.0642 28.7542 33.5159 28.8595 33.8594 28.6459L34.5148 28.2385C33.9708 30.2633 32.7997 32.083 31.1229 33.4705C28.7576 35.4277 25.6276 36.048 22.7502 35.1298C20.9617 34.5591 19.4513 33.5791 18.2609 32.2172C17.1544 30.9517 16.3822 29.3963 16.0272 27.7189C15.9435 27.3234 15.5546 27.0702 15.159 27.1542C14.7632 27.2379 14.5103 27.6266 14.5942 28.0224C15.4529 32.0799 18.3355 35.2585 22.305 36.5252C23.3283 36.8517 24.3785 37.0117 25.4224 37.0117C27.8005 37.0117 30.1448 36.1811 32.0568 34.5989C34.0225 32.9724 35.3799 30.8226 35.9788 28.4302L36.5316 29.0995C36.6764 29.2748 36.8856 29.3654 37.0967 29.3654C37.2608 29.3654 37.4261 29.3104 37.5627 29.1977C37.8744 28.9402 37.9184 28.4784 37.6609 28.1666Z" fill="white"/>
<path d="M15.1226 25.2861C15.2579 25.2861 15.3939 25.2471 15.5089 25.1756L17.5707 23.8939C17.9142 23.6804 18.0195 23.2288 17.8061 22.8853C17.5925 22.5418 17.1408 22.4363 16.7973 22.6499L16.1215 23.0699C16.5894 21.2356 17.5635 19.5856 18.9879 18.2348C20.2536 17.0345 21.8134 16.2187 23.4986 15.8761C25.1845 15.5334 26.9219 15.6797 28.5229 16.2992C30.1428 16.9258 31.5098 17.9058 32.5861 19.2119C33.5921 20.4326 34.3009 21.9108 34.6358 23.487C34.7199 23.8828 35.1088 24.1355 35.5044 24.0512C35.9002 23.9671 36.1527 23.5782 36.0686 23.1826C35.685 21.3769 34.8715 19.6819 33.7166 18.2804C32.4784 16.7777 30.9088 15.6515 29.0516 14.933C27.1887 14.2124 25.1677 14.0422 23.2068 14.4407C21.2525 14.838 19.4451 15.7825 17.9799 17.1718C16.9278 18.1697 16.0832 19.3244 15.47 20.6043C15.0717 21.4353 14.8209 22.0857 14.6603 22.8441L14.1253 22.1963C13.8676 21.8845 13.406 21.8404 13.0942 22.0981C12.7823 22.3556 12.7383 22.8174 12.9958 23.1292L14.5575 25.0202C14.7011 25.1941 14.9104 25.2861 15.1226 25.2861Z" fill="white"/>
</g>
<defs>
<linearGradient id="paint0_linear_3336_1434" x1="25.5312" y1="0.347656" x2="25.5313" y2="50.3477" gradientUnits="userSpaceOnUse">
<stop stop-color="#8F73FF"/>
<stop offset="1" stop-color="#5B3DD5"/>
</linearGradient>
<clipPath id="clip0_3336_1434">
<rect width="25" height="25" fill="white" transform="translate(12.8281 13.1074)"/>
</clipPath>
</defs>
</svg>
