<svg width="51" height="51" viewBox="0 0 51 51" fill="none" xmlns="http://www.w3.org/2000/svg">
<path d="M0.53125 13.3574C0.53125 6.17772 6.35155 0.357422 13.5312 0.357422H37.5313C44.711 0.357422 50.5312 6.17772 50.5312 13.3574V37.3574C50.5312 44.5371 44.711 50.3574 37.5313 50.3574H13.5312C6.35155 50.3574 0.53125 44.5371 0.53125 37.3574V13.3574Z" fill="#30334F"/>
<g clip-path="url(#clip0_3336_1350)">
<path d="M37.6609 28.1764L36.0992 26.2856C35.8657 26.0029 35.4593 25.9364 35.1478 26.13L33.086 27.4117C32.7424 27.6253 32.6372 28.0768 32.8508 28.4203C33.0642 28.764 33.5159 28.8693 33.8594 28.6557L34.5148 28.2483C33.9708 30.2731 32.7997 32.0927 31.1229 33.4803C28.7576 35.4374 25.6276 36.0577 22.7502 35.1395C20.9617 34.5688 19.4513 33.5888 18.2609 32.227C17.1544 30.9615 16.3822 29.406 16.0272 27.7287C15.9435 27.3331 15.5546 27.08 15.159 27.1639C14.7632 27.2477 14.5103 27.6364 14.5942 28.0322C15.4529 32.0897 18.3355 35.2683 22.305 36.5349C23.3283 36.8615 24.3785 37.0215 25.4224 37.0215C27.8005 37.0215 30.1448 36.1909 32.0568 34.6087C34.0225 32.9821 35.3799 30.8323 35.9788 28.44L36.5316 29.1092C36.6764 29.2845 36.8856 29.3751 37.0967 29.3751C37.2608 29.3751 37.4261 29.3202 37.5627 29.2075C37.8744 28.95 37.9184 28.4882 37.6609 28.1764Z" fill="#727998"/>
<path d="M15.1226 25.2958C15.2579 25.2958 15.3939 25.2569 15.5089 25.1854L17.5707 23.9036C17.9142 23.6902 18.0195 23.2385 17.8061 22.895C17.5925 22.5515 17.1408 22.446 16.7973 22.6597L16.1215 23.0797C16.5894 21.2454 17.5635 19.5953 18.9879 18.2445C20.2536 17.0442 21.8134 16.2285 23.4986 15.8859C25.1845 15.5432 26.9219 15.6894 28.5229 16.309C30.1428 16.9355 31.5098 17.9155 32.5861 19.2217C33.5921 20.4424 34.3009 21.9206 34.6358 23.4968C34.7199 23.8926 35.1088 24.1453 35.5044 24.061C35.9002 23.9769 36.1527 23.588 36.0686 23.1924C35.685 21.3867 34.8715 19.6916 33.7166 18.2901C32.4784 16.7875 30.9088 15.6612 29.0516 14.9427C27.1887 14.2221 25.1677 14.052 23.2068 14.4504C21.2525 14.8477 19.4451 15.7923 17.9799 17.1816C16.9278 18.1795 16.0832 19.3342 15.47 20.614C15.0717 21.4451 14.8209 22.0955 14.6603 22.8538L14.1253 22.2061C13.8676 21.8942 13.406 21.8502 13.0942 22.1079C12.7823 22.3654 12.7383 22.8271 12.9958 23.139L14.5575 25.0299C14.7011 25.2039 14.9104 25.2958 15.1226 25.2958Z" fill="#727998"/>
</g>
<defs>
<clipPath id="clip0_3336_1350">
<rect width="25" height="25" fill="white" transform="translate(12.8281 13.1172)"/>
</clipPath>
</defs>
</svg>
