<svg width="51" height="51" viewBox="0 0 51 51" fill="none" xmlns="http://www.w3.org/2000/svg">
<path d="M0.53125 13.3574C0.53125 6.17772 6.35155 0.357422 13.5312 0.357422H37.5313C44.711 0.357422 50.5312 6.17772 50.5312 13.3574V37.3574C50.5312 44.5371 44.711 50.3574 37.5313 50.3574H13.5312C6.35155 50.3574 0.53125 44.5371 0.53125 37.3574V13.3574Z" fill="#30334F"/>
<path d="M23.4108 21.9635H18.6191V17.1719M18.898 29.9723C19.791 31.3474 21.1014 32.4 22.6366 32.9755C24.1719 33.5511 25.8517 33.6192 27.4286 33.17C29.0055 32.7208 30.3964 31.7782 31.3979 30.48C32.3995 29.1818 32.9587 27.5966 32.993 25.9574C33.0274 24.3181 32.5352 22.7111 31.5889 21.3721C30.6426 20.0331 29.2917 19.033 27.735 18.5181C26.1783 18.0033 24.4976 18.0008 22.9396 18.5116C21.3816 19.0223 20.0285 20.019 19.0787 21.3555" stroke="#727998" stroke-width="1.5" stroke-linecap="round" stroke-linejoin="round"/>
</svg>
