<svg width="51" height="51" viewBox="0 0 51 51" fill="none" xmlns="http://www.w3.org/2000/svg">
<rect x="0.53125" y="0.347656" width="50" height="50" rx="13" fill="url(#paint0_linear_3336_1428)"/>
<path d="M23.4108 21.9538H18.6191V17.1621M18.898 29.9625C19.791 31.3376 21.1014 32.3902 22.6366 32.9657C24.1719 33.5413 25.8517 33.6094 27.4286 33.1602C29.0055 32.711 30.3964 31.7684 31.3979 30.4702C32.3995 29.172 32.9587 27.5869 32.993 25.9476C33.0274 24.3083 32.5352 22.7013 31.5889 21.3623C30.6426 20.0233 29.2917 19.0232 27.735 18.5084C26.1783 17.9935 24.4976 17.9911 22.9396 18.5018C21.3816 19.0126 20.0285 20.0093 19.0787 21.3458" stroke="white" stroke-width="1.5" stroke-linecap="round" stroke-linejoin="round"/>
<defs>
<linearGradient id="paint0_linear_3336_1428" x1="25.5312" y1="0.347656" x2="25.5313" y2="50.3477" gradientUnits="userSpaceOnUse">
<stop stop-color="#8F73FF"/>
<stop offset="1" stop-color="#5B3DD5"/>
</linearGradient>
</defs>
</svg>
