<svg width="25" height="25" viewBox="0 0 25 25" fill="none" xmlns="http://www.w3.org/2000/svg">
<path d="M12.1675 10.5574C13.2721 10.5574 14.1675 11.4528 14.1675 12.5574C14.1675 13.6619 13.2721 14.5574 12.1675 14.5574C11.0629 14.5574 10.1675 13.6619 10.1675 12.5574C10.1675 11.4528 11.0629 10.5574 12.1675 10.5574Z" stroke="white" stroke-width="1.5" stroke-linecap="round" stroke-linejoin="round"/>
<path d="M7.06884 7.30427C6.1324 6.76362 4.93498 7.08446 4.39432 8.02091L4.35258 8.09321C3.81172 9.03001 4.13269 10.2279 5.06948 10.7687L5.31228 10.9089C5.8849 11.2395 6.16748 11.8962 6.16748 12.5574C6.16748 13.2186 5.8849 13.8752 5.31228 14.2058L5.06949 14.346C4.13269 14.8869 3.81172 16.0847 4.35258 17.0215L4.39432 17.0938C4.93498 18.0303 6.1324 18.3511 7.06884 17.8105L7.31294 17.6695C7.88551 17.339 8.59079 17.4204 9.16278 17.752C9.73459 18.0834 10.1675 18.6579 10.1675 19.3188V19.6001C10.1675 20.6811 11.0438 21.5574 12.1248 21.5574H12.2102C13.2912 21.5574 14.1675 20.6811 14.1675 19.6001V19.3188C14.1675 18.6579 14.6004 18.0834 15.1722 17.752C15.7442 17.4204 16.4495 17.339 17.022 17.6695L17.2661 17.8105C18.2026 18.3511 19.4 18.0303 19.9407 17.0938L19.9824 17.0216C20.5233 16.0848 20.2023 14.8869 19.2655 14.346L19.0227 14.2058C18.4501 13.8752 18.1675 13.2186 18.1675 12.5574C18.1675 11.8962 18.4501 11.2395 19.0227 10.9089L19.2655 10.7687C20.2023 10.2279 20.5233 9.02999 19.9824 8.09319L19.9407 8.02091C19.4 7.08446 18.2026 6.76361 17.2661 7.30427L17.022 7.4452C16.4495 7.77578 15.7442 7.69436 15.1722 7.36279C14.6004 7.03132 14.1675 6.45689 14.1675 5.79596V5.51465C14.1675 4.43368 13.2912 3.55737 12.2102 3.55737L12.1248 3.55737C11.0438 3.55737 10.1675 4.43367 10.1675 5.51465V5.79596C10.1675 6.45689 9.73459 7.03132 9.16278 7.36279C8.59079 7.69436 7.88551 7.77578 7.31294 7.4452L7.06884 7.30427Z" stroke="white" stroke-width="1.5" stroke-linecap="round" stroke-linejoin="round"/>
</svg>
