<svg width="295" height="212" viewBox="0 0 295 212" fill="none" xmlns="http://www.w3.org/2000/svg">
<g clip-path="url(#clip0_2028_4116)">
<path d="M220.681 119.996C220.681 129.419 228.32 137.057 237.742 137.057H249.639C259.062 137.057 266.7 144.696 266.7 154.118C266.7 163.541 259.062 171.18 249.639 171.18H237.743C228.32 171.18 220.681 178.818 220.681 188.241C220.681 197.664 213.042 205.302 203.62 205.302H90.8258C81.4028 205.302 73.7646 197.663 73.7646 188.241C73.7646 178.818 66.1257 171.18 56.7034 171.18H17.8581C8.43571 171.18 0.796875 163.541 0.796875 154.119C0.796875 144.696 8.43571 137.058 17.8581 137.058H56.7028C66.1257 137.058 73.764 129.419 73.764 119.997C73.764 110.574 66.1252 102.935 56.7028 102.935H46.4903C37.0674 102.935 29.4291 95.2967 29.4291 85.8743C29.4291 76.4514 37.068 68.8131 46.4903 68.8131H105.008C114.431 68.8131 122.07 61.1743 122.07 51.7519C122.07 42.329 114.431 34.6907 105.008 34.6907H78.8361C69.4131 34.6907 61.7749 27.0519 61.7749 17.6296C61.7749 8.20662 69.4137 0.568359 78.8361 0.568359H215.609C225.032 0.568359 232.67 8.20719 232.67 17.6296C232.67 27.0525 225.032 34.6907 215.609 34.6907H189.437C180.014 34.6907 172.376 42.3296 172.376 51.7519C172.376 61.1749 180.015 68.8131 189.437 68.8131H276.587C286.01 68.8131 293.648 76.4519 293.648 85.8743C293.648 95.2972 286.01 102.935 276.587 102.935H237.743C228.32 102.935 220.681 110.574 220.681 119.996Z" fill="#BBB9FF"/>
<path d="M238.013 45.9668V142.009C238.013 150.096 231.457 156.651 223.371 156.651H71.0879C63.0012 156.651 56.4453 150.096 56.4453 142.009V45.9668C56.4453 37.8801 63.0012 31.3242 71.0879 31.3242H223.371C231.457 31.3242 238.013 37.8801 238.013 45.9668Z" fill="#8266F4"/>
<path opacity="0.12" d="M238.002 45.9805V142.007C238.002 150.089 231.471 156.649 223.359 156.649H71.0762C63.052 156.649 56.5507 150.206 56.4336 142.211C67.2105 145.081 78.5146 146.575 90.1994 146.575C157.555 146.575 213.168 96.3802 221.69 31.3379H223.359C231.472 31.3379 238.002 37.8685 238.002 45.9805Z" fill="black"/>
<path d="M111.864 179.629C111.864 187.426 105.535 193.719 97.7738 193.719C90.0121 193.719 83.6836 187.426 83.6836 179.629C83.6836 171.868 90.0121 165.539 97.7738 165.539C105.535 165.54 111.864 171.868 111.864 179.629Z" fill="#BBB9FF"/>
<path d="M184.886 93.9893C184.886 114.792 168.022 131.657 147.241 131.657C126.439 131.657 109.574 114.792 109.574 93.9893C109.574 73.1865 126.439 56.3223 147.241 56.3223C168.022 56.3217 184.886 73.1871 184.886 93.9893Z" fill="#F5F5F5"/>
<path d="M71.0887 159.579H223.371C233.061 159.579 240.943 151.697 240.943 142.008V45.9676C240.943 36.2782 233.061 28.3965 223.371 28.3965H71.0887C61.3993 28.3965 53.5176 36.2782 53.5176 45.9676V142.008C53.5176 151.697 61.3999 159.579 71.0887 159.579ZM59.3746 45.9676C59.3746 39.507 64.6281 34.2535 71.0887 34.2535H223.371C229.832 34.2535 235.086 39.507 235.086 45.9676V142.008C235.086 148.468 229.832 153.722 223.371 153.722H71.0887C64.6281 153.722 59.3746 148.468 59.3746 142.008V45.9676Z" fill="#1E2E49"/>
<path d="M56.4324 184.729H81.0285C82.4302 192.711 89.3977 198.802 97.7744 198.802C106.151 198.802 113.119 192.711 114.52 184.729H238C239.619 184.729 240.928 183.419 240.928 181.8C240.928 180.181 239.619 178.872 238 178.872H114.526C113.138 170.873 106.163 164.764 97.7744 164.764C89.3857 164.764 82.4107 170.873 81.0233 178.872H56.4324C54.8137 178.872 53.5039 180.181 53.5039 181.8C53.5039 183.419 54.8137 184.729 56.4324 184.729ZM97.7744 170.621C103.929 170.621 108.937 175.628 108.937 181.783C108.937 187.937 103.929 192.945 97.7744 192.945C91.6401 192.945 86.6507 187.968 86.6185 181.842C86.6185 181.827 86.6271 181.815 86.6271 181.8C86.6271 181.781 86.6168 181.766 86.6162 181.747C86.6363 175.61 91.6326 170.621 97.7744 170.621Z" fill="#1E2E49"/>
<path d="M97.7742 187.068C99.3929 187.068 100.703 185.758 100.703 184.14V179.427C100.703 177.808 99.3929 176.498 97.7742 176.498C96.1555 176.498 94.8457 177.808 94.8457 179.427V184.14C94.8457 185.758 96.1555 187.068 97.7742 187.068Z" fill="#1E2E49"/>
<path d="M147.243 134.585C169.615 134.585 187.816 116.373 187.816 93.9887C187.816 71.6045 169.615 53.3926 147.243 53.3926C124.858 53.3926 106.646 71.6045 106.646 93.9887C106.646 116.373 124.858 134.585 147.243 134.585ZM147.243 59.2496C166.384 59.2496 181.959 74.8333 181.959 93.9887C181.959 113.144 166.384 128.728 147.243 128.728C128.087 128.728 112.504 113.144 112.504 93.9887C112.504 74.8333 128.087 59.2496 147.243 59.2496Z" fill="#1E2E49"/>
<path d="M138.064 113.718C138.505 113.958 138.991 114.079 139.474 114.079C140.02 114.079 140.57 113.925 141.047 113.621L168.001 96.4591C168.845 95.9216 169.357 94.9891 169.357 93.9882C169.357 92.9873 168.845 92.0548 168.001 91.5173L141.047 74.358C140.146 73.7889 139.002 73.7487 138.064 74.2609C137.128 74.7754 136.545 75.7596 136.545 76.8288V111.15C136.545 112.22 137.129 113.204 138.064 113.718ZM142.403 82.1656L160.974 93.9882L142.403 105.814V82.1656Z" fill="#1E2E49"/>
</g>
<defs>
<clipPath id="clip0_2028_4116">
<rect width="294" height="211" fill="white" transform="translate(0.222656 0.107422)"/>
</clipPath>
</defs>
</svg>
