<svg width="24" height="25" viewBox="0 0 24 25" fill="none" xmlns="http://www.w3.org/2000/svg">
<path d="M3 12.3535C3 7.38295 7.02944 3.35352 12 3.35352C16.9706 3.35352 21 7.38295 21 12.3535C21 17.3241 16.9706 21.3535 12 21.3535C7.02944 21.3535 3 17.3241 3 12.3535Z" fill="black" fill-opacity="0.12"/>
<path d="M12 13.3535V8.35352M12 3.35352C7.02944 3.35352 3 7.38295 3 12.3535C3 17.3241 7.02944 21.3535 12 21.3535C16.9706 21.3535 21 17.3241 21 12.3535C21 7.38295 16.9706 3.35352 12 3.35352ZM12.0498 16.3535V16.2535L11.9502 16.2533V16.3535H12.0498Z" stroke="white" stroke-opacity="0.71" stroke-width="1.5" stroke-linecap="round" stroke-linejoin="round"/>
</svg>
