<svg width="51" height="51" viewBox="0 0 51 51" fill="none" xmlns="http://www.w3.org/2000/svg">
<rect x="0.53125" y="0.347656" width="50" height="50" rx="13" fill="url(#paint0_linear_3336_1431)"/>
<path d="M27.2454 21.9538H32.0371V17.1621M31.7582 29.9625C30.8652 31.3376 29.5549 32.3902 28.0196 32.9657C26.4843 33.5413 24.8046 33.6094 23.2277 33.1602C21.6508 32.711 20.2598 31.7684 19.2583 30.4702C18.2568 29.172 17.6975 27.5869 17.6632 25.9476C17.6289 24.3083 18.121 22.7013 19.0673 21.3623C20.0136 20.0233 21.3645 19.0232 22.9212 18.5084C24.4779 17.9935 26.1586 17.9911 27.7167 18.5018C29.2747 19.0126 30.6278 20.0093 31.5776 21.3458" stroke="white" stroke-width="1.5" stroke-linecap="round" stroke-linejoin="round"/>
<defs>
<linearGradient id="paint0_linear_3336_1431" x1="25.5312" y1="0.347656" x2="25.5313" y2="50.3477" gradientUnits="userSpaceOnUse">
<stop stop-color="#8F73FF"/>
<stop offset="1" stop-color="#5B3DD5"/>
</linearGradient>
</defs>
</svg>
