<svg width="51" height="51" viewBox="0 0 51 51" fill="none" xmlns="http://www.w3.org/2000/svg">
<path d="M0.53125 13.3574C0.53125 6.17772 6.35155 0.357422 13.5312 0.357422H37.5313C44.711 0.357422 50.5312 6.17772 50.5312 13.3574V37.3574C50.5312 44.5371 44.711 50.3574 37.5313 50.3574H13.5312C6.35155 50.3574 0.53125 44.5371 0.53125 37.3574V13.3574Z" fill="#30334F"/>
<path d="M27.2454 21.9635H32.0371V17.1719M31.7582 29.9723C30.8652 31.3474 29.5549 32.4 28.0196 32.9755C26.4843 33.5511 24.8046 33.6192 23.2277 33.17C21.6508 32.7208 20.2598 31.7782 19.2583 30.48C18.2568 29.1818 17.6975 27.5966 17.6632 25.9574C17.6289 24.3181 18.121 22.7111 19.0673 21.3721C20.0136 20.0331 21.3645 19.033 22.9212 18.5181C24.4779 18.0033 26.1586 18.0008 27.7167 18.5116C29.2747 19.0223 30.6278 20.019 31.5776 21.3555" stroke="#727998" stroke-width="1.5" stroke-linecap="round" stroke-linejoin="round"/>
</svg>
