<svg width="17" height="17" viewBox="0 0 17 17" fill="none" xmlns="http://www.w3.org/2000/svg">
<path d="M1.47852 13.8557V3.18908C1.47852 2.30951 1.47852 1.86924 1.66361 1.609C1.82515 1.38187 2.07415 1.23274 2.35059 1.19708C2.6672 1.15625 3.05552 1.36335 3.83105 1.77697L13.8311 7.1103L13.8347 7.11191C14.6917 7.56901 15.1205 7.79767 15.2611 8.10242C15.3838 8.36828 15.3838 8.67517 15.2611 8.94103C15.1203 9.24622 14.6905 9.47581 13.8311 9.9342L3.83105 15.2675C3.05497 15.6814 2.66731 15.8877 2.35059 15.8469C2.07415 15.8112 1.82515 15.6621 1.66361 15.435C1.47852 15.1748 1.47852 14.7353 1.47852 13.8557Z" stroke="white" stroke-width="2" stroke-linecap="round" stroke-linejoin="round"/>
</svg>
